<?xml version="1.0" standalone="no"?>
<!DOCTYPE svg PUBLIC "-//W3C//DTD SVG 1.1//EN" "http://www.w3.org/Graphics/SVG/1.1/DTD/svg11.dtd" >
<svg>
<metadata>
Created by FontForge 20120731 at Thu Jun 18 08:54:05 2015
 By ,,,
Copyright (c) 2011 by Neil Summerour and Positype. All rights reserved.
</metadata>
<defs>
<font id="0f6b14f594504ced22ebedb586b5f81d08845e638971a0cc4314947a84061c5" horiz-adv-x="519" >
  <font-face 
    font-family="0f6b14f594504ced22ebedb586b5f81d08845e638971a0cc4314947a84061c5e"
    font-weight="400"
    font-style="italic"
    font-stretch="normal"
    units-per-em="1000"
    panose-1="2 0 5 6 0 0 0 2 0 4"
    ascent="750"
    descent="-250"
    x-height="488"
    cap-height="683"
    bbox="-105 -241 920 888"
    underline-thickness="50"
    underline-position="-50"
    slope="-9"
    unicode-range="U+0020-2122"
  />
<missing-glyph horiz-adv-x="531" 
 />
    <glyph glyph-name=".notdef" horiz-adv-x="531" 
 />
    <glyph glyph-name=".null" horiz-adv-x="0" 
 />
    <glyph glyph-name="nonmarkingreturn" horiz-adv-x="333" 
 />
    <glyph glyph-name="space" unicode=" " horiz-adv-x="198" 
 />
    <glyph glyph-name="space" unicode="&#xa0;" horiz-adv-x="198" 
 />
    <glyph glyph-name="exclam" unicode="!" horiz-adv-x="239" 
d="M150 196h-57l75 508h78zM46 33q0 11 4.5 22.5t12 21t18.5 15.5t25 6q20 0 31 -12.5t11 -30.5q0 -23 -15.5 -44t-44.5 -21q-20 0 -31 12t-11 31z" />
    <glyph glyph-name="quotedbl" unicode="&#x22;" horiz-adv-x="321" 
d="M221 716l-51 -219h-44l25 219h70zM360 716l-52 -219h-43l25 219h70z" />
    <glyph glyph-name="numbersign" unicode="#" horiz-adv-x="541" 
d="M431 433h93l-10 -49h-95l-39 -154h96l-10 -49h-98l-46 -169h-51l46 169h-110l-46 -169h-51l46 169h-92l9 49h96l38 154h-95l9 49h98l46 166h50l-45 -166h111l45 166h50zM219 230h110l40 154h-111z" />
    <glyph glyph-name="dollar" unicode="$" horiz-adv-x="482" 
d="M351 662q38 -2 68.5 -11.5t50.5 -20.5l-19 -52q-23 11 -54 21t-74 10q-57 0 -92 -33t-35 -86q0 -32 16.5 -53.5t41.5 -38.5t54 -33t54 -37.5t42 -50.5t17 -73q0 -42 -14.5 -76.5t-40 -59t-59 -40t-71.5 -20.5l-18 -98h-52l17 97q-37 1 -74 12t-62 25l18 54
q29 -16 64 -26.5t77 -10.5q30 0 56 9t45.5 26t31 41t11.5 55q0 35 -16.5 59t-41.5 42t-54 34t-54 36.5t-41.5 48t-16.5 69.5q0 37 14 68.5t37.5 55t55 38t66.5 18.5l16 98h54z" />
    <glyph glyph-name="percent" unicode="%" horiz-adv-x="827" 
d="M483 126q0 37 11 78.5t33.5 76t56 57t78.5 22.5q29 0 50 -11.5t35 -30t21 -42t7 -48.5q0 -48 -13 -90.5t-36 -75t-55 -51t-70 -18.5q-56 0 -87 37t-31 96zM651 317q-31 0 -52 -21.5t-34.5 -51.5t-19.5 -63t-6 -57q0 -35 14.5 -61t49.5 -26q27 0 48.5 15.5t37 42.5
t23.5 62.5t8 75.5q0 15 -3.5 30t-11.5 27t-21.5 19.5t-32.5 7.5zM107 444q0 37 11 78.5t33 76t55.5 57t78.5 22.5q31 0 52.5 -12t35 -31.5t20 -44.5t6.5 -50q0 -47 -13.5 -88.5t-36.5 -73t-55 -50t-69 -18.5q-56 0 -87 37.5t-31 96.5zM275 635q-31 0 -52.5 -21.5t-35 -51.5
t-19.5 -63t-6 -57q0 -37 15 -62.5t52 -25.5q25 0 46 15.5t36 41t23.5 59t8.5 69.5q0 17 -2.5 34.5t-10 31t-21 22t-34.5 8.5zM696 675l-453 -683h-55l455 683h53z" />
    <glyph glyph-name="ampersand" unicode="&#x26;" horiz-adv-x="598" 
d="M165 520q0 36 14 68t38 55t56 36.5t68 13.5q63 0 96.5 -34.5t33.5 -87.5q0 -55 -39 -108t-136 -100v-1q34 -54 71.5 -109t69.5 -101q30 38 54.5 91t43.5 125h62q-23 -87 -54.5 -150.5t-74.5 -110.5q19 -26 34.5 -47t36.5 -47l-48 -38q-14 17 -34.5 43t-36.5 47
q-49 -43 -100 -59t-103 -16q-42 0 -75.5 12.5t-56.5 34t-35 51t-12 63.5q0 74 48 131t124 95v1q-24 40 -34.5 72.5t-10.5 69.5zM236 336q-23 -13 -45.5 -29.5t-41 -38t-30 -48t-11.5 -57.5q0 -54 33.5 -87.5t91.5 -33.5q51 0 89 18t69 47q-30 44 -71.5 104t-83.5 125z
M268 404q22 11 46.5 26t45 34.5t34 44t13.5 56.5q0 30 -16 53.5t-56 23.5q-23 0 -42 -9t-33 -24.5t-22 -36.5t-8 -44q0 -32 9 -61.5t29 -62.5z" />
    <glyph glyph-name="quotesingle" unicode="'" horiz-adv-x="192" 
d="M225 716l-50 -219h-45l25 219h70z" />
    <glyph glyph-name="parenleft" unicode="(" horiz-adv-x="292" 
d="M360 749q-104 -128 -163 -281t-59 -324q0 -78 15.5 -158t49.5 -156h-47q-40 76 -60.5 158t-20.5 174q0 90 19.5 173t52 158t74 139.5t86.5 116.5h53z" />
    <glyph glyph-name="parenright" unicode=")" horiz-adv-x="292" 
d="M-24 -170q102 128 161.5 280.5t59.5 321.5q0 78 -16 159t-49 158h47q80 -151 80 -334q0 -89 -19.5 -172t-52 -157.5t-74.5 -139t-86 -116.5h-51z" />
    <glyph glyph-name="asterisk" unicode="*" horiz-adv-x="417" 
d="M231 529l-107 51q13 28 40 54l89 -75l4 2l8 126q32 6 62 0l-35 -126l4 -2l114 74q17 -24 22 -54l-123 -51l-1 -3l106 -51q-7 -16 -17 -29t-22 -25l-90 74l-5 -2l-7 -125q-31 -6 -61 0l33 125l-3 1l-113 -73q-17 23 -23 54l124 51z" />
    <glyph glyph-name="plus" unicode="+" horiz-adv-x="582" 
d="M343 294h206l-9 -52h-206l-35 -213h-53l35 213h-206l8 52h207l35 211h54z" />
    <glyph glyph-name="comma" unicode="," horiz-adv-x="222" 
d="M5 -124q31 52 52 110.5t33 118.5l69 -10q-10 -31 -24.5 -64t-30 -64t-31.5 -57.5t-29 -45.5z" />
    <glyph glyph-name="hyphen" unicode="-" horiz-adv-x="393" 
d="M361 298l-9 -53h-282l9 53h282z" />
    <glyph glyph-name="hyphen" unicode="&#xad;" horiz-adv-x="393" 
d="M361 298l-9 -53h-282l9 53h282z" />
    <glyph glyph-name="period" unicode="." horiz-adv-x="220" 
d="M47 33q0 23 16 44t44 21q20 0 31 -12.5t11 -30.5q0 -23 -16 -44t-44 -21q-20 0 -31 12t-11 31z" />
    <glyph glyph-name="slash" unicode="/" horiz-adv-x="370" 
d="M444 690l-406 -716h-56l404 716h58z" />
    <glyph glyph-name="zero" unicode="0" horiz-adv-x="520" 
d="M339 606q-34 0 -62 -17t-50 -46t-39 -68.5t-28.5 -83.5t-18 -91.5t-7.5 -92.5q0 -30 4 -59t15.5 -52.5t33 -37.5t56.5 -14q36 0 64.5 19t50.5 50t38 72.5t26.5 86.5t16 91t6.5 86q0 25 -3.5 52.5t-14.5 51t-32 38.5t-56 15zM347 660q48 0 79.5 -17.5t50 -47.5t26.5 -68.5
t8 -80.5q0 -86 -18.5 -168t-54 -146t-87 -103t-117.5 -39q-45 0 -77 16t-51.5 44.5t-29 67.5t-9.5 86q0 88 19 170t55 145.5t88 102t118 38.5z" />
    <glyph glyph-name="one" unicode="1" horiz-adv-x="431" 
d="M166 527l-16 50l152 76h57l-112 -653h-65l101 585h-2z" />
    <glyph glyph-name="two" unicode="2" horiz-adv-x="496" 
d="M302 603q-43 0 -78 -13t-65 -30l-10 51q35 23 79.5 36t88.5 13q45 0 75.5 -14t49.5 -36.5t27.5 -50.5t8.5 -57q0 -60 -30.5 -118t-81 -113.5t-115 -108.5t-132.5 -104v-1h302l-15 -57h-386l8 48q76 61 145 118.5t121.5 112.5t83 108t30.5 107q0 19 -5 38.5t-17.5 35
t-33 25.5t-50.5 10z" />
    <glyph glyph-name="three" unicode="3" horiz-adv-x="496" 
d="M186 46q44 0 76.5 13.5t54 35.5t32.5 50.5t11 57.5q0 31 -12 53.5t-32.5 36.5t-47.5 20.5t-56 6.5h-43l14 55h39q27 0 57 8t55.5 25.5t42 44t16.5 63.5q0 42 -26 64.5t-74 22.5q-38 0 -71.5 -9t-63.5 -25l-9 52q34 17 73.5 28t83.5 11q39 0 68.5 -10.5t49.5 -28.5t30 -42
t10 -52q0 -33 -11.5 -61.5t-31.5 -51t-46.5 -39t-56.5 -24.5v-2q54 -14 82.5 -53t28.5 -92q0 -47 -18.5 -86t-51.5 -67.5t-79 -44.5t-100 -16q-48 0 -87 11t-61 25l18 53q26 -12 59.5 -22.5t76.5 -10.5z" />
    <glyph glyph-name="four" unicode="4" horiz-adv-x="503" 
d="M329 237l44 238l18 101l-3 2l-80 -102l-197 -237v-2h218zM464 653l-71 -416h88l-14 -55h-85l-30 -182h-64l32 182h-292l9 48l355 423h72z" />
    <glyph glyph-name="five" unicode="5" horiz-adv-x="496" 
d="M188 400q14 2 25 3t22 1q40 0 76 -10.5t63 -31.5t42.5 -52.5t15.5 -73.5q0 -57 -20.5 -103t-56 -77.5t-82.5 -48.5t-100 -17q-45 0 -82.5 10t-60.5 22l18 54q25 -12 59 -21t74 -9q42 0 75.5 14.5t57.5 39.5t36.5 57.5t12.5 68.5q0 56 -37 89.5t-127 33.5
q-21 0 -40.5 -0.5t-40.5 -2.5l-1 1l77 303h296l-12 -58h-239z" />
    <glyph glyph-name="six" unicode="6" horiz-adv-x="513" 
d="M319 425q39 0 68 -13.5t48.5 -37t29.5 -55t10 -68.5q0 -51 -17.5 -98t-49 -83.5t-75 -58t-95.5 -21.5q-45 0 -78.5 15.5t-55.5 43.5t-32.5 67t-10.5 85q0 88 31 171.5t87 148t135 103.5t175 40l-9 -57q-50 0 -101 -16t-95.5 -49t-80.5 -83t-56 -117h2q32 38 78.5 60.5
t91.5 22.5zM133 262q-5 -17 -6.5 -34.5t-1.5 -34.5q0 -69 32.5 -109.5t89.5 -40.5q33 0 62 16t51.5 43t35.5 63t13 76q0 63 -29 96t-84 33q-25 0 -49 -8.5t-45.5 -23.5t-39 -34.5t-29.5 -41.5z" />
    <glyph glyph-name="seven" unicode="7" horiz-adv-x="470" 
d="M124 593l11 57h376l-8 -49l-371 -601h-72l324 520l46 71v2h-306z" />
    <glyph glyph-name="eight" unicode="8" horiz-adv-x="517" 
d="M338 661q37 0 67.5 -10.5t52 -30t32.5 -47.5t10 -62q-3 -57 -38.5 -98.5t-95.5 -68.5v-2q54 -28 80.5 -69t24.5 -92q-2 -45 -22.5 -81t-52 -60.5t-72 -37.5t-83.5 -13q-92 0 -143 46t-48 120q2 36 15 65.5t34.5 53t49.5 41.5t60 31v3q-45 27 -64 61.5t-17 73.5t19 72
t45.5 56t66 36t79.5 13zM245 42q33 0 61 9.5t48.5 27t33 42t13.5 54.5q3 56 -31 90t-99 54q-27 -8 -53.5 -21.5t-47.5 -33t-34.5 -45t-15.5 -57.5q-1 -24 6 -45.5t22.5 -38t39.5 -26.5t57 -10zM326 608q-28 0 -52 -9.5t-41 -25.5t-27.5 -38t-11.5 -47q-4 -87 111 -119
q25 7 47.5 20t40 30t28.5 38t12 46q1 20 -4 39t-18 33.5t-34 23.5t-51 9z" />
    <glyph glyph-name="nine" unicode="9" horiz-adv-x="513" 
d="M255 230q-39 0 -68.5 13.5t-49 36t-29 52.5t-9.5 63q0 51 18 99t49.5 85t75.5 59t96 22q43 0 75 -15.5t53 -42t31 -62t11 -76.5q-1 -90 -29.5 -175t-82.5 -151.5t-133 -108t-182 -43.5l7 56q41 0 89 11.5t94.5 41.5t86.5 80.5t64 128.5h-3q-35 -36 -78.5 -55t-85.5 -19z
M435 386q3 17 5.5 36t2.5 38q0 66 -28.5 106t-86.5 40q-33 0 -62.5 -15.5t-52 -41.5t-35.5 -62t-13 -76q0 -26 6.5 -49t20.5 -40t34.5 -27t49.5 -10q48 0 90.5 29t68.5 72z" />
    <glyph glyph-name="colon" unicode=":" horiz-adv-x="214" 
d="M47 33q0 23 16 44t44 21q20 0 31 -12.5t11 -30.5q0 -23 -16 -44t-44 -21q-20 0 -31 12t-11 31zM107 387q0 11 4.5 22.5t12 21t18.5 15.5t25 6q20 0 31.5 -12.5t11.5 -30.5q0 -23 -16 -44t-45 -21q-20 0 -31 12t-11 31z" />
    <glyph glyph-name="semicolon" unicode=";" horiz-adv-x="228" 
d="M5 -124q30 52 50.5 110.5t33.5 118.5l69 -10q-10 -31 -24.5 -64t-30 -64t-31.5 -57.5t-30 -45.5zM121 387q0 23 16 44t44 21q20 0 31 -12.5t11 -30.5q0 -23 -16 -44t-44 -21q-20 0 -31 12t-11 31z" />
    <glyph glyph-name="less" unicode="&#x3c;" horiz-adv-x="549" 
d="M78 250l5 40l465 229l-10 -61l-389 -188l-1 -2l327 -188l-9 -58z" />
    <glyph glyph-name="equal" unicode="=" horiz-adv-x="582" 
d="M531 200l-8 -51h-465l8 51h465zM563 389l-8 -51h-466l8 51h466z" />
    <glyph glyph-name="greater" unicode="&#x3e;" horiz-adv-x="549" 
d="M510 290l-6 -39l-465 -229l10 61l390 188l1 2l-327 188l9 58z" />
    <glyph glyph-name="question" unicode="?" horiz-adv-x="390" 
d="M173 692q12 2 23.5 3t24.5 1q46 0 79.5 -11t54.5 -29.5t31 -43t10 -52.5q0 -37 -13 -67t-33.5 -55.5t-44.5 -49t-46 -48.5t-39 -53t-23 -63q-3 -17 -3 -30h-62v11t1 11q1 36 15.5 66.5t35.5 57t46 50.5t46 48.5t35 50t14 55.5q0 44 -34 70t-97 26q-5 0 -12 -0.5t-14 -1.5
zM87 33q0 23 16 44t44 21q20 0 31 -12.5t11 -30.5q0 -23 -16 -44t-44 -21q-20 0 -31 12t-11 31z" />
    <glyph glyph-name="at" unicode="@" horiz-adv-x="792" 
d="M482 157q-36 -56 -79 -89t-84 -33q-45 0 -68.5 27.5t-23.5 70.5q0 46 23 97.5t61 95t87 71.5t102 28q27 0 57.5 -8t48.5 -22q-8 -27 -20.5 -61.5t-25 -69.5t-21.5 -69t-11.5 -60t5 -42t29.5 -16q40 0 70 28t49.5 68.5t29.5 86t10 79.5q0 46 -13.5 84.5t-41.5 66t-69.5 43
t-98.5 15.5q-80 0 -150.5 -34t-123 -91t-83 -131t-30.5 -154q0 -52 15.5 -95.5t44.5 -75t70.5 -49t94.5 -17.5q65 0 119 21l2 -43q-32 -13 -64.5 -18.5t-66.5 -5.5q-56 0 -105 19t-85.5 54.5t-57.5 86t-21 112.5q0 89 33.5 173t93.5 149t143 104.5t182 39.5q62 0 111 -18
t83.5 -51t52.5 -78.5t18 -100.5q0 -43 -15 -96t-44 -99.5t-71 -78.5t-95 -32q-25 0 -40 9.5t-22 25.5t-7.5 37.5t4.5 45.5h-2zM550 372q-8 4 -20 7t-33 3q-41 0 -79.5 -22.5t-68 -57t-47 -77.5t-17.5 -83q0 -29 13 -46t44 -17q21 0 45.5 15t49 41t46 61.5t35.5 76.5z" />
    <glyph glyph-name="A" unicode="A" horiz-adv-x="552" 
d="M507 0h-68l-31 221h-240l-108 -221h-69l339 684h75zM354 615l-47 -107l-113 -232h207l-32 232l-12 107h-3z" />
    <glyph glyph-name="B" unicode="B" horiz-adv-x="521" 
d="M172 331l-47 -276q34 -3 71 -3q39 0 77.5 6.5t68.5 23.5t49 48t19 80q0 58 -37 89.5t-97 31.5h-104zM320 631q-27 0 -51.5 -1t-44.5 -3l-42 -243h76q36 0 69.5 8t59 25.5t41 45.5t15.5 69q0 48 -31.5 73.5t-91.5 25.5zM167 677q37 4 76.5 6.5t82.5 2.5q90 0 138 -37.5
t48 -108.5q0 -33 -10 -62t-28.5 -52.5t-44 -40.5t-56.5 -26v-2q45 -12 76 -49.5t31 -96.5q0 -63 -25 -104.5t-67 -65.5t-95.5 -34t-110.5 -10q-37 0 -70.5 1.5t-59.5 3.5z" />
    <glyph glyph-name="B" unicode="&#xe000;" horiz-adv-x="521" 
d="M172 331l-47 -276q34 -3 71 -3q39 0 77.5 6.5t68.5 23.5t49 48t19 80q0 58 -37 89.5t-97 31.5h-104zM320 631q-27 0 -51.5 -1t-44.5 -3l-42 -243h76q36 0 69.5 8t59 25.5t41 45.5t15.5 69q0 48 -31.5 73.5t-91.5 25.5zM167 677q37 4 76.5 6.5t82.5 2.5q90 0 138 -37.5
t48 -108.5q0 -33 -10 -62t-28.5 -52.5t-44 -40.5t-56.5 -26v-2q45 -12 76 -49.5t31 -96.5q0 -63 -25 -104.5t-67 -65.5t-95.5 -34t-110.5 -10q-37 0 -70.5 1.5t-59.5 3.5z" />
    <glyph glyph-name="C" unicode="C" horiz-adv-x="542" 
d="M424 636q-69 0 -123 -31.5t-91 -83t-56 -116t-19 -130.5q0 -47 10.5 -88.5t33.5 -72.5t60 -49t91 -18q41 0 82.5 7t75.5 23l3 -56q-32 -13 -76 -22t-97 -9q-62 0 -109.5 20t-79.5 56t-48.5 87t-16.5 113q0 84 25 161t73.5 136t118.5 94t160 35q52 0 90.5 -10t55.5 -21
l-17 -54q-26 13 -63.5 21t-82.5 8z" />
    <glyph glyph-name="D" unicode="D" horiz-adv-x="624" 
d="M167 677q82 9 171 9q137 0 207.5 -67t70.5 -201q0 -88 -25.5 -165t-75.5 -134t-124 -89.5t-171 -32.5q-45 0 -87.5 1t-80.5 3zM333 630q-26 0 -55.5 -1t-53.5 -3l-98 -570q23 -2 44.5 -2.5t39.5 -0.5q81 -2 143.5 24t105.5 73.5t65.5 113.5t22.5 145q0 46 -11 86.5
t-36.5 70.5t-66.5 47t-100 17z" />
    <glyph glyph-name="E" unicode="E" horiz-adv-x="472" 
d="M494 626h-270l-42 -243h251l-15 -57h-246l-46 -269h288l-14 -57h-349l117 683h340z" />
    <glyph glyph-name="E" unicode="&#xe001;" horiz-adv-x="472" 
d="M494 626h-270l-42 -243h251l-15 -57h-246l-46 -269h288l-14 -57h-349l117 683h340z" />
    <glyph glyph-name="F" unicode="F" horiz-adv-x="458" 
d="M494 626h-270l-44 -254h246l-14 -56h-242l-54 -316h-65l117 683h340z" />
    <glyph glyph-name="G" unicode="G" horiz-adv-x="593" 
d="M365 334h199l-53 -309q-32 -13 -79 -23t-102 -10q-64 0 -113.5 19.5t-83.5 55.5t-51.5 87t-17.5 114q0 83 26 159.5t75 135t119 93.5t158 35q56 0 95.5 -10.5t61.5 -21.5l-17 -55q-32 14 -68.5 21.5t-81.5 7.5q-69 0 -124 -30.5t-93.5 -81t-59 -115.5t-20.5 -133
q0 -49 12 -90t37 -71t64 -46.5t94 -16.5q32 0 60 4.5t51 12.5l37 213h-139z" />
    <glyph glyph-name="H" unicode="H" horiz-adv-x="612" 
d="M116 0h-65l117 683h66l-52 -298h323l51 298h65l-118 -683h-65l56 327h-322z" />
    <glyph glyph-name="I" unicode="I" horiz-adv-x="224" 
d="M116 0h-66l118 683h66z" />
    <glyph glyph-name="J" unicode="J" horiz-adv-x="220" 
d="M169 683h65l-85 -502q-11 -73 -28 -128.5t-46 -94.5t-72.5 -61t-107.5 -28v57q50 6 82.5 24.5t53.5 50.5t33 78t21 106z" />
    <glyph glyph-name="K" unicode="K" horiz-adv-x="513" 
d="M176 349l72 45l256 289h82l-283 -309l179 -374h-76l-158 333l-84 -49l-48 -284h-65l117 683h66z" />
    <glyph glyph-name="L" unicode="L" horiz-adv-x="443" 
d="M234 683l-108 -626h283l-15 -57h-343l117 683h66z" />
    <glyph glyph-name="M" unicode="M" horiz-adv-x="758" 
d="M319 0l-89 601h-3l-40 -205l-84 -396h-64l149 683h84l73 -462l17 -130h3l62 127l236 465h86l-88 -683h-65q6 44 12.5 95t14 103.5t14.5 103t13 94.5l32 205h-3l-306 -601h-54z" />
    <glyph glyph-name="N" unicode="N" horiz-adv-x="618" 
d="M440 0q-55 146 -115 295t-111 296h-3l-97 -591h-63l117 683h73q48 -119 82 -204.5t57.5 -146.5t38.5 -100.5t24 -65.5t14 -42.5t9 -30.5h3l95 590h63l-117 -683h-70z" />
    <glyph glyph-name="O" unicode="O" horiz-adv-x="644" 
d="M392 637q-66 0 -114.5 -35t-80 -89.5t-47 -121t-15.5 -128.5q0 -43 9 -82.5t29 -69.5t53.5 -48t83.5 -18q65 0 113.5 34t81 88t48.5 121t16 133q0 40 -7.5 79t-27.5 69.5t-54 49t-88 18.5zM401 693q64 0 109 -22t73.5 -59.5t41 -87t12.5 -104.5q0 -47 -8.5 -96.5
t-26 -97.5t-44.5 -91t-64 -75t-85 -51t-107 -19q-63 0 -107.5 21.5t-73 58.5t-41.5 86t-13 104q0 70 19 146t59.5 140t104 105.5t151.5 41.5z" />
    <glyph glyph-name="P" unicode="P" horiz-adv-x="511" 
d="M264 285q-26 0 -50 1t-49 3l-49 -289h-65l116 677q31 4 67 6.5t74 2.5q105 0 160 -40t55 -123q0 -59 -20.5 -103.5t-56 -74.5t-82.5 -45t-100 -15zM223 626q0 -2 -3.5 -23t-9 -51.5t-11.5 -65.5t-11.5 -65.5t-9 -51.5t-3.5 -23q20 -3 37 -4t35 -1q96 0 152 44t56 131
q0 65 -39 89.5t-115 24.5q-24 0 -43.5 -1t-34.5 -3z" />
    <glyph glyph-name="Q" unicode="Q" horiz-adv-x="644" 
d="M392 637q-66 0 -114.5 -35t-80 -89.5t-47 -121t-15.5 -128.5q0 -43 9 -81t29.5 -66.5t54 -45t83.5 -16.5q65 0 113.5 32.5t80.5 84.5t48 118t16 132q0 40 -7.5 79t-27.5 69.5t-54 49t-88 18.5zM465 57h180l-15 -57h-328q-61 0 -105 20t-73 55t-43 82.5t-14 102.5
q0 70 19 146t59.5 140t104 105.5t151.5 41.5q64 0 109 -22t73.5 -59.5t41 -87t12.5 -104.5q0 -49 -10 -101t-31 -100.5t-53.5 -90t-77.5 -69.5v-2z" />
    <glyph glyph-name="R" unicode="R" horiz-adv-x="517" 
d="M519 529q0 -39 -12 -73t-35 -61.5t-55.5 -46.5t-73.5 -28v-2l121 -318h-71l-113 306h-111l-53 -306h-65l117 677q37 5 79 7t83 2q95 0 142 -42.5t47 -114.5zM178 359h77q94 0 144.5 43t50.5 122q0 61 -37.5 84t-112.5 23q-24 0 -42.5 -1.5t-33.5 -3.5z" />
    <glyph glyph-name="S" unicode="S" horiz-adv-x="465" 
d="M198 47q31 0 59 9t49.5 27t34 44.5t12.5 61.5q0 37 -18 62.5t-44.5 45.5t-57.5 38t-57.5 40t-44.5 50.5t-18 70.5q0 47 18 84t48.5 62t69.5 38t81 13q46 0 83 -10.5t60 -23.5l-18 -54q-24 11 -57.5 21t-74.5 10q-32 0 -57.5 -10t-44.5 -27.5t-29 -40.5t-10 -49
q0 -35 18 -58.5t44.5 -42.5t57.5 -37t57.5 -41t44.5 -54t18 -77q0 -45 -16.5 -83t-46.5 -66t-73.5 -44t-97.5 -16q-45 0 -89 11.5t-70 28.5l19 55q32 -17 70 -27.5t80 -10.5z" />
    <glyph glyph-name="S" unicode="&#xe002;" horiz-adv-x="465" 
d="M198 47q31 0 59 9t49.5 27t34 44.5t12.5 61.5q0 37 -18 62.5t-44.5 45.5t-57.5 38t-57.5 40t-44.5 50.5t-18 70.5q0 47 18 84t48.5 62t69.5 38t81 13q46 0 83 -10.5t60 -23.5l-18 -54q-24 11 -57.5 21t-74.5 10q-32 0 -57.5 -10t-44.5 -27.5t-29 -40.5t-10 -49
q0 -35 18 -58.5t44.5 -42.5t57.5 -37t57.5 -41t44.5 -54t18 -77q0 -45 -16.5 -83t-46.5 -66t-73.5 -44t-97.5 -16q-45 0 -89 11.5t-70 28.5l19 55q32 -17 70 -27.5t80 -10.5z" />
    <glyph glyph-name="T" unicode="T" horiz-adv-x="462" 
d="M82 626l15 57h447l-14 -57h-190l-107 -626h-65l108 626h-194z" />
    <glyph glyph-name="U" unicode="U" horiz-adv-x="605" 
d="M275 -10q-42 0 -76.5 11t-60 34t-39.5 58.5t-14 83.5q0 28 3 56t8 57l68 393h67l-74 -424q-7 -42 -6 -80.5t14.5 -68t42 -47t77.5 -17.5q158 0 195 212l73 425h66l-74 -428q-25 -140 -95 -202.5t-175 -62.5z" />
    <glyph glyph-name="V" unicode="V" horiz-adv-x="529" 
d="M265 0h-73l-95 683h68l62 -484l14 -124h3l57 124l232 484h71z" />
    <glyph glyph-name="W" unicode="W" horiz-adv-x="805" 
d="M579 0h-73l-24 474l-5 124h-3l-48 -124l-202 -474h-73l-45 683h68l27 -601h2l52 128l200 473h73l26 -473l2 -128h2l246 601h69z" />
    <glyph glyph-name="X" unicode="X" horiz-adv-x="514" 
d="M73 0h-78l257 348l-131 335h73l72 -198l33 -92h2l60 88l144 202h78l-253 -334l140 -349h-73l-70 185l-42 117h-2l-82 -118z" />
    <glyph glyph-name="Y" unicode="Y" horiz-adv-x="504" 
d="M276 335l62 100l159 248h76l-277 -407l-47 -276h-65l47 275l-132 408h72l73 -248l29 -100h3z" />
    <glyph glyph-name="Z" unicode="Z" horiz-adv-x="502" 
d="M545 635l-449 -576v-2h355l-14 -57h-436l7 44l451 580v2h-323l16 57h401z" />
    <glyph glyph-name="bracketleft" unicode="[" horiz-adv-x="292" 
d="M33 -159l153 908h177l-12 -47h-115l-137 -814h119l-11 -47h-174z" />
    <glyph glyph-name="backslash" unicode="\" horiz-adv-x="370" 
d="M150 690l189 -716h-57l-188 716h56z" />
    <glyph glyph-name="bracketright" unicode="]" horiz-adv-x="292" 
d="M-27 -158l11 47h117l137 812h-119l11 48h174l-154 -907h-177z" />
    <glyph glyph-name="asciicircum" unicode="^" horiz-adv-x="566" 
d="M132 297h-51l251 379h43l118 -379h-49l-101 311h-1z" />
    <glyph glyph-name="underscore" unicode="_" horiz-adv-x="538" 
d="M471 -65l-7 -47h-471l8 47h470z" />
    <glyph glyph-name="grave" unicode="`" horiz-adv-x="372" 
d="M386 544h-46l-98 148h83z" />
    <glyph glyph-name="a" unicode="a" 
d="M463 300q-14 -84 -24.5 -160.5t-12.5 -139.5h-63l17 148h-2q-34 -72 -83.5 -115t-105.5 -43q-66 0 -102.5 45t-36.5 116q0 60 21 121.5t58.5 111t89.5 81t114 31.5q25 0 50.5 -5.5t47.5 -19.5h2l13 17l51 4zM419 422q-10 7 -27.5 14t-45.5 7q-48 0 -89.5 -23t-72.5 -62
t-49 -90.5t-18 -107.5q0 -23 4.5 -44t15.5 -37t28 -25.5t43 -9.5q28 0 58.5 20t56.5 54.5t46.5 81.5t29.5 100z" />
    <glyph glyph-name="b" unicode="b" 
d="M171 727l65 4l-61 -351h2q30 55 75.5 86.5t98.5 31.5q39 0 66.5 -14.5t45 -39t25.5 -57t8 -67.5q0 -60 -18.5 -119.5t-54 -106t-87.5 -75.5t-119 -29q-42 0 -78 14t-63 46q-4 35 -2.5 87t15.5 132zM331 443q-42 0 -80 -32t-66 -84t-42.5 -117t-9.5 -132q14 -16 37 -25.5
t55 -9.5q50 0 88 25t63.5 64.5t38.5 88t13 94.5q0 26 -5.5 49.5t-17 41t-30 27.5t-44.5 10z" />
    <glyph glyph-name="b" unicode="&#xe003;" 
d="M171 727l65 4l-61 -351h2q30 55 75.5 86.5t98.5 31.5q39 0 66.5 -14.5t45 -39t25.5 -57t8 -67.5q0 -60 -18.5 -119.5t-54 -106t-87.5 -75.5t-119 -29q-42 0 -78 14t-63 46q-4 35 -2.5 87t15.5 132zM331 443q-42 0 -80 -32t-66 -84t-42.5 -117t-9.5 -132q14 -16 37 -25.5
t55 -9.5q50 0 88 25t63.5 64.5t38.5 88t13 94.5q0 26 -5.5 49.5t-17 41t-30 27.5t-44.5 10z" />
    <glyph glyph-name="c" unicode="c" horiz-adv-x="440" 
d="M332 443q-49 0 -88 -22t-66.5 -58t-42 -82.5t-14.5 -95.5q0 -67 33 -103.5t99 -36.5q38 0 71 8.5t56 19.5l7 -54q-24 -11 -64 -20t-86 -9q-47 0 -81 14t-57 38.5t-34.5 58t-11.5 72.5q0 68 20.5 127t58 103t90.5 69.5t117 25.5q35 0 66 -7t48 -17l-16 -53q-20 8 -46.5 15
t-58.5 7z" />
    <glyph glyph-name="d" unicode="d" 
d="M430 470l42 257l67 4l-77 -443q-14 -81 -23.5 -155.5t-11.5 -132.5h-63l17 148h-2q-34 -72 -83.5 -115t-106.5 -43q-33 0 -58.5 12t-43 34t-27 51.5t-9.5 65.5q0 58 20 119t56.5 110.5t88.5 81.5t115 32q26 0 50.5 -6t46.5 -20h2zM420 421q-11 8 -29 15.5t-47 7.5
q-47 0 -88.5 -23t-72.5 -62t-48.5 -90.5t-17.5 -107.5q0 -24 5 -45.5t15.5 -37t28 -25t43.5 -9.5q28 0 58 20t56.5 54.5t46.5 80.5t29 98z" />
    <glyph glyph-name="e" unicode="e" horiz-adv-x="460" 
d="M121 231q-2 -10 -2.5 -20.5t-0.5 -21.5q0 -72 33 -108.5t91 -36.5q41 0 77.5 10t63.5 22l7 -50q-29 -14 -69.5 -25t-90.5 -11q-49 0 -83 15t-55 41t-30.5 61t-9.5 76q0 63 19.5 120t54 100.5t81.5 69t102 25.5q35 0 61.5 -9.5t43.5 -25t26 -36.5t10 -44
q0 -38 -17.5 -67.5t-50 -49.5t-78 -30.5t-101.5 -10.5q-40 0 -82 6zM129 280q20 -4 39.5 -5.5t37.5 -1.5q81 0 129.5 28t48.5 75q0 32 -23 50.5t-62 18.5q-31 0 -58 -13t-49 -35.5t-38 -52.5t-25 -64z" />
    <glyph glyph-name="f" unicode="f" horiz-adv-x="285" 
d="M147 488q11 61 25.5 107.5t36 77.5t53 46.5t76.5 15.5q16 0 29 -2t24 -4l-13 -54q-8 1 -14.5 1.5t-12.5 0.5q-31 1 -53 -6t-37.5 -27.5t-27 -58t-20.5 -97.5h114l-14 -52h-110l-87 -527h-66l88 527h-66l14 48z" />
    <glyph glyph-name="g" unicode="g" 
d="M379 148q-34 -72 -83 -115t-105 -43q-33 0 -59 12t-43.5 33.5t-27 51t-9.5 64.5q0 60 21 121.5t58.5 111t89.5 81t114 31.5q25 0 50.5 -6t46.5 -20h2l13 18l51 4l-83 -484q-12 -65 -35.5 -110t-57 -73.5t-74.5 -41.5t-87 -13q-41 0 -79.5 8t-64.5 24l15 53
q26 -14 60.5 -22t73.5 -8q34 0 64 10.5t54.5 33t42 58.5t28.5 88l26 133h-2zM421 422q-10 7 -27.5 14t-46.5 7q-48 0 -89.5 -23t-72 -62t-48.5 -90.5t-18 -107.5q0 -23 4.5 -44t15.5 -37t28 -25.5t43 -9.5q28 0 58 20t56.5 54.5t47 81.5t29.5 100z" />
    <glyph glyph-name="h" unicode="h" horiz-adv-x="534" 
d="M366 498q24 0 45.5 -7t38 -23t26.5 -41t10 -62q0 -14 -1.5 -29.5t-3.5 -29.5l-51 -306h-66l49 289q2 13 4 31t2 34q0 19 -3.5 35.5t-12 28.5t-23.5 18.5t-38 6.5q-26 0 -54.5 -21t-55 -54t-47 -74t-30.5 -81q-8 -30 -13 -55.5t-9.5 -49.5t-8.5 -50t-9 -58h-65l125 727
l66 4l-66 -389h2q14 28 33.5 56t44 50.5t52.5 36t59 13.5z" />
    <glyph glyph-name="i" unicode="i" horiz-adv-x="222" 
d="M134 488l66 3l-85 -491h-65zM149 641q0 20 13.5 34t31.5 14q17 0 29 -12.5t12 -30.5q0 -20 -13 -34t-32 -14q-17 0 -29 12.5t-12 30.5z" />
    <glyph glyph-name="j" unicode="j" horiz-adv-x="218" 
d="M121 38q-12 -69 -32.5 -117t-49 -79.5t-63.5 -48t-75 -21.5v50q62 13 99 61t54 141l80 464l65 3zM149 641q0 20 13 34t32 14q17 0 29 -12.5t12 -30.5q0 -20 -13.5 -34t-31.5 -14q-17 0 -29 12.5t-12 30.5z" />
    <glyph glyph-name="k" unicode="k" horiz-adv-x="468" 
d="M161 267q36 8 80 29t81.5 51t61 67.5t17.5 78.5l60 8q5 -39 -7.5 -74t-36.5 -65t-56.5 -55t-67.5 -44l141 -263h-75l-123 238q-20 -8 -44 -14t-41 -10l-37 -214h-64l125 727l66 4z" />
    <glyph glyph-name="l" unicode="l" horiz-adv-x="222" 
d="M175 727l66 4l-126 -731h-65z" />
    <glyph glyph-name="m" unicode="m" horiz-adv-x="819" 
d="M469 363q34 69 83 102t100 33q45 0 70.5 -18t37 -47.5t11 -67t-7.5 -75.5l-50 -290h-64l49 289q4 24 6 51t-3.5 50t-22.5 38t-52 15q-26 0 -53 -15.5t-50.5 -43t-41.5 -66.5t-26 -85l-41 -233h-64l49 292q4 20 6.5 46t-2 49.5t-19.5 39.5t-46 16q-26 0 -56.5 -22.5
t-58.5 -61t-50 -90t-32 -109.5l-27 -160h-64l52 299q8 48 15 95l14 94l61 3l-23 -152h2q12 24 31.5 52t44.5 51.5t54 39.5t61 16q56 0 83 -37.5t22 -97.5h2z" />
    <glyph glyph-name="n" unicode="n" horiz-adv-x="534" 
d="M366 498q39 0 64.5 -14t39.5 -37.5t17 -55t-3 -66.5l-54 -325h-66l49 289q4 25 6 52.5t-4 50t-23.5 37t-52.5 14.5q-24 0 -54 -20.5t-58.5 -58t-52 -89.5t-33.5 -115l-26 -160h-65l52 299q9 48 16 95t13 94l61 3l-23 -152h2q16 30 37 58.5t46 51t53.5 36t58.5 13.5z" />
    <glyph glyph-name="o" unicode="o" horiz-adv-x="518" 
d="M311 499q51 0 87 -18t58 -48.5t30.5 -71t5.5 -84.5q-3 -54 -21 -106t-51 -92.5t-79.5 -65t-105.5 -24.5q-49 0 -84 17.5t-57.5 47.5t-32 70t-6.5 85q3 58 22 110.5t52 92.5t79 63.5t103 23.5zM304 445q-41 0 -73.5 -20t-56 -53t-37 -75t-15.5 -86q-2 -36 4.5 -67
t22 -53.5t39 -35t55.5 -12.5q39 0 71 20t56 53t38.5 75t16.5 87q2 30 -3 59.5t-19 53.5t-38 39t-61 15z" />
    <glyph glyph-name="p" unicode="p" horiz-adv-x="520" 
d="M330 443q-27 0 -55.5 -15.5t-54 -45.5t-45.5 -74t-29 -101q0 -2 -4 -22.5t-8 -45.5t-7.5 -46t-3.5 -22q20 -12 45.5 -20t58.5 -8q46 0 83 24t63.5 63t40.5 88.5t14 99.5q0 23 -5 45.5t-16.5 40t-30.5 28.5t-46 11zM171 374q15 26 34.5 49t43 39.5t49 26t52.5 9.5
q38 0 65.5 -14t45 -37.5t26 -55t9.5 -66.5q0 -66 -19.5 -126.5t-54.5 -107t-85 -74t-110 -27.5q-40 0 -67 8t-45 19h-2l-40 -236h-66l90 518q8 48 15 94.5t13 94.5l61 3l-17 -117h2z" />
    <glyph glyph-name="q" unicode="q" 
d="M381 148h-2q-34 -72 -83.5 -115t-105.5 -43q-66 0 -102.5 45t-36.5 116q0 60 21 121.5t58.5 111t89.5 81t114 31.5q25 0 50.5 -5.5t47.5 -19.5h2l12 17l52 4l-34 -192l-88 -519h-66l38 219zM420 422q-10 7 -27.5 14t-46.5 7q-47 0 -88.5 -23t-72.5 -62t-49 -90.5
t-18 -107.5q0 -23 4.5 -44t15.5 -37t28 -25.5t43 -9.5q28 0 58 20t56.5 54.5t47 81.5t29.5 100z" />
    <glyph glyph-name="r" unicode="r" horiz-adv-x="322" 
d="M175 369q12 25 29 48.5t39 41.5t49.5 29t60.5 10l-12 -66q-46 1 -79 -20t-56 -55t-37 -77.5t-21 -86.5l-33 -193h-65l52 299q8 48 15 95.5t13 93.5l61 3l-19 -122h3z" />
    <glyph glyph-name="s" unicode="s" horiz-adv-x="388" 
d="M160 43q46 0 77 24.5t31 65.5q0 25 -13 42t-33 31t-42.5 26.5t-42.5 28.5t-33 37.5t-13 53.5q0 35 13.5 62t37 45.5t55 28t68.5 9.5q29 0 57 -6t51 -17l-17 -53q-17 9 -42.5 16t-53.5 7q-44 0 -72.5 -21.5t-30.5 -55.5q0 -25 13 -42t33 -30.5t42.5 -25.5t42.5 -28
t33 -37.5t13 -53.5q0 -39 -14.5 -69t-39.5 -50.5t-58 -30.5t-70 -10q-35 0 -69 8.5t-54 20.5l16 52q22 -11 53 -19.5t62 -8.5z" />
    <glyph glyph-name="s" unicode="&#xe004;" horiz-adv-x="388" 
d="M160 43q46 0 77 24.5t31 65.5q0 25 -13 42t-33 31t-42.5 26.5t-42.5 28.5t-33 37.5t-13 53.5q0 35 13.5 62t37 45.5t55 28t68.5 9.5q29 0 57 -6t51 -17l-17 -53q-17 9 -42.5 16t-53.5 7q-44 0 -72.5 -21.5t-30.5 -55.5q0 -25 13 -42t33 -30.5t42.5 -25.5t42.5 -28
t33 -37.5t13 -53.5q0 -39 -14.5 -69t-39.5 -50.5t-58 -30.5t-70 -10q-35 0 -69 8.5t-54 20.5l16 52q22 -11 53 -19.5t62 -8.5z" />
    <glyph glyph-name="t" unicode="t" horiz-adv-x="318" 
d="M93 139q0 2 3.5 24t9 54t11.5 68.5t11.5 69t9.5 55t5 26.5h-70l13 48l67 4l25 110l61 15l-22 -125h121l-13 -52h-117l-44 -254q-3 -17 -7 -40t-2.5 -44.5t12 -36.5t36.5 -15q14 0 28 2t26 7q0 -3 -0.5 -10.5t-1 -16.5t-1 -16.5t-0.5 -10.5q-16 -5 -36 -8t-37 -3
q-34 0 -53.5 12t-28.5 32t-9.5 47.5t3.5 57.5z" />
    <glyph glyph-name="u" unicode="u" horiz-adv-x="528" 
d="M382 122q-32 -65 -82.5 -98.5t-102.5 -33.5q-49 0 -76.5 18.5t-39.5 49.5t-10.5 71t9.5 84l47 275h66l-49 -283q-4 -24 -6.5 -52t4 -52t25 -40t55.5 -16q22 0 48 12.5t50 36t43 57.5t29 77q7 27 13 60.5t12 68.5t11.5 68.5t10.5 62.5h65l-33 -188q-16 -93 -25.5 -168
t-11.5 -132h-63l13 122h-2z" />
    <glyph glyph-name="v" unicode="v" horiz-adv-x="448" 
d="M139 0l-73 488h66l43 -308l15 -108h2l74 111l80 117q33 51 36.5 100.5t-10.5 87.5h65q7 -20 10 -44.5t-0.5 -52t-14 -56.5t-29.5 -56l-196 -279h-68z" />
    <glyph glyph-name="w" unicode="w" horiz-adv-x="735" 
d="M461 180l16 -108h2l74 111l79 117q33 51 36.5 100.5t-10.5 87.5h65q7 -20 10 -44.5t-0.5 -52t-14 -56.5t-29.5 -56l-195 -279h-68l-38 259h-1l-23 -39l-157 -220h-68l-73 488h66l43 -308l15 -108h2l74 111l110 161l-22 144h64z" />
    <glyph glyph-name="x" unicode="x" horiz-adv-x="436" 
d="M222 206h-2l-156 -206h-74l205 252q-2 3 -10 21t-20 43t-25.5 54t-25.5 54t-20.5 43t-9.5 21h72l84 -192h2l146 192h75l-196 -236l118 -252h-72z" />
    <glyph glyph-name="y" unicode="y" horiz-adv-x="445" 
d="M136 488l49 -308l16 -108h3l68 107l79 121q32 51 35.5 100.5t-10.5 87.5h66q7 -20 10 -44.5t-0.5 -52t-14 -56.5t-29.5 -56l-191 -284l14 -88q6 -37 -1.5 -64.5t-33 -46t-71 -28t-114.5 -9.5v56q50 0 82.5 5.5t51 16t24 26.5t1.5 37l-99 588h65z" />
    <glyph glyph-name="y" unicode="&#xe006;" horiz-adv-x="445" 
d="M136 488l49 -308l16 -108h3l68 107l79 121q32 51 35.5 100.5t-10.5 87.5h66q7 -20 10 -44.5t-0.5 -52t-14 -56.5t-29.5 -56l-191 -284l14 -88q6 -37 -1.5 -64.5t-33 -46t-71 -28t-114.5 -9.5v56q50 0 82.5 5.5t51 16t24 26.5t1.5 37l-99 588h65z" />
    <glyph glyph-name="z" unicode="z" horiz-adv-x="413" 
d="M430 441l-343 -385v-2h281l-11 -54h-358l6 44l346 388v2h-259l11 54h335z" />
    <glyph glyph-name="braceleft" unicode="{" horiz-adv-x="332" 
d="M375 705q-57 0 -89 -23t-39 -85q-1 -2 -2 -15t-2.5 -31.5t-3.5 -40.5t-3.5 -41.5t-2.5 -34t-1 -17.5q-5 -32 -15 -54t-23.5 -36.5t-30.5 -23.5t-37 -15v-2q30 -10 49 -30.5t19 -55.5q0 -22 -8 -55.5t-17.5 -69.5t-17.5 -68t-9 -51q0 -36 15 -55t53 -21l5 -0.5t10 -0.5
t10 -0.5l5 -0.5l-12 -40q-71 0 -107.5 20.5t-36.5 83.5q0 31 8 63t18 63.5t18 63.5t8 65q0 14 -3 26.5t-11.5 22t-24.5 15t-42 6.5l6 42q29 2 48.5 8.5t32 18.5t20 30t11.5 43q4 24 5.5 49.5l3 51t3 50t5.5 45.5q12 75 53 106.5t107 33.5h37z" />
    <glyph glyph-name="bar" unicode="|" horiz-adv-x="232" 
d="M144 -197h-56v971h56v-971z" />
    <glyph glyph-name="braceright" unicode="}" horiz-adv-x="329" 
d="M-4 -122q28 0 49 5t36 17t25 32t16 51q0 1 1.5 14t3 32t3.5 41t3.5 41.5t2.5 34t1 18.5q6 32 15.5 54t23 36.5t31 23.5t37.5 15v2q-31 11 -49 31.5t-18 56.5q0 20 7.5 54t16.5 70t17 68.5t9 50.5q0 22 -5 36t-16.5 22.5t-30 13t-46.5 7.5l12 40q34 0 60.5 -4t45 -15.5
t28.5 -32t10 -53.5q0 -30 -8 -64.5t-18 -68.5t-18 -66t-8 -56q0 -14 3 -26.5t12 -22t24.5 -15.5t41.5 -7l-6 -42q-55 -3 -78 -24.5t-31 -59.5q-5 -23 -7.5 -50.5t-4 -55.5t-3 -55t-5.5 -49q-13 -76 -54.5 -107t-108.5 -33h-33z" />
    <glyph glyph-name="asciitilde" unicode="~" horiz-adv-x="580" 
d="M94 258q4 57 38.5 90t79.5 33q28 0 55 -10.5t54 -23.5t54 -23.5t55 -10.5q29 0 44 17.5t22 52.5l41 -6q-5 -60 -37 -91.5t-73 -31.5q-30 0 -57.5 11t-55 23.5t-55.5 23.5t-58 11q-51 0 -66 -71z" />
    <glyph glyph-name="exclamdown" unicode="&#xa1;" horiz-adv-x="241" 
d="M115 304h57l-75 -508h-78zM219 467q0 -11 -4.5 -22.5t-12 -21t-19 -15.5t-24.5 -6q-20 0 -31 12.5t-11 30.5q0 23 16 44t44 21q20 0 31 -12t11 -31z" />
    <glyph glyph-name="cent" unicode="&#xa2;" horiz-adv-x="482" 
d="M373 550q27 0 57 -7.5t49 -18.5l-20 -51q-18 9 -44 16t-60 7q-39 0 -76 -16t-66 -47.5t-46.5 -77t-17.5 -103.5q0 -66 33.5 -105.5t100.5 -39.5q35 0 66.5 7.5t54.5 16.5l3 -52q-21 -11 -55 -18t-67 -7l-17 -102h-54l19 102q-39 6 -68 22.5t-47.5 41t-27.5 56t-9 66.5
q0 62 18 115.5t50.5 94.5t76.5 66.5t95 32.5l17 106h53z" />
    <glyph glyph-name="sterling" unicode="&#xa3;" horiz-adv-x="508" 
d="M395 358l-14 -51h-145q-3 -73 -24 -137t-79 -113v-2h330l-12 -55h-404l2 38q68 46 95.5 114.5t30.5 154.5h-85l13 51h73q0 28 0.5 62t6.5 67q6 48 25 83.5t47 59t63.5 35t74.5 11.5q35 0 63 -6.5t47 -16.5l-16 -54q-18 9 -42 15.5t-49 6.5q-59 0 -99.5 -30.5t-49.5 -99.5
q-5 -37 -6.5 -70t-2.5 -63h157z" />
    <glyph glyph-name="currency" unicode="&#xa4;" horiz-adv-x="490" 
d="M283 486q33 0 60.5 -10.5t45.5 -29.5l80 79l25 -28l-82 -75q14 -19 23 -46t9 -58q0 -36 -13.5 -71.5t-37.5 -61.5l68 -77l-30 -28l-65 78q-23 -20 -53 -30t-59 -10q-31 0 -59.5 10.5t-46.5 27.5l-75 -76l-25 28l77 74q-14 19 -24 46t-9 59q0 38 14.5 72.5t39.5 61.5
l-69 76l30 28l65 -79q22 19 51 29.5t60 10.5zM280 449q-31 0 -58 -13.5t-46.5 -36t-30.5 -51.5t-11 -61t10 -57t27.5 -41.5t39 -25t44.5 -8.5q31 0 58 13t47 35t31.5 51.5t11.5 61.5q0 26 -8 50t-24 42.5t-38.5 29.5t-52.5 11z" />
    <glyph glyph-name="yen" unicode="&#xa5;" horiz-adv-x="510" 
d="M192 0l29 179h-149l12 43h144l7 37h-150l12 43h136l-118 365h74l91 -324h2l200 324h73l-239 -365h140l-11 -43h-145l-6 -37h149l-12 -43h-145l-29 -179h-65z" />
    <glyph glyph-name="brokenbar" unicode="&#xa6;" horiz-adv-x="223" 
d="M172 371h-54l18 354h54zM144 -149h-54l18 353h54z" />
    <glyph glyph-name="section" unicode="&#xa7;" horiz-adv-x="499" 
d="M396 113q-1 -39 -17.5 -67.5t-43 -47.5t-60.5 -28t-70 -9q-39 0 -77.5 9.5t-61.5 23.5l16 49q23 -11 56.5 -21.5t72.5 -10.5q49 0 84.5 23.5t37.5 68.5q0 30 -17 50t-42 35.5t-54.5 29t-54.5 30.5t-42 40t-17 57q0 39 23 73t64 59v2q-11 13 -18.5 30.5t-7.5 36.5
q0 35 14.5 62.5t39 46t58 28.5t71.5 10t72 -9.5t54 -20.5l-16 -48q-22 11 -53.5 20t-65.5 9q-22 0 -42 -6t-35.5 -17t-24.5 -26.5t-9 -34.5q0 -26 16.5 -43.5t40.5 -31.5t53 -27t53 -30t40.5 -40.5t16.5 -58.5q0 -51 -21.5 -82.5t-55.5 -54.5v-2q23 -31 23 -77zM168 357
q1 -29 19.5 -47.5t44 -32.5t54 -26.5t49.5 -29.5q25 17 39.5 40t14.5 52q0 28 -17 47t-41.5 33.5t-51.5 27t-46 27.5q-30 -14 -47 -37.5t-18 -53.5z" />
    <glyph glyph-name="dieresis" unicode="&#xa8;" horiz-adv-x="403" 
d="M223 612q0 19 14 37.5t38 18.5q17 0 26.5 -10.5t9.5 -26.5q0 -20 -13.5 -38t-37.5 -18q-17 0 -27 10t-10 27zM401 612q0 19 14 37.5t37 18.5q17 0 27 -10.5t10 -26.5q0 -20 -13.5 -38t-37.5 -18q-17 0 -27 10t-10 27z" />
    <glyph glyph-name="copyright" unicode="&#xa9;" horiz-adv-x="762" 
d="M95 326q0 68 26 130t72 109.5t108.5 75.5t134.5 28q64 0 119.5 -24t96 -66t63.5 -98.5t23 -120.5q0 -71 -27 -133.5t-73 -109.5t-107.5 -74t-130.5 -27q-65 0 -121 24t-97 66t-64 98.5t-23 121.5zM433 633q-62 0 -116 -25.5t-94 -68.5t-63 -99t-23 -118q0 -57 20 -106.5
t55.5 -85.5t84 -57t104.5 -21q60 0 114 24t94 65.5t63.5 97.5t23.5 121q0 58 -20 107.5t-55.5 86.5t-83.5 58t-104 21zM444 479q-30 0 -55.5 -10.5t-43.5 -30t-28.5 -47.5t-10.5 -62q0 -26 7 -49.5t21.5 -41.5t38 -29t56.5 -11q59 0 103 24l5 -34q-23 -14 -49 -20.5
t-52 -6.5q-91 0 -133.5 46t-42.5 119q0 40 13.5 75t38 61t58.5 40.5t75 14.5q36 0 62 -7.5t41 -16.5l-9 -36q-15 8 -38 15t-57 7z" />
    <glyph glyph-name="ordfeminine" unicode="&#xaa;" horiz-adv-x="326" 
d="M341 567q-3 -20 -5.5 -40t-4.5 -39h-35l-2 40h-2q-20 -20 -47.5 -33t-59.5 -13q-44 0 -63.5 25t-14.5 60q5 29 18.5 46.5t32.5 26.5t42 11.5t49 2.5h63l7 42q3 19 4 34t-4.5 25t-19.5 15.5t-39 5.5q-27 0 -49.5 -6.5t-42.5 -14.5l-2 34q23 11 51 17t53 6q35 0 56 -7.5
t31 -21.5t10.5 -34.5t-3.5 -46.5zM201 516q14 0 30 4.5t30.5 13t25.5 21t14 28.5l7 39h-61q-15 0 -30.5 -0.5t-28.5 -5t-22 -15t-12 -29.5q-5 -28 9 -42t38 -14z" />
    <glyph glyph-name="guillemotleft" unicode="&#xab;" horiz-adv-x="460" 
d="M132 254l94 -152l-39 -26l-112 181l175 181l32 -30zM303 254l95 -152l-39 -26l-112 181l175 181l32 -30z" />
    <glyph glyph-name="logicalnot" unicode="&#xac;" horiz-adv-x="596" 
d="M537 110h-51v198h-427v48h478v-246z" />
    <glyph glyph-name="registered" unicode="&#xae;" horiz-adv-x="576" 
d="M102 439q0 51 20 96.5t54.5 80t81 55t99.5 20.5q45 0 84 -16t67 -44.5t44 -66.5t16 -81q0 -51 -20.5 -97t-55 -80.5t-81 -55t-97.5 -20.5q-45 0 -84 16t-67.5 44.5t-44.5 66.5t-16 82zM354 659q-43 -1 -82 -18.5t-68.5 -47t-47 -68t-17.5 -82.5q0 -38 13.5 -70.5
t37 -56.5t56 -38t71.5 -14q43 0 81.5 17t68 46.5t46.5 68.5t17 84q0 37 -13 70t-36.5 57t-56 38t-70.5 14zM290 433l-14 -87h-33l37 223q17 2 35.5 3t38.5 1q45 0 62.5 -18.5t12.5 -49.5q-4 -23 -22 -41.5t-46 -24.5v-1l51 -92h-37l-49 87h-36zM296 461h36q25 0 41 9.5
t20 32.5q8 43 -46 43q-11 0 -20.5 -0.5t-17.5 -1.5z" />
    <glyph glyph-name="macron" unicode="&#xaf;" horiz-adv-x="424" 
d="M494 641l-7 -45h-247l8 45h246z" />
    <glyph glyph-name="degree" unicode="&#xb0;" horiz-adv-x="330" 
d="M134 591q0 26 9.5 48t26 38.5t38 25.5t44.5 9q21 0 39.5 -8t32 -22t21.5 -33t8 -41q0 -26 -10 -48t-26.5 -38.5t-38 -25.5t-44.5 -9q-43 0 -71.5 29.5t-28.5 74.5zM171 593q0 -29 19 -48.5t48 -19.5q30 0 53.5 23t23.5 58q0 29 -19 48.5t-48 19.5q-30 0 -53.5 -23
t-23.5 -58z" />
    <glyph glyph-name="plusminus" unicode="&#xb1;" horiz-adv-x="582" 
d="M34 0l9 51h207l32 191h-207l9 52h207l35 211h53l-35 -211h205l-8 -52h-206l-32 -191h206l-9 -51h-466z" />
    <glyph glyph-name="twosuperior" unicode="&#xb2;" horiz-adv-x="298" 
d="M81 477q22 18 59 46.5t73 62.5t62.5 72t26.5 74q0 24 -14 41t-48 17q-26 0 -47.5 -8t-38.5 -19l-7 40q23 14 51 23.5t59 9.5q50 0 75.5 -27t25.5 -69q0 -35 -17.5 -68t-46 -64t-65 -61t-74.5 -60v-1h168l-12 -45h-235z" />
    <glyph glyph-name="threesuperior" unicode="&#xb3;" horiz-adv-x="292" 
d="M179 477q48 0 71 25t23 58q0 18 -7.5 30.5t-20 20.5t-28.5 11.5t-32 3.5h-23l12 41h19q19 0 36.5 5t31.5 15t22.5 23.5t8.5 31.5q0 22 -14 35t-45 13q-21 0 -42 -6.5t-39 -17.5l-5 41q20 11 46.5 19t54.5 8q50 0 75.5 -23t25.5 -58q0 -37 -23 -63t-63 -40v-2
q30 -9 48.5 -32t18.5 -54q0 -60 -42 -93.5t-111 -33.5q-31 0 -56 6.5t-41 16.5l15 42q15 -10 36 -16.5t48 -6.5z" />
    <glyph glyph-name="acute" unicode="&#xb4;" horiz-adv-x="372" 
d="M458 692l-138 -148h-49l100 148h87z" />
    <glyph glyph-name="mu" unicode="&#xb5;" horiz-adv-x="528" 
d="M128 488h65l-48 -283q-4 -24 -6.5 -52t4 -52t24.5 -40t55 -16q22 0 48 12.5t50 36t43.5 57.5t29.5 77q7 27 13 60.5t12 68.5t11.5 68.5t10.5 62.5h65l-33 -188q-16 -93 -25.5 -168t-11.5 -132h-63l13 122h-2q-32 -65 -81.5 -98.5t-102.5 -33.5q-33 0 -54.5 9.5
t-33.5 26.5l-12 -71q-5 -29 -11 -57t-15 -52t-22 -42t-32 -28l-42 27q26 16 37 55.5t22 100.5z" />
    <glyph glyph-name="paragraph" unicode="&#xb6;" horiz-adv-x="516" 
d="M194 -47l54 311q-32 0 -62.5 10t-55.5 29.5t-40 49t-15 69.5q0 61 23.5 106.5t63.5 76.5t94 48.5t116 21.5l-125 -717zM321 -47l126 719h53l-125 -714z" />
    <glyph glyph-name="periodcentered" unicode="&#xb7;" horiz-adv-x="222" 
d="M77 247q0 23 16 44t44 21q20 0 31 -12.5t11 -30.5q0 -23 -16 -44t-44 -21q-20 0 -31 12t-11 31z" />
    <glyph glyph-name="cedilla" unicode="&#xb8;" horiz-adv-x="376" 
d="M181 0l-27 -55q22 -9 37.5 -24t15.5 -41q0 -17 -8.5 -33.5t-24 -29t-36.5 -20t-46 -7.5q-14 0 -27 2.5t-23 6.5l13 39q18 -5 37 -5q24 0 44 10.5t20 33.5q0 35 -49 44q3 17 11 39t19 40h44z" />
    <glyph glyph-name="onesuperior" unicode="&#xb9;" horiz-adv-x="252" 
d="M214 441h-53l58 340h-1l-70 -34l-12 38l102 48h43z" />
    <glyph glyph-name="ordmasculine" unicode="&#xba;" horiz-adv-x="338" 
d="M289 813q34 0 57.5 -12t38 -32.5t19.5 -47t3 -56.5q-3 -35 -15.5 -68t-34 -58.5t-51.5 -41.5t-68 -16q-32 0 -55 11.5t-38 31.5t-21 46.5t-3 56.5q3 37 15.5 71t34.5 59.5t51.5 40.5t66.5 15zM284 777q-26 0 -47 -12.5t-36.5 -33t-24.5 -47t-11 -55.5q-4 -48 16.5 -80.5
t62.5 -32.5q25 0 46 12.5t36.5 33t24.5 47.5t11 56q1 20 -1.5 40t-11.5 36t-25 26t-40 10z" />
    <glyph glyph-name="guillemotright" unicode="&#xbb;" horiz-adv-x="462" 
d="M366 260l-95 152l39 26l112 -181l-175 -181l-32 30zM194 260l-95 152l39 26l112 -181l-174 -181l-33 30z" />
    <glyph glyph-name="onequarter" unicode="&#xbc;" horiz-adv-x="789" 
d="M672 674l-449 -681h-52q4 7 25 38t52 78t69.5 105.5t78 119t78 119t69.5 105.5t52 78t25 38h52zM200 281h-54l59 340h-1l-70 -34l-13 38l102 48h44zM642 148l25 137l11 50h-2l-31 -41l-117 -146h114zM737 392l-43 -244h49l-11 -43h-45l-18 -105h-52l18 105h-172l7 37
l208 250h59z" />
    <glyph glyph-name="onehalf" unicode="&#xbd;" horiz-adv-x="789" 
d="M653 674l-449 -681h-52l450 681h51zM197 281h-53l58 340h-1l-70 -34l-12 38l102 48h43zM478 36q22 18 59 46.5t73 62.5t62.5 72t26.5 74q0 24 -14 41t-48 17q-26 0 -47.5 -8t-38.5 -19l-7 40q23 14 51 23.5t59 9.5q50 0 75.5 -27t25.5 -69q0 -35 -17.5 -68t-46 -64
t-65 -61t-74.5 -60v-1h168l-12 -45h-235z" />
    <glyph glyph-name="threequarters" unicode="&#xbe;" horiz-adv-x="789" 
d="M690 674l-449 -681h-52q4 7 25 38t52 78t69.5 105.5t78 119t78 119t69.5 105.5t52 78t25 38h52zM651 148l25 137l10 50h-1l-31 -41l-118 -146h115zM745 392l-43 -244h50l-12 -43h-45l-18 -105h-52l19 105h-173l7 37l208 250h59zM159 317q48 0 71 25t23 59q0 18 -7.5 30
t-20 20t-28.5 11.5t-33 3.5h-22l11 41h20q19 0 36.5 5t31.5 15t22.5 23.5t8.5 31.5q0 22 -14.5 35t-44.5 13q-22 0 -42.5 -6.5t-38.5 -17.5l-5 41q20 11 46 19t54 8q50 0 76 -23t26 -58q0 -37 -23.5 -63t-63.5 -40v-2q31 -9 49 -32t18 -54q0 -60 -42 -93.5t-110 -33.5
q-31 0 -56 6.5t-41 16.5l14 42q16 -10 36.5 -16.5t48.5 -6.5z" />
    <glyph glyph-name="questiondown" unicode="&#xbf;" horiz-adv-x="390" 
d="M252 -192q-11 -2 -23 -3t-25 -1q-47 0 -80 11t-54 29.5t-31 43t-10 52.5q0 37 13 67t33.5 55.5t44.5 49t46.5 48.5t39.5 53t23 63q3 16 3 30h61v-22q-1 -36 -15.5 -66.5t-36 -57t-46.5 -50.5t-46 -48.5t-35 -50.5t-14 -56q0 -43 34 -69t97 -26q5 0 12 0.5t15 1.5z
M339 467q0 -11 -4.5 -22.5t-12 -21t-19 -15.5t-24.5 -6q-20 0 -31.5 12.5t-11.5 30.5q0 23 16 44t44 21q20 0 31.5 -12t11.5 -31z" />
    <glyph glyph-name="Agrave" unicode="&#xc0;" horiz-adv-x="552" 
d="M507 0h-68l-31 221h-240l-108 -221h-69l339 684h75zM354 615l-47 -107l-113 -232h207l-32 232l-12 107h-3zM406 737h-46l-98 148h83z" />
    <glyph glyph-name="Aacute" unicode="&#xc1;" horiz-adv-x="552" 
d="M507 0h-68l-31 221h-240l-108 -221h-69l339 684h75zM354 615l-47 -107l-113 -232h207l-32 232l-12 107h-3zM531 885l-138 -148h-49l100 148h87z" />
    <glyph glyph-name="Acircumflex" unicode="&#xc2;" horiz-adv-x="552" 
d="M507 0h-68l-31 221h-240l-108 -221h-69l339 684h75zM354 615l-47 -107l-113 -232h207l-32 232l-12 107h-3zM303 737h-51l126 151h40l79 -151h-48l-58 95h-2z" />
    <glyph glyph-name="Atilde" unicode="&#xc3;" horiz-adv-x="552" 
d="M507 0h-68l-31 221h-240l-108 -221h-69l339 684h75zM354 615l-47 -107l-113 -232h207l-32 232l-12 107h-3zM327 812q-13 0 -21 -10.5t-17 -31.5l-35 5q11 38 29 63t47 25q16 0 30.5 -6.5t28 -15t26.5 -15t25 -6.5t20.5 8.5t17.5 33.5l35 -6q-12 -40 -29 -63t-48 -23
q-16 0 -30 6.5t-27.5 14.5t-26.5 14.5t-25 6.5z" />
    <glyph glyph-name="Adieresis" unicode="&#xc4;" horiz-adv-x="552" 
d="M507 0h-68l-31 221h-240l-108 -221h-69l339 684h75zM354 615l-47 -107l-113 -232h207l-32 232l-12 107h-3zM253 805q0 19 14 37.5t38 18.5q17 0 27 -10.5t10 -26.5q0 -20 -14 -38t-38 -18q-17 0 -27 10t-10 27zM431 805q0 19 14 37.5t38 18.5q17 0 27 -10.5t10 -26.5
q0 -20 -14 -38t-38 -18q-17 0 -27 10t-10 27z" />
    <glyph glyph-name="Aring" unicode="&#xc5;" horiz-adv-x="552" 
d="M380 835q38 0 63 -24t24 -62q0 -29 -18 -51t-45 -32h3l100 -666h-68l-31 221h-240l-108 -221h-69l329 666h3q-19 11 -30.5 30t-11.5 44q0 20 8 37.5t21.5 30t31.5 20t38 7.5zM354 615l-47 -107l-113 -232h207l-32 232l-12 107h-3zM378 801q-23 0 -39.5 -17t-16.5 -42
q0 -23 13 -39.5t36 -16.5t39.5 17t16.5 43q0 23 -13 39t-36 16z" />
    <glyph glyph-name="AE" unicode="&#xc6;" horiz-adv-x="774" 
d="M776 626h-260l-30 -244h241l-15 -56h-232l-33 -269h271l-15 -57h-325l32 271h-186l-182 -271h-69l456 683h362zM453 627l-62 -100l-132 -200h158l23 190l16 110h-3z" />
    <glyph glyph-name="Ccedilla" unicode="&#xc7;" horiz-adv-x="542" 
d="M424 636q-69 0 -123 -31.5t-91 -83t-56 -116t-19 -130.5q0 -47 10.5 -88.5t33.5 -72.5t60 -49t91 -18q41 0 82.5 7t75.5 23l3 -56q-29 -12 -68.5 -20.5t-86.5 -10.5l-21 -45q22 -9 37.5 -24t15.5 -41q0 -17 -8.5 -33.5t-24 -29t-36.5 -20t-46 -7.5q-14 0 -27 2.5t-23 6.5
l13 39q18 -5 37 -5q24 0 44 10.5t20 33.5q0 35 -49 44q2 15 8.5 34t15.5 36q-56 4 -99 25.5t-71.5 57.5t-43 84.5t-14.5 107.5q0 84 25 161t73.5 136t118.5 94t160 35q52 0 90.5 -10t55.5 -21l-17 -54q-26 13 -63.5 21t-82.5 8z" />
    <glyph glyph-name="Egrave" unicode="&#xc8;" horiz-adv-x="472" 
d="M494 626h-270l-42 -243h251l-15 -57h-246l-46 -269h288l-14 -57h-349l117 683h340zM408 737h-45l-99 148h84z" />
    <glyph glyph-name="Eacute" unicode="&#xc9;" horiz-adv-x="472" 
d="M494 626h-270l-42 -243h251l-15 -57h-246l-46 -269h288l-14 -57h-349l117 683h340zM430 885l-138 -148h-49l100 148h87z" />
    <glyph glyph-name="Ecircumflex" unicode="&#xca;" horiz-adv-x="472" 
d="M494 626h-270l-42 -243h251l-15 -57h-246l-46 -269h288l-14 -57h-349l117 683h340zM265 737h-51l126 151h40l79 -151h-48l-59 95h-1z" />
    <glyph glyph-name="Edieresis" unicode="&#xcb;" horiz-adv-x="472" 
d="M494 626h-270l-42 -243h251l-15 -57h-246l-46 -269h288l-14 -57h-349l117 683h340zM203 805q0 19 14 37.5t38 18.5q17 0 27 -10.5t10 -26.5q0 -20 -14 -38t-38 -18q-17 0 -27 10t-10 27zM381 805q0 19 14 37.5t38 18.5q17 0 26.5 -10.5t9.5 -26.5q0 -20 -13.5 -38
t-37.5 -18q-17 0 -27 10t-10 27z" />
    <glyph glyph-name="Igrave" unicode="&#xcc;" horiz-adv-x="224" 
d="M116 0h-66l118 683h66zM234 737h-46l-99 148h84z" />
    <glyph glyph-name="Iacute" unicode="&#xcd;" horiz-adv-x="224" 
d="M116 0h-66l118 683h66zM371 885l-137 -148h-50l100 148h87z" />
    <glyph glyph-name="Icircumflex" unicode="&#xce;" horiz-adv-x="224" 
d="M116 0h-66l118 683h66zM141 737h-51l126 151h40l79 -151h-48l-58 95h-1z" />
    <glyph glyph-name="Idieresis" unicode="&#xcf;" horiz-adv-x="224" 
d="M116 0h-66l118 683h66zM81 805q0 19 14 37.5t37 18.5q17 0 27 -10.5t10 -26.5q0 -20 -13.5 -38t-37.5 -18q-17 0 -27 10t-10 27zM259 805q0 19 14 37.5t37 18.5q17 0 27 -10.5t10 -26.5q0 -20 -13.5 -38t-38.5 -18q-17 0 -26.5 10t-9.5 27z" />
    <glyph glyph-name="Eth" unicode="&#xd0;" horiz-adv-x="624" 
d="M107 325h-77l15 54h71l51 298q82 9 171 9q137 0 207.5 -67t70.5 -201q0 -88 -25.5 -165t-75.5 -134t-124 -89.5t-171 -32.5q-45 0 -87.5 1t-80.5 3zM333 630q-26 0 -55.5 -1t-53.5 -3l-43 -247h155l-14 -54h-150l-46 -269q23 -2 44.5 -2.5t39.5 -0.5q81 -2 143.5 24
t105.5 73.5t65.5 113.5t22.5 145q0 46 -11 86.5t-36.5 70.5t-66.5 47t-100 17z" />
    <glyph glyph-name="Ntilde" unicode="&#xd1;" horiz-adv-x="618" 
d="M440 0q-55 146 -115 295t-111 296h-3l-97 -591h-63l117 683h73q48 -119 82 -204.5t57.5 -146.5t38.5 -100.5t24 -65.5t14 -42.5t9 -30.5h3l95 590h63l-117 -683h-70zM353 812q-13 0 -21.5 -10.5t-17.5 -31.5l-35 5q11 38 29.5 63t47.5 25q16 0 30 -6.5t27.5 -15t26.5 -15
t26 -6.5q12 0 20.5 8.5t17.5 33.5l35 -6q-12 -40 -29 -63t-48 -23q-16 0 -30 6.5t-27.5 14.5t-26.5 14.5t-25 6.5z" />
    <glyph glyph-name="Ograve" unicode="&#xd2;" horiz-adv-x="644" 
d="M392 637q-66 0 -114.5 -35t-80 -89.5t-47 -121t-15.5 -128.5q0 -43 9 -82.5t29 -69.5t53.5 -48t83.5 -18q65 0 113.5 34t81 88t48.5 121t16 133q0 40 -7.5 79t-27.5 69.5t-54 49t-88 18.5zM401 693q64 0 109 -22t73.5 -59.5t41 -87t12.5 -104.5q0 -47 -8.5 -96.5
t-26 -97.5t-44.5 -91t-64 -75t-85 -51t-107 -19q-63 0 -107.5 21.5t-73 58.5t-41.5 86t-13 104q0 70 19 146t59.5 140t104 105.5t151.5 41.5zM494 737h-46l-99 148h84z" />
    <glyph glyph-name="Oacute" unicode="&#xd3;" horiz-adv-x="644" 
d="M392 637q-66 0 -114.5 -35t-80 -89.5t-47 -121t-15.5 -128.5q0 -43 9 -82.5t29 -69.5t53.5 -48t83.5 -18q65 0 113.5 34t81 88t48.5 121t16 133q0 40 -7.5 79t-27.5 69.5t-54 49t-88 18.5zM401 693q64 0 109 -22t73.5 -59.5t41 -87t12.5 -104.5q0 -47 -8.5 -96.5
t-26 -97.5t-44.5 -91t-64 -75t-85 -51t-107 -19q-63 0 -107.5 21.5t-73 58.5t-41.5 86t-13 104q0 70 19 146t59.5 140t104 105.5t151.5 41.5zM515 885l-138 -148h-49l100 148h87z" />
    <glyph glyph-name="Ocircumflex" unicode="&#xd4;" horiz-adv-x="644" 
d="M392 637q-66 0 -114.5 -35t-80 -89.5t-47 -121t-15.5 -128.5q0 -43 9 -82.5t29 -69.5t53.5 -48t83.5 -18q65 0 113.5 34t81 88t48.5 121t16 133q0 40 -7.5 79t-27.5 69.5t-54 49t-88 18.5zM401 693q64 0 109 -22t73.5 -59.5t41 -87t12.5 -104.5q0 -47 -8.5 -96.5
t-26 -97.5t-44.5 -91t-64 -75t-85 -51t-107 -19q-63 0 -107.5 21.5t-73 58.5t-41.5 86t-13 104q0 70 19 146t59.5 140t104 105.5t151.5 41.5zM350 737h-51l126 151h40l79 -151h-48l-58 95h-2z" />
    <glyph glyph-name="Otilde" unicode="&#xd5;" horiz-adv-x="644" 
d="M392 637q-66 0 -114.5 -35t-80 -89.5t-47 -121t-15.5 -128.5q0 -43 9 -82.5t29 -69.5t53.5 -48t83.5 -18q65 0 113.5 34t81 88t48.5 121t16 133q0 40 -7.5 79t-27.5 69.5t-54 49t-88 18.5zM401 693q64 0 109 -22t73.5 -59.5t41 -87t12.5 -104.5q0 -47 -8.5 -96.5
t-26 -97.5t-44.5 -91t-64 -75t-85 -51t-107 -19q-63 0 -107.5 21.5t-73 58.5t-41.5 86t-13 104q0 70 19 146t59.5 140t104 105.5t151.5 41.5zM365 812q-13 0 -21 -10.5t-17 -31.5l-35 5q11 38 29 63t47 25q16 0 30.5 -6.5t28 -15t26.5 -15t25 -6.5t20.5 8.5t17.5 33.5l35 -6
q-12 -40 -28.5 -63t-48.5 -23q-16 0 -30 6.5t-27.5 14.5t-26.5 14.5t-25 6.5z" />
    <glyph glyph-name="Odieresis" unicode="&#xd6;" horiz-adv-x="644" 
d="M392 637q-66 0 -114.5 -35t-80 -89.5t-47 -121t-15.5 -128.5q0 -43 9 -82.5t29 -69.5t53.5 -48t83.5 -18q65 0 113.5 34t81 88t48.5 121t16 133q0 40 -7.5 79t-27.5 69.5t-54 49t-88 18.5zM401 693q64 0 109 -22t73.5 -59.5t41 -87t12.5 -104.5q0 -47 -8.5 -96.5
t-26 -97.5t-44.5 -91t-64 -75t-85 -51t-107 -19q-63 0 -107.5 21.5t-73 58.5t-41.5 86t-13 104q0 70 19 146t59.5 140t104 105.5t151.5 41.5zM288 805q0 19 14 37.5t38 18.5q17 0 27 -10.5t10 -26.5q0 -20 -14 -38t-38 -18q-17 0 -27 10t-10 27zM466 805q0 19 14 37.5
t38 18.5q17 0 27 -10.5t10 -26.5q0 -20 -14 -38t-38 -18q-17 0 -27 10t-10 27z" />
    <glyph glyph-name="multiply" unicode="&#xd7;" horiz-adv-x="576" 
d="M347 262l160 -196l-39 -34l-160 196l-228 -196l-32 38l228 196l-159 196l38 34l160 -195l228 198l32 -38z" />
    <glyph glyph-name="Oslash" unicode="&#xd8;" horiz-adv-x="644" 
d="M401 693q48 0 84 -12t62 -35l59 80l37 -26l-63 -86q30 -38 43.5 -88t13.5 -106q0 -47 -8.5 -96.5t-26 -97.5t-44.5 -91t-64 -75t-85 -51t-107 -19q-46 0 -81.5 12t-61.5 33l-59 -80l-36 26l61 84q-30 38 -44 88t-14 107q0 70 19 146t59.5 140t104 105.5t151.5 41.5z
M392 637q-66 0 -114.5 -35t-80 -89.5t-47 -121t-15.5 -128.5q0 -39 7.5 -75.5t24.5 -65.5l344 473q-20 20 -48.5 31t-70.5 11zM569 421q0 36 -6.5 71t-23.5 64l-344 -470q20 -19 48.5 -30t66.5 -11q65 0 113.5 34t81 88t48.5 121t16 133z" />
    <glyph glyph-name="Ugrave" unicode="&#xd9;" horiz-adv-x="605" 
d="M275 -10q-42 0 -76.5 11t-60 34t-39.5 58.5t-14 83.5q0 28 3 56t8 57l68 393h67l-74 -424q-7 -42 -6 -80.5t14.5 -68t42 -47t77.5 -17.5q158 0 195 212l73 425h66l-74 -428q-25 -140 -95 -202.5t-175 -62.5zM474 737h-45l-99 148h84z" />
    <glyph glyph-name="Uacute" unicode="&#xda;" horiz-adv-x="605" 
d="M275 -10q-42 0 -76.5 11t-60 34t-39.5 58.5t-14 83.5q0 28 3 56t8 57l68 393h67l-74 -424q-7 -42 -6 -80.5t14.5 -68t42 -47t77.5 -17.5q158 0 195 212l73 425h66l-74 -428q-25 -140 -95 -202.5t-175 -62.5zM496 885l-138 -148h-49l100 148h87z" />
    <glyph glyph-name="Ucircumflex" unicode="&#xdb;" horiz-adv-x="605" 
d="M275 -10q-42 0 -76.5 11t-60 34t-39.5 58.5t-14 83.5q0 28 3 56t8 57l68 393h67l-74 -424q-7 -42 -6 -80.5t14.5 -68t42 -47t77.5 -17.5q158 0 195 212l73 425h66l-74 -428q-25 -140 -95 -202.5t-175 -62.5zM331 737h-52l126 151h41l79 -151h-48l-59 95h-1z" />
    <glyph glyph-name="Udieresis" unicode="&#xdc;" horiz-adv-x="605" 
d="M275 -10q-42 0 -76.5 11t-60 34t-39.5 58.5t-14 83.5q0 28 3 56t8 57l68 393h67l-74 -424q-7 -42 -6 -80.5t14.5 -68t42 -47t77.5 -17.5q158 0 195 212l73 425h66l-74 -428q-25 -140 -95 -202.5t-175 -62.5zM269 805q0 19 14 37.5t38 18.5q17 0 26.5 -10.5t9.5 -26.5
q0 -20 -13.5 -38t-37.5 -18q-17 0 -27 10t-10 27zM447 805q0 19 14 37.5t37 18.5q17 0 27 -10.5t10 -26.5q0 -20 -13.5 -38t-37.5 -18q-17 0 -27 10t-10 27z" />
    <glyph glyph-name="Yacute" unicode="&#xdd;" horiz-adv-x="504" 
d="M276 335l62 100l159 248h76l-277 -407l-47 -276h-65l47 275l-132 408h72l73 -248l29 -100h3zM446 885l-138 -148h-50l100 148h88z" />
    <glyph glyph-name="Thorn" unicode="&#xde;" horiz-adv-x="510" 
d="M208 541q26 2 53 3.5t55 1.5q89 0 136 -43.5t47 -117.5q0 -58 -21.5 -101t-59 -71.5t-89 -42.5t-110.5 -14q-19 0 -38.5 1t-36.5 3l-29 -160h-64l117 683h66zM152 217q20 -3 39 -3.5t36 -0.5q42 0 78.5 9.5t64.5 29t44.5 50t16.5 72.5q0 59 -34 88t-95 29q-28 0 -55.5 -2
t-47.5 -4z" />
    <glyph glyph-name="germandbls" unicode="&#xdf;" horiz-adv-x="567" 
d="M525 610q0 -32 -10.5 -55t-26.5 -41t-34.5 -32.5t-34.5 -30t-26.5 -33.5t-10.5 -43q0 -34 20.5 -56t45.5 -43.5t45.5 -48t20.5 -68.5q0 -41 -15.5 -72t-42.5 -53t-62.5 -33t-75.5 -11q-30 0 -59 6t-51 17l15 52q23 -11 50 -16.5t50 -5.5q21 0 42.5 6.5t39.5 19t29.5 31
t11.5 42.5q0 36 -20.5 62.5t-44.5 49.5t-44.5 48t-20.5 58q0 29 11 48.5t27 34.5t35.5 28.5t35.5 30t27 40t11 57.5q0 33 -20.5 59t-70.5 26q-40 0 -67.5 -15.5t-47 -43.5t-31.5 -67.5t-20 -88.5l-94 -560h-66l95 568q10 59 26.5 107.5t43.5 82.5t67.5 52.5t100.5 18.5
q39 0 66.5 -10.5t45 -28.5t26 -41t8.5 -48z" />
    <glyph glyph-name="agrave" unicode="&#xe0;" 
d="M463 300q-14 -84 -24.5 -160.5t-12.5 -139.5h-63l17 148h-2q-34 -72 -83.5 -115t-105.5 -43q-66 0 -102.5 45t-36.5 116q0 60 21 121.5t58.5 111t89.5 81t114 31.5q25 0 50.5 -5.5t47.5 -19.5h2l13 17l51 4zM419 422q-10 7 -27.5 14t-45.5 7q-48 0 -89.5 -23t-72.5 -62
t-49 -90.5t-18 -107.5q0 -23 4.5 -44t15.5 -37t28 -25.5t43 -9.5q28 0 58.5 20t56.5 54.5t46.5 81.5t29.5 100zM400 544h-45l-99 148h84z" />
    <glyph glyph-name="aacute" unicode="&#xe1;" 
d="M463 300q-14 -84 -24.5 -160.5t-12.5 -139.5h-63l17 148h-2q-34 -72 -83.5 -115t-105.5 -43q-66 0 -102.5 45t-36.5 116q0 60 21 121.5t58.5 111t89.5 81t114 31.5q25 0 50.5 -5.5t47.5 -19.5h2l13 17l51 4zM419 422q-10 7 -27.5 14t-45.5 7q-48 0 -89.5 -23t-72.5 -62
t-49 -90.5t-18 -107.5q0 -23 4.5 -44t15.5 -37t28 -25.5t43 -9.5q28 0 58.5 20t56.5 54.5t46.5 81.5t29.5 100zM443 692l-137 -148h-50l100 148h87z" />
    <glyph glyph-name="acircumflex" unicode="&#xe2;" 
d="M463 300q-14 -84 -24.5 -160.5t-12.5 -139.5h-63l17 148h-2q-34 -72 -83.5 -115t-105.5 -43q-66 0 -102.5 45t-36.5 116q0 60 21 121.5t58.5 111t89.5 81t114 31.5q25 0 50.5 -5.5t47.5 -19.5h2l13 17l51 4zM419 422q-10 7 -27.5 14t-45.5 7q-48 0 -89.5 -23t-72.5 -62
t-49 -90.5t-18 -107.5q0 -23 4.5 -44t15.5 -37t28 -25.5t43 -9.5q28 0 58.5 20t56.5 54.5t46.5 81.5t29.5 100zM264 544h-52l126 151h41l79 -151h-48l-59 95h-1z" />
    <glyph glyph-name="atilde" unicode="&#xe3;" 
d="M463 300q-14 -84 -24.5 -160.5t-12.5 -139.5h-63l17 148h-2q-34 -72 -83.5 -115t-105.5 -43q-66 0 -102.5 45t-36.5 116q0 60 21 121.5t58.5 111t89.5 81t114 31.5q25 0 50.5 -5.5t47.5 -19.5h2l13 17l51 4zM419 422q-10 7 -27.5 14t-45.5 7q-48 0 -89.5 -23t-72.5 -62
t-49 -90.5t-18 -107.5q0 -23 4.5 -44t15.5 -37t28 -25.5t43 -9.5q28 0 58.5 20t56.5 54.5t46.5 81.5t29.5 100zM272 619q-13 0 -21 -10.5t-17 -31.5l-35 5q11 38 29 63t47 25q16 0 30.5 -6.5t28 -15t26.5 -15t25 -6.5t20.5 8.5t17.5 33.5l35 -6q-12 -40 -28.5 -63t-48.5 -23
q-16 0 -30 6.5t-27.5 14.5t-26.5 14.5t-25 6.5z" />
    <glyph glyph-name="adieresis" unicode="&#xe4;" 
d="M463 300q-14 -84 -24.5 -160.5t-12.5 -139.5h-63l17 148h-2q-34 -72 -83.5 -115t-105.5 -43q-66 0 -102.5 45t-36.5 116q0 60 21 121.5t58.5 111t89.5 81t114 31.5q25 0 50.5 -5.5t47.5 -19.5h2l13 17l51 4zM419 422q-10 7 -27.5 14t-45.5 7q-48 0 -89.5 -23t-72.5 -62
t-49 -90.5t-18 -107.5q0 -23 4.5 -44t15.5 -37t28 -25.5t43 -9.5q28 0 58.5 20t56.5 54.5t46.5 81.5t29.5 100zM195 612q0 19 14 37.5t38 18.5q17 0 27 -10.5t10 -26.5q0 -20 -14 -38t-38 -18q-17 0 -27 10t-10 27zM373 612q0 19 14 37.5t38 18.5q17 0 27 -10.5t10 -26.5
q0 -20 -14 -38t-38 -18q-17 0 -27 10t-10 27z" />
    <glyph glyph-name="aring" unicode="&#xe5;" 
d="M463 300q-14 -84 -24.5 -160.5t-12.5 -139.5h-63l17 148h-2q-34 -72 -83.5 -115t-105.5 -43q-66 0 -102.5 45t-36.5 116q0 60 21 121.5t58.5 111t89.5 81t114 31.5q25 0 50.5 -5.5t47.5 -19.5h2l13 17l51 4zM419 422q-10 7 -27.5 14t-45.5 7q-48 0 -89.5 -23t-72.5 -62
t-49 -90.5t-18 -107.5q0 -23 4.5 -44t15.5 -37t28 -25.5t43 -9.5q28 0 58.5 20t56.5 54.5t46.5 81.5t29.5 100zM344 720q38 0 62.5 -23.5t24.5 -61.5q0 -20 -8 -37.5t-21 -31t-31 -21t-39 -7.5q-39 0 -63.5 25t-24.5 63q1 40 30 67t70 27zM341 687q-23 0 -39 -17t-17 -42
q0 -23 13 -39.5t36 -16.5t39.5 17t16.5 43q1 23 -12.5 39t-36.5 16z" />
    <glyph glyph-name="ae" unicode="&#xe6;" horiz-adv-x="759" 
d="M420 231q-2 -10 -2.5 -20.5t-0.5 -21.5q0 -72 33 -108.5t91 -36.5q41 0 77.5 10t63.5 22l7 -50q-29 -14 -69.5 -25t-90.5 -11q-75 0 -115.5 33.5t-54.5 87.5h-2q-33 -56 -76.5 -88.5t-91.5 -32.5q-66 0 -102.5 45t-36.5 116q0 60 21 121.5t58.5 111t89.5 81t114 31.5
q25 0 44.5 -4.5t35.5 -11.5t29 -16t24 -17h2q30 24 64.5 37.5t75.5 13.5q35 0 61.5 -9.5t43.5 -25t26 -36.5t10 -44q0 -38 -17.5 -67.5t-50 -49.5t-78 -30.5t-101.5 -10.5q-40 0 -82 6zM351 161q0 84 22 146t60 106q-12 8 -32.5 19t-54.5 11q-48 0 -89.5 -23t-72.5 -62
t-49 -90.5t-18 -107.5q0 -23 4.5 -44t15.5 -37t28 -25.5t43 -9.5q37 0 75 31.5t68 85.5zM428 280q20 -4 39.5 -5.5t37.5 -1.5q81 0 129.5 28t48.5 75q0 32 -23 50.5t-62 18.5q-31 0 -58 -13t-49 -35.5t-38 -52.5t-25 -64z" />
    <glyph glyph-name="ccedilla" unicode="&#xe7;" horiz-adv-x="440" 
d="M332 443q-49 0 -88 -22t-66.5 -58t-42 -82.5t-14.5 -95.5q0 -67 33 -103.5t99 -36.5q38 0 71 8.5t56 19.5l7 -54q-21 -10 -55 -18t-74 -10l-22 -46q22 -9 37.5 -24t15.5 -41q0 -17 -8.5 -33.5t-24 -29t-36.5 -20t-46 -7.5q-14 0 -27 2.5t-22 6.5l12 39q18 -5 37 -5
q24 0 44 10.5t20 33.5q0 35 -49 44q2 15 8.5 34t15.5 36q-80 7 -119.5 57.5t-40.5 124.5q0 68 20.5 127t58 103t90.5 69.5t117 25.5q35 0 66 -7t48 -17l-16 -53q-20 8 -46.5 15t-58.5 7z" />
    <glyph glyph-name="egrave" unicode="&#xe8;" horiz-adv-x="460" 
d="M121 231q-2 -10 -2.5 -20.5t-0.5 -21.5q0 -72 33 -108.5t91 -36.5q41 0 77.5 10t63.5 22l7 -50q-29 -14 -69.5 -25t-90.5 -11q-49 0 -83 15t-55 41t-30.5 61t-9.5 76q0 63 19.5 120t54 100.5t81.5 69t102 25.5q35 0 61.5 -9.5t43.5 -25t26 -36.5t10 -44
q0 -38 -17.5 -67.5t-50 -49.5t-78 -30.5t-101.5 -10.5q-40 0 -82 6zM129 280q20 -4 39.5 -5.5t37.5 -1.5q81 0 129.5 28t48.5 75q0 32 -23 50.5t-62 18.5q-31 0 -58 -13t-49 -35.5t-38 -52.5t-25 -64zM364 544h-46l-99 148h84z" />
    <glyph glyph-name="eacute" unicode="&#xe9;" horiz-adv-x="460" 
d="M121 231q-2 -10 -2.5 -20.5t-0.5 -21.5q0 -72 33 -108.5t91 -36.5q41 0 77.5 10t63.5 22l7 -50q-29 -14 -69.5 -25t-90.5 -11q-49 0 -83 15t-55 41t-30.5 61t-9.5 76q0 63 19.5 120t54 100.5t81.5 69t102 25.5q35 0 61.5 -9.5t43.5 -25t26 -36.5t10 -44
q0 -38 -17.5 -67.5t-50 -49.5t-78 -30.5t-101.5 -10.5q-40 0 -82 6zM129 280q20 -4 39.5 -5.5t37.5 -1.5q81 0 129.5 28t48.5 75q0 32 -23 50.5t-62 18.5q-31 0 -58 -13t-49 -35.5t-38 -52.5t-25 -64zM402 692l-137 -148h-50l100 148h87z" />
    <glyph glyph-name="ecircumflex" unicode="&#xea;" horiz-adv-x="460" 
d="M121 231q-2 -10 -2.5 -20.5t-0.5 -21.5q0 -72 33 -108.5t91 -36.5q41 0 77.5 10t63.5 22l7 -50q-29 -14 -69.5 -25t-90.5 -11q-49 0 -83 15t-55 41t-30.5 61t-9.5 76q0 63 19.5 120t54 100.5t81.5 69t102 25.5q35 0 61.5 -9.5t43.5 -25t26 -36.5t10 -44
q0 -38 -17.5 -67.5t-50 -49.5t-78 -30.5t-101.5 -10.5q-40 0 -82 6zM129 280q20 -4 39.5 -5.5t37.5 -1.5q81 0 129.5 28t48.5 75q0 32 -23 50.5t-62 18.5q-31 0 -58 -13t-49 -35.5t-38 -52.5t-25 -64zM217 544h-52l126 151h40l80 -151h-48l-59 95h-1z" />
    <glyph glyph-name="edieresis" unicode="&#xeb;" horiz-adv-x="460" 
d="M121 231q-2 -10 -2.5 -20.5t-0.5 -21.5q0 -72 33 -108.5t91 -36.5q41 0 77.5 10t63.5 22l7 -50q-29 -14 -69.5 -25t-90.5 -11q-49 0 -83 15t-55 41t-30.5 61t-9.5 76q0 63 19.5 120t54 100.5t81.5 69t102 25.5q35 0 61.5 -9.5t43.5 -25t26 -36.5t10 -44
q0 -38 -17.5 -67.5t-50 -49.5t-78 -30.5t-101.5 -10.5q-40 0 -82 6zM129 280q20 -4 39.5 -5.5t37.5 -1.5q81 0 129.5 28t48.5 75q0 32 -23 50.5t-62 18.5q-31 0 -58 -13t-49 -35.5t-38 -52.5t-25 -64zM165 612q0 19 14 37.5t37 18.5q17 0 27 -10.5t10 -26.5q0 -20 -13.5 -38
t-38.5 -18q-17 0 -26.5 10t-9.5 27zM343 612q0 19 14 37.5t37 18.5q17 0 27 -10.5t10 -26.5q0 -20 -13.5 -38t-38.5 -18q-17 0 -26.5 10t-9.5 27z" />
    <glyph glyph-name="igrave" unicode="&#xec;" horiz-adv-x="222" 
d="M134 488l66 3l-85 -491h-65zM194 544h-46l-99 148h84z" />
    <glyph glyph-name="iacute" unicode="&#xed;" horiz-adv-x="222" 
d="M134 488l66 3l-85 -491h-65zM334 692l-137 -148h-50l100 148h87z" />
    <glyph glyph-name="icircumflex" unicode="&#xee;" horiz-adv-x="222" 
d="M134 488l66 3l-85 -491h-65zM101 544h-51l126 151h40l79 -151h-48l-58 95h-2z" />
    <glyph glyph-name="idieresis" unicode="&#xef;" horiz-adv-x="222" 
d="M134 488l66 3l-85 -491h-65zM54 612q0 19 14 37.5t37 18.5q17 0 27 -10.5t10 -26.5q0 -20 -13.5 -38t-38.5 -18q-17 0 -26.5 10t-9.5 27zM231 612q0 19 14.5 37.5t37.5 18.5q17 0 27 -10.5t10 -26.5q0 -20 -13.5 -38t-38.5 -18q-17 0 -27 10t-10 27z" />
    <glyph glyph-name="eth" unicode="&#xf0;" horiz-adv-x="517" 
d="M477 725l23 -37l-108 -64q48 -55 74.5 -123.5t26.5 -155.5q0 -80 -20.5 -145.5t-55.5 -112t-82 -72t-100 -25.5q-47 0 -81.5 15t-57.5 41t-34.5 59.5t-11.5 71.5q0 58 19 110.5t52 92t77.5 62.5t96.5 23q32 0 67.5 -12.5t60.5 -47.5h3q-17 111 -87 189l-135 -81l-20 38
l122 73q-22 23 -49.5 40t-59.5 28l23 45q42 -14 74.5 -34t63.5 -47zM424 306q-4 18 -13 37t-24.5 34t-37.5 25t-52 10q-41 0 -74.5 -20t-56.5 -53t-35.5 -74.5t-12.5 -84.5q0 -29 7.5 -53.5t22.5 -43.5t37 -29.5t51 -10.5q40 0 74 21.5t59 57.5t39.5 83.5t15.5 100.5z" />
    <glyph glyph-name="ntilde" unicode="&#xf1;" horiz-adv-x="534" 
d="M366 498q39 0 64.5 -14t39.5 -37.5t17 -55t-3 -66.5l-54 -325h-66l49 289q4 25 6 52.5t-4 50t-23.5 37t-52.5 14.5q-24 0 -54 -20.5t-58.5 -58t-52 -89.5t-33.5 -115l-26 -160h-65l52 299q9 48 16 95t13 94l61 3l-23 -152h2q16 30 37 58.5t46 51t53.5 36t58.5 13.5z
M283 619q-13 0 -21 -10.5t-17 -31.5l-35 5q11 38 29 63t47 25q16 0 30.5 -6.5t28 -15t26.5 -15t25 -6.5t20.5 8.5t17.5 33.5l35 -6q-12 -40 -29 -63t-48 -23q-16 0 -30 6.5t-27.5 14.5t-26.5 14.5t-25 6.5z" />
    <glyph glyph-name="ograve" unicode="&#xf2;" horiz-adv-x="518" 
d="M311 499q51 0 87 -18t58 -48.5t30.5 -71t5.5 -84.5q-3 -54 -21 -106t-51 -92.5t-79.5 -65t-105.5 -24.5q-49 0 -84 17.5t-57.5 47.5t-32 70t-6.5 85q3 58 22 110.5t52 92.5t79 63.5t103 23.5zM304 445q-41 0 -73.5 -20t-56 -53t-37 -75t-15.5 -86q-2 -36 4.5 -67
t22 -53.5t39 -35t55.5 -12.5q39 0 71 20t56 53t38.5 75t16.5 87q2 30 -3 59.5t-19 53.5t-38 39t-61 15zM383 544h-46l-98 148h83z" />
    <glyph glyph-name="oacute" unicode="&#xf3;" horiz-adv-x="518" 
d="M311 499q51 0 87 -18t58 -48.5t30.5 -71t5.5 -84.5q-3 -54 -21 -106t-51 -92.5t-79.5 -65t-105.5 -24.5q-49 0 -84 17.5t-57.5 47.5t-32 70t-6.5 85q3 58 22 110.5t52 92.5t79 63.5t103 23.5zM304 445q-41 0 -73.5 -20t-56 -53t-37 -75t-15.5 -86q-2 -36 4.5 -67
t22 -53.5t39 -35t55.5 -12.5q39 0 71 20t56 53t38.5 75t16.5 87q2 30 -3 59.5t-19 53.5t-38 39t-61 15zM421 692l-138 -148h-49l100 148h87z" />
    <glyph glyph-name="ocircumflex" unicode="&#xf4;" horiz-adv-x="518" 
d="M311 499q51 0 87 -18t58 -48.5t30.5 -71t5.5 -84.5q-3 -54 -21 -106t-51 -92.5t-79.5 -65t-105.5 -24.5q-49 0 -84 17.5t-57.5 47.5t-32 70t-6.5 85q3 58 22 110.5t52 92.5t79 63.5t103 23.5zM304 445q-41 0 -73.5 -20t-56 -53t-37 -75t-15.5 -86q-2 -36 4.5 -67
t22 -53.5t39 -35t55.5 -12.5q39 0 71 20t56 53t38.5 75t16.5 87q2 30 -3 59.5t-19 53.5t-38 39t-61 15zM238 544h-52l126 151h40l80 -151h-48l-59 95h-1z" />
    <glyph glyph-name="otilde" unicode="&#xf5;" horiz-adv-x="518" 
d="M311 499q51 0 87 -18t58 -48.5t30.5 -71t5.5 -84.5q-3 -54 -21 -106t-51 -92.5t-79.5 -65t-105.5 -24.5q-49 0 -84 17.5t-57.5 47.5t-32 70t-6.5 85q3 58 22 110.5t52 92.5t79 63.5t103 23.5zM304 445q-41 0 -73.5 -20t-56 -53t-37 -75t-15.5 -86q-2 -36 4.5 -67
t22 -53.5t39 -35t55.5 -12.5q39 0 71 20t56 53t38.5 75t16.5 87q2 30 -3 59.5t-19 53.5t-38 39t-61 15zM274 619q-14 0 -22 -10.5t-17 -31.5l-35 5q11 38 29.5 63t47.5 25q16 0 30 -6.5t27.5 -15t26.5 -15t26 -6.5q11 0 19.5 8.5t18.5 33.5l35 -6q-13 -40 -29.5 -63
t-47.5 -23q-16 0 -30.5 6.5t-28 14.5t-26 14.5t-24.5 6.5z" />
    <glyph glyph-name="odieresis" unicode="&#xf6;" horiz-adv-x="518" 
d="M311 499q51 0 87 -18t58 -48.5t30.5 -71t5.5 -84.5q-3 -54 -21 -106t-51 -92.5t-79.5 -65t-105.5 -24.5q-49 0 -84 17.5t-57.5 47.5t-32 70t-6.5 85q3 58 22 110.5t52 92.5t79 63.5t103 23.5zM304 445q-41 0 -73.5 -20t-56 -53t-37 -75t-15.5 -86q-2 -36 4.5 -67
t22 -53.5t39 -35t55.5 -12.5q39 0 71 20t56 53t38.5 75t16.5 87q2 30 -3 59.5t-19 53.5t-38 39t-61 15zM189 612q0 19 14 37.5t38 18.5q17 0 26.5 -10.5t9.5 -26.5q0 -20 -13.5 -38t-37.5 -18q-17 0 -27 10t-10 27zM367 612q0 19 14 37.5t38 18.5q17 0 26.5 -10.5t9.5 -26.5
q0 -20 -13.5 -38t-37.5 -18q-17 0 -27 10t-10 27z" />
    <glyph glyph-name="divide" unicode="&#xf7;" horiz-adv-x="582" 
d="M547 294l-9 -52h-464l9 52h464zM290 432q0 26 18.5 42.5t39.5 16.5q18 0 29.5 -12t11.5 -29q0 -27 -18.5 -43t-39.5 -16q-18 0 -29.5 11.5t-11.5 29.5zM233 85q0 26 18 42.5t39 16.5q18 0 29.5 -12t11.5 -30q0 -26 -18 -42t-39 -16q-18 0 -29.5 11.5t-11.5 29.5z" />
    <glyph glyph-name="oslash" unicode="&#xf8;" horiz-adv-x="518" 
d="M311 499q33 0 59 -8t46 -22l46 61l34 -23l-49 -64q27 -32 37.5 -75t7.5 -91q-3 -54 -21 -106t-51 -92.5t-79.5 -65t-105.5 -24.5q-64 0 -107 31l-47 -63l-31 25l49 65q-26 30 -36.5 72t-7.5 90q3 58 22 110.5t52 92.5t79 63.5t103 23.5zM425 278q2 26 -3 55.5t-18 51.5
l-237 -315q30 -27 76 -27q39 0 71 20t56 53t38.5 75t16.5 87zM304 445q-41 0 -73.5 -20t-56 -53t-37 -75t-15.5 -86q-5 -64 21 -106l235 314q-14 12 -32 19t-42 7z" />
    <glyph glyph-name="ugrave" unicode="&#xf9;" horiz-adv-x="528" 
d="M382 122q-32 -65 -82.5 -98.5t-102.5 -33.5q-49 0 -76.5 18.5t-39.5 49.5t-10.5 71t9.5 84l47 275h66l-49 -283q-4 -24 -6.5 -52t4 -52t25 -40t55.5 -16q22 0 48 12.5t50 36t43 57.5t29 77q7 27 13 60.5t12 68.5t11.5 68.5t10.5 62.5h65l-33 -188q-16 -93 -25.5 -168
t-11.5 -132h-63l13 122h-2zM401 544h-45l-99 148h84z" />
    <glyph glyph-name="uacute" unicode="&#xfa;" horiz-adv-x="528" 
d="M382 122q-32 -65 -82.5 -98.5t-102.5 -33.5q-49 0 -76.5 18.5t-39.5 49.5t-10.5 71t9.5 84l47 275h66l-49 -283q-4 -24 -6.5 -52t4 -52t25 -40t55.5 -16q22 0 48 12.5t50 36t43 57.5t29 77q7 27 13 60.5t12 68.5t11.5 68.5t10.5 62.5h65l-33 -188q-16 -93 -25.5 -168
t-11.5 -132h-63l13 122h-2zM426 692l-138 -148h-49l100 148h87z" />
    <glyph glyph-name="ucircumflex" unicode="&#xfb;" horiz-adv-x="528" 
d="M382 122q-32 -65 -82.5 -98.5t-102.5 -33.5q-49 0 -76.5 18.5t-39.5 49.5t-10.5 71t9.5 84l47 275h66l-49 -283q-4 -24 -6.5 -52t4 -52t25 -40t55.5 -16q22 0 48 12.5t50 36t43 57.5t29 77q7 27 13 60.5t12 68.5t11.5 68.5t10.5 62.5h65l-33 -188q-16 -93 -25.5 -168
t-11.5 -132h-63l13 122h-2zM253 544h-51l126 151h40l79 -151h-48l-58 95h-1z" />
    <glyph glyph-name="udieresis" unicode="&#xfc;" horiz-adv-x="528" 
d="M382 122q-32 -65 -82.5 -98.5t-102.5 -33.5q-49 0 -76.5 18.5t-39.5 49.5t-10.5 71t9.5 84l47 275h66l-49 -283q-4 -24 -6.5 -52t4 -52t25 -40t55.5 -16q22 0 48 12.5t50 36t43 57.5t29 77q7 27 13 60.5t12 68.5t11.5 68.5t10.5 62.5h65l-33 -188q-16 -93 -25.5 -168
t-11.5 -132h-63l13 122h-2zM197 612q0 19 14 37.5t37 18.5q17 0 27 -10.5t10 -26.5q0 -20 -13.5 -38t-38.5 -18q-17 0 -26.5 10t-9.5 27zM375 612q0 19 14 37.5t37 18.5q17 0 27 -10.5t10 -26.5q0 -20 -13.5 -38t-38.5 -18q-17 0 -26.5 10t-9.5 27z" />
    <glyph glyph-name="yacute" unicode="&#xfd;" horiz-adv-x="445" 
d="M136 488l49 -308l16 -108h3l68 107l79 121q32 51 35.5 100.5t-10.5 87.5h66q7 -20 10 -44.5t-0.5 -52t-14 -56.5t-29.5 -56l-191 -284l14 -88q6 -37 -1.5 -64.5t-33 -46t-71 -28t-114.5 -9.5v56q50 0 82.5 5.5t51 16t24 26.5t1.5 37l-99 588h65zM358 692l-138 -148h-49
l100 148h87z" />
    <glyph glyph-name="thorn" unicode="&#xfe;" horiz-adv-x="520" 
d="M330 443q-27 0 -55.5 -15.5t-54 -45.5t-45.5 -74.5t-29 -101.5l-24 -135q20 -12 46 -20t59 -8q46 0 83 24t63.5 63t40.5 88t14 99q0 24 -5 46.5t-16.5 40t-30.5 28.5t-46 11zM174 377q14 25 33 47.5t42 38.5t48.5 25.5t52.5 9.5q38 0 65.5 -14t45 -37.5t26 -55t9.5 -65.5
q0 -66 -19.5 -127t-55 -107.5t-85 -74t-109.5 -27.5q-40 0 -67 8t-45 19h-2l-40 -236h-66l157 919l64 3l-56 -326h2z" />
    <glyph glyph-name="ydieresis" unicode="&#xff;" horiz-adv-x="445" 
d="M136 488l49 -308l16 -108h3l68 107l79 121q32 51 35.5 100.5t-10.5 87.5h66q7 -20 10 -44.5t-0.5 -52t-14 -56.5t-29.5 -56l-191 -284l14 -88q6 -37 -1.5 -64.5t-33 -46t-71 -28t-114.5 -9.5v56q50 0 82.5 5.5t51 16t24 26.5t1.5 37l-99 588h65zM145 612q0 19 14 37.5
t38 18.5q17 0 27 -10.5t10 -26.5q0 -20 -14 -38t-38 -18q-17 0 -27 10t-10 27zM323 612q0 19 14 37.5t38 18.5q17 0 27 -10.5t10 -26.5q0 -20 -14 -38t-38 -18q-17 0 -27 10t-10 27z" />
    <glyph glyph-name="OE" unicode="&#x152;" horiz-adv-x="879" 
d="M893 626h-269l-43 -243h251l-15 -57h-245l-47 -269h288l-14 -57h-349l6 35q-32 -21 -70 -33t-84 -12q-63 0 -107.5 21.5t-73 58.5t-41.5 86t-13 104q0 70 19 146t59.5 140t104 105.5t151.5 41.5q54 0 93 -16t65 -43l9 49h340zM310 45q50 0 90 20.5t70 55.5l74 426
q-18 39 -54 64.5t-98 25.5q-66 0 -114.5 -35t-80 -89.5t-47 -121t-15.5 -128.5q0 -43 9 -82.5t29 -69.5t53.5 -48t83.5 -18z" />
    <glyph glyph-name="oe" unicode="&#x153;" horiz-adv-x="815" 
d="M476 231q-4 -17 -4 -42q0 -72 33.5 -108.5t91.5 -36.5q41 0 77.5 10t63.5 22l7 -50q-29 -14 -70 -25t-90 -11q-68 0 -105.5 30t-54.5 76h-2q-32 -45 -79 -76t-109 -31q-49 0 -84 17.5t-57.5 47.5t-32 70t-6.5 85q3 58 22 110.5t52 92.5t79 63.5t103 23.5q64 0 102.5 -33
t55.5 -80h2q34 50 84 81t108 31q35 0 61.5 -9.5t44 -25t26.5 -36.5t9 -44q0 -38 -17.5 -67.5t-49.5 -49.5t-77.5 -30.5t-102.5 -10.5q-39 0 -81 6zM304 445q-41 0 -73.5 -20t-56 -53t-37 -75t-15.5 -86q-2 -36 4.5 -67t22 -53.5t39 -35t55.5 -12.5q39 0 71 20t56 53t38.5 75
t16.5 87q2 30 -3 59.5t-19 53.5t-38 39t-61 15zM484 280q38 -7 76 -7q81 0 129.5 28t48.5 75q0 32 -22.5 50.5t-62.5 18.5q-30 0 -57 -13t-49 -35.5t-38 -52.5t-25 -64z" />
    <glyph glyph-name="Ydieresis" unicode="&#x178;" horiz-adv-x="504" 
d="M276 335l62 100l159 248h76l-277 -407l-47 -276h-65l47 275l-132 408h72l73 -248l29 -100h3zM219 805q0 19 14 37.5t38 18.5q17 0 26.5 -10.5t9.5 -26.5q0 -20 -13.5 -38t-37.5 -18q-17 0 -27 10t-10 27zM397 805q0 19 14 37.5t37 18.5q17 0 27 -10.5t10 -26.5
q0 -20 -13.5 -38t-37.5 -18q-17 0 -27 10t-10 27z" />
    <glyph glyph-name="tilde" unicode="&#x2dc;" horiz-adv-x="412" 
d="M304 619q-13 0 -21.5 -10.5t-17.5 -31.5l-35 5q11 38 29.5 63t47.5 25q16 0 30 -6.5t27.5 -15t26.5 -15t26 -6.5q12 0 20.5 8.5t17.5 33.5l35 -6q-12 -40 -29 -63t-48 -23q-16 0 -30 6.5t-27.5 14.5t-26.5 14.5t-25 6.5z" />
    <glyph glyph-name="endash" unicode="&#x2013;" horiz-adv-x="538" 
d="M507 285l-8 -51h-434l8 51h434z" />
    <glyph glyph-name="emdash" unicode="&#x2014;" horiz-adv-x="951" 
d="M920 285l-9 -51h-846l8 51h847z" />
    <glyph glyph-name="quoteleft" unicode="&#x2018;" horiz-adv-x="210" 
d="M261 709q-32 -53 -54.5 -111.5t-36.5 -118.5l-64 9q10 31 24.5 64.5t30 64.5t31.5 58t30 46z" />
    <glyph glyph-name="quoteright" unicode="&#x2019;" horiz-adv-x="219" 
d="M98 488q32 53 54.5 111.5t35.5 118.5l65 -9q-10 -31 -24.5 -64.5t-30 -64.5t-32 -58t-29.5 -46z" />
    <glyph glyph-name="quotedblleft" unicode="&#x201c;" horiz-adv-x="357" 
d="M261 709q-32 -53 -54.5 -111.5t-35.5 -118.5l-65 9q10 31 24.5 64.5t30 64.5t31.5 58t30 46zM407 709q-31 -53 -54 -111.5t-36 -118.5l-64 9q10 31 24 64.5t30 64.5t32 58t30 46z" />
    <glyph glyph-name="quotedblright" unicode="&#x201d;" horiz-adv-x="365" 
d="M98 488q32 53 54.5 111.5t35.5 118.5l64 -9q-10 -31 -24.5 -64.5t-30 -64.5t-31.5 -58t-30 -46zM244 488q32 53 54.5 111.5t36.5 118.5l64 -9q-10 -31 -24.5 -64.5t-30 -64.5t-32 -58t-29.5 -46z" />
    <glyph glyph-name="quotedblbase" unicode="&#x201e;" horiz-adv-x="355" 
d="M139 -122q32 52 54.5 110.5t35.5 119.5l64 -9q-10 -32 -24.5 -65t-30 -64.5t-31.5 -58.5t-30 -45zM-8 -122q32 52 54.5 110.5t35.5 119.5l65 -9q-10 -32 -24.5 -65t-30 -64.5t-32 -58.5t-29.5 -45z" />
    <glyph glyph-name="bullet" unicode="&#x2022;" horiz-adv-x="266" 
d="M41 265q0 19 7.5 36t20 29.5t29.5 20t36 7.5t36.5 -7.5t30 -20t20 -29.5t7.5 -36q0 -20 -7.5 -37t-20 -29.5t-30 -20t-36.5 -7.5t-36 7.5t-29.5 20t-20 29.5t-7.5 37z" />
    <glyph glyph-name="ellipsis" unicode="&#x2026;" horiz-adv-x="724" 
d="M48 33q0 11 4.5 22.5t12 21t18.5 15.5t25 6q20 0 31.5 -12.5t11.5 -30.5q0 -23 -16 -44t-45 -21q-20 0 -31 12t-11 31zM297 33q0 23 16 44t44 21q20 0 31 -12.5t11 -30.5q0 -23 -16 -44t-44 -21q-20 0 -31 12t-11 31zM547 33q0 11 4.5 22.5t12 21t18.5 15.5t25 6
q20 0 31 -12.5t11 -30.5q0 -23 -16 -44t-44 -21q-20 0 -31 12t-11 31z" />
    <glyph glyph-name="guilsinglleft" unicode="&#x2039;" horiz-adv-x="289" 
d="M132 254l94 -152l-39 -26l-112 181l175 181l32 -30z" />
    <glyph glyph-name="guilsinglright" unicode="&#x203a;" horiz-adv-x="290" 
d="M194 260l-95 152l39 26l112 -181l-174 -181l-33 30z" />
    <glyph glyph-name="Euro" unicode="&#x20ac;" horiz-adv-x="533" 
d="M434 300l-13 -46h-246q1 -36 9.5 -73.5t28 -67.5t51 -49t77.5 -19q38 0 73 9t61 19l5 -50q-26 -14 -65 -23.5t-83 -9.5q-57 0 -99 20t-69.5 55.5t-42 84t-15.5 104.5h-71l14 46h60q2 16 5 37.5t8 36.5h-66l13 46h66q18 56 48 103.5t71 81.5t92.5 53t112.5 19
q38 0 68.5 -9t51.5 -20l-17 -53q-23 11 -50 19t-60 8q-48 0 -87.5 -15.5t-70.5 -42.5t-53.5 -64t-36.5 -80h251l-13 -46h-252q-5 -17 -8 -36t-5 -38h257z" />
    <glyph glyph-name="trademark" unicode="&#x2122;" horiz-adv-x="709" 
d="M130 646l9 37h221l-8 -37h-88l-44 -253h-43l43 253h-90zM482 395l-44 246h-2l-10 -60l-40 -188h-42l62 290h64l35 -186l9 -52h2l24 52l100 186h63l-36 -290h-42l25 188l7 60h-2l-125 -246h-48z" />
    <glyph glyph-name="thinspace" horiz-adv-x="120" 
 />
    </font>
</defs>
</svg>
