<?xml version="1.0" standalone="no"?>
<!DOCTYPE svg PUBLIC "-//W3C//DTD SVG 1.1//EN" "http://www.w3.org/Graphics/SVG/1.1/DTD/svg11.dtd" >
<svg>
<metadata>
Created by FontForge 20120731 at Thu Jun 18 08:54:05 2015
 By ,,,
Copyright (c) 2011 by Neil Summerour. All rights reserved.
</metadata>
<defs>
<font id="166149731b46ec634af9d8df4cdadd9733cece209e667bed5a20b191928827f" horiz-adv-x="599" >
  <font-face 
    font-family="166149731b46ec634af9d8df4cdadd9733cece209e667bed5a20b191928827f8"
    font-weight="600"
    font-stretch="normal"
    units-per-em="1000"
    panose-1="2 0 0 0 0 0 0 0 0 0"
    ascent="750"
    descent="-250"
    x-height="490"
    cap-height="683"
    bbox="-81 -233.059 902 897"
    underline-thickness="50"
    underline-position="-50"
    unicode-range="U+0020-2122"
  />
<missing-glyph horiz-adv-x="531" 
 />
    <glyph glyph-name=".notdef" horiz-adv-x="531" 
 />
    <glyph glyph-name=".null" horiz-adv-x="0" 
 />
    <glyph glyph-name="nonmarkingreturn" horiz-adv-x="333" 
 />
    <glyph glyph-name="space" unicode=" " horiz-adv-x="264" 
 />
    <glyph glyph-name="space" unicode="&#xa0;" horiz-adv-x="264" 
 />
    <glyph glyph-name="exclam" unicode="!" horiz-adv-x="262" 
d="M172 217h-83l-14 487h112zM60 59q0 29 21 50t50 21t49.5 -21t20.5 -50t-20.5 -49.5t-49.5 -20.5t-50 20.5t-21 49.5z" />
    <glyph glyph-name="quotedbl" unicode="&#x22;" horiz-adv-x="372" 
d="M155 716l-15 -230h-64l-16 230h95zM312 716l-16 -230h-64l-16 230h96z" />
    <glyph glyph-name="numbersign" unicode="#" horiz-adv-x="565" 
d="M420 444h92l-6 -72h-92l-12 -131h94l-6 -71h-95l-16 -162h-72l16 162h-108l-16 -162h-72l17 162h-91l6 71h92l12 131h-94l6 72h95l16 159h71l-16 -159h109l16 159h71zM223 241h108l11 131h-108z" />
    <glyph glyph-name="dollar" unicode="$" horiz-adv-x="514" 
d="M294 663q44 -2 78 -11t61 -21l-17 -83q-26 11 -62.5 22t-84.5 11q-49 0 -75 -24.5t-26 -58.5q0 -32 21 -53t53 -37.5t69 -33.5t69 -40.5t53 -58t21 -86.5q0 -70 -43.5 -118t-120.5 -62v-100h-76v95q-45 2 -87.5 12.5t-71.5 27.5l16 83q34 -17 76.5 -28t85.5 -11
q51 0 83 24t32 68q0 36 -21 59t-53 40.5t-68.5 33.5t-68.5 38.5t-53 55.5t-21 84q0 34 11.5 62.5t32.5 49.5t49 35t61 20v98h77v-93z" />
    <glyph glyph-name="percent" unicode="%" horiz-adv-x="875" 
d="M508 173q0 42 12 76.5t34 58.5t51 37.5t64 13.5q34 0 62.5 -13t48.5 -36t31 -55.5t11 -72.5q0 -45 -12.5 -80.5t-34 -60t-51 -37t-62.5 -12.5q-32 0 -60 12t-49 35.5t-33 57t-12 76.5zM587 175q0 -57 20 -91t59 -34t58 33.5t19 92.5q0 56 -18.5 90.5t-59.5 34.5
q-38 0 -58 -34.5t-20 -91.5zM52 491q0 42 12 76.5t34 59t51 38t64 13.5q34 0 62.5 -13t48.5 -36.5t31 -57t11 -73.5q0 -45 -12.5 -80t-34.5 -59t-51 -36.5t-62 -12.5q-32 0 -60 12.5t-49 35.5t-33 57t-12 76zM132 494q0 -57 19.5 -91.5t58.5 -34.5t58 34t19 92
q0 56 -18 90.5t-60 34.5q-38 0 -57.5 -34.5t-19.5 -90.5zM646 675l-345 -683h-71l346 683h70z" />
    <glyph glyph-name="ampersand" unicode="&#x26;" horiz-adv-x="637" 
d="M106 527q0 34 13 64.5t36.5 53t57 35.5t74.5 13q33 0 63 -10t52 -29.5t35 -47.5t13 -63q0 -47 -31 -93t-110 -90v-2q39 -45 79 -90t74 -83q22 35 36.5 82.5t20.5 108.5h95q-18 -166 -93 -256l77 -82l-74 -60l-73 79q-45 -36 -94.5 -51.5t-103.5 -15.5q-52 0 -92.5 15.5
t-68.5 41t-42.5 59.5t-14.5 72q0 63 35 111.5t99 85.5v2q-27 34 -45 72t-18 78zM140 191q0 -27 9.5 -49.5t27 -38.5t40.5 -25t50 -9q38 0 71.5 13t58.5 36q-35 39 -81.5 91t-95.5 109q-33 -22 -56.5 -53.5t-23.5 -73.5zM356 539q0 31 -17 56.5t-56 25.5t-58.5 -26.5
t-19.5 -62.5q0 -32 14.5 -60t37.5 -56q50 30 74.5 58.5t24.5 64.5z" />
    <glyph glyph-name="quotesingle" unicode="'" horiz-adv-x="215" 
d="M155 716l-15 -230h-64l-16 230h95z" />
    <glyph glyph-name="parenleft" unicode="(" horiz-adv-x="304" 
d="M144 288q0 -134 34.5 -250t91.5 -208h-70q-31 42 -57 91.5t-45.5 107.5t-30.5 122.5t-11 136.5t11 138t30.5 124.5t46 108.5t56.5 91h70q-58 -91 -92 -208.5t-34 -253.5z" />
    <glyph glyph-name="parenright" unicode=")" horiz-adv-x="304" 
d="M159 290q0 134 -34 251t-92 209h70q31 -41 57.5 -91t46 -108t30.5 -124t11 -138t-11.5 -137t-31 -123t-46 -108t-56.5 -91h-70q57 91 91.5 208.5t34.5 251.5z" />
    <glyph glyph-name="asterisk" unicode="*" horiz-adv-x="432" 
d="M165 519l-121 49q10 39 39 69l103 -81l4 2l-17 130q19 5 38.5 5t39.5 -5l-18 -130l4 -2l104 80q28 -28 39 -68l-121 -49v-5l121 -49q-10 -37 -39 -69l-104 81l-4 -2l18 -130q-38 -9 -78 0l17 130l-3 2l-104 -81q-29 30 -39 69l121 49v5z" />
    <glyph glyph-name="plus" unicode="+" horiz-adv-x="583" 
d="M329 322h199v-73h-199v-206h-75v206h-199v73h199v205h75v-205z" />
    <glyph glyph-name="comma" unicode="," horiz-adv-x="223" 
d="M25 -124q26 59 38 123.5t15 132.5l95 -13q-6 -35 -15.5 -72t-21.5 -71.5t-24.5 -64t-24.5 -50.5z" />
    <glyph glyph-name="hyphen" unicode="-" horiz-adv-x="399" 
d="M350 307v-76h-302v76h302z" />
    <glyph glyph-name="hyphen" unicode="&#xad;" horiz-adv-x="399" 
d="M350 307v-76h-302v76h302z" />
    <glyph glyph-name="period" unicode="." horiz-adv-x="238" 
d="M67 59q0 29 20.5 50t49.5 21t49.5 -21t20.5 -50t-20.5 -49.5t-49.5 -20.5t-49.5 20.5t-20.5 49.5z" />
    <glyph glyph-name="slash" unicode="/" horiz-adv-x="378" 
d="M364 690l-267 -716h-80l267 716h80z" />
    <glyph glyph-name="zero" unicode="0" horiz-adv-x="555" 
d="M278 -11q-58 0 -101.5 23.5t-72.5 67t-44 105.5t-16 138q0 77 15 139.5t45 106.5t73.5 68t100.5 24q58 0 101.5 -24.5t72.5 -68.5t43.5 -106t14.5 -138q0 -78 -15.5 -140.5t-44.5 -105.5t-72.5 -66t-99.5 -23zM278 72q69 0 97.5 65t28.5 186q0 123 -30 189.5t-96 66.5
t-96.5 -65.5t-30.5 -190.5q0 -121 29 -186t98 -65z" />
    <glyph glyph-name="one" unicode="1" horiz-adv-x="463" 
d="M209 553l-112 -57l-28 76l161 81h85v-653h-103l-1 553h-2z" />
    <glyph glyph-name="two" unicode="2" horiz-adv-x="528" 
d="M234 573q-42 0 -76 -13t-66 -30l-30 74q36 23 88 39.5t106 16.5q50 0 88.5 -15t64.5 -41.5t39 -62t13 -76.5q0 -54 -22 -102t-59 -93t-86 -89.5t-104 -92.5l285 -1l-6 -87h-425v68q75 67 132.5 120t97 98t60 85.5t20.5 82.5q0 52 -28.5 85.5t-91.5 33.5z" />
    <glyph glyph-name="three" unicode="3" horiz-adv-x="528" 
d="M217 75q38 0 64.5 10t43 25.5t24 36t7.5 41.5q0 30 -13 52t-34.5 36t-49 21t-57.5 7h-57l5 81h49q25 0 49.5 5.5t43.5 17.5t31 31t12 46q0 37 -26.5 63t-80.5 26q-41 0 -77 -11t-65 -25l-19 79q32 17 80 30t100 13q46 0 82.5 -11.5t62 -32.5t39 -50t13.5 -63
q0 -54 -31 -94t-93 -60v-2q30 -6 56.5 -20t46 -35t31 -48.5t11.5 -60.5q0 -42 -16.5 -77.5t-48 -61t-77.5 -40t-104 -14.5q-54 0 -100.5 11.5t-75.5 28.5l18 81q28 -13 69.5 -24.5t86.5 -11.5z" />
    <glyph glyph-name="four" unicode="4" horiz-adv-x="535" 
d="M320 251v206l1 93l-2 1l-47 -81l-146 -217v-2h194zM421 653v-402h83l-6 -83h-77v-168h-101v168h-300v73l279 412h122z" />
    <glyph glyph-name="five" unicode="5" horiz-adv-x="528" 
d="M174 406q14 3 26 3.5t26 0.5q53 0 96.5 -13.5t75 -39t49 -63t17.5 -85.5q0 -49 -18 -89t-50.5 -69t-78.5 -45t-102 -16q-52 0 -97.5 10.5t-74.5 25.5l17 82q29 -13 69 -23.5t84 -10.5q68 0 105.5 36t37.5 91q0 127 -190 127q-50 0 -87 -3l-1 1q1 13 3.5 38.5t5.5 57
t6.5 66t6.5 66t5.5 57t3.5 39.5h333l-6 -89h-246z" />
    <glyph glyph-name="six" unicode="6" horiz-adv-x="545" 
d="M304 429q44 0 80.5 -15t63 -43t41 -67t14.5 -87q0 -47 -16 -88.5t-45 -72t-71 -48.5t-94 -18q-56 0 -99.5 20.5t-73.5 57.5t-45.5 88t-15.5 112q0 98 30.5 172.5t83.5 124.5t125 75t155 23v-84q-53 0 -100.5 -13t-85.5 -40t-64.5 -67.5t-35.5 -94.5h2q25 29 64 47t87 18z
M148 266q-2 -40 5 -75.5t23.5 -62.5t42.5 -42.5t62 -15.5q51 0 83 39t32 103q0 58 -31 97.5t-91 39.5q-20 0 -40 -6.5t-37 -18t-30 -26.5t-19 -32z" />
    <glyph glyph-name="seven" unicode="7" horiz-adv-x="501" 
d="M44 562v88h417v-71l-270 -579h-112l248 517l22 43v2h-305z" />
    <glyph glyph-name="eight" unicode="8" horiz-adv-x="549" 
d="M67 487q0 41 16.5 73t45.5 54.5t68 34t83 11.5q47 0 84.5 -13t63.5 -35t39.5 -52t13.5 -63q0 -46 -25.5 -85t-81.5 -66v-2q59 -25 94.5 -66t35.5 -100q0 -43 -17.5 -78t-48.5 -59.5t-74 -37.5t-93 -13q-53 0 -95 13.5t-71 37t-44.5 55.5t-15.5 69q0 60 33 103t95 69v2
q-55 26 -80.5 64.5t-25.5 83.5zM262 301q-49 -14 -79.5 -46t-30.5 -77q0 -22 7.5 -42.5t23 -36t38.5 -24.5t53 -9q57 0 89.5 30t32.5 75q0 54 -38 84.5t-96 45.5zM286 380q36 11 64 39t28 69q0 19 -6 36t-19 30.5t-32.5 21.5t-46.5 8q-52 0 -78.5 -28t-26.5 -66
q0 -44 32.5 -71t84.5 -39z" />
    <glyph glyph-name="nine" unicode="9" horiz-adv-x="545" 
d="M241 222q-45 0 -81.5 15t-62.5 42.5t-40.5 66.5t-14.5 87q0 47 15.5 88.5t45 72t71 48.5t93.5 18q55 0 98.5 -20.5t73.5 -57.5t45.5 -88t15.5 -112q0 -98 -30.5 -172.5t-84 -124.5t-125.5 -75t-155 -23v84q52 0 100 13t86.5 40t65.5 67.5t36 94.5h-3q-25 -29 -63.5 -46.5
t-85.5 -17.5zM395 384q2 40 -4.5 75.5t-23 62.5t-42 42.5t-61.5 15.5q-51 0 -83.5 -39t-32.5 -103q0 -58 31 -96.5t92 -38.5q20 0 40 6.5t36.5 17.5t29 25.5t18.5 31.5z" />
    <glyph glyph-name="colon" unicode=":" horiz-adv-x="238" 
d="M67 398q0 29 20.5 50t49.5 21t49.5 -21t20.5 -50t-20.5 -49.5t-49.5 -20.5t-49.5 20.5t-20.5 49.5zM67 59q0 29 20.5 50t49.5 21t49.5 -21t20.5 -50t-20.5 -49.5t-49.5 -20.5t-49.5 20.5t-20.5 49.5z" />
    <glyph glyph-name="semicolon" unicode=";" horiz-adv-x="224" 
d="M52 398q0 29 20.5 50t49.5 21t50 -21t21 -50t-21 -49.5t-50 -20.5t-49.5 20.5t-20.5 49.5zM25 -124q26 59 38 123.5t15 132.5l95 -13q-6 -35 -15.5 -72t-21.5 -71.5t-24.5 -64t-24.5 -50.5z" />
    <glyph glyph-name="less" unicode="&#x3c;" horiz-adv-x="569" 
d="M66 257v60l437 224v-85l-338 -168v-2l338 -167v-86z" />
    <glyph glyph-name="equal" unicode="=" horiz-adv-x="583" 
d="M528 226v-72h-473v72h473zM528 419v-72h-473v72h473z" />
    <glyph glyph-name="greater" unicode="&#x3e;" horiz-adv-x="569" 
d="M66 33v86l340 167v2l-340 168v85l437 -223v-62z" />
    <glyph glyph-name="question" unicode="?" horiz-adv-x="417" 
d="M142 215q-2 8 -3 19t-1 21q0 50 21 83.5t46 61t46 54t21 63.5q0 44 -35 69.5t-98 25.5q-13 0 -27.5 -1.5t-25.5 -4.5l-9 81q19 3 41 6t46 3q55 0 95 -13.5t66.5 -36.5t39 -53t12.5 -64t-10.5 -60t-26.5 -48t-35 -41.5t-35 -40.5t-26.5 -45t-10.5 -55v-12.5t1 -11.5h-92z
M118 59q0 29 20.5 50t49.5 21t50 -21t21 -50t-21 -49.5t-50 -20.5t-49.5 20.5t-20.5 49.5z" />
    <glyph glyph-name="at" unicode="@" horiz-adv-x="802" 
d="M468 147q-28 -55 -64 -83t-69 -28q-28 0 -49 10t-35.5 27.5t-22 40.5t-7.5 50q0 45 16.5 91t47 84t74.5 62t99 24q13 0 29.5 -2t32.5 -6t31 -10t27 -13q-4 -27 -11 -60t-13 -67t-10.5 -65.5t-3 -56t9.5 -39.5t26 -15q25 0 45.5 14.5t35.5 40t23.5 60.5t8.5 75
q0 55 -16.5 101.5t-48.5 81t-80.5 54t-112.5 19.5q-62 0 -119 -22.5t-100.5 -65t-69.5 -105t-26 -143.5q0 -62 19 -114.5t54 -91t84.5 -60.5t109.5 -22q32 0 59 5t53 15l10 -55q-30 -13 -62 -18t-66 -5q-70 0 -130 24.5t-104 69t-69 107.5t-25 140q0 84 28.5 157t79.5 127
t122 85t157 31q71 0 130 -23t101 -64t65 -97.5t23 -123.5q0 -45 -12 -89.5t-36 -80t-60.5 -57.5t-85.5 -22q-47 0 -70 30.5t-21 77.5h-2zM496 357q-7 4 -17 6.5t-27 2.5q-27 0 -53 -14t-47 -39.5t-34 -61t-13 -77.5q0 -37 15.5 -56.5t42.5 -19.5q15 0 33 11t34.5 32
t30.5 52.5t21 72.5z" />
    <glyph glyph-name="A" unicode="A" 
d="M581 0h-113l-61 196h-220q-1 -6 -5.5 -21t-11 -35t-13.5 -42t-13 -42t-11 -35t-6 -21h-110l217 684h130zM296 594l-28 -100l-61 -215h180l-61 215l-28 100h-2z" />
    <glyph glyph-name="B" unicode="B" horiz-adv-x="561" 
d="M173 315v-234q14 -2 31 -2h37q35 0 66 5t54 18.5t36 36.5t13 58q0 30 -11 52t-30.5 36.5t-46 22t-57.5 7.5h-92zM264 604q-29 0 -51 -1t-40 -3v-204h85q63 0 97.5 28t34.5 79q0 52 -33.5 76.5t-92.5 24.5zM70 677q37 4 85 6.5t99 2.5q55 0 100 -9.5t76.5 -30.5
t48.5 -53.5t17 -78.5q0 -51 -29 -91.5t-82 -60.5v-1q26 -7 50 -21.5t43 -35.5t30 -49.5t11 -62.5q0 -57 -21 -94.5t-60.5 -60t-97 -32t-130.5 -9.5q-44 0 -78.5 1.5t-61.5 3.5v676z" />
    <glyph glyph-name="B" unicode="&#xe000;" horiz-adv-x="561" 
d="M173 315v-234q14 -2 31 -2h37q35 0 66 5t54 18.5t36 36.5t13 58q0 30 -11 52t-30.5 36.5t-46 22t-57.5 7.5h-92zM264 604q-29 0 -51 -1t-40 -3v-204h85q63 0 97.5 28t34.5 79q0 52 -33.5 76.5t-92.5 24.5zM70 677q37 4 85 6.5t99 2.5q55 0 100 -9.5t76.5 -30.5
t48.5 -53.5t17 -78.5q0 -51 -29 -91.5t-82 -60.5v-1q26 -7 50 -21.5t43 -35.5t30 -49.5t11 -62.5q0 -57 -21 -94.5t-60.5 -60t-97 -32t-130.5 -9.5q-44 0 -78.5 1.5t-61.5 3.5v676z" />
    <glyph glyph-name="C" unicode="C" horiz-adv-x="567" 
d="M147 340q0 -59 15 -107.5t43.5 -83t70.5 -53t97 -18.5q40 0 79.5 7t69.5 20l12 -85q-28 -12 -73.5 -21t-101.5 -9q-77 0 -136.5 25.5t-100.5 71t-62.5 109t-21.5 140.5q0 78 23 143.5t65.5 113t104 74t139.5 26.5q57 0 100 -9.5t66 -20.5l-15 -85q-31 13 -67.5 20.5
t-79.5 7.5q-53 0 -95 -18.5t-71 -53t-45 -83.5t-16 -111z" />
    <glyph glyph-name="D" unicode="D" horiz-adv-x="649" 
d="M70 677q45 4 94 6.5t102 2.5q87 0 152 -23.5t108 -67t64 -105.5t21 -138q0 -169 -93 -262.5t-283 -93.5q-48 0 -89 1.5t-76 3.5v676zM269 601q-29 0 -52.5 -1t-42.5 -3v-514q14 -2 32 -2h36q128 0 193 65t65 203q0 58 -14.5 104.5t-43 79.5t-72 50.5t-101.5 17.5z" />
    <glyph glyph-name="E" unicode="E" horiz-adv-x="503" 
d="M445 596h-271v-200h253l-6 -87h-247v-222h291l-6 -87h-389v683h381z" />
    <glyph glyph-name="E" unicode="&#xe001;" horiz-adv-x="503" 
d="M445 596h-271v-200h253l-6 -87h-247v-222h291l-6 -87h-389v683h381z" />
    <glyph glyph-name="F" unicode="F" horiz-adv-x="489" 
d="M444 596h-270v-211h248l-5 -87h-243v-298h-104v683h380z" />
    <glyph glyph-name="G" unicode="G" horiz-adv-x="625" 
d="M355 356h216v-330q-34 -12 -88 -23t-115 -11q-78 0 -139.5 24t-104 69t-64.5 109t-22 144q0 76 22.5 140.5t66 111.5t107 74t145.5 27q56 0 101 -10t74 -21l-17 -86q-32 13 -70 21t-87 8q-54 0 -97 -18t-73.5 -52t-46.5 -82.5t-16 -109.5q0 -60 15.5 -108.5t45 -82.5
t71.5 -52.5t95 -18.5q32 0 55 3.5t39 8.5v178h-119z" />
    <glyph glyph-name="H" unicode="H" horiz-adv-x="643" 
d="M174 0h-104v683h104v-284h294v284h104v-683h-104v309h-294v-309z" />
    <glyph glyph-name="I" unicode="I" horiz-adv-x="245" 
d="M174 0h-104v683h104v-683z" />
    <glyph glyph-name="J" unicode="J" horiz-adv-x="241" 
d="M70 683h105v-524q0 -85 -17.5 -144t-50 -96t-77.5 -54.5t-100 -20.5l-11 83q44 4 73 18t46.5 42t24.5 71t7 105v520z" />
    <glyph glyph-name="K" unicode="K" horiz-adv-x="559" 
d="M173 361l60 43l188 279h127l-231 -307l243 -376h-126l-195 314l-66 -43v-271h-103v683h103v-322z" />
    <glyph glyph-name="L" unicode="L" horiz-adv-x="479" 
d="M174 683v-595h286l-5 -88h-385v683h104z" />
    <glyph glyph-name="M" unicode="M" horiz-adv-x="789" 
d="M180 537h-2l-8 -261l-11 -276h-100l30 683h136l100 -305l68 -233h3l70 233l101 305h135l27 -683h-103l-10 276l-6 261h-2l-174 -537h-88z" />
    <glyph glyph-name="N" unicode="N" horiz-adv-x="648" 
d="M465 0q-49 87 -92 162t-80 140t-68.5 122t-56.5 109h-3l4 -223v-310h-99v683h118q37 -65 76.5 -132.5t77.5 -134t73 -132.5t65 -128h3l-5 225v302h99v-683h-112z" />
    <glyph glyph-name="O" unicode="O" horiz-adv-x="673" 
d="M337 -11q-71 0 -126.5 26.5t-93.5 73t-58.5 110.5t-20.5 139q0 77 20.5 142t58.5 112.5t93.5 74.5t126.5 27q72 0 127.5 -27t93.5 -74.5t57.5 -112t19.5 -139.5q0 -78 -20 -143t-58.5 -111.5t-94 -72t-125.5 -25.5zM337 76q48 0 83.5 21t59 57t34.5 84t11 102t-10.5 103
t-33.5 85.5t-58.5 58t-85.5 21.5t-86 -21.5t-59 -58t-33.5 -85.5t-10.5 -104t11 -103t34.5 -83.5t59 -56t84.5 -20.5z" />
    <glyph glyph-name="P" unicode="P" horiz-adv-x="546" 
d="M263 269h-20t-25.5 0.5t-25.5 1t-19 1.5v-272h-103v677q76 9 186 9q54 0 99.5 -11t79.5 -35.5t53 -63t19 -92.5q0 -53 -17.5 -93.5t-50 -67.5t-77.5 -40.5t-99 -13.5zM173 357q14 -2 30 -3t34 -1q76 0 120 30t44 98q0 66 -39 93.5t-111 27.5q-25 0 -44.5 -1t-33.5 -3
v-241z" />
    <glyph glyph-name="Q" unicode="Q" horiz-adv-x="680" 
d="M337 0q-71 0 -127 23.5t-94 67.5t-58 106.5t-20 140.5q0 79 21 145t60 112.5t94 72.5t124 26q68 0 123 -25.5t94 -71.5t60 -111.5t21 -144.5q0 -39 -8.5 -76t-23.5 -70t-36 -60t-46 -45v-2h147l-5 -88h-326zM337 608q-48 0 -83.5 -20t-59 -55.5t-35 -85t-11.5 -108.5
q0 -58 12 -105.5t36 -81t59 -52t82 -18.5q45 0 80 18.5t59 52.5t36.5 81.5t12.5 105.5q0 59 -11.5 108t-35 84.5t-59 55.5t-82.5 20z" />
    <glyph glyph-name="R" unicode="R" horiz-adv-x="550" 
d="M507 494q0 -69 -37 -116t-96 -64v-2l156 -312h-113l-138 286h-106v-286h-103v677q40 5 88.5 7t99.5 2q126 0 187.5 -49t61.5 -143zM173 368h93q62 0 98 31.5t36 87.5q0 66 -38 91t-109 25q-26 0 -46 -1t-34 -3v-231z" />
    <glyph glyph-name="S" unicode="S" horiz-adv-x="501" 
d="M225 77q58 0 92.5 26.5t34.5 74.5q0 40 -22 65t-55.5 43t-72.5 35t-72.5 40t-55.5 58t-22 90q0 43 17 77t47 58t70.5 36.5t87.5 12.5q50 0 91 -9t70 -23l-17 -86q-26 11 -63.5 21t-82.5 10q-55 0 -84.5 -27t-29.5 -64q0 -28 13 -47.5t34 -34.5t48 -27.5t55.5 -25.5
t55.5 -29t48 -38.5t34 -53t13 -72.5q0 -44 -16 -80t-46.5 -62t-74.5 -40.5t-101 -14.5q-49 0 -99 10.5t-81 27.5l17 88q34 -17 78 -28t89 -11z" />
    <glyph glyph-name="S" unicode="&#xe002;" horiz-adv-x="501" 
d="M225 77q58 0 92.5 26.5t34.5 74.5q0 40 -22 65t-55.5 43t-72.5 35t-72.5 40t-55.5 58t-22 90q0 43 17 77t47 58t70.5 36.5t87.5 12.5q50 0 91 -9t70 -23l-17 -86q-26 11 -63.5 21t-82.5 10q-55 0 -84.5 -27t-29.5 -64q0 -28 13 -47.5t34 -34.5t48 -27.5t55.5 -25.5
t55.5 -29t48 -38.5t34 -53t13 -72.5q0 -44 -16 -80t-46.5 -62t-74.5 -40.5t-101 -14.5q-49 0 -99 10.5t-81 27.5l17 88q34 -17 78 -28t89 -11z" />
    <glyph glyph-name="T" unicode="T" horiz-adv-x="498" 
d="M8 594l5 89h477l-6 -89h-183v-594h-105v594h-188z" />
    <glyph glyph-name="U" unicode="U" horiz-adv-x="636" 
d="M313 -10q-57 0 -102.5 16t-78 49.5t-49.5 85t-17 123.5v419h105v-423q0 -91 38 -138t107 -47q72 0 110 46t38 139v423h105v-403q0 -149 -65.5 -219.5t-190.5 -70.5z" />
    <glyph glyph-name="V" unicode="V" horiz-adv-x="567" 
d="M221 0l-215 683h114l110 -383l54 -197h2l53 197l110 383h112l-216 -683h-124z" />
    <glyph glyph-name="W" unicode="W" horiz-adv-x="833" 
d="M477 683l74 -329l47 -228h2l44 228l68 329h109l-162 -683h-119l-122 536h-2l-125 -536h-120l-159 683h112l68 -329l44 -230h2l49 230l75 329h115z" />
    <glyph glyph-name="X" unicode="X" horiz-adv-x="569" 
d="M424 0l-80 150l-63 124h-3l-61 -124l-75 -150h-120l195 348l-187 335h122l78 -152l54 -110h2l53 110l79 152h121l-192 -332l199 -351h-122z" />
    <glyph glyph-name="Y" unicode="Y" horiz-adv-x="542" 
d="M218 0v271l-208 412h120l79 -176l64 -153h2l63 153l81 176h120l-212 -412v-271h-109z" />
    <glyph glyph-name="Z" unicode="Z" horiz-adv-x="532" 
d="M495 615l-331 -526v-2h336l-5 -87h-466v64l334 529v2h-308l6 88h434v-68z" />
    <glyph glyph-name="bracketleft" unicode="[" horiz-adv-x="304" 
d="M73 -159v908h200l-4 -64h-111v-781h115l-4 -63h-196z" />
    <glyph glyph-name="backslash" unicode="\" horiz-adv-x="377" 
d="M97 690l262 -716h-80l-262 716h80z" />
    <glyph glyph-name="bracketright" unicode="]" horiz-adv-x="304" 
d="M31 -159l4 64h112v780h-115l4 64h195v-908h-200z" />
    <glyph glyph-name="asciicircum" unicode="^" horiz-adv-x="564" 
d="M135 292h-68l185 383h60l185 -383h-68l-147 301h-1z" />
    <glyph glyph-name="underscore" unicode="_" horiz-adv-x="509" 
d="M474 -63v-51h-474v51h474z" />
    <glyph glyph-name="grave" unicode="`" horiz-adv-x="370" 
d="M266 550h-69l-121 150h111z" />
    <glyph glyph-name="a" unicode="a" horiz-adv-x="497" 
d="M430 119q0 -32 1 -62.5t3 -56.5h-78l-23 59h-3q-26 -32 -63.5 -50.5t-85.5 -18.5q-33 0 -60 11t-46 29.5t-29 43.5t-10 52q0 43 14 70t38.5 42t57 20.5t70.5 5.5h110v57q0 22 -3 40t-13.5 30.5t-30 19.5t-53.5 7q-44 0 -78 -10t-63 -22l-17 78q32 15 79 26t95 11
q55 0 91.5 -10.5t58 -31.5t30 -52t8.5 -72v-216zM216 65q16 0 35 5.5t35 16t27.5 25t13.5 33.5v54h-91q-17 0 -34 -1t-30.5 -7t-22 -18.5t-8.5 -36.5q0 -36 21.5 -53.5t53.5 -17.5z" />
    <glyph glyph-name="b" unicode="b" horiz-adv-x="561" 
d="M323 501q47 0 84 -18.5t62.5 -51.5t39 -78.5t13.5 -99.5q0 -62 -16 -111t-44.5 -82.5t-67.5 -51.5t-84 -18q-47 0 -82.5 17t-63.5 55h-2l-22 -62h-76q1 14 1.5 32.5t1 37.5t1 37t0.5 32v588l104 4v-305h2q23 32 59 53.5t90 21.5zM291 419q-38 0 -70 -22t-49 -59v-160
q0 -20 7.5 -39t22 -34t36 -24t49.5 -9q34 0 58.5 14t40 38t23 56t7.5 68q0 84 -34.5 127.5t-90.5 43.5z" />
    <glyph glyph-name="b" unicode="&#xe003;" horiz-adv-x="561" 
d="M323 501q47 0 84 -18.5t62.5 -51.5t39 -78.5t13.5 -99.5q0 -62 -16 -111t-44.5 -82.5t-67.5 -51.5t-84 -18q-47 0 -82.5 17t-63.5 55h-2l-22 -62h-76q1 14 1.5 32.5t1 37.5t1 37t0.5 32v588l104 4v-305h2q23 32 59 53.5t90 21.5zM291 419q-38 0 -70 -22t-49 -59v-160
q0 -20 7.5 -39t22 -34t36 -24t49.5 -9q34 0 58.5 14t40 38t23 56t7.5 68q0 84 -34.5 127.5t-90.5 43.5z" />
    <glyph glyph-name="c" unicode="c" horiz-adv-x="460" 
d="M145 245q0 -43 12 -75t32.5 -53.5t49 -32.5t61.5 -11q35 0 65 6.5t53 15.5l11 -79q-25 -11 -64.5 -18.5t-84.5 -7.5q-55 0 -100 17t-76.5 49.5t-48.5 79t-17 106.5q0 57 17.5 104.5t50.5 81.5t81 53t109 19q36 0 72 -7t62 -18l-14 -80q-20 9 -50 16.5t-66 7.5
q-73 0 -114 -47t-41 -127z" />
    <glyph glyph-name="d" unicode="d" horiz-adv-x="558" 
d="M240 -10q-47 0 -84 18.5t-63.5 51.5t-40.5 79t-14 100q0 58 15.5 106.5t43.5 83t67 53.5t86 19q49 0 81 -17.5t52 -43.5h2v287l105 4v-600v-31t0.5 -35t1 -35t1.5 -30h-76l-21 69h-2q-24 -35 -62 -57t-92 -22zM270 73q25 0 46.5 9t36.5 23.5t23.5 32.5t8.5 36v174
q-17 35 -48.5 53t-64.5 18t-57.5 -14.5t-40 -39t-23 -56.5t-7.5 -67q0 -85 35.5 -127t90.5 -42z" />
    <glyph glyph-name="e" unicode="e" horiz-adv-x="506" 
d="M275 -10q-114 0 -175.5 67t-61.5 181q0 57 15 105t44.5 83t73 55t99.5 20q58 0 99 -23t65 -61.5t30.5 -88.5t-2.5 -104h-322q2 -80 44 -117t109 -37q44 0 78 7.5t62 18.5l11 -76q-31 -13 -74 -21.5t-95 -8.5zM368 298q1 3 1 7.5v7.5q0 19 -5 39t-17 36t-32.5 26.5
t-50.5 10.5q-28 0 -49.5 -10.5t-36.5 -28.5t-23.5 -41t-11.5 -47h225z" />
    <glyph glyph-name="f" unicode="f" horiz-adv-x="310" 
d="M83 534q0 94 43.5 148t125.5 54q20 0 40 -2t35 -5l-11 -81q-10 2 -19 3t-21 1q-27 0 -44.5 -8.5t-27.5 -24t-13.5 -36.5t-3.5 -46v-47h111l-5 -77h-106v-413h-104v413h-65l5 72l60 5v44z" />
    <glyph glyph-name="g" unicode="g" horiz-adv-x="519" 
d="M446 316q0 -42 -16 -76t-43.5 -57.5t-63 -36t-74.5 -12.5q-53 0 -91 20q-11 -14 -18.5 -28.5t-4.5 -28.5q2 -13 12.5 -21.5t37.5 -10.5q66 -4 123 -8t99 -16t66.5 -35.5t26.5 -66.5q1 -29 -11.5 -59.5t-45 -56t-87 -41.5t-138.5 -15q-17 0 -52 4.5t-70 19.5t-61 43.5
t-25 78.5q2 29 21.5 56t51.5 45v2q-14 11 -20.5 27t-6.5 33q0 26 16.5 52.5t42.5 49.5v2q-26 20 -45 55t-19 81q0 43 15 77.5t41.5 58.5t62.5 36.5t78 12.5q27 0 55 -6t48 -17q1 12 5 24.5t12 22.5t20.5 16.5t32.5 6.5h71v-70h-66q-11 0 -23 -6.5t-13 -21.5q26 -23 41 -56
t15 -78zM150 316q0 -57 26 -84.5t72 -27.5q45 0 71.5 27.5t26.5 84.5t-26 84.5t-72 27.5t-72 -27.5t-26 -84.5zM183 -11q-14 0 -25 2t-20 4q-39 -30 -39 -63q0 -26 14 -41.5t34 -24.5t41.5 -12t37.5 -3q57 -2 93 7t56.5 22.5t27 29.5t5.5 30q-2 14 -19.5 23t-48 14.5t-71 8
t-86.5 3.5z" />
    <glyph glyph-name="h" unicode="h" horiz-adv-x="559" 
d="M329 501q36 0 65.5 -12t51.5 -37.5t34 -64t12 -92.5v-295h-104v287q0 28 -4.5 51.5t-16 40.5t-30 27t-46.5 10q-35 0 -67 -20.5t-52 -48.5v-347h-104v727l104 4v-306h2q29 35 68.5 55.5t86.5 20.5z" />
    <glyph glyph-name="i" unicode="i" horiz-adv-x="240" 
d="M68 490l104 4v-494h-104v490zM60 646q0 26 17 43.5t43 17.5t43 -17.5t17 -43.5q0 -25 -17 -42t-43 -17t-43 17t-17 42z" />
    <glyph glyph-name="j" unicode="j" horiz-adv-x="248" 
d="M75 490l104 4v-446q0 -83 -16.5 -135.5t-45 -83.5t-68 -43.5t-84.5 -15.5l-12 81q40 6 64 22.5t37 43t17 63t4 82.5v428zM67 648q0 24 17.5 41.5t43.5 17.5q24 0 41.5 -17.5t17.5 -41.5q0 -26 -17.5 -43.5t-41.5 -17.5q-26 0 -43.5 17.5t-17.5 43.5z" />
    <glyph glyph-name="k" unicode="k" horiz-adv-x="496" 
d="M220 312l133 178h126l-181 -210l200 -280h-129l-147 225l-50 -31v-194h-104v727l104 4v-451z" />
    <glyph glyph-name="l" unicode="l" horiz-adv-x="241" 
d="M68 727l104 4v-731h-104v727z" />
    <glyph glyph-name="m" unicode="m" horiz-adv-x="845" 
d="M319 501q51 0 85 -23.5t49 -61.5h2q34 41 74 63t91 22q34 0 63 -11.5t50 -36.5t33 -63t12 -92v-298h-103v285q0 62 -19.5 96.5t-70.5 34.5q-35 0 -63.5 -20t-47.5 -48v-348h-103v287q0 57 -19 93t-67 36q-38 0 -67 -23t-47 -55v-338h-103v352q0 38 -1 70.5t-2 67.5l91 4
l7 -72h3q27 32 62.5 55.5t90.5 23.5z" />
    <glyph glyph-name="n" unicode="n" horiz-adv-x="559" 
d="M328 501q36 0 66 -12t51.5 -36.5t34 -63t12.5 -91.5v-298h-104v288q0 28 -4.5 51t-15 40t-28 26.5t-43.5 9.5q-41 0 -73 -22t-52 -55v-338h-104v352q0 38 -1 72t-2 66l91 4l7 -72h3q26 31 66.5 55t95.5 24z" />
    <glyph glyph-name="o" unicode="o" horiz-adv-x="550" 
d="M407 245q0 81 -33 129t-98 48t-97.5 -48t-32.5 -129t32.5 -128.5t97.5 -47.5t98 47.5t33 128.5zM513 243q0 -64 -19 -111.5t-51.5 -79t-75.5 -47t-91 -15.5t-91 15.5t-75.5 47t-51.5 79t-19 111.5q0 66 19 115t51.5 80.5t75.5 47t91 15.5t91 -15.5t75.5 -47.5t51.5 -80.5
t19 -114.5z" />
    <glyph glyph-name="p" unicode="p" horiz-adv-x="561" 
d="M322 501q47 0 84.5 -19.5t63 -53t39 -79.5t13.5 -98q0 -62 -16 -110.5t-44.5 -82t-67.5 -51t-85 -17.5q-38 0 -74 14t-61 46h-2v-269h-104v541q0 44 -1 87t-2 81l92 4l6 -72h3q59 79 156 79zM291 418q-38 0 -70.5 -23t-48.5 -58v-169q0 -15 7 -32t21.5 -31.5t36 -24
t50.5 -9.5q33 0 57.5 13.5t40 37t23.5 56t8 70.5q0 84 -35 127t-90 43z" />
    <glyph glyph-name="q" unicode="q" horiz-adv-x="558" 
d="M238 -10q-45 0 -82 18.5t-63.5 51.5t-40.5 78.5t-14 99.5q0 66 17.5 115t47 82t67.5 49.5t80 16.5q51 0 86 -21t56 -50h3l10 60h88q-2 -35 -2.5 -74t-0.5 -81v-554h-105v282h-2q-23 -35 -60 -54t-85 -19zM270 72q27 0 48 9.5t36 24t23 32t8 34.5v176q-15 31 -45 50.5
t-67 19.5q-54 0 -91.5 -43t-37.5 -133q0 -83 34.5 -126.5t91.5 -43.5z" />
    <glyph glyph-name="r" unicode="r" horiz-adv-x="348" 
d="M327 402q-50 10 -90 -6.5t-65 -66.5v-329h-104v335q0 44 -1 82t-2 73l91 4l7 -86h3q24 44 65 70t96 21v-97z" />
    <glyph glyph-name="s" unicode="s" horiz-adv-x="418" 
d="M189 67q43 0 65.5 17t22.5 46q0 24 -17 40t-42.5 28.5t-55 24.5t-55 29t-42.5 41.5t-17 61.5q0 34 13 61t37 46t56.5 29t71.5 10q38 0 73.5 -8t59.5 -20l-15 -77q-20 10 -53 19t-65 9q-35 0 -56 -15.5t-21 -42.5q0 -22 17 -36.5t42.5 -26t55 -23.5t55 -29.5t42.5 -43.5
t17 -66q0 -74 -52 -112.5t-140 -38.5q-39 0 -79 8t-68 22l15 79q24 -12 63 -22t72 -10z" />
    <glyph glyph-name="s" unicode="&#xe004;" horiz-adv-x="418" 
d="M189 67q43 0 65.5 17t22.5 46q0 24 -17 40t-42.5 28.5t-55 24.5t-55 29t-42.5 41.5t-17 61.5q0 34 13 61t37 46t56.5 29t71.5 10q38 0 73.5 -8t59.5 -20l-15 -77q-20 10 -53 19t-65 9q-35 0 -56 -15.5t-21 -42.5q0 -22 17 -36.5t42.5 -26t55 -23.5t55 -29.5t42.5 -43.5
t17 -66q0 -74 -52 -112.5t-140 -38.5q-39 0 -79 8t-68 22l15 79q24 -12 63 -22t72 -10z" />
    <glyph glyph-name="t" unicode="t" horiz-adv-x="344" 
d="M88 413h-68l5 73l67 4l8 111l92 21v-132h121l-5 -77h-116v-245q0 -56 20 -74t49 -18q17 0 28 2.5t22 4.5l3 -79q-17 -5 -43 -9.5t-54 -4.5q-69 0 -99 40.5t-30 126.5v256z" />
    <glyph glyph-name="u" unicode="u" horiz-adv-x="557" 
d="M229 -10q-75 0 -119 48t-44 157v295h104v-282q0 -61 20 -97.5t75 -36.5q23 0 44.5 8.5t38 22.5t26.5 31.5t10 34.5v319h104v-349q0 -39 1 -74t3 -67h-77l-21 69h-2q-26 -35 -65 -57t-98 -22z" />
    <glyph glyph-name="v" unicode="v" horiz-adv-x="485" 
d="M189 0l-178 490h112l118 -386h2l119 386h111l-177 -490h-107z" />
    <glyph glyph-name="w" unicode="w" horiz-adv-x="740" 
d="M485 250l39 -150h2l93 390h107l-146 -490h-108l-102 362h-2l-102 -362h-108l-144 490h109l93 -390h2l39 150l67 240h94z" />
    <glyph glyph-name="x" unicode="x" horiz-adv-x="474" 
d="M234 187h-2l-107 -187h-114l166 252l-158 238h117q8 -16 24 -44.5t33 -56.5t30 -50t15 -25h2l99 176h115l-159 -235l165 -255h-118z" />
    <glyph glyph-name="y" unicode="y" horiz-adv-x="485" 
d="M218 8h-24l-184 482h116q3 -12 12.5 -42t22 -69t27 -82.5t27 -82.5t21.5 -69t12 -42h3l112 387h113l-253 -720h-103z" />
    <glyph glyph-name="y" unicode="&#xe006;" horiz-adv-x="485" 
d="M218 8h-24l-184 482h116q3 -12 12.5 -42t22 -69t27 -82.5t27 -82.5t21.5 -69t12 -42h3l112 387h113l-253 -720h-103z" />
    <glyph glyph-name="z" unicode="z" horiz-adv-x="439" 
d="M412 422l-259 -339l265 -1l-6 -82h-387v65l265 343l-247 1l5 81h364v-68z" />
    <glyph glyph-name="braceleft" unicode="{" horiz-adv-x="344" 
d="M305 689q-33 0 -54 -6.5t-32.5 -19.5t-16 -31.5t-4.5 -42.5q0 -17 2.5 -38.5t4.5 -45t4 -46.5t2 -42q0 -32 -7 -53.5t-19.5 -36.5t-30 -23.5t-38.5 -13.5v-2q20 -6 37.5 -15t30 -24t20 -37t7.5 -53q0 -17 -1.5 -38t-3.5 -43t-4 -43t-2 -39q0 -27 4.5 -46t17 -31.5
t33.5 -18.5t54 -6l-4 -57q-48 0 -83.5 6.5t-59 23.5t-35 46t-11.5 76q1 40 7.5 86.5t6.5 86.5q0 22 -3.5 39.5t-13.5 29.5t-28 19t-47 9v57q29 3 47 9.5t28 18.5t13.5 29t3.5 40q0 45 -7.5 95t-7.5 94q0 41 12.5 68.5t36.5 43.5t60.5 23t84.5 8z" />
    <glyph glyph-name="bar" unicode="|" horiz-adv-x="250" 
d="M165 -197h-80v971h80v-971z" />
    <glyph glyph-name="braceright" unicode="}" horiz-adv-x="341" 
d="M39 -106q56 0 81 21.5t25 77.5q0 18 -2 40.5t-4.5 45.5t-4.5 45t-2 40q0 31 7 53t20 36.5t30.5 23.5t37.5 14v2q-20 5 -37.5 14t-30.5 23.5t-20 36.5t-7 53q0 19 1.5 42t4 46t4 44.5t1.5 38.5q0 55 -24 76.5t-84 21.5l4 56q47 -1 82 -7.5t58.5 -22.5t35.5 -43t12 -68
q0 -43 -7.5 -93t-7.5 -95q0 -23 4 -39.5t14.5 -28.5t28.5 -19t47 -9v-57q-29 -3 -47.5 -9.5t-28.5 -18.5t-13.5 -29t-3.5 -40q0 -22 2.5 -46t5.5 -48t5.5 -47t2.5 -43q0 -44 -13 -71.5t-37.5 -44t-61 -23t-82.5 -6.5z" />
    <glyph glyph-name="asciitilde" unicode="~" horiz-adv-x="580" 
d="M62 249q4 65 38 104.5t82 39.5q28 0 56.5 -11t57 -24t55.5 -24t51 -11q25 0 38.5 16.5t19.5 53.5l57 -8q-1 -35 -10.5 -61.5t-25.5 -44.5t-36 -27.5t-42 -9.5q-30 0 -60 11t-59 23.5t-55.5 23.5t-48.5 11q-25 0 -39 -15.5t-21 -53.5z" />
    <glyph glyph-name="exclamdown" unicode="&#xa1;" horiz-adv-x="262" 
d="M90 285h83l14 -487h-112zM201 442q0 -29 -20.5 -49.5t-49.5 -20.5t-50 20.5t-21 49.5t21 50t50 21t49.5 -21t20.5 -50z" />
    <glyph glyph-name="cent" unicode="&#xa2;" horiz-adv-x="514" 
d="M333 553q32 -1 61.5 -8t52.5 -16l-13 -81q-20 10 -49.5 17.5t-64.5 7.5q-70 0 -112 -44.5t-42 -126.5q0 -42 11.5 -74t31.5 -53t47 -31.5t59 -10.5q38 0 69 7.5t54 16.5l2.5 -17.5t3 -22t3 -21.5t2.5 -17q-20 -10 -50.5 -17.5t-65.5 -9.5v-99h-76v101q-91 11 -144 73
t-53 172q0 101 51.5 168.5t145.5 82.5v104h76v-101z" />
    <glyph glyph-name="sterling" unicode="&#xa3;" horiz-adv-x="540" 
d="M378 367l-5 -75h-131q1 -15 1.5 -29.5t-0.5 -28.5q-6 -92 -69 -149v-2h305l-6 -83h-413l-7 52q43 31 70 76t27 99q0 17 -1 32t-3 33h-91l6 75h73q-5 28 -9 58t-4 59q0 49 18 85.5t47 60t67 35t78 11.5q43 0 75 -7t54 -18l-13 -83q-23 11 -52.5 17t-63.5 6
q-51 0 -80.5 -28.5t-29.5 -81.5q0 -34 4 -61t9 -53h144z" />
    <glyph glyph-name="currency" unicode="&#xa4;" horiz-adv-x="522" 
d="M261 492q32 0 60.5 -10t49.5 -27l75 82l36 -37l-80 -78q17 -21 28 -51t11 -66q0 -38 -11.5 -68.5t-28.5 -50.5l78 -80l-37 -36l-71 82q-23 -20 -52.5 -29.5t-58.5 -9.5q-30 0 -59.5 10t-50.5 28l-71 -81l-35 36l75 78q-17 20 -29 50.5t-12 66.5q0 39 12 68.5t29 51.5
l-78 79l36 37l74 -83q21 18 49.5 28t60.5 10zM260 440q-27 0 -49.5 -10.5t-39 -29.5t-25.5 -44t-9 -54q0 -32 11 -57.5t28 -43t39 -26.5t45 -9t45 8.5t39.5 26.5t28 44t10.5 60q0 27 -9 51t-25 43t-39 30t-50 11z" />
    <glyph glyph-name="yen" unicode="&#xa5;" horiz-adv-x="537" 
d="M217 0v157h-153l2 54h151v37h-153l2 54h141l-187 365h116l131 -306h2l132 306h115l-186 -365h143l-2 -54h-151v-37h153l-2 -54h-151v-157h-103z" />
    <glyph glyph-name="brokenbar" unicode="&#xa6;" horiz-adv-x="250" 
d="M165 371h-80v354h80v-354zM165 -149h-80v353h80v-353z" />
    <glyph glyph-name="section" unicode="&#xa7;" horiz-adv-x="529" 
d="M445 106q0 -42 -17.5 -71t-45.5 -47t-63.5 -26t-71.5 -8q-42 0 -86.5 9t-76.5 26q1 3 3 13.5t5 22.5t5.5 22.5t3.5 13.5q24 -13 64.5 -24.5t80.5 -11.5q45 0 73 17.5t28 52.5q0 27 -21 44t-52 31t-67.5 27.5t-67.5 32.5t-52 46t-21 69q0 32 16 61.5t50 51.5v2
q-17 14 -28.5 36.5t-11.5 51.5q0 35 15 62t41 45t60.5 27.5t73.5 9.5q41 0 79 -8t67 -21q-4 -19 -7 -36.5t-7 -35.5q-24 12 -59.5 21t-73.5 9q-41 0 -67.5 -16t-26.5 -47q0 -25 20.5 -41t51.5 -28.5t66.5 -25t66.5 -31.5t51.5 -47t20.5 -72q0 -38 -16 -66.5t-42 -49.5v-2
q15 -14 27 -37t12 -52zM155 358q0 -25 20.5 -42.5t49.5 -31t61.5 -25t56.5 -23.5q14 11 23 27t9 35q0 27 -19.5 45.5t-47 32t-58.5 23.5t-54 22q-41 -21 -41 -63z" />
    <glyph glyph-name="dieresis" unicode="&#xa8;" horiz-adv-x="449" 
d="M73 626q0 23 16 39.5t39 16.5t39.5 -16.5t16.5 -39.5t-16.5 -39.5t-39.5 -16.5t-39 16.5t-16 39.5zM265 626q0 23 16.5 39.5t39.5 16.5t39.5 -16.5t16.5 -39.5t-16.5 -39.5t-39.5 -16.5t-39.5 16.5t-16.5 39.5z" />
    <glyph glyph-name="copyright" unicode="&#xa9;" horiz-adv-x="762" 
d="M57 343q0 67 25.5 126.5t69.5 104t103 70t127 25.5q67 0 126 -25.5t102.5 -70t68.5 -104t25 -126.5q0 -68 -25 -127.5t-68.5 -104t-102.5 -70t-126 -25.5q-68 0 -127 25.5t-103 70t-69.5 104t-25.5 127.5zM105 341q0 -59 21.5 -111t59 -90t88 -60t108.5 -22q57 0 107 22
t87 60t58.5 90.5t21.5 112.5q0 59 -21.5 111t-58.5 90.5t-87 60.5t-107 22h-1q-58 0 -108 -22t-87.5 -61t-59 -91t-21.5 -112zM279 339q0 -55 30.5 -92t92.5 -37q29 0 53 6t44 17l9 -46q-26 -14 -54.5 -20t-58.5 -6q-45 0 -78 14t-55 38t-32.5 56t-10.5 68q0 39 13 72
t36.5 57t57 37.5t74.5 13.5q35 0 61.5 -8t42.5 -16l-8 -47q-15 7 -39 14t-56 7q-63 0 -92.5 -35.5t-29.5 -92.5z" />
    <glyph glyph-name="ordfeminine" unicode="&#xaa;" horiz-adv-x="329" 
d="M285 401v-40t2 -37h-49l-15 39h-2q-17 -20 -41 -32.5t-55 -12.5q-44 0 -69 26t-25 62q0 28 9 45t24.5 27t37 13.5t45.5 3.5h71v37q0 14 -2 25.5t-8.5 19.5t-19.5 12.5t-35 4.5q-28 0 -50.5 -6t-40.5 -14l-11 50q22 9 51.5 16t61.5 7q36 0 59 -6.5t37 -20t19.5 -33.5
t5.5 -46v-140zM147 366q11 0 23 3.5t22.5 10.5t18 16.5t8.5 21.5v35h-59q-11 0 -22 -0.5t-20 -4.5t-14.5 -12.5t-5.5 -23.5q0 -23 14 -34.5t35 -11.5z" />
    <glyph glyph-name="guillemotleft" unicode="&#xab;" horiz-adv-x="535" 
d="M139 257l113 -139l-53 -41l-143 180l143 180l53 -39zM336 257l113 -139l-54 -41l-143 180l143 180l54 -39z" />
    <glyph glyph-name="logicalnot" unicode="&#xac;" horiz-adv-x="596" 
d="M537 104h-64v200h-414v61h478v-261z" />
    <glyph glyph-name="registered" unicode="&#xae;" horiz-adv-x="602" 
d="M69 458q0 48 18 89.5t49.5 72.5t74 49t91.5 18q48 0 90.5 -18t74 -49t49.5 -72.5t18 -89.5t-18 -90.5t-49.5 -73.5t-74 -49t-90.5 -18q-49 0 -91.5 18t-74 49t-49.5 73.5t-18 90.5zM111 458q0 -40 15 -75t40.5 -61.5t60.5 -41.5t76 -15q39 0 73.5 15t60 41t40.5 61t15 75
t-15 76t-40.5 62t-60 41.5t-74.5 15.5t-75 -15.5t-60.5 -41.5t-40.5 -61.5t-15 -75.5zM266 427v-86h-40v226q19 2 38.5 3.5t38.5 1.5q45 0 66 -19.5t21 -50.5q0 -24 -13.5 -42t-40.5 -26v-1l66 -92h-44l-62 86h-30zM266 460h33q23 0 36.5 9.5t13.5 30.5q0 18 -11.5 28.5
t-36.5 10.5q-11 0 -19 -0.5t-16 -1.5v-77z" />
    <glyph glyph-name="macron" unicode="&#xaf;" horiz-adv-x="424" 
d="M344 648v-59h-263v59h263z" />
    <glyph glyph-name="degree" unicode="&#xb0;" horiz-adv-x="345" 
d="M52 593q0 25 9 46.5t25.5 38t39 26t48.5 9.5t48 -9.5t38.5 -26t26 -38t9.5 -46.5q0 -26 -9.5 -47.5t-26.5 -38t-39.5 -25.5t-47.5 -9q-26 0 -48 9t-38.5 25.5t-25.5 38t-9 47.5zM105 593q0 -30 20 -50.5t49 -20.5t49 20.5t20 50.5q0 29 -19.5 50t-50.5 21
q-29 0 -48.5 -21t-19.5 -50z" />
    <glyph glyph-name="plusminus" unicode="&#xb1;" horiz-adv-x="583" 
d="M55 18v73h199v158h-199v73h199v205h75v-205h199v-73h-199v-158h199v-73h-473z" />
    <glyph glyph-name="twosuperior" unicode="&#xb2;" horiz-adv-x="322" 
d="M204 708q0 31 -18 49.5t-53 18.5q-24 0 -45 -7.5t-40 -17.5l-15 52q22 14 53 23.5t66 9.5q65 0 97 -34t32 -82q0 -30 -11.5 -57t-32.5 -53t-49.5 -53t-62.5 -57v-2h160l-5 -57h-255v42q45 42 79 74t56 58t33 48t11 45z" />
    <glyph glyph-name="threesuperior" unicode="&#xb3;" horiz-adv-x="319" 
d="M128 489q42 0 61 18.5t19 44.5q0 36 -29.5 52t-68.5 16h-23v50h24q16 0 31 3.5t27 10.5t19.5 18.5t7.5 27.5q0 21 -15 35.5t-46 14.5q-26 0 -47.5 -7.5t-38.5 -15.5l-12 51q20 11 49 18.5t63 7.5q60 0 92 -26.5t32 -67.5q0 -31 -20 -55t-56 -37v-1q39 -8 64 -33.5
t25 -63.5q0 -51 -40.5 -83t-112.5 -32q-34 0 -62.5 6.5t-47.5 17.5l13 53q17 -9 41 -16t51 -7z" />
    <glyph glyph-name="acute" unicode="&#xb4;" horiz-adv-x="370" 
d="M297 700l-122 -150h-69l80 150h111z" />
    <glyph glyph-name="mu" unicode="&#xb5;" horiz-adv-x="558" 
d="M230 -10q-17 0 -34 5t-29 18v-50q0 -30 -5 -59t-14.5 -54.5t-24 -45t-32.5 -29.5l-66 44q13 13 21.5 26.5t13 30t6.5 37.5t2 48v529h104v-282q0 -30 4.5 -55t15 -42.5t29 -27t45.5 -9.5q23 0 45 8.5t38.5 22.5t26.5 31.5t10 34.5v319h104v-349q0 -78 3 -141h-77l-21 69
h-2q-26 -35 -64.5 -57t-98.5 -22z" />
    <glyph glyph-name="paragraph" unicode="&#xb6;" horiz-adv-x="541" 
d="M234 -47v311q-30 0 -63 12t-61 35.5t-46.5 59.5t-19.5 84q-1 38 10.5 76.5t41 70t80.5 52t130 22.5v-717zM380 -47v720h73v-714z" />
    <glyph glyph-name="periodcentered" unicode="&#xb7;" horiz-adv-x="238" 
d="M56 257q0 29 20 49.5t49 20.5t49 -20.5t20 -49.5t-20 -49t-49 -20t-49 20t-20 49z" />
    <glyph glyph-name="cedilla" unicode="&#xb8;" horiz-adv-x="361" 
d="M209 0l-22 -49q11 -4 24 -9.5t24.5 -14t19 -20.5t7.5 -30q0 -43 -34 -65.5t-85 -22.5q-28 0 -56 10l11 45q22 -5 40 -5t36 7t18 28q0 20 -20 30.5t-46 18.5q5 18 12 38t16 39h55z" />
    <glyph glyph-name="onesuperior" unicode="&#xb9;" horiz-adv-x="283" 
d="M192 441h-73v326h-3l-70 -34l-14 53l98 47h62v-392z" />
    <glyph glyph-name="ordmasculine" unicode="&#xba;" horiz-adv-x="352" 
d="M177 369q42 0 63 31t21 82q0 53 -21 84t-63 31t-63.5 -31t-21.5 -84q0 -51 21.5 -82t63.5 -31zM177 647q31 0 58.5 -10t48.5 -30t33.5 -51.5t12.5 -73.5q0 -41 -12.5 -72t-33.5 -51.5t-48.5 -30.5t-58.5 -10t-59 10t-49 30.5t-33 51t-12 72.5q0 43 12 74t33 51t49 30
t59 10z" />
    <glyph glyph-name="guillemotright" unicode="&#xbb;" horiz-adv-x="535" 
d="M282 398l54 39l143 -180l-143 -180l-54 41l114 139zM85 398l54 39l143 -180l-143 -180l-54 41l114 139z" />
    <glyph glyph-name="onequarter" unicode="&#xbc;" horiz-adv-x="823" 
d="M205 281h-74v326l-72 -34l-14 53l97 47h63v-392zM610 674l-342 -681h-59l343 681h58zM661 250l3 77h-2l-114 -175h113v98zM731 395v-243h50l-4 -53h-46v-99h-70v99h-185v46l175 250h80z" />
    <glyph glyph-name="onehalf" unicode="&#xbd;" horiz-adv-x="823" 
d="M589 674l-342 -681h-59l344 681h57zM693 267q0 31 -17.5 49.5t-52.5 18.5q-25 0 -46 -7.5t-39 -17.5l-16 52q23 14 53.5 23.5t65.5 9.5q66 0 98 -34t32 -82q0 -29 -12 -56t-33 -54t-50 -54.5t-63 -57.5h162l-6 -57h-254v42q45 41 78.5 73t55.5 58.5t33 49t11 44.5z
M201 281h-74v326l-71 -34l-15 53l98 47h62v-392z" />
    <glyph glyph-name="threequarters" unicode="&#xbe;" horiz-adv-x="823" 
d="M629 674l-342 -681h-59l344 681h57zM141 329q42 0 61.5 19.5t19.5 44.5q0 18 -8.5 30.5t-22.5 21t-31.5 12t-36.5 3.5h-26v51h28q15 0 30 3.5t27 10.5t19.5 18t7.5 27q0 22 -15 36t-46 14q-26 0 -47.5 -7.5t-38.5 -15.5l-12 51q20 11 48.5 19t62.5 8q61 0 92.5 -27
t31.5 -67q0 -32 -19.5 -55.5t-55.5 -36.5v-2q39 -8 63.5 -33.5t24.5 -63.5q0 -51 -40 -83t-112 -32q-34 0 -62.5 6.5t-47.5 17.5l12 53q17 -8 41.5 -15.5t51.5 -7.5zM668 250l3 77h-3l-113 -175h113v98zM738 395v-243h50l-4 -53h-46v-99h-70v99h-185v46l175 250h80z" />
    <glyph glyph-name="questiondown" unicode="&#xbf;" horiz-adv-x="417" 
d="M275 287q2 -9 3 -19.5t1 -21.5q0 -33 -10 -58.5t-25 -46.5t-32 -38.5t-32 -35.5t-25 -38t-10 -44q0 -44 35 -69.5t98 -25.5q14 0 28 1.5t25 4.5l9 -81q-18 -3 -40 -6t-46 -3q-55 0 -95.5 13.5t-66.5 36.5t-39 53t-13 64t10.5 60t27 48t35 41.5t35 40.5t27 45t10.5 55
q0 5 -0.5 12t-0.5 12h91zM299 442q0 -29 -20.5 -49.5t-49.5 -20.5t-50 20.5t-21 49.5t21 50t50 21t49.5 -21t20.5 -50z" />
    <glyph glyph-name="Agrave" unicode="&#xc0;" 
d="M581 0h-113l-61 196h-220q-1 -6 -5.5 -21t-11 -35t-13.5 -42t-13 -42t-11 -35t-6 -21h-110l217 684h130zM296 594l-28 -100l-61 -215h180l-61 215l-28 100h-2zM352 743h-68l-122 150h111z" />
    <glyph glyph-name="Aacute" unicode="&#xc1;" 
d="M581 0h-113l-61 196h-220q-1 -6 -5.5 -21t-11 -35t-13.5 -42t-13 -42t-11 -35t-6 -21h-110l217 684h130zM296 594l-28 -100l-61 -215h180l-61 215l-28 100h-2zM437 893l-122 -150h-69l80 150h111z" />
    <glyph glyph-name="Acircumflex" unicode="&#xc2;" 
d="M581 0h-113l-61 196h-220q-1 -6 -5.5 -21t-11 -35t-13.5 -42t-13 -42t-11 -35t-6 -21h-110l217 684h130zM296 594l-28 -100l-61 -215h180l-61 215l-28 100h-2zM228 743h-66l106 154h61l108 -154h-67l-70 89h-2z" />
    <glyph glyph-name="Atilde" unicode="&#xc3;" 
d="M581 0h-113l-61 196h-220q-1 -6 -5.5 -21t-11 -35t-13.5 -42t-13 -42t-11 -35t-6 -21h-110l217 684h130zM296 594l-28 -100l-61 -215h180l-61 215l-28 100h-2zM244 805q-11 0 -19 -10t-16 -33l-47 6q6 51 25.5 79t51.5 28q16 0 31.5 -6.5t30.5 -14.5t28.5 -14.5
t25.5 -6.5t20 8t16 33l45 -7q-12 -103 -76 -103q-16 0 -33 6.5t-32.5 14t-28.5 14t-22 6.5z" />
    <glyph glyph-name="Adieresis" unicode="&#xc4;" 
d="M581 0h-113l-61 196h-220q-1 -6 -5.5 -21t-11 -35t-13.5 -42t-13 -42t-11 -35t-6 -21h-110l217 684h130zM296 594l-28 -100l-61 -215h180l-61 215l-28 100h-2zM147 819q0 23 16.5 39.5t39.5 16.5t39.5 -16.5t16.5 -39.5t-16.5 -39.5t-39.5 -16.5t-39.5 16.5t-16.5 39.5z
M340 819q0 23 16.5 39.5t39.5 16.5t39.5 -16.5t16.5 -39.5t-16.5 -39.5t-39.5 -16.5t-39.5 16.5t-16.5 39.5z" />
    <glyph glyph-name="Aring" unicode="&#xc5;" 
d="M581 0h-113l-61 196h-220q-1 -6 -5.5 -21t-11 -35t-13.5 -42t-13 -42t-11 -35t-6 -21h-110l211 670h14q-17 11 -27 28.5t-10 39.5q0 19 7 36t20 29.5t30.5 20t37.5 7.5q40 0 67 -27t27 -66q0 -23 -10.5 -40t-26.5 -28h12zM296 594l-28 -100l-61 -215h180l-61 215l-28 100
h-2zM300 684q23 0 37.5 15.5t14.5 38.5t-15 38.5t-38 15.5q-22 0 -36 -15.5t-14 -38.5q0 -22 14.5 -38t36.5 -16z" />
    <glyph glyph-name="AE" unicode="&#xc6;" horiz-adv-x="814" 
d="M750 596h-277l14 -202h250l-6 -87h-235l18 -220h265l-6 -87h-353l-18 230h-188l-105 -230h-110l318 683h439zM369 599l-119 -283h144l-14 190l-8 93h-3z" />
    <glyph glyph-name="Ccedilla" unicode="&#xc7;" horiz-adv-x="567" 
d="M147 340q0 -59 15 -107.5t43.5 -83t70.5 -53t97 -18.5q40 0 79.5 7t69.5 20l12 -85q-26 -12 -67 -20t-92 -10l-17 -39q11 -4 24 -9.5t24.5 -14t19 -20.5t7.5 -30q0 -43 -34 -65.5t-85 -22.5q-14 0 -29 2.5t-27 7.5l11 45q22 -5 40 -5t36 7t18 28q0 20 -20 30.5t-46 18.5
q5 17 10.5 34.5t13.5 34.5q-68 6 -120.5 33.5t-88.5 72.5t-55 105.5t-19 132.5q0 78 23 143.5t65.5 113t104 74t139.5 26.5q57 0 100 -9.5t66 -20.5l-15 -85q-31 13 -67.5 20.5t-79.5 7.5q-53 0 -95 -18.5t-71 -53t-45 -83.5t-16 -111z" />
    <glyph glyph-name="Egrave" unicode="&#xc8;" horiz-adv-x="503" 
d="M445 596h-271v-200h253l-6 -87h-247v-222h291l-6 -87h-389v683h381zM346 743h-68l-122 150h111z" />
    <glyph glyph-name="Eacute" unicode="&#xc9;" horiz-adv-x="503" 
d="M445 596h-271v-200h253l-6 -87h-247v-222h291l-6 -87h-389v683h381zM346 893l-121 -150h-69l80 150h110z" />
    <glyph glyph-name="Ecircumflex" unicode="&#xca;" horiz-adv-x="503" 
d="M445 596h-271v-200h253l-6 -87h-247v-222h291l-6 -87h-389v683h381zM180 743h-66l106 154h61l108 -154h-67l-70 89h-2z" />
    <glyph glyph-name="Edieresis" unicode="&#xcb;" horiz-adv-x="503" 
d="M445 596h-271v-200h253l-6 -87h-247v-222h291l-6 -87h-389v683h381zM99 819q0 23 16.5 39.5t39.5 16.5t39.5 -16.5t16.5 -39.5t-16.5 -39.5t-39.5 -16.5t-39.5 16.5t-16.5 39.5zM292 819q0 23 16.5 39.5t39.5 16.5t39.5 -16.5t16.5 -39.5t-16.5 -39.5t-39.5 -16.5
t-39.5 16.5t-16.5 39.5z" />
    <glyph glyph-name="Igrave" unicode="&#xcc;" horiz-adv-x="245" 
d="M174 0h-104v683h104v-683zM171 743h-69l-122 150h111z" />
    <glyph glyph-name="Iacute" unicode="&#xcd;" horiz-adv-x="245" 
d="M174 0h-104v683h104v-683zM262 893l-121 -150h-69l79 150h111z" />
    <glyph glyph-name="Icircumflex" unicode="&#xce;" horiz-adv-x="245" 
d="M174 0h-104v683h104v-683zM52 743h-67l106 154h62l107 -154h-67l-70 89h-2z" />
    <glyph glyph-name="Idieresis" unicode="&#xcf;" horiz-adv-x="245" 
d="M174 0h-104v683h104v-683zM-29 819q0 23 16 39.5t39 16.5t39.5 -16.5t16.5 -39.5t-16.5 -39.5t-39.5 -16.5t-39 16.5t-16 39.5zM164 819q0 23 16 39.5t39 16.5t39.5 -16.5t16.5 -39.5t-16.5 -39.5t-39.5 -16.5t-39 16.5t-16 39.5z" />
    <glyph glyph-name="Eth" unicode="&#xd0;" horiz-adv-x="652" 
d="M70 677q45 4 94 6.5t102 2.5q87 0 152 -23.5t108 -67t64 -105.5t21 -138q0 -169 -93 -262.5t-283 -93.5q-48 0 -89 1.5t-76 3.5v305h-65l6 78h59v293zM269 601q-29 0 -52.5 -1t-42.5 -3v-213h150l-6 -78h-144v-223q14 -2 32 -2h36q128 0 193 65t65 203q0 58 -14.5 104.5
t-43 79.5t-72 50.5t-101.5 17.5z" />
    <glyph glyph-name="Ntilde" unicode="&#xd1;" horiz-adv-x="648" 
d="M465 0q-49 87 -92 162t-80 140t-68.5 122t-56.5 109h-3l4 -223v-310h-99v683h118q37 -65 76.5 -132.5t77.5 -134t73 -132.5t65 -128h3l-5 225v302h99v-683h-112zM268 805q-11 0 -19 -10t-16 -33l-46 6q5 51 24.5 79t51.5 28q16 0 32 -6.5t30.5 -14.5t28 -14.5t25.5 -6.5
t20 8t16 33l46 -7q-7 -51 -25.5 -77t-51.5 -26q-16 0 -32.5 6.5t-32 14t-29 14t-22.5 6.5z" />
    <glyph glyph-name="Ograve" unicode="&#xd2;" horiz-adv-x="673" 
d="M337 -11q-71 0 -126.5 26.5t-93.5 73t-58.5 110.5t-20.5 139q0 77 20.5 142t58.5 112.5t93.5 74.5t126.5 27q72 0 127.5 -27t93.5 -74.5t57.5 -112t19.5 -139.5q0 -78 -20 -143t-58.5 -111.5t-94 -72t-125.5 -25.5zM337 76q48 0 83.5 21t59 57t34.5 84t11 102t-10.5 103
t-33.5 85.5t-58.5 58t-85.5 21.5t-86 -21.5t-59 -58t-33.5 -85.5t-10.5 -104t11 -103t34.5 -83.5t59 -56t84.5 -20.5zM431 743h-68l-122 150h111z" />
    <glyph glyph-name="Oacute" unicode="&#xd3;" horiz-adv-x="673" 
d="M337 -11q-71 0 -126.5 26.5t-93.5 73t-58.5 110.5t-20.5 139q0 77 20.5 142t58.5 112.5t93.5 74.5t126.5 27q72 0 127.5 -27t93.5 -74.5t57.5 -112t19.5 -139.5q0 -78 -20 -143t-58.5 -111.5t-94 -72t-125.5 -25.5zM337 76q48 0 83.5 21t59 57t34.5 84t11 102t-10.5 103
t-33.5 85.5t-58.5 58t-85.5 21.5t-86 -21.5t-59 -58t-33.5 -85.5t-10.5 -104t11 -103t34.5 -83.5t59 -56t84.5 -20.5zM431 893l-121 -150h-69l80 150h110z" />
    <glyph glyph-name="Ocircumflex" unicode="&#xd4;" horiz-adv-x="673" 
d="M337 -11q-71 0 -126.5 26.5t-93.5 73t-58.5 110.5t-20.5 139q0 77 20.5 142t58.5 112.5t93.5 74.5t126.5 27q72 0 127.5 -27t93.5 -74.5t57.5 -112t19.5 -139.5q0 -78 -20 -143t-58.5 -111.5t-94 -72t-125.5 -25.5zM337 76q48 0 83.5 21t59 57t34.5 84t11 102t-10.5 103
t-33.5 85.5t-58.5 58t-85.5 21.5t-86 -21.5t-59 -58t-33.5 -85.5t-10.5 -104t11 -103t34.5 -83.5t59 -56t84.5 -20.5zM265 743h-66l106 154h61l108 -154h-67l-70 89h-2z" />
    <glyph glyph-name="Otilde" unicode="&#xd5;" horiz-adv-x="673" 
d="M337 -11q-71 0 -126.5 26.5t-93.5 73t-58.5 110.5t-20.5 139q0 77 20.5 142t58.5 112.5t93.5 74.5t126.5 27q72 0 127.5 -27t93.5 -74.5t57.5 -112t19.5 -139.5q0 -78 -20 -143t-58.5 -111.5t-94 -72t-125.5 -25.5zM337 76q48 0 83.5 21t59 57t34.5 84t11 102t-10.5 103
t-33.5 85.5t-58.5 58t-85.5 21.5t-86 -21.5t-59 -58t-33.5 -85.5t-10.5 -104t11 -103t34.5 -83.5t59 -56t84.5 -20.5zM281 805q-11 0 -19 -10t-16 -33l-47 6q6 51 25.5 79t50.5 28q16 0 32 -6.5t31 -14.5t28.5 -14.5t25.5 -6.5q11 0 19.5 8t16.5 33l45 -7q-12 -103 -76 -103
q-16 0 -33 6.5t-32.5 14t-28.5 14t-22 6.5z" />
    <glyph glyph-name="Odieresis" unicode="&#xd6;" horiz-adv-x="673" 
d="M337 -11q-71 0 -126.5 26.5t-93.5 73t-58.5 110.5t-20.5 139q0 77 20.5 142t58.5 112.5t93.5 74.5t126.5 27q72 0 127.5 -27t93.5 -74.5t57.5 -112t19.5 -139.5q0 -78 -20 -143t-58.5 -111.5t-94 -72t-125.5 -25.5zM337 76q48 0 83.5 21t59 57t34.5 84t11 102t-10.5 103
t-33.5 85.5t-58.5 58t-85.5 21.5t-86 -21.5t-59 -58t-33.5 -85.5t-10.5 -104t11 -103t34.5 -83.5t59 -56t84.5 -20.5zM184 819q0 23 16 39.5t39 16.5t39.5 -16.5t16.5 -39.5t-16.5 -39.5t-39.5 -16.5t-39 16.5t-16 39.5zM377 819q0 23 16 39.5t39 16.5t39.5 -16.5
t16.5 -39.5t-16.5 -39.5t-39.5 -16.5t-39 16.5t-16 39.5z" />
    <glyph glyph-name="multiply" unicode="&#xd7;" horiz-adv-x="576" 
d="M339 283l185 -187l-52 -52l-184 187l-185 -187l-51 52l184 187l-184 188l51 51l185 -187l184 187l52 -51z" />
    <glyph glyph-name="Oslash" unicode="&#xd8;" horiz-adv-x="673" 
d="M337 -11q-40 0 -75 9.5t-64 26.5l-45 -78l-61 30l48 86q-50 48 -76 118t-26 157q0 77 20.5 142t58.5 112.5t93.5 74.5t126.5 27q40 0 75 -9.5t64 -26.5l44 75l63 -28l-50 -87q50 -48 76 -119.5t26 -157.5q0 -78 -20 -143t-58.5 -111.5t-94 -72t-125.5 -25.5zM337 76
q48 0 83.5 21t59 57t34.5 84t11 102q0 51 -11 98t-34 82l-238 -415q38 -29 95 -29zM148 339q0 -51 11.5 -98t34.5 -82l239 419q-20 14 -43.5 22t-52.5 8q-50 0 -86 -21.5t-59 -58t-33.5 -85.5t-10.5 -104z" />
    <glyph glyph-name="Ugrave" unicode="&#xd9;" horiz-adv-x="636" 
d="M313 -10q-57 0 -102.5 16t-78 49.5t-49.5 85t-17 123.5v419h105v-423q0 -91 38 -138t107 -47q72 0 110 46t38 139v423h105v-403q0 -149 -65.5 -219.5t-190.5 -70.5zM413 743h-69l-121 150h111z" />
    <glyph glyph-name="Uacute" unicode="&#xda;" horiz-adv-x="636" 
d="M313 -10q-57 0 -102.5 16t-78 49.5t-49.5 85t-17 123.5v419h105v-423q0 -91 38 -138t107 -47q72 0 110 46t38 139v423h105v-403q0 -149 -65.5 -219.5t-190.5 -70.5zM413 893l-121 -150h-69l79 150h111z" />
    <glyph glyph-name="Ucircumflex" unicode="&#xdb;" horiz-adv-x="636" 
d="M313 -10q-57 0 -102.5 16t-78 49.5t-49.5 85t-17 123.5v419h105v-423q0 -91 38 -138t107 -47q72 0 110 46t38 139v423h105v-403q0 -149 -65.5 -219.5t-190.5 -70.5zM247 743h-67l106 154h62l107 -154h-67l-70 89h-2z" />
    <glyph glyph-name="Udieresis" unicode="&#xdc;" horiz-adv-x="636" 
d="M313 -10q-57 0 -102.5 16t-78 49.5t-49.5 85t-17 123.5v419h105v-423q0 -91 38 -138t107 -47q72 0 110 46t38 139v423h105v-403q0 -149 -65.5 -219.5t-190.5 -70.5zM166 819q0 23 16 39.5t39 16.5t39.5 -16.5t16.5 -39.5t-16.5 -39.5t-39.5 -16.5t-39 16.5t-16 39.5z
M359 819q0 23 16 39.5t39 16.5t39.5 -16.5t16.5 -39.5t-16.5 -39.5t-39.5 -16.5t-39 16.5t-16 39.5z" />
    <glyph glyph-name="Yacute" unicode="&#xdd;" horiz-adv-x="542" 
d="M218 0v271l-208 412h120l79 -176l64 -153h2l63 153l81 176h120l-212 -412v-271h-109zM366 893l-121 -150h-69l80 150h110z" />
    <glyph glyph-name="Thorn" unicode="&#xde;" horiz-adv-x="545" 
d="M173 548q25 2 51.5 3t57.5 1q53 0 95 -14t71 -39.5t44 -61.5t15 -79q0 -55 -18 -95t-51 -66.5t-80 -39.5t-105 -13q-23 0 -43 1t-37 3v-148h-103v683h103v-135zM173 234q17 -2 35.5 -3.5t36.5 -1.5q75 0 115.5 28t40.5 94q0 65 -38.5 91t-109.5 26q-25 0 -45.5 -1
t-34.5 -3v-230z" />
    <glyph glyph-name="germandbls" unicode="&#xdf;" horiz-adv-x="589" 
d="M389 384q0 -24 12 -40.5t29.5 -30.5t38 -28t38 -32.5t29.5 -43.5t12 -61q0 -39 -14 -68.5t-39 -49.5t-59 -30t-74 -10q-30 0 -61.5 5t-57.5 15l11 80q22 -9 47 -14.5t50 -5.5q19 0 36 4t30 12.5t20.5 22.5t7.5 34t-12 37t-29.5 32.5t-38 31t-38 34.5t-29.5 41.5t-12 52.5
q0 25 9.5 48t24.5 44t32.5 40t33.5 36q7 24 4 45t-15 36.5t-31.5 25t-46.5 9.5q-36 0 -58.5 -11.5t-35.5 -34.5t-18 -59t-5 -85v-466h-104v464q0 70 12.5 121.5t39.5 85.5t70 50.5t105 16.5q86 0 138 -45t52 -128q-9 -11 -26.5 -31t-34.5 -45t-30 -52.5t-13 -52.5z" />
    <glyph glyph-name="agrave" unicode="&#xe0;" horiz-adv-x="497" 
d="M430 119q0 -32 1 -62.5t3 -56.5h-78l-23 59h-3q-26 -32 -63.5 -50.5t-85.5 -18.5q-33 0 -60 11t-46 29.5t-29 43.5t-10 52q0 43 14 70t38.5 42t57 20.5t70.5 5.5h110v57q0 22 -3 40t-13.5 30.5t-30 19.5t-53.5 7q-44 0 -78 -10t-63 -22l-17 78q32 15 79 26t95 11
q55 0 91.5 -10.5t58 -31.5t30 -52t8.5 -72v-216zM216 65q16 0 35 5.5t35 16t27.5 25t13.5 33.5v54h-91q-17 0 -34 -1t-30.5 -7t-22 -18.5t-8.5 -36.5q0 -36 21.5 -53.5t53.5 -17.5zM344 550h-69l-122 150h111z" />
    <glyph glyph-name="aacute" unicode="&#xe1;" horiz-adv-x="497" 
d="M430 119q0 -32 1 -62.5t3 -56.5h-78l-23 59h-3q-26 -32 -63.5 -50.5t-85.5 -18.5q-33 0 -60 11t-46 29.5t-29 43.5t-10 52q0 43 14 70t38.5 42t57 20.5t70.5 5.5h110v57q0 22 -3 40t-13.5 30.5t-30 19.5t-53.5 7q-44 0 -78 -10t-63 -22l-17 78q32 15 79 26t95 11
q55 0 91.5 -10.5t58 -31.5t30 -52t8.5 -72v-216zM216 65q16 0 35 5.5t35 16t27.5 25t13.5 33.5v54h-91q-17 0 -34 -1t-30.5 -7t-22 -18.5t-8.5 -36.5q0 -36 21.5 -53.5t53.5 -17.5zM344 700l-121 -150h-70l80 150h111z" />
    <glyph glyph-name="acircumflex" unicode="&#xe2;" horiz-adv-x="497" 
d="M430 119q0 -32 1 -62.5t3 -56.5h-78l-23 59h-3q-26 -32 -63.5 -50.5t-85.5 -18.5q-33 0 -60 11t-46 29.5t-29 43.5t-10 52q0 43 14 70t38.5 42t57 20.5t70.5 5.5h110v57q0 22 -3 40t-13.5 30.5t-30 19.5t-53.5 7q-44 0 -78 -10t-63 -22l-17 78q32 15 79 26t95 11
q55 0 91.5 -10.5t58 -31.5t30 -52t8.5 -72v-216zM216 65q16 0 35 5.5t35 16t27.5 25t13.5 33.5v54h-91q-17 0 -34 -1t-30.5 -7t-22 -18.5t-8.5 -36.5q0 -36 21.5 -53.5t53.5 -17.5zM178 550h-66l105 154h62l107 -154h-67l-70 89h-2z" />
    <glyph glyph-name="atilde" unicode="&#xe3;" horiz-adv-x="497" 
d="M430 119q0 -32 1 -62.5t3 -56.5h-78l-23 59h-3q-26 -32 -63.5 -50.5t-85.5 -18.5q-33 0 -60 11t-46 29.5t-29 43.5t-10 52q0 43 14 70t38.5 42t57 20.5t70.5 5.5h110v57q0 22 -3 40t-13.5 30.5t-30 19.5t-53.5 7q-44 0 -78 -10t-63 -22l-17 78q32 15 79 26t95 11
q55 0 91.5 -10.5t58 -31.5t30 -52t8.5 -72v-216zM216 65q16 0 35 5.5t35 16t27.5 25t13.5 33.5v54h-91q-17 0 -34 -1t-30.5 -7t-22 -18.5t-8.5 -36.5q0 -36 21.5 -53.5t53.5 -17.5zM193 612q-11 0 -19 -10t-16 -33l-47 6q6 51 25.5 79t51.5 28q16 0 31.5 -6.5t30.5 -14.5
t28.5 -14.5t25.5 -6.5q11 0 19.5 8t16.5 33l45 -7q-12 -103 -76 -103q-16 0 -33 6.5t-32.5 14t-28.5 14t-22 6.5z" />
    <glyph glyph-name="adieresis" unicode="&#xe4;" horiz-adv-x="497" 
d="M430 119q0 -32 1 -62.5t3 -56.5h-78l-23 59h-3q-26 -32 -63.5 -50.5t-85.5 -18.5q-33 0 -60 11t-46 29.5t-29 43.5t-10 52q0 43 14 70t38.5 42t57 20.5t70.5 5.5h110v57q0 22 -3 40t-13.5 30.5t-30 19.5t-53.5 7q-44 0 -78 -10t-63 -22l-17 78q32 15 79 26t95 11
q55 0 91.5 -10.5t58 -31.5t30 -52t8.5 -72v-216zM216 65q16 0 35 5.5t35 16t27.5 25t13.5 33.5v54h-91q-17 0 -34 -1t-30.5 -7t-22 -18.5t-8.5 -36.5q0 -36 21.5 -53.5t53.5 -17.5zM96 626q0 23 16.5 39.5t39.5 16.5t39.5 -16.5t16.5 -39.5t-16.5 -39.5t-39.5 -16.5
t-39.5 16.5t-16.5 39.5zM289 626q0 23 16 39.5t39 16.5t40 -16.5t17 -39.5t-17 -39.5t-40 -16.5t-39 16.5t-16 39.5z" />
    <glyph glyph-name="aring" unicode="&#xe5;" horiz-adv-x="497" 
d="M430 119q0 -32 1 -62.5t3 -56.5h-78l-23 59h-3q-26 -32 -63.5 -50.5t-85.5 -18.5q-33 0 -60 11t-46 29.5t-29 43.5t-10 52q0 43 14 70t38.5 42t57 20.5t70.5 5.5h110v57q0 22 -3 40t-13.5 30.5t-30 19.5t-53.5 7q-44 0 -78 -10t-63 -22l-17 78q32 15 79 26t95 11
q55 0 91.5 -10.5t58 -31.5t30 -52t8.5 -72v-216zM216 65q16 0 35 5.5t35 16t27.5 25t13.5 33.5v54h-91q-17 0 -34 -1t-30.5 -7t-22 -18.5t-8.5 -36.5q0 -36 21.5 -53.5t53.5 -17.5zM249 541q-40 0 -67.5 27t-27.5 66q0 19 7 36t20 29.5t30.5 20t37.5 7.5q39 0 66.5 -27
t27.5 -66q0 -20 -7.5 -37t-20.5 -29.5t-30 -19.5t-36 -7zM249 580q22 0 37 15.5t15 38.5t-15 38.5t-38 15.5q-22 0 -36.5 -15.5t-14.5 -38.5q0 -22 14.5 -38t37.5 -16z" />
    <glyph glyph-name="ae" unicode="&#xe6;" horiz-adv-x="789" 
d="M558 -10q-68 0 -113 24t-71 68h-2q-34 -45 -81.5 -68.5t-104.5 -23.5q-34 0 -61.5 11t-47 29.5t-30.5 43.5t-11 52q0 43 14 70t38.5 43t57 22t70.5 6h110v54q0 22 -3 40t-13.5 30.5t-30 19.5t-53.5 7q-44 0 -78 -10t-63 -22l-17 78q32 15 79 26t95 11q68 0 101.5 -20
t46.5 -56h1q27 36 67 56t95 20q58 0 98.5 -23t63.5 -61.5t29.5 -88.5t-3.5 -104h-314q2 -80 42 -117t107 -37q44 0 76.5 7.5t60.5 18.5l10 -76q-30 -13 -71.5 -21.5t-93.5 -8.5zM216 65q16 0 39 7.5t42 24t29.5 42t3.5 62.5h-94q-17 0 -34 -1.5t-30.5 -7.5t-22 -19t-8.5 -37
q0 -36 21.5 -53.5t53.5 -17.5zM648 298v15q0 19 -4.5 39t-16 36t-31.5 26.5t-50 10.5q-28 0 -48.5 -10.5t-34.5 -28.5t-22 -41t-11 -47h218z" />
    <glyph glyph-name="ccedilla" unicode="&#xe7;" horiz-adv-x="460" 
d="M145 245q0 -43 12 -75t32.5 -53.5t49 -32.5t61.5 -11q35 0 65 6.5t53 15.5l11 -79q-20 -9 -50.5 -16t-66.5 -9l-17 -40q11 -4 24 -9.5t24.5 -14t19 -20.5t7.5 -30q0 -43 -34 -65.5t-85 -22.5q-14 0 -29 2.5t-27 7.5l11 45q22 -5 40 -5t36 7t18 28q0 20 -20 30.5t-46 18.5
q5 16 10.5 33.5t12.5 34.5q-101 7 -160 72t-59 179q0 57 17.5 104.5t50.5 81.5t81 53t109 19q36 0 72 -7t62 -18l-14 -80q-20 9 -50 16.5t-66 7.5q-73 0 -114 -47t-41 -127z" />
    <glyph glyph-name="egrave" unicode="&#xe8;" horiz-adv-x="506" 
d="M275 -10q-114 0 -175.5 67t-61.5 181q0 57 15 105t44.5 83t73 55t99.5 20q58 0 99 -23t65 -61.5t30.5 -88.5t-2.5 -104h-322q2 -80 44 -117t109 -37q44 0 78 7.5t62 18.5l11 -76q-31 -13 -74 -21.5t-95 -8.5zM368 298q1 3 1 7.5v7.5q0 19 -5 39t-17 36t-32.5 26.5
t-50.5 10.5q-28 0 -49.5 -10.5t-36.5 -28.5t-23.5 -41t-11.5 -47h225zM348 550h-69l-122 150h112z" />
    <glyph glyph-name="eacute" unicode="&#xe9;" horiz-adv-x="506" 
d="M275 -10q-114 0 -175.5 67t-61.5 181q0 57 15 105t44.5 83t73 55t99.5 20q58 0 99 -23t65 -61.5t30.5 -88.5t-2.5 -104h-322q2 -80 44 -117t109 -37q44 0 78 7.5t62 18.5l11 -76q-31 -13 -74 -21.5t-95 -8.5zM368 298q1 3 1 7.5v7.5q0 19 -5 39t-17 36t-32.5 26.5
t-50.5 10.5q-28 0 -49.5 -10.5t-36.5 -28.5t-23.5 -41t-11.5 -47h225zM348 700l-121 -150h-70l80 150h111z" />
    <glyph glyph-name="ecircumflex" unicode="&#xea;" horiz-adv-x="506" 
d="M275 -10q-114 0 -175.5 67t-61.5 181q0 57 15 105t44.5 83t73 55t99.5 20q58 0 99 -23t65 -61.5t30.5 -88.5t-2.5 -104h-322q2 -80 44 -117t109 -37q44 0 78 7.5t62 18.5l11 -76q-31 -13 -74 -21.5t-95 -8.5zM368 298q1 3 1 7.5v7.5q0 19 -5 39t-17 36t-32.5 26.5
t-50.5 10.5q-28 0 -49.5 -10.5t-36.5 -28.5t-23.5 -41t-11.5 -47h225zM182 550h-66l105 154h62l107 -154h-67l-69 89h-2z" />
    <glyph glyph-name="edieresis" unicode="&#xeb;" horiz-adv-x="506" 
d="M275 -10q-114 0 -175.5 67t-61.5 181q0 57 15 105t44.5 83t73 55t99.5 20q58 0 99 -23t65 -61.5t30.5 -88.5t-2.5 -104h-322q2 -80 44 -117t109 -37q44 0 78 7.5t62 18.5l11 -76q-31 -13 -74 -21.5t-95 -8.5zM368 298q1 3 1 7.5v7.5q0 19 -5 39t-17 36t-32.5 26.5
t-50.5 10.5q-28 0 -49.5 -10.5t-36.5 -28.5t-23.5 -41t-11.5 -47h225zM100 626q0 23 16.5 39.5t39.5 16.5t39.5 -16.5t16.5 -39.5t-16.5 -39.5t-39.5 -16.5t-39.5 16.5t-16.5 39.5zM293 626q0 23 16.5 39.5t39.5 16.5t39.5 -16.5t16.5 -39.5t-16.5 -39.5t-39.5 -16.5
t-39.5 16.5t-16.5 39.5z" />
    <glyph glyph-name="igrave" unicode="&#xec;" horiz-adv-x="240" 
d="M68 490l104 4v-494h-104v490zM173 550h-69l-121 150h111z" />
    <glyph glyph-name="iacute" unicode="&#xed;" horiz-adv-x="240" 
d="M68 490l104 4v-494h-104v490zM263 700l-121 -150h-69l80 150h110z" />
    <glyph glyph-name="icircumflex" unicode="&#xee;" horiz-adv-x="240" 
d="M68 490l104 4v-494h-104v490zM49 550h-66l106 154h61l108 -154h-67l-70 89h-2z" />
    <glyph glyph-name="idieresis" unicode="&#xef;" horiz-adv-x="240" 
d="M68 490l104 4v-494h-104v490zM-32 626q0 23 16.5 39.5t39.5 16.5t39.5 -16.5t16.5 -39.5t-16.5 -39.5t-39.5 -16.5t-39.5 16.5t-16.5 39.5zM161 626q0 23 16.5 39.5t39.5 16.5t39.5 -16.5t16.5 -39.5t-16.5 -39.5t-39.5 -16.5t-39.5 16.5t-16.5 39.5z" />
    <glyph glyph-name="eth" unicode="&#xf0;" horiz-adv-x="548" 
d="M295 659q8 5 24.5 14.5t34.5 20.5t34 20.5t24 14.5q1 -2 6.5 -9t11 -15.5t10.5 -16t7 -9.5l-98 -60q76 -68 117.5 -158t41.5 -202q0 -66 -19 -116.5t-51 -84t-75 -51t-91 -17.5q-52 0 -95 17t-74 48.5t-48 75.5t-17 98q0 53 17 95.5t46.5 72.5t69.5 46.5t87 16.5
q30 0 59 -9.5t55 -32.5q1 0 1 1l1 1q-15 43 -40 81.5t-63 70.5q-9 -5 -26.5 -15.5t-36.5 -21.5t-36.5 -21.5t-26.5 -16.5l-33 51l104 64q-50 35 -112 56l31 69q43 -14 83.5 -33t76.5 -45zM401 252q-4 60 -35 98.5t-94 38.5q-35 0 -59 -15.5t-39 -39t-22 -52t-7 -55.5
q0 -35 9 -64t26 -50.5t41 -33.5t53 -12q59 0 93 50t34 135z" />
    <glyph glyph-name="ntilde" unicode="&#xf1;" horiz-adv-x="559" 
d="M328 501q36 0 66 -12t51.5 -36.5t34 -63t12.5 -91.5v-298h-104v288q0 28 -4.5 51t-15 40t-28 26.5t-43.5 9.5q-41 0 -73 -22t-52 -55v-338h-104v352q0 38 -1 72t-2 66l91 4l7 -72h3q26 31 66.5 55t95.5 24zM224 612q-11 0 -19 -10t-16 -33l-46 6q5 51 25 79t51 28
q16 0 32 -6.5t30.5 -14.5t28 -14.5t25.5 -6.5t20 8t16 33l46 -7q-12 -103 -77 -103q-16 0 -32.5 6.5t-32 14t-29 14t-22.5 6.5z" />
    <glyph glyph-name="ograve" unicode="&#xf2;" horiz-adv-x="550" 
d="M407 245q0 81 -33 129t-98 48t-97.5 -48t-32.5 -129t32.5 -128.5t97.5 -47.5t98 47.5t33 128.5zM513 243q0 -64 -19 -111.5t-51.5 -79t-75.5 -47t-91 -15.5t-91 15.5t-75.5 47t-51.5 79t-19 111.5q0 66 19 115t51.5 80.5t75.5 47t91 15.5t91 -15.5t75.5 -47.5t51.5 -80.5
t19 -114.5zM370 550h-69l-121 150h111z" />
    <glyph glyph-name="oacute" unicode="&#xf3;" horiz-adv-x="550" 
d="M407 245q0 81 -33 129t-98 48t-97.5 -48t-32.5 -129t32.5 -128.5t97.5 -47.5t98 47.5t33 128.5zM513 243q0 -64 -19 -111.5t-51.5 -79t-75.5 -47t-91 -15.5t-91 15.5t-75.5 47t-51.5 79t-19 111.5q0 66 19 115t51.5 80.5t75.5 47t91 15.5t91 -15.5t75.5 -47.5t51.5 -80.5
t19 -114.5zM370 700l-121 -150h-69l80 150h110z" />
    <glyph glyph-name="ocircumflex" unicode="&#xf4;" horiz-adv-x="550" 
d="M407 245q0 81 -33 129t-98 48t-97.5 -48t-32.5 -129t32.5 -128.5t97.5 -47.5t98 47.5t33 128.5zM513 243q0 -64 -19 -111.5t-51.5 -79t-75.5 -47t-91 -15.5t-91 15.5t-75.5 47t-51.5 79t-19 111.5q0 66 19 115t51.5 80.5t75.5 47t91 15.5t91 -15.5t75.5 -47.5t51.5 -80.5
t19 -114.5zM204 550h-67l106 154h62l107 -154h-67l-70 89h-2z" />
    <glyph glyph-name="otilde" unicode="&#xf5;" horiz-adv-x="550" 
d="M407 245q0 81 -33 129t-98 48t-97.5 -48t-32.5 -129t32.5 -128.5t97.5 -47.5t98 47.5t33 128.5zM513 243q0 -64 -19 -111.5t-51.5 -79t-75.5 -47t-91 -15.5t-91 15.5t-75.5 47t-51.5 79t-19 111.5q0 66 19 115t51.5 80.5t75.5 47t91 15.5t91 -15.5t75.5 -47.5t51.5 -80.5
t19 -114.5zM220 612q-11 0 -19 -10t-16 -33l-47 6q6 51 25.5 79t51.5 28q16 0 31.5 -6.5t30.5 -14.5t28.5 -14.5t25.5 -6.5q11 0 19.5 8t16.5 33l45 -7q-12 -103 -76 -103q-16 0 -33 6.5t-32.5 14t-28.5 14t-22 6.5z" />
    <glyph glyph-name="odieresis" unicode="&#xf6;" horiz-adv-x="550" 
d="M407 245q0 81 -33 129t-98 48t-97.5 -48t-32.5 -129t32.5 -128.5t97.5 -47.5t98 47.5t33 128.5zM513 243q0 -64 -19 -111.5t-51.5 -79t-75.5 -47t-91 -15.5t-91 15.5t-75.5 47t-51.5 79t-19 111.5q0 66 19 115t51.5 80.5t75.5 47t91 15.5t91 -15.5t75.5 -47.5t51.5 -80.5
t19 -114.5zM123 626q0 23 16 39.5t39 16.5t39.5 -16.5t16.5 -39.5t-16.5 -39.5t-39.5 -16.5t-39 16.5t-16 39.5zM316 626q0 23 16 39.5t39 16.5t39.5 -16.5t16.5 -39.5t-16.5 -39.5t-39.5 -16.5t-39 16.5t-16 39.5z" />
    <glyph glyph-name="divide" unicode="&#xf7;" horiz-adv-x="581" 
d="M527 322v-73h-473v73h473zM230 462q0 26 17.5 44t43.5 18t44 -18t18 -44t-18 -43t-44 -17t-43.5 17t-17.5 43zM230 108q0 26 17.5 43.5t43.5 17.5t44 -17.5t18 -43.5t-18 -43.5t-44 -17.5t-43.5 17.5t-17.5 43.5z" />
    <glyph glyph-name="oslash" unicode="&#xf8;" horiz-adv-x="548" 
d="M276 501q30 0 57 -6.5t50 -17.5l37 62l51 -20l-42 -69q84 -69 84 -207q0 -59 -17 -106t-48.5 -79.5t-75 -50t-96.5 -17.5q-63 0 -111 24l-37 -63l-50 22l42 70q-38 32 -59.5 83t-21.5 117q0 60 16.5 107.5t47 81t74.5 51.5t99 18zM276 69q34 0 59 13.5t41 37.5t23.5 56
t7.5 69q0 32 -7.5 62t-24.5 53l-165 -273q25 -18 66 -18zM146 245q0 -32 6.5 -60.5t21.5 -51.5l165 272q-13 8 -28.5 12.5t-34.5 4.5q-35 0 -59.5 -14t-40 -38.5t-23 -56.5t-7.5 -68z" />
    <glyph glyph-name="ugrave" unicode="&#xf9;" horiz-adv-x="557" 
d="M229 -10q-75 0 -119 48t-44 157v295h104v-282q0 -61 20 -97.5t75 -36.5q23 0 44.5 8.5t38 22.5t26.5 31.5t10 34.5v319h104v-349q0 -39 1 -74t3 -67h-77l-21 69h-2q-26 -35 -65 -57t-98 -22zM374 550h-69l-122 150h111z" />
    <glyph glyph-name="uacute" unicode="&#xfa;" horiz-adv-x="557" 
d="M229 -10q-75 0 -119 48t-44 157v295h104v-282q0 -61 20 -97.5t75 -36.5q23 0 44.5 8.5t38 22.5t26.5 31.5t10 34.5v319h104v-349q0 -39 1 -74t3 -67h-77l-21 69h-2q-26 -35 -65 -57t-98 -22zM374 700l-122 -150h-69l80 150h111z" />
    <glyph glyph-name="ucircumflex" unicode="&#xfb;" horiz-adv-x="557" 
d="M229 -10q-75 0 -119 48t-44 157v295h104v-282q0 -61 20 -97.5t75 -36.5q23 0 44.5 8.5t38 22.5t26.5 31.5t10 34.5v319h104v-349q0 -39 1 -74t3 -67h-77l-21 69h-2q-26 -35 -65 -57t-98 -22zM208 550h-67l106 154h62l107 -154h-67l-70 89h-2z" />
    <glyph glyph-name="udieresis" unicode="&#xfc;" horiz-adv-x="557" 
d="M229 -10q-75 0 -119 48t-44 157v295h104v-282q0 -61 20 -97.5t75 -36.5q23 0 44.5 8.5t38 22.5t26.5 31.5t10 34.5v319h104v-349q0 -39 1 -74t3 -67h-77l-21 69h-2q-26 -35 -65 -57t-98 -22zM126 626q0 23 16 39.5t39 16.5t40 -16.5t17 -39.5t-17 -39.5t-40 -16.5
t-39 16.5t-16 39.5zM319 626q0 23 16 39.5t39 16.5t40 -16.5t17 -39.5t-17 -39.5t-40 -16.5t-39 16.5t-16 39.5z" />
    <glyph glyph-name="yacute" unicode="&#xfd;" horiz-adv-x="485" 
d="M218 8h-24l-184 482h116q3 -12 12.5 -42t22 -69t27 -82.5t27 -82.5t21.5 -69t12 -42h3l112 387h113l-253 -720h-103zM337 700l-121 -150h-69l79 150h111z" />
    <glyph glyph-name="thorn" unicode="&#xfe;" horiz-adv-x="561" 
d="M322 501q45 0 82 -18t63.5 -51t40.5 -79.5t14 -102.5q0 -62 -16.5 -110.5t-45.5 -81.5t-67.5 -50.5t-83.5 -17.5q-86 0 -135 61h-2v-270h-104v922l104 3v-280h2q26 36 63 55.5t85 19.5zM292 418q-37 0 -69.5 -21t-50.5 -53v-199q14 -32 44 -53t72 -21q63 0 95.5 49
t32.5 129q0 36 -7.5 66.5t-23 53.5t-39 36t-54.5 13z" />
    <glyph glyph-name="ydieresis" unicode="&#xff;" horiz-adv-x="485" 
d="M218 8h-24l-184 482h116q3 -12 12.5 -42t22 -69t27 -82.5t27 -82.5t21.5 -69t12 -42h3l112 387h113l-253 -720h-103zM90 626q0 23 16 39.5t39 16.5t40 -16.5t17 -39.5t-17 -39.5t-40 -16.5t-39 16.5t-16 39.5zM283 626q0 23 16 39.5t39 16.5t39.5 -16.5t16.5 -39.5
t-16.5 -39.5t-39.5 -16.5t-39 16.5t-16 39.5z" />
    <glyph glyph-name="OE" unicode="&#x152;" horiz-adv-x="912" 
d="M852 596h-271v-200h252l-6 -87h-246v-222h290l-5 -87h-390v28q-28 -19 -62.5 -29t-76.5 -10q-71 0 -126.5 26.5t-93.5 73t-58.5 110.5t-20.5 139q0 77 20.5 142t58.5 112.5t93.5 74.5t126.5 27q42 0 76.5 -10.5t62.5 -29.5v29h382zM337 76q48 0 82 19.5t57 55.5v381
q-23 35 -57 55.5t-82 20.5q-50 0 -86 -21.5t-59 -58t-33.5 -85.5t-10.5 -104t11 -103t34.5 -83.5t59 -56t84.5 -20.5z" />
    <glyph glyph-name="oe" unicode="&#x153;" horiz-adv-x="864" 
d="M633 -10q-69 0 -113 25.5t-68 70.5h-2q-26 -47 -70.5 -71.5t-106.5 -24.5q-53 0 -96 17.5t-74 50t-47.5 79.5t-16.5 106q0 60 16 107.5t46 81t73.5 51.5t98.5 18q64 0 109 -26t71 -75h2q24 48 67 74.5t106 26.5q58 0 98.5 -23t64 -61.5t29.5 -88.5t-3 -104h-318
q2 -80 43.5 -117t107.5 -37q44 0 77 7.5t61 18.5l11 -76q-31 -13 -72.5 -21.5t-93.5 -8.5zM273 69q34 0 58.5 13.5t40 37.5t22.5 56t7 69q0 36 -7 68t-22 56.5t-39.5 38.5t-59.5 14t-59 -14t-39 -38.5t-22 -56.5t-7 -68q0 -37 7 -69t22 -56t39 -37.5t59 -13.5zM723 298
q1 3 1 7.5v7.5q0 19 -4.5 39t-16.5 36t-32 26.5t-50 10.5q-28 0 -49 -10.5t-36 -28.5t-23 -41t-11 -47h221z" />
    <glyph glyph-name="Ydieresis" unicode="&#x178;" horiz-adv-x="542" 
d="M218 0v271l-208 412h120l79 -176l64 -153h2l63 153l81 176h120l-212 -412v-271h-109zM119 819q0 23 16 39.5t39 16.5t39.5 -16.5t16.5 -39.5t-16.5 -39.5t-39.5 -16.5t-39 16.5t-16 39.5zM312 819q0 23 16 39.5t39 16.5t39.5 -16.5t16.5 -39.5t-16.5 -39.5t-39.5 -16.5
t-39 16.5t-16 39.5z" />
    <glyph glyph-name="tilde" unicode="&#x2dc;" horiz-adv-x="430" 
d="M160 612q-11 0 -19 -10t-16 -33l-47 6q6 51 25.5 79t50.5 28q16 0 32 -6.5t31 -14.5t28.5 -14.5t25.5 -6.5q11 0 19.5 8t16.5 33l45 -7q-12 -103 -76 -103q-16 0 -33 6.5t-32.5 14t-28.5 14t-22 6.5z" />
    <glyph glyph-name="endash" unicode="&#x2013;" horiz-adv-x="538" 
d="M490 296v-73h-442v73h442z" />
    <glyph glyph-name="emdash" unicode="&#x2014;" horiz-adv-x="951" 
d="M902 296v-73h-854v73h854z" />
    <glyph glyph-name="quoteleft" unicode="&#x2018;" horiz-adv-x="258" 
d="M215 706q-26 -58 -38.5 -120t-15.5 -130l-92 12q6 35 15.5 71.5t20.5 70t23.5 62.5t24.5 50z" />
    <glyph glyph-name="quoteright" unicode="&#x2019;" horiz-adv-x="258" 
d="M43 471q26 59 38.5 121t14.5 130l93 -13q-6 -35 -15.5 -71t-21 -69.5t-24 -62.5t-24.5 -50z" />
    <glyph glyph-name="quotedblleft" unicode="&#x201c;" horiz-adv-x="426" 
d="M215 706q-26 -58 -38.5 -120t-15.5 -130l-92 12q6 35 15.5 71.5t20.5 70t23.5 62.5t24.5 50zM384 706q-26 -58 -39 -120t-15 -130l-92 12q5 35 14.5 71.5t21 70t24 62.5t24.5 50z" />
    <glyph glyph-name="quotedblright" unicode="&#x201d;" horiz-adv-x="426" 
d="M43 471q26 59 38.5 121t14.5 130l93 -13q-6 -35 -15.5 -71t-21 -69.5t-24 -62.5t-24.5 -50zM212 471q48 115 53 251l92 -13q-5 -35 -14.5 -71t-21 -69.5t-24 -62.5t-24.5 -50z" />
    <glyph glyph-name="quotedblbase" unicode="&#x201e;" horiz-adv-x="426" 
d="M212 -115q48 115 53 251l92 -13q-5 -35 -14.5 -71t-21 -69.5t-24 -62.5t-24.5 -50zM43 -115q26 59 38.5 121t14.5 130l93 -13q-6 -35 -15.5 -71t-21 -69.5t-24 -62.5t-24.5 -50z" />
    <glyph glyph-name="bullet" unicode="&#x2022;" horiz-adv-x="328" 
d="M58 262q0 22 8 41t22.5 33t33.5 22.5t41 8.5t41.5 -8.5t34 -22.5t23 -33t8.5 -41t-8.5 -41.5t-23 -33.5t-34 -22.5t-41.5 -8.5t-41 8.5t-33.5 22.5t-22.5 33.5t-8 41.5z" />
    <glyph glyph-name="ellipsis" unicode="&#x2026;" horiz-adv-x="770" 
d="M67 59q0 29 20.5 50t49.5 21t49.5 -21t20.5 -50t-20.5 -49.5t-49.5 -20.5t-49.5 20.5t-20.5 49.5zM332 59q0 29 20.5 50t49.5 21t50 -21t21 -50t-21 -49.5t-50 -20.5t-49.5 20.5t-20.5 49.5zM599 59q0 29 20.5 50t49.5 21t50 -21t21 -50t-21 -49.5t-50 -20.5t-49.5 20.5
t-20.5 49.5z" />
    <glyph glyph-name="guilsinglleft" unicode="&#x2039;" horiz-adv-x="338" 
d="M139 257l113 -139l-53 -41l-143 180l143 180l53 -39z" />
    <glyph glyph-name="guilsinglright" unicode="&#x203a;" horiz-adv-x="338" 
d="M85 398l54 39l143 -180l-143 -180l-54 41l114 139z" />
    <glyph glyph-name="Euro" unicode="&#x20ac;" horiz-adv-x="564" 
d="M445 303l-6 -60h-238q16 -83 64 -125t118 -42q48 0 81.5 10t55.5 21q1 -8 2.5 -18.5t3 -22t3.5 -22.5t3 -18q-29 -15 -70 -25.5t-89 -10.5q-57 0 -104 17.5t-83 50t-60 79.5t-34 106h-69l6 60h56q-1 19 -1 35.5t2 29.5h-63l6 60h66q10 55 34.5 101t60.5 79t83.5 51.5
t103.5 18.5q50 0 87.5 -9.5t64.5 -21.5l-15 -83q-26 12 -59.5 20t-70.5 8q-72 0 -117 -43t-64 -121h242l-6 -60h-247q-4 -30 -1 -65h254z" />
    <glyph glyph-name="trademark" unicode="&#x2122;" horiz-adv-x="688" 
d="M47 632l5 51h229l-4 -51h-82v-239h-62v239h-86zM450 395l-68 231h-3l-1 -65l-7 -168h-59l12 290h90l55 -166l13 -50h2l14 50l55 166h89l12 -290h-59l-6 168l-2 65h-2l-68 -231h-67z" />
    <glyph glyph-name="thinspace" horiz-adv-x="120" 
 />
    </font>
</defs>
</svg>
