<?xml version="1.0" standalone="no"?>
<!DOCTYPE svg PUBLIC "-//W3C//DTD SVG 1.1//EN" "http://www.w3.org/Graphics/SVG/1.1/DTD/svg11.dtd" >
<svg>
<metadata>
Created by FontForge 20120731 at Thu Jun 18 08:54:05 2015
 By ,,,
Copyright (c) 2011 by Neil Summerour and Positype. All rights reserved.
</metadata>
<defs>
<font id="4aea7cd875aebba7e4f74ee824d4cf3945a51d7ca6a026fc8c41a25cc0414c3" horiz-adv-x="531" >
  <font-face 
    font-family="4aea7cd875aebba7e4f74ee824d4cf3945a51d7ca6a026fc8c41a25cc0414c3d"
    font-weight="600"
    font-style="italic"
    font-stretch="normal"
    units-per-em="1000"
    panose-1="2 0 5 5 0 0 0 2 0 4"
    ascent="750"
    descent="-250"
    x-height="490"
    cap-height="683"
    bbox="-114 -240 930 893"
    underline-thickness="50"
    underline-position="-50"
    slope="-9"
    unicode-range="U+0020-2122"
  />
<missing-glyph 
 />
    <glyph glyph-name=".notdef" 
 />
    <glyph glyph-name=".null" horiz-adv-x="0" 
 />
    <glyph glyph-name="nonmarkingreturn" horiz-adv-x="333" 
 />
    <glyph glyph-name="space" unicode=" " horiz-adv-x="199" 
 />
    <glyph glyph-name="space" unicode="&#xa0;" horiz-adv-x="199" 
 />
    <glyph glyph-name="exclam" unicode="!" horiz-adv-x="253" 
d="M174 217h-83l67 487h112zM39 46q0 15 5.5 30t16 27t25 19.5t32.5 7.5q26 0 41 -16t15 -41q0 -15 -5.5 -30t-16 -27t-25 -19.5t-32.5 -7.5q-26 0 -41 16t-15 41z" />
    <glyph glyph-name="quotedbl" unicode="&#x22;" horiz-adv-x="354" 
d="M240 716l-56 -233h-64l25 233h95zM396 716l-56 -233h-65l26 233h95z" />
    <glyph glyph-name="numbersign" unicode="#" horiz-adv-x="560" 
d="M458 443h92l-15 -70h-94l-35 -133h95l-15 -70h-97l-44 -162h-71l44 162h-101l-44 -162h-71l44 162h-91l14 70h96l34 133h-95l14 70h98l43 160h70l-43 -160h101l44 160h70zM235 240h101l34 133h-101z" />
    <glyph glyph-name="dollar" unicode="$" horiz-adv-x="501" 
d="M370 663q39 -2 71.5 -11.5t54.5 -21.5l-27 -79q-24 11 -58.5 21.5t-78.5 10.5q-50 0 -80.5 -26.5t-30.5 -68.5q0 -28 16.5 -47t42 -35.5t55 -33t55 -38.5t43 -52t17.5 -73q0 -45 -15.5 -80t-42.5 -60.5t-62.5 -41.5t-74.5 -21l-17 -97h-75l17 95q-40 2 -80 14.5t-65 26.5
l26 81q32 -17 70.5 -28.5t83.5 -11.5q26 0 49 7t40 20.5t27 33t10 44.5q0 31 -16.5 52.5t-42 39t-55 33.5t-54.5 36.5t-42 48.5t-17 69q0 40 14 72.5t38.5 57.5t57.5 40.5t72 20.5l16 95h75z" />
    <glyph glyph-name="percent" unicode="%" horiz-adv-x="865" 
d="M500 129q0 40 12.5 81t36.5 74.5t59 54.5t81 21q31 0 54 -11.5t39 -30.5t24 -44t8 -53q0 -47 -14 -89t-39 -73t-59 -49t-74 -18q-58 0 -93 37.5t-35 99.5zM677 301q-28 0 -47 -19t-30.5 -46t-16.5 -57t-5 -52q0 -33 13 -54.5t43 -21.5q24 0 43.5 15t32.5 40t20 57t7 66
q0 29 -13.5 50.5t-46.5 21.5zM103 447q0 40 12.5 81t36.5 74.5t59 54.5t81 21q32 0 55.5 -11.5t39 -31t23 -45.5t7.5 -54q0 -47 -14.5 -88t-39 -71.5t-58.5 -48.5t-73 -18q-59 0 -94 37.5t-35 99.5zM280 619q-27 0 -46 -19t-31 -46t-17.5 -57t-5.5 -52q0 -33 13.5 -54.5
t45.5 -21.5q23 0 41.5 14.5t32 38.5t20.5 54.5t7 62.5q0 31 -12.5 55.5t-47.5 24.5zM721 675l-449 -683h-74l451 683h72z" />
    <glyph glyph-name="ampersand" unicode="&#x26;" horiz-adv-x="628" 
d="M158 511q0 39 15.5 72.5t42 57.5t62 38t74.5 14q33 0 60 -9.5t46.5 -27t30 -42t10.5 -54.5q0 -54 -38.5 -105.5t-130.5 -97.5v-2q29 -45 60.5 -90t60.5 -84q57 73 90 195h94q-23 -85 -56 -149t-80 -112q19 -25 33.5 -45t36.5 -46l-75 -58q-14 16 -35.5 43t-35.5 46
q-45 -35 -94 -50t-103 -15q-45 0 -81 12.5t-61 34.5t-38 52.5t-13 65.5q0 37 12.5 69t35 59.5t53 50t67.5 41.5v1q-21 35 -32 67t-11 68zM240 316q-18 -11 -36 -25t-32 -31.5t-23.5 -38.5t-9.5 -46q0 -50 31 -78.5t85 -28.5q38 0 69 13.5t55 34.5q-29 41 -65.5 93t-73.5 107
zM288 414q19 10 39.5 23t37.5 30t28 38t12 47q0 28 -14 49t-49 21q-38 0 -63 -29.5t-25 -71.5q0 -54 34 -107z" />
    <glyph glyph-name="quotesingle" unicode="'" horiz-adv-x="204" 
d="M243 716l-56 -233h-65l26 233h95z" />
    <glyph glyph-name="parenleft" unicode="(" horiz-adv-x="304" 
d="M369 748q-103 -131 -158 -287.5t-55 -330.5q0 -75 13.5 -150.5t44.5 -148.5h-68q-39 75 -58.5 158t-19.5 174q0 87 18 169.5t49 157.5t73 140t89 118h72z" />
    <glyph glyph-name="parenright" unicode=")" horiz-adv-x="304" 
d="M-23 -169q102 131 157 288t55 328q0 75 -14 151t-44 150h68q39 -74 58 -158t19 -175q0 -87 -18 -169.5t-49 -157t-72.5 -139.5t-88.5 -118h-71z" />
    <glyph glyph-name="asterisk" unicode="*" horiz-adv-x="432" 
d="M229 519l-113 49q8 20 21 37.5t29 31.5l90 -81l4 2l4 130q20 5 39.5 5t39.5 -5l-40 -130l3 -2l118 80q23 -28 28 -68l-130 -49l-1 -5l113 -49q-8 -20 -21 -37t-29 -32l-90 81l-5 -2l-4 -130q-40 -9 -78 0l39 130l-3 2l-117 -81q-21 29 -29 69l131 49z" />
    <glyph glyph-name="plus" unicode="+" horiz-adv-x="581" 
d="M351 304h199l-12 -73h-199l-34 -206h-75l34 206h-200l13 73h199l35 205h74z" />
    <glyph glyph-name="comma" unicode="," horiz-adv-x="241" 
d="M-3 -124q35 59 58 123.5t37 132.5l93 -13q-12 -35 -28 -72t-33.5 -71.5t-35 -64t-32.5 -50.5z" />
    <glyph glyph-name="hyphen" unicode="-" horiz-adv-x="399" 
d="M372 307l-13 -76h-298l13 76h298z" />
    <glyph glyph-name="hyphen" unicode="&#xad;" horiz-adv-x="399" 
d="M372 307l-13 -76h-298l13 76h298z" />
    <glyph glyph-name="period" unicode="." horiz-adv-x="240" 
d="M41 46q0 15 5.5 30t16 27t25 19.5t32.5 7.5q26 0 41 -16t15 -41q0 -15 -5.5 -30t-16 -27t-25 -19.5t-32.5 -7.5q-26 0 -41 16t-15 41z" />
    <glyph glyph-name="slash" unicode="/" horiz-adv-x="370" 
d="M446 690l-384 -716h-79l383 716h80z" />
    <glyph glyph-name="zero" unicode="0" horiz-adv-x="539" 
d="M342 579q-30 0 -54.5 -16.5t-44.5 -44.5t-34.5 -65t-24.5 -78t-15 -83t-6 -80q0 -25 3.5 -50t13 -45.5t27.5 -33t48 -12.5q47 0 80 38t54 94.5t31 121t11 117.5q0 22 -3 46t-12.5 44t-27 33.5t-46.5 13.5zM353 660q51 0 85.5 -18.5t55 -49.5t29.5 -72t9 -86
q0 -84 -19.5 -164t-56.5 -142.5t-90.5 -100t-122.5 -37.5q-48 0 -82.5 17t-56 47t-32 71t-10.5 89q0 85 19.5 165.5t57 143t91.5 100t123 37.5z" />
    <glyph glyph-name="one" unicode="1" horiz-adv-x="450" 
d="M154 498l-22 72l175 83h81l-111 -653h-100l95 553h-2z" />
    <glyph glyph-name="two" unicode="2" horiz-adv-x="515" 
d="M294 574q-42 0 -76.5 -11.5t-66.5 -28.5l-11 78q37 22 86 35t96 13q46 0 79 -13.5t55 -36t32.5 -52.5t10.5 -64q0 -56 -25.5 -108t-69.5 -101.5t-103.5 -98.5t-127.5 -99v-1h274l-21 -86h-411l12 68q71 56 137 108.5t117 103.5t82 100t31 98q0 19 -6 36.5t-18 30.5
t-31 21t-45 8z" />
    <glyph glyph-name="three" unicode="3" horiz-adv-x="515" 
d="M197 75q39 0 67.5 10.5t47.5 28.5t28.5 41t9.5 47q0 54 -39.5 78t-102.5 24h-42l20 82h39q28 0 55.5 7t50 21t36.5 35.5t14 51.5q0 34 -23 53.5t-68 19.5q-40 0 -75 -8.5t-65 -23.5l-8 79q35 17 79.5 28t89.5 11q39 0 71.5 -9.5t56 -27.5t36.5 -44t13 -58t-11 -59.5
t-31 -50t-47 -38.5t-59 -24v-2q55 -13 85 -51.5t30 -94.5q0 -49 -21 -88t-57 -66.5t-84 -42t-102 -14.5q-53 0 -96.5 11t-67.5 26l26 81q26 -12 62.5 -22.5t81.5 -10.5z" />
    <glyph glyph-name="four" unicode="4" horiz-adv-x="522" 
d="M326 251l38 204l19 98l-2 1l-74 -98l-164 -203v-2h183zM492 653l-69 -402h81l-20 -82h-76l-28 -169h-98l30 169h-288l13 73l337 411h118z" />
    <glyph glyph-name="five" unicode="5" horiz-adv-x="515" 
d="M218 409q22 3 40 3q42 0 78.5 -11t64 -33t43.5 -54.5t16 -75.5q0 -60 -22.5 -106t-60 -77.5t-88 -48t-105.5 -16.5q-49 0 -91 9.5t-65 23.5l23 83q25 -13 61 -21.5t77 -8.5q39 0 70 11.5t52 31.5t32 47t11 58q0 51 -36.5 79t-121.5 28q-23 0 -43.5 -0.5t-43.5 -2.5l-1 2
l79 320h323l-20 -88h-232z" />
    <glyph glyph-name="six" unicode="6" horiz-adv-x="532" 
d="M337 429q39 0 69 -13.5t51 -37t31.5 -56t10.5 -70.5q0 -52 -18 -99.5t-51 -83.5t-79 -57.5t-102 -21.5q-49 0 -85 16t-60 45t-36 69t-12 87q0 94 32.5 177.5t92 145.5t142 97.5t182.5 35.5l-13 -84q-47 0 -93.5 -11.5t-88.5 -38t-76 -68t-54 -99.5h2q29 31 71 49t84 18z
M163 265q-5 -17 -7 -35t-2 -31q0 -61 28 -95.5t77 -34.5q29 0 54 14t44 37t29.5 54t10.5 65q0 52 -26 81.5t-74 29.5q-42 0 -77.5 -25t-56.5 -60z" />
    <glyph glyph-name="seven" unicode="7" horiz-adv-x="489" 
d="M110 563l19 87h400l-12 -71l-359 -579h-112l307 485l51 76v2h-294z" />
    <glyph glyph-name="eight" unicode="8" horiz-adv-x="536" 
d="M345 661q39 0 72.5 -10.5t57.5 -30.5t37 -49t11 -65q-3 -56 -37.5 -96t-91.5 -66v-2q53 -28 77.5 -68t22.5 -88q-2 -47 -23.5 -84t-56 -62t-78 -38t-89.5 -13q-49 0 -87.5 12t-64.5 34t-39.5 53t-11.5 68q3 68 46 114t106 71v3q-83 53 -78 135q2 42 21.5 75.5t50.5 57.5
t71 36.5t84 12.5zM257 66q57 0 93.5 31.5t38.5 81.5q2 49 -29 78t-83 46q-23 -7 -45.5 -18.5t-40 -28.5t-29 -39t-12.5 -49q-1 -20 5 -38.5t19 -32.5t33.5 -22.5t49.5 -8.5zM331 584q-49 0 -80 -29.5t-33 -71.5q-2 -38 23.5 -64t72.5 -40q20 6 39 17t34 26t24.5 33.5
t10.5 39.5q1 18 -4 34t-16 28t-28.5 19.5t-42.5 7.5z" />
    <glyph glyph-name="nine" unicode="9" horiz-adv-x="532" 
d="M254 226q-40 0 -70.5 13t-51.5 36t-32 54t-11 67q0 52 18.5 100t52 84.5t80 58t101.5 21.5q47 0 82.5 -16t58.5 -44t35 -66t12 -82q-1 -95 -32 -180t-89 -149t-141.5 -101t-188.5 -35l11 83q44 -1 91 9.5t89.5 36t78 67.5t56.5 105h-3q-29 -30 -69 -46t-78 -16zM422 389
q6 30 6 64q0 57 -24 92t-75 35q-28 0 -53 -13t-44 -35.5t-30 -52.5t-11 -65q0 -46 24 -77t73 -31q44 0 78.5 24t55.5 59z" />
    <glyph glyph-name="colon" unicode=":" horiz-adv-x="237" 
d="M41 46q0 15 5.5 30t16 27t25 19.5t32.5 7.5q26 0 41 -16t15 -41q0 -15 -5.5 -30t-16 -27t-25 -19.5t-32.5 -7.5q-26 0 -41 16t-15 41zM98 384q0 15 6 30.5t16.5 27.5t25 19.5t31.5 7.5q26 0 41 -16.5t15 -40.5q0 -15 -5.5 -30t-16 -27t-25 -19.5t-32.5 -7.5q-26 0 -41 16
t-15 40z" />
    <glyph glyph-name="semicolon" unicode=";" horiz-adv-x="252" 
d="M-3 -124q35 59 57.5 123.5t36.5 132.5l93 -13q-12 -35 -28 -72t-33.5 -71.5t-35.5 -64t-33 -50.5zM113 384q0 15 5.5 30.5t16 27.5t25 19.5t32.5 7.5q26 0 41 -16.5t15 -40.5q0 -15 -5.5 -30t-16 -27t-25 -19.5t-32.5 -7.5q-26 0 -41 16t-15 40z" />
    <glyph glyph-name="less" unicode="&#x3c;" horiz-adv-x="559" 
d="M73 244l9 55l475 224l-15 -85l-366 -168l-1 -2l311 -167l-13 -82z" />
    <glyph glyph-name="equal" unicode="=" horiz-adv-x="580" 
d="M534 208l-12 -72h-474l12 72h474zM566 401l-12 -72h-473l11 72h474z" />
    <glyph glyph-name="greater" unicode="&#x3e;" horiz-adv-x="559" 
d="M521 299l-8 -55l-475 -225l14 86l366 168l1 2l-311 167l14 81z" />
    <glyph glyph-name="question" unicode="?" horiz-adv-x="411" 
d="M175 692q14 2 28.5 3t30.5 1q49 0 84.5 -11t58 -29.5t33.5 -44t11 -54.5q0 -38 -13 -67.5t-33 -54t-43.5 -46t-45 -44t-38.5 -48t-22 -58.5q-3 -14 -3 -24h-91q0 4 0.5 14.5t1.5 15.5q2 34 16.5 61.5t34.5 50t42.5 43t42 41t32 42.5t12.5 49q0 37 -31 58.5t-88 21.5
q-6 0 -13 -0.5t-15 -1.5zM84 46q0 15 5.5 30t16 27t25 19.5t32.5 7.5q26 0 41 -16t15 -41q0 -15 -5.5 -30t-16 -27t-25 -19.5t-32.5 -7.5q-26 0 -41 16t-15 41z" />
    <glyph glyph-name="at" unicode="@" horiz-adv-x="799" 
d="M469 147q-37 -55 -77.5 -83t-73.5 -28q-48 0 -71.5 28t-23.5 71q0 49 23.5 100.5t62.5 93.5t90 69t106 27q27 0 60.5 -8.5t55.5 -22.5q-9 -27 -21.5 -60t-24.5 -67t-21.5 -65.5t-12.5 -56t3 -39.5t24 -15q38 0 66 26.5t47 64.5t28 80.5t9 74.5q0 44 -13.5 80.5t-41 63
t-69 41.5t-97.5 15q-78 0 -146.5 -32.5t-119.5 -87t-80.5 -126.5t-29.5 -150q0 -50 15 -92t44 -72t70.5 -47t94.5 -17q32 0 60 5t55 15l1 -55q-32 -13 -65 -18t-67 -5q-60 0 -110.5 19.5t-87.5 55t-58 86t-21 113.5q0 89 33.5 173t94.5 149.5t145.5 105t186.5 39.5
q63 0 114 -18.5t86 -51.5t54 -79.5t19 -101.5q0 -47 -16 -100.5t-47 -99.5t-75.5 -76t-101.5 -30q-47 0 -65 30.5t-9 77.5h-2zM532 357q-6 4 -16 6.5t-27 2.5q-35 0 -67.5 -20.5t-58 -52t-40.5 -69.5t-15 -72q0 -27 13 -40.5t36 -13.5q15 0 34 11t39.5 32t39.5 52.5t33 72.5
z" />
    <glyph glyph-name="A" unicode="A" horiz-adv-x="572" 
d="M533 0h-107l-24 197h-217l-92 -197h-108l329 684h124zM359 595l-43 -102l-97 -215h176l-24 214l-10 103h-2z" />
    <glyph glyph-name="B" unicode="B" horiz-adv-x="546" 
d="M194 316l-40 -234q30 -3 64 -3q36 0 69 6t59 21t41.5 40.5t16.5 64.5q0 54 -34 79.5t-88 25.5h-88zM329 604q-25 0 -46.5 -1t-38.5 -3l-36 -204h66q34 0 63 7t51 22t34.5 38.5t12.5 56.5q0 42 -29 63t-77 21zM156 676q39 5 83 7.5t91 2.5q48 0 86.5 -9t66 -27.5t42.5 -47
t15 -67.5q0 -65 -38 -112t-97 -64v-1q45 -14 74.5 -51.5t29.5 -94.5q0 -66 -28 -107.5t-74 -65.5t-104 -33t-118 -9q-43 0 -79.5 2t-64.5 4z" />
    <glyph glyph-name="B" unicode="&#xe000;" horiz-adv-x="546" 
d="M194 316l-40 -234q30 -3 64 -3q36 0 69 6t59 21t41.5 40.5t16.5 64.5q0 54 -34 79.5t-88 25.5h-88zM329 604q-25 0 -46.5 -1t-38.5 -3l-36 -204h66q34 0 63 7t51 22t34.5 38.5t12.5 56.5q0 42 -29 63t-77 21zM156 676q39 5 83 7.5t91 2.5q48 0 86.5 -9t66 -27.5t42.5 -47
t15 -67.5q0 -65 -38 -112t-97 -64v-1q45 -14 74.5 -51.5t29.5 -94.5q0 -66 -28 -107.5t-74 -65.5t-104 -33t-118 -9q-43 0 -79.5 2t-64.5 4z" />
    <glyph glyph-name="C" unicode="C" horiz-adv-x="552" 
d="M431 607q-64 0 -113 -28t-82.5 -74t-50.5 -104.5t-17 -119.5q0 -45 10.5 -82.5t32.5 -64.5t56.5 -42.5t81.5 -15.5q40 0 79.5 7t71.5 21l3 -84q-32 -13 -77 -21.5t-99 -8.5q-65 0 -115 20t-84 57t-51.5 88t-17.5 114q0 87 26.5 164t76 134.5t121 91t161.5 33.5
q54 0 94 -9.5t59 -20.5l-24 -83q-25 12 -61.5 20t-80.5 8z" />
    <glyph glyph-name="D" unicode="D" horiz-adv-x="637" 
d="M157 676q45 5 90.5 7.5t93.5 2.5q144 0 217.5 -69t73.5 -206q0 -90 -26.5 -166t-78 -131t-128 -86t-176.5 -31q-56 0 -101.5 2t-80.5 4zM334 602q-23 0 -46 -0.5t-43 -2.5l-89 -516q18 -2 37 -2h37q69 -1 124 22t93 65.5t58 102.5t20 134q0 44 -11 80.5t-34 62.5t-59 40
t-87 14z" />
    <glyph glyph-name="E" unicode="E" horiz-adv-x="490" 
d="M507 597h-263l-35 -202h246l-21 -86h-240l-38 -223h283l-21 -86h-378l118 683h370z" />
    <glyph glyph-name="E" unicode="&#xe001;" horiz-adv-x="490" 
d="M507 597h-263l-35 -202h246l-21 -86h-240l-38 -223h283l-21 -86h-378l118 683h370z" />
    <glyph glyph-name="F" unicode="F" horiz-adv-x="476" 
d="M506 597h-262l-37 -213h242l-21 -86h-236l-51 -298h-101l118 683h369z" />
    <glyph glyph-name="G" unicode="G" horiz-adv-x="611" 
d="M376 354h211l-56 -328q-35 -14 -86 -24t-108 -10q-66 0 -117.5 19.5t-87.5 55.5t-54.5 87t-18.5 115q0 86 27 162.5t78 134.5t123.5 91.5t163.5 33.5q57 0 100.5 -10t66.5 -21l-25 -86q-29 14 -66.5 21.5t-82.5 7.5q-65 0 -116 -26.5t-86.5 -71t-54.5 -103.5t-19 -124
q1 -94 46.5 -147t139.5 -53q27 0 49 3.5t40 9.5l31 180h-119z" />
    <glyph glyph-name="H" unicode="H" horiz-adv-x="627" 
d="M141 0h-101l118 683h101l-50 -285h286l49 285h101l-118 -683h-101l53 309h-285z" />
    <glyph glyph-name="I" unicode="I" horiz-adv-x="240" 
d="M140 0h-101l117 683h101z" />
    <glyph glyph-name="J" unicode="J" horiz-adv-x="235" 
d="M157 683h101l-86 -505q-13 -81 -34 -140.5t-54.5 -99.5t-82 -61.5t-115.5 -25.5v87q51 6 83.5 25t52.5 50.5t31 75t20 97.5z" />
    <glyph glyph-name="K" unicode="K" horiz-adv-x="542" 
d="M202 358l66 47l227 278h124l-275 -309l169 -374h-116l-137 315l-74 -47l-46 -268h-100l118 683h100z" />
    <glyph glyph-name="L" unicode="L" horiz-adv-x="461" 
d="M259 683l-103 -596h277l-21 -87h-372l118 683h101z" />
    <glyph glyph-name="M" unicode="M" horiz-adv-x="774" 
d="M311 0l-70 566h-2l-37 -203l-76 -363h-97l147 683h131l56 -417l14 -133h3l59 131l204 419h132l-90 -683h-100q2 19 6.5 48t9.5 63t10 70.5t10 70.5t9 63t7 48l36 203h-3l-277 -566h-82z" />
    <glyph glyph-name="N" unicode="N" horiz-adv-x="631" 
d="M424 0q-49 134 -101 270t-95 269h-3l-88 -539h-97l118 683h115q53 -135 86.5 -223.5t54 -146.5t31.5 -95t20 -68h3l84 533h97l-118 -683h-107z" />
    <glyph glyph-name="O" unicode="O" horiz-adv-x="659" 
d="M395 608q-59 0 -102 -31.5t-71 -81t-41.5 -111t-13.5 -120.5q0 -39 8 -74t26.5 -60.5t48 -40.5t72.5 -15q57 0 99.5 30.5t71 79.5t42.5 111t14 124q0 37 -7 71t-24.5 60t-47 42t-75.5 16zM407 693q66 0 112.5 -22t76.5 -59.5t44 -88t14 -107.5q0 -72 -20.5 -148
t-62.5 -137.5t-107.5 -101t-155.5 -39.5q-64 0 -110.5 21.5t-76.5 59t-44.5 87.5t-14.5 107q0 72 20.5 148t63 138t107.5 102t154 40z" />
    <glyph glyph-name="P" unicode="P" 
d="M276 269q-47 0 -90 3l-46 -272h-100l116 676q34 5 74.5 7.5t82.5 2.5q116 0 175 -41.5t59 -131.5q0 -60 -21 -105.5t-58 -76.5t-86 -46.5t-106 -15.5zM243 599q-1 -7 -4.5 -25.5t-8 -43t-9 -52.5t-9 -52.5t-7.5 -43t-4 -25.5q17 -2 33 -3t34 -1q78 0 127 38.5t49 112.5
q0 57 -34 78t-96 21q-22 0 -39.5 -1t-31.5 -3z" />
    <glyph glyph-name="Q" unicode="Q" horiz-adv-x="659" 
d="M395 608q-59 0 -102 -31.5t-71 -81t-41.5 -111t-13.5 -120.5q0 -39 8 -73t26.5 -58.5t48.5 -38.5t73 -14q57 0 99 29.5t70.5 77.5t42.5 109t14 123q0 37 -7 71t-24.5 60t-47 42t-75.5 16zM506 87h159l-21 -87h-335q-63 0 -109.5 20t-77 55.5t-45.5 84t-15 105.5
q0 72 20.5 148t63 138t107.5 102t154 40q66 0 112.5 -22t76.5 -59.5t44 -88t14 -107.5q0 -45 -9 -91.5t-27 -89.5t-46 -80.5t-66 -65.5v-2z" />
    <glyph glyph-name="R" unicode="R" horiz-adv-x="541" 
d="M547 522q0 -38 -11.5 -71.5t-33.5 -61t-53.5 -47t-71.5 -28.5v-2l116 -312h-109l-101 290h-92l-50 -290h-101l117 676q39 5 84.5 7.5t90.5 2.5q104 0 159.5 -41.5t55.5 -122.5zM204 368h71q74 0 120.5 36t46.5 106q0 53 -34 73t-94 20q-22 0 -39 -1t-31 -3z" />
    <glyph glyph-name="S" unicode="S" horiz-adv-x="483" 
d="M207 76q26 0 50 7.5t42.5 21.5t29.5 35.5t11 49.5q0 31 -17.5 54t-44 41.5t-57 36.5t-57 40t-44 51t-17.5 70q0 52 19.5 91t52.5 65.5t76 40t90 13.5q50 0 89 -10t64 -23l-27 -84q-23 11 -57.5 20.5t-74.5 9.5q-57 0 -91.5 -29t-34.5 -73q0 -31 17.5 -52t44 -38.5t57 -35
t57 -40t44 -54t17.5 -76.5q0 -51 -19 -91t-52.5 -68.5t-80 -43.5t-100.5 -15q-52 0 -99.5 11.5t-73.5 28.5l27 84q33 -17 74 -27.5t85 -10.5z" />
    <glyph glyph-name="S" unicode="&#xe002;" horiz-adv-x="483" 
d="M207 76q26 0 50 7.5t42.5 21.5t29.5 35.5t11 49.5q0 31 -17.5 54t-44 41.5t-57 36.5t-57 40t-44 51t-17.5 70q0 52 19.5 91t52.5 65.5t76 40t90 13.5q50 0 89 -10t64 -23l-27 -84q-23 11 -57.5 20.5t-74.5 9.5q-57 0 -91.5 -29t-34.5 -73q0 -31 17.5 -52t44 -38.5t57 -35
t57 -40t44 -54t17.5 -76.5q0 -51 -19 -91t-52.5 -68.5t-80 -43.5t-100.5 -15q-52 0 -99.5 11.5t-73.5 28.5l27 84q33 -17 74 -27.5t85 -10.5z" />
    <glyph glyph-name="T" unicode="T" horiz-adv-x="483" 
d="M78 596l22 87h462l-21 -87h-179l-102 -596h-101l102 596h-183z" />
    <glyph glyph-name="U" unicode="U" horiz-adv-x="619" 
d="M282 -10q-95 0 -151 48.5t-56 147.5q0 27 3.5 54.5t8.5 58.5l66 384h101l-70 -408q-6 -36 -6.5 -72t10.5 -64.5t36 -46t71 -17.5q74 0 115.5 49.5t58.5 149.5l71 409h101l-71 -408q-24 -146 -93.5 -215.5t-194.5 -69.5z" />
    <glyph glyph-name="V" unicode="V" horiz-adv-x="557" 
d="M301 0h-118l-93 683h106l52 -449l12 -126h3l54 126l207 449h112z" />
    <glyph glyph-name="W" unicode="W" horiz-adv-x="819" 
d="M609 0h-115l-18 439l-2 109h-2l-41 -109l-180 -439h-116l-36 683h104l12 -568h3l47 127l177 441h112l16 -442l-1 -126h2l214 568h108z" />
    <glyph glyph-name="X" unicode="X" horiz-adv-x="525" 
d="M106 0h-120l249 349l-123 334h111l59 -180l27 -92h3l53 89l120 183h119l-243 -334l133 -349h-112l-59 170l-35 114h-2l-70 -114z" />
    <glyph glyph-name="Y" unicode="Y" horiz-adv-x="525" 
d="M288 357l59 106l134 220h119l-279 -413l-46 -270h-101l46 268l-132 415h112l59 -220l26 -106h3z" />
    <glyph glyph-name="Z" unicode="Z" horiz-adv-x="514" 
d="M554 615l-409 -526v-3h324l-20 -86h-452l10 64l413 530v2h-295l22 87h418z" />
    <glyph glyph-name="bracketleft" unicode="[" horiz-adv-x="304" 
d="M19 -159l154 908h195l-14 -63h-109l-131 -782h111l-12 -63h-194z" />
    <glyph glyph-name="backslash" unicode="\" horiz-adv-x="373" 
d="M164 690l181 -716h-79l-179 716h77z" />
    <glyph glyph-name="bracketright" unicode="]" horiz-adv-x="304" 
d="M-22 -158l12 63h110l132 780h-111l12 64h193l-153 -907h-195z" />
    <glyph glyph-name="asciicircum" unicode="^" horiz-adv-x="566" 
d="M142 292h-69l252 383h59l120 -383h-67l-95 301h-1z" />
    <glyph glyph-name="underscore" unicode="_" horiz-adv-x="538" 
d="M471 -63l-8 -51h-475l9 51h474z" />
    <glyph glyph-name="grave" unicode="`" horiz-adv-x="377" 
d="M399 546h-67l-102 151h110z" />
    <glyph glyph-name="a" unicode="a" 
d="M484 300q-14 -79 -24.5 -154t-12.5 -146h-96l15 134h-2q-32 -66 -78 -105t-99 -39q-68 0 -105.5 46.5t-37.5 119.5q0 63 22 124.5t60 110t89.5 78.5t110.5 30q24 0 50 -5.5t47 -19.5h2l12 16l82 6zM403 406q-9 6 -24.5 11.5t-37.5 5.5q-41 0 -76.5 -21t-61.5 -55.5
t-40.5 -80t-14.5 -94.5q0 -44 17 -72.5t59 -28.5q22 0 46.5 15.5t47 44t40 70t26.5 93.5z" />
    <glyph glyph-name="b" unicode="b" horiz-adv-x="534" 
d="M160 727l101 4l-59 -336h2q28 48 70.5 77t93.5 29q39 0 67 -15t45.5 -40t25.5 -57.5t8 -67.5q0 -61 -18.5 -120t-55 -106t-91.5 -76t-127 -29q-113 0 -158 80q-3 34 0.5 85.5t14.5 114.5zM328 419q-38 0 -70.5 -29.5t-55 -75.5t-34 -102t-8.5 -108q23 -37 79 -37
q41 0 73 22t53.5 57t33 78.5t11.5 85.5q0 46 -19 77.5t-63 31.5z" />
    <glyph glyph-name="b" unicode="&#xe003;" horiz-adv-x="534" 
d="M160 727l101 4l-59 -336h2q28 48 70.5 77t93.5 29q39 0 67 -15t45.5 -40t25.5 -57.5t8 -67.5q0 -61 -18.5 -120t-55 -106t-91.5 -76t-127 -29q-113 0 -158 80q-3 34 0.5 85.5t14.5 114.5zM328 419q-38 0 -70.5 -29.5t-55 -75.5t-34 -102t-8.5 -108q23 -37 79 -37
q41 0 73 22t53.5 57t33 78.5t11.5 85.5q0 46 -19 77.5t-63 31.5z" />
    <glyph glyph-name="c" unicode="c" horiz-adv-x="445" 
d="M343 419q-42 0 -77.5 -17.5t-60.5 -48t-39 -71.5t-14 -87q0 -63 32 -93.5t86 -30.5q35 0 67 8t55 17l7 -77q-26 -11 -69 -20t-88 -9q-94 0 -144 51.5t-51 139.5q0 67 21.5 125.5t61 101.5t94.5 68t122 25q35 0 66 -6.5t50 -15.5l-22 -79q-17 7 -42.5 13t-54.5 6z" />
    <glyph glyph-name="d" unicode="d" horiz-adv-x="533" 
d="M418 473l42 254l102 4l-81 -466q-12 -72 -20 -140.5t-11 -124.5h-96l15 134h-2q-32 -66 -78 -105t-101 -39q-33 0 -59.5 12.5t-45 35.5t-28.5 55t-10 71q0 56 19.5 115.5t55 108t86 80t113.5 31.5q28 0 51 -6t46 -20h2zM406 403q-11 8 -28 14.5t-42 6.5q-40 0 -74 -20.5
t-59.5 -55t-40 -80t-14.5 -94.5q0 -46 18.5 -74.5t60.5 -28.5q23 0 47 15t46 43t39 67.5t26 88.5z" />
    <glyph glyph-name="e" unicode="e" horiz-adv-x="479" 
d="M148 221q-3 -15 -3 -32q0 -60 33.5 -89.5t83.5 -29.5q39 0 76.5 8.5t66.5 22.5l9 -74q-35 -17 -81.5 -27t-94.5 -10q-50 0 -86 14t-59.5 40t-35 62.5t-11.5 80.5q0 63 19.5 120t55 100t85.5 68.5t110 25.5q37 0 65.5 -10t48 -27.5t30 -40.5t11.5 -49q0 -77 -65 -117.5
t-181 -40.5q-18 0 -37.5 1t-39.5 4zM158 287q18 -3 34.5 -4t32.5 -1q69 0 109 23.5t40 60.5q0 26 -19 42t-53 16q-27 0 -50 -10.5t-42 -29.5t-32 -44t-20 -53z" />
    <glyph glyph-name="f" unicode="f" horiz-adv-x="303" 
d="M139 490q10 61 26 107t40.5 77t58.5 46t81 15q17 0 32 -2t29 -4l-18 -81q-15 3 -28 3q-30 0 -50 -7.5t-33.5 -26t-22 -50t-15.5 -77.5h106l-19 -76h-101l-83 -505h-101l84 505h-63l19 73z" />
    <glyph glyph-name="g" unicode="g" horiz-adv-x="533" 
d="M367 134q-32 -66 -78.5 -105t-98.5 -39q-68 0 -106 46.5t-38 119.5q0 63 22 124.5t60 110t89.5 78.5t111.5 30q24 0 50 -6t47 -20h2l12 17l82 6l-83 -478q-23 -129 -93 -188.5t-178 -59.5q-42 0 -83 8t-69 23l21 79q24 -13 61 -21t74 -8q31 0 58.5 8.5t49.5 28t38.5 51.5
t25.5 78l25 117h-2zM406 406q-9 6 -24.5 11.5t-37.5 5.5q-41 0 -76.5 -21t-61.5 -55.5t-40.5 -80t-14.5 -94.5q0 -44 17 -72.5t59 -28.5q22 0 46.5 15.5t47 44t40 70t26.5 93.5z" />
    <glyph glyph-name="h" unicode="h" horiz-adv-x="545" 
d="M384 501q54 0 88.5 -32.5t34.5 -100.5q0 -23 -5 -51l-52 -317h-102l48 278q2 15 4 32.5t2 33.5q0 32 -12.5 53.5t-49.5 21.5q-27 0 -53 -21.5t-48.5 -54t-39 -71.5t-24.5 -73q-6 -27 -11 -51t-9 -47.5t-8 -48t-9 -52.5h-100l125 727l102 4l-62 -362h2q15 26 34.5 50
t42.5 42t49 29t53 11z" />
    <glyph glyph-name="i" unicode="i" horiz-adv-x="236" 
d="M122 490l101 3l-85 -493h-100zM140 639q0 26 19 47t46 21q23 0 37 -15.5t14 -38.5q0 -26 -18.5 -46.5t-45.5 -20.5q-23 0 -37.5 15t-14.5 38z" />
    <glyph glyph-name="j" unicode="j" horiz-adv-x="235" 
d="M146 40q-12 -71 -34 -120.5t-53 -81.5t-70.5 -48t-85.5 -19v77q30 6 52.5 18.5t40 34t29 53.5t19.5 76l79 460l101 3zM140 639q0 26 19 47t47 21q22 0 36.5 -15.5t14.5 -38.5q0 -26 -18.5 -46.5t-45.5 -20.5q-23 0 -38 15t-15 38z" />
    <glyph glyph-name="k" unicode="k" horiz-adv-x="494" 
d="M187 283q34 9 73.5 29.5t73 49t53.5 62.5t15 72l95 14q5 -41 -7 -77t-36 -67.5t-57 -57.5t-69 -46l135 -262h-116l-105 223q-16 -6 -35.5 -10.5t-33.5 -7.5l-35 -205h-100l125 727l101 4z" />
    <glyph glyph-name="l" unicode="l" horiz-adv-x="236" 
d="M163 727l102 4l-127 -731h-100z" />
    <glyph glyph-name="m" unicode="m" horiz-adv-x="828" 
d="M491 378q37 63 83 93t94 30q43 0 68.5 -16.5t38 -43.5t13.5 -62t-5 -72l-52 -307h-98l47 278q3 21 5.5 45.5t-1.5 46t-18.5 35.5t-44.5 14q-22 0 -45 -13t-43.5 -38t-36 -61.5t-23.5 -82.5l-39 -224h-99l48 280q3 18 6 42t-0.5 45.5t-16 36.5t-40.5 15q-22 0 -47.5 -18
t-49 -50.5t-42 -77t-27.5 -97.5l-29 -176h-99l52 300q8 50 15 97.5t14 92.5l92 3l-18 -132h2q14 25 33.5 50.5t43.5 45t50.5 32t55.5 12.5q59 0 86 -36t25 -87h2z" />
    <glyph glyph-name="n" unicode="n" horiz-adv-x="546" 
d="M384 501q39 0 64.5 -13.5t40 -37t18 -54.5t-2.5 -66l-54 -330h-102l48 279q3 21 5.5 45.5t-2 45.5t-19 35t-44.5 14q-21 0 -46 -16.5t-49 -48t-44 -76.5t-29 -102l-30 -176h-100l52 299q9 51 16 98.5t13 92.5l93 3l-19 -132h2q16 29 37.5 54.5t46 44.5t51 30t54.5 11z
" />
    <glyph glyph-name="o" unicode="o" horiz-adv-x="532" 
d="M318 501q52 0 90 -17.5t61.5 -47.5t33.5 -70.5t7 -86.5q-3 -58 -22.5 -110.5t-54 -92.5t-83.5 -63.5t-110 -23.5q-50 0 -87.5 17t-61.5 46.5t-34.5 70t-7.5 87.5q3 60 22.5 112.5t54.5 92.5t83.5 63t108.5 23zM307 422q-35 0 -62.5 -18t-47.5 -47.5t-31 -67.5t-13 -77
q-5 -66 20.5 -105t79.5 -39q33 0 60.5 18t47.5 47.5t32 67.5t14 78q2 28 -2 54t-16 45.5t-32 31.5t-50 12z" />
    <glyph glyph-name="p" unicode="p" horiz-adv-x="534" 
d="M328 419q-23 0 -47 -13t-45.5 -39.5t-38.5 -65t-25 -89.5q-1 -5 -4 -22t-6 -37t-6 -37t-4 -22q17 -12 39 -19t51 -7q38 0 69 21.5t53 56t34 78.5t12 89q0 20 -4.5 39t-14 34t-25.5 24t-38 9zM195 384q14 24 32.5 45.5t40.5 37.5t46.5 25t50.5 9q39 0 67 -14.5t46 -39.5
t27 -58t9 -69q0 -64 -19 -123.5t-54 -105.5t-84.5 -73.5t-110.5 -27.5q-35 0 -61.5 8t-43.5 22h-2l-40 -239h-101l88 518q8 48 15.5 95.5t13.5 95.5l93 3l-15 -109h2z" />
    <glyph glyph-name="q" unicode="q" horiz-adv-x="534" 
d="M369 134h-2q-32 -66 -78.5 -105t-98.5 -39q-68 0 -106 46.5t-38 119.5q0 63 22 124.5t60 110t89.5 78.5t110.5 30q25 0 50.5 -5.5t47.5 -19.5h2l12 16l81 6l-35 -196l-86 -519h-102l40 219zM406 406q-9 6 -25 11.5t-37 5.5q-41 0 -76.5 -21t-61.5 -55.5t-40.5 -80
t-14.5 -94.5q0 -44 17 -72.5t59 -28.5q22 0 46.5 15.5t47 44t40 70t26.5 93.5z" />
    <glyph glyph-name="r" unicode="r" horiz-adv-x="342" 
d="M195 374q13 25 30.5 48.5t40 41.5t50 28.5t60.5 10.5l-19 -99q-43 1 -74.5 -15.5t-54 -45.5t-36 -67t-19.5 -78l-35 -198h-100l52 299q8 51 15.5 100t12.5 91l92 3l-18 -119h3z" />
    <glyph glyph-name="s" unicode="s" horiz-adv-x="410" 
d="M173 67q41 0 65 19t24 50q0 20 -13 35t-33 27.5t-43 25.5t-43 29.5t-33 38.5t-13 54q0 38 15.5 66.5t41.5 48t61.5 29.5t74.5 10q35 0 66 -6.5t54 -17.5l-21 -76q-18 9 -47 16.5t-59 7.5q-35 0 -59.5 -16.5t-25.5 -44.5q0 -20 13.5 -34.5t33.5 -26.5t43 -24.5t43 -28.5
t33.5 -38t13.5 -53q0 -43 -16 -74.5t-44 -52.5t-64.5 -31t-76.5 -10q-39 0 -78 8.5t-62 22.5l22 75q23 -11 59 -20t68 -9z" />
    <glyph glyph-name="s" unicode="&#xe004;" horiz-adv-x="410" 
d="M173 67q41 0 65 19t24 50q0 20 -13 35t-33 27.5t-43 25.5t-43 29.5t-33 38.5t-13 54q0 38 15.5 66.5t41.5 48t61.5 29.5t74.5 10q35 0 66 -6.5t54 -17.5l-21 -76q-18 9 -47 16.5t-59 7.5q-35 0 -59.5 -16.5t-25.5 -44.5q0 -20 13.5 -34.5t33.5 -26.5t43 -24.5t43 -28.5
t33.5 -38t13.5 -53q0 -43 -16 -74.5t-44 -52.5t-64.5 -31t-76.5 -10q-39 0 -78 8.5t-62 22.5l22 75q23 -11 59 -20t68 -9z" />
    <glyph glyph-name="t" unicode="t" horiz-adv-x="332" 
d="M81 123q0 7 3 28.5t7.5 50.5t10 61.5t10.5 62.5t9.5 53.5t6.5 34.5h-65l18 73l61 3l26 111l95 21l-22 -132h115l-19 -76h-110l-37 -215q-3 -15 -6.5 -36.5t-2.5 -41t11 -33t34 -13.5q13 0 26 1.5t27 6.5q-2 -15 -4.5 -40.5t-4.5 -40.5q-17 -5 -41 -8.5t-45 -3.5
q-65 0 -87 37.5t-16 95.5z" />
    <glyph glyph-name="u" unicode="u" horiz-adv-x="541" 
d="M372 117q-34 -66 -85 -96.5t-100 -30.5t-76.5 19t-39 50t-10.5 71.5t9 82.5l48 277h101l-47 -273q-3 -20 -5.5 -45.5t2 -47.5t19 -37t46.5 -15q20 0 42.5 11.5t43.5 33.5t38 54.5t26 75.5q4 18 10 51.5t12 70t12 70t9 51.5h100l-33 -190q-18 -105 -26 -176t-11 -124h-96
l13 117h-2z" />
    <glyph glyph-name="v" unicode="v" horiz-adv-x="462" 
d="M125 0l-74 490h101l38 -289l14 -99h2l63 101l65 103q27 45 35 93.5t-6 90.5h95q7 -20 9.5 -45t-1 -52.5t-14 -57t-28.5 -56.5l-189 -279h-110z" />
    <glyph glyph-name="w" unicode="w" horiz-adv-x="747" 
d="M475 201l14 -99h2l64 101l65 103q27 45 35 93.5t-6 90.5h94q7 -20 9.5 -45t-1 -52.5t-14 -57t-28.5 -56.5l-188 -279h-110l-31 219h-2l-23 -43l-120 -176h-110l-74 490h101l38 -289l14 -99h2l63 101l92 148l-19 139h95z" />
    <glyph glyph-name="x" unicode="x" horiz-adv-x="459" 
d="M228 186h-2l-132 -186h-113l204 253q-4 9 -12.5 27.5t-19.5 42t-23.5 49.5t-23.5 49t-20 41.5t-13 27.5h111l71 -174h2l124 174h115l-197 -237l117 -253h-111z" />
    <glyph glyph-name="y" unicode="y" horiz-adv-x="471" 
d="M165 490l40 -289l14 -106h3l60 104l66 107q26 45 34.5 93.5t-5.5 90.5h94q7 -20 9.5 -45t-1 -52.5t-13.5 -57t-29 -56.5l-198 -294l10 -63q6 -42 -2.5 -72.5t-36 -50.5t-76.5 -29.5t-123 -9.5v85q45 0 75 4t46.5 13t22 22.5t2.5 31.5l-92 574h100z" />
    <glyph glyph-name="y" unicode="&#xe006;" horiz-adv-x="471" 
d="M165 490l40 -289l14 -106h3l60 104l66 107q26 45 34.5 93.5t-5.5 90.5h94q7 -20 9.5 -45t-1 -52.5t-13.5 -57t-29 -56.5l-198 -294l10 -63q6 -42 -2.5 -72.5t-36 -50.5t-76.5 -29.5t-123 -9.5v85q45 0 75 4t46.5 13t22 22.5t2.5 31.5l-92 574h100z" />
    <glyph glyph-name="z" unicode="z" horiz-adv-x="427" 
d="M441 422l-311 -340v-2h258l-18 -80h-376l10 65l315 343v3h-237l18 79h352z" />
    <glyph glyph-name="braceleft" unicode="{" horiz-adv-x="344" 
d="M384 689q-54 0 -81.5 -19.5t-35.5 -71.5q-2 -6 -4 -29.5t-4 -52t-4.5 -55.5t-4.5 -41q-5 -33 -15 -56t-25 -38t-34 -23.5t-41 -14.5v-2q32 -9 54.5 -29.5t22.5 -58.5q0 -19 -7.5 -52t-16.5 -68t-16.5 -67t-8.5 -48q0 -34 15 -50t48 -18q3 0 14.5 -0.5t15.5 -0.5l-16 -56
q-81 0 -120.5 21.5t-39.5 84.5q0 29 8 60.5t17.5 63.5t17.5 63.5t8 60.5t-15.5 47t-62.5 20l9 58q56 4 77.5 25.5t29.5 65.5q4 23 6 48.5t3 51t2.5 50.5t5.5 46q13 75 57.5 107t113.5 34h43z" />
    <glyph glyph-name="bar" unicode="|" horiz-adv-x="250" 
d="M165 -197h-80v971h80v-971z" />
    <glyph glyph-name="braceright" unicode="}" horiz-adv-x="341" 
d="M-2 -107q51 0 76.5 17.5t36.5 65.5q3 6 5.5 30t5 53.5t5 58t4.5 43.5q6 33 16 56t25 38t33.5 23.5t41.5 14.5v2q-32 9 -54.5 30t-22.5 59q0 20 7.5 53t16.5 68t16.5 66.5t7.5 47.5q0 38 -20 51.5t-73 18.5l16 56q36 0 65.5 -4t50.5 -15t32.5 -32t11.5 -55q0 -29 -8 -62
t-17.5 -66.5t-17.5 -64.5t-8 -55q0 -30 16 -48t63 -20l-10 -58q-54 -5 -75.5 -25t-29.5 -57q-5 -22 -7 -48.5t-3.5 -54t-3 -53.5t-5.5 -48q-7 -39 -22 -65.5t-37.5 -43t-52.5 -24t-67 -8.5h-34z" />
    <glyph glyph-name="asciitilde" unicode="~" horiz-adv-x="580" 
d="M85 250q3 33 14.5 59t29 44.5t39 28t45.5 9.5q27 0 55 -10.5t55 -23t52.5 -23t48.5 -10.5q25 0 39 15.5t21 52.5l56 -8q-5 -69 -39.5 -105t-79.5 -36q-30 0 -57.5 10.5t-54 23.5t-53 23.5t-54.5 10.5q-24 0 -38 -18.5t-22 -50.5z" />
    <glyph glyph-name="exclamdown" unicode="&#xa1;" horiz-adv-x="254" 
d="M103 285h84l-68 -487h-112zM238 456q0 -15 -5.5 -30t-16 -27t-25 -19.5t-32.5 -7.5q-26 0 -41 16t-15 41q0 15 5.5 30t16 27t25 19.5t32.5 7.5q26 0 41 -16t15 -41z" />
    <glyph glyph-name="cent" unicode="&#xa2;" horiz-adv-x="501" 
d="M395 553q26 -1 54.5 -7.5t47.5 -16.5l-26 -78q-17 9 -42.5 15.5t-58.5 6.5q-36 0 -69 -13.5t-59 -40t-41.5 -66t-15.5 -92.5q0 -63 32.5 -96.5t89.5 -33.5q32 0 63.5 7.5t54.5 16.5l1 -77q-23 -11 -55 -17.5t-64 -7.5l-17 -100h-75l18 101q-78 12 -116 63.5t-38 127.5
q0 62 18 114.5t50.5 92t76.5 65t96 33.5l17 104h75z" />
    <glyph glyph-name="sterling" unicode="&#xa3;" horiz-adv-x="527" 
d="M409 367l-19 -74h-132q-5 -62 -25.5 -116t-70.5 -93v-2h323l-18 -82h-429l3 53q60 41 90.5 101.5t32.5 138.5h-84l18 74h66q0 19 0.5 44.5t4.5 46.5q4 58 24.5 99t52.5 67.5t72.5 39t85.5 12.5q37 0 67 -7t48 -17l-23 -81q-20 9 -46 15t-52 6q-56 0 -90.5 -29.5
t-40.5 -95.5q-3 -26 -4 -51.5t-1 -48.5h147z" />
    <glyph glyph-name="currency" unicode="&#xa4;" horiz-adv-x="509" 
d="M288 492q33 0 60 -10t46 -27l81 82l35 -37l-86 -79q14 -19 24 -46t9 -61q-1 -38 -14 -71t-35 -57l72 -79l-37 -37l-68 82q-23 -20 -53 -29.5t-59 -9.5q-31 0 -59 10t-47 27l-77 -80l-34 37l82 77q-15 20 -25.5 47.5t-9.5 61.5q2 38 15.5 70.5t35.5 57.5l-73 79l37 37
l69 -82q22 17 51 27t60 10zM286 441q-28 0 -52.5 -12t-42.5 -32t-29 -47t-12 -57q-1 -31 9 -54.5t26 -40t37 -25t42 -8.5q28 0 52.5 11.5t43 31.5t29.5 47t11 58q1 26 -7 49t-23 40.5t-36 28t-48 10.5z" />
    <glyph glyph-name="yen" unicode="&#xa5;" horiz-adv-x="529" 
d="M181 0l26 157h-150l15 54h144l7 37h-150l15 54h134l-121 365h114l77 -306h2l178 306h115l-244 -365h140l-14 -54h-144l-6 -37h149l-15 -54h-143l-26 -157h-103z" />
    <glyph glyph-name="brokenbar" unicode="&#xa6;" horiz-adv-x="232" 
d="M187 371h-76l18 354h76zM159 -149h-76l18 353h76z" />
    <glyph glyph-name="section" unicode="&#xa7;" horiz-adv-x="521" 
d="M425 117q-1 -42 -19 -72.5t-47.5 -50.5t-66.5 -30t-76 -10q-41 0 -85 9.5t-74 27.5l23 70q25 -13 63.5 -24t77.5 -11q45 0 75 19.5t31 54.5q0 24 -17.5 41t-43 31t-56 27.5t-56 31t-43 41.5t-17.5 59q0 42 24.5 77t65.5 58v2q-12 13 -19.5 31.5t-7.5 37.5q0 40 17 69
t45 48.5t65 29t76 9.5q40 0 78 -8.5t62 -22.5l-22 -69q-23 11 -58 20t-70 9q-41 0 -69.5 -18.5t-28.5 -50.5q0 -21 17 -36t42 -28t55 -26t55 -30.5t42 -41.5t17 -59q0 -51 -23 -83.5t-57 -55.5v-2q25 -28 25 -74zM186 351q1 -25 18 -41t40.5 -28t50 -23t47.5 -26
q20 13 32.5 32t12.5 42q0 26 -16 43.5t-39 30t-48 23t-43 22.5q-24 -11 -39 -30t-16 -45z" />
    <glyph glyph-name="dieresis" unicode="&#xa8;" horiz-adv-x="408" 
d="M208 614q0 12 4.5 24.5t13 22t20.5 16t26 6.5q21 0 33.5 -13.5t12.5 -33.5q0 -24 -17.5 -46t-46.5 -22q-21 0 -33.5 13t-12.5 33zM397 614q0 12 4.5 24.5t13 22t20.5 16t26 6.5q21 0 33.5 -13.5t12.5 -33.5q0 -24 -17.5 -46t-46.5 -22q-21 0 -33.5 13t-12.5 33z" />
    <glyph glyph-name="copyright" unicode="&#xa9;" horiz-adv-x="761" 
d="M90 325q0 68 26.5 130.5t72.5 110t108.5 75.5t135.5 28q65 0 120.5 -24t96 -66t63.5 -98.5t23 -120.5q0 -71 -27 -133.5t-73 -109.5t-108 -74t-131 -27q-65 0 -121.5 24t-97.5 66t-64.5 98t-23.5 121zM430 627q-60 0 -113.5 -25t-93 -66.5t-62.5 -96.5t-23 -116
q0 -56 20 -104.5t55 -84t82.5 -56t102.5 -20.5q59 0 112 23.5t92.5 64t63 95.5t23.5 118q0 56 -20 105t-54.5 85t-82 57t-102.5 21zM442 467q-57 0 -93 -36.5t-36 -100.5q0 -50 28 -85t87 -35q60 0 101 23l6 -45q-23 -14 -49.5 -20.5t-52.5 -6.5q-47 0 -81 12t-55.5 34
t-32 52t-10.5 66q0 41 13.5 76.5t38 61t59.5 40t78 14.5q35 0 62 -7.5t41 -16.5l-10 -48q-15 8 -38.5 15t-55.5 7z" />
    <glyph glyph-name="ordfeminine" unicode="&#xaa;" horiz-adv-x="346" 
d="M353 567q-3 -20 -5.5 -40t-4.5 -37h-50l-9 38h-2q-20 -20 -46.5 -32t-58.5 -12q-44 0 -64.5 26t-14.5 62q4 28 16.5 45.5t30.5 27.5t41.5 14t50.5 4h65l5 36q3 14 3 25.5t-5 19.5t-17 12.5t-34 4.5q-29 0 -52 -6t-43 -14l-4 51q23 9 54.5 16t63.5 7q71 0 92 -27t11 -80z
M208 532q11 0 24 3.5t24.5 10.5t20.5 16.5t12 21.5l7 37h-55q-13 0 -25 -1t-22 -5t-17 -13t-10 -24q-4 -23 8.5 -34.5t32.5 -11.5z" />
    <glyph glyph-name="guillemotleft" unicode="&#xab;" horiz-adv-x="493" 
d="M144 252l90 -142l-54 -36l-113 183l175 182l43 -43zM334 252l90 -142l-54 -36l-114 183l176 182l43 -43z" />
    <glyph glyph-name="logicalnot" unicode="&#xac;" horiz-adv-x="596" 
d="M537 104h-64v200h-414v61h478v-261z" />
    <glyph glyph-name="registered" unicode="&#xae;" horiz-adv-x="582" 
d="M95 432q0 53 20.5 100t56 82t83.5 55.5t102 20.5q44 0 81.5 -15.5t65 -42.5t43 -64t15.5 -80q0 -51 -21 -98t-56.5 -83t-83 -57t-99.5 -21q-44 0 -82 16t-66 43.5t-43.5 64.5t-15.5 79zM352 654q-42 -1 -81 -18.5t-69 -47t-48 -68.5t-18 -83q0 -36 12.5 -67t35 -54
t54 -36t68.5 -13q43 0 82 17t68.5 46.5t47 69t17.5 83.5q0 36 -12.5 67t-35 54.5t-53.5 36.5t-68 13zM287 430l-14 -87h-39l37 226q20 2 39 3.5t38 1.5q45 0 63 -19t13 -51q-4 -24 -20.5 -42t-45.5 -26v-1l52 -92h-44l-48 87h-31zM293 463h33q23 0 38.5 9t18.5 30
q6 39 -42 39q-11 0 -19 -0.5t-16 -1.5z" />
    <glyph glyph-name="macron" unicode="&#xaf;" horiz-adv-x="429" 
d="M503 649l-10 -57h-259l10 57h259z" />
    <glyph glyph-name="degree" unicode="&#xb0;" horiz-adv-x="345" 
d="M128 584q0 26 10.5 49.5t27.5 41t40 28t49 10.5q47 0 78 -32t31 -79q0 -26 -10 -49.5t-27.5 -41t-40.5 -28t-49 -10.5q-47 0 -78 32t-31 79zM176 587q0 -28 18 -46.5t47 -18.5q32 0 53.5 22.5t21.5 54.5q0 28 -18.5 47t-46.5 19q-31 0 -53 -23t-22 -55z" />
    <glyph glyph-name="plusminus" unicode="&#xb1;" horiz-adv-x="581" 
d="M26 0l12 73h200l26 158h-199l12 73h199l35 205h75l-35 -205h199l-12 -73h-199l-27 -158h200l-13 -73h-473z" />
    <glyph glyph-name="twosuperior" unicode="&#xb2;" horiz-adv-x="314" 
d="M80 484q13 11 34.5 26.5t45.5 35t48 41.5t43.5 45t32 46.5t12.5 45.5q0 23 -13.5 38t-45.5 15q-26 -1 -47.5 -8t-38.5 -18l-9 51q25 15 55.5 24.5t64.5 9.5q51 0 80.5 -26.5t29.5 -73.5q0 -35 -17 -66.5t-45 -60.5t-62.5 -56t-68.5 -54v-1h160l-16 -57h-250z" />
    <glyph glyph-name="threesuperior" unicode="&#xb3;" horiz-adv-x="310" 
d="M184 488q43 0 65 21.5t22 51.5q0 31 -26 45.5t-61 14.5h-23l14 49h19q36 0 64.5 16.5t30.5 48.5q0 20 -13.5 32t-42.5 12q-22 0 -44 -6.5t-41 -17.5l-5 51q23 12 51 20t60 8q51 0 81 -23t30 -61q0 -37 -24 -62.5t-65 -38.5v-2q29 -8 49.5 -30t20.5 -54q0 -31 -12 -55
t-34 -40t-51.5 -24.5t-63.5 -8.5q-33 0 -61.5 7t-46.5 18l19 52q17 -10 39 -17t49 -7z" />
    <glyph glyph-name="acute" unicode="&#xb4;" horiz-adv-x="377" 
d="M466 697l-135 -151h-71l94 151h112z" />
    <glyph glyph-name="mu" unicode="&#xb5;" horiz-adv-x="541" 
d="M118 490h101l-47 -273q-3 -20 -5.5 -45.5t2 -47.5t19.5 -37t46 -15q20 0 42.5 11.5t43.5 33.5t38 54.5t26 75.5q4 18 10.5 51.5t12.5 70t11.5 70t8.5 51.5h101l-33 -190q-18 -105 -26.5 -176t-10.5 -124h-97l13 117h-2q-33 -66 -82 -96.5t-98 -30.5q-44 0 -60 24l-9 -58
q-6 -29 -13 -57t-17.5 -52t-25.5 -42t-37 -27l-66 37q26 17 39 53.5t24 93.5z" />
    <glyph glyph-name="paragraph" unicode="&#xb6;" horiz-adv-x="533" 
d="M180 -47l54 311q-27 0 -55.5 10t-51.5 29.5t-38 49t-15 69.5q0 62 24 108t65 77t96.5 48t117.5 21l-123 -717zM327 -47l124 720h73l-123 -714z" />
    <glyph glyph-name="periodcentered" unicode="&#xb7;" horiz-adv-x="241" 
d="M68 243q0 15 5.5 30t16 27t25 19.5t32.5 7.5q26 0 41 -16t15 -41q0 -15 -5.5 -30t-16 -27t-25 -19.5t-32.5 -7.5q-26 0 -41 16t-15 41z" />
    <glyph glyph-name="cedilla" unicode="&#xb8;" horiz-adv-x="381" 
d="M186 0l-26 -49q28 -11 44 -28t16 -40q0 -18 -9.5 -35t-26 -30t-39 -21t-49.5 -8q-31 0 -56 10l15 46q16 -4 36 -4q27 0 46 11t19 31q0 35 -54 43q3 16 11.5 36.5t21.5 37.5h51z" />
    <glyph glyph-name="onesuperior" unicode="&#xb9;" horiz-adv-x="270" 
d="M232 441h-72l56 327h-1l-73 -34l-15 47l116 52h56z" />
    <glyph glyph-name="ordmasculine" unicode="&#xba;" horiz-adv-x="353" 
d="M292 816q36 0 62 -12t41 -33t20.5 -49.5t1.5 -60.5q-4 -36 -18 -68.5t-37 -56.5t-54 -38.5t-69 -14.5q-34 0 -59.5 11.5t-41.5 32t-22.5 48.5t-2.5 61q4 37 18 70t37 57.5t54 38.5t70 14zM284 765q-22 0 -39.5 -10t-30.5 -27.5t-21 -40.5t-10 -49q-5 -47 11 -75.5
t53 -28.5q21 0 38.5 10t30.5 27t21.5 40.5t10.5 49.5q2 20 0 39t-9.5 33.5t-21 23t-33.5 8.5z" />
    <glyph glyph-name="guillemotright" unicode="&#xbb;" horiz-adv-x="497" 
d="M380 261l-90 143l54 35l113 -182l-175 -183l-43 44zM190 261l-90 143l54 35l114 -182l-176 -183l-43 44z" />
    <glyph glyph-name="onequarter" unicode="&#xbc;" horiz-adv-x="818" 
d="M692 674l-449 -681h-63q17 25 52 78.5t79.5 120.5t93 141.5t93 141.5t79.5 120.5t52 78.5h63zM219 281h-72l56 327h-1l-72 -34l-15 47l115 52h57zM657 153l19 106l14 69h-2l-40 -56l-94 -119h103zM766 393l-41 -240h48l-15 -53h-42l-18 -100h-68l17 100h-175l9 46
l204 247h81z" />
    <glyph glyph-name="onehalf" unicode="&#xbd;" horiz-adv-x="818" 
d="M673 674l-451 -681h-61l451 681h61zM215 281h-72l56 327h-1l-73 -34l-15 47l116 52h56zM494 43q13 11 34.5 26.5t45.5 35t48 41.5t43.5 45t32 46.5t12.5 45.5q0 23 -13.5 38t-44.5 15q-26 -1 -48 -8t-39 -18l-9 51q25 15 55.5 24.5t64.5 9.5q51 0 80.5 -26.5t29.5 -73.5
q0 -35 -17 -66.5t-45 -60.5t-62.5 -56t-68.5 -54v-1h160l-16 -57h-249z" />
    <glyph glyph-name="threequarters" unicode="&#xbe;" horiz-adv-x="818" 
d="M709 674l-449 -681h-62q17 25 52 78.5t79.5 120.5t93 141.5t93 141.5t79.5 120.5t52 78.5h62zM665 153l20 106l14 69h-2l-40 -56l-95 -119h103zM775 393l-42 -240h48l-15 -53h-41l-18 -100h-68l17 100h-175l9 46l203 247h82zM163 329q43 0 64.5 21.5t21.5 51.5
q0 31 -25.5 45t-60.5 14h-23l14 50h19q18 0 34.5 4t29.5 12.5t21.5 20.5t8.5 28q0 20 -13 32t-42 12q-23 0 -44.5 -7t-40.5 -17l-5 50q22 12 50.5 20t60.5 8q51 0 81 -23t30 -61q0 -36 -24 -62t-66 -39v-2q30 -8 50.5 -29.5t20.5 -53.5q0 -31 -12 -55t-34 -40.5t-51.5 -25
t-64.5 -8.5q-33 0 -61 7t-46 18l19 52q17 -10 39 -16.5t49 -6.5z" />
    <glyph glyph-name="questiondown" unicode="&#xbf;" horiz-adv-x="411" 
d="M270 -190q-14 -2 -28.5 -3t-30.5 -1q-49 0 -84.5 10.5t-58.5 29.5t-34 44t-11 54q0 38 13 67.5t33 54t44 46t45.5 44t38.5 48.5t22 59q1 7 1.5 12.5t0.5 11.5h92q0 -5 -0.5 -15t-1.5 -15q-3 -35 -17 -62t-34 -50t-42.5 -43.5t-42 -41t-32 -42.5t-12.5 -48
q0 -37 30.5 -58.5t87.5 -21.5q7 0 14 0.5t15 1.5zM361 456q0 -15 -6 -30t-16.5 -27t-25 -19.5t-31.5 -7.5q-26 0 -41.5 16t-15.5 41q0 15 6 30t16.5 27t25 19.5t32.5 7.5q26 0 41 -16t15 -41z" />
    <glyph glyph-name="Agrave" unicode="&#xc0;" horiz-adv-x="572" 
d="M533 0h-107l-24 197h-217l-92 -197h-108l329 684h124zM359 595l-43 -102l-97 -215h176l-24 214l-10 103h-2zM436 739h-68l-101 151h109z" />
    <glyph glyph-name="Aacute" unicode="&#xc1;" horiz-adv-x="572" 
d="M533 0h-107l-24 197h-217l-92 -197h-108l329 684h124zM359 595l-43 -102l-97 -215h176l-24 214l-10 103h-2zM535 890l-135 -151h-71l94 151h112z" />
    <glyph glyph-name="Acircumflex" unicode="&#xc2;" horiz-adv-x="572" 
d="M533 0h-107l-24 197h-217l-92 -197h-108l329 684h124zM359 595l-43 -102l-97 -215h176l-24 214l-10 103h-2zM315 739h-68l128 154h60l82 -154h-64l-56 89h-1z" />
    <glyph glyph-name="Atilde" unicode="&#xc3;" horiz-adv-x="572" 
d="M533 0h-107l-24 197h-217l-92 -197h-108l329 684h124zM359 595l-43 -102l-97 -215h176l-24 214l-10 103h-2zM333 806q-12 0 -20.5 -10.5t-18.5 -31.5l-45 5q13 48 34.5 76t52.5 28q18 0 33 -6.5t28.5 -14.5t26 -14.5t24.5 -6.5t20.5 7.5t19.5 33.5l44 -7
q-14 -50 -34.5 -75.5t-52.5 -25.5q-18 0 -33.5 6.5t-29 14.5t-26 14.5t-23.5 6.5z" />
    <glyph glyph-name="Adieresis" unicode="&#xc4;" horiz-adv-x="572" 
d="M533 0h-107l-24 197h-217l-92 -197h-108l329 684h124zM359 595l-43 -102l-97 -215h176l-24 214l-10 103h-2zM246 807q0 12 4.5 24.5t13 22t20.5 16t27 6.5q21 0 33.5 -13.5t12.5 -33.5q0 -24 -18 -46t-47 -22q-20 0 -33 13t-13 33zM435 807q0 12 4.5 24.5t13 22t20.5 16
t27 6.5q21 0 33.5 -13.5t12.5 -33.5q0 -24 -18 -46t-47 -22q-20 0 -33 13t-13 33z" />
    <glyph glyph-name="Aring" unicode="&#xc5;" horiz-adv-x="572" 
d="M389 834q41 0 67.5 -24.5t25.5 -65.5q-1 -24 -14.5 -43t-33.5 -29h6l93 -672h-107l-24 197h-217l-92 -197h-108l323 672h4q-14 11 -22.5 27t-8.5 36q1 43 32 71t76 28zM359 595l-43 -102l-97 -215h176l-24 214l-10 103h-2zM385 793q-22 0 -37 -16t-16 -40
q-1 -20 11.5 -35.5t33.5 -15.5q23 0 38.5 16t16.5 39q0 23 -12 37.5t-35 14.5z" />
    <glyph glyph-name="AE" unicode="&#xc6;" horiz-adv-x="803" 
d="M806 597h-263l-24 -203h241l-20 -86h-228l-26 -222h265l-21 -86h-349l25 230h-184l-148 -230h-107l440 683h419zM446 597l-59 -100l-115 -182h142l20 176l14 106h-2z" />
    <glyph glyph-name="Ccedilla" unicode="&#xc7;" horiz-adv-x="552" 
d="M431 607q-64 0 -113 -28t-82.5 -74t-50.5 -104.5t-17 -119.5q0 -45 10.5 -82.5t32.5 -64.5t56.5 -42.5t81.5 -15.5q40 0 79.5 7t71.5 21l3 -84q-29 -12 -69.5 -20t-88.5 -10l-20 -39q28 -11 44 -28t16 -40q0 -18 -9.5 -35t-26 -30t-39 -21t-49.5 -8q-32 0 -57 10l16 46
q16 -4 36 -4q27 0 46 11t19 31q0 35 -54 43q2 14 9 32t17 34q-57 5 -100.5 27t-73.5 58t-45 84.5t-15 107.5q0 87 26.5 164t76 134.5t121 91t161.5 33.5q54 0 94 -9.5t59 -20.5l-24 -83q-25 12 -61.5 20t-80.5 8z" />
    <glyph glyph-name="Egrave" unicode="&#xc8;" horiz-adv-x="490" 
d="M507 597h-263l-35 -202h246l-21 -86h-240l-38 -223h283l-21 -86h-378l118 683h370zM430 739h-68l-101 151h109z" />
    <glyph glyph-name="Eacute" unicode="&#xc9;" horiz-adv-x="490" 
d="M507 597h-263l-35 -202h246l-21 -86h-240l-38 -223h283l-21 -86h-378l118 683h370zM449 890l-136 -151h-70l94 151h112z" />
    <glyph glyph-name="Ecircumflex" unicode="&#xca;" horiz-adv-x="490" 
d="M507 597h-263l-35 -202h246l-21 -86h-240l-38 -223h283l-21 -86h-378l118 683h370zM279 739h-68l128 154h60l81 -154h-63l-56 89h-1z" />
    <glyph glyph-name="Edieresis" unicode="&#xcb;" horiz-adv-x="490" 
d="M507 597h-263l-35 -202h246l-21 -86h-240l-38 -223h283l-21 -86h-378l118 683h370zM196 807q0 12 4.5 24.5t13 22t20.5 16t26 6.5q21 0 33.5 -13.5t12.5 -33.5q0 -24 -17.5 -46t-46.5 -22q-21 0 -33.5 13t-12.5 33zM385 807q0 12 4.5 24.5t13 22t20.5 16t26 6.5
q21 0 33.5 -13.5t12.5 -33.5q0 -24 -17.5 -46t-46.5 -22q-21 0 -33.5 13t-12.5 33z" />
    <glyph glyph-name="Igrave" unicode="&#xcc;" horiz-adv-x="240" 
d="M140 0h-101l117 683h101zM261 739h-67l-102 151h110z" />
    <glyph glyph-name="Iacute" unicode="&#xcd;" horiz-adv-x="240" 
d="M140 0h-101l117 683h101zM376 890l-135 -151h-71l94 151h112z" />
    <glyph glyph-name="Icircumflex" unicode="&#xce;" horiz-adv-x="240" 
d="M140 0h-101l117 683h101zM153 739h-67l128 154h60l81 -154h-63l-56 89h-2z" />
    <glyph glyph-name="Idieresis" unicode="&#xcf;" horiz-adv-x="240" 
d="M140 0h-101l117 683h101zM75 807q0 12 4.5 24.5t13 22t20.5 16t26 6.5q21 0 33.5 -13.5t12.5 -33.5q0 -24 -17.5 -46t-46.5 -22q-21 0 -33.5 13t-12.5 33zM264 807q0 12 4.5 24.5t13 22t20.5 16t26 6.5q21 0 33.5 -13.5t12.5 -33.5q0 -24 -17.5 -46t-46.5 -22
q-21 0 -33.5 13t-12.5 33z" />
    <glyph glyph-name="Eth" unicode="&#xd0;" horiz-adv-x="637" 
d="M94 311h-72l21 78h65l49 287q45 5 90.5 7.5t93.5 2.5q144 0 217.5 -69t73.5 -206q0 -90 -26.5 -166t-78 -131t-128 -86t-176.5 -31q-56 0 -101.5 2t-80.5 4zM334 602q-23 0 -46 -0.5t-43 -2.5l-37 -210h139l-20 -78h-132l-39 -228q18 -2 37 -2h37q69 -1 124 22t93 65.5
t58 102.5t20 134q0 44 -11 80.5t-34 62.5t-59 40t-87 14z" />
    <glyph glyph-name="Ntilde" unicode="&#xd1;" horiz-adv-x="631" 
d="M424 0q-49 134 -101 270t-95 269h-3l-88 -539h-97l118 683h115q53 -135 86.5 -223.5t54 -146.5t31.5 -95t20 -68h3l84 533h97l-118 -683h-107zM358 806q-12 0 -20.5 -10.5t-18.5 -31.5l-45 5q14 48 35 76t53 28q18 0 33 -6.5t28.5 -14.5t25.5 -14.5t24 -6.5t20.5 7.5
t19.5 33.5l44 -7q-14 -50 -34.5 -75.5t-52.5 -25.5q-18 0 -33 6.5t-29 14.5t-26 14.5t-24 6.5z" />
    <glyph glyph-name="Ograve" unicode="&#xd2;" horiz-adv-x="659" 
d="M395 608q-59 0 -102 -31.5t-71 -81t-41.5 -111t-13.5 -120.5q0 -39 8 -74t26.5 -60.5t48 -40.5t72.5 -15q57 0 99.5 30.5t71 79.5t42.5 111t14 124q0 37 -7 71t-24.5 60t-47 42t-75.5 16zM407 693q66 0 112.5 -22t76.5 -59.5t44 -88t14 -107.5q0 -72 -20.5 -148
t-62.5 -137.5t-107.5 -101t-155.5 -39.5q-64 0 -110.5 21.5t-76.5 59t-44.5 87.5t-14.5 107q0 72 20.5 148t63 138t107.5 102t154 40zM514 739h-68l-102 151h110z" />
    <glyph glyph-name="Oacute" unicode="&#xd3;" horiz-adv-x="659" 
d="M395 608q-59 0 -102 -31.5t-71 -81t-41.5 -111t-13.5 -120.5q0 -39 8 -74t26.5 -60.5t48 -40.5t72.5 -15q57 0 99.5 30.5t71 79.5t42.5 111t14 124q0 37 -7 71t-24.5 60t-47 42t-75.5 16zM407 693q66 0 112.5 -22t76.5 -59.5t44 -88t14 -107.5q0 -72 -20.5 -148
t-62.5 -137.5t-107.5 -101t-155.5 -39.5q-64 0 -110.5 21.5t-76.5 59t-44.5 87.5t-14.5 107q0 72 20.5 148t63 138t107.5 102t154 40zM532 890l-135 -151h-71l94 151h112z" />
    <glyph glyph-name="Ocircumflex" unicode="&#xd4;" horiz-adv-x="659" 
d="M395 608q-59 0 -102 -31.5t-71 -81t-41.5 -111t-13.5 -120.5q0 -39 8 -74t26.5 -60.5t48 -40.5t72.5 -15q57 0 99.5 30.5t71 79.5t42.5 111t14 124q0 37 -7 71t-24.5 60t-47 42t-75.5 16zM407 693q66 0 112.5 -22t76.5 -59.5t44 -88t14 -107.5q0 -72 -20.5 -148
t-62.5 -137.5t-107.5 -101t-155.5 -39.5q-64 0 -110.5 21.5t-76.5 59t-44.5 87.5t-14.5 107q0 72 20.5 148t63 138t107.5 102t154 40zM362 739h-68l128 154h60l82 -154h-64l-56 89h-1z" />
    <glyph glyph-name="Otilde" unicode="&#xd5;" horiz-adv-x="659" 
d="M395 608q-59 0 -102 -31.5t-71 -81t-41.5 -111t-13.5 -120.5q0 -39 8 -74t26.5 -60.5t48 -40.5t72.5 -15q57 0 99.5 30.5t71 79.5t42.5 111t14 124q0 37 -7 71t-24.5 60t-47 42t-75.5 16zM407 693q66 0 112.5 -22t76.5 -59.5t44 -88t14 -107.5q0 -72 -20.5 -148
t-62.5 -137.5t-107.5 -101t-155.5 -39.5q-64 0 -110.5 21.5t-76.5 59t-44.5 87.5t-14.5 107q0 72 20.5 148t63 138t107.5 102t154 40zM371 806q-11 0 -19.5 -10.5t-18.5 -31.5l-46 5q14 48 35 76t53 28q18 0 33 -6.5t28.5 -14.5t26 -14.5t24.5 -6.5q11 0 19.5 7.5t19.5 33.5
l45 -7q-14 -50 -35 -75.5t-53 -25.5q-18 0 -33 6.5t-29 14.5t-26 14.5t-24 6.5z" />
    <glyph glyph-name="Odieresis" unicode="&#xd6;" horiz-adv-x="659" 
d="M395 608q-59 0 -102 -31.5t-71 -81t-41.5 -111t-13.5 -120.5q0 -39 8 -74t26.5 -60.5t48 -40.5t72.5 -15q57 0 99.5 30.5t71 79.5t42.5 111t14 124q0 37 -7 71t-24.5 60t-47 42t-75.5 16zM407 693q66 0 112.5 -22t76.5 -59.5t44 -88t14 -107.5q0 -72 -20.5 -148
t-62.5 -137.5t-107.5 -101t-155.5 -39.5q-64 0 -110.5 21.5t-76.5 59t-44.5 87.5t-14.5 107q0 72 20.5 148t63 138t107.5 102t154 40zM279 807q0 12 4.5 24.5t13 22t20.5 16t26 6.5q22 0 34 -13.5t12 -33.5q0 -24 -17.5 -46t-46.5 -22q-21 0 -33.5 13t-12.5 33zM468 807
q0 12 4.5 24.5t13 22t20.5 16t27 6.5q21 0 33 -13.5t12 -33.5q0 -24 -17.5 -46t-46.5 -22q-21 0 -33.5 13t-12.5 33z" />
    <glyph glyph-name="multiply" unicode="&#xd7;" horiz-adv-x="576" 
d="M353 263l154 -187l-57 -49l-153 187l-218 -188l-45 54l218 188l-151 185l56 49l152 -184l216 188l46 -53z" />
    <glyph glyph-name="Oslash" unicode="&#xd8;" horiz-adv-x="659" 
d="M407 693q44 0 78.5 -10t60.5 -29l57 79l53 -35l-61 -85q30 -38 44.5 -89t14.5 -108q0 -72 -20.5 -148t-62.5 -137.5t-107.5 -101t-155.5 -39.5q-42 0 -74.5 10t-58.5 27l-59 -84l-51 37l60 85q-32 38 -47.5 89t-15.5 111q0 72 20.5 148t63 138t107.5 102t154 40zM395 608
q-59 0 -102 -31.5t-71 -81t-41.5 -111t-13.5 -120.5q0 -30 5 -58t17 -51l303 421q-35 32 -97 32zM549 419q0 27 -4.5 52.5t-15.5 47.5l-300 -415q17 -14 40 -22t53 -8q57 0 99.5 30.5t71 79.5t42.5 111t14 124z" />
    <glyph glyph-name="Ugrave" unicode="&#xd9;" horiz-adv-x="619" 
d="M282 -10q-95 0 -151 48.5t-56 147.5q0 27 3.5 54.5t8.5 58.5l66 384h101l-70 -408q-6 -36 -6.5 -72t10.5 -64.5t36 -46t71 -17.5q74 0 115.5 49.5t58.5 149.5l71 409h101l-71 -408q-24 -146 -93.5 -215.5t-194.5 -69.5zM494 739h-68l-102 151h110z" />
    <glyph glyph-name="Uacute" unicode="&#xda;" horiz-adv-x="619" 
d="M282 -10q-95 0 -151 48.5t-56 147.5q0 27 3.5 54.5t8.5 58.5l66 384h101l-70 -408q-6 -36 -6.5 -72t10.5 -64.5t36 -46t71 -17.5q74 0 115.5 49.5t58.5 149.5l71 409h101l-71 -408q-24 -146 -93.5 -215.5t-194.5 -69.5zM512 890l-135 -151h-71l94 151h112z" />
    <glyph glyph-name="Ucircumflex" unicode="&#xdb;" horiz-adv-x="619" 
d="M282 -10q-95 0 -151 48.5t-56 147.5q0 27 3.5 54.5t8.5 58.5l66 384h101l-70 -408q-6 -36 -6.5 -72t10.5 -64.5t36 -46t71 -17.5q74 0 115.5 49.5t58.5 149.5l71 409h101l-71 -408q-24 -146 -93.5 -215.5t-194.5 -69.5zM342 739h-68l129 154h59l82 -154h-64l-56 89h-1z
" />
    <glyph glyph-name="Udieresis" unicode="&#xdc;" horiz-adv-x="619" 
d="M282 -10q-95 0 -151 48.5t-56 147.5q0 27 3.5 54.5t8.5 58.5l66 384h101l-70 -408q-6 -36 -6.5 -72t10.5 -64.5t36 -46t71 -17.5q74 0 115.5 49.5t58.5 149.5l71 409h101l-71 -408q-24 -146 -93.5 -215.5t-194.5 -69.5zM259 807q0 12 4.5 24.5t13 22t20.5 16t27 6.5
q21 0 33 -13.5t12 -33.5q0 -24 -17.5 -46t-46.5 -22q-21 0 -33.5 13t-12.5 33zM448 807q0 12 4.5 24.5t13 22t20.5 16t27 6.5q21 0 33.5 -13.5t12.5 -33.5q0 -24 -18 -46t-47 -22q-20 0 -33 13t-13 33z" />
    <glyph glyph-name="Yacute" unicode="&#xdd;" horiz-adv-x="525" 
d="M288 357l59 106l134 220h119l-279 -413l-46 -270h-101l46 268l-132 415h112l59 -220l26 -106h3zM466 890l-136 -151h-71l94 151h113z" />
    <glyph glyph-name="Thorn" unicode="&#xde;" horiz-adv-x="530" 
d="M234 548q22 2 47 3t51 1q93 0 143 -46t50 -124q0 -61 -22 -105.5t-60.5 -74t-91.5 -44t-115 -14.5q-20 0 -37.5 1t-32.5 3l-27 -148h-99l118 683h99zM179 232q17 -2 34.5 -3t34.5 -1q35 0 66 8t55 24.5t38 42.5t15 63q0 55 -31 79t-84 24q-24 0 -47 -1.5t-40 -3.5z" />
    <glyph glyph-name="germandbls" unicode="&#xdf;" horiz-adv-x="588" 
d="M550 604q0 -43 -20.5 -71.5t-45 -52.5t-45 -48t-20.5 -57q0 -32 20 -54t43.5 -43t43.5 -47t20 -67q0 -44 -17.5 -76.5t-46.5 -54.5t-66.5 -32.5t-78.5 -10.5q-33 0 -63 6t-51 17l20 76q22 -10 48.5 -15.5t49.5 -5.5q18 0 36.5 5t32.5 15t23 24.5t9 33.5q0 31 -19 55.5
t-42 47t-42 47.5t-19 58q0 28 10.5 48t26.5 35.5t34.5 29t34.5 30t26.5 37t10.5 50.5q0 32 -18.5 54t-60.5 22q-37 0 -63 -18t-43.5 -47t-28.5 -67t-18 -77l-91 -542h-102l94 563q11 62 28.5 111t47.5 83.5t74.5 53t108.5 18.5q43 0 73.5 -11.5t49.5 -30.5t27.5 -43t8.5 -49
z" />
    <glyph glyph-name="agrave" unicode="&#xe0;" 
d="M484 300q-14 -79 -24.5 -154t-12.5 -146h-96l15 134h-2q-32 -66 -78 -105t-99 -39q-68 0 -105.5 46.5t-37.5 119.5q0 63 22 124.5t60 110t89.5 78.5t110.5 30q24 0 50 -5.5t47 -19.5h2l12 16l82 6zM403 406q-9 6 -24.5 11.5t-37.5 5.5q-41 0 -76.5 -21t-61.5 -55.5
t-40.5 -80t-14.5 -94.5q0 -44 17 -72.5t59 -28.5q22 0 46.5 15.5t47 44t40 70t26.5 93.5zM414 546h-68l-102 151h110z" />
    <glyph glyph-name="aacute" unicode="&#xe1;" 
d="M484 300q-14 -79 -24.5 -154t-12.5 -146h-96l15 134h-2q-32 -66 -78 -105t-99 -39q-68 0 -105.5 46.5t-37.5 119.5q0 63 22 124.5t60 110t89.5 78.5t110.5 30q24 0 50 -5.5t47 -19.5h2l12 16l82 6zM403 406q-9 6 -24.5 11.5t-37.5 5.5q-41 0 -76.5 -21t-61.5 -55.5
t-40.5 -80t-14.5 -94.5q0 -44 17 -72.5t59 -28.5q22 0 46.5 15.5t47 44t40 70t26.5 93.5zM459 697l-135 -151h-71l94 151h112z" />
    <glyph glyph-name="acircumflex" unicode="&#xe2;" 
d="M484 300q-14 -79 -24.5 -154t-12.5 -146h-96l15 134h-2q-32 -66 -78 -105t-99 -39q-68 0 -105.5 46.5t-37.5 119.5q0 63 22 124.5t60 110t89.5 78.5t110.5 30q24 0 50 -5.5t47 -19.5h2l12 16l82 6zM403 406q-9 6 -24.5 11.5t-37.5 5.5q-41 0 -76.5 -21t-61.5 -55.5
t-40.5 -80t-14.5 -94.5q0 -44 17 -72.5t59 -28.5q22 0 46.5 15.5t47 44t40 70t26.5 93.5zM273 546h-68l128 154h60l82 -154h-64l-56 89h-1z" />
    <glyph glyph-name="atilde" unicode="&#xe3;" 
d="M484 300q-14 -79 -24.5 -154t-12.5 -146h-96l15 134h-2q-32 -66 -78 -105t-99 -39q-68 0 -105.5 46.5t-37.5 119.5q0 63 22 124.5t60 110t89.5 78.5t110.5 30q24 0 50 -5.5t47 -19.5h2l12 16l82 6zM403 406q-9 6 -24.5 11.5t-37.5 5.5q-41 0 -76.5 -21t-61.5 -55.5
t-40.5 -80t-14.5 -94.5q0 -44 17 -72.5t59 -28.5q22 0 46.5 15.5t47 44t40 70t26.5 93.5zM278 613q-11 0 -19.5 -10.5t-18.5 -31.5l-46 5q14 48 35 76t53 28q18 0 33 -6.5t28.5 -14.5t26 -14.5t24.5 -6.5q11 0 19.5 7.5t19.5 33.5l45 -7q-14 -50 -35 -75.5t-53 -25.5
q-18 0 -33 6.5t-29 14.5t-26 14.5t-24 6.5z" />
    <glyph glyph-name="adieresis" unicode="&#xe4;" 
d="M484 300q-14 -79 -24.5 -154t-12.5 -146h-96l15 134h-2q-32 -66 -78 -105t-99 -39q-68 0 -105.5 46.5t-37.5 119.5q0 63 22 124.5t60 110t89.5 78.5t110.5 30q24 0 50 -5.5t47 -19.5h2l12 16l82 6zM403 406q-9 6 -24.5 11.5t-37.5 5.5q-41 0 -76.5 -21t-61.5 -55.5
t-40.5 -80t-14.5 -94.5q0 -44 17 -72.5t59 -28.5q22 0 46.5 15.5t47 44t40 70t26.5 93.5zM188 614q0 12 4.5 24.5t13 22t20.5 16t27 6.5q21 0 33.5 -13.5t12.5 -33.5q0 -24 -18 -46t-47 -22q-20 0 -33 13t-13 33zM377 614q0 12 4.5 24.5t13 22t20.5 16t27 6.5
q21 0 33.5 -13.5t12.5 -33.5q0 -24 -18 -46t-47 -22q-20 0 -33 13t-13 33z" />
    <glyph glyph-name="aring" unicode="&#xe5;" 
d="M484 300q-14 -79 -24.5 -154t-12.5 -146h-96l15 134h-2q-32 -66 -78 -105t-99 -39q-68 0 -105.5 46.5t-37.5 119.5q0 63 22 124.5t60 110t89.5 78.5t110.5 30q24 0 50 -5.5t47 -19.5h2l12 16l82 6zM403 406q-9 6 -24.5 11.5t-37.5 5.5q-41 0 -76.5 -21t-61.5 -55.5
t-40.5 -80t-14.5 -94.5q0 -44 17 -72.5t59 -28.5q22 0 46.5 15.5t47 44t40 70t26.5 93.5zM349 727q40 0 66.5 -24.5t25.5 -64.5q-2 -43 -32.5 -71t-75.5 -28q-40 0 -66 25t-26 64q1 43 32 71t76 28zM345 686q-23 0 -38 -16t-16 -39q0 -21 12.5 -36t33.5 -15q23 0 38.5 16
t15.5 39q1 22 -11 36.5t-35 14.5z" />
    <glyph glyph-name="ae" unicode="&#xe6;" horiz-adv-x="778" 
d="M447 221q-3 -15 -3 -32q0 -60 33.5 -89.5t83.5 -29.5q39 0 76.5 8.5t66.5 22.5l9 -74q-35 -17 -81.5 -27t-94.5 -10q-78 0 -122 33t-61 90h-2q-32 -57 -74.5 -90t-90.5 -33q-68 0 -105.5 46.5t-37.5 119.5q0 63 22 124.5t60 110t89.5 78.5t110.5 30q49 0 80 -16.5
t54 -34.5h2q32 25 70 39t83 14q37 0 65.5 -10t48 -27.5t30 -40.5t11.5 -49q0 -77 -65 -117.5t-181 -40.5q-18 0 -37.5 1t-39.5 4zM345 173q0 72 18.5 128.5t51.5 98.5q-11 7 -29 15t-45 8q-41 0 -76.5 -21t-61.5 -55.5t-40.5 -80t-14.5 -94.5q0 -44 17 -72.5t59 -28.5
q29 0 62 25.5t59 76.5zM457 287q18 -3 34.5 -4t32.5 -1q69 0 109 23.5t40 60.5q0 26 -19 42t-53 16q-27 0 -50 -10.5t-42 -29.5t-32 -44t-20 -53z" />
    <glyph glyph-name="ccedilla" unicode="&#xe7;" horiz-adv-x="445" 
d="M343 419q-42 0 -77.5 -17.5t-60.5 -48t-39 -71.5t-14 -87q0 -63 32 -93.5t86 -30.5q35 0 67 8t55 17l7 -77q-23 -10 -58 -18t-74 -10l-20 -40q27 -11 43 -28t16 -40q0 -18 -9.5 -35t-26 -30t-39 -21t-48.5 -8q-32 0 -57 10l15 46q9 -2 18.5 -3t17.5 -1q27 0 46 11t19 31
q0 35 -54 43q3 14 9.5 31.5t16.5 33.5q-81 8 -123.5 58.5t-43.5 131.5q0 67 21.5 125.5t61 101.5t94.5 68t122 25q35 0 66 -6.5t50 -15.5l-22 -79q-17 7 -42.5 13t-54.5 6z" />
    <glyph glyph-name="egrave" unicode="&#xe8;" horiz-adv-x="479" 
d="M148 221q-3 -15 -3 -32q0 -60 33.5 -89.5t83.5 -29.5q39 0 76.5 8.5t66.5 22.5l9 -74q-35 -17 -81.5 -27t-94.5 -10q-50 0 -86 14t-59.5 40t-35 62.5t-11.5 80.5q0 63 19.5 120t55 100t85.5 68.5t110 25.5q37 0 65.5 -10t48 -27.5t30 -40.5t11.5 -49q0 -77 -65 -117.5
t-181 -40.5q-18 0 -37.5 1t-39.5 4zM158 287q18 -3 34.5 -4t32.5 -1q69 0 109 23.5t40 60.5q0 26 -19 42t-53 16q-27 0 -50 -10.5t-42 -29.5t-32 -44t-20 -53zM384 546h-68l-102 151h110z" />
    <glyph glyph-name="eacute" unicode="&#xe9;" horiz-adv-x="479" 
d="M148 221q-3 -15 -3 -32q0 -60 33.5 -89.5t83.5 -29.5q39 0 76.5 8.5t66.5 22.5l9 -74q-35 -17 -81.5 -27t-94.5 -10q-50 0 -86 14t-59.5 40t-35 62.5t-11.5 80.5q0 63 19.5 120t55 100t85.5 68.5t110 25.5q37 0 65.5 -10t48 -27.5t30 -40.5t11.5 -49q0 -77 -65 -117.5
t-181 -40.5q-18 0 -37.5 1t-39.5 4zM158 287q18 -3 34.5 -4t32.5 -1q69 0 109 23.5t40 60.5q0 26 -19 42t-53 16q-27 0 -50 -10.5t-42 -29.5t-32 -44t-20 -53zM422 697l-135 -151h-71l94 151h112z" />
    <glyph glyph-name="ecircumflex" unicode="&#xea;" horiz-adv-x="479" 
d="M148 221q-3 -15 -3 -32q0 -60 33.5 -89.5t83.5 -29.5q39 0 76.5 8.5t66.5 22.5l9 -74q-35 -17 -81.5 -27t-94.5 -10q-50 0 -86 14t-59.5 40t-35 62.5t-11.5 80.5q0 63 19.5 120t55 100t85.5 68.5t110 25.5q37 0 65.5 -10t48 -27.5t30 -40.5t11.5 -49q0 -77 -65 -117.5
t-181 -40.5q-18 0 -37.5 1t-39.5 4zM158 287q18 -3 34.5 -4t32.5 -1q69 0 109 23.5t40 60.5q0 26 -19 42t-53 16q-27 0 -50 -10.5t-42 -29.5t-32 -44t-20 -53zM227 546h-68l129 154h59l82 -154h-63l-56 89h-2z" />
    <glyph glyph-name="edieresis" unicode="&#xeb;" horiz-adv-x="479" 
d="M148 221q-3 -15 -3 -32q0 -60 33.5 -89.5t83.5 -29.5q39 0 76.5 8.5t66.5 22.5l9 -74q-35 -17 -81.5 -27t-94.5 -10q-50 0 -86 14t-59.5 40t-35 62.5t-11.5 80.5q0 63 19.5 120t55 100t85.5 68.5t110 25.5q37 0 65.5 -10t48 -27.5t30 -40.5t11.5 -49q0 -77 -65 -117.5
t-181 -40.5q-18 0 -37.5 1t-39.5 4zM158 287q18 -3 34.5 -4t32.5 -1q69 0 109 23.5t40 60.5q0 26 -19 42t-53 16q-27 0 -50 -10.5t-42 -29.5t-32 -44t-20 -53zM153 614q0 12 4.5 24.5t13 22t20.5 16t26 6.5q21 0 33.5 -13.5t12.5 -33.5q0 -24 -17.5 -46t-46.5 -22
q-21 0 -33.5 13t-12.5 33zM342 614q0 12 4.5 24.5t13 22t20.5 16t26 6.5q21 0 33.5 -13.5t12.5 -33.5q0 -24 -17.5 -46t-46.5 -22q-21 0 -33.5 13t-12.5 33z" />
    <glyph glyph-name="igrave" unicode="&#xec;" horiz-adv-x="236" 
d="M122 490l101 3l-85 -493h-100zM210 546h-68l-101 151h109z" />
    <glyph glyph-name="iacute" unicode="&#xed;" horiz-adv-x="236" 
d="M122 490l101 3l-85 -493h-100zM344 697l-135 -151h-71l94 151h112z" />
    <glyph glyph-name="icircumflex" unicode="&#xee;" horiz-adv-x="236" 
d="M122 490l101 3l-85 -493h-100zM109 546h-68l129 154h59l82 -154h-64l-55 89h-2z" />
    <glyph glyph-name="idieresis" unicode="&#xef;" horiz-adv-x="236" 
d="M122 490l101 3l-85 -493h-100zM43 614q0 12 4.5 24.5t13 22t20.5 16t27 6.5q21 0 33.5 -13.5t12.5 -33.5q0 -24 -18 -46t-47 -22q-20 0 -33 13t-13 33zM232 614q0 12 4.5 24.5t13 22t20.5 16t27 6.5q21 0 33.5 -13.5t12.5 -33.5q0 -24 -18 -46t-47 -22q-20 0 -33 13
t-13 33z" />
    <glyph glyph-name="eth" unicode="&#xf0;" horiz-adv-x="533" 
d="M491 728l29 -49l-106 -62q47 -52 73 -121.5t26 -155.5q0 -77 -20.5 -141t-56.5 -110.5t-86 -72.5t-109 -26q-49 0 -86 15t-61.5 40.5t-37 60.5t-12.5 75q0 57 19 107.5t52 89t78.5 61t99.5 23.5q29 0 59 -10.5t53 -37.5h3q-8 47 -25.5 87t-48.5 73l-136 -77l-26 50
l116 67q-41 36 -100 58l35 64q44 -13 78.5 -32t66.5 -45zM406 307q-4 13 -12 27.5t-21 25.5t-31 18.5t-42 7.5q-37 0 -65.5 -19t-48 -48.5t-29.5 -65t-10 -69.5q0 -49 26 -83t74 -34q38 0 67.5 21t50 55t31 77t10.5 87z" />
    <glyph glyph-name="ntilde" unicode="&#xf1;" horiz-adv-x="546" 
d="M384 501q39 0 64.5 -13.5t40 -37t18 -54.5t-2.5 -66l-54 -330h-102l48 279q3 21 5.5 45.5t-2 45.5t-19 35t-44.5 14q-21 0 -46 -16.5t-49 -48t-44 -76.5t-29 -102l-30 -176h-100l52 299q9 51 16 98.5t13 92.5l93 3l-19 -132h2q16 29 37.5 54.5t46 44.5t51 30t54.5 11z
M285 613q-12 0 -20 -10.5t-19 -31.5l-45 5q14 48 35 76t53 28q18 0 33 -6.5t28.5 -14.5t25.5 -14.5t24 -6.5t20.5 7.5t19.5 33.5l44 -7q-14 -50 -34.5 -75.5t-52.5 -25.5q-18 0 -33 6.5t-29 14.5t-26 14.5t-24 6.5z" />
    <glyph glyph-name="ograve" unicode="&#xf2;" horiz-adv-x="532" 
d="M318 501q52 0 90 -17.5t61.5 -47.5t33.5 -70.5t7 -86.5q-3 -58 -22.5 -110.5t-54 -92.5t-83.5 -63.5t-110 -23.5q-50 0 -87.5 17t-61.5 46.5t-34.5 70t-7.5 87.5q3 60 22.5 112.5t54.5 92.5t83.5 63t108.5 23zM307 422q-35 0 -62.5 -18t-47.5 -47.5t-31 -67.5t-13 -77
q-5 -66 20.5 -105t79.5 -39q33 0 60.5 18t47.5 47.5t32 67.5t14 78q2 28 -2 54t-16 45.5t-32 31.5t-50 12zM402 546h-68l-101 151h109z" />
    <glyph glyph-name="oacute" unicode="&#xf3;" horiz-adv-x="532" 
d="M318 501q52 0 90 -17.5t61.5 -47.5t33.5 -70.5t7 -86.5q-3 -58 -22.5 -110.5t-54 -92.5t-83.5 -63.5t-110 -23.5q-50 0 -87.5 17t-61.5 46.5t-34.5 70t-7.5 87.5q3 60 22.5 112.5t54.5 92.5t83.5 63t108.5 23zM307 422q-35 0 -62.5 -18t-47.5 -47.5t-31 -67.5t-13 -77
q-5 -66 20.5 -105t79.5 -39q33 0 60.5 18t47.5 47.5t32 67.5t14 78q2 28 -2 54t-16 45.5t-32 31.5t-50 12zM432 697l-136 -151h-71l94 151h113z" />
    <glyph glyph-name="ocircumflex" unicode="&#xf4;" horiz-adv-x="532" 
d="M318 501q52 0 90 -17.5t61.5 -47.5t33.5 -70.5t7 -86.5q-3 -58 -22.5 -110.5t-54 -92.5t-83.5 -63.5t-110 -23.5q-50 0 -87.5 17t-61.5 46.5t-34.5 70t-7.5 87.5q3 60 22.5 112.5t54.5 92.5t83.5 63t108.5 23zM307 422q-35 0 -62.5 -18t-47.5 -47.5t-31 -67.5t-13 -77
q-5 -66 20.5 -105t79.5 -39q33 0 60.5 18t47.5 47.5t32 67.5t14 78q2 28 -2 54t-16 45.5t-32 31.5t-50 12zM250 546h-67l128 154h59l82 -154h-63l-56 89h-2z" />
    <glyph glyph-name="otilde" unicode="&#xf5;" horiz-adv-x="532" 
d="M318 501q52 0 90 -17.5t61.5 -47.5t33.5 -70.5t7 -86.5q-3 -58 -22.5 -110.5t-54 -92.5t-83.5 -63.5t-110 -23.5q-50 0 -87.5 17t-61.5 46.5t-34.5 70t-7.5 87.5q3 60 22.5 112.5t54.5 92.5t83.5 63t108.5 23zM307 422q-35 0 -62.5 -18t-47.5 -47.5t-31 -67.5t-13 -77
q-5 -66 20.5 -105t79.5 -39q33 0 60.5 18t47.5 47.5t32 67.5t14 78q2 28 -2 54t-16 45.5t-32 31.5t-50 12zM277 613q-12 0 -20.5 -10.5t-18.5 -31.5l-46 5q14 48 35 76t53 28q18 0 33 -6.5t28.5 -14.5t26 -14.5t24.5 -6.5q11 0 19.5 7.5t19.5 33.5l45 -7q-14 -50 -35 -75.5
t-53 -25.5q-18 0 -33 6.5t-28.5 14.5t-26 14.5t-23.5 6.5z" />
    <glyph glyph-name="odieresis" unicode="&#xf6;" horiz-adv-x="532" 
d="M318 501q52 0 90 -17.5t61.5 -47.5t33.5 -70.5t7 -86.5q-3 -58 -22.5 -110.5t-54 -92.5t-83.5 -63.5t-110 -23.5q-50 0 -87.5 17t-61.5 46.5t-34.5 70t-7.5 87.5q3 60 22.5 112.5t54.5 92.5t83.5 63t108.5 23zM307 422q-35 0 -62.5 -18t-47.5 -47.5t-31 -67.5t-13 -77
q-5 -66 20.5 -105t79.5 -39q33 0 60.5 18t47.5 47.5t32 67.5t14 78q2 28 -2 54t-16 45.5t-32 31.5t-50 12zM181 614q0 12 4.5 24.5t13 22t20.5 16t27 6.5q21 0 33.5 -13.5t12.5 -33.5q0 -24 -18 -46t-47 -22q-20 0 -33 13t-13 33zM370 614q0 12 4.5 24.5t13 22t20.5 16
t27 6.5q21 0 33.5 -13.5t12.5 -33.5q0 -24 -18 -46t-47 -22q-20 0 -33 13t-13 33z" />
    <glyph glyph-name="divide" unicode="&#xf7;" horiz-adv-x="581" 
d="M549 304l-12 -73h-473l12 73h473zM276 434q0 29 21.5 50t48.5 21q23 0 37 -14.5t14 -35.5q0 -30 -22 -50.5t-49 -20.5q-22 0 -36 14.5t-14 35.5zM217 80q0 15 6 27.5t15.5 22.5t22.5 15.5t27 5.5q22 0 36 -14.5t14 -35.5q0 -30 -22 -50.5t-49 -20.5q-22 0 -36 14.5
t-14 35.5z" />
    <glyph glyph-name="oslash" unicode="&#xf8;" horiz-adv-x="533" 
d="M318 501q62 0 103 -26l48 64l41 -28l-49 -65q29 -31 40.5 -74t8.5 -93q-3 -58 -22.5 -110.5t-54 -92.5t-83.5 -63.5t-110 -23.5t-105 27l-52 -68l-39 29l52 69q-27 30 -38.5 72t-8.5 92q3 60 22.5 112.5t54.5 92.5t83.5 63t108.5 23zM407 279q1 17 -2 40.5t-12 37.5
l-203 -268q13 -10 28 -15.5t35 -5.5q33 0 60.5 18t47.5 47.5t32 67.5t14 78zM307 422q-35 0 -62.5 -18t-47.5 -47.5t-31 -67.5t-13 -77q-2 -21 1.5 -40.5t11.5 -34.5l200 266q-24 19 -59 19z" />
    <glyph glyph-name="ugrave" unicode="&#xf9;" horiz-adv-x="541" 
d="M372 117q-34 -66 -85 -96.5t-100 -30.5t-76.5 19t-39 50t-10.5 71.5t9 82.5l48 277h101l-47 -273q-3 -20 -5.5 -45.5t2 -47.5t19 -37t46.5 -15q20 0 42.5 11.5t43.5 33.5t38 54.5t26 75.5q4 18 10 51.5t12 70t12 70t9 51.5h100l-33 -190q-18 -105 -26 -176t-11 -124h-96
l13 117h-2zM419 546h-67l-102 151h110z" />
    <glyph glyph-name="uacute" unicode="&#xfa;" horiz-adv-x="541" 
d="M372 117q-34 -66 -85 -96.5t-100 -30.5t-76.5 19t-39 50t-10.5 71.5t9 82.5l48 277h101l-47 -273q-3 -20 -5.5 -45.5t2 -47.5t19 -37t46.5 -15q20 0 42.5 11.5t43.5 33.5t38 54.5t26 75.5q4 18 10 51.5t12 70t12 70t9 51.5h100l-33 -190q-18 -105 -26 -176t-11 -124h-96
l13 117h-2zM446 697l-136 -151h-71l94 151h113z" />
    <glyph glyph-name="ucircumflex" unicode="&#xfb;" horiz-adv-x="541" 
d="M372 117q-34 -66 -85 -96.5t-100 -30.5t-76.5 19t-39 50t-10.5 71.5t9 82.5l48 277h101l-47 -273q-3 -20 -5.5 -45.5t2 -47.5t19 -37t46.5 -15q20 0 42.5 11.5t43.5 33.5t38 54.5t26 75.5q4 18 10 51.5t12 70t12 70t9 51.5h100l-33 -190q-18 -105 -26 -176t-11 -124h-96
l13 117h-2zM264 546h-68l128 154h60l81 -154h-63l-56 89h-1z" />
    <glyph glyph-name="udieresis" unicode="&#xfc;" horiz-adv-x="541" 
d="M372 117q-34 -66 -85 -96.5t-100 -30.5t-76.5 19t-39 50t-10.5 71.5t9 82.5l48 277h101l-47 -273q-3 -20 -5.5 -45.5t2 -47.5t19 -37t46.5 -15q20 0 42.5 11.5t43.5 33.5t38 54.5t26 75.5q4 18 10 51.5t12 70t12 70t9 51.5h100l-33 -190q-18 -105 -26 -176t-11 -124h-96
l13 117h-2zM188 614q0 12 4.5 24.5t13 22t20.5 16t27 6.5q21 0 33.5 -13.5t12.5 -33.5q0 -24 -18 -46t-47 -22q-20 0 -33 13t-13 33zM378 614q0 12 4.5 24.5t13 22t20.5 16t26 6.5q21 0 33.5 -13.5t12.5 -33.5q0 -24 -18 -46t-47 -22q-20 0 -32.5 13t-12.5 33z" />
    <glyph glyph-name="yacute" unicode="&#xfd;" horiz-adv-x="471" 
d="M165 490l40 -289l14 -106h3l60 104l66 107q26 45 34.5 93.5t-5.5 90.5h94q7 -20 9.5 -45t-1 -52.5t-13.5 -57t-29 -56.5l-198 -294l10 -63q6 -42 -2.5 -72.5t-36 -50.5t-76.5 -29.5t-123 -9.5v85q45 0 75 4t46.5 13t22 22.5t2.5 31.5l-92 574h100zM383 697l-135 -151h-71
l94 151h112z" />
    <glyph glyph-name="thorn" unicode="&#xfe;" horiz-adv-x="535" 
d="M328 419q-23 0 -46.5 -13.5t-45 -39.5t-38.5 -65.5t-26 -91.5l-20 -115q17 -12 39 -19t50 -7q39 0 70 21t53 55.5t34 78t12 89.5q0 21 -4.5 40t-14 34t-25.5 24t-38 9zM203 392q12 22 29 42t38 35t45 23.5t50 8.5q39 0 67 -14.5t46.5 -39t27.5 -57t9 -69.5
q0 -65 -19.5 -125t-54.5 -105.5t-85 -73t-110 -27.5q-35 0 -61.5 7.5t-43.5 21.5h-2l-40 -238h-101l156 922l100 3l-53 -314h2z" />
    <glyph glyph-name="ydieresis" unicode="&#xff;" horiz-adv-x="471" 
d="M165 490l40 -289l14 -106h3l60 104l66 107q26 45 34.5 93.5t-5.5 90.5h94q7 -20 9.5 -45t-1 -52.5t-13.5 -57t-29 -56.5l-198 -294l10 -63q6 -42 -2.5 -72.5t-36 -50.5t-76.5 -29.5t-123 -9.5v85q45 0 75 4t46.5 13t22 22.5t2.5 31.5l-92 574h100zM144 614q0 12 4.5 24.5
t13 22t20.5 16t27 6.5q21 0 33.5 -13.5t12.5 -33.5q0 -24 -18 -46t-47 -22q-20 0 -33 13t-13 33zM333 614q0 12 4.5 24.5t13 22t20.5 16t27 6.5q21 0 33.5 -13.5t12.5 -33.5q0 -24 -18 -46t-47 -22q-20 0 -33 13t-13 33z" />
    <glyph glyph-name="OE" unicode="&#x152;" horiz-adv-x="897" 
d="M909 597h-263l-35 -202h245l-21 -86h-239l-38 -223h282l-20 -86h-378l5 28q-30 -18 -64 -28t-75 -10q-64 0 -110.5 21.5t-76.5 59t-44.5 87.5t-14.5 107q0 72 20.5 148t63 138t107.5 102t154 40q49 0 84.5 -13t61.5 -36l6 39h371zM322 74q45 0 81.5 20.5t63.5 54.5
l64 371q-15 39 -47 63.5t-89 24.5q-59 0 -102 -31.5t-71 -81t-41.5 -111t-13.5 -120.5q0 -39 8 -74t26.5 -60.5t48 -40.5t72.5 -15z" />
    <glyph glyph-name="oe" unicode="&#x153;" horiz-adv-x="824" 
d="M492 221q-2 -8 -2 -16v-16q0 -60 33.5 -89.5t82.5 -29.5q40 0 77 8.5t66 22.5l9 -74q-35 -17 -81.5 -27t-94.5 -10q-63 0 -101 25t-57 65h-2q-32 -40 -77.5 -65.5t-104.5 -25.5q-50 0 -87.5 17t-61.5 46.5t-34.5 70t-7.5 87.5q3 60 22.5 112.5t54.5 92.5t83.5 63
t108.5 23q59 0 96 -27t56 -68h2q34 43 82 69t107 26q37 0 65.5 -10t48 -27.5t30 -40.5t10.5 -49q0 -77 -65 -117.5t-181 -40.5q-18 0 -37.5 1t-39.5 4zM307 422q-35 0 -62.5 -18t-47.5 -47.5t-31 -67.5t-13 -77q-5 -66 20.5 -105t79.5 -39q33 0 60.5 18t47.5 47.5t32 67.5
t14 78q2 28 -2 54t-16 45.5t-32 31.5t-50 12zM502 287q18 -3 34.5 -4t32.5 -1q69 0 109 23.5t40 60.5q0 26 -19 42t-53 16q-27 0 -50 -10.5t-41.5 -29.5t-32 -44t-20.5 -53z" />
    <glyph glyph-name="Ydieresis" unicode="&#x178;" horiz-adv-x="525" 
d="M288 357l59 106l134 220h119l-279 -413l-46 -270h-101l46 268l-132 415h112l59 -220l26 -106h3zM213 807q0 12 4.5 24.5t13 22t20.5 16t26 6.5q21 0 33.5 -13.5t12.5 -33.5q0 -24 -17.5 -46t-46.5 -22q-21 0 -33.5 13t-12.5 33zM402 807q0 12 4.5 24.5t13 22t20.5 16
t26 6.5q22 0 34 -13.5t12 -33.5q0 -24 -17.5 -46t-46.5 -22q-21 0 -33.5 13t-12.5 33z" />
    <glyph glyph-name="tilde" unicode="&#x2dc;" horiz-adv-x="417" 
d="M305 613q-11 0 -19.5 -10.5t-19.5 -31.5l-45 5q14 48 35 76t53 28q18 0 33 -6.5t28.5 -14.5t25.5 -14.5t24 -6.5t20.5 7.5t19.5 33.5l45 -7q-14 -50 -35 -75.5t-53 -25.5q-18 0 -33 6.5t-29 14.5t-26 14.5t-24 6.5z" />
    <glyph glyph-name="endash" unicode="&#x2013;" horiz-adv-x="538" 
d="M512 296l-12 -73h-442l12 73h442z" />
    <glyph glyph-name="emdash" unicode="&#x2014;" horiz-adv-x="951" 
d="M925 296l-13 -73h-854l12 73h855z" />
    <glyph glyph-name="quoteleft" unicode="&#x2018;" horiz-adv-x="234" 
d="M284 706q-35 -58 -58 -120t-38 -130l-89 12q12 35 27.5 71.5t32.5 70t34.5 62.5t32.5 50z" />
    <glyph glyph-name="quoteright" unicode="&#x2019;" horiz-adv-x="239" 
d="M95 471q35 59 58.5 121t37.5 130l89 -13q-11 -35 -26.5 -71t-32.5 -69.5t-34.5 -62.5t-32.5 -50z" />
    <glyph glyph-name="quotedblleft" unicode="&#x201c;" horiz-adv-x="402" 
d="M285 706q-35 -58 -58.5 -120t-37.5 -130l-89 12q11 35 26.5 71.5t32.5 70t34.5 62.5t32.5 50zM454 706q-35 -58 -58.5 -120t-37.5 -130l-90 12q12 35 27.5 71.5t32.5 70t34.5 62.5t32.5 50z" />
    <glyph glyph-name="quotedblright" unicode="&#x201d;" horiz-adv-x="407" 
d="M94 471q35 59 58.5 121t37.5 130l89 -13q-11 -35 -26.5 -71t-33 -69.5t-35 -62.5t-32.5 -50zM262 471q36 59 59 121t37 130l90 -13q-12 -35 -27.5 -71t-32.5 -69.5t-34.5 -62.5t-32.5 -50z" />
    <glyph glyph-name="quotedblbase" unicode="&#x201e;" horiz-adv-x="401" 
d="M160 -115q35 58 58 120t38 130l89 -12q-12 -35 -27.5 -71.5t-32.5 -70t-34.5 -62.5t-32.5 -50zM-9 -115q35 58 58.5 120t37.5 130l89 -12q-11 -35 -26.5 -71.5t-33 -70t-35 -62.5t-32.5 -50z" />
    <glyph glyph-name="bullet" unicode="&#x2022;" horiz-adv-x="288" 
d="M43 262q0 22 8 41t22.5 33t33.5 22.5t41 8.5t41.5 -8.5t34 -22.5t23 -33t8.5 -41t-8.5 -41.5t-23 -33.5t-34 -22.5t-41.5 -8.5t-41 8.5t-33.5 22.5t-22.5 33.5t-8 41.5z" />
    <glyph glyph-name="ellipsis" unicode="&#x2026;" horiz-adv-x="790" 
d="M45 46q0 15 5.5 30t16 27t25 19.5t32.5 7.5q26 0 41 -16t15 -41q0 -15 -5.5 -30t-16 -27t-25 -19.5t-32.5 -7.5q-26 0 -41 16t-15 41zM311 46q0 15 6 30t16.5 27t25 19.5t31.5 7.5q26 0 41 -16t15 -41q0 -15 -5.5 -30t-16 -27t-25 -19.5t-32.5 -7.5q-26 0 -41 16t-15 41z
M579 46q0 15 6 30t16.5 27t25 19.5t31.5 7.5q26 0 41 -16t15 -41q0 -15 -5.5 -30t-16 -27t-25 -19.5t-32.5 -7.5q-26 0 -41 16t-15 41z" />
    <glyph glyph-name="guilsinglleft" unicode="&#x2039;" horiz-adv-x="303" 
d="M144 252l90 -142l-54 -36l-113 183l175 182l43 -43z" />
    <glyph glyph-name="guilsinglright" unicode="&#x203a;" horiz-adv-x="308" 
d="M190 261l-90 143l54 35l114 -182l-176 -183l-43 44z" />
    <glyph glyph-name="Euro" unicode="&#x20ac;" horiz-adv-x="552" 
d="M454 304l-17 -60h-225q3 -32 12.5 -62.5t27.5 -54.5t46 -38.5t67 -14.5q37 0 73 8t62 19l4 -79q-28 -14 -69.5 -23t-87.5 -9q-58 0 -102 18.5t-74 52.5t-46.5 80.5t-18.5 102.5h-72l17 60h58q1 5 2 14t2.5 19t3 18.5t3.5 13.5h-64l16 60h66q19 55 50 101t73.5 78.5
t95.5 50.5t116 18q41 0 74 -9t56 -20l-25 -80q-22 8 -50 16t-63 8q-83 0 -138 -45t-83 -118h232l-17 -60h-235q-5 -15 -7 -32t-4 -33h241z" />
    <glyph glyph-name="trademark" unicode="&#x2122;" horiz-adv-x="720" 
d="M127 632l13 51h229l-12 -51h-82l-41 -239h-62l41 239h-86zM489 395l-30 231h-2l-12 -65l-35 -168h-59l61 290h90l26 -166l6 -50h2l21 50l84 166h89l-37 -290h-59l22 168l9 65h-2l-107 -231h-67z" />
    <glyph glyph-name="thinspace" horiz-adv-x="120" 
 />
    </font>
</defs>
</svg>
