<?xml version="1.0" standalone="no"?>
<!DOCTYPE svg PUBLIC "-//W3C//DTD SVG 1.1//EN" "http://www.w3.org/Graphics/SVG/1.1/DTD/svg11.dtd" >
<svg>
<metadata>
Created by FontForge 20120731 at Thu Jun 18 08:54:05 2015
 By ,,,
Copyright (c) 2011 by Neil Summerour. All rights reserved.
</metadata>
<defs>
<font id="abddc25d4efa928250736f106570ee2871ec9d2c44c9f3d17980779cb6f7f51" horiz-adv-x="614" >
  <font-face 
    font-family="abddc25d4efa928250736f106570ee2871ec9d2c44c9f3d17980779cb6f7f512"
    font-weight="600"
    font-stretch="normal"
    units-per-em="1000"
    panose-1="2 0 0 0 0 0 0 0 0 0"
    ascent="750"
    descent="-250"
    x-height="492"
    cap-height="683"
    bbox="-87 -241.054 906 900"
    underline-thickness="50"
    underline-position="-50"
    unicode-range="U+0020-2122"
  />
<missing-glyph horiz-adv-x="531" 
 />
    <glyph glyph-name=".notdef" horiz-adv-x="531" 
 />
    <glyph glyph-name=".null" horiz-adv-x="0" 
 />
    <glyph glyph-name="nonmarkingreturn" horiz-adv-x="333" 
 />
    <glyph glyph-name="space" unicode=" " horiz-adv-x="271" 
 />
    <glyph glyph-name="space" unicode="&#xa0;" horiz-adv-x="271" 
 />
    <glyph glyph-name="exclam" unicode="!" horiz-adv-x="280" 
d="M192 234h-105l-18 470h142zM56 73q0 35 24.5 59.5t59.5 24.5t59.5 -24.5t24.5 -59.5t-24.5 -59.5t-59.5 -24.5t-59.5 24.5t-24.5 59.5z" />
    <glyph glyph-name="quotedbl" unicode="&#x22;" horiz-adv-x="391" 
d="M169 716l-18 -241h-81l-18 241h117zM339 716l-18 -241h-80l-19 241h117z" />
    <glyph glyph-name="numbersign" unicode="#" horiz-adv-x="582" 
d="M442 453h91l-7 -90h-93l-10 -113h93l-7 -90h-95l-16 -156h-89l16 156h-97l-16 -156h-88l17 156h-92l7 90h93l11 113h-93l7 90h95l16 154h88l-16 -154h97l17 154h87zM238 250h97l10 113h-97z" />
    <glyph glyph-name="dollar" unicode="$" horiz-adv-x="528" 
d="M311 664q45 -2 80 -11t63 -21l-19 -106q-27 11 -65.5 22t-86.5 11q-45 0 -68 -19.5t-23 -47.5q0 -27 21 -45t53 -34t69 -32.5t69 -40.5t53 -58.5t21 -85.5q0 -74 -45 -123.5t-125 -63.5v-100h-95v93q-47 3 -91.5 13.5t-73.5 25.5l18 108q36 -17 81.5 -28t90.5 -11
t73.5 18.5t28.5 55.5q0 31 -21 51t-52.5 36t-68.5 31.5t-68.5 38.5t-53 56.5t-21.5 85.5q0 35 12 64.5t34 51.5t51 37t64 21v97h95v-90z" />
    <glyph glyph-name="percent" unicode="%" horiz-adv-x="905" 
d="M521 172q0 40 12.5 74.5t35 59.5t53.5 39t69 14q37 0 67 -13.5t51 -37t32.5 -56t11.5 -71.5q0 -45 -13.5 -80.5t-36.5 -59.5t-53.5 -37t-65.5 -13t-65 12.5t-51.5 36t-34 57t-12.5 75.5zM619 175q0 -53 17 -83t52 -30q34 0 50.5 29t16.5 84q0 51 -16 81.5t-52 30.5
q-35 0 -51.5 -30.5t-16.5 -81.5zM50 491q0 40 12.5 74.5t35 59.5t53.5 39t69 14q37 0 67.5 -13.5t51.5 -37.5t32.5 -56.5t11.5 -71.5q0 -45 -13.5 -80t-37 -59.5t-54.5 -37.5t-65 -13q-35 0 -65 13t-51.5 36.5t-34 57t-12.5 75.5zM149 493q0 -52 17 -82t51 -30t50.5 29
t16.5 84q0 51 -15.5 81.5t-52.5 30.5q-35 0 -51 -31t-16 -82zM667 674l-342 -681h-86l343 681h85z" />
    <glyph glyph-name="ampersand" unicode="&#x26;" horiz-adv-x="662" 
d="M103 521q0 36 14 67.5t39.5 54.5t61.5 36.5t80 13.5q36 0 68 -10.5t56 -31t38.5 -50t14.5 -66.5q0 -46 -29 -92t-103 -88v-3q32 -36 65 -73t62 -68q20 32 33 76.5t18 95.5h124q-20 -164 -98 -257l70 -76l-95 -76l-68 74q-80 -58 -192 -58q-58 0 -101 16t-72 42
t-43.5 59.5t-14.5 69.5q0 64 35 112t97 84v2q-26 30 -43 67.5t-17 78.5zM166 196q0 -48 32.5 -76.5t80.5 -28.5q31 0 58.5 9.5t47.5 26.5q-34 35 -74 80t-82 93q-27 -19 -45 -44.5t-18 -59.5zM355 531q0 27 -14.5 49.5t-47.5 22.5q-32 0 -48 -22t-16 -53q0 -27 13 -52.5
t35 -51.5q39 26 58.5 50.5t19.5 56.5z" />
    <glyph glyph-name="quotesingle" unicode="'" horiz-adv-x="221" 
d="M169 716l-18 -241h-81l-18 241h117z" />
    <glyph glyph-name="parenleft" unicode="(" horiz-adv-x="315" 
d="M161 288q0 -133 31 -249.5t85 -207.5h-87q-30 40 -55.5 90t-44 108t-29.5 123.5t-11 136.5q0 72 11 137.5t30 124t44.5 108.5t54.5 90h87q-54 -90 -85 -208t-31 -253z" />
    <glyph glyph-name="parenright" unicode=")" horiz-adv-x="315" 
d="M152 290q0 134 -31 251.5t-85 207.5h87q60 -81 100.5 -197.5t40.5 -261.5q0 -72 -11 -137.5t-30 -123.5t-45 -108t-55 -90h-87q54 90 85 207.5t31 251.5z" />
    <glyph glyph-name="asterisk" unicode="*" horiz-adv-x="445" 
d="M166 510l-128 49q6 23 18 43t29 37l105 -86l3 2l-21 135q23 6 46.5 5.5t46.5 -5.5l-22 -135l4 -2l105 86q17 -17 29 -37.5t18 -43.5l-127 -47v-5l127 -48q-12 -46 -47 -81l-105 85l-4 -2l22 -133q-45 -12 -93 0l22 134l-4 2l-105 -86q-33 33 -47 81l128 48v4z" />
    <glyph glyph-name="plus" unicode="+" horiz-adv-x="583" 
d="M338 341h194v-91h-194v-201h-93v201h-194v91h194v200h93v-200z" />
    <glyph glyph-name="comma" unicode="," horiz-adv-x="245" 
d="M24 -123q28 63 41.5 133t16.5 144l115 -16q-6 -38 -16.5 -78t-23.5 -77.5t-27 -69.5t-27 -55z" />
    <glyph glyph-name="hyphen" unicode="-" horiz-adv-x="403" 
d="M359 314v-95h-315v95h315z" />
    <glyph glyph-name="hyphen" unicode="&#xad;" horiz-adv-x="403" 
d="M359 314v-95h-315v95h315z" />
    <glyph glyph-name="period" unicode="." horiz-adv-x="256" 
d="M59 73q0 18 6.5 33t18 26.5t27 18t32.5 6.5q35 0 60 -24.5t25 -59.5t-25 -59.5t-60 -24.5q-17 0 -32.5 6.5t-27 18t-18 26.5t-6.5 33z" />
    <glyph glyph-name="slash" unicode="/" horiz-adv-x="374" 
d="M363 690l-246 -716h-98l246 716h98z" />
    <glyph glyph-name="zero" unicode="0" horiz-adv-x="567" 
d="M284 -11q-62 0 -108 25t-76 70t-45 106.5t-15 133.5q0 73 15 135t45.5 107t76 70t107.5 25q63 0 108.5 -26t75.5 -71t44.5 -106.5t14.5 -132.5q0 -76 -15.5 -138t-46 -106t-76 -68t-105.5 -24zM284 94q58 0 82 56.5t24 173.5q0 116 -24.5 174t-81.5 58q-56 0 -81 -57
t-25 -175q-1 -117 23.5 -173.5t82.5 -56.5z" />
    <glyph glyph-name="one" unicode="1" horiz-adv-x="477" 
d="M205 525l-111 -53l-36 97l176 84h106v-653h-132l-1 525h-2z" />
    <glyph glyph-name="two" unicode="2" horiz-adv-x="542" 
d="M233 548q-39 0 -73.5 -12t-66.5 -29l-39 97q18 11 42.5 21.5t51.5 18t56 12t58 4.5q51 0 91.5 -15t68.5 -41.5t42.5 -63.5t14.5 -82q0 -53 -21 -98.5t-55.5 -87t-79 -80.5t-91.5 -79h259l-7 -113h-443v85q70 62 125.5 111.5t94.5 91.5t59.5 79.5t20.5 76.5q0 48 -26.5 76
t-81.5 28z" />
    <glyph glyph-name="three" unicode="3" horiz-adv-x="542" 
d="M221 99q65 0 93.5 28.5t28.5 65.5q0 25 -11 43.5t-29 30.5t-42.5 18t-51.5 6h-61l6 103h52q22 0 43.5 4.5t38 14t26.5 25t10 37.5q0 30 -23 52.5t-74 22.5q-41 0 -78 -10.5t-65 -24.5l-20 102q34 17 84.5 30t105.5 13q48 0 86.5 -11.5t66 -32.5t42.5 -50.5t15 -65.5
q0 -54 -31 -93.5t-94 -59.5v-2q31 -6 57.5 -19.5t46 -34t30.5 -47.5t11 -60q0 -44 -18 -79.5t-51.5 -61t-81 -39.5t-107.5 -14q-57 0 -105.5 11t-79.5 28l20 106q27 -13 70.5 -24.5t89.5 -11.5z" />
    <glyph glyph-name="four" unicode="4" horiz-adv-x="549" 
d="M313 263v171l1 95l-2 1l-44 -83l-115 -182v-2h160zM444 653v-390h76l-7 -106h-69v-157h-131v157h-292v95l261 401h162z" />
    <glyph glyph-name="five" unicode="5" horiz-adv-x="542" 
d="M198 414q12 2 22.5 2.5t21.5 0.5q56 0 101 -14t77 -40t49 -64t17 -86q0 -50 -19 -91t-53.5 -70t-83.5 -45.5t-109 -16.5q-54 0 -101 10t-78 25l18 105q29 -12 71 -22t86 -10q63 0 96.5 30.5t33.5 75.5q0 60 -49 85t-140 25q-25 0 -44 -0.5t-38 -2.5l-1 1q3 31 7 76
t8.5 93t8.5 93t7 76h352l-7 -113h-241z" />
    <glyph glyph-name="six" unicode="6" horiz-adv-x="559" 
d="M320 433q45 0 82 -15t63.5 -43t41.5 -67.5t15 -88.5q0 -48 -17 -90t-47.5 -72.5t-74.5 -48.5t-98 -18q-60 0 -106 21.5t-77.5 59t-47.5 89t-16 110.5q0 97 30.5 171.5t85.5 124.5t131 75t166 22v-108q-46 0 -90.5 -9t-81.5 -29.5t-64 -54.5t-38 -84h3q24 25 60.5 40
t79.5 15zM175 267q-3 -32 2 -63.5t18.5 -56t36.5 -40t56 -15.5q43 0 69.5 33t26.5 88q0 22 -6 43.5t-18.5 38t-32 26.5t-47.5 10q-35 0 -64 -18.5t-41 -45.5z" />
    <glyph glyph-name="seven" unicode="7" horiz-adv-x="515" 
d="M39 537v113h439v-89l-264 -561h-146l242 495l21 40v2h-292z" />
    <glyph glyph-name="eight" unicode="8" horiz-adv-x="563" 
d="M61 484q0 42 17.5 74.5t48.5 55t71.5 34.5t87.5 12q51 0 91 -13.5t67.5 -36t41.5 -53t14 -63.5q0 -47 -25.5 -85t-76.5 -63v-2q57 -25 91 -65t34 -99q0 -44 -18 -79t-50.5 -59.5t-77.5 -38t-100 -13.5q-57 0 -101.5 14t-75 38t-46 56t-15.5 68q0 57 31.5 99t91.5 68v2
q-52 26 -76.5 64.5t-24.5 84.5zM269 286q-40 -11 -65 -39t-25 -66q0 -18 6.5 -35.5t19 -31t32 -21.5t45.5 -8q50 0 75.5 26.5t25.5 62.5q0 46 -33 73t-81 39zM291 389q15 4 29 13t25 21t17.5 27t6.5 32q0 16 -5 31t-16 26.5t-28 18.5t-40 7q-45 0 -66.5 -24t-21.5 -56
q0 -37 27.5 -61t71.5 -35z" />
    <glyph glyph-name="nine" unicode="9" horiz-adv-x="559" 
d="M238 218q-45 0 -82 15t-63.5 42.5t-41.5 67t-15 88.5q0 48 17 90t47.5 72.5t74.5 48.5t98 18q60 0 106 -21.5t76.5 -59t46.5 -89t16 -110.5q0 -97 -31 -171.5t-86 -124.5t-131.5 -75t-166.5 -22v108q46 0 90.5 9t82 29.5t65 54.5t38.5 84h-2q-24 -25 -60 -39.5t-79 -14.5
zM382 383q3 32 -2 63.5t-18.5 56t-36 40t-55.5 15.5q-43 0 -70 -33t-27 -88q0 -23 6 -44t18.5 -37t32.5 -26t48 -10q35 0 63.5 18t40.5 45z" />
    <glyph glyph-name="colon" unicode=":" horiz-adv-x="256" 
d="M59 398q0 18 6.5 33.5t18 27t27 18t32.5 6.5q35 0 60 -25t25 -60q0 -17 -6.5 -32.5t-18 -27t-27 -18t-33.5 -6.5q-35 0 -59.5 24.5t-24.5 59.5zM59 73q0 18 6.5 33t18 26.5t27 18t32.5 6.5q35 0 60 -24.5t25 -59.5t-25 -59.5t-60 -24.5q-17 0 -32.5 6.5t-27 18t-18 26.5
t-6.5 33z" />
    <glyph glyph-name="semicolon" unicode=";" horiz-adv-x="248" 
d="M51 398q0 18 6.5 33.5t18 27t27 18t32.5 6.5q35 0 60 -25t25 -60q0 -17 -6.5 -32.5t-18 -27t-27 -18t-33.5 -6.5q-35 0 -59.5 24.5t-24.5 59.5zM24 -123q28 63 41.5 133t16.5 144l115 -16q-6 -38 -16.5 -78t-23.5 -77.5t-27 -69.5t-27 -55z" />
    <glyph glyph-name="less" unicode="&#x3c;" horiz-adv-x="569" 
d="M61 260v74l447 221v-107l-322 -150v-2l322 -150v-107z" />
    <glyph glyph-name="equal" unicode="=" horiz-adv-x="583" 
d="M532 243v-90h-481v90h481zM532 440v-91h-481v91h481z" />
    <glyph glyph-name="greater" unicode="&#x3e;" horiz-adv-x="569" 
d="M61 39v107l326 150v2l-326 150v107l447 -219v-78z" />
    <glyph glyph-name="question" unicode="?" horiz-adv-x="438" 
d="M138 233q-2 8 -2.5 20t-0.5 23q0 48 20 78t44 53.5t44 46.5t20 56q0 37 -31.5 58t-88.5 21q-14 0 -29 -1.5t-26 -4.5l-9 104q20 3 44 6t50 3q57 0 99.5 -13.5t70.5 -36.5t41.5 -53.5t13.5 -65.5t-10.5 -60.5t-26.5 -46.5t-35 -38.5t-35 -36.5t-26.5 -41t-10.5 -52
q0 -3 0.5 -10t0.5 -9h-117zM113 73q0 35 24.5 59.5t59.5 24.5t59.5 -24.5t24.5 -59.5t-24.5 -59.5t-59.5 -24.5t-59.5 24.5t-24.5 59.5z" />
    <glyph glyph-name="at" unicode="@" horiz-adv-x="813" 
d="M462 138q-29 -54 -63.5 -77.5t-61.5 -23.5q-29 0 -51 10.5t-36 28t-21 41t-7 50.5q0 45 16 90.5t47 82.5t76.5 60.5t104.5 23.5q13 0 30 -2t34.5 -6t34 -10t29.5 -13q-4 -27 -11 -59t-13 -64.5t-10.5 -62.5t-4.5 -53t6.5 -37t21.5 -14q23 0 42.5 13t34 37t22.5 57.5
t8 73.5q0 52 -16 96.5t-48 77.5t-80 52t-111 19q-59 0 -114 -20.5t-98 -61.5t-69 -102t-26 -142q0 -61 19 -112t53.5 -88.5t83.5 -58.5t109 -21q32 0 57.5 4.5t51.5 13.5l10 -64q-30 -13 -62 -17.5t-66 -4.5q-72 0 -133.5 24.5t-106.5 69.5t-70.5 108t-25.5 140
q0 84 29 157.5t80.5 127.5t124 85t159.5 31q73 0 133 -23.5t103 -64.5t67 -97.5t24 -123.5q0 -45 -11.5 -89.5t-36 -80.5t-64 -58t-94.5 -22q-45 0 -72 27t-26 72h-2zM488 344q-14 8 -37 8q-20 0 -41.5 -11.5t-40 -33.5t-30.5 -54t-12 -72q0 -37 15.5 -51.5t34.5 -14.5
q10 0 23.5 7t28 24t27 45t19.5 69z" />
    <glyph glyph-name="A" unicode="A" 
d="M600 0h-147l-51 175h-200q-3 -13 -10 -37t-14.5 -50.5t-14.5 -50.5t-10 -37h-143l207 684h175zM301 571l-21 -81l-54 -209h153l-56 209l-20 81h-2z" />
    <glyph glyph-name="B" unicode="B" horiz-adv-x="581" 
d="M196 303v-200q14 -2 29 -2h33q64 0 104 22t40 79q0 52 -36 76.5t-91 24.5h-79zM277 582q-26 0 -45.5 -1t-35.5 -3v-172h66q62 0 92 23.5t30 67.5q0 45 -29 65t-78 20zM62 677q38 4 90.5 6.5t107.5 2.5q57 0 105 -8.5t83 -28.5t54.5 -53t19.5 -83q0 -49 -29 -89.5
t-83 -60.5v-2q27 -8 51.5 -22.5t43 -36t29.5 -48.5t11 -60q0 -57 -21.5 -95t-63.5 -61t-104 -32.5t-143 -9.5q-48 0 -85 1.5t-66 3.5v676z" />
    <glyph glyph-name="B" unicode="&#xe000;" horiz-adv-x="581" 
d="M196 303v-200q14 -2 29 -2h33q64 0 104 22t40 79q0 52 -36 76.5t-91 24.5h-79zM277 582q-26 0 -45.5 -1t-35.5 -3v-172h66q62 0 92 23.5t30 67.5q0 45 -29 65t-78 20zM62 677q38 4 90.5 6.5t107.5 2.5q57 0 105 -8.5t83 -28.5t54.5 -53t19.5 -83q0 -49 -29 -89.5
t-83 -60.5v-2q27 -8 51.5 -22.5t43 -36t29.5 -48.5t11 -60q0 -57 -21.5 -95t-63.5 -61t-104 -32.5t-143 -9.5q-48 0 -85 1.5t-66 3.5v676z" />
    <glyph glyph-name="C" unicode="C" horiz-adv-x="573" 
d="M176 341q0 -112 53 -175t153 -63q38 0 76.5 7t67.5 19l14 -110q-26 -12 -72.5 -20.5t-102.5 -8.5q-83 0 -145.5 26.5t-103.5 73t-61.5 109.5t-20.5 136q0 80 24 146t68 113t107.5 73t141.5 26q56 0 100.5 -9t69.5 -21l-19 -110q-29 12 -65.5 19.5t-78.5 7.5
q-46 0 -84 -15.5t-65 -45.5t-42 -75t-15 -103z" />
    <glyph glyph-name="D" unicode="D" horiz-adv-x="659" 
d="M62 677q46 5 99 7t109 2q90 0 156.5 -23t110.5 -66.5t66 -105.5t22 -140q0 -181 -100.5 -268t-294.5 -87q-52 0 -93.5 1.5t-74.5 3.5v676zM275 578q-24 0 -43.5 -1t-33.5 -3v-467q11 -2 25 -2h28q55 0 98 13.5t72.5 43t45 76t15.5 111.5q0 112 -53.5 170.5t-153.5 58.5z
" />
    <glyph glyph-name="E" unicode="E" horiz-adv-x="517" 
d="M462 570h-264v-163h246l-7 -112h-239v-183h284l-7 -112h-413v683h406z" />
    <glyph glyph-name="E" unicode="&#xe001;" horiz-adv-x="517" 
d="M462 570h-264v-163h246l-7 -112h-239v-183h284l-7 -112h-413v683h406z" />
    <glyph glyph-name="F" unicode="F" horiz-adv-x="503" 
d="M459 570h-261v-176h242l-6 -112h-236v-282h-136v683h404z" />
    <glyph glyph-name="G" unicode="G" horiz-adv-x="637" 
d="M358 373h227v-346q-18 -6 -41.5 -12.5t-51 -11.5t-57.5 -8t-60 -3q-86 0 -150 25.5t-106.5 71t-63.5 109t-21 139.5q0 78 24 143.5t69 112t110.5 72.5t148.5 26q57 0 105 -9.5t77 -21.5l-20 -112q-32 14 -70.5 21.5t-89.5 7.5q-48 0 -87 -15t-66.5 -45t-43 -74
t-15.5 -102q0 -113 55.5 -175.5t150.5 -62.5q23 0 41 2.5t29 6.5v150h-101z" />
    <glyph glyph-name="H" unicode="H" horiz-adv-x="655" 
d="M198 0h-136v683h136v-272h259v272h135v-683h-135v293h-259v-293z" />
    <glyph glyph-name="I" unicode="I" horiz-adv-x="261" 
d="M198 0h-136v683h136v-683z" />
    <glyph glyph-name="J" unicode="J" horiz-adv-x="256" 
d="M62 683h136v-519q0 -91 -19.5 -154.5t-55.5 -104t-86 -59.5t-111 -21l-13 105q46 2 75 17.5t45.5 44.5t22.5 72.5t6 101.5v517z" />
    <glyph glyph-name="K" unicode="K" horiz-adv-x="583" 
d="M196 366l54 46l162 271h165l-221 -308l231 -375h-162l-171 298l-58 -44v-254h-134v683h134v-317z" />
    <glyph glyph-name="L" unicode="L" horiz-adv-x="492" 
d="M198 683v-569h278l-7 -114h-407v683h136z" />
    <glyph glyph-name="M" unicode="M" horiz-adv-x="803" 
d="M200 493h-3l-8 -235l-8 -258h-129l28 683h177l77 -253l66 -243h3l69 243l79 253h175l25 -683h-134l-8 258l-4 235h-3l-151 -493h-112z" />
    <glyph glyph-name="N" unicode="N" horiz-adv-x="659" 
d="M451 0q-51 94 -91 166.5t-71.5 131t-56 105t-43.5 87.5h-3l4 -203v-287h-128v683h155q66 -119 132 -239t121 -241h2l-5 204v276h129v-683h-145z" />
    <glyph glyph-name="O" unicode="O" horiz-adv-x="681" 
d="M341 -11q-74 0 -131.5 27t-96.5 74t-59 110.5t-20 137.5q0 75 20.5 140t59.5 113t96 75.5t131 27.5q76 0 133 -27.5t95.5 -75t58 -111.5t19.5 -137q0 -78 -20 -143.5t-59 -112t-96 -72.5t-131 -26zM341 100q42 0 72.5 18t51 50t30 76t9.5 97q0 52 -9.5 96t-29 76.5
t-50.5 51t-74 18.5t-74 -18t-51 -50.5t-29.5 -77t-9.5 -97.5q0 -54 10 -98t30 -75.5t51 -49t73 -17.5z" />
    <glyph glyph-name="P" unicode="P" horiz-adv-x="563" 
d="M276 255h-15.5t-24.5 0.5t-24.5 1t-15.5 0.5v-257h-134v677q39 4 87.5 6.5t108.5 2.5q54 0 103.5 -10t87 -34t59.5 -64.5t22 -100.5q0 -55 -18.5 -96.5t-51.5 -70t-80 -42.5t-104 -13zM196 366q24 -3 53 -3q65 -1 104.5 26.5t39.5 84.5t-33 80.5t-93 23.5q-46 0 -71 -3
v-209z" />
    <glyph glyph-name="Q" unicode="Q" horiz-adv-x="692" 
d="M341 0q-75 0 -132.5 23.5t-96 67.5t-58.5 106.5t-20 140.5q0 79 21.5 145t61.5 112.5t96.5 72.5t127.5 26q70 0 126.5 -25t96.5 -71t61.5 -111t21.5 -144q0 -31 -6.5 -63.5t-18.5 -62.5t-29 -56t-39 -45v-2h125l-7 -114h-331zM341 583q-80 0 -122 -62.5t-42 -180.5
q0 -116 43 -176t121 -60q75 0 119 60.5t44 176.5q0 118 -42.5 180t-120.5 62z" />
    <glyph glyph-name="R" unicode="R" horiz-adv-x="568" 
d="M530 488q0 -34 -9.5 -63t-26.5 -52t-40 -39t-50 -25v-2l152 -307h-147l-126 272h-87v-272h-134v677q42 4 93 6.5t107 2.5q136 0 202 -48.5t66 -149.5zM196 376h76q54 0 87 27.5t33 75.5q0 58 -32.5 79.5t-89.5 21.5q-25 0 -43 -1t-31 -2v-201z" />
    <glyph glyph-name="S" unicode="S" horiz-adv-x="517" 
d="M231 102q51 0 80.5 21.5t29.5 60.5q0 33 -22 54.5t-54.5 38.5t-70.5 34t-70.5 41t-54.5 59.5t-22 89.5q0 45 18.5 80.5t50.5 60.5t75.5 38t93.5 13q52 0 95.5 -9t75.5 -23l-21 -112q-27 12 -66 22t-85 10q-48 0 -74 -21t-26 -53q0 -31 22 -50.5t55 -36t71.5 -33t71.5 -41
t55 -60.5t22 -92q0 -45 -17 -82.5t-49.5 -64.5t-80.5 -42t-109 -15q-26 0 -52.5 3t-51 8t-46.5 12t-37 15l19 113q35 -17 81.5 -28t92.5 -11z" />
    <glyph glyph-name="S" unicode="&#xe002;" horiz-adv-x="517" 
d="M231 102q51 0 80.5 21.5t29.5 60.5q0 33 -22 54.5t-54.5 38.5t-70.5 34t-70.5 41t-54.5 59.5t-22 89.5q0 45 18.5 80.5t50.5 60.5t75.5 38t93.5 13q52 0 95.5 -9t75.5 -23l-21 -112q-27 12 -66 22t-85 10q-48 0 -74 -21t-26 -53q0 -31 22 -50.5t55 -36t71.5 -33t71.5 -41
t55 -60.5t22 -92q0 -45 -17 -82.5t-49.5 -64.5t-80.5 -42t-109 -15q-26 0 -52.5 3t-51 8t-46.5 12t-37 15l19 113q35 -17 81.5 -28t92.5 -11z" />
    <glyph glyph-name="T" unicode="T" horiz-adv-x="515" 
d="M10 568l7 115h487l-7 -115h-172v-568h-137v568h-178z" />
    <glyph glyph-name="U" unicode="U" horiz-adv-x="647" 
d="M319 -10q-125 0 -193 69t-68 214v410h136v-417q0 -79 33 -122.5t95 -43.5q131 0 131 166v417h136v-389q0 -152 -65.5 -228t-204.5 -76z" />
    <glyph glyph-name="V" unicode="V" horiz-adv-x="595" 
d="M215 0l-212 683h149l104 -383l42 -173h3l42 173l103 383h146l-214 -683h-163z" />
    <glyph glyph-name="W" unicode="W" horiz-adv-x="846" 
d="M502 684l60 -301l41 -225h3l37 225l54 300h141l-155 -684h-156l-103 491h-2l-107 -491h-157l-151 684h147l53 -300l38 -227h2l44 227l63 301h148z" />
    <glyph glyph-name="X" unicode="X" horiz-adv-x="583" 
d="M408 0l-67 138l-54 117h-2l-51 -117l-63 -138h-155l188 347l-181 336h158l64 -138l46 -107h2l45 107l63 138h157l-184 -333l192 -350h-158z" />
    <glyph glyph-name="Y" unicode="Y" horiz-adv-x="562" 
d="M212 0v263l-207 420h155l67 -165l56 -150h2l55 150l68 165h155l-209 -420v-263h-142z" />
    <glyph glyph-name="Z" unicode="Z" horiz-adv-x="540" 
d="M505 598l-303 -483v-2h309l-7 -113h-479v80l309 487v3h-283l7 113h447v-85z" />
    <glyph glyph-name="bracketleft" unicode="[" horiz-adv-x="315" 
d="M64 -159v908h213l-4 -78h-102v-753h107l-4 -77h-210z" />
    <glyph glyph-name="backslash" unicode="\" horiz-adv-x="374" 
d="M115 690l238 -716h-97l-239 716h98z" />
    <glyph glyph-name="bracketright" unicode="]" horiz-adv-x="315" 
d="M37 -159l4 78h103v752h-106l4 78h208v-908h-213z" />
    <glyph glyph-name="asciicircum" unicode="^" horiz-adv-x="565" 
d="M142 288h-83l187 387h73l186 -387h-84l-138 292h-2z" />
    <glyph glyph-name="underscore" unicode="_" horiz-adv-x="509" 
d="M478 -61v-55h-478v55h478z" />
    <glyph glyph-name="grave" unicode="`" horiz-adv-x="397" 
d="M295 550h-87l-121 153h133z" />
    <glyph glyph-name="a" unicode="a" horiz-adv-x="513" 
d="M453 117q0 -32 1 -62.5t4 -54.5h-99l-30 57h-3q-27 -32 -63 -49.5t-84 -17.5q-33 0 -60.5 11.5t-47 30.5t-30 44.5t-10.5 53.5q0 41 12.5 68.5t34.5 44t53 23.5t69 7h118v49q0 16 -3 30t-12.5 24t-27 15.5t-46.5 5.5q-46 0 -81 -10t-64 -22l-22 100q32 14 83 26t109 12
q55 0 93.5 -10t61.5 -30t33.5 -51t10.5 -73v-222zM229 84q13 0 28 4t28 12t22.5 19t12.5 25v50h-88q-12 0 -24 -1t-21.5 -6.5t-15.5 -16t-6 -28.5q0 -30 18.5 -44t45.5 -14z" />
    <glyph glyph-name="b" unicode="b" horiz-adv-x="571" 
d="M337 503q47 0 84.5 -18.5t63 -51.5t39 -78.5t13.5 -98.5q0 -62 -16.5 -111t-45.5 -83.5t-68 -53t-85 -18.5q-45 0 -78.5 16t-60.5 54h-2l-29 -60h-97q1 15 2 35.5t1.5 42t0.5 42v34.5v573l135 4v-297h2q20 28 54 48.5t87 20.5zM293 398q-34 0 -59.5 -18t-39.5 -48v-157
q0 -12 6.5 -26t19 -26t30.5 -20t41 -8q30 0 50.5 12.5t33 33.5t18.5 49t6 59q0 41 -9 69.5t-23.5 46t-33.5 25.5t-40 8z" />
    <glyph glyph-name="b" unicode="&#xe003;" horiz-adv-x="571" 
d="M337 503q47 0 84.5 -18.5t63 -51.5t39 -78.5t13.5 -98.5q0 -62 -16.5 -111t-45.5 -83.5t-68 -53t-85 -18.5q-45 0 -78.5 16t-60.5 54h-2l-29 -60h-97q1 15 2 35.5t1.5 42t0.5 42v34.5v573l135 4v-297h2q20 28 54 48.5t87 20.5zM293 398q-34 0 -59.5 -18t-39.5 -48v-157
q0 -12 6.5 -26t19 -26t30.5 -20t41 -8q30 0 50.5 12.5t33 33.5t18.5 49t6 59q0 41 -9 69.5t-23.5 46t-33.5 25.5t-40 8z" />
    <glyph glyph-name="c" unicode="c" horiz-adv-x="461" 
d="M172 246q0 -39 11 -67.5t30 -47t44 -27t53 -8.5q33 0 62 5.5t51 14.5l12 -101q-26 -11 -67 -18t-85 -7q-57 0 -103 16.5t-78.5 49t-50.5 79.5t-18 108q0 57 18 104.5t52.5 82t84.5 53.5t115 19q33 0 69 -6t63 -17l-15 -102q-19 8 -48 14.5t-63 6.5q-63 0 -100 -38.5
t-37 -113.5z" />
    <glyph glyph-name="d" unicode="d" horiz-adv-x="569" 
d="M236 -10q-47 0 -84.5 19t-63.5 52.5t-40.5 79.5t-14.5 100q0 58 15.5 106.5t44 83t67 53.5t85.5 19t77 -15.5t50 -41.5h2v281l135 4v-589q0 -14 0.5 -33t1 -39t1 -38.5t1.5 -31.5h-96l-29 66h-2q-24 -36 -61.5 -56t-88.5 -20zM277 96q22 0 40 8t31 19.5t19.5 25t6.5 24.5
v164q-17 35 -44.5 48.5t-50.5 13.5q-30 0 -50.5 -13.5t-33 -35t-18.5 -49.5t-6 -57q0 -42 9.5 -70.5t24.5 -45.5t34 -24.5t38 -7.5z" />
    <glyph glyph-name="e" unicode="e" horiz-adv-x="515" 
d="M281 -10q-120 0 -184 65.5t-64 183.5q0 54 15 102t45.5 84t76 57t106.5 21q62 0 105 -24t67.5 -64.5t31 -93t-3.5 -109.5h-310q1 -32 12 -55t29.5 -37.5t43 -21t52.5 -6.5q41 0 76.5 6.5t65.5 17.5l12 -96q-35 -14 -81 -22t-95 -8zM355 305q1 2 1 5v5q0 15 -4 31.5
t-14 30t-27 22t-43 8.5q-23 0 -40.5 -8.5t-30 -22.5t-20 -32.5t-9.5 -38.5h187z" />
    <glyph glyph-name="f" unicode="f" horiz-adv-x="327" 
d="M78 532q0 46 12 84t35 65t57 41.5t78 14.5q21 0 42.5 -2t37.5 -5l-12 -104q-8 2 -15.5 2.5t-18.5 0.5q-48 0 -65 -26.5t-17 -66.5v-44h103l-7 -99h-95v-393h-135v393h-63l7 93l56 6v40z" />
    <glyph glyph-name="g" unicode="g" horiz-adv-x="530" 
d="M463 316q0 -42 -18 -75.5t-47 -57.5t-66.5 -36.5t-76.5 -12.5q-27 0 -49 4.5t-41 12.5q-8 -11 -13 -21t-3 -21q1 -13 11.5 -21.5t34.5 -10.5q70 -5 128.5 -10t101 -18.5t67 -38.5t25.5 -71q1 -29 -12 -60.5t-46 -58.5t-90.5 -44.5t-146.5 -16.5q-11 0 -32 1.5t-45.5 6.5
t-50 14.5t-46 25.5t-33.5 40.5t-12 58.5q1 29 22 58.5t55 46.5v2q-17 12 -23.5 29t-6.5 34q0 26 18 53t45 50v2q-13 9 -25.5 22.5t-22.5 31t-16 38t-6 43.5q0 43 16 77.5t44.5 59t67 37.5t82.5 13q27 0 57 -6t50 -17q0 12 3.5 26t11.5 26t23.5 20t39.5 8h80v-86h-73
q-11 0 -24 -5.5t-14 -20.5q26 -23 41 -55.5t15 -76.5zM170 316q0 -29 7 -47.5t19 -30t27 -16t30 -4.5t29.5 4.5t26 16t19 30t7.5 47.5q0 28 -7 47t-19 30.5t-26.5 16t-29.5 4.5t-30 -4.5t-27 -16t-19 -30.5t-7 -47zM191 -18q-28 2 -43 7q-32 -23 -32 -53q0 -21 12 -34.5
t29.5 -20.5t37 -10t35.5 -3q57 -2 91 6t52 20t23 24.5t4 21.5q-1 11 -16 18.5t-42.5 12t-66 7t-84.5 4.5z" />
    <glyph glyph-name="h" unicode="h" horiz-adv-x="570" 
d="M346 503q83 0 124 -54.5t41 -157.5v-291h-136v284q0 24 -3.5 44.5t-13 35.5t-25.5 23t-40 8q-30 0 -56 -17t-43 -37v-341h-135v727l135 4v-298h2q31 34 68.5 52t81.5 18z" />
    <glyph glyph-name="i" unicode="i" horiz-adv-x="254" 
d="M59 492l135 4v-496h-135v492zM52 652q0 31 21.5 53t52.5 22q32 0 53.5 -22t21.5 -53q0 -32 -21.5 -53t-53.5 -21q-31 0 -52.5 21t-21.5 53z" />
    <glyph glyph-name="j" unicode="j" horiz-adv-x="264" 
d="M69 492l136 4v-442q0 -83 -16.5 -137t-47 -86.5t-75 -46.5t-100.5 -15l-14 106q39 4 62 18t35 39t16 60t4 81v419zM63 652q0 31 21 53t53 22q31 0 53 -22t22 -53q0 -32 -22 -53t-53 -21q-32 0 -53 21t-21 53z" />
    <glyph glyph-name="k" unicode="k" horiz-adv-x="521" 
d="M237 324l111 168h163l-177 -209l195 -283h-168l-125 212l-42 -32v-180h-135v727l135 4v-440z" />
    <glyph glyph-name="l" unicode="l" horiz-adv-x="254" 
d="M59 727l135 4v-731h-135v727z" />
    <glyph glyph-name="m" unicode="m" horiz-adv-x="854" 
d="M335 503q50 0 84 -21.5t50 -58.5h3q33 38 72.5 59t89.5 21q79 0 120 -52.5t41 -153.5v-297h-133v282q0 54 -16.5 83.5t-59.5 29.5q-31 0 -54 -16.5t-39 -40.5v-338h-133v277q0 51 -15 84.5t-56 33.5q-33 0 -57.5 -19t-39.5 -47v-329h-133v341q0 42 -0.5 77.5t-2.5 73.5
l117 4l9 -67h3q25 28 60 51t90 23z" />
    <glyph glyph-name="n" unicode="n" horiz-adv-x="570" 
d="M343 503q83 0 125.5 -53.5t42.5 -153.5v-296h-136v285q0 49 -15.5 78.5t-58.5 29.5q-35 0 -62.5 -18.5t-44.5 -47.5v-327h-135v341q0 82 -3 151l117 4l9 -67h3q26 28 64.5 51t93.5 23z" />
    <glyph glyph-name="o" unicode="o" horiz-adv-x="561" 
d="M389 246q0 81 -28.5 119t-79.5 38t-79.5 -38t-28.5 -119t28.5 -119t79.5 -38t79.5 38t28.5 119zM529 244q0 -66 -21 -114t-55.5 -79.5t-79 -46.5t-92.5 -15t-93 15t-79.5 46t-55 79.5t-20.5 114.5q0 69 20.5 118.5t55 80.5t79.5 45.5t93 14.5t92.5 -14.5t79 -46
t55.5 -80.5t21 -118z" />
    <glyph glyph-name="p" unicode="p" horiz-adv-x="571" 
d="M337 503q47 0 84 -20t63 -54t39.5 -79.5t13.5 -97.5q0 -62 -16.5 -110.5t-45.5 -82.5t-68 -51.5t-84 -17.5q-35 0 -68.5 12t-58.5 44h-2v-265h-135v537q0 44 -0.5 89.5t-2.5 84.5l117 4l9 -67h3q29 38 67 56t85 18zM293 397q-34 0 -60.5 -20t-38.5 -47v-163q0 -9 6 -22
t18.5 -24.5t30.5 -19.5t42 -8q28 0 48 11.5t33.5 32.5t20 49.5t6.5 61.5q0 42 -9 70.5t-24 46t-34 25t-39 7.5z" />
    <glyph glyph-name="q" unicode="q" horiz-adv-x="569" 
d="M233 -10q-45 0 -82 18.5t-63 51.5t-40.5 79t-14.5 100q0 66 18 115.5t47 82.5t67 49.5t79 16.5q50 0 83.5 -20.5t56.5 -49.5h3l10 59h115q-1 -35 -2 -77t-1 -84v-550h-135v277h-2q-25 -35 -60.5 -51.5t-78.5 -16.5zM277 95q23 0 41 8t30.5 20t19 25t6.5 23v166
q-14 29 -40 44.5t-55 15.5q-19 0 -38.5 -7.5t-35 -25t-25 -47t-9.5 -74.5q0 -41 9 -69t24 -45.5t34 -25.5t39 -8z" />
    <glyph glyph-name="r" unicode="r" horiz-adv-x="365" 
d="M346 378q-46 12 -86.5 1t-65.5 -56v-323h-135v332q0 48 -1 86.5t-2 73.5l117 4l10 -85h2q24 45 65.5 70.5t95.5 19.5v-123z" />
    <glyph glyph-name="s" unicode="s" horiz-adv-x="430" 
d="M193 86q38 0 55.5 13t17.5 36q0 20 -16.5 33t-41.5 24.5t-54 23t-54 28.5t-41.5 42t-16.5 63q0 37 14.5 65.5t40 48t60.5 30t77 10.5q41 0 78.5 -8t63.5 -20l-17 -97q-21 10 -56 19t-67 9q-29 0 -46.5 -10.5t-17.5 -32.5q0 -18 16.5 -30t41.5 -23t54.5 -23t54.5 -30
t41.5 -44t16.5 -65q0 -77 -56 -117.5t-149 -40.5q-43 0 -86.5 8t-72.5 22l17 100q12 -6 30 -12t37.5 -11t39 -8t36.5 -3z" />
    <glyph glyph-name="s" unicode="&#xe004;" horiz-adv-x="430" 
d="M193 86q38 0 55.5 13t17.5 36q0 20 -16.5 33t-41.5 24.5t-54 23t-54 28.5t-41.5 42t-16.5 63q0 37 14.5 65.5t40 48t60.5 30t77 10.5q41 0 78.5 -8t63.5 -20l-17 -97q-21 10 -56 19t-67 9q-29 0 -46.5 -10.5t-17.5 -32.5q0 -18 16.5 -30t41.5 -23t54.5 -23t54.5 -30
t41.5 -44t16.5 -65q0 -77 -56 -117.5t-149 -40.5q-43 0 -86.5 8t-72.5 22l17 100q12 -6 30 -12t37.5 -11t39 -8t36.5 -3z" />
    <glyph glyph-name="t" unicode="t" horiz-adv-x="356" 
d="M80 393h-63l6 95l63 4l9 112l119 25v-137h115l-7 -99h-108v-207q0 -50 19.5 -67t50.5 -17q13 0 23 1.5t20 3.5l1 -102q-16 -6 -45.5 -10.5t-60.5 -4.5q-77 0 -109.5 43.5t-32.5 140.5v219z" />
    <glyph glyph-name="u" unicode="u" horiz-adv-x="568" 
d="M223 -10q-165 0 -165 208v294h135v-280q0 -53 17 -84t64 -31q19 0 36.5 7t31 18.5t22 25t8.5 26.5v318h136v-335q0 -90 3 -157h-97l-28 66h-2q-26 -35 -63.5 -55.5t-97.5 -20.5z" />
    <glyph glyph-name="v" unicode="v" horiz-adv-x="497" 
d="M179 0l-174 492h144l99 -361h2l98 361h144l-174 -492h-139z" />
    <glyph glyph-name="w" unicode="w" horiz-adv-x="747" 
d="M489 275l34 -151h2l78 368h138l-146 -492h-141l-81 323h-2l-81 -323h-142l-142 492h141l77 -368h2l35 152l54 216h120z" />
    <glyph glyph-name="x" unicode="x" horiz-adv-x="493" 
d="M243 172h-2l-88 -172h-148l164 253l-158 239h151q13 -25 27 -51.5t26.5 -49.5t21.5 -39.5t12 -21.5h2l81 162h149l-159 -235l164 -257h-153z" />
    <glyph glyph-name="y" unicode="y" horiz-adv-x="502" 
d="M222 7h-33l-185 485h151q5 -18 13 -47t18.5 -63.5t21 -71.5t21 -71.5t18.5 -63.5t13 -47h3l89 364h148l-243 -724h-133z" />
    <glyph glyph-name="y" unicode="&#xe006;" horiz-adv-x="502" 
d="M222 7h-33l-185 485h151q5 -18 13 -47t18.5 -63.5t21 -71.5t21 -71.5t18.5 -63.5t13 -47h3l89 364h148l-243 -724h-133z" />
    <glyph glyph-name="z" unicode="z" horiz-adv-x="455" 
d="M427 406l-236 -301l243 -1l-6 -104h-403v83l244 305h-226l6 104h378v-86z" />
    <glyph glyph-name="braceleft" unicode="{" horiz-adv-x="355" 
d="M314 676q-60 0 -79.5 -23.5t-19.5 -66.5q0 -14 2 -34t4.5 -42t4 -45t1.5 -44q0 -33 -7.5 -56t-21 -38.5t-33 -24t-42.5 -13.5v-2q22 -5 41 -14t33 -24t22 -37.5t8 -55.5q0 -17 -1.5 -37t-3.5 -40.5t-4 -40t-2 -35.5q0 -25 4.5 -43t16 -29.5t31 -17.5t50.5 -6l-4 -70
q-53 1 -90.5 8t-62.5 23.5t-36.5 44.5t-11.5 72q0 40 7 87.5t7 87.5q0 21 -3 37t-13 27.5t-27.5 18.5t-46.5 10v70q29 3 46.5 9.5t27.5 17.5t13 27.5t3 37.5q0 43 -7.5 92t-7.5 93q0 80 50 111.5t156 33.5z" />
    <glyph glyph-name="bar" unicode="|" horiz-adv-x="265" 
d="M182 -197h-100v971h100v-971z" />
    <glyph glyph-name="braceright" unicode="}" horiz-adv-x="352" 
d="M39 -93q56 0 77.5 22t21.5 72q0 16 -2 36.5t-4 41.5l-4 42t-2 38q0 33 8 55.5t22 37.5t33 23.5t41 13.5v2q-23 5 -42 13.5t-33 23.5t-21.5 38t-7.5 56q0 21 1.5 44t4 45t4 41.5t1.5 33.5q0 48 -22.5 69t-79.5 21l4 69q52 -1 90.5 -8.5t63 -24t36.5 -44t12 -67.5
q0 -43 -7.5 -92.5t-7.5 -91.5q0 -21 3 -37t13 -27.5t27.5 -18.5t46.5 -9v-70q-29 -3 -46.5 -10t-27 -18t-12.5 -27t-3 -37t2.5 -44.5t5 -47.5t5 -47t2.5 -43q0 -42 -13 -69.5t-38.5 -44t-64.5 -23t-91 -7.5z" />
    <glyph glyph-name="asciitilde" unicode="~" horiz-adv-x="580" 
d="M58 243q5 74 41 116.5t87 42.5q26 0 55 -11t57.5 -24t54 -24t45.5 -11q21 0 33.5 15t18.5 53l71 -10q-1 -39 -11.5 -68.5t-27 -49t-38 -29.5t-45.5 -10q-29 0 -59.5 10.5t-58.5 23.5t-53 23.5t-43 10.5q-22 0 -35.5 -14.5t-20.5 -52.5z" />
    <glyph glyph-name="exclamdown" unicode="&#xa1;" horiz-adv-x="280" 
d="M88 269h105l18 -470h-142zM224 430q0 -17 -6.5 -32.5t-18 -27t-26.5 -18t-33 -6.5q-35 0 -59.5 24.5t-24.5 59.5q0 18 6.5 33.5t18 27t27 18t32.5 6.5q35 0 59.5 -25t24.5 -60z" />
    <glyph glyph-name="cent" unicode="&#xa2;" horiz-adv-x="528" 
d="M352 555q28 -2 57 -8t52 -14l-15 -103q-20 9 -47.5 15.5t-59.5 6.5q-63 0 -102 -35.5t-39 -112.5q0 -40 11 -68.5t29.5 -46.5t43 -26.5t51.5 -8.5q36 0 66 7t53 16q2 -23 6 -51t6 -50q-21 -9 -50.5 -15.5t-61.5 -8.5v-98h-94v100q-93 12 -146 75t-53 170q0 49 13 91
t38.5 75t62.5 55t85 31v103h94v-99z" />
    <glyph glyph-name="sterling" unicode="&#xa3;" horiz-adv-x="554" 
d="M392 375l-7 -96h-122v-22t-1 -22q-5 -38 -20.5 -69.5t-44.5 -57.5v-2h294l-6 -106h-430l-9 66q40 27 68 69.5t29 93.5q0 23 -3 50h-89l7 96h65q-5 25 -8 50.5t-3 50.5q0 52 19.5 90t51 62.5t72.5 36t84 11.5q45 0 79 -7t56 -17l-15 -107q-25 10 -55.5 16t-62.5 6
q-48 0 -74 -26t-26 -71q0 -24 4 -47.5t8 -47.5h139z" />
    <glyph glyph-name="currency" unicode="&#xa4;" horiz-adv-x="536" 
d="M268 498q66 0 110 -36l77 84l43 -44l-82 -81q16 -20 27 -49t11 -67q0 -39 -11.5 -68.5t-28.5 -49.5l81 -82l-44 -44l-73 86q-23 -19 -52.5 -28.5t-58.5 -9.5q-30 0 -59.5 10t-50.5 27l-73 -85l-43 44l79 80q-17 21 -28.5 50.5t-11.5 67.5q0 39 11.5 68t28.5 50l-82 81
l43 45l77 -86q43 37 110 37zM267 433q-24 0 -45 -10t-36 -27t-24 -41t-9 -51q0 -30 10 -54t26 -40.5t36.5 -25.5t41.5 -9q22 0 42.5 8.5t36.5 25t26 41t10 55.5q0 26 -9 49.5t-24.5 41t-36.5 27.5t-45 10z" />
    <glyph glyph-name="yen" unicode="&#xa5;" horiz-adv-x="553" 
d="M209 0v138h-151l1 63h150v39h-151l1 62h140l-188 365h150l114 -291h2l115 291h150l-188 -365h141l-1 -62h-150v-39h151l-1 -63h-150v-138h-135z" />
    <glyph glyph-name="brokenbar" unicode="&#xa6;" horiz-adv-x="265" 
d="M182 371h-100v354h100v-354zM182 -149h-100v353h100v-353z" />
    <glyph glyph-name="section" unicode="&#xa7;" horiz-adv-x="543" 
d="M467 107q0 -45 -20 -75.5t-50.5 -49t-68 -26.5t-73.5 -8q-42 0 -91.5 8.5t-85.5 28.5q0 1 3 15t6 30t6 29.5t4 15.5q12 -6 30.5 -13t39.5 -12t43 -8.5t42 -3.5q41 0 64.5 14t23.5 41q0 22 -21 37t-52 28t-68 26t-68 32.5t-52 47.5t-21 71q0 33 17 64t51 51v2
q-17 14 -28.5 38t-11.5 53q0 38 16.5 66t44.5 46.5t65 27.5t79 9q41 0 81 -7t73 -21q-4 -23 -7.5 -45t-7.5 -45q-25 11 -62.5 20t-76.5 9q-38 0 -60.5 -12.5t-22.5 -36.5q0 -22 20.5 -35.5t51.5 -25t67 -24t67 -32t51.5 -48.5t20.5 -73q0 -38 -16.5 -67t-43.5 -50v-2
q16 -14 28.5 -37t12.5 -53zM172 354q0 -21 18.5 -37t45 -28t56.5 -22t53 -20q12 8 19.5 21t7.5 28q0 23 -17.5 39t-43 28t-54 21t-50.5 20q-16 -8 -25.5 -20.5t-9.5 -29.5z" />
    <glyph glyph-name="dieresis" unicode="&#xa8;" horiz-adv-x="503" 
d="M85 630q0 27 18.5 46.5t45.5 19.5t46 -19.5t19 -46.5t-19 -45.5t-46 -18.5t-45.5 18.5t-18.5 45.5zM288 630q0 27 19 46.5t46 19.5t46 -19.5t19 -46.5t-19 -45.5t-46 -18.5t-46 18.5t-19 45.5z" />
    <glyph glyph-name="copyright" unicode="&#xa9;" horiz-adv-x="762" 
d="M56 343q0 67 25.5 126.5t69.5 104t103.5 70t127.5 25.5q67 0 126.5 -25.5t103 -70t69 -104t25.5 -126.5q0 -68 -25.5 -127.5t-69 -104t-103 -70t-126.5 -25.5q-68 0 -127.5 25.5t-103.5 70t-69.5 104t-25.5 127.5zM109 341q0 -58 21.5 -108.5t58 -88t86 -59t106.5 -21.5
q56 0 105.5 21.5t86.5 59t58.5 88t21.5 109.5q0 58 -21.5 109t-58.5 89t-86.5 60t-105.5 22h-1q-56 0 -105.5 -22t-86.5 -60t-58 -89.5t-21 -109.5zM288 339q0 -54 29.5 -86.5t86.5 -32.5q55 0 96 22l10 -54q-26 -15 -55 -21t-59 -6q-46 0 -80 14t-56 38t-32.5 56t-10.5 68
q0 39 13 72t37.5 57t58.5 37.5t76 13.5q33 0 60.5 -8t43.5 -16l-9 -56q-15 7 -38.5 13.5t-55.5 6.5q-57 0 -86 -31t-29 -87z" />
    <glyph glyph-name="ordfeminine" unicode="&#xaa;" horiz-adv-x="334" 
d="M295 380q0 -21 0.5 -40.5t2.5 -34.5h-63l-19 37h-2q-35 -43 -95 -43q-43 0 -69 26.5t-26 62.5q0 53 30.5 72.5t78.5 19.5h76v32q0 21 -10.5 34.5t-47.5 13.5q-29 0 -52 -6t-41 -14l-14 64q21 8 53.5 16t70.5 8q71 0 99 -25.5t28 -79.5v-143zM151 358q17 0 36.5 11
t23.5 29v32h-58q-16 0 -29.5 -5.5t-13.5 -28.5q0 -20 12 -29t29 -9z" />
    <glyph glyph-name="guillemotleft" unicode="&#xab;" horiz-adv-x="557" 
d="M155 257l108 -130l-67 -50l-143 180l143 180l67 -48zM368 257l108 -130l-67 -50l-143 180l143 180l67 -48z" />
    <glyph glyph-name="logicalnot" unicode="&#xac;" horiz-adv-x="596" 
d="M537 100h-75v201h-403v72h478v-273z" />
    <glyph glyph-name="registered" unicode="&#xae;" horiz-adv-x="615" 
d="M76 456q0 48 18 89.5t49.5 72.5t74 49t91.5 18q48 0 90.5 -18t74 -49t49.5 -72.5t18 -89.5t-18 -90.5t-49.5 -73.5t-74 -49t-90.5 -18q-49 0 -91.5 18t-74 49t-49.5 73.5t-18 90.5zM121 456q0 -40 14.5 -74.5t40 -60t60 -40.5t74.5 -15q39 0 73 14.5t59 40t39.5 60
t14.5 74.5t-14.5 74.5t-39.5 60.5t-59.5 41t-73.5 15t-73.5 -15t-60 -40.5t-40 -60.5t-14.5 -74zM275 423v-86h-43v229q20 2 39.5 3.5t38.5 1.5q45 0 67 -20t22 -52q0 -24 -13 -42t-40 -26v-2l67 -92h-49l-62 86h-27zM275 461h31q22 0 34.5 8.5t12.5 27.5q0 36 -45 36h-18
t-15 -1v-71z" />
    <glyph glyph-name="macron" unicode="&#xaf;" horiz-adv-x="452" 
d="M363 656v-70h-273v70h273z" />
    <glyph glyph-name="degree" unicode="&#xb0;" horiz-adv-x="358" 
d="M51 587q0 26 9.5 49t27 40.5t41.5 27.5t52 10q27 0 50.5 -10t40.5 -27t27 -40t10 -49q0 -27 -10 -50t-28 -40t-41.5 -26.5t-50.5 -9.5t-50.5 9.5t-41 26.5t-27 40t-9.5 49zM113 587q0 -29 19 -48.5t48 -19.5t47.5 19.5t18.5 48.5t-18.5 49.5t-48.5 20.5q-28 0 -47 -20.5
t-19 -49.5z" />
    <glyph glyph-name="plusminus" unicode="&#xb1;" horiz-adv-x="583" 
d="M51 28v91h194v131h-194v91h194v200h93v-200h194v-91h-194v-131h194v-91h-481z" />
    <glyph glyph-name="twosuperior" unicode="&#xb2;" horiz-adv-x="336" 
d="M201 704q0 28 -16.5 44.5t-48.5 16.5q-23 0 -44.5 -7t-41.5 -18l-18 62q24 14 56.5 24t70.5 10q66 0 101 -33.5t35 -85.5q0 -30 -12 -57t-32.5 -52t-47.5 -49t-56 -48v-2h152l-6 -68h-267v48q47 43 80 74.5t54 56t31 44.5t10 40z" />
    <glyph glyph-name="threesuperior" unicode="&#xb3;" horiz-adv-x="333" 
d="M132 499q36 0 55 16t19 40q0 32 -27 46t-64 14h-22v58h22q30 0 55 12t25 41q0 20 -14.5 32.5t-42.5 12.5q-26 0 -48.5 -7.5t-40.5 -15.5l-13 60q22 11 53 19t67 8q63 0 97 -27t34 -69q0 -32 -20.5 -55.5t-56.5 -36.5v-1q39 -8 64.5 -32.5t25.5 -62.5q0 -54 -43 -84.5
t-117 -30.5q-35 0 -66 6t-51 17l14 62q18 -8 43 -15t52 -7z" />
    <glyph glyph-name="acute" unicode="&#xb4;" horiz-adv-x="397" 
d="M311 703l-120 -153h-88l76 153h132z" />
    <glyph glyph-name="mu" unicode="&#xb5;" horiz-adv-x="569" 
d="M224 -10q-9 0 -20 2.5t-18 10.5v-39q0 -31 -6 -60t-17.5 -54.5t-27.5 -45.5t-37 -32l-85 53q15 15 24 29t14 30t6.5 35t1.5 44v529h135v-280q0 -54 16.5 -84.5t63.5 -30.5q19 0 37 7t31.5 18.5t22 25t8.5 26.5v318h136v-335q0 -90 3 -157h-97l-28 66h-2
q-26 -35 -63.5 -55.5t-97.5 -20.5z" />
    <glyph glyph-name="paragraph" unicode="&#xb6;" horiz-adv-x="552" 
d="M216 -46v310q-26 0 -56.5 11.5t-57.5 35.5t-45 60t-19 84q-1 38 10.5 76t41.5 69.5t82.5 52.5t133.5 24v-717zM379 -46v720h91v-714z" />
    <glyph glyph-name="periodcentered" unicode="&#xb7;" horiz-adv-x="256" 
d="M53 255q0 35 24.5 59.5t59.5 24.5q17 0 32 -6.5t26.5 -18t18 -26.5t6.5 -33q0 -35 -24 -59t-59 -24q-18 0 -33 6.5t-26.5 17.5t-18 26.5t-6.5 32.5z" />
    <glyph glyph-name="cedilla" unicode="&#xb8;" horiz-adv-x="382" 
d="M224 0l-19 -45q10 -4 23.5 -9.5t25.5 -14.5t20 -21.5t8 -30.5q0 -45 -37 -68t-91 -23q-16 0 -31.5 2.5t-29.5 7.5l12 52q11 -3 21.5 -4t20.5 -1q17 0 33 6t16 26q0 19 -18.5 30t-45.5 19q6 18 12.5 37t15.5 37h64z" />
    <glyph glyph-name="onesuperior" unicode="&#xb9;" horiz-adv-x="302" 
d="M211 441h-89v314h-3l-71 -33l-16 63l104 48h75v-392z" />
    <glyph glyph-name="ordmasculine" unicode="&#xba;" horiz-adv-x="359" 
d="M180 362q32 0 51 24.5t19 76.5t-19 76.5t-51 24.5t-51 -24.5t-19 -76.5t19 -76.5t51 -24.5zM180 628q31 0 59.5 -9.5t50.5 -29.5t35.5 -51.5t13.5 -75.5q0 -42 -13.5 -73t-35.5 -51.5t-50.5 -30t-59.5 -9.5t-59.5 9.5t-50.5 29.5t-35.5 51t-13.5 74q0 45 13.5 76.5
t35.5 51.5t50.5 29t59.5 9z" />
    <glyph glyph-name="guillemotright" unicode="&#xbb;" horiz-adv-x="557" 
d="M294 389l67 48l143 -180l-143 -180l-67 50l108 130zM81 389l66 48l143 -180l-143 -180l-66 50l108 130z" />
    <glyph glyph-name="onequarter" unicode="&#xbc;" horiz-adv-x="847" 
d="M222 281h-90v314l-74 -33l-16 63l104 48h76v-392zM627 674l-339 -681h-67l339 681h67zM673 240l3 82h-2l-101 -166h100v84zM758 394v-238h47l-6 -61h-41v-95h-85v95h-183v54l167 245h101z" />
    <glyph glyph-name="onehalf" unicode="&#xbd;" horiz-adv-x="847" 
d="M605 674l-339 -681h-67l339 681h67zM705 263q0 28 -16.5 44.5t-48.5 16.5q-24 0 -45.5 -7t-40.5 -18l-19 62q24 14 56.5 24t70.5 10q67 0 101.5 -33.5t34.5 -85.5q0 -30 -12 -56.5t-32.5 -52t-47.5 -50t-56 -49.5h153l-7 -68h-267v48q47 43 80.5 74.5t54.5 56t31 44.5
t10 40zM216 281h-89v314l-74 -33l-17 63l105 48h75v-392z" />
    <glyph glyph-name="threequarters" unicode="&#xbe;" horiz-adv-x="847" 
d="M645 674l-339 -681h-68l340 681h67zM143 339q37 0 56 16.5t19 39.5q0 32 -28 46.5t-64 14.5h-23v58h24q15 0 29.5 3t25.5 9t18 16t7 24q0 20 -14.5 32.5t-43.5 12.5q-26 0 -48 -7t-40 -15l-13 59q21 11 52 19t68 8q63 0 97 -26.5t34 -68.5q0 -33 -20.5 -56.5t-57.5 -35.5
v-2q40 -7 65 -32t25 -63q0 -54 -43 -85t-117 -31q-35 0 -65.5 6.5t-50.5 18.5l14 62q18 -9 43 -16t51 -7zM680 240l3 82h-3l-100 -166h100v84zM765 394v-238h47l-6 -61h-41v-95h-85v95h-183v54l167 245h101z" />
    <glyph glyph-name="questiondown" unicode="&#xbf;" horiz-adv-x="438" 
d="M300 271q2 -9 2.5 -20.5t0.5 -22.5q0 -32 -9.5 -55.5t-23.5 -42.5t-31 -34.5t-31 -30.5t-23.5 -32.5t-9.5 -39.5q0 -36 31.5 -57.5t88.5 -21.5q14 0 29 2t26 4l9 -104q-20 -3 -44 -6t-51 -3q-57 0 -99.5 13.5t-70 36.5t-41 53.5t-13.5 65.5t10.5 60.5t26.5 46.5t35 38.5
t35 36.5t26.5 41.5t10.5 52.5q0 2 -0.5 9.5t-0.5 9.5h117zM325 430q0 -17 -6.5 -32.5t-18 -27t-26.5 -18t-33 -6.5t-33.5 6.5t-27 18t-18 27t-6.5 32.5q0 35 25 60t60 25t59.5 -25t24.5 -60z" />
    <glyph glyph-name="Agrave" unicode="&#xc0;" 
d="M600 0h-147l-51 175h-200q-3 -13 -10 -37t-14.5 -50.5t-14.5 -50.5t-10 -37h-143l207 684h175zM301 571l-21 -81l-54 -209h153l-56 209l-20 81h-2zM378 743h-87l-121 153h133z" />
    <glyph glyph-name="Aacute" unicode="&#xc1;" 
d="M600 0h-147l-51 175h-200q-3 -13 -10 -37t-14.5 -50.5t-14.5 -50.5t-10 -37h-143l207 684h175zM301 571l-21 -81l-54 -209h153l-56 209l-20 81h-2zM439 896l-120 -153h-88l76 153h132z" />
    <glyph glyph-name="Acircumflex" unicode="&#xc2;" 
d="M600 0h-147l-51 175h-200q-3 -13 -10 -37t-14.5 -50.5t-14.5 -50.5t-10 -37h-143l207 684h175zM301 571l-21 -81l-54 -209h153l-56 209l-20 81h-2zM240 743h-81l108 157h79l108 -157h-80l-66 83h-2z" />
    <glyph glyph-name="Atilde" unicode="&#xc3;" 
d="M600 0h-147l-51 175h-200q-3 -13 -10 -37t-14.5 -50.5t-14.5 -50.5t-10 -37h-143l207 684h175zM301 571l-21 -81l-54 -209h153l-56 209l-20 81h-2zM251 800q-11 0 -19 -9.5t-16 -32.5l-56 5q6 59 28 90t55 31q19 0 35.5 -6.5t31.5 -14.5t28 -14.5t24 -6.5q12 0 20.5 7.5
t16.5 33.5l54 -8q-12 -116 -83 -116q-18 0 -35 6.5t-32.5 14t-29 14t-22.5 6.5z" />
    <glyph glyph-name="Adieresis" unicode="&#xc4;" 
d="M600 0h-147l-51 175h-200q-3 -13 -10 -37t-14.5 -50.5t-14.5 -50.5t-10 -37h-143l207 684h175zM301 571l-21 -81l-54 -209h153l-56 209l-20 81h-2zM140 823q0 27 19 46.5t46 19.5t46 -19.5t19 -46.5t-19 -45.5t-46 -18.5t-46 18.5t-19 45.5zM344 823q0 27 18.5 46.5
t45.5 19.5t46 -19.5t19 -46.5t-19 -45.5t-46 -18.5t-45.5 18.5t-18.5 45.5z" />
    <glyph glyph-name="Aring" unicode="&#xc5;" 
d="M600 0h-147l-51 175h-200q-3 -13 -10 -37t-14.5 -50.5t-14.5 -50.5t-10 -37h-143l204 677h20q-11 10 -18 25t-7 33q0 20 7.5 37.5t20.5 31t30.5 21t38.5 7.5q40 0 68 -28t28 -69q0 -18 -7.5 -33t-18.5 -25h18zM301 571l-21 -81l-54 -209h153l-56 209l-20 81h-2zM305 685
q22 0 36.5 14.5t14.5 35.5q0 22 -14.5 36.5t-36.5 14.5q-21 0 -35 -14.5t-14 -36.5q0 -20 14.5 -35t34.5 -15z" />
    <glyph glyph-name="AE" unicode="&#xc6;" horiz-adv-x="841" 
d="M777 570h-271l12 -165h249l-7 -112h-231l15 -181h266l-7 -112h-382l-15 195h-185l-85 -195h-143l309 683h482zM371 578l-106 -272h130l-13 181l-8 91h-3z" />
    <glyph glyph-name="Ccedilla" unicode="&#xc7;" horiz-adv-x="573" 
d="M176 341q0 -112 53 -175t153 -63q38 0 76.5 7t67.5 19l14 -110q-24 -11 -64 -19t-89 -9l-15 -36q10 -4 23 -9.5t25 -14.5t20 -21.5t8 -30.5q0 -45 -36.5 -68t-90.5 -23q-33 0 -61 10l12 52q11 -3 21 -4t20 -1q17 0 33 6t16 26q0 19 -18 30t-45 19q5 17 10 33.5t13 32.5
q-72 7 -126 36t-90 74.5t-54 105t-18 127.5q0 80 24 146t68 113t107.5 73t141.5 26q56 0 100.5 -9t69.5 -21l-19 -110q-29 12 -65.5 19.5t-78.5 7.5q-46 0 -84 -15.5t-65 -45.5t-42 -75t-15 -103z" />
    <glyph glyph-name="Egrave" unicode="&#xc8;" horiz-adv-x="517" 
d="M462 570h-264v-163h246l-7 -112h-239v-183h284l-7 -112h-413v683h406zM362 743h-87l-121 153h133z" />
    <glyph glyph-name="Eacute" unicode="&#xc9;" horiz-adv-x="517" 
d="M462 570h-264v-163h246l-7 -112h-239v-183h284l-7 -112h-413v683h406zM362 896l-120 -153h-88l76 153h132z" />
    <glyph glyph-name="Ecircumflex" unicode="&#xca;" horiz-adv-x="517" 
d="M462 570h-264v-163h246l-7 -112h-239v-183h284l-7 -112h-413v683h406zM191 743h-80l108 157h78l109 -157h-80l-67 83h-2z" />
    <glyph glyph-name="Edieresis" unicode="&#xcb;" horiz-adv-x="517" 
d="M462 570h-264v-163h246l-7 -112h-239v-183h284l-7 -112h-413v683h406zM92 823q0 27 19 46.5t46 19.5t46 -19.5t19 -46.5t-19 -45.5t-46 -18.5t-46 18.5t-19 45.5zM296 823q0 27 18.5 46.5t45.5 19.5t46 -19.5t19 -46.5t-19 -45.5t-46 -18.5t-45.5 18.5t-18.5 45.5z" />
    <glyph glyph-name="Igrave" unicode="&#xcc;" horiz-adv-x="261" 
d="M198 0h-136v683h136v-683zM195 743h-88l-121 153h133z" />
    <glyph glyph-name="Iacute" unicode="&#xcd;" horiz-adv-x="261" 
d="M198 0h-136v683h136v-683zM272 896l-121 -153h-87l75 153h133z" />
    <glyph glyph-name="Icircumflex" unicode="&#xce;" horiz-adv-x="261" 
d="M198 0h-136v683h136v-683zM63 743h-80l108 157h78l109 -157h-80l-67 83h-2z" />
    <glyph glyph-name="Idieresis" unicode="&#xcf;" horiz-adv-x="261" 
d="M198 0h-136v683h136v-683zM-36 823q0 27 18.5 46.5t45.5 19.5t46.5 -19.5t19.5 -46.5t-19.5 -45.5t-46.5 -18.5t-45.5 18.5t-18.5 45.5zM168 823q0 27 18.5 46.5t45.5 19.5t46 -19.5t19 -46.5t-19 -45.5t-46 -18.5t-45.5 18.5t-18.5 45.5z" />
    <glyph glyph-name="Eth" unicode="&#xd0;" horiz-adv-x="663" 
d="M62 677q46 5 99 7t109 2q90 0 156.5 -23t110.5 -66.5t66 -105.5t22 -140q0 -181 -100.5 -268t-294.5 -87q-52 0 -93.5 1.5t-74.5 3.5v294h-58l7 101h51v281zM275 578q-24 0 -43.5 -1t-33.5 -3v-178h132l-7 -101h-125v-188q11 -2 25 -2h28q55 0 98 13.5t72.5 43t45 76
t15.5 111.5q0 112 -53.5 170.5t-153.5 58.5z" />
    <glyph glyph-name="Ntilde" unicode="&#xd1;" horiz-adv-x="659" 
d="M451 0q-51 94 -91 166.5t-71.5 131t-56 105t-43.5 87.5h-3l4 -203v-287h-128v683h155q66 -119 132 -239t121 -241h2l-5 204v276h129v-683h-145zM274 800q-11 0 -19 -9.5t-16 -32.5l-56 5q6 59 28 90t55 31q18 0 35 -6.5t32 -14.5t28 -14.5t24 -6.5q12 0 20 7.5t17 33.5
l53 -8q-5 -60 -26.5 -88t-55.5 -28q-18 0 -35 6.5t-32.5 14t-29 14t-22.5 6.5z" />
    <glyph glyph-name="Ograve" unicode="&#xd2;" horiz-adv-x="681" 
d="M341 -11q-74 0 -131.5 27t-96.5 74t-59 110.5t-20 137.5q0 75 20.5 140t59.5 113t96 75.5t131 27.5q76 0 133 -27.5t95.5 -75t58 -111.5t19.5 -137q0 -78 -20 -143.5t-59 -112t-96 -72.5t-131 -26zM341 100q42 0 72.5 18t51 50t30 76t9.5 97q0 52 -9.5 96t-29 76.5
t-50.5 51t-74 18.5t-74 -18t-51 -50.5t-29.5 -77t-9.5 -97.5q0 -54 10 -98t30 -75.5t51 -49t73 -17.5zM444 743h-87l-121 153h133z" />
    <glyph glyph-name="Oacute" unicode="&#xd3;" horiz-adv-x="681" 
d="M341 -11q-74 0 -131.5 27t-96.5 74t-59 110.5t-20 137.5q0 75 20.5 140t59.5 113t96 75.5t131 27.5q76 0 133 -27.5t95.5 -75t58 -111.5t19.5 -137q0 -78 -20 -143.5t-59 -112t-96 -72.5t-131 -26zM341 100q42 0 72.5 18t51 50t30 76t9.5 97q0 52 -9.5 96t-29 76.5
t-50.5 51t-74 18.5t-74 -18t-51 -50.5t-29.5 -77t-9.5 -97.5q0 -54 10 -98t30 -75.5t51 -49t73 -17.5zM444 896l-120 -153h-88l76 153h132z" />
    <glyph glyph-name="Ocircumflex" unicode="&#xd4;" horiz-adv-x="681" 
d="M341 -11q-74 0 -131.5 27t-96.5 74t-59 110.5t-20 137.5q0 75 20.5 140t59.5 113t96 75.5t131 27.5q76 0 133 -27.5t95.5 -75t58 -111.5t19.5 -137q0 -78 -20 -143.5t-59 -112t-96 -72.5t-131 -26zM341 100q42 0 72.5 18t51 50t30 76t9.5 97q0 52 -9.5 96t-29 76.5
t-50.5 51t-74 18.5t-74 -18t-51 -50.5t-29.5 -77t-9.5 -97.5q0 -54 10 -98t30 -75.5t51 -49t73 -17.5zM273 743h-80l108 157h78l109 -157h-80l-66 83h-2z" />
    <glyph glyph-name="Otilde" unicode="&#xd5;" horiz-adv-x="681" 
d="M341 -11q-74 0 -131.5 27t-96.5 74t-59 110.5t-20 137.5q0 75 20.5 140t59.5 113t96 75.5t131 27.5q76 0 133 -27.5t95.5 -75t58 -111.5t19.5 -137q0 -78 -20 -143.5t-59 -112t-96 -72.5t-131 -26zM341 100q42 0 72.5 18t51 50t30 76t9.5 97q0 52 -9.5 96t-29 76.5
t-50.5 51t-74 18.5t-74 -18t-51 -50.5t-29.5 -77t-9.5 -97.5q0 -54 10 -98t30 -75.5t51 -49t73 -17.5zM285 800q-11 0 -19 -9.5t-16 -32.5l-56 5q5 59 27.5 90t55.5 31q18 0 35 -6.5t32 -14.5t28 -14.5t24 -6.5q12 0 20 7.5t16 33.5l54 -8q-5 -60 -26.5 -88t-55.5 -28
q-18 0 -35.5 6.5t-33 14t-28.5 14t-22 6.5z" />
    <glyph glyph-name="Odieresis" unicode="&#xd6;" horiz-adv-x="681" 
d="M341 -11q-74 0 -131.5 27t-96.5 74t-59 110.5t-20 137.5q0 75 20.5 140t59.5 113t96 75.5t131 27.5q76 0 133 -27.5t95.5 -75t58 -111.5t19.5 -137q0 -78 -20 -143.5t-59 -112t-96 -72.5t-131 -26zM341 100q42 0 72.5 18t51 50t30 76t9.5 97q0 52 -9.5 96t-29 76.5
t-50.5 51t-74 18.5t-74 -18t-51 -50.5t-29.5 -77t-9.5 -97.5q0 -54 10 -98t30 -75.5t51 -49t73 -17.5zM174 823q0 27 18.5 46.5t45.5 19.5t46 -19.5t19 -46.5t-19 -45.5t-46 -18.5t-45.5 18.5t-18.5 45.5zM377 823q0 27 19 46.5t46 19.5t46 -19.5t19 -46.5t-19 -45.5
t-46 -18.5t-46 18.5t-19 45.5z" />
    <glyph glyph-name="multiply" unicode="&#xd7;" horiz-adv-x="576" 
d="M351 293l178 -179l-64 -65l-177 180l-178 -180l-63 65l177 179l-177 180l63 64l178 -180l177 180l64 -64z" />
    <glyph glyph-name="Oslash" unicode="&#xd8;" horiz-adv-x="681" 
d="M341 -11q-70 0 -129 28l-43 -78l-76 39l46 84q-51 48 -78 119.5t-27 156.5q0 75 20.5 140t59.5 113t96 75.5t131 27.5q38 0 70.5 -7.5t61.5 -21.5l41 74l79 -35l-48 -86q51 -49 76.5 -120t25.5 -155q0 -78 -20 -143.5t-59 -112t-96 -72.5t-131 -26zM341 100q42 0 72.5 18
t51 50t30 76t9.5 97q0 42 -7 79.5t-23 66.5l-206 -367q31 -20 73 -20zM177 340q0 -45 7.5 -83.5t23.5 -68.5l209 374q-32 21 -76 21q-43 0 -74 -18t-51 -50.5t-29.5 -77t-9.5 -97.5z" />
    <glyph glyph-name="Ugrave" unicode="&#xd9;" horiz-adv-x="647" 
d="M319 -10q-125 0 -193 69t-68 214v410h136v-417q0 -79 33 -122.5t95 -43.5q131 0 131 166v417h136v-389q0 -152 -65.5 -228t-204.5 -76zM428 743h-87l-121 153h133z" />
    <glyph glyph-name="Uacute" unicode="&#xda;" horiz-adv-x="647" 
d="M319 -10q-125 0 -193 69t-68 214v410h136v-417q0 -79 33 -122.5t95 -43.5q131 0 131 166v417h136v-389q0 -152 -65.5 -228t-204.5 -76zM428 896l-121 -153h-87l75 153h133z" />
    <glyph glyph-name="Ucircumflex" unicode="&#xdb;" horiz-adv-x="647" 
d="M319 -10q-125 0 -193 69t-68 214v410h136v-417q0 -79 33 -122.5t95 -43.5q131 0 131 166v417h136v-389q0 -152 -65.5 -228t-204.5 -76zM256 743h-80l108 157h78l109 -157h-80l-66 83h-2z" />
    <glyph glyph-name="Udieresis" unicode="&#xdc;" horiz-adv-x="647" 
d="M319 -10q-125 0 -193 69t-68 214v410h136v-417q0 -79 33 -122.5t95 -43.5q131 0 131 166v417h136v-389q0 -152 -65.5 -228t-204.5 -76zM157 823q0 27 18.5 46.5t45.5 19.5t46.5 -19.5t19.5 -46.5t-19.5 -45.5t-46.5 -18.5t-45.5 18.5t-18.5 45.5zM361 823q0 27 18.5 46.5
t45.5 19.5t46 -19.5t19 -46.5t-19 -45.5t-46 -18.5t-45.5 18.5t-18.5 45.5z" />
    <glyph glyph-name="Yacute" unicode="&#xdd;" horiz-adv-x="562" 
d="M212 0v263l-207 420h155l67 -165l56 -150h2l55 150l68 165h155l-209 -420v-263h-142zM385 896l-120 -153h-88l76 153h132z" />
    <glyph glyph-name="Thorn" unicode="&#xde;" horiz-adv-x="562" 
d="M196 554q22 2 45.5 2.5t54.5 0.5q56 0 99.5 -14.5t73 -41.5t45 -64t15.5 -82q0 -56 -18 -97.5t-51 -69t-79.5 -41t-103.5 -13.5q-24 0 -44 1t-37 2v-137h-134v683h134v-129zM196 247q15 -2 32.5 -3t34.5 -1q62 0 96 24t34 81t-32.5 79t-91.5 22q-48 0 -73 -3v-199z" />
    <glyph glyph-name="germandbls" unicode="&#xdf;" horiz-adv-x="606" 
d="M423 381q0 -22 11 -37t27.5 -28t35.5 -26t35.5 -31t27.5 -43t11 -62q0 -41 -15 -72t-41 -51.5t-61.5 -30.5t-76.5 -10q-29 0 -62 5t-59 14l12 102q20 -8 45 -13.5t49 -5.5q34 0 55 13.5t21 42.5q0 17 -11 31t-27.5 28t-36 29.5t-36 34t-27.5 42t-11 53.5q0 25 8.5 47
t22 42t30 38t32.5 33q7 20 5.5 39.5t-12 34.5t-28 24t-41.5 9q-62 0 -82.5 -41t-20.5 -127v-465h-136v457q0 70 13 122.5t42 87.5t76 53t115 18q95 0 151 -48t56 -132q-14 -16 -30.5 -37t-31.5 -44.5t-25 -48t-10 -47.5z" />
    <glyph glyph-name="agrave" unicode="&#xe0;" horiz-adv-x="513" 
d="M453 117q0 -32 1 -62.5t4 -54.5h-99l-30 57h-3q-27 -32 -63 -49.5t-84 -17.5q-33 0 -60.5 11.5t-47 30.5t-30 44.5t-10.5 53.5q0 41 12.5 68.5t34.5 44t53 23.5t69 7h118v49q0 16 -3 30t-12.5 24t-27 15.5t-46.5 5.5q-46 0 -81 -10t-64 -22l-22 100q32 14 83 26t109 12
q55 0 93.5 -10t61.5 -30t33.5 -51t10.5 -73v-222zM229 84q13 0 28 4t28 12t22.5 19t12.5 25v50h-88q-12 0 -24 -1t-21.5 -6.5t-15.5 -16t-6 -28.5q0 -30 18.5 -44t45.5 -14zM360 550h-87l-121 153h133z" />
    <glyph glyph-name="aacute" unicode="&#xe1;" horiz-adv-x="513" 
d="M453 117q0 -32 1 -62.5t4 -54.5h-99l-30 57h-3q-27 -32 -63 -49.5t-84 -17.5q-33 0 -60.5 11.5t-47 30.5t-30 44.5t-10.5 53.5q0 41 12.5 68.5t34.5 44t53 23.5t69 7h118v49q0 16 -3 30t-12.5 24t-27 15.5t-46.5 5.5q-46 0 -81 -10t-64 -22l-22 100q32 14 83 26t109 12
q55 0 93.5 -10t61.5 -30t33.5 -51t10.5 -73v-222zM229 84q13 0 28 4t28 12t22.5 19t12.5 25v50h-88q-12 0 -24 -1t-21.5 -6.5t-15.5 -16t-6 -28.5q0 -30 18.5 -44t45.5 -14zM360 703l-120 -153h-88l76 153h132z" />
    <glyph glyph-name="acircumflex" unicode="&#xe2;" horiz-adv-x="513" 
d="M453 117q0 -32 1 -62.5t4 -54.5h-99l-30 57h-3q-27 -32 -63 -49.5t-84 -17.5q-33 0 -60.5 11.5t-47 30.5t-30 44.5t-10.5 53.5q0 41 12.5 68.5t34.5 44t53 23.5t69 7h118v49q0 16 -3 30t-12.5 24t-27 15.5t-46.5 5.5q-46 0 -81 -10t-64 -22l-22 100q32 14 83 26t109 12
q55 0 93.5 -10t61.5 -30t33.5 -51t10.5 -73v-222zM229 84q13 0 28 4t28 12t22.5 19t12.5 25v50h-88q-12 0 -24 -1t-21.5 -6.5t-15.5 -16t-6 -28.5q0 -30 18.5 -44t45.5 -14zM189 550h-80l108 157h78l109 -157h-80l-67 83h-2z" />
    <glyph glyph-name="atilde" unicode="&#xe3;" horiz-adv-x="513" 
d="M453 117q0 -32 1 -62.5t4 -54.5h-99l-30 57h-3q-27 -32 -63 -49.5t-84 -17.5q-33 0 -60.5 11.5t-47 30.5t-30 44.5t-10.5 53.5q0 41 12.5 68.5t34.5 44t53 23.5t69 7h118v49q0 16 -3 30t-12.5 24t-27 15.5t-46.5 5.5q-46 0 -81 -10t-64 -22l-22 100q32 14 83 26t109 12
q55 0 93.5 -10t61.5 -30t33.5 -51t10.5 -73v-222zM229 84q13 0 28 4t28 12t22.5 19t12.5 25v50h-88q-12 0 -24 -1t-21.5 -6.5t-15.5 -16t-6 -28.5q0 -30 18.5 -44t45.5 -14zM201 607q-11 0 -19 -9.5t-16 -32.5l-56 5q5 59 27 90t55 31q19 0 35.5 -6.5t31.5 -14.5t28.5 -14.5
t24.5 -6.5t19.5 7.5t16.5 33.5l54 -8q-12 -116 -83 -116q-18 0 -35 6.5t-32.5 14t-28.5 14t-22 6.5z" />
    <glyph glyph-name="adieresis" unicode="&#xe4;" horiz-adv-x="513" 
d="M453 117q0 -32 1 -62.5t4 -54.5h-99l-30 57h-3q-27 -32 -63 -49.5t-84 -17.5q-33 0 -60.5 11.5t-47 30.5t-30 44.5t-10.5 53.5q0 41 12.5 68.5t34.5 44t53 23.5t69 7h118v49q0 16 -3 30t-12.5 24t-27 15.5t-46.5 5.5q-46 0 -81 -10t-64 -22l-22 100q32 14 83 26t109 12
q55 0 93.5 -10t61.5 -30t33.5 -51t10.5 -73v-222zM229 84q13 0 28 4t28 12t22.5 19t12.5 25v50h-88q-12 0 -24 -1t-21.5 -6.5t-15.5 -16t-6 -28.5q0 -30 18.5 -44t45.5 -14zM90 630q0 27 18.5 46.5t45.5 19.5t46 -19.5t19 -46.5t-19 -45.5t-46 -18.5t-45.5 18.5t-18.5 45.5z
M293 630q0 27 18.5 46.5t45.5 19.5t46.5 -19.5t19.5 -46.5t-19.5 -45.5t-46.5 -18.5t-45.5 18.5t-18.5 45.5z" />
    <glyph glyph-name="aring" unicode="&#xe5;" horiz-adv-x="513" 
d="M453 117q0 -32 1 -62.5t4 -54.5h-99l-30 57h-3q-27 -32 -63 -49.5t-84 -17.5q-33 0 -60.5 11.5t-47 30.5t-30 44.5t-10.5 53.5q0 41 12.5 68.5t34.5 44t53 23.5t69 7h118v49q0 16 -3 30t-12.5 24t-27 15.5t-46.5 5.5q-46 0 -81 -10t-64 -22l-22 100q32 14 83 26t109 12
q55 0 93.5 -10t61.5 -30t33.5 -51t10.5 -73v-222zM229 84q13 0 28 4t28 12t22.5 19t12.5 25v50h-88q-12 0 -24 -1t-21.5 -6.5t-15.5 -16t-6 -28.5q0 -30 18.5 -44t45.5 -14zM256 540q-41 0 -69 28t-28 68q0 20 7.5 37.5t20.5 31t31 21t38 7.5q41 0 69 -28t28 -69
q0 -20 -7.5 -37.5t-21 -30.5t-31 -20.5t-37.5 -7.5zM256 586q22 0 36 14.5t14 35.5q0 22 -14 36.5t-36 14.5q-21 0 -35 -14.5t-14 -36.5q0 -20 14 -35t35 -15z" />
    <glyph glyph-name="ae" unicode="&#xe6;" horiz-adv-x="798" 
d="M562 -10q-68 0 -114 22t-72 62h-2q-32 -38 -78.5 -61t-109.5 -23q-33 0 -61.5 11.5t-49.5 30.5t-32.5 44.5t-11.5 53.5q0 41 12.5 69t34.5 45t53 24.5t69 7.5h118v46q0 16 -3 30t-12.5 24t-27 15.5t-46.5 5.5q-46 0 -81 -10t-64 -22l-22 100q32 14 83 26t109 12
q62 0 95 -17t47 -49h1q27 31 66.5 48.5t93.5 17.5q62 0 105 -24t67 -64.5t30 -93t-4 -109.5h-306q1 -32 12 -55t29 -37.5t42 -21t53 -6.5q40 0 74.5 6.5t64.5 17.5l12 -96q-35 -14 -80 -22t-94 -8zM229 84q13 0 32 5.5t35 19t25 35t2 53.5h-91q-12 0 -24 -1.5t-21.5 -7.5
t-15.5 -17t-6 -29q0 -30 18.5 -44t45.5 -14zM635 305v10q0 15 -3.5 31.5t-13.5 30t-26.5 22t-42.5 8.5q-23 0 -40.5 -8.5t-29.5 -22.5t-19 -32.5t-9 -38.5h184z" />
    <glyph glyph-name="ccedilla" unicode="&#xe7;" horiz-adv-x="461" 
d="M172 246q0 -39 11 -67.5t30 -47t44 -27t53 -8.5q33 0 62 5.5t51 14.5l12 -101q-21 -9 -50.5 -15t-63.5 -8l-15 -37q10 -4 23.5 -9.5t25.5 -14.5t20 -21.5t8 -30.5q0 -45 -37 -68t-91 -23q-17 0 -32 2.5t-29 7.5l12 52q11 -3 21 -4t20 -1q17 0 33.5 6t16.5 26
q0 19 -18.5 30t-45.5 19q10 34 23 65q-51 4 -92 22.5t-70.5 50.5t-45 77t-15.5 102t18 104.5t52.5 82t84.5 53.5t115 19q33 0 69 -6t63 -17l-15 -102q-19 8 -48 14.5t-63 6.5q-63 0 -100 -38.5t-37 -113.5z" />
    <glyph glyph-name="egrave" unicode="&#xe8;" horiz-adv-x="515" 
d="M281 -10q-120 0 -184 65.5t-64 183.5q0 54 15 102t45.5 84t76 57t106.5 21q62 0 105 -24t67.5 -64.5t31 -93t-3.5 -109.5h-310q1 -32 12 -55t29.5 -37.5t43 -21t52.5 -6.5q41 0 76.5 6.5t65.5 17.5l12 -96q-35 -14 -81 -22t-95 -8zM355 305q1 2 1 5v5q0 15 -4 31.5
t-14 30t-27 22t-43 8.5q-23 0 -40.5 -8.5t-30 -22.5t-20 -32.5t-9.5 -38.5h187zM361 550h-87l-121 153h133z" />
    <glyph glyph-name="eacute" unicode="&#xe9;" horiz-adv-x="515" 
d="M281 -10q-120 0 -184 65.5t-64 183.5q0 54 15 102t45.5 84t76 57t106.5 21q62 0 105 -24t67.5 -64.5t31 -93t-3.5 -109.5h-310q1 -32 12 -55t29.5 -37.5t43 -21t52.5 -6.5q41 0 76.5 6.5t65.5 17.5l12 -96q-35 -14 -81 -22t-95 -8zM355 305q1 2 1 5v5q0 15 -4 31.5
t-14 30t-27 22t-43 8.5q-23 0 -40.5 -8.5t-30 -22.5t-20 -32.5t-9.5 -38.5h187zM361 703l-120 -153h-88l76 153h132z" />
    <glyph glyph-name="ecircumflex" unicode="&#xea;" horiz-adv-x="515" 
d="M281 -10q-120 0 -184 65.5t-64 183.5q0 54 15 102t45.5 84t76 57t106.5 21q62 0 105 -24t67.5 -64.5t31 -93t-3.5 -109.5h-310q1 -32 12 -55t29.5 -37.5t43 -21t52.5 -6.5q41 0 76.5 6.5t65.5 17.5l12 -96q-35 -14 -81 -22t-95 -8zM355 305q1 2 1 5v5q0 15 -4 31.5
t-14 30t-27 22t-43 8.5q-23 0 -40.5 -8.5t-30 -22.5t-20 -32.5t-9.5 -38.5h187zM190 550h-80l108 157h78l109 -157h-80l-67 83h-2z" />
    <glyph glyph-name="edieresis" unicode="&#xeb;" horiz-adv-x="515" 
d="M281 -10q-120 0 -184 65.5t-64 183.5q0 54 15 102t45.5 84t76 57t106.5 21q62 0 105 -24t67.5 -64.5t31 -93t-3.5 -109.5h-310q1 -32 12 -55t29.5 -37.5t43 -21t52.5 -6.5q41 0 76.5 6.5t65.5 17.5l12 -96q-35 -14 -81 -22t-95 -8zM355 305q1 2 1 5v5q0 15 -4 31.5
t-14 30t-27 22t-43 8.5q-23 0 -40.5 -8.5t-30 -22.5t-20 -32.5t-9.5 -38.5h187zM91 630q0 27 18.5 46.5t45.5 19.5t46 -19.5t19 -46.5t-19 -45.5t-46 -18.5t-45.5 18.5t-18.5 45.5zM294 630q0 27 18.5 46.5t45.5 19.5t46.5 -19.5t19.5 -46.5t-19.5 -45.5t-46.5 -18.5
t-45.5 18.5t-18.5 45.5z" />
    <glyph glyph-name="igrave" unicode="&#xec;" horiz-adv-x="254" 
d="M59 492l135 4v-496h-135v492zM195 550h-87l-121 153h133z" />
    <glyph glyph-name="iacute" unicode="&#xed;" horiz-adv-x="254" 
d="M59 492l135 4v-496h-135v492zM272 703l-120 -153h-88l76 153h132z" />
    <glyph glyph-name="icircumflex" unicode="&#xee;" horiz-adv-x="254" 
d="M59 492l135 4v-496h-135v492zM60 550h-80l108 157h78l109 -157h-80l-67 83h-2z" />
    <glyph glyph-name="idieresis" unicode="&#xef;" horiz-adv-x="254" 
d="M59 492l135 4v-496h-135v492zM-39 630q0 27 18.5 46.5t45.5 19.5t46 -19.5t19 -46.5t-19 -45.5t-46 -18.5t-45.5 18.5t-18.5 45.5zM164 630q0 27 19 46.5t46 19.5t46 -19.5t19 -46.5t-19 -45.5t-46 -18.5t-46 18.5t-19 45.5z" />
    <glyph glyph-name="eth" unicode="&#xf0;" horiz-adv-x="559" 
d="M302 661q4 3 22 13t38.5 22t38 22t22.5 13q1 -1 7 -10t13.5 -20t14 -20t7.5 -10l-97 -58q76 -66 116 -155t40 -198q0 -66 -19.5 -116.5t-53 -84.5t-78.5 -51.5t-95 -17.5q-55 0 -100 17t-77 48.5t-49.5 76t-17.5 98.5q0 51 16.5 92.5t46.5 71.5t71 46.5t90 16.5
q26 0 50 -7t46 -25q0 2 2 2q-14 36 -35.5 68.5t-53.5 59.5q-5 -3 -23 -13.5t-39 -22.5t-39 -22.5t-23 -13.5l-41 61l97 59q-46 29 -100 47l39 86q45 -12 86 -31t78 -44zM385 248q-2 52 -27 87t-79 35q-30 0 -50.5 -14t-33 -35t-18 -46t-5.5 -47q0 -62 29 -101t82 -39
q48 0 75 42.5t27 117.5z" />
    <glyph glyph-name="ntilde" unicode="&#xf1;" horiz-adv-x="570" 
d="M343 503q83 0 125.5 -53.5t42.5 -153.5v-296h-136v285q0 49 -15.5 78.5t-58.5 29.5q-35 0 -62.5 -18.5t-44.5 -47.5v-327h-135v341q0 82 -3 151l117 4l9 -67h3q26 28 64.5 51t93.5 23zM230 607q-11 0 -19 -9.5t-16 -32.5l-56 5q5 59 27 90t55 31q19 0 35.5 -6.5
t31.5 -14.5t28.5 -14.5t24.5 -6.5t19.5 7.5t16.5 33.5l54 -8q-12 -116 -83 -116q-18 0 -35 6.5t-32.5 14t-28.5 14t-22 6.5z" />
    <glyph glyph-name="ograve" unicode="&#xf2;" horiz-adv-x="561" 
d="M389 246q0 81 -28.5 119t-79.5 38t-79.5 -38t-28.5 -119t28.5 -119t79.5 -38t79.5 38t28.5 119zM529 244q0 -66 -21 -114t-55.5 -79.5t-79 -46.5t-92.5 -15t-93 15t-79.5 46t-55 79.5t-20.5 114.5q0 69 20.5 118.5t55 80.5t79.5 45.5t93 14.5t92.5 -14.5t79 -46
t55.5 -80.5t21 -118zM384 550h-87l-121 153h133z" />
    <glyph glyph-name="oacute" unicode="&#xf3;" horiz-adv-x="561" 
d="M389 246q0 81 -28.5 119t-79.5 38t-79.5 -38t-28.5 -119t28.5 -119t79.5 -38t79.5 38t28.5 119zM529 244q0 -66 -21 -114t-55.5 -79.5t-79 -46.5t-92.5 -15t-93 15t-79.5 46t-55 79.5t-20.5 114.5q0 69 20.5 118.5t55 80.5t79.5 45.5t93 14.5t92.5 -14.5t79 -46
t55.5 -80.5t21 -118zM384 703l-120 -153h-88l76 153h132z" />
    <glyph glyph-name="ocircumflex" unicode="&#xf4;" horiz-adv-x="561" 
d="M389 246q0 81 -28.5 119t-79.5 38t-79.5 -38t-28.5 -119t28.5 -119t79.5 -38t79.5 38t28.5 119zM529 244q0 -66 -21 -114t-55.5 -79.5t-79 -46.5t-92.5 -15t-93 15t-79.5 46t-55 79.5t-20.5 114.5q0 69 20.5 118.5t55 80.5t79.5 45.5t93 14.5t92.5 -14.5t79 -46
t55.5 -80.5t21 -118zM213 550h-80l107 157h79l108 -157h-80l-66 83h-2z" />
    <glyph glyph-name="otilde" unicode="&#xf5;" horiz-adv-x="561" 
d="M389 246q0 81 -28.5 119t-79.5 38t-79.5 -38t-28.5 -119t28.5 -119t79.5 -38t79.5 38t28.5 119zM529 244q0 -66 -21 -114t-55.5 -79.5t-79 -46.5t-92.5 -15t-93 15t-79.5 46t-55 79.5t-20.5 114.5q0 69 20.5 118.5t55 80.5t79.5 45.5t93 14.5t92.5 -14.5t79 -46
t55.5 -80.5t21 -118zM225 607q-11 0 -19 -9.5t-16 -32.5l-55 5q5 59 27 90t55 31q19 0 35.5 -6.5t31.5 -14.5t28 -14.5t24 -6.5q12 0 20.5 7.5t16.5 33.5l54 -8q-12 -116 -83 -116q-18 0 -35 6.5t-32.5 14t-28.5 14t-23 6.5z" />
    <glyph glyph-name="odieresis" unicode="&#xf6;" horiz-adv-x="561" 
d="M389 246q0 81 -28.5 119t-79.5 38t-79.5 -38t-28.5 -119t28.5 -119t79.5 -38t79.5 38t28.5 119zM529 244q0 -66 -21 -114t-55.5 -79.5t-79 -46.5t-92.5 -15t-93 15t-79.5 46t-55 79.5t-20.5 114.5q0 69 20.5 118.5t55 80.5t79.5 45.5t93 14.5t92.5 -14.5t79 -46
t55.5 -80.5t21 -118zM114 630q0 27 18.5 46.5t45.5 19.5t46 -19.5t19 -46.5t-19 -45.5t-46 -18.5t-45.5 18.5t-18.5 45.5zM317 630q0 27 18.5 46.5t45.5 19.5t46.5 -19.5t19.5 -46.5t-19.5 -45.5t-46.5 -18.5t-45.5 18.5t-18.5 45.5z" />
    <glyph glyph-name="divide" unicode="&#xf7;" horiz-adv-x="582" 
d="M531 341v-91h-480v91h480zM222 475q0 29 20 50t49 21t50 -21t21 -50t-21 -49t-50 -20t-49 20t-20 49zM222 115q0 29 20 50t49 21t50 -21t21 -50t-21 -49.5t-50 -20.5t-49 20.5t-20 49.5z" />
    <glyph glyph-name="oslash" unicode="&#xf8;" horiz-adv-x="557" 
d="M281 503q29 0 55 -5.5t49 -14.5l38 63l58 -23l-41 -70q89 -69 89 -209q0 -59 -18 -106t-50.5 -80t-78.5 -51t-101 -18q-30 0 -57 5.5t-50 15.5l-39 -65l-58 25l43 72q-42 32 -64.5 83.5t-22.5 118.5q0 59 16.5 107t48.5 81.5t78 52t105 18.5zM281 89q57 0 82.5 43
t25.5 114q0 25 -4.5 48.5t-15.5 40.5l-140 -233q23 -13 52 -13zM173 246q0 -25 4 -47t14 -39l138 231q-10 5 -22 8.5t-26 3.5q-29 0 -49 -12t-33.5 -33t-19.5 -49.5t-6 -62.5z" />
    <glyph glyph-name="ugrave" unicode="&#xf9;" horiz-adv-x="568" 
d="M223 -10q-165 0 -165 208v294h135v-280q0 -53 17 -84t64 -31q19 0 36.5 7t31 18.5t22 25t8.5 26.5v318h136v-335q0 -90 3 -157h-97l-28 66h-2q-26 -35 -63.5 -55.5t-97.5 -20.5zM388 550h-87l-121 153h133z" />
    <glyph glyph-name="uacute" unicode="&#xfa;" horiz-adv-x="568" 
d="M223 -10q-165 0 -165 208v294h135v-280q0 -53 17 -84t64 -31q19 0 36.5 7t31 18.5t22 25t8.5 26.5v318h136v-335q0 -90 3 -157h-97l-28 66h-2q-26 -35 -63.5 -55.5t-97.5 -20.5zM388 703l-120 -153h-88l76 153h132z" />
    <glyph glyph-name="ucircumflex" unicode="&#xfb;" horiz-adv-x="568" 
d="M223 -10q-165 0 -165 208v294h135v-280q0 -53 17 -84t64 -31q19 0 36.5 7t31 18.5t22 25t8.5 26.5v318h136v-335q0 -90 3 -157h-97l-28 66h-2q-26 -35 -63.5 -55.5t-97.5 -20.5zM217 550h-80l107 157h79l108 -157h-80l-66 83h-2z" />
    <glyph glyph-name="udieresis" unicode="&#xfc;" horiz-adv-x="568" 
d="M223 -10q-165 0 -165 208v294h135v-280q0 -53 17 -84t64 -31q19 0 36.5 7t31 18.5t22 25t8.5 26.5v318h136v-335q0 -90 3 -157h-97l-28 66h-2q-26 -35 -63.5 -55.5t-97.5 -20.5zM118 630q0 27 18.5 46.5t45.5 19.5t46 -19.5t19 -46.5t-19 -45.5t-46 -18.5t-45.5 18.5
t-18.5 45.5zM321 630q0 27 18.5 46.5t45.5 19.5t46 -19.5t19 -46.5t-19 -45.5t-46 -18.5t-45.5 18.5t-18.5 45.5z" />
    <glyph glyph-name="yacute" unicode="&#xfd;" horiz-adv-x="502" 
d="M222 7h-33l-185 485h151q5 -18 13 -47t18.5 -63.5t21 -71.5t21 -71.5t18.5 -63.5t13 -47h3l89 364h148l-243 -724h-133zM354 703l-120 -153h-88l76 153h132z" />
    <glyph glyph-name="thorn" unicode="&#xfe;" horiz-adv-x="571" 
d="M337 503q44 0 80.5 -18t63 -51t41.5 -79.5t15 -103.5q0 -62 -17 -110.5t-46.5 -82t-68 -51t-81.5 -17.5q-82 0 -128 57h-2v-266h-135v924l135 3v-275h2q50 70 141 70zM295 397q-32 0 -58.5 -16.5t-42.5 -42.5v-179q12 -28 35.5 -47t61.5 -19q53 0 80.5 42.5t27.5 113.5
q0 64 -26 106t-78 42z" />
    <glyph glyph-name="ydieresis" unicode="&#xff;" horiz-adv-x="502" 
d="M222 7h-33l-185 485h151q5 -18 13 -47t18.5 -63.5t21 -71.5t21 -71.5t18.5 -63.5t13 -47h3l89 364h148l-243 -724h-133zM85 630q0 27 18.5 46.5t45.5 19.5t46 -19.5t19 -46.5t-19 -45.5t-46 -18.5t-45.5 18.5t-18.5 45.5zM288 630q0 27 18.5 46.5t45.5 19.5t46 -19.5
t19 -46.5t-19 -45.5t-46 -18.5t-45.5 18.5t-18.5 45.5z" />
    <glyph glyph-name="OE" unicode="&#x152;" horiz-adv-x="926" 
d="M867 570h-264v-163h247l-7 -112h-240v-183h284l-7 -112h-413v20q-26 -15 -57 -23t-69 -8q-74 0 -131.5 27t-96.5 74t-59 110.5t-20 137.5q0 75 20.5 140t59.5 113t96 75.5t131 27.5q38 0 69 -8.5t57 -22.5v20h407zM341 100q44 0 75 19.5t51 54.5v334q-20 35 -50.5 55
t-75.5 20q-43 0 -74 -18t-51 -50.5t-29.5 -77t-9.5 -97.5q0 -54 10 -98t30 -75.5t51 -49t73 -17.5z" />
    <glyph glyph-name="oe" unicode="&#x153;" horiz-adv-x="865" 
d="M629 -10q-65 0 -108 21t-68 59h-2q-26 -38 -69 -59.5t-102 -21.5q-56 0 -101.5 18t-78 51t-50 80t-17.5 106t16.5 107t48 81.5t77.5 52t105 18.5q62 0 105.5 -21.5t69.5 -62.5h2q24 39 65.5 61.5t101.5 22.5q62 0 105 -24t67 -64.5t30.5 -93t-4.5 -109.5h-307
q1 -32 12 -55t29 -37.5t42.5 -21t53.5 -6.5q40 0 75 6.5t64 17.5l13 -96q-36 -14 -81 -22t-94 -8zM280 89q56 0 81 43t25 114q0 34 -6 62.5t-19 49.5t-33 33t-48 12q-29 0 -49 -12t-33 -33t-19 -49.5t-6 -62.5q0 -71 25 -114t82 -43zM702 305q1 2 1 5v5q0 15 -4 31.5
t-13.5 30t-26.5 22t-43 8.5q-23 0 -40.5 -8.5t-29.5 -22.5t-19.5 -32.5t-9.5 -38.5h185z" />
    <glyph glyph-name="Ydieresis" unicode="&#x178;" horiz-adv-x="562" 
d="M212 0v263l-207 420h155l67 -165l56 -150h2l55 150l68 165h155l-209 -420v-263h-142zM115 823q0 27 18.5 46.5t45.5 19.5t46 -19.5t19 -46.5t-19 -45.5t-46 -18.5t-45.5 18.5t-18.5 45.5zM318 823q0 27 18.5 46.5t45.5 19.5t46.5 -19.5t19.5 -46.5t-19.5 -45.5
t-46.5 -18.5t-45.5 18.5t-18.5 45.5z" />
    <glyph glyph-name="tilde" unicode="&#x2dc;" horiz-adv-x="468" 
d="M179 607q-11 0 -19 -9.5t-16 -32.5l-56 5q5 59 27.5 90t55.5 31q18 0 35 -6.5t32 -14.5t28 -14.5t24 -6.5q12 0 20 7.5t16 33.5l54 -8q-5 -60 -26.5 -88t-55.5 -28q-18 0 -35.5 6.5t-33 14t-28.5 14t-22 6.5z" />
    <glyph glyph-name="endash" unicode="&#x2013;" horiz-adv-x="538" 
d="M494 305v-91h-450v91h450z" />
    <glyph glyph-name="emdash" unicode="&#x2014;" horiz-adv-x="951" 
d="M906 305v-91h-862v91h862z" />
    <glyph glyph-name="quoteleft" unicode="&#x2018;" horiz-adv-x="285" 
d="M244 704q-29 -63 -41 -128t-15 -140l-114 16q6 38 16 76.5t22.5 74t26 66.5t26.5 54z" />
    <glyph glyph-name="quoteright" unicode="&#x2019;" horiz-adv-x="285" 
d="M42 457q28 64 40 129t15 139l114 -15q-6 -39 -16 -77.5t-22.5 -74t-26 -66.5t-25.5 -53z" />
    <glyph glyph-name="quotedblleft" unicode="&#x201c;" horiz-adv-x="473" 
d="M244 704q-29 -63 -41 -128t-15 -140l-114 16q6 38 16 76.5t22.5 74t26 66.5t26.5 54zM431 704q-28 -63 -40.5 -128t-15.5 -140l-113 16q6 38 16 76.5t22 74t25.5 66.5t26.5 54z" />
    <glyph glyph-name="quotedblright" unicode="&#x201d;" horiz-adv-x="473" 
d="M42 457q28 64 40 129t15 139l114 -15q-6 -39 -16 -77.5t-22.5 -74t-26 -66.5t-25.5 -53zM229 457q28 64 40.5 129t15.5 139l114 -15q-6 -39 -16.5 -77.5t-22.5 -74t-25.5 -66.5t-26.5 -53z" />
    <glyph glyph-name="quotedblbase" unicode="&#x201e;" horiz-adv-x="473" 
d="M229 -109q28 64 40.5 129t15.5 140l114 -16q-6 -38 -16.5 -76.5t-22.5 -74t-25.5 -66.5t-26.5 -54zM42 -109q28 64 40 129t15 140l114 -16q-6 -38 -16 -76.5t-22.5 -74t-26 -66.5t-25.5 -54z" />
    <glyph glyph-name="bullet" unicode="&#x2022;" horiz-adv-x="369" 
d="M68 260q0 24 9 45t25 36.5t37 24.5t45 9t45.5 -9t37.5 -24.5t25 -36.5t9 -45t-9 -45.5t-25 -37.5t-37.5 -25t-45.5 -9t-45 9t-37 25t-25 37.5t-9 45.5z" />
    <glyph glyph-name="ellipsis" unicode="&#x2026;" horiz-adv-x="817" 
d="M59 73q0 18 6.5 33t18 26.5t27 18t32.5 6.5q35 0 60 -24.5t25 -59.5t-25 -59.5t-60 -24.5q-17 0 -32.5 6.5t-27 18t-18 26.5t-6.5 33zM339 73q0 35 25 59.5t60 24.5q17 0 32.5 -6.5t27 -18t18 -26.5t6.5 -33t-6.5 -33t-18 -26.5t-27 -18t-32.5 -6.5q-35 0 -60 24.5
t-25 59.5zM620 73q0 18 6.5 33t18 26.5t27 18t32.5 6.5q35 0 60 -24.5t25 -59.5t-25 -59.5t-60 -24.5q-17 0 -32.5 6.5t-27 18t-18 26.5t-6.5 33z" />
    <glyph glyph-name="guilsinglleft" unicode="&#x2039;" horiz-adv-x="343" 
d="M155 257l108 -130l-67 -50l-143 180l143 180l67 -48z" />
    <glyph glyph-name="guilsinglright" unicode="&#x203a;" horiz-adv-x="343" 
d="M81 389l66 48l143 -180l-143 -180l-66 50l108 130z" />
    <glyph glyph-name="Euro" unicode="&#x20ac;" horiz-adv-x="578" 
d="M458 306l-7 -72h-221q16 -68 60 -101t105 -33q46 0 79.5 9.5t55.5 19.5q2 -23 6.5 -52t7.5 -52q-29 -15 -72 -25t-91 -10q-116 0 -192.5 64t-99.5 180h-70l7 72h53q-1 16 -1 30.5t2 26.5h-61l7 73h65q11 53 36.5 97.5t63 76.5t86 50t106.5 18q48 0 88.5 -9t70.5 -22
l-18 -106q-26 11 -60 19t-71 8q-121 0 -162 -132h227l-7 -73h-234q-2 -14 -2 -28.5t2 -28.5h241z" />
    <glyph glyph-name="trademark" unicode="&#x2122;" horiz-adv-x="699" 
d="M43 620l5 63h235l-5 -63h-77v-228h-77v228h-81zM451 395l-55 219h-2l-2 -69l-5 -153h-73l10 291h112l44 -150l11 -48h2l11 48l45 150h111l11 -291h-74l-4 153l-2 69h-3l-54 -219h-83z" />
    <glyph glyph-name="thinspace" horiz-adv-x="120" 
 />
    </font>
</defs>
</svg>
