<?xml version="1.0" standalone="no"?>
<!DOCTYPE svg PUBLIC "-//W3C//DTD SVG 1.1//EN" "http://www.w3.org/Graphics/SVG/1.1/DTD/svg11.dtd" >
<svg>
<metadata>
Created by FontForge 20120731 at Thu Jun 18 08:17:53 2015
 By ,,,
Copyright (c) 2011 by Neil Summerour and Positype. All rights reserved.
</metadata>
<defs>
<font id="AkagiPro-FatItalic" horiz-adv-x="576" >
  <font-face 
    font-family="acd1206b448cc8069d3c3d4a9a9cd384a0aaa315aaa3f968949adcda2d511740"
    font-weight="950"
    font-style="italic"
    font-stretch="normal"
    units-per-em="1000"
    panose-1="2 0 5 2 0 0 0 2 0 4"
    ascent="750"
    descent="-250"
    x-height="496"
    cap-height="683"
    bbox="-141 -237 997 921"
    underline-thickness="50"
    underline-position="-50"
    slope="-9.5"
    unicode-range="U+0020-2122"
  />
<missing-glyph horiz-adv-x="531" 
 />
    <glyph glyph-name=".notdef" horiz-adv-x="531" 
 />
    <glyph glyph-name=".null" horiz-adv-x="0" 
 />
    <glyph glyph-name="nonmarkingreturn" horiz-adv-x="333" 
 />
    <glyph glyph-name="space" unicode=" " horiz-adv-x="202" 
 />
    <glyph glyph-name="space" unicode="&#xa0;" horiz-adv-x="202" 
 />
    <glyph glyph-name="exclam" unicode="!" horiz-adv-x="295" 
d="M344 704l-99 -424h-163l43 424h219zM16 85q0 55 40.5 99t97.5 44q45 0 71.5 -27.5t26.5 -71.5q0 -53 -41 -97.5t-96 -44.5q-44 0 -71.5 28t-27.5 70z" />
    <glyph glyph-name="quotedbl" unicode="&#x22;" horiz-adv-x="454" 
d="M127 716h172l-71 -274h-127zM334 716h172l-71 -274h-127z" />
    <glyph glyph-name="numbersign" unicode="#" horiz-adv-x="619" 
d="M578 616l-39 -140h90l-31 -134h-91l-21 -71h90l-31 -134h-93l-38 -142h-132l39 142h-73l-37 -142h-132l37 142h-90l31 134h95l20 71h-92l31 134h94l37 140h131l-38 -140h73l38 140h132zM302 342l-19 -71h73l19 71h-73z" />
    <glyph glyph-name="dollar" unicode="$" horiz-adv-x="560" 
d="M443 749l-14 -83q90 -5 146 -37l-51 -160q-74 37 -162 37q-60 0 -66 -24q-3 -12 13 -25t42 -25t58 -31t60 -41.5t48 -58t23 -77.5q6 -90 -63 -150.5t-163 -73.5l-17 -93h-141l17 90q-104 6 -176 50l52 163q85 -49 192 -49q66 0 72 27q4 19 -18.5 36t-58.5 34.5
t-72.5 39.5t-62.5 61t-26 90q0 78 57 136.5t156 75.5l14 88h141z" />
    <glyph glyph-name="percent" unicode="%" horiz-adv-x="980" 
d="M551 142q0 88 63 152.5t158 64.5q74 0 117 -42t43 -114q0 -92 -64.5 -153t-154.5 -61q-71 0 -116.5 40t-45.5 113zM756 252q-32 -3 -46.5 -38.5t-14.5 -72.5q0 -49 32 -49q31 0 46.5 40t15.5 78q0 26 -9 34.5t-24 7.5zM91 462q0 88 63 152t158 64q74 0 117 -41t43 -114
q0 -92 -64 -153t-155 -61q-71 0 -116.5 40t-45.5 113zM297 571q-34 -5 -48 -39t-14 -70q0 -50 32 -50t47.5 40t15.5 78q0 26 -9 34.5t-24 6.5zM670 674h128l-439 -681h-130z" />
    <glyph glyph-name="ampersand" unicode="&#x26;" horiz-adv-x="720" 
d="M137 485q0 91 72.5 149.5t173.5 58.5q82 0 141.5 -44t59.5 -123q0 -104 -149 -188v-3q2 -3 57 -63q42 52 66 128h193q-49 -160 -159 -261q47 -58 70 -84l-157 -116q-31 29 -75 85q-105 -34 -176 -34q-109 0 -172.5 48t-63.5 129q0 69 40.5 115.5t116.5 86.5v2
q-38 55 -38 114zM253 255q-17 -20 -19 -45q0 -75 109 -65q-46 53 -90 110zM349 447q47 24 47 64q0 48 -34 48q-17 0 -26.5 -16.5t-9.5 -44.5q0 -30 23 -51z" />
    <glyph glyph-name="quotesingle" unicode="'" horiz-adv-x="242" 
d="M125 716h172l-71 -274h-127z" />
    <glyph glyph-name="parenleft" unicode="(" horiz-adv-x="341" 
d="M396 746q-184 -257 -184 -658q0 -150 35 -254h-131q-69 134 -69 332q0 163 56 318t161 262h132z" />
    <glyph glyph-name="parenright" unicode=")" horiz-adv-x="341" 
d="M-20 -166q185 261 185 656q0 143 -36 256h131q68 -129 68 -331q0 -166 -55 -319.5t-161 -261.5h-132z" />
    <glyph glyph-name="asterisk" unicode="*" horiz-adv-x="478" 
d="M222 483l1 5l-134 45q26 67 83 113l93 -101l2 3l-5 145q62 19 130 0l-58 -145l5 -2l126 100q44 -47 48 -112l-150 -44l-1 -7l134 -44q-25 -65 -85 -114l-92 100l-5 -2l8 -144q-67 -18 -130 0l56 145l-3 2l-127 -101q-42 52 -46 114z" />
    <glyph glyph-name="plus" unicode="+" 
d="M406 522l-31 -185h180l-23 -139h-180l-30 -186h-141l31 186h-179l23 139h179l31 185h140z" />
    <glyph glyph-name="comma" unicode="," horiz-adv-x="300" 
d="M91 -149l-118 26q86 148 124 336l165 -23q-29 -88 -78 -182.5t-93 -156.5z" />
    <glyph glyph-name="hyphen" unicode="-" horiz-adv-x="416" 
d="M59 332h347l-26 -145h-347z" />
    <glyph glyph-name="hyphen" unicode="&#xad;" horiz-adv-x="416" 
d="M59 332h347l-26 -145h-347z" />
    <glyph glyph-name="period" unicode="." horiz-adv-x="300" 
d="M22 85q0 55 40 99t97 44q45 0 72 -27.5t27 -71.5q0 -54 -41 -98t-97 -44q-43 0 -70.5 28t-27.5 70z" />
    <glyph glyph-name="slash" unicode="/" horiz-adv-x="369" 
d="M305 690h147l-319 -716h-147z" />
    <glyph glyph-name="zero" unicode="0" horiz-adv-x="598" 
d="M350 497q-25 0 -44.5 -30t-30.5 -74t-16.5 -86t-5.5 -74q0 -81 40 -81q44 0 70 90.5t26 171.5q0 83 -39 83zM374 660q115 0 168 -73t53 -191q0 -106 -37 -197.5t-112.5 -150t-175.5 -58.5q-111 0 -167 69.5t-56 185.5q0 108 35.5 200.5t112 153.5t179.5 61z" />
    <glyph glyph-name="one" unicode="1" horiz-adv-x="509" 
d="M237 455l-118 -45l-40 140l243 103h154l-110 -653h-204l77 455h-2z" />
    <glyph glyph-name="two" unicode="2" horiz-adv-x="574" 
d="M271 487q-77 0 -144 -30l-16 158q43 20 106.5 32.5t120.5 12.5q101 0 163.5 -49t62.5 -140q0 -87 -45 -145t-181 -148v-2h189l-39 -176h-486l22 128q26 19 86.5 61t92 66t71 57.5t57.5 62.5t18 55q0 57 -78 57z" />
    <glyph glyph-name="three" unicode="3" horiz-adv-x="574" 
d="M235 163q44 0 63.5 9.5t19.5 33.5q0 61 -121 61h-39l33 141h43q53 0 80.5 14t27.5 33q0 32 -71 32q-76 0 -145 -27l-5 161q86 39 207 39q43 0 81.5 -7.5t74.5 -24.5t57 -49t21 -76q0 -60 -40 -101.5t-115 -57.5v-2q57 -11 91.5 -48.5t34.5 -97.5q0 -54 -28.5 -95
t-76 -64.5t-101.5 -35t-111 -11.5q-58 0 -116 11t-89 29l49 165q77 -32 175 -32z" />
    <glyph glyph-name="four" unicode="4" horiz-adv-x="581" 
d="M240 292h75l24 101l21 87l-2 2l-54 -87l-64 -101v-2zM318 653h258l-61 -361h58l-37 -162h-50l-21 -130h-200l23 130h-277l25 150z" />
    <glyph glyph-name="five" unicode="5" horiz-adv-x="574" 
d="M317 473l-10 -39q4 0 9.5 0.5t13.5 0.5q93 0 154 -51.5t61 -146.5q0 -120 -96 -183.5t-240 -63.5q-134 0 -190 36l42 169q56 -30 158 -30q59 0 84 12t25 37q0 13 -6 24t-18 17.5t-25 11.5t-32.5 7.5t-34.5 3.5t-37 0.5t-34.5 -0.5t-32 -1.5t-24.5 -1.5l-1 3l84 372h404
l-44 -177h-210z" />
    <glyph glyph-name="six" unicode="6" horiz-adv-x="591" 
d="M389 442q83 0 132.5 -51.5t49.5 -139.5q0 -112 -79 -186.5t-209 -74.5q-118 0 -180.5 66.5t-62.5 189.5q0 196 145.5 310.5t370.5 104.5l-29 -167q-49 -1 -93 0.5t-85.5 -16.5t-65.5 -57h2q45 21 104 21zM255 273q-13 -28 -13 -57q0 -34 15.5 -51.5t40.5 -17.5
q30 0 45 24t15 55q0 28 -16.5 45t-41.5 17t-45 -15z" />
    <glyph glyph-name="seven" unicode="7" horiz-adv-x="548" 
d="M324 473h-255l42 177h474l-24 -138l-326 -512h-233l255 379l67 92v2z" />
    <glyph glyph-name="eight" unicode="8" horiz-adv-x="595" 
d="M368 661q94 0 159.5 -42t65.5 -119q0 -101 -112 -155v-2q86 -53 86 -138q0 -69 -47 -120t-113.5 -73.5t-138.5 -22.5q-114 0 -179.5 44.5t-65.5 119.5q0 58 36.5 103t97.5 72v1q-69 54 -69 126q0 97 85.5 151.5t194.5 54.5zM293 138q24 0 40.5 15.5t16.5 40.5
q0 23 -15 35.5t-40 22.5q-22 -5 -37 -23t-15 -43q0 -48 50 -48zM346 513q-21 0 -37 -14t-16 -36q0 -20 15.5 -33t33.5 -18q16 7 31.5 23.5t15.5 36.5q0 17 -12.5 29t-30.5 12z" />
    <glyph glyph-name="nine" unicode="9" horiz-adv-x="591" 
d="M245 214q-83 0 -135 49t-52 137q0 112 82.5 186t209.5 74q113 0 178.5 -66t65.5 -181q0 -215 -148.5 -331.5t-377.5 -92.5l24 168q102 -8 168.5 17t89.5 65h-2q-32 -25 -103 -25zM330 369q24 3 38.5 19t16.5 38q4 38 -9.5 58t-44.5 18q-26 -1 -44 -23.5t-18 -53.5
q0 -28 16.5 -43.5t44.5 -12.5z" />
    <glyph glyph-name="colon" unicode=":" horiz-adv-x="307" 
d="M22 85q0 55 40 99t97 44q45 0 72 -27.5t27 -71.5q0 -54 -41 -98t-97 -44q-43 0 -70.5 28t-27.5 70zM70 377q0 55 40.5 99t97.5 44q44 0 71 -28t27 -71q0 -54 -40.5 -98t-96.5 -44q-44 0 -71.5 28t-27.5 70z" />
    <glyph glyph-name="semicolon" unicode=";" horiz-adv-x="326" 
d="M91 -149l-118 26q86 145 124 336l165 -23q-28 -88 -77 -182t-94 -157zM89 377q0 55 40 99t97 44q44 0 71.5 -28t27.5 -71q0 -54 -41 -98t-97 -44q-43 0 -70.5 28t-27.5 70z" />
    <glyph glyph-name="less" unicode="&#x3c;" horiz-adv-x="589" 
d="M494 12l-434 211l17 101l505 212l-27 -161l-294 -105l-1 -2l260 -104z" />
    <glyph glyph-name="equal" unicode="=" horiz-adv-x="575" 
d="M42 232h499l-24 -135h-499zM77 438h499l-24 -137h-498z" />
    <glyph glyph-name="greater" unicode="&#x3e;" horiz-adv-x="589" 
d="M121 536l434 -211l-17 -101l-505 -212l27 162l294 104l1 2l-260 105z" />
    <glyph glyph-name="question" unicode="?" horiz-adv-x="474" 
d="M165 526l16 165q47 5 92 5q110 0 167.5 -40t57.5 -106q0 -46 -17 -80t-42 -54.5t-50.5 -37.5t-46.5 -40.5t-26 -52.5l-2 -6h-182q0 6 5 56q10 38 34.5 62.5t48 33.5t42 25t18.5 38q0 34 -82 34q-11 0 -33 -2zM76 85q0 55 40 99t98 44q44 0 71 -27.5t27 -71.5
q0 -54 -41 -98t-97 -44q-43 0 -70.5 28t-27.5 70z" />
    <glyph glyph-name="at" unicode="@" horiz-adv-x="820" 
d="M432 114h-2q-54 -75 -117 -75q-53 0 -77.5 28t-24.5 74q0 116 92.5 199.5t217.5 83.5q68 0 136 -33q-14 -34 -23 -57.5t-21.5 -56.5t-19.5 -55.5t-12 -44t-3.5 -32t8.5 -10.5q38 0 67 35t41.5 78t12.5 83q0 78 -54.5 126.5t-157.5 48.5q-141 0 -242 -104.5t-101 -249.5
q0 -93 57.5 -148t161.5 -55q45 0 105 15l-2 -89q-51 -20 -134 -20q-140 0 -222 76t-82 203q0 90 35 175t96.5 151t153.5 105.5t199 39.5q135 0 216.5 -72t81.5 -187q0 -125 -77 -216t-209 -91q-43 0 -75 19t-25 56zM461 245l23 66q-7 4 -18 4q-30 0 -57.5 -47.5t-27.5 -82.5
q0 -30 22 -30q27 0 58 90z" />
    <glyph glyph-name="A" unicode="A" horiz-adv-x="631" 
d="M541 684l69 -684h-223l-2 123h-149l-43 -123h-225l297 684h276zM374 536h-2l-27 -90l-49 -162h80v160z" />
    <glyph glyph-name="B" unicode="B" horiz-adv-x="621" 
d="M300 273h-40l-19 -110q12 -1 44 -1q88 0 98 52q0 26 -12 39.5t-27.5 16.5t-43.5 3zM354 521q-30 0 -50 -3l-16 -87h37q86 0 86 52q0 38 -57 38zM10 6l113 668q106 12 219 12q63 0 109.5 -6.5t88 -24t63.5 -51.5t22 -84q0 -60 -34 -100.5t-89 -59.5q47 -16 72.5 -54.5
t25.5 -90.5q0 -48 -16.5 -85t-48.5 -60t-68 -38.5t-86 -22.5t-92 -9.5t-95 -2.5q-96 0 -184 9z" />
    <glyph glyph-name="B" unicode="&#xe000;" horiz-adv-x="621" 
d="M300 273h-40l-19 -110q12 -1 44 -1q88 0 98 52q0 26 -12 39.5t-27.5 16.5t-43.5 3zM354 521q-30 0 -50 -3l-16 -87h37q86 0 86 52q0 38 -57 38zM10 6l113 668q106 12 219 12q63 0 109.5 -6.5t88 -24t63.5 -51.5t22 -84q0 -60 -34 -100.5t-89 -59.5q47 -16 72.5 -54.5
t25.5 -90.5q0 -48 -16.5 -85t-48.5 -60t-68 -38.5t-86 -22.5t-92 -9.5t-95 -2.5q-96 0 -184 9z" />
    <glyph glyph-name="C" unicode="C" horiz-adv-x="583" 
d="M452 516q-90 0 -137 -59t-47 -155q0 -71 38 -103.5t100 -32.5q70 0 133 21l1 -170q-65 -27 -187 -27q-145 0 -227 78.5t-82 210.5q0 191 113.5 302.5t295.5 111.5q110 0 174 -26l-44 -172q-65 21 -131 21z" />
    <glyph glyph-name="D" unicode="D" horiz-adv-x="678" 
d="M10 8l114 666q97 12 225 12q163 0 247.5 -75.5t84.5 -219.5q0 -192 -114 -293t-333 -101q-156 0 -224 11zM336 517q-9 0 -17.5 -0.5t-10.5 -0.5l-60 -348q1 0 14.5 -1t27.5 -1q74 2 121 60t47 167q0 124 -122 124z" />
    <glyph glyph-name="E" unicode="E" horiz-adv-x="547" 
d="M588 683l-40 -177h-244l-13 -72h231l-40 -176h-221l-13 -82h266l-39 -176h-466l116 683h463z" />
    <glyph glyph-name="E" unicode="&#xe001;" horiz-adv-x="547" 
d="M588 683l-40 -177h-244l-13 -72h231l-40 -176h-221l-13 -82h266l-39 -176h-466l116 683h463z" />
    <glyph glyph-name="F" unicode="F" horiz-adv-x="530" 
d="M584 683l-40 -177h-240l-15 -87h229l-41 -175h-218l-43 -244h-207l116 683h459z" />
    <glyph glyph-name="G" unicode="G" horiz-adv-x="668" 
d="M371 255l35 152h253l-66 -379q-117 -36 -235 -36q-146 0 -230 73t-84 209q0 190 118 303.5t317 113.5q124 0 196 -29l-48 -177q-69 26 -146 26q-210 0 -210 -217q-1 -126 121 -126h20l17 87h-58z" />
    <glyph glyph-name="H" unicode="H" horiz-adv-x="674" 
d="M261 254l-43 -254h-209l116 683h209l-42 -246h172l42 246h210l-117 -683h-209l43 254h-172z" />
    <glyph glyph-name="I" unicode="I" horiz-adv-x="289" 
d="M330 683l-116 -683h-209l116 683h209z" />
    <glyph glyph-name="J" unicode="J" horiz-adv-x="282" 
d="M36 189l84 494h209l-88 -512q-36 -204 -128.5 -289.5t-253.5 -86.5v180q35 5 61.5 15.5t44.5 29t29.5 34t20 44t12 44t9.5 47.5z" />
    <glyph glyph-name="K" unicode="K" horiz-adv-x="632" 
d="M332 683l-51 -297l49 52l136 245h256l-253 -310l140 -373h-238l-74 259l-44 -39l-38 -220h-206l116 683h207z" />
    <glyph glyph-name="L" unicode="L" horiz-adv-x="515" 
d="M125 683h209l-85 -503h256l-40 -180h-456z" />
    <glyph glyph-name="M" unicode="M" horiz-adv-x="823" 
d="M453 0h-169l-9 457h-1l-29 -197l-50 -260h-197l141 683h274l7 -279l3 -142h4l50 143l103 278h273l-96 -683h-205l46 260l47 198h-3z" />
    <glyph glyph-name="N" unicode="N" horiz-adv-x="672" 
d="M596 0h-221q-71 229 -105 380h-3l-60 -380h-198l116 683h243q6 -19 19 -71t35 -138t40 -153h3l50 362h200z" />
    <glyph glyph-name="O" unicode="O" horiz-adv-x="704" 
d="M402 520q-65 0 -101 -73t-36 -180q0 -105 93 -105q61 0 96 72.5t35 178.5q0 107 -87 107zM426 693q134 0 207 -78.5t73 -211.5q0 -81 -25 -155t-71 -131.5t-119 -92t-162 -34.5q-134 0 -208 79.5t-74 208.5q0 108 43 201.5t131 153.5t205 60z" />
    <glyph glyph-name="P" unicode="P" horiz-adv-x="592" 
d="M315 218q-14 0 -35.5 1.5t-28.5 1.5l-37 -221h-205l114 673q89 13 206 13q151 0 222 -48t71 -158q0 -122 -85 -192t-222 -70zM302 516q-20 -117 -21 -125q22 -2 51 -2q32 0 56.5 21.5t24.5 54.5q0 53 -58 53q-23 0 -53 -2z" />
    <glyph glyph-name="Q" unicode="Q" horiz-adv-x="704" 
d="M402 520q-65 0 -101 -73t-36 -180q0 -108 93 -108q61 0 96 74t35 180q0 107 -87 107zM633 182v-2h93l-41 -180h-356q-136 0 -209 74.5t-73 203.5q0 108 43 201.5t131 153.5t205 60q134 0 207 -78.5t73 -211.5q0 -60 -18 -109.5t-55 -111.5z" />
    <glyph glyph-name="R" unicode="R" horiz-adv-x="613" 
d="M634 499q0 -69 -41.5 -125.5t-112.5 -80.5v-2l103 -291h-227l-65 242h-33l-42 -242h-207l117 673q104 13 212 13q144 0 220 -40.5t76 -146.5zM304 517l-20 -121h51q30 0 56.5 17t26.5 56q0 27 -19 38.5t-43 11.5q-11 0 -28 -1t-24 -1z" />
    <glyph glyph-name="S" unicode="S" horiz-adv-x="536" 
d="M233 167q66 0 66 28q0 18 -23.5 34.5t-56.5 34t-66 40.5t-56.5 63t-23.5 92q0 101 82 167.5t226 66.5q103 0 176 -31l-51 -174q-2 1 -22.5 8t-28.5 9t-26.5 7t-35 6.5t-34.5 1.5q-69 0 -69 -32q0 -16 17 -30.5t43 -25.5t55.5 -28.5t55.5 -38t43 -57.5t17 -84
q0 -113 -89.5 -173.5t-223.5 -60.5q-63 0 -123 12.5t-92 28.5l54 174q83 -38 186 -38z" />
    <glyph glyph-name="S" unicode="&#xe002;" horiz-adv-x="536" 
d="M233 167q66 0 66 28q0 18 -23.5 34.5t-56.5 34t-66 40.5t-56.5 63t-23.5 92q0 101 82 167.5t226 66.5q103 0 176 -31l-51 -174q-2 1 -22.5 8t-28.5 9t-26.5 7t-35 6.5t-34.5 1.5q-69 0 -69 -32q0 -16 17 -30.5t43 -25.5t55.5 -28.5t55.5 -38t43 -57.5t17 -84
q0 -113 -89.5 -173.5t-223.5 -60.5q-63 0 -123 12.5t-92 28.5l54 174q83 -38 186 -38z" />
    <glyph glyph-name="T" unicode="T" horiz-adv-x="547" 
d="M218 503h-152l43 180h506l-41 -180h-145l-86 -503h-209z" />
    <glyph glyph-name="U" unicode="U" horiz-adv-x="660" 
d="M302 -10q-128 0 -192.5 57t-64.5 164q0 48 13 114l61 358h208l-61 -357q-1 -6 -4 -24.5t-4 -30.5t-2 -30.5t3 -30.5t11 -24t21.5 -18t34.5 -6q54 0 75.5 38t36.5 123l61 360h209l-61 -349q-13 -85 -33.5 -143.5t-58.5 -106.5t-100.5 -71t-152.5 -23z" />
    <glyph glyph-name="V" unicode="V" horiz-adv-x="644" 
d="M731 683l-320 -683h-256l-85 683h221l20 -341l8 -134h1l48 134l130 341h233z" />
    <glyph glyph-name="W" unicode="W" horiz-adv-x="860" 
d="M952 683l-250 -683h-244l6 330l3 64h-1l-19 -64l-114 -330h-246l-11 683h217l-34 -468h2l35 122l105 346h233l-17 -347l-7 -121h2l116 468h224z" />
    <glyph glyph-name="X" unicode="X" horiz-adv-x="556" 
d="M262 128l-55 -128h-246l223 351l-101 332h227l21 -127l11 -91h3l33 92l45 126h246l-215 -334l114 -349h-232l-26 127l-13 100h-2z" />
    <glyph glyph-name="Y" unicode="Y" horiz-adv-x="589" 
d="M317 402h2l57 145l57 136h249l-286 -432l-42 -251h-210l43 245l-130 438h230l15 -136z" />
    <glyph glyph-name="Z" unicode="Z" horiz-adv-x="551" 
d="M604 683l-23 -131l-287 -371v-4h229l-39 -177h-500l20 124l296 378v2h-208l40 179h472z" />
    <glyph glyph-name="bracketleft" unicode="[" horiz-adv-x="341" 
d="M230 -159h-252l154 908h249l-19 -114h-88l-114 -680h88z" />
    <glyph glyph-name="backslash" unicode="\" horiz-adv-x="383" 
d="M64 690h144l154 -716h-145z" />
    <glyph glyph-name="bracketright" unicode="]" horiz-adv-x="341" 
d="M242 -159h-249l16 113h89l115 682h-87l18 113h251z" />
    <glyph glyph-name="asciicircum" unicode="^" horiz-adv-x="566" 
d="M338 546l-163 -269h-126l253 396h108l125 -396h-121l-74 269h-2z" />
    <glyph glyph-name="underscore" unicode="_" horiz-adv-x="538" 
d="M-16 -57h488l-11 -63h-488z" />
    <glyph glyph-name="grave" unicode="`" horiz-adv-x="392" 
d="M383 713l57 -161h-135l-111 161h189z" />
    <glyph glyph-name="a" unicode="a" horiz-adv-x="570" 
d="M586 508l-39 -208q-32 -162 -35 -300h-197l10 93h-2q-24 -47 -62 -75t-79 -28q-73 0 -116 50t-43 132q0 136 87.5 237t192.5 101q60 0 96 -27h2l10 13zM338 275l16 83q-7 4 -28 4q-40 0 -62.5 -47t-22.5 -108q0 -55 32 -55q6 0 9.5 0.5t12.5 6.5t15 17.5t14 37t14 61.5z
" />
    <glyph glyph-name="b" unicode="b" horiz-adv-x="577" 
d="M46 273l83 454l209 4l-51 -291h2q22 29 56.5 49t74.5 20q75 0 113 -53t38 -130q0 -65 -19.5 -123.5t-58.5 -107t-105.5 -77t-152.5 -28.5q-187 0 -210 140q2 20 6.5 51.5t9.5 60.5t5 31zM321 344q-14 0 -25.5 -7t-19.5 -20.5t-13.5 -27.5t-9 -32.5t-5.5 -30.5t-4 -27.5
t-2 -17.5q4 -40 39 -40q26 0 49 46.5t23 106.5q0 50 -32 50z" />
    <glyph glyph-name="b" unicode="&#xe003;" horiz-adv-x="577" 
d="M46 273l83 454l209 4l-51 -291h2q22 29 56.5 49t74.5 20q75 0 113 -53t38 -130q0 -65 -19.5 -123.5t-58.5 -107t-105.5 -77t-152.5 -28.5q-187 0 -210 140q2 20 6.5 51.5t9.5 60.5t5 31zM321 344q-14 0 -25.5 -7t-19.5 -20.5t-13.5 -27.5t-9 -32.5t-5.5 -30.5t-4 -27.5
t-2 -17.5q4 -40 39 -40q26 0 49 46.5t23 106.5q0 50 -32 50z" />
    <glyph glyph-name="c" unicode="c" horiz-adv-x="460" 
d="M377 348q-27 0 -48 -4.5t-41.5 -16.5t-31.5 -37.5t-11 -63.5q0 -44 23.5 -60t52.5 -16q49 0 108 19l9 -149q-71 -30 -183 -30q-101 0 -164.5 53t-62.5 161q0 134 94.5 220t244.5 86q66 0 123 -18l-39 -156q-34 12 -74 12z" />
    <glyph glyph-name="d" unicode="d" horiz-adv-x="575" 
d="M378 480h2l42 247l209 4l-91 -535q-5 -27 -8.5 -59.5t-6.5 -75.5t-5 -61h-196l10 93h-2q-53 -103 -147 -103q-72 0 -115.5 56t-43.5 149q0 70 29 140.5t90 122.5t139 52q30 0 48.5 -6.5t45.5 -23.5zM341 249l20 99q-20 16 -49 16q-32 0 -50.5 -44.5t-18.5 -104.5
q0 -63 39 -63q8 0 12.5 1.5t14 9t17.5 29.5t15 57z" />
    <glyph glyph-name="e" unicode="e" horiz-adv-x="538" 
d="M230 190v-1q0 -23 29.5 -32.5t61.5 -9.5q83 0 150 29l15 -144q-89 -42 -225 -42q-234 0 -234 210q0 133 81.5 221t230.5 88q86 0 140.5 -44.5t54.5 -116.5q0 -161 -240 -161q-41 0 -64 3zM245 308q14 -1 37 -1q61 0 61 29q0 8 -8 15.5t-24 7.5q-28 0 -45.5 -14.5
t-20.5 -36.5z" />
    <glyph glyph-name="f" unicode="f" horiz-adv-x="358" 
d="M65 494l47 2q17 121 83 180.5t173 59.5q33 0 81 -6l-30 -164q-15 4 -32 4q-69 -1 -69 -74h84l-37 -151h-73l-71 -436h-208l71 436h-55z" />
    <glyph glyph-name="g" unicode="g" horiz-adv-x="574" 
d="M331 93h-2q-24 -47 -62 -75t-79 -28q-73 0 -116 50t-43 132q0 137 87.5 237.5t193.5 100.5q59 0 95 -29h2l10 15l176 12l-79 -457q-23 -135 -100 -208t-225 -73q-109 0 -175 29l36 156q20 -10 64 -17t77 -7q49 0 81 19t41 72zM345 275l15 83q-8 4 -27 4
q-40 0 -62.5 -46.5t-22.5 -108.5q0 -55 31 -55h7t8 2t10 6t10.5 13t11 22t10 33.5t9.5 46.5z" />
    <glyph glyph-name="h" unicode="h" horiz-adv-x="579" 
d="M436 508q66 0 104 -46t27 -111l-56 -351h-211l44 244q0 2 2 11.5t3.5 17.5t2.5 19.5t0.5 20.5t-2.5 17.5t-7.5 13t-13.5 4.5q-21 0 -38.5 -24.5t-29 -62.5t-16.5 -61t-8 -42l-26 -158h-209l124 727l210 4l-48 -281h2q29 29 69 43.5t77 14.5z" />
    <glyph glyph-name="i" unicode="i" horiz-adv-x="280" 
d="M2 0l85 496l209 3l-85 -499h-209zM111 634q0 48 37 87.5t88 39.5q38 0 61.5 -24.5t23.5 -62.5q0 -48 -36.5 -87.5t-87.5 -39.5q-39 0 -62.5 24.5t-23.5 62.5z" />
    <glyph glyph-name="j" unicode="j" horiz-adv-x="286" 
d="M301 499l-78 -454q-47 -291 -314 -277v159q54 5 73 26t32 96l78 447zM115 634q0 48 37 87.5t89 39.5q38 0 61.5 -24.5t23.5 -62.5q0 -48 -36.5 -87.5t-87.5 -39.5q-39 0 -63 25t-24 62z" />
    <glyph glyph-name="k" unicode="k" horiz-adv-x="573" 
d="M334 731l-68 -399q62 29 104.5 77.5t36.5 97.5l200 29q11 -84 -37 -154.5t-133 -122.5l116 -259h-244l-49 180q-8 -1 -20 -4l-30 -176h-208l124 727z" />
    <glyph glyph-name="l" unicode="l" horiz-adv-x="280" 
d="M2 0l126 727l209 4l-126 -731h-209z" />
    <glyph glyph-name="m" unicode="m" horiz-adv-x="856" 
d="M556 421h2q74 87 161 87q68 0 101.5 -41t22.5 -108l-57 -359h-204l41 244q19 103 -21 103q-47 0 -73 -152l-34 -195h-203l42 242q19 105 -21 105q-50 0 -70 -122l-37 -225h-204l50 302q5 30 15.5 97t14.5 97l188 3l-6 -71h2q61 80 160 80q61 0 93 -27.5t37 -59.5z" />
    <glyph glyph-name="n" unicode="n" horiz-adv-x="581" 
d="M442 508q72 0 104 -46t20 -119l-55 -343h-211l44 248q9 35 6 67t-27 32q-52 0 -73 -122l-39 -225h-209l50 300q12 66 31 196l188 3l-6 -71h2q71 80 175 80z" />
    <glyph glyph-name="o" unicode="o" 
d="M340 507q109 0 168 -56.5t59 -161.5q0 -129 -83 -214.5t-225 -85.5q-110 0 -170 55t-60 161q0 129 85 215.5t226 86.5zM319 353q-23 0 -39 -17t-23 -44t-9.5 -49t-2.5 -43q0 -31 8 -43t31 -12q21 0 35.5 18t21.5 45t9.5 49.5t2.5 42.5q0 53 -34 53z" />
    <glyph glyph-name="p" unicode="p" horiz-adv-x="578" 
d="M323 344q-54 0 -71 -119l-9 -61q18 -21 42 -21q28 0 48 47t20 108q0 46 -30 46zM265 414h2q24 40 62.5 67t78.5 27q80 0 121 -57.5t41 -145.5q0 -79 -30.5 -150t-93 -118t-143.5 -47q-56 0 -83 38h-2l-42 -247h-207l86 518q4 34 14.5 98.5t15.5 98.5l189 3z" />
    <glyph glyph-name="q" unicode="q" horiz-adv-x="577" 
d="M305 0l28 93h-2q-24 -47 -62 -75t-79 -28q-73 0 -116 50t-43 132q0 136 87.5 237t192.5 101q60 0 96 -27h2l10 13l175 12l-39 -208l-84 -519h-211zM346 275l16 83q-9 4 -27 4q-40 0 -62.5 -46.5t-22.5 -108.5q0 -55 33 -55q42 0 63 123z" />
    <glyph glyph-name="r" unicode="r" horiz-adv-x="403" 
d="M252 390h4q30 54 78.5 89.5t110.5 36.5l-39 -197q-137 17 -158 -105l-37 -214h-209l51 300q4 27 15.5 99.5t14.5 96.5l184 3z" />
    <glyph glyph-name="s" unicode="s" horiz-adv-x="476" 
d="M215 136q30 0 30 9q0 7 -19 16t-46 21.5t-54 30t-46 49t-19 71.5q0 83 75.5 129t182.5 46q95 0 153 -27l-37 -145q-74 27 -132 27q-33 0 -33 -13q0 -8 29.5 -20t65.5 -26.5t65.5 -50t29.5 -85.5q0 -82 -73.5 -130t-186.5 -48q-52 0 -107 10t-84 26l39 147q95 -37 167 -37
z" />
    <glyph glyph-name="s" unicode="&#xe004;" horiz-adv-x="476" 
d="M215 136q30 0 30 9q0 7 -19 16t-46 21.5t-54 30t-46 49t-19 71.5q0 83 75.5 129t182.5 46q95 0 153 -27l-37 -145q-74 27 -132 27q-33 0 -33 -13q0 -8 29.5 -20t65.5 -26.5t65.5 -50t29.5 -85.5q0 -82 -73.5 -130t-186.5 -48q-52 0 -107 10t-84 26l39 147q95 -37 167 -37
z" />
    <glyph glyph-name="t" unicode="t" horiz-adv-x="373" 
d="M42 74q0 22 1.5 45.5t3.5 40t6.5 44t7 41t10 49.5t10.5 51h-51l36 149l42 2l30 115l200 38l-25 -153h98l-36 -151h-89l-18 -94q-11 -56 2.5 -75.5t75.5 -7.5l-27 -163q-45 -15 -125 -15q-145 0 -152 84z" />
    <glyph glyph-name="u" unicode="u" horiz-adv-x="582" 
d="M341 104h-2q-63 -114 -185 -114q-152 0 -114 222l49 284h209l-42 -243q-18 -103 19 -103q23 0 46 38.5t36 117.5l31 190h209l-33 -196q-12 -66 -19.5 -120.5t-10 -80.5t-4.5 -57.5t-3 -41.5h-197z" />
    <glyph glyph-name="v" unicode="v" horiz-adv-x="503" 
d="M319 0h-238l-76 496h208l22 -230l10 -72h2l54 131q49 120 37 171h183q15 -37 6.5 -100.5t-40.5 -116.5z" />
    <glyph glyph-name="w" unicode="w" horiz-adv-x="786" 
d="M494 496l22 -230l12 -72h2l56 131q49 119 35 171h182q15 -37 6.5 -100.5t-40.5 -116.5l-167 -279h-238l-8 98h-3l-42 -98h-230l-76 496h208l22 -230l10 -72h2l30 71l41 107l-14 124h190z" />
    <glyph glyph-name="x" unicode="x" horiz-adv-x="529" 
d="M281 0l-31 137h-2l-62 -137h-234l203 258q-28 62 -63 132l-53 106h229l30 -130h3l59 130h235l-201 -240l117 -256h-230z" />
    <glyph glyph-name="y" unicode="y" horiz-adv-x="548" 
d="M37 496h207l21 -230l8 -101h6l65 160q48 117 35 171h182q17 -36 8.5 -101.5t-42.5 -115.5l-221 -320q8 -107 -56.5 -151.5t-237.5 -44.5v175q86 0 98 9q7 5 6 17z" />
    <glyph glyph-name="y" unicode="&#xe006;" horiz-adv-x="548" 
d="M37 496h207l21 -230l8 -101h6l65 160q48 117 35 171h182q17 -36 8.5 -101.5t-42.5 -115.5l-221 -320q8 -107 -56.5 -151.5t-237.5 -44.5v175q86 0 98 9q7 5 6 17z" />
    <glyph glyph-name="z" unicode="z" horiz-adv-x="469" 
d="M496 496l-22 -133l-213 -201v-2l188 -1l-38 -159h-430l20 129l220 207v2h-170l39 158h406z" />
    <glyph glyph-name="braceleft" unicode="{" horiz-adv-x="381" 
d="M441 745l-29 -104q-41 0 -57 -8.5t-26 -29.5q-5 -22 -7 -40t-5.5 -54.5t-9.5 -80.5q-5 -67 -44 -98.5t-103 -40.5v-2q43 -7 75.5 -31t32.5 -64q0 -13 -20 -104.5t-20 -104.5q0 -24 11.5 -31.5t35.5 -9.5h29l-27 -105q-113 0 -161.5 25t-48.5 87q0 31 24 119t24 109
q0 32 -15.5 43t-52.5 15l18 105q48 5 64.5 20t26.5 46q8 28 11 98.5t7 94.5q25 141 206 146h61z" />
    <glyph glyph-name="bar" unicode="|" horiz-adv-x="303" 
d="M228 774v-971h-154v971h154z" />
    <glyph glyph-name="braceright" unicode="}" horiz-adv-x="378" 
d="M-21 -163l29 103q45 0 72 16q8 18 11.5 36t5 33.5t5 53t8.5 75.5q11 69 47.5 100t100.5 39v2q-45 6 -76.5 29t-31.5 65q0 26 19.5 111.5t19.5 98.5q0 20 -16 30.5t-60 11.5l28 104q42 0 67.5 -1.5t55.5 -7.5t46.5 -17.5t28 -32.5t11.5 -52q0 -32 -24 -114.5t-24 -111.5
q0 -35 15.5 -46t54.5 -14l-19 -106q-50 -6 -67 -22t-25 -52q-6 -26 -9.5 -93.5t-8.5 -92.5q-15 -81 -70 -111t-158 -33q-7 0 -17.5 -0.5t-18.5 -0.5z" />
    <glyph glyph-name="asciitilde" unicode="~" horiz-adv-x="580" 
d="M165 212l-105 14q9 91 53 144.5t103 53.5q36 0 110 -34.5t81 -34.5q14 0 23.5 12.5t14.5 49.5l105 -13q-4 -94 -46 -144.5t-102 -50.5q-43 0 -108 33t-89 33q-17 0 -25 -16t-15 -47z" />
    <glyph glyph-name="exclamdown" unicode="&#xa1;" horiz-adv-x="295" 
d="M-31 -197l99 425h164l-44 -425h-219zM297 422q0 -55 -40.5 -99t-97.5 -44q-44 0 -71 28t-27 71q0 54 40.5 98t96.5 44q44 0 71.5 -28t27.5 -70z" />
    <glyph glyph-name="cent" unicode="&#xa2;" horiz-adv-x="560" 
d="M476 652l-15 -92q62 -7 93 -18l-46 -157q-42 18 -92 18q-58 0 -91 -24.5t-33 -91.5q0 -81 90 -81q38 0 107 21l-4 -154q-46 -18 -112 -23l-16 -94h-140l16 98q-76 14 -119.5 65.5t-43.5 140.5q0 118 67.5 192.5t180.5 100.5l17 99h141z" />
    <glyph glyph-name="sterling" unicode="&#xa3;" horiz-adv-x="586" 
d="M333 396h117l-35 -148h-91q-9 -27 -29 -50.5t-45 -30.5v-2h301l-33 -165h-505l4 100q114 70 116 148h-86l36 148h44q1 76 27 132t70 87.5t97 46.5t117 15q83 0 130 -28l-43 -163q-51 19 -121 19q-83 0 -77 -109q4 4 6 0z" />
    <glyph glyph-name="currency" unicode="&#xa4;" horiz-adv-x="568" 
d="M303 511q66 0 106 -31l87 92l63 -65l-96 -88q37 -48 33 -118q-2 -65 -43 -110l86 -89l-61 -63l-77 95q-44 -36 -109 -36q-64 0 -107 35l-82 -94l-63 63l95 88q-41 50 -37 121q5 67 41 109l-89 87l63 66l79 -93q44 31 111 31zM303 417q-37 0 -67.5 -29t-34.5 -76
q-4 -50 24 -83.5t67 -33.5q36 0 67 28.5t34 78.5q4 49 -24 82t-66 33z" />
    <glyph glyph-name="yen" unicode="&#xa5;" horiz-adv-x="588" 
d="M366 0h-216l15 90h-151l23 87h141l8 40h-151l24 85h129l-132 365h239l29 -271h2l116 271h240l-254 -365h138l-23 -85h-141l-8 -40h151l-23 -87h-141z" />
    <glyph glyph-name="brokenbar" unicode="&#xa6;" horiz-adv-x="259" 
d="M251 725l-18 -354h-143l16 354h145zM223 204l-18 -353h-143l18 353h143z" />
    <glyph glyph-name="section" unicode="&#xa7;" horiz-adv-x="587" 
d="M512 127q4 -82 -72.5 -137.5t-197.5 -55.5q-130 0 -210 47l43 134q29 -17 83.5 -30.5t96.5 -13.5q18 0 31.5 2.5t19 6.5t4.5 9q0 10 -26 20.5t-63 23.5t-74 31t-63 51t-26 75q0 46 28.5 85.5t69.5 57.5v2q-29 33 -29 80t24 83t64.5 56t86.5 29.5t96 9.5q107 0 174 -34
l-38 -133q-72 30 -156 30q-57 0 -57 -19q0 -10 25.5 -21t62 -23.5t73 -30.5t62 -50.5t25.5 -74.5q0 -44 -25 -81.5t-62 -59.5v-2q28 -24 30 -67zM241 334q-1 -14 19 -25t55.5 -21.5t49.5 -17.5q17 9 17 23q0 11 -7.5 20.5t-16.5 15.5t-25 12t-25 8.5t-25.5 6.5t-17.5 4
q-7 -1 -15 -9t-9 -17z" />
    <glyph glyph-name="dieresis" unicode="&#xa8;" horiz-adv-x="423" 
d="M161 620q0 41 30 74.5t73 33.5q33 0 53.5 -22t20.5 -55q0 -39 -31 -72.5t-72 -33.5q-32 0 -53 22t-21 53zM384 620q0 41 30 74.5t73 33.5q33 0 53.5 -22t20.5 -55q0 -39 -31 -72.5t-72 -33.5q-32 0 -53 22t-21 53z" />
    <glyph glyph-name="copyright" unicode="&#xa9;" horiz-adv-x="758" 
d="M75 323q0 140 101.5 243t246.5 103q130 0 219 -89.5t89 -218.5q0 -142 -101 -243.5t-243 -101.5q-131 0 -221.5 89.5t-90.5 217.5zM419 609q-112 -3 -195 -86t-83 -197q0 -104 72 -177t175 -73q111 0 194.5 83t83.5 197q0 106 -71.5 179.5t-175.5 73.5zM433 431
q-44 0 -70.5 -25t-26.5 -73q0 -44 25 -65t65 -21q51 0 96 20l8 -79q-49 -27 -107 -27q-97 0 -143.5 43.5t-46.5 117.5q0 87 54.5 141t146.5 54q32 0 63 -7.5t44 -17.5l-16 -82q-44 21 -92 21z" />
    <glyph glyph-name="ordfeminine" unicode="&#xaa;" horiz-adv-x="406" 
d="M415 725l-26 -157q-7 -43 -9 -72h-98l-29 33h-2q-39 -40 -97 -40q-43 0 -67.5 29.5t-17.5 68.5q17 105 131 105h69l3 15q-11 11 -37 11q-43 0 -105 -19l-6 101q81 26 159 26q77 0 109 -22.5t23 -78.5zM228 583q8 0 26 6l5 27h-39q-10 0 -12 -19q-1 -8 4.5 -11t15.5 -3z
" />
    <glyph glyph-name="guillemotleft" unicode="&#xab;" horiz-adv-x="593" 
d="M293 359l-111 -112l75 -114l-98 -64l-119 188l179 187zM539 359l-112 -112l76 -114l-99 -64l-119 188l180 187z" />
    <glyph glyph-name="logicalnot" unicode="&#xac;" horiz-adv-x="596" 
d="M537 393v-306h-105v205h-373v101h478z" />
    <glyph glyph-name="registered" unicode="&#xae;" horiz-adv-x="599" 
d="M72 411q0 116 83.5 196t200.5 80q83 0 136 -52t53 -132q0 -105 -84.5 -191t-197.5 -86q-79 0 -135 55t-56 130zM346 639q-85 0 -152.5 -66.5t-67.5 -153.5q0 -63 40.5 -103.5t106.5 -40.5q84 0 151.5 66.5t67.5 152.5q0 63 -40.5 104t-105.5 41zM294 419h-17l-14 -84h-55
l38 235q6 0 38 3t46 3q82 0 82 -63q0 -62 -61 -84v-2l53 -92h-64zM295 526l-10 -58h23q45 0 45 37q0 23 -33 23q-9 0 -25 -2z" />
    <glyph glyph-name="macron" unicode="&#xaf;" horiz-adv-x="444" 
d="M231 672h298l-18 -93h-298z" />
    <glyph glyph-name="degree" unicode="&#xb0;" horiz-adv-x="392" 
d="M111 564q0 57 45 104.5t109 47.5q56 0 94.5 -38t38.5 -93q0 -59 -44 -106t-109 -47q-57 0 -95.5 38t-38.5 94zM191 570q0 -26 16.5 -42.5t43.5 -16.5q31 0 49.5 21t18.5 47q0 25 -17 41.5t-43 16.5q-30 0 -49 -21.5t-19 -45.5z" />
    <glyph glyph-name="plusminus" unicode="&#xb1;" 
d="M497 0h-499l24 139h179l10 59h-179l22 139h179l32 185h141l-32 -185h179l-22 -139h-179l-11 -59h180z" />
    <glyph glyph-name="twosuperior" unicode="&#xb2;" horiz-adv-x="365" 
d="M66 441l11 64q2 1 34 23.5t54 39.5t51 42.5t45 48.5t16 41q0 38 -47 38q-57 -5 -90 -25l-11 84q62 39 148 39q59 0 98 -27.5t39 -84.5q0 -21 -9 -42t-18 -35t-32.5 -34t-32.5 -27t-38 -27t-31 -21v-2h134l-26 -95h-295z" />
    <glyph glyph-name="threesuperior" unicode="&#xb3;" horiz-adv-x="363" 
d="M199 522q28 0 45.5 11t17.5 31q0 18 -21.5 29.5t-58.5 11.5h-24l22 76h16q77 0 82 33q0 32 -44 32q-48 0 -98 -24l-5 81q64 31 144 31q56 0 97.5 -24.5t41.5 -67.5q0 -73 -99 -96v-2q32 -6 57 -25.5t25 -50.5q0 -66 -54.5 -99.5t-134.5 -33.5q-90 0 -141 30l34 85
q44 -28 98 -28z" />
    <glyph glyph-name="acute" unicode="&#xb4;" horiz-adv-x="392" 
d="M302 713h188l-128 -161h-136z" />
    <glyph glyph-name="mu" unicode="&#xb5;" horiz-adv-x="580" 
d="M-2 -28l90 524h209l-42 -243q-19 -100 16 -100q27 0 50.5 37t34.5 116l32 190h209l-33 -196q-12 -66 -19.5 -122t-10 -77.5t-5 -60.5t-2.5 -40h-197l11 104h-2q-64 -114 -170 -114q4 0 7 -0.5t5 -1t3.5 -1.5t3.5 -2.5t2.5 -2.5t2.5 -3.5t3 -3.5l-2 -14
q-16 -72 -45 -116.5t-86 -61.5l-140 67q61 45 75 122z" />
    <glyph glyph-name="paragraph" unicode="&#xb6;" horiz-adv-x="585" 
d="M275 -36l-136 -10l51 310q-34 0 -76.5 43t-42.5 114q0 63 26 112t71.5 78.5t101.5 46t123 21.5zM481 -36l-136 -10l119 722h135z" />
    <glyph glyph-name="periodcentered" unicode="&#xb7;" horiz-adv-x="300" 
d="M42 231q0 55 40 99t98 44q44 0 71 -27.5t27 -71.5q0 -54 -41 -98t-97 -44q-43 0 -70.5 28t-27.5 70z" />
    <glyph glyph-name="cedilla" unicode="&#xb8;" horiz-adv-x="396" 
d="M126 0h75l-20 -30q78 -30 78 -80q0 -40 -45 -72t-105 -32q-43 0 -78 12l24 70q19 -4 34 -4q33 0 50 13t17 27q0 15 -18.5 26t-51.5 9q10 31 40 61z" />
    <glyph glyph-name="onesuperior" unicode="&#xb9;" horiz-adv-x="325" 
d="M354 833l-68 -392h-129l49 286h-1l-80 -32l-23 73l156 65h96z" />
    <glyph glyph-name="ordmasculine" unicode="&#xba;" horiz-adv-x="398" 
d="M301 826q87 0 126 -47.5t23 -130.5q-16 -77 -73 -118.5t-136 -41.5q-83 0 -125 47t-26 129q16 76 70.5 119t140.5 43zM283 726q-17 0 -27.5 -14t-18.5 -47q-9 -41 -4 -58.5t25 -17.5q18 0 28 12.5t20 47.5q14 77 -23 77z" />
    <glyph glyph-name="guillemotright" unicode="&#xbb;" horiz-adv-x="606" 
d="M313 154l111 112l-75 114l98 64l119 -188l-179 -187zM67 154l111 112l-75 114l99 64l119 -188l-180 -187z" />
    <glyph glyph-name="onequarter" unicode="&#xbc;" horiz-adv-x="908" 
d="M658 674h96l-450 -681h-96q68 104 201.5 305t248.5 376zM346 673l-68 -392h-129l49 286h-1l-80 -32l-23 73l156 65h96zM633 168h67l2 11l27 129h-4l-69 -103zM706 395h151l-39 -227h44l-25 -84h-33l-15 -84h-118l13 84h-183l14 74z" />
    <glyph glyph-name="onehalf" unicode="&#xbd;" horiz-adv-x="908" 
d="M642 674h90l-454 -681h-92zM337 673l-68 -392h-129l49 286h-1l-80 -32l-23 73l156 65h96zM533 0l10 64q2 1 34 23.5t54 39.5t51 42.5t45 48.5t16 41q0 38 -46 38q-58 -5 -91 -25l-11 84q62 39 148 39q59 0 98.5 -27.5t39.5 -84.5q0 -21 -9 -42t-18.5 -35.5t-32.5 -34
t-33 -27t-38 -26.5t-31 -21v-2h134l-26 -95h-294z" />
    <glyph glyph-name="threequarters" unicode="&#xbe;" horiz-adv-x="908" 
d="M673 674h95l-449 -681h-96q115 175 248.5 376t201.5 305zM642 168h67l3 11l26 129h-3l-69 -103zM716 395h151l-39 -227h43l-25 -84h-32l-15 -84h-119l14 84h-183l14 74zM175 364q28 0 45 11t17 30q0 18 -21 29.5t-58 11.5h-24l22 77h16q77 0 82 32q0 32 -44 32
q-48 0 -98 -24l-5 81q64 31 144 31q56 0 97.5 -24t41.5 -68q0 -36 -26.5 -60.5t-72.5 -35.5v-2q32 -5 57 -25t25 -51q0 -66 -54.5 -99.5t-134.5 -33.5q-90 0 -141 30l34 85q42 -27 98 -27z" />
    <glyph glyph-name="questiondown" unicode="&#xbf;" horiz-adv-x="474" 
d="M339 -19l-16 -165q-47 -5 -92 -5q-110 0 -167.5 40t-57.5 106q0 46 17 80t42 54.5t51 37.5t46.5 40.5t25.5 52.5l2 6h182q0 -6 -5 -56q-10 -38 -34.5 -62.5t-48 -33.5t-42 -25t-18.5 -38q0 -34 82 -34q11 0 33 2zM428 422q0 -55 -40 -99t-97 -44q-44 0 -71.5 28t-27.5 71
q0 54 41 98t97 44q43 0 70.5 -28t27.5 -70z" />
    <glyph glyph-name="Agrave" unicode="&#xc0;" horiz-adv-x="631" 
d="M541 684l69 -684h-223l-2 123h-149l-43 -123h-225l297 684h276zM374 536h-2l-27 -90l-49 -162h80v160zM471 906l57 -161h-136l-110 161h189z" />
    <glyph glyph-name="Aacute" unicode="&#xc1;" horiz-adv-x="631" 
d="M541 684l69 -684h-223l-2 123h-149l-43 -123h-225l297 684h276zM374 536h-2l-27 -90l-49 -162h80v160zM359 906h189l-128 -161h-137z" />
    <glyph glyph-name="Acircumflex" unicode="&#xc2;" horiz-adv-x="631" 
d="M541 684l69 -684h-223l-2 123h-149l-43 -123h-225l297 684h276zM374 536h-2l-27 -90l-49 -162h80v160zM416 816l-65 -71h-117l134 164h119l89 -164h-110l-48 71h-2z" />
    <glyph glyph-name="Atilde" unicode="&#xc3;" horiz-adv-x="631" 
d="M541 684l69 -684h-223l-2 123h-149l-43 -123h-225l297 684h276zM374 536h-2l-27 -90l-49 -162h80v160zM351 785q-15 0 -41 -40l-76 5q18 75 50 114t71 39q37 0 72.5 -20.5t44.5 -20.5q12 0 21 7.5t25 32.5l73 -10q-35 -145 -121 -145q-36 0 -74 19t-45 19z" />
    <glyph glyph-name="Adieresis" unicode="&#xc4;" horiz-adv-x="631" 
d="M541 684l69 -684h-223l-2 123h-149l-43 -123h-225l297 684h276zM374 536h-2l-27 -90l-49 -162h80v160zM225 813q0 41 30 74.5t73 33.5q33 0 53.5 -22t20.5 -55q0 -39 -31 -72.5t-73 -33.5q-31 0 -52 22t-21 53zM448 813q0 41 30 74.5t73 33.5q33 0 53.5 -22t20.5 -55
q0 -39 -31 -72.5t-72 -33.5q-32 0 -53 22t-21 53z" />
    <glyph glyph-name="Aring" unicode="&#xc5;" horiz-adv-x="631" 
d="M415 831q50 0 81.5 -26.5t28.5 -73.5q0 -3 2 -40h13l70 -691h-223l-2 123h-149l-43 -123h-225l301 691h9q2 12 4 28q2 50 39.5 81t93.5 31zM374 536h-2l-27 -90l-49 -162h80v160zM408 769q-20 0 -32 -12.5t-14 -32.5q-2 -16 8 -26.5t28 -10.5q21 0 33.5 12.5t13.5 28.5
q3 41 -37 41z" />
    <glyph glyph-name="AE" unicode="&#xc6;" horiz-adv-x="890" 
d="M935 683l-40 -177h-270l-4 -76h242l-39 -175h-214l-3 -79h246l-40 -176h-423l3 105h-177l-47 -105h-223l392 683h597zM425 505h-2l-48 -101l-62 -125h93l10 132z" />
    <glyph glyph-name="Ccedilla" unicode="&#xc7;" horiz-adv-x="583" 
d="M452 516q-90 0 -137 -59t-47 -155q0 -71 38 -103.5t100 -32.5q70 0 133 21l1 -170q-58 -24 -169 -27l-13 -20q78 -30 78 -80q0 -40 -45.5 -72t-105.5 -32q-43 0 -78 12l25 70q17 -4 34 -4q32 0 49.5 13t17.5 27q0 15 -19 26t-52 9q8 26 34 55q-119 16 -185.5 91.5
t-66.5 193.5q0 191 113.5 302.5t295.5 111.5q110 0 174 -26l-44 -172q-65 21 -131 21z" />
    <glyph glyph-name="Egrave" unicode="&#xc8;" horiz-adv-x="547" 
d="M588 683l-40 -177h-244l-13 -72h231l-40 -176h-221l-13 -82h266l-39 -176h-466l116 683h463zM439 906l57 -161h-136l-110 161h189z" />
    <glyph glyph-name="Eacute" unicode="&#xc9;" horiz-adv-x="547" 
d="M588 683l-40 -177h-244l-13 -72h231l-40 -176h-221l-13 -82h266l-39 -176h-466l116 683h463zM318 906h188l-128 -161h-136z" />
    <glyph glyph-name="Ecircumflex" unicode="&#xca;" horiz-adv-x="547" 
d="M588 683l-40 -177h-244l-13 -72h231l-40 -176h-221l-13 -82h266l-39 -176h-466l116 683h463zM385 816l-65 -71h-117l134 164h119l89 -164h-110l-48 71h-2z" />
    <glyph glyph-name="Edieresis" unicode="&#xcb;" horiz-adv-x="547" 
d="M588 683l-40 -177h-244l-13 -72h231l-40 -176h-221l-13 -82h266l-39 -176h-466l116 683h463zM173 813q0 41 30 74.5t73 33.5q33 0 53.5 -21.5t20.5 -55.5q0 -39 -31 -72.5t-72 -33.5q-32 0 -53 22t-21 53zM397 813q0 41 30 74.5t73 33.5q33 0 53 -22t20 -55
q0 -39 -30.5 -72.5t-72.5 -33.5q-32 0 -52.5 22t-20.5 53z" />
    <glyph glyph-name="Igrave" unicode="&#xcc;" horiz-adv-x="289" 
d="M330 683l-116 -683h-209l116 683h209zM289 906l57 -161h-135l-111 161h189z" />
    <glyph glyph-name="Iacute" unicode="&#xcd;" horiz-adv-x="289" 
d="M330 683l-116 -683h-209l116 683h209zM202 906h189l-129 -161h-136z" />
    <glyph glyph-name="Icircumflex" unicode="&#xce;" horiz-adv-x="289" 
d="M330 683l-116 -683h-209l116 683h209zM255 816l-65 -71h-117l135 164h119l88 -164h-110l-48 71h-2z" />
    <glyph glyph-name="Idieresis" unicode="&#xcf;" horiz-adv-x="289" 
d="M330 683l-116 -683h-209l116 683h209zM56 813q0 41 30 74.5t73 33.5q33 0 53.5 -22t20.5 -55q0 -39 -31 -72.5t-72 -33.5q-32 0 -53 22t-21 53zM279 813q0 41 30 74.5t73 33.5q33 0 53.5 -22t20.5 -55q0 -39 -31 -72.5t-72 -33.5q-32 0 -53 22t-21 53z" />
    <glyph glyph-name="Eth" unicode="&#xd0;" horiz-adv-x="678" 
d="M10 8l43 258h-54l39 156h43l43 252q97 12 225 12q163 0 247.5 -75.5t84.5 -219.5q0 -192 -114 -293t-333 -101q-156 0 -224 11zM336 517q-9 0 -17.5 -0.5t-10.5 -0.5l-17 -94h87l-38 -156h-76l-16 -98q1 0 14.5 -1t27.5 -1q74 2 121 60t47 167q0 124 -122 124z" />
    <glyph glyph-name="Ntilde" unicode="&#xd1;" horiz-adv-x="672" 
d="M596 0h-221q-71 229 -105 380h-3l-60 -380h-198l116 683h243q-5 -4 8 -53.5t42 -149.5t44 -159h3l50 362h200zM374 785q-16 0 -40 -40l-76 5q18 75 50 114t71 39q36 0 71.5 -20.5t45.5 -20.5q11 0 20 7.5t25 32.5l73 -10q-17 -75 -49 -110t-72 -35q-35 0 -73.5 19
t-45.5 19z" />
    <glyph glyph-name="Ograve" unicode="&#xd2;" horiz-adv-x="704" 
d="M402 520q-65 0 -101 -73t-36 -180q0 -105 93 -105q61 0 96 72.5t35 178.5q0 107 -87 107zM426 693q134 0 207 -78.5t73 -211.5q0 -81 -25 -155t-71 -131.5t-119 -92t-162 -34.5q-134 0 -208 79.5t-74 208.5q0 108 43 201.5t131 153.5t205 60zM518 906l57 -161h-135
l-111 161h189z" />
    <glyph glyph-name="Oacute" unicode="&#xd3;" horiz-adv-x="704" 
d="M402 520q-65 0 -101 -73t-36 -180q0 -105 93 -105q61 0 96 72.5t35 178.5q0 107 -87 107zM426 693q134 0 207 -78.5t73 -211.5q0 -81 -25 -155t-71 -131.5t-119 -92t-162 -34.5q-134 0 -208 79.5t-74 208.5q0 108 43 201.5t131 153.5t205 60zM396 906h188l-128 -161h-136
z" />
    <glyph glyph-name="Ocircumflex" unicode="&#xd4;" horiz-adv-x="704" 
d="M402 520q-65 0 -101 -73t-36 -180q0 -105 93 -105q61 0 96 72.5t35 178.5q0 107 -87 107zM426 693q134 0 207 -78.5t73 -211.5q0 -81 -25 -155t-71 -131.5t-119 -92t-162 -34.5q-134 0 -208 79.5t-74 208.5q0 108 43 201.5t131 153.5t205 60zM463 816l-65 -71h-117
l134 164h119l89 -164h-110l-48 71h-2z" />
    <glyph glyph-name="Otilde" unicode="&#xd5;" horiz-adv-x="704" 
d="M402 520q-65 0 -101 -73t-36 -180q0 -105 93 -105q61 0 96 72.5t35 178.5q0 107 -87 107zM426 693q134 0 207 -78.5t73 -211.5q0 -81 -25 -155t-71 -131.5t-119 -92t-162 -34.5q-134 0 -208 79.5t-74 208.5q0 108 43 201.5t131 153.5t205 60zM390 785q-16 0 -40 -40
l-76 5q18 75 50 114t71 39q36 0 71.5 -20.5t45.5 -20.5q11 0 20 7.5t25 32.5l73 -10q-17 -75 -49 -110t-72 -35q-35 0 -73.5 19t-45.5 19z" />
    <glyph glyph-name="Odieresis" unicode="&#xd6;" horiz-adv-x="704" 
d="M402 520q-65 0 -101 -73t-36 -180q0 -105 93 -105q61 0 96 72.5t35 178.5q0 107 -87 107zM426 693q134 0 207 -78.5t73 -211.5q0 -81 -25 -155t-71 -131.5t-119 -92t-162 -34.5q-134 0 -208 79.5t-74 208.5q0 108 43 201.5t131 153.5t205 60zM251 813q0 41 30 74.5
t73 33.5q33 0 53.5 -21.5t20.5 -55.5q0 -39 -31 -72.5t-72 -33.5q-32 0 -53 22t-21 53zM474 813q0 41 30.5 74.5t73.5 33.5q33 0 53 -22t20 -55q0 -39 -30.5 -72.5t-72.5 -33.5q-32 0 -53 22t-21 53z" />
    <glyph glyph-name="multiply" unicode="&#xd7;" 
d="M558 426l-184 -160l132 -159l-110 -96l-132 161l-188 -164l-86 105l188 161l-125 154l109 95l126 -154l184 160z" />
    <glyph glyph-name="Oslash" unicode="&#xd8;" horiz-adv-x="704" 
d="M426 693q66 0 117 -16l52 77l100 -61l-57 -85q68 -77 68 -205q0 -81 -25 -155t-71 -131.5t-119 -92t-162 -34.5q-45 0 -103 9l-62 -91l-97 69l59 87q-79 77 -79 214q0 108 43 201.5t131 153.5t205 60zM402 520q-65 0 -101 -73t-36 -180q0 -5 -7 -11l175 263
q-5 0 -15.5 0.5t-15.5 0.5zM489 413q0 -8 9 -8l-164 -248q17 5 24 5q61 0 96 72.5t35 178.5z" />
    <glyph glyph-name="Ugrave" unicode="&#xd9;" horiz-adv-x="660" 
d="M302 -10q-128 0 -192.5 57t-64.5 164q0 48 13 114l61 358h208l-61 -357q-1 -6 -4 -24.5t-4 -30.5t-2 -30.5t3 -30.5t11 -24t21.5 -18t34.5 -6q54 0 75.5 38t36.5 123l61 360h209l-61 -349q-13 -85 -33.5 -143.5t-58.5 -106.5t-100.5 -71t-152.5 -23zM496 906l57 -161
h-135l-111 161h189z" />
    <glyph glyph-name="Uacute" unicode="&#xda;" horiz-adv-x="660" 
d="M302 -10q-128 0 -192.5 57t-64.5 164q0 48 13 114l61 358h208l-61 -357q-1 -6 -4 -24.5t-4 -30.5t-2 -30.5t3 -30.5t11 -24t21.5 -18t34.5 -6q54 0 75.5 38t36.5 123l61 360h209l-61 -349q-13 -85 -33.5 -143.5t-58.5 -106.5t-100.5 -71t-152.5 -23zM374 906h189
l-129 -161h-136z" />
    <glyph glyph-name="Ucircumflex" unicode="&#xdb;" horiz-adv-x="660" 
d="M302 -10q-128 0 -192.5 57t-64.5 164q0 48 13 114l61 358h208l-61 -357q-1 -6 -4 -24.5t-4 -30.5t-2 -30.5t3 -30.5t11 -24t21.5 -18t34.5 -6q54 0 75.5 38t36.5 123l61 360h209l-61 -349q-13 -85 -33.5 -143.5t-58.5 -106.5t-100.5 -71t-152.5 -23zM441 816l-65 -71
h-117l135 164h119l88 -164h-110l-48 71h-2z" />
    <glyph glyph-name="Udieresis" unicode="&#xdc;" horiz-adv-x="660" 
d="M302 -10q-128 0 -192.5 57t-64.5 164q0 48 13 114l61 358h208l-61 -357q-1 -6 -4 -24.5t-4 -30.5t-2 -30.5t3 -30.5t11 -24t21.5 -18t34.5 -6q54 0 75.5 38t36.5 123l61 360h209l-61 -349q-13 -85 -33.5 -143.5t-58.5 -106.5t-100.5 -71t-152.5 -23zM229 813
q0 41 30.5 74.5t73.5 33.5q33 0 53 -22t20 -55q0 -39 -30.5 -72.5t-72.5 -33.5q-32 0 -53 22t-21 53zM453 813q0 41 30 74.5t73 33.5q33 0 53.5 -22t20.5 -55q0 -39 -31 -72.5t-72 -33.5q-32 0 -53 22t-21 53z" />
    <glyph glyph-name="Yacute" unicode="&#xdd;" horiz-adv-x="589" 
d="M338 906h189l-128 -161h-137zM317 402h2l57 145l57 136h249l-286 -432l-42 -251h-210l43 245l-130 438h230l15 -136z" />
    <glyph glyph-name="Thorn" unicode="&#xde;" horiz-adv-x="592" 
d="M330 683l-18 -114q6 0 29 0.5t40 0.5q103 0 163.5 -53t60.5 -145q0 -133 -84.5 -199.5t-232.5 -66.5q-40 0 -55 3l-19 -109h-205l116 683h205zM283 400l-21 -121q44 -4 51 -4q72 0 81 67q0 27 -12 41t-25 16.5t-35 2.5q-28 0 -39 -2z" />
    <glyph glyph-name="germandbls" unicode="&#xdf;" horiz-adv-x="653" 
d="M627 592q0 -46 -47 -117t-47 -102q0 -23 17 -45t37 -39t37 -48.5t17 -71.5q0 -89 -73 -134t-176 -45q-76 0 -124 23l36 151q46 -21 93 -21q33 0 33 16t-24 43t-48.5 62.5t-24.5 72.5q0 34 20.5 65t44.5 50t44.5 44.5t20.5 48.5q0 20 -12 30.5t-30 10.5q-24 0 -44 -20
t-34 -53t-22.5 -60.5t-14.5 -56.5l-81 -487h-210l92 548q43 281 306 281q62 0 107 -14.5t66.5 -38.5t31 -46.5t9.5 -46.5z" />
    <glyph glyph-name="agrave" unicode="&#xe0;" horiz-adv-x="570" 
d="M586 508l-39 -208q-32 -162 -35 -300h-197l10 93h-2q-24 -47 -62 -75t-79 -28q-73 0 -116 50t-43 132q0 136 87.5 237t192.5 101q60 0 96 -27h2l10 13zM338 275l16 83q-7 4 -28 4q-40 0 -62.5 -47t-22.5 -108q0 -55 32 -55q6 0 9.5 0.5t12.5 6.5t15 17.5t14 37t14 61.5z
M398 713l57 -161h-135l-111 161h189z" />
    <glyph glyph-name="aacute" unicode="&#xe1;" horiz-adv-x="570" 
d="M586 508l-39 -208q-32 -162 -35 -300h-197l10 93h-2q-24 -47 -62 -75t-79 -28q-73 0 -116 50t-43 132q0 136 87.5 237t192.5 101q60 0 96 -27h2l10 13zM338 275l16 83q-7 4 -28 4q-40 0 -62.5 -47t-22.5 -108q0 -55 32 -55q6 0 9.5 0.5t12.5 6.5t15 17.5t14 37t14 61.5z
M319 713h189l-128 -161h-137z" />
    <glyph glyph-name="acircumflex" unicode="&#xe2;" horiz-adv-x="570" 
d="M586 508l-39 -208q-32 -162 -35 -300h-197l10 93h-2q-24 -47 -62 -75t-79 -28q-73 0 -116 50t-43 132q0 136 87.5 237t192.5 101q60 0 96 -27h2l10 13zM338 275l16 83q-7 4 -28 4q-40 0 -62.5 -47t-22.5 -108q0 -55 32 -55q6 0 9.5 0.5t12.5 6.5t15 17.5t14 37t14 61.5z
M366 623l-65 -71h-117l134 164h119l89 -164h-110l-48 71h-2z" />
    <glyph glyph-name="atilde" unicode="&#xe3;" horiz-adv-x="570" 
d="M586 508l-39 -208q-32 -162 -35 -300h-197l10 93h-2q-24 -47 -62 -75t-79 -28q-73 0 -116 50t-43 132q0 136 87.5 237t192.5 101q60 0 96 -27h2l10 13zM338 275l16 83q-7 4 -28 4q-40 0 -62.5 -47t-22.5 -108q0 -55 32 -55q6 0 9.5 0.5t12.5 6.5t15 17.5t14 37t14 61.5z
M297 592q-16 0 -40 -40l-76 5q18 75 50 114t71 39q36 0 71.5 -20.5t45.5 -20.5q11 0 20 7.5t25 32.5l73 -10q-17 -75 -49 -110t-72 -35q-35 0 -73.5 19t-45.5 19z" />
    <glyph glyph-name="adieresis" unicode="&#xe4;" horiz-adv-x="570" 
d="M586 508l-39 -208q-32 -162 -35 -300h-197l10 93h-2q-24 -47 -62 -75t-79 -28q-73 0 -116 50t-43 132q0 136 87.5 237t192.5 101q60 0 96 -27h2l10 13zM338 275l16 83q-7 4 -28 4q-40 0 -62.5 -47t-22.5 -108q0 -55 32 -55q6 0 9.5 0.5t12.5 6.5t15 17.5t14 37t14 61.5z
M167 620q0 41 30 74.5t73 33.5q33 0 53.5 -22t20.5 -55q0 -39 -31 -72.5t-73 -33.5q-31 0 -52 22t-21 53zM390 620q0 41 30 74.5t73 33.5q33 0 53.5 -22t20.5 -55q0 -39 -31 -72.5t-72 -33.5q-32 0 -53 22t-21 53z" />
    <glyph glyph-name="aring" unicode="&#xe5;" horiz-adv-x="570" 
d="M586 508l-39 -208q-32 -162 -35 -300h-197l10 93h-2q-24 -47 -62 -75t-79 -28q-73 0 -116 50t-43 132q0 136 87.5 237t192.5 101q60 0 96 -27h2l10 13zM338 275l16 83q-7 4 -28 4q-40 0 -62.5 -47t-22.5 -108q0 -55 32 -55q6 0 9.5 0.5t12.5 6.5t15 17.5t14 37t14 61.5z
M364 747q49 0 81 -26.5t29 -73.5q-4 -50 -42.5 -78t-93.5 -28q-45 0 -76.5 25.5t-30.5 67.5q2 51 39.5 82t93.5 31zM357 684q-20 0 -32.5 -12.5t-14.5 -31.5q-1 -16 9 -26.5t28 -10.5q21 0 33.5 12t13.5 29q2 40 -37 40z" />
    <glyph glyph-name="ae" unicode="&#xe6;" horiz-adv-x="837" 
d="M529 190v-1q0 -23 29.5 -32.5t61.5 -9.5q83 0 150 29l15 -144q-89 -42 -225 -42q-181 0 -222 128h-2q-27 -60 -68.5 -94t-85.5 -34q-73 0 -116 50t-43 132q0 136 87.5 237t192.5 101q46 0 76 -15t62 -44h2q79 58 195 58q86 0 140.5 -44.5t54.5 -116.5q0 -161 -240 -161
q-41 0 -64 3zM326 210q0 80 35 151q-5 1 -35 1q-40 0 -62.5 -47t-22.5 -108q0 -55 32 -55q33 0 53 58zM544 308q14 -1 37 -1q61 0 61 29q0 8 -8 15.5t-24 7.5q-28 0 -45.5 -14.5t-20.5 -36.5z" />
    <glyph glyph-name="ccedilla" unicode="&#xe7;" horiz-adv-x="460" 
d="M377 348q-27 0 -48 -4.5t-41.5 -16.5t-31.5 -37.5t-11 -63.5q0 -44 23.5 -60t52.5 -16q49 0 108 19l9 -149q-45 -19 -144 -29l-14 -21q78 -30 78 -80q0 -40 -45 -72t-105 -32q-43 0 -79 12l25 70q19 -4 34 -4q33 0 50 13t17 27q0 15 -18.5 26t-51.5 9q10 29 32 53
q-86 9 -138 61.5t-51 150.5q0 134 94.5 220t244.5 86q66 0 123 -18l-39 -156q-34 12 -74 12z" />
    <glyph glyph-name="egrave" unicode="&#xe8;" horiz-adv-x="538" 
d="M388 713l57 -161h-135l-111 161h189zM230 190v-1q0 -23 29.5 -32.5t61.5 -9.5q83 0 150 29l15 -144q-89 -42 -225 -42q-234 0 -234 210q0 133 81.5 221t230.5 88q86 0 140.5 -44.5t54.5 -116.5q0 -161 -240 -161q-41 0 -64 3zM245 308q14 -1 37 -1q61 0 61 29
q0 8 -8 15.5t-24 7.5q-28 0 -45.5 -14.5t-20.5 -36.5z" />
    <glyph glyph-name="eacute" unicode="&#xe9;" horiz-adv-x="538" 
d="M294 713h188l-128 -161h-136zM230 190v-1q0 -23 29.5 -32.5t61.5 -9.5q83 0 150 29l15 -144q-89 -42 -225 -42q-234 0 -234 210q0 133 81.5 221t230.5 88q86 0 140.5 -44.5t54.5 -116.5q0 -161 -240 -161q-41 0 -64 3zM245 308q14 -1 37 -1q61 0 61 29q0 8 -8 15.5
t-24 7.5q-28 0 -45.5 -14.5t-20.5 -36.5z" />
    <glyph glyph-name="ecircumflex" unicode="&#xea;" horiz-adv-x="538" 
d="M324 623l-64 -71h-118l135 164h119l89 -164h-110l-48 71h-3zM230 190v-1q0 -23 29.5 -32.5t61.5 -9.5q83 0 150 29l15 -144q-89 -42 -225 -42q-234 0 -234 210q0 133 81.5 221t230.5 88q86 0 140.5 -44.5t54.5 -116.5q0 -161 -240 -161q-41 0 -64 3zM245 308q14 -1 37 -1
q61 0 61 29q0 8 -8 15.5t-24 7.5q-28 0 -45.5 -14.5t-20.5 -36.5z" />
    <glyph glyph-name="edieresis" unicode="&#xeb;" horiz-adv-x="538" 
d="M116 620q0 41 30 74.5t73 33.5q33 0 53.5 -22t20.5 -55q0 -39 -31 -72.5t-72 -33.5q-32 0 -53 22t-21 53zM339 620q0 41 30 74.5t73 33.5q33 0 53.5 -22t20.5 -55q0 -39 -31 -72.5t-72 -33.5q-32 0 -53 22t-21 53zM230 190v-1q0 -23 29.5 -32.5t61.5 -9.5q83 0 150 29
l15 -144q-89 -42 -225 -42q-234 0 -234 210q0 133 81.5 221t230.5 88q86 0 140.5 -44.5t54.5 -116.5q0 -161 -240 -161q-41 0 -64 3zM245 308q14 -1 37 -1q61 0 61 29q0 8 -8 15.5t-24 7.5q-28 0 -45.5 -14.5t-20.5 -36.5z" />
    <glyph glyph-name="igrave" unicode="&#xec;" horiz-adv-x="280" 
d="M2 0l85 496l209 3l-85 -499h-209zM202 713l57 -161h-135l-110 161h188z" />
    <glyph glyph-name="iacute" unicode="&#xed;" horiz-adv-x="280" 
d="M2 0l85 496l209 3l-85 -499h-209zM186 713h189l-128 -161h-137z" />
    <glyph glyph-name="icircumflex" unicode="&#xee;" horiz-adv-x="280" 
d="M2 0l85 496l209 3l-85 -499h-209zM198 623l-65 -71h-117l135 164h119l89 -164h-111l-47 71h-3z" />
    <glyph glyph-name="idieresis" unicode="&#xef;" horiz-adv-x="280" 
d="M2 0l85 496l209 3l-85 -499h-209zM12 620q0 41 30 74.5t73 33.5q33 0 53.5 -22t20.5 -55q0 -39 -31 -72.5t-72 -33.5q-32 0 -53 22t-21 53zM235 620q0 41 30 74.5t73 33.5q33 0 53.5 -22t20.5 -55q0 -39 -31 -72.5t-72 -33.5q-32 0 -53 22t-21 53z" />
    <glyph glyph-name="eth" unicode="&#xf0;" horiz-adv-x="582" 
d="M398 668l135 68l49 -86l-101 -53q45 -44 69.5 -115.5t24.5 -154.5q0 -144 -83.5 -240.5t-229.5 -96.5q-111 0 -175 54.5t-64 149.5q0 108 73.5 180.5t190.5 76.5q27 0 63 -8h1q-9 47 -30 71l-140 -68l-46 88l96 47q-61 26 -68 28l70 124q91 -22 165 -65zM350 309
q-7 1 -20.5 -1.5t-21.5 -2.5q-23 0 -39 -14.5t-22.5 -35t-9 -35t-2.5 -23.5q0 -25 12 -40t31 -15q39 0 60 33.5t19.5 70.5t-7.5 63z" />
    <glyph glyph-name="ntilde" unicode="&#xf1;" horiz-adv-x="581" 
d="M291 592q-14 0 -40 -40l-76 5q18 75 50 114t71 39q36 0 71.5 -20.5t45.5 -20.5q12 0 20.5 7.5t24.5 32.5l73 -10q-17 -75 -49 -110t-72 -35q-35 0 -73.5 19t-45.5 19zM442 508q72 0 104 -46t20 -119l-55 -343h-211l44 248q9 35 6 67t-27 32q-52 0 -73 -122l-39 -225h-209
l50 300q12 66 31 196l188 3l-6 -71h2q71 80 175 80z" />
    <glyph glyph-name="ograve" unicode="&#xf2;" 
d="M402 713l57 -161h-135l-110 161h188zM340 507q109 0 168 -56.5t59 -161.5q0 -129 -83 -214.5t-225 -85.5q-110 0 -170 55t-60 161q0 129 85 215.5t226 86.5zM319 353q-23 0 -39 -17t-23 -44t-9.5 -49t-2.5 -43q0 -31 8 -43t31 -12q21 0 35.5 18t21.5 45t9.5 49.5
t2.5 42.5q0 53 -34 53z" />
    <glyph glyph-name="oacute" unicode="&#xf3;" 
d="M276 713h189l-128 -161h-137zM340 507q109 0 168 -56.5t59 -161.5q0 -129 -83 -214.5t-225 -85.5q-110 0 -170 55t-60 161q0 129 85 215.5t226 86.5zM319 353q-23 0 -39 -17t-23 -44t-9.5 -49t-2.5 -43q0 -31 8 -43t31 -12q21 0 35.5 18t21.5 45t9.5 49.5t2.5 42.5
q0 53 -34 53z" />
    <glyph glyph-name="ocircumflex" unicode="&#xf4;" 
d="M354 623l-65 -71h-117l134 164h119l89 -164h-110l-48 71h-2zM340 507q109 0 168 -56.5t59 -161.5q0 -129 -83 -214.5t-225 -85.5q-110 0 -170 55t-60 161q0 129 85 215.5t226 86.5zM319 353q-23 0 -39 -17t-23 -44t-9.5 -49t-2.5 -43q0 -31 8 -43t31 -12q21 0 35.5 18
t21.5 45t9.5 49.5t2.5 42.5q0 53 -34 53z" />
    <glyph glyph-name="otilde" unicode="&#xf5;" 
d="M286 592q-15 0 -41 -40l-76 5q18 75 50 114t71 39q37 0 72 -20.5t45 -20.5q12 0 20.5 7.5t24.5 32.5l73 -10q-17 -75 -49 -110t-72 -35q-35 0 -73 19t-45 19zM340 507q109 0 168 -56.5t59 -161.5q0 -129 -83 -214.5t-225 -85.5q-110 0 -170 55t-60 161q0 129 85 215.5
t226 86.5zM319 353q-23 0 -39 -17t-23 -44t-9.5 -49t-2.5 -43q0 -31 8 -43t31 -12q21 0 35.5 18t21.5 45t9.5 49.5t2.5 42.5q0 53 -34 53z" />
    <glyph glyph-name="odieresis" unicode="&#xf6;" 
d="M158 620q0 41 30 74.5t73 33.5q33 0 53.5 -22t20.5 -55q0 -39 -31 -72.5t-72 -33.5q-32 0 -53 22t-21 53zM381 620q0 41 30 74.5t73 33.5q33 0 53.5 -21.5t20.5 -55.5q0 -39 -31 -72.5t-72 -33.5q-32 0 -53 22t-21 53zM340 507q109 0 168 -56.5t59 -161.5
q0 -129 -83 -214.5t-225 -85.5q-110 0 -170 55t-60 161q0 129 85 215.5t226 86.5zM319 353q-23 0 -39 -17t-23 -44t-9.5 -49t-2.5 -43q0 -31 8 -43t31 -12q21 0 35.5 18t21.5 45t9.5 49.5t2.5 42.5q0 53 -34 53z" />
    <glyph glyph-name="divide" unicode="&#xf7;" 
d="M56 337h499l-23 -139h-499zM232 439q0 41 32 74.5t77 33.5q35 0 57 -22t22 -55q0 -40 -33 -73.5t-77 -33.5q-34 0 -56 22t-22 54zM169 65q0 41 32.5 75t77.5 34q34 0 56.5 -22.5t22.5 -55.5q0 -40 -33 -73.5t-78 -33.5q-33 0 -55.5 22t-22.5 54z" />
    <glyph glyph-name="oslash" unicode="&#xf8;" 
d="M340 507q54 0 98 -15l55 72l56 -41l-50 -65q68 -57 68 -169q0 -129 -83 -214.5t-225 -85.5q-60 0 -108 17l-67 -87l-54 41l62 81q-63 55 -63 164q0 129 85 215.5t226 86.5zM284 145q31 0 47 37t20 84l-90 -117q8 -4 23 -4zM319 353q-59 0 -72 -109l83 107q-6 2 -11 2z
" />
    <glyph glyph-name="ugrave" unicode="&#xf9;" horiz-adv-x="582" 
d="M417 713l57 -161h-135l-110 161h188zM341 104h-2q-63 -114 -185 -114q-152 0 -114 222l49 284h209l-42 -243q-18 -103 19 -103q23 0 46 38.5t36 117.5l31 190h209l-33 -196q-12 -66 -19.5 -120.5t-10 -80.5t-4.5 -57.5t-3 -41.5h-197z" />
    <glyph glyph-name="uacute" unicode="&#xfa;" horiz-adv-x="582" 
d="M316 713h189l-128 -161h-137zM341 104h-2q-63 -114 -185 -114q-152 0 -114 222l49 284h209l-42 -243q-18 -103 19 -103q23 0 46 38.5t36 117.5l31 190h209l-33 -196q-12 -66 -19.5 -120.5t-10 -80.5t-4.5 -57.5t-3 -41.5h-197z" />
    <glyph glyph-name="ucircumflex" unicode="&#xfb;" horiz-adv-x="582" 
d="M360 623l-65 -71h-117l134 164h120l88 -164h-110l-48 71h-2zM341 104h-2q-63 -114 -185 -114q-152 0 -114 222l49 284h209l-42 -243q-18 -103 19 -103q23 0 46 38.5t36 117.5l31 190h209l-33 -196q-12 -66 -19.5 -120.5t-10 -80.5t-4.5 -57.5t-3 -41.5h-197z" />
    <glyph glyph-name="udieresis" unicode="&#xfc;" horiz-adv-x="582" 
d="M163 620q0 41 30 74.5t73 33.5q33 0 53.5 -21.5t20.5 -55.5q0 -39 -31 -72.5t-72 -33.5q-32 0 -53 22t-21 53zM387 620q0 41 30 74.5t73 33.5q33 0 53 -22t20 -55q0 -39 -30.5 -72.5t-72.5 -33.5q-32 0 -52.5 22t-20.5 53zM341 104h-2q-63 -114 -185 -114
q-152 0 -114 222l49 284h209l-42 -243q-18 -103 19 -103q23 0 46 38.5t36 117.5l31 190h209l-33 -196q-12 -66 -19.5 -120.5t-10 -80.5t-4.5 -57.5t-3 -41.5h-197z" />
    <glyph glyph-name="yacute" unicode="&#xfd;" horiz-adv-x="548" 
d="M271 713h189l-128 -161h-137zM37 496h207l21 -230l8 -101h6l65 160q48 117 35 171h182q17 -36 8.5 -101.5t-42.5 -115.5l-221 -320q8 -107 -56.5 -151.5t-237.5 -44.5v175q86 0 98 9q7 5 6 17z" />
    <glyph glyph-name="thorn" unicode="&#xfe;" horiz-adv-x="581" 
d="M323 344q-53 0 -72 -127l-10 -54q18 -20 42 -20q30 0 50 44t20 109q0 48 -30 48zM289 438h2q13 28 44.5 49t72.5 21q81 0 123 -55.5t41 -144.5q0 -129 -74.5 -223.5t-192.5 -94.5q-60 0 -85 35h-2l-42 -244h-207l155 931l210 3z" />
    <glyph glyph-name="ydieresis" unicode="&#xff;" horiz-adv-x="548" 
d="M141 620q0 41 30 74.5t73 33.5q33 0 53.5 -22t20.5 -55q0 -39 -31 -72.5t-73 -33.5q-31 0 -52 22t-21 53zM364 620q0 41 30 74.5t73 33.5q33 0 53.5 -22t20.5 -55q0 -39 -31 -72.5t-72 -33.5q-32 0 -53 22t-21 53zM37 496h207l21 -230l8 -101h6l65 160q48 117 35 171h182
q17 -36 8.5 -101.5t-42.5 -115.5l-221 -320q8 -107 -56.5 -151.5t-237.5 -44.5v175q86 0 98 9q7 5 6 17z" />
    <glyph glyph-name="OE" unicode="&#x152;" horiz-adv-x="953" 
d="M997 683l-40 -177h-244l-13 -72h231l-41 -176h-220l-13 -82h266l-39 -176h-466v7q-43 -17 -89 -17q-134 0 -208 79.5t-74 208.5q0 108 43 201.5t131 153.5t205 60q63 0 108 -16v6h463zM358 162q61 0 99 74l35 199q-11 85 -90 85q-65 0 -101 -73t-36 -180q0 -105 93 -105z
" />
    <glyph glyph-name="oe" unicode="&#x153;" horiz-adv-x="851" 
d="M543 190v-1q0 -23 29.5 -32.5t61.5 -9.5q83 0 150 29l15 -144q-89 -42 -225 -42q-99 0 -154 39q-66 -40 -161 -40q-110 0 -170 55t-60 161q0 129 85 215.5t226 86.5q91 0 143 -40q71 42 169 42q86 0 140.5 -44.5t54.5 -116.5q0 -161 -240 -161q-41 0 -64 3zM319 353
q-23 0 -39 -17t-23 -44t-9.5 -49t-2.5 -43q0 -31 8 -43t31 -12q21 0 35.5 18t21.5 45t9.5 49.5t2.5 42.5q0 53 -34 53zM558 308q14 -1 37 -1q61 0 61 29q0 8 -8 15.5t-24 7.5q-28 0 -45.5 -14.5t-20.5 -36.5z" />
    <glyph glyph-name="Ydieresis" unicode="&#x178;" horiz-adv-x="589" 
d="M195 813q0 41 30 74.5t73 33.5q33 0 53.5 -22t20.5 -55q0 -39 -31 -72.5t-72 -33.5q-32 0 -53 22t-21 53zM418 813q0 41 30 74.5t73 33.5q33 0 53.5 -21.5t20.5 -55.5q0 -39 -30.5 -72.5t-72.5 -33.5q-32 0 -53 22t-21 53zM317 402h2l57 145l57 136h249l-286 -432
l-42 -251h-210l43 245l-130 438h230l15 -136z" />
    <glyph glyph-name="tilde" unicode="&#x2dc;" horiz-adv-x="432" 
d="M310 592q-15 0 -41 -40l-76 5q18 75 50 114t71 39q37 0 72.5 -20.5t44.5 -20.5q12 0 21 7.5t24 32.5l74 -10q-35 -145 -121 -145q-36 0 -74 19t-45 19z" />
    <glyph glyph-name="endash" unicode="&#x2013;" horiz-adv-x="538" 
d="M60 329h467l-24 -139h-468z" />
    <glyph glyph-name="emdash" unicode="&#x2014;" horiz-adv-x="951" 
d="M60 329h880l-25 -139h-880z" />
    <glyph glyph-name="quoteleft" unicode="&#x2018;" horiz-adv-x="305" 
d="M238 725l119 -26q-44 -71 -68 -141t-46 -172l-165 23q59 180 160 316z" />
    <glyph glyph-name="quoteright" unicode="&#x2019;" horiz-adv-x="301" 
d="M205 394l-120 26q74 120 114 314l166 -24q-58 -176 -160 -316z" />
    <glyph glyph-name="quotedblleft" unicode="&#x201c;" horiz-adv-x="540" 
d="M239 725l120 -26q-44 -72 -68.5 -142t-45.5 -171l-166 23q58 176 160 316zM475 725l120 -26q-44 -72 -68.5 -143t-45.5 -170l-166 23q58 176 160 316z" />
    <glyph glyph-name="quotedblright" unicode="&#x201d;" horiz-adv-x="536" 
d="M201 394l-120 26q74 120 114 314l166 -24q-58 -176 -160 -316zM437 394l-120 26q45 72 69 142t45 172l166 -24q-58 -176 -160 -316z" />
    <glyph glyph-name="quotedblbase" unicode="&#x201e;" horiz-adv-x="540" 
d="M342 -120l-119 26q44 71 68 141.5t46 172.5l165 -23q-58 -178 -160 -317zM106 -120l-120 26q45 72 69 142t45 172l166 -23q-56 -173 -160 -317z" />
    <glyph glyph-name="bullet" unicode="&#x2022;" horiz-adv-x="357" 
d="M48 254q0 59 41.5 100.5t100.5 41.5q61 0 103.5 -41.5t42.5 -100.5q0 -61 -42.5 -103t-103.5 -42q-59 0 -100.5 42t-41.5 103z" />
    <glyph glyph-name="ellipsis" unicode="&#x2026;" horiz-adv-x="990" 
d="M34 85q0 55 40 99t98 44q44 0 71 -27.5t27 -71.5q0 -54 -41 -98t-97 -44q-43 0 -70.5 28t-27.5 70zM355 85q0 55 40.5 99t97.5 44q45 0 71.5 -27.5t26.5 -71.5q0 -53 -41 -97.5t-96 -44.5q-44 0 -71.5 28t-27.5 70zM677 85q0 55 40.5 99t97.5 44q45 0 71.5 -27.5
t26.5 -71.5q0 -53 -41 -97.5t-96 -44.5q-44 0 -71.5 28t-27.5 70z" />
    <glyph glyph-name="guilsinglleft" unicode="&#x2039;" horiz-adv-x="347" 
d="M293 359l-111 -112l75 -114l-98 -64l-119 188l179 187z" />
    <glyph glyph-name="guilsinglright" unicode="&#x203a;" horiz-adv-x="361" 
d="M67 154l111 112l-75 114l99 64l119 -188l-180 -187z" />
    <glyph glyph-name="Euro" unicode="&#x20ac;" horiz-adv-x="611" 
d="M323 317h190l-28 -106h-159q7 -18 18.5 -29t29.5 -15t28 -4.5t34 -0.5q79 0 141 23l2 -166q-73 -29 -185 -29q-128 0 -201.5 57t-85.5 164h-78l27 106h54l6 37l-1 -1h-60l27 104h63q44 106 139 163t230 57q94 0 160 -29l-48 -165q-71 20 -120 20q-35 0 -55.5 -2
t-44.5 -12.5t-39 -31.5h173l-30 -104h-181q-2 -7 -3.5 -19.5t-2.5 -16.5z" />
    <glyph glyph-name="trademark" unicode="&#x2122;" horiz-adv-x="754" 
d="M190 590h-70l23 93h252l-23 -93h-64l-33 -198h-118zM631 395h-114l2 188h-3l-12 -81l-19 -110h-111l56 291h167v-107l-2 -43h2l12 43l35 107h169l-42 -291h-111l17 110l17 81h-3z" />
    <glyph glyph-name="thinspace" horiz-adv-x="120" 
 />
    </font>
</defs>
</svg>
