<?xml version="1.0" standalone="no"?>
<!DOCTYPE svg PUBLIC "-//W3C//DTD SVG 1.1//EN" "http://www.w3.org/Graphics/SVG/1.1/DTD/svg11.dtd" >
<svg>
<metadata>
Created by FontForge 20120731 at Thu Jun 18 08:54:05 2015
 By ,,,
Copyright (c) 2011 by Neil Summerour and Positype. All rights reserved.
</metadata>
<defs>
<font id="AkagiPro-ExtraLightItalic" horiz-adv-x="632" >
  <font-face 
    font-family="0cbc85e540e3e411cbd9ac2a63c82e41c7e8b10e8c64538161b4d004b89c8d7b"
    font-weight="300"
    font-style="italic"
    font-stretch="normal"
    units-per-em="1000"
    panose-1="2 0 5 6 0 0 0 2 0 4"
    ascent="750"
    descent="-250"
    x-height="486"
    cap-height="683"
    bbox="-101 -241 917 884"
    underline-thickness="50"
    underline-position="-50"
    slope="-9.5"
    unicode-range="U+0020-2122"
  />
<missing-glyph horiz-adv-x="531" 
 />
    <glyph glyph-name=".notdef" horiz-adv-x="531" 
 />
    <glyph glyph-name=".null" horiz-adv-x="0" 
 />
    <glyph glyph-name="nonmarkingreturn" horiz-adv-x="333" 
 />
    <glyph glyph-name="space" unicode=" " horiz-adv-x="197" 
 />
    <glyph glyph-name="space" unicode="&#xa0;" horiz-adv-x="197" 
 />
    <glyph glyph-name="exclam" unicode="!" horiz-adv-x="228" 
d="M226 704l-94 -525h-36l81 525h49zM52 22q0 19 12.5 34.5t32.5 15.5q15 0 23 -9t8 -23q0 -19 -12 -34.5t-33 -15.5q-15 0 -23 9t-8 23z" />
    <glyph glyph-name="quotedbl" unicode="&#x22;" horiz-adv-x="295" 
d="M156 716h50l-48 -208h-27zM281 716h50l-47 -208h-28z" />
    <glyph glyph-name="numbersign" unicode="#" horiz-adv-x="526" 
d="M456 596l-46 -172h93l-6 -32h-95l-43 -170h97l-5 -32h-100l-47 -175h-35l48 175h-118l-48 -175h-35l48 175h-92l4 32h96l42 170h-96l5 32h99l48 172h33l-46 -172h118l48 172h33zM249 392l-42 -170h117l44 170h-119z" />
    <glyph glyph-name="dollar" unicode="$" horiz-adv-x="467" 
d="M354 761l-18 -100q64 -3 113 -31l-12 -31q-65 30 -120 30q-63 0 -102 -38.5t-39 -98.5q0 -39 23 -67.5t55.5 -47t64.5 -38.5t55 -55t23 -83q0 -79 -50 -130.5t-126 -60.5l-18 -100h-35l17 99q-66 0 -128 35l11 33q65 -36 132 -36t112.5 41.5t44.5 110.5q0 43 -23 73.5
t-55 50t-64.5 39.5t-55.5 53.5t-23 80.5q0 68 49 116.5t116 54.5l17 100h36z" />
    <glyph glyph-name="percent" unicode="%" horiz-adv-x="797" 
d="M469 123q0 52 17 104.5t57.5 92.5t95.5 40q52 0 79 -38t27 -89q0 -100 -46.5 -169.5t-120.5 -69.5q-51 0 -80 36t-29 93zM631 329q-41 0 -70.5 -38.5t-40.5 -83.5t-11 -86q0 -95 68 -95q58 0 93.5 59.5t35.5 150.5q0 39 -17.5 66t-57.5 27zM110 441q0 52 17 104t57 92.5
t95 40.5t80.5 -40t25.5 -95q0 -95 -47.5 -164t-118.5 -69q-51 0 -80 36.5t-29 94.5zM271 647q-31 0 -56 -22t-39 -55.5t-21 -67.5t-7 -63q0 -96 73 -96q52 0 88.5 58t36.5 138q0 108 -75 108zM637 675h39l-456 -683h-40z" />
    <glyph glyph-name="ampersand" unicode="&#x26;" horiz-adv-x="574" 
d="M171 526q0 69 48 118t114 49q56 0 85.5 -32t29.5 -81q0 -127 -179 -212v-1q61 -98 157 -239q66 84 104 234h37q-45 -173 -123 -261q65 -89 71 -96l-27 -23q-40 50 -70 91q-88 -83 -208 -83q-77 0 -123 45.5t-46 112.5q0 71 47 130t128 101q-45 77 -45 147zM233 352
q-149 -82 -149 -198q0 -58 36 -95t96 -37q107 0 184 77q-11 17 -71.5 107t-95.5 146zM252 395q31 16 53 30t49 36.5t41.5 51.5t14.5 63q0 35 -19.5 59t-60.5 24q-50 0 -85 -37t-35 -88q0 -70 42 -139z" />
    <glyph glyph-name="quotesingle" unicode="'" horiz-adv-x="182" 
d="M161 716h50l-46 -208h-29z" />
    <glyph glyph-name="parenleft" unicode="(" horiz-adv-x="283" 
d="M353 749q-230 -273 -230 -594q0 -171 71 -325h-30q-83 154 -83 332q0 167 67 317t168 270h37z" />
    <glyph glyph-name="parenright" unicode=")" horiz-adv-x="283" 
d="M-25 -170q228 275 228 591q0 173 -71 328h31q82 -153 82 -334q0 -167 -67 -316t-168 -269h-35z" />
    <glyph glyph-name="asterisk" unicode="*" horiz-adv-x="405" 
d="M232 533l1 4l-102 52q9 18 31 42l88 -69l5 2l10 122q25 3 49 0l-30 -122l3 -2l112 68q12 -18 17 -42l-118 -52l-1 -3l100 -53q-8 -17 -29 -42l-89 70l-5 -2l-10 -122q-24 -5 -49 0l30 122h-3l-111 -68q-10 15 -19 42z" />
    <glyph glyph-name="plus" unicode="+" horiz-adv-x="583" 
d="M373 502l-36 -217h211l-6 -34h-211l-37 -219h-36l37 219h-212l6 34h212l36 217h36z" />
    <glyph glyph-name="comma" unicode="," horiz-adv-x="207" 
d="M35 -133l-24 9q53 89 78 208l50 -7q-17 -54 -47.5 -114t-56.5 -96z" />
    <glyph glyph-name="hyphen" unicode="-" horiz-adv-x="388" 
d="M82 292h270l-6 -35h-269z" />
    <glyph glyph-name="hyphen" unicode="&#xad;" horiz-adv-x="388" 
d="M82 292h270l-6 -35h-269z" />
    <glyph glyph-name="period" unicode="." horiz-adv-x="205" 
d="M52 22q0 19 12 34.5t32 15.5q15 0 23.5 -9t8.5 -23q0 -19 -12.5 -34.5t-32.5 -15.5q-15 0 -23 9t-8 23z" />
    <glyph glyph-name="slash" unicode="/" horiz-adv-x="370" 
d="M402 690h40l-422 -716h-39z" />
    <glyph glyph-name="zero" unicode="0" horiz-adv-x="505" 
d="M337 627q-70 0 -122.5 -65t-77 -158t-27.5 -200q0 -38 5 -67.5t17.5 -57t38 -42t62.5 -14.5q56 0 100 41.5t69 108.5t38 137.5t16 143.5q0 173 -119 173zM341 660q153 0 153 -204q0 -120 -30.5 -224.5t-92.5 -173t-144 -68.5q-154 0 -157 206q0 121 32.5 226t95.5 171.5
t143 66.5z" />
    <glyph glyph-name="one" unicode="1" horiz-adv-x="416" 
d="M290 611l-115 -61l-11 32l135 71h37l-112 -653h-38l106 611h-2z" />
    <glyph glyph-name="two" unicode="2" horiz-adv-x="481" 
d="M308 626q-61 0 -143 -46l-8 31q73 49 156 49q55 0 90 -25t46.5 -57t11.5 -70q0 -49 -24 -102t-58 -96.5t-91 -97.5t-101.5 -90t-111.5 -88v-1h325l-11 -33h-366l5 33q67 54 105 86t91 79.5t82.5 81t59 74t42 78t12.5 74.5q0 48 -25.5 84t-86.5 36z" />
    <glyph glyph-name="three" unicode="3" horiz-adv-x="481" 
d="M177 23q91 0 141 54t50 126q0 66 -45 98t-108 32h-43l9 34h38q40 0 80 16t72 54t32 91q0 47 -28.5 72.5t-78.5 25.5q-69 0 -132 -36l-9 31q71 39 147 39q71 0 106.5 -37.5t35.5 -90.5q0 -64 -41.5 -113t-101.5 -67v-2q51 -13 79.5 -52.5t28.5 -91.5q0 -93 -64.5 -154.5
t-172.5 -61.5q-84 0 -136 35l12 31q72 -33 129 -33z" />
    <glyph glyph-name="four" unicode="4" horiz-adv-x="488" 
d="M85 226h247l47 266l18 103l-3 1l-86 -104l-223 -264v-2zM407 653h36l-74 -427h94l-10 -33h-91l-33 -193h-36l33 193h-295l6 27z" />
    <glyph glyph-name="five" unicode="5" horiz-adv-x="481" 
d="M224 615l-59 -221q27 4 52 4q83 0 137.5 -42.5t54.5 -120.5q0 -109 -70.5 -177t-173.5 -68q-74 0 -132 31l12 32q62 -30 130 -30q85 0 139.5 61t54.5 145q0 134 -167 134q-36 0 -78 -3l-1 1l76 289h275l-5 -35h-245z" />
    <glyph glyph-name="six" unicode="6" horiz-adv-x="498" 
d="M304 422q75 0 114 -48t39 -123q0 -103 -66 -182t-162 -79q-82 0 -123 55.5t-41 150.5q0 113 50 218.5t146 176.5t215 73l-5 -34q-113 0 -212 -80.5t-139 -222.5h2q34 43 84.5 69t97.5 26zM109 260q-7 -29 -7 -72q0 -75 36 -120t99 -45q72 0 127 65.5t55 153.5
q0 70 -32 107.5t-92 37.5q-54 0 -106 -37t-80 -90z" />
    <glyph glyph-name="seven" unicode="7" horiz-adv-x="455" 
d="M451 616h-316l5 34h356l-5 -31l-379 -619h-40l338 547l41 67v2z" />
    <glyph glyph-name="eight" unicode="8" horiz-adv-x="502" 
d="M332 661q70 0 111.5 -40.5t38.5 -105.5q-6 -111 -139 -171v-2q114 -58 109 -164q-4 -85 -68 -137t-149 -52t-133.5 45.5t-45.5 119.5q7 133 164 195v3q-89 52 -84 136q4 74 59.5 123.5t136.5 49.5zM236 24q73 0 122.5 40.5t52.5 107.5q7 114 -145 160q-70 -20 -118.5 -64
t-51.5 -112q-2 -56 34.5 -94t105.5 -38zM323 626q-62 0 -103.5 -38t-45.5 -96q-5 -96 124 -132q60 18 100.5 57.5t43.5 91.5q2 50 -26.5 83.5t-92.5 33.5z" />
    <glyph glyph-name="nine" unicode="9" horiz-adv-x="498" 
d="M256 233q-72 0 -110.5 47t-38.5 115q0 104 66 184.5t162 80.5q77 0 115.5 -52.5t40.5 -134.5q-2 -88 -28.5 -171.5t-75 -153t-127.5 -114t-176 -48.5l4 33q33 0 68 8t76.5 29t78 53t70.5 86t55 122h-3q-78 -84 -177 -84zM446 383q8 50 8 83q0 74 -32.5 117t-93.5 43
q-74 0 -128.5 -64t-54.5 -153q0 -62 30.5 -101.5t90.5 -39.5q50 0 99 32.5t81 82.5z" />
    <glyph glyph-name="colon" unicode=":" horiz-adv-x="196" 
d="M52 22q0 19 12 34.5t32 15.5q15 0 23.5 -9t8.5 -23q0 -19 -12.5 -34.5t-32.5 -15.5q-15 0 -23 9t-8 23zM114 389q0 18 12.5 33.5t32.5 15.5q15 0 23.5 -9t8.5 -23q0 -19 -12.5 -34.5t-32.5 -15.5q-15 0 -23.5 9t-8.5 24z" />
    <glyph glyph-name="semicolon" unicode=";" horiz-adv-x="208" 
d="M33 -133l-22 9q51 87 76 208l51 -7q-18 -55 -48.5 -115.5t-56.5 -94.5zM127 389q0 18 12.5 33.5t32.5 15.5q15 0 23 -9t8 -23q0 -19 -12 -34.5t-33 -15.5q-14 0 -22.5 9.5t-8.5 23.5z" />
    <glyph glyph-name="less" unicode="&#x3c;" horiz-adv-x="541" 
d="M460 24l-379 232l3 28l458 232l-7 -41l-409 -205l-1 -2l341 -205z" />
    <glyph glyph-name="equal" unicode="=" horiz-adv-x="583" 
d="M71 194h458l-5 -34h-458zM101 380h459l-5 -35h-459z" />
    <glyph glyph-name="greater" unicode="&#x3e;" horiz-adv-x="541" 
d="M122 516l379 -232l-3 -28l-458 -232l7 41l409 205l1 2l-341 204z" />
    <glyph glyph-name="question" unicode="?" horiz-adv-x="373" 
d="M168 659l3 33q28 4 39 4q85 0 125.5 -37.5t40.5 -96.5q0 -40 -18.5 -77.5t-46 -68t-56 -60t-52 -67t-30.5 -77.5q-3 -20 -3 -35h-38v0v1v1v1v1v2v9q-1 42 20 83t50.5 74t59.5 65t51 68.5t21 71.5q0 49 -37 78t-103 29q-8 0 -26 -2zM89 22q0 19 12.5 34.5t32.5 15.5
q14 0 22.5 -9t8.5 -23q0 -19 -12.5 -34.5t-32.5 -15.5q-15 0 -23 9t-8 23z" />
    <glyph glyph-name="at" unicode="@" horiz-adv-x="786" 
d="M495 166h-2q-37 -59 -82.5 -95t-90.5 -36q-42 0 -66 26.5t-24 69.5q0 59 37.5 127.5t101 117.5t127.5 49q65 0 99 -29q-6 -19 -17 -52t-21 -61.5t-20.5 -62t-15 -60t-4.5 -48.5t10 -34.5t30 -12.5q52 0 92 50.5t57.5 111.5t17.5 114q0 99 -57.5 157t-168.5 58
q-160 0 -277.5 -128t-117.5 -293q0 -108 61.5 -175.5t165.5 -67.5q68 0 121 22l3 -34q-60 -25 -131 -25q-110 0 -186 75t-76 196q0 118 56.5 224t160 173t229.5 67q119 0 188.5 -67t69.5 -178q0 -57 -24 -126t-75.5 -124.5t-113.5 -55.5q-85 0 -57 127zM529 279l35 105
q-24 11 -61 11q-90 0 -163.5 -84t-73.5 -178q0 -69 64 -69q50 0 110 66t89 149z" />
    <glyph glyph-name="A" unicode="A" horiz-adv-x="537" 
d="M378 684l109 -684h-37l-37 241h-259l-120 -241h-38l347 684h35zM354 630h-3l-52 -110l-125 -246h232l-38 246z" />
    <glyph glyph-name="B" unicode="B" horiz-adv-x="501" 
d="M271 342h-116l-53 -308q38 -3 76 -3q238 0 238 179q0 60 -40 96t-105 36zM314 652q-68 0 -105 -4l-48 -273h84q86 0 145 40t59 126q0 111 -135 111zM60 2l116 675q83 9 147 9q82 0 124 -38t42 -104t-39 -117t-103 -68v-2q47 -13 78 -51.5t31 -95.5q0 -112 -77.5 -162.5
t-199.5 -50.5q-61 0 -119 5z" />
    <glyph glyph-name="B" unicode="&#xe000;" horiz-adv-x="501" 
d="M271 342h-116l-53 -308q38 -3 76 -3q238 0 238 179q0 60 -40 96t-105 36zM314 652q-68 0 -105 -4l-48 -273h84q86 0 145 40t59 126q0 111 -135 111zM60 2l116 675q83 9 147 9q82 0 124 -38t42 -104t-39 -117t-103 -68v-2q47 -13 78 -51.5t31 -95.5q0 -112 -77.5 -162.5
t-199.5 -50.5q-61 0 -119 5z" />
    <glyph glyph-name="C" unicode="C" horiz-adv-x="534" 
d="M418 660q-94 0 -166 -59.5t-107.5 -147.5t-35.5 -184q0 -108 48.5 -177t157.5 -69q96 0 163 33l4 -34q-76 -32 -170 -32q-118 0 -181 74t-63 199q0 112 41.5 208t127.5 158.5t201 62.5q96 0 141 -32l-12 -32q-58 32 -149 32z" />
    <glyph glyph-name="D" unicode="D" horiz-adv-x="613" 
d="M60 0l116 677q76 9 160 9q132 0 200 -66t68 -197q0 -118 -43 -213t-132.5 -154t-211.5 -59q-28 0 -88 1.5t-69 1.5zM333 653q-69 0 -126 -6l-105 -614q34 -3 93 -3q174 -3 271.5 103.5t97.5 278.5q0 108 -54 174.5t-177 66.5z" />
    <glyph glyph-name="E" unicode="E" horiz-adv-x="457" 
d="M493 683l-10 -33h-274l-48 -277h254l-9 -33h-251l-53 -307h292l-9 -33h-326l118 683h316z" />
    <glyph glyph-name="E" unicode="&#xe001;" horiz-adv-x="457" 
d="M493 683l-10 -33h-274l-48 -277h254l-9 -33h-251l-53 -307h292l-9 -33h-326l118 683h316z" />
    <glyph glyph-name="F" unicode="F" horiz-adv-x="444" 
d="M493 683l-9 -33h-275l-50 -287h249l-9 -33h-246l-57 -330h-37l118 683h316z" />
    <glyph glyph-name="G" unicode="G" horiz-adv-x="578" 
d="M348 285l9 34h188l-51 -294q-72 -33 -170 -33q-121 0 -188.5 75t-67.5 200q0 109 43 204.5t128.5 157.5t195.5 62q89 0 149 -32l-11 -32q-66 30 -150 30q-92 0 -166 -58t-111.5 -146t-37.5 -184q2 -111 55.5 -177.5t168.5 -66.5q71 0 129 21l41 239h-154z" />
    <glyph glyph-name="H" unicode="H" horiz-adv-x="600" 
d="M155 341l-59 -341h-37l118 683h37l-53 -309h352l53 309h37l-118 -683h-38l59 341h-351z" />
    <glyph glyph-name="I" unicode="I" horiz-adv-x="212" 
d="M215 683l-119 -683h-37l118 683h38z" />
    <glyph glyph-name="J" unicode="J" horiz-adv-x="208" 
d="M94 184l84 499h38l-85 -500q-11 -73 -24 -120t-38 -88t-66 -62.5t-101 -28.5v33q95 9 133 68t59 199z" />
    <glyph glyph-name="K" unicode="K" horiz-adv-x="489" 
d="M214 683l-59 -341l76 43l281 298h47l-289 -309l186 -374h-44l-173 348l-92 -52l-51 -296h-37l118 683h37z" />
    <glyph glyph-name="L" unicode="L" horiz-adv-x="429" 
d="M177 683h37l-112 -650h289l-11 -33h-321z" />
    <glyph glyph-name="M" unicode="M" horiz-adv-x="745" 
d="M358 0h-32l-105 630h-3l-42 -207l-91 -423h-38l150 683h48l85 -498l20 -127h3l64 124l263 501h49l-86 -683h-38q34 269 56 423l28 207h-3z" />
    <glyph glyph-name="N" unicode="N" horiz-adv-x="607" 
d="M493 0h-40q-23 60 -115 285.5t-135 346.5h-3l-104 -632h-37l118 683h40q224 -551 250 -634h2l104 634h37z" />
    <glyph glyph-name="O" unicode="O" 
d="M390 660q-69 0 -125 -37.5t-89 -97t-50 -127.5t-17 -135q0 -105 45 -173t147 -68q68 0 123.5 36.5t89.5 95t52 128.5t18 141q0 237 -194 237zM396 693q61 0 106.5 -22t71 -60.5t37.5 -85t12 -102.5t-11 -114t-36.5 -116t-62 -102.5t-93 -72.5t-124.5 -28
q-115 0 -170.5 75t-55.5 192q0 56 11 114.5t37 116.5t62.5 103.5t92.5 73.5t123 28z" />
    <glyph glyph-name="P" unicode="P" horiz-adv-x="495" 
d="M254 298q-61 0 -106 5l-52 -303h-37l117 677q68 9 128 9q97 0 148 -39t51 -115q0 -111 -71.5 -172.5t-177.5 -61.5zM208 647l-27 -155l-27 -155q36 -5 76 -5q112 0 172.5 49.5t60.5 144.5q0 68 -41.5 97.5t-131.5 29.5q-42 0 -82 -6z" />
    <glyph glyph-name="Q" unicode="Q" 
d="M390 660q-69 0 -125 -37.5t-89 -97t-50 -127.5t-17 -135q0 -103 45 -166.5t148 -63.5q68 0 123.5 34.5t89 91.5t51.5 125t18 139q0 237 -194 237zM432 35v-2h197l-10 -33h-322q-113 0 -170 71.5t-57 185.5q0 56 11 114.5t37 116.5t62.5 103.5t92.5 73.5t123 28
q61 0 106.5 -22t71 -60.5t37.5 -85t12 -102.5q0 -116 -48.5 -225.5t-142.5 -162.5z" />
    <glyph glyph-name="R" unicode="R" horiz-adv-x="499" 
d="M496 535q0 -80 -48.5 -137t-131.5 -72v-2l124 -324h-40l-122 318h-127l-55 -318h-37l117 677q72 9 152 9q84 0 126 -42t42 -109zM209 647l-52 -295h83q106 0 161 48t55 135q0 64 -40 90.5t-127 26.5q-47 0 -80 -5z" />
    <glyph glyph-name="S" unicode="S" horiz-adv-x="451" 
d="M192 23q72 0 122 44.5t50 121.5q0 45 -25 78.5t-61 55.5t-71.5 44.5t-60.5 57.5t-25 82q0 83 59.5 134.5t141.5 51.5q78 0 134 -34l-11 -31q-66 32 -131 32q-66 0 -109.5 -43t-43.5 -104q0 -42 25 -73.5t60.5 -53t70.5 -44.5t60 -61t25 -89q0 -84 -58.5 -143t-160.5 -59
q-90 0 -147 40l12 31q68 -38 144 -38z" />
    <glyph glyph-name="S" unicode="&#xe002;" horiz-adv-x="451" 
d="M192 23q72 0 122 44.5t50 121.5q0 45 -25 78.5t-61 55.5t-71.5 44.5t-60.5 57.5t-25 82q0 83 59.5 134.5t141.5 51.5q78 0 134 -34l-11 -31q-66 32 -131 32q-66 0 -109.5 -43t-43.5 -104q0 -42 25 -73.5t60.5 -53t70.5 -44.5t60 -61t25 -89q0 -84 -58.5 -143t-160.5 -59
q-90 0 -147 40l12 31q68 -38 144 -38z" />
    <glyph glyph-name="T" unicode="T" horiz-adv-x="445" 
d="M287 650h-202l9 33h436l-9 -33h-198l-111 -650h-38z" />
    <glyph glyph-name="U" unicode="U" horiz-adv-x="594" 
d="M270 -10q-80 0 -128.5 44.5t-48.5 136.5q0 41 11 113l69 399h39l-76 -437q-40 -223 141 -223q172 0 211 222l76 438h37l-76 -443q-23 -130 -91 -190t-164 -60z" />
    <glyph glyph-name="V" unicode="V" horiz-adv-x="506" 
d="M580 683l-344 -683h-37l-97 683h39l69 -513l16 -121h3l59 121l251 513h41z" />
    <glyph glyph-name="W" unicode="W" horiz-adv-x="794" 
d="M858 683l-303 -683h-40l-28 503l-7 136h-3l-54 -136l-220 -503h-40l-51 683h38l39 -627h3l55 130l219 497h41l34 -497l4 -130h2l272 627h39z" />
    <glyph glyph-name="X" unicode="X" horiz-adv-x="506" 
d="M189 195l-142 -195h-46l265 348l-137 335h42l82 -212l37 -92h2l66 87l164 217h44l-260 -334l144 -349h-41l-79 196l-48 121h-2z" />
    <glyph glyph-name="Y" unicode="Y" horiz-adv-x="487" 
d="M264 317h3l63 97l179 269h43l-276 -402l-48 -281h-36l48 281l-133 402h41l85 -269z" />
    <glyph glyph-name="Z" unicode="Z" horiz-adv-x="493" 
d="M543 683l-5 -31l-481 -617v-2h380l-9 -33h-424l5 29l482 619v2h-346l10 33h388z" />
    <glyph glyph-name="bracketleft" unicode="[" horiz-adv-x="283" 
d="M202 -159h-158l153 908h163l-11 -34h-121l-141 -840h125z" />
    <glyph glyph-name="backslash" unicode="\" horiz-adv-x="367" 
d="M100 690h38l196 -716h-40z" />
    <glyph glyph-name="bracketright" unicode="]" horiz-adv-x="283" 
d="M132 -158h-162l9 34h122l142 838h-125l9 35h159z" />
    <glyph glyph-name="asciicircum" unicode="^" horiz-adv-x="566" 
d="M342 620l-219 -319h-36l251 375h31l116 -375h-35l-107 319h-1z" />
    <glyph glyph-name="underscore" unicode="_" horiz-adv-x="538" 
d="M4 -67h467l-7 -43h-468z" />
    <glyph glyph-name="grave" unicode="`" horiz-adv-x="369" 
d="M314 688l61 -146h-28l-96 146h63z" />
    <glyph glyph-name="a" unicode="a" horiz-adv-x="509" 
d="M479 489l-33 -189q-33 -202 -37 -300h-37l19 159h-2q-37 -78 -89 -123.5t-110 -45.5q-62 0 -98 43.5t-36 113.5q0 80 34 158.5t101 133t148 54.5q58 0 98 -25h2l13 18zM411 305l21 129q-32 25 -83 25q-105 0 -180.5 -92t-75.5 -216q0 -56 24 -92t79 -36q66 0 131 86.5
t84 195.5z" />
    <glyph glyph-name="b" unicode="b" horiz-adv-x="508" 
d="M98 269l81 458l37 4l-64 -363h2q32 61 80 94.5t103 33.5q73 0 108.5 -50t35.5 -127q0 -128 -74 -228.5t-193 -100.5q-77 0 -128 45q-13 86 12 234zM333 463q-58 0 -113 -57t-86 -152t-22 -196q38 -35 102 -35q73 0 127 48t78 113.5t24 134.5q0 63 -27 103.5t-83 40.5z
" />
    <glyph glyph-name="b" unicode="&#xe003;" horiz-adv-x="508" 
d="M98 269l81 458l37 4l-64 -363h2q32 61 80 94.5t103 33.5q73 0 108.5 -50t35.5 -127q0 -128 -74 -228.5t-193 -100.5q-77 0 -128 45q-13 86 12 234zM333 463q-58 0 -113 -57t-86 -152t-22 -196q38 -35 102 -35q73 0 127 48t78 113.5t24 134.5q0 63 -27 103.5t-83 40.5z
" />
    <glyph glyph-name="c" unicode="c" horiz-adv-x="437" 
d="M323 461q-101 0 -163.5 -87.5t-62.5 -196.5q0 -72 35.5 -112.5t106.5 -40.5q72 0 132 30l6 -35q-62 -29 -143 -29q-88 0 -131 49.5t-45 127.5q0 139 77 233.5t198 94.5q76 0 113 -24l-12 -33q-59 23 -111 23z" />
    <glyph glyph-name="d" unicode="d" horiz-adv-x="508" 
d="M438 468h2l42 259l39 4l-74 -425q-34 -199 -38 -306h-37l18 159h-2q-37 -78 -89 -123.5t-109 -45.5q-62 0 -98 43t-36 112q0 82 35 161t101.5 133t147.5 54q59 0 98 -25zM411 306l21 129q-34 24 -82 24q-105 0 -181 -92t-76 -217q0 -55 24 -91t78 -36q66 0 131.5 86.5
t84.5 196.5z" />
    <glyph glyph-name="e" unicode="e" horiz-adv-x="445" 
d="M100 239q-5 -25 -5 -50q0 -80 34 -122.5t98 -42.5q66 0 139 32l6 -31q-70 -35 -148 -35q-89 0 -128 53t-39 137q0 127 72.5 221.5t173.5 94.5q63 0 95.5 -31t34.5 -76q0 -73 -67.5 -114.5t-180.5 -41.5q-41 0 -85 6zM106 274q42 -7 85 -7q90 0 145.5 31.5t55.5 85.5
q0 36 -26 57t-70 21q-65 0 -116.5 -53.5t-73.5 -134.5z" />
    <glyph glyph-name="f" unicode="f" horiz-adv-x="271" 
d="M90 482l64 4q13 69 24.5 109t31.5 75.5t49.5 50t72.5 14.5q22 0 48 -6l-10 -33q-20 2 -26 2q-46 1 -71 -12.5t-45.5 -60t-35.5 -139.5h120l-10 -32h-116l-91 -545h-38l92 545h-68z" />
    <glyph glyph-name="g" unicode="g" horiz-adv-x="508" 
d="M391 159h-2q-37 -78 -88.5 -123.5t-109.5 -45.5q-62 0 -98 43.5t-36 113.5q0 80 34 158.5t101 133t148 54.5q58 0 98 -25h2l13 18l27 3l-85 -490q-22 -121 -87 -175t-153 -54q-85 0 -138 32l12 33q59 -31 132 -31q159 0 202 210zM412 305l21 129q-32 25 -83 25
q-105 0 -181 -92t-76 -216q0 -56 24.5 -92t78.5 -36q66 0 131.5 86t84.5 196z" />
    <glyph glyph-name="h" unicode="h" horiz-adv-x="525" 
d="M351 496q51 0 84.5 -30.5t33.5 -102.5q0 -29 -5 -66l-50 -297h-38l51 298q6 30 6 64q0 47 -20 73t-70 26t-116 -75t-89 -162q-16 -64 -42 -224h-37l125 727l39 4l-71 -410h2q32 70 84 122.5t113 52.5z" />
    <glyph glyph-name="i" unicode="i" horiz-adv-x="210" 
d="M59 0l84 486l38 3l-85 -489h-37zM157 642q0 14 8.5 23.5t20.5 9.5q13 0 22.5 -10.5t9.5 -24.5t-8.5 -23t-20.5 -9q-13 0 -22.5 10t-9.5 24z" />
    <glyph glyph-name="j" unicode="j" horiz-adv-x="204" 
d="M179 489l-78 -452q-23 -128 -73.5 -188.5t-128.5 -75.5v28q129 31 163 218l80 467zM155 642q0 14 9 23.5t21 9.5q13 0 22.5 -10.5t9.5 -24.5t-9 -23t-21 -9q-13 0 -22.5 10t-9.5 24z" />
    <glyph glyph-name="k" unicode="k" horiz-adv-x="447" 
d="M223 731l-83 -476q54 10 115 42t106.5 85t38.5 108l32 5q10 -70 -39.5 -130t-128.5 -101l146 -264h-41l-138 249q-28 -13 -97 -27l-38 -222h-37l125 727z" />
    <glyph glyph-name="l" unicode="l" horiz-adv-x="210" 
d="M59 0l125 727l39 4l-127 -731h-37z" />
    <glyph glyph-name="m" unicode="m" horiz-adv-x="812" 
d="M450 352h2q30 69 81.5 106.5t105.5 37.5q45 0 72.5 -18.5t36.5 -53t8.5 -69t-8.5 -79.5l-49 -276h-37l51 298q5 33 6 56t-4.5 50.5t-27 42t-57.5 14.5q-60 0 -116.5 -64t-73.5 -156l-42 -241h-37l51 302q30 159 -69 159q-60 0 -131 -96.5t-91 -216.5l-25 -148h-37l53 299
q7 37 28 187l37 3l-26 -168h2q27 61 81.5 118t115.5 57q52 0 79 -38.5t21 -105.5z" />
    <glyph glyph-name="n" unicode="n" horiz-adv-x="525" 
d="M352 496q72 0 100 -49t15 -125l-53 -322h-38l51 297q5 33 5.5 57.5t-5.5 51t-27.5 41t-57.5 14.5q-59 0 -130 -93t-92 -221l-24 -147h-37l53 299q15 84 28 187l37 3l-26 -168h2q34 71 86.5 123t112.5 52z" />
    <glyph glyph-name="o" unicode="o" horiz-adv-x="506" 
d="M305 497q94 0 136.5 -63.5t35.5 -158.5q-3 -51 -20.5 -101t-47.5 -92t-76.5 -67.5t-101.5 -25.5q-90 0 -133.5 62.5t-37.5 156.5q5 119 73 204t172 85zM302 463q-86 0 -142.5 -75.5t-61.5 -177.5q-5 -81 31 -134t106 -53q83 0 141 76.5t63 177.5q3 45 -7.5 85t-43.5 70.5
t-86 30.5z" />
    <glyph glyph-name="p" unicode="p" horiz-adv-x="508" 
d="M331 463q-63 0 -124.5 -71t-81.5 -188q0 1 -6.5 -37.5t-13 -76.5t-6.5 -37q51 -30 117 -30q67 0 120 45t80 112.5t27 140.5q0 60 -27 101t-85 41zM151 366h2q31 57 81 93.5t105 36.5q70 0 105 -47t37 -120q0 -138 -76.5 -238.5t-192.5 -100.5q-70 0 -118 25h-2l-39 -234
h-38l90 518q15 85 28 187l36 3z" />
    <glyph glyph-name="q" unicode="q" horiz-adv-x="508" 
d="M357 0l33 159h-2q-37 -78 -89 -123.5t-109 -45.5q-63 0 -99 43.5t-36 113.5q0 80 34.5 158.5t101.5 133t148 54.5q58 0 98 -25h2l13 18l27 3l-33 -189l-88 -519h-38zM411 305l21 129q-32 25 -83 25q-105 0 -181 -92t-76 -216q0 -56 24.5 -92t78.5 -36q66 0 131 86t85 196
z" />
    <glyph glyph-name="r" unicode="r" horiz-adv-x="306" 
d="M157 365h2q63 133 176 130l-7 -40q-155 -1 -200 -266l-32 -189h-37l52 299q16 88 28 187l37 3z" />
    <glyph glyph-name="s" unicode="s" horiz-adv-x="371" 
d="M149 25q52 0 88 29.5t36 76.5q0 31 -18 54.5t-44 39t-52 31.5t-44 41.5t-18 59.5q0 65 43.5 101.5t114.5 36.5q54 0 98 -22l-12 -35q-40 23 -90 23q-49 0 -81.5 -26t-35.5 -65q0 -32 18 -55t44 -37.5t52 -30t44 -41.5t18 -62q0 -72 -48 -113t-119 -41q-65 0 -110 28
l12 33q47 -26 104 -26z" />
    <glyph glyph-name="s" unicode="&#xe004;" horiz-adv-x="371" 
d="M149 25q52 0 88 29.5t36 76.5q0 31 -18 54.5t-44 39t-52 31.5t-44 41.5t-18 59.5q0 65 43.5 101.5t114.5 36.5q54 0 98 -22l-12 -35q-40 23 -90 23q-49 0 -81.5 -26t-35.5 -65q0 -32 18 -55t44 -37.5t52 -30t44 -41.5t18 -62q0 -72 -48 -113t-119 -41q-65 0 -110 28
l12 33q47 -26 104 -26z" />
    <glyph glyph-name="t" unicode="t" horiz-adv-x="307" 
d="M103 151l35 201l17 102h-73l8 28l72 4l24 109l33 11l-20 -120h125l-9 -32h-122l-49 -286q-1 -4 -3.5 -17t-3.5 -20.5t-2.5 -21t-1.5 -22t1 -20t5 -18.5t9.5 -14t14.5 -10t21 -3q30 0 55 10l1 -16l2 -15q-33 -11 -64 -11q-43 0 -63.5 23t-19 59t7.5 79z" />
    <glyph glyph-name="u" unicode="u" horiz-adv-x="517" 
d="M393 125h-2q-30 -62 -80.5 -98.5t-105.5 -36.5q-162 0 -117 223l47 273h37l-49 -290q-5 -26 -6.5 -46.5t1 -45.5t12 -41t30 -27.5t52.5 -11.5q53 0 110 53.5t77 135.5q10 42 18 84.5t17.5 102t14.5 86.5h37l-33 -186q-33 -204 -37 -300h-37z" />
    <glyph glyph-name="v" unicode="v" horiz-adv-x="437" 
d="M186 0h-35l-73 486h38l47 -323l16 -115h2l83 118l91 129q62 94 23 191h42q17 -35 10 -95.5t-44 -111.5z" />
    <glyph glyph-name="w" unicode="w" horiz-adv-x="725" 
d="M403 486l47 -323l17 -115h2l83 118l90 129q63 92 23 191h43q17 -35 9.5 -95.5t-43.5 -111.5l-201 -279h-35l-44 291h-1l-23 -35l-184 -256h-35l-73 486h38l47 -323l16 -115h2l83 118l123 172l-23 148h39z" />
    <glyph glyph-name="x" unicode="x" horiz-adv-x="418" 
d="M319 0l-102 221h-2l-175 -221h-42l205 251l-55 117l-55 118h42l93 -205h2l164 205h43l-194 -235l118 -251h-42z" />
    <glyph glyph-name="y" unicode="y" horiz-adv-x="425" 
d="M76 486h37l57 -323l17 -109h2l75 110l89 131q62 94 23 191h42q17 -35 9.5 -95.5t-43.5 -111.5l-185 -276l17 -108q13 -69 -33 -102.5t-172 -33.5v32q104 0 141.5 23.5t28.5 73.5z" />
    <glyph glyph-name="y" unicode="&#xe006;" horiz-adv-x="425" 
d="M76 486h37l57 -323l17 -109h2l75 110l89 131q62 94 23 191h42q17 -35 9.5 -95.5t-43.5 -111.5l-185 -276l17 -108q13 -69 -33 -102.5t-172 -33.5v32q104 0 141.5 23.5t28.5 73.5z" />
    <glyph glyph-name="z" unicode="z" horiz-adv-x="402" 
d="M426 486l-5 -30l-368 -421v-2h299l-6 -33h-344l4 27l371 423v3h-277l6 33h320z" />
    <glyph glyph-name="braceleft" unicode="{" horiz-adv-x="323" 
d="M376 745l-8 -28q-64 0 -97.5 -26.5t-40.5 -94.5l-7 -104l-6 -77q-11 -59 -34 -86t-63 -41v-2q59 -22 59 -84q0 -35 -26.5 -130.5t-27.5 -120.5q0 -40 16.5 -60.5t55.5 -22.5h7l16 -2h8l-9 -28q-68 0 -100 21.5t-32 81.5q0 43 26.5 127t26.5 132q0 33 -16.5 52.5
t-66.5 20.5l4 30q57 4 82 27.5t33 78.5q5 32 8.5 100t8.5 97q12 72 49.5 104.5t101.5 34.5h32z" />
    <glyph glyph-name="bar" unicode="|" horiz-adv-x="218" 
d="M127 774v-971h-36v971h36z" />
    <glyph glyph-name="braceright" unicode="}" horiz-adv-x="320" 
d="M-16 -162l9 28q64 0 94 25.5t43 96.5l8 108l5 70q10 59 33.5 86t64.5 41v2q-59 23 -59 87q0 29 26 127.5t27 121.5q0 47 -21 63t-82 23l9 28q67 0 99.5 -22.5t32.5 -81.5q0 -43 -27 -136t-27 -125q0 -31 17.5 -50.5t66.5 -21.5l-4 -30q-53 -3 -78 -24t-34 -63
q-8 -34 -12 -111t-8 -103q-12 -72 -49.5 -104.5t-101.5 -34.5v0h-1h-1h-1h-1h-1h-1h-1h-1h-2h-1h-1h-2h-1h-2h-1h-2h-2h-1h-9z" />
    <glyph glyph-name="asciitilde" unicode="~" horiz-adv-x="580" 
d="M129 260l-29 4q4 48 36.5 78t75.5 30q38 0 109 -33.5t114 -33.5q55 0 71 72l28 -5q-4 -50 -33.5 -79.5t-68.5 -29.5t-113 34.5t-118 34.5q-56 0 -72 -72z" />
    <glyph glyph-name="exclamdown" unicode="&#xa1;" horiz-adv-x="230" 
d="M29 -205l95 524h36l-81 -524h-50zM204 476q0 -18 -12.5 -34t-32.5 -16q-14 0 -22.5 9.5t-8.5 22.5q0 20 12 35t33 15q14 0 22.5 -9t8.5 -23z" />
    <glyph glyph-name="cent" unicode="&#xa2;" horiz-adv-x="467" 
d="M374 655l-18 -107q62 2 108 -27l-14 -31q-48 24 -107 24q-89 0 -155.5 -74t-66.5 -194q0 -73 35.5 -116t106.5 -43q68 0 124 26l5 -33q-45 -26 -124 -26l-18 -102h-36l19 102q-75 11 -112 61t-37 122q0 124 67.5 212t169.5 99l17 107h36z" />
    <glyph glyph-name="sterling" unicode="&#xa3;" horiz-adv-x="493" 
d="M220 350h164l-9 -31h-156q-3 -93 -26 -161.5t-83 -121.5v-2h336l-8 -34h-385l2 26q70 48 97.5 119t30.5 174h-84l8 31h78q0 110 9 160q14 79 66.5 122.5t123.5 43.5q61 0 107 -22l-12 -32q-48 22 -85 22q-141 0 -162 -135q-10 -65 -12 -159z" />
    <glyph glyph-name="currency" unicode="&#xa4;" horiz-adv-x="475" 
d="M280 481q67 0 106 -41l77 76l19 -21l-80 -73q31 -41 31 -101q2 -79 -52 -137l65 -75l-24 -21l-62 75q-45 -41 -114 -41q-66 0 -105 39l-74 -73l-17 21l73 71q-32 44 -32 102q-2 75 56 139l-64 74l23 21l62 -76q48 41 112 41zM275 455q-66 -1 -110.5 -53t-43.5 -120
q0 -63 38 -99t89 -36q67 0 112 51.5t45 120.5q-1 57 -35 96.5t-95 39.5z" />
    <glyph glyph-name="yen" unicode="&#xa5;" horiz-adv-x="495" 
d="M236 0h-36l32 196h-149l10 35h145l6 36h-149l10 35h137l-115 365h41l103 -339h2l217 339h41l-238 -365h142l-10 -35h-145l-6 -36h149l-10 -35h-145z" />
    <glyph glyph-name="brokenbar" unicode="&#xa6;" horiz-adv-x="216" 
d="M178 725l-18 -354h-36l18 354h36zM150 204l-18 -353h-36l18 353h36z" />
    <glyph glyph-name="section" unicode="&#xa7;" horiz-adv-x="482" 
d="M373 110q-3 -70 -53 -107t-124 -37q-72 0 -124 31l11 32q69 -30 120 -30q55 0 93.5 28.5t41.5 78.5q0 37 -23 64t-56 44t-65.5 34.5t-55.5 44t-23 63.5q0 75 85 130v2q-25 29 -25 65q0 63 46.5 101.5t119.5 38.5q68 0 117 -29l-13 -31q-50 28 -111 28q-50 0 -86 -27
t-36 -69q0 -32 22 -56t54 -39.5t63.5 -32t53.5 -44.5t22 -67q0 -83 -75 -135v-2q21 -29 21 -79zM153 362q2 -38 31.5 -63t77.5 -48t67 -39q61 40 61 106q0 35 -26.5 60t-73 49t-63.5 38q-71 -32 -74 -103z" />
    <glyph glyph-name="dieresis" unicode="&#xa8;" horiz-adv-x="400" 
d="M235 610q0 17 12 31.5t30 14.5q13 0 21 -8.5t8 -20.5q0 -18 -11 -32t-30 -14q-30 0 -30 29zM404 610q0 17 12 31.5t30 14.5q13 0 21 -8.5t8 -20.5q0 -18 -11 -32t-30 -14q-30 0 -30 29z" />
    <glyph glyph-name="copyright" unicode="&#xa9;" horiz-adv-x="762" 
d="M98 326q0 138 99 240.5t242 102.5q128 0 214 -89.5t86 -219.5q0 -141 -99 -242.5t-237 -101.5q-130 0 -217.5 90t-87.5 220zM436 638q-124 0 -212 -94.5t-88 -221.5q0 -117 77 -196t191 -79q123 0 210.5 91t87.5 223q0 117 -76 197t-190 80zM447 488q-65 0 -106 -44
t-41 -115q0 -60 31.5 -100t97.5 -40q63 0 105 24l4 -25q-46 -27 -99 -27q-86 0 -129.5 44.5t-43.5 120.5q0 82 51 136.5t131 54.5q61 0 101 -24l-7 -27q-44 22 -95 22z" />
    <glyph glyph-name="ordfeminine" unicode="&#xaa;" horiz-adv-x="311" 
d="M354 697l-22 -130q-8 -50 -10 -81h-23l3 42h-2q-49 -47 -109 -47q-42 0 -61.5 23t-14.5 59q5 29 18 47t36 25.5t40.5 9t48.5 1.5h63l7 48q5 31 5 51.5t-15.5 31t-52.5 10.5q-43 0 -89 -21l-2 21q47 22 93 22q65 0 80.5 -27t6.5 -85zM196 503q36 0 72 22t42 57l7 41h-64
q-63 0 -83 -12q-22 -13 -27 -44q-5 -30 10 -47t43 -17z" />
    <glyph glyph-name="guillemotleft" unicode="&#xab;" horiz-adv-x="434" 
d="M280 417l-158 -162l98 -159l-27 -19l-111 180l174 180zM437 417l-158 -162l98 -159l-27 -19l-111 180l174 180z" />
    <glyph glyph-name="logicalnot" unicode="&#xac;" horiz-adv-x="596" 
d="M537 349v-234h-40v196h-438v38h478z" />
    <glyph glyph-name="registered" unicode="&#xae;" horiz-adv-x="571" 
d="M108 445q0 100 73 173t176 73q92 0 154 -61.5t62 -150.5q0 -102 -74 -175t-175 -73q-93 0 -154.5 61.5t-61.5 152.5zM356 662q-87 -2 -150.5 -64.5t-63.5 -149.5q0 -79 52.5 -132.5t131.5 -53.5q87 0 149.5 63t62.5 152q0 78 -52 131.5t-130 53.5zM332 436h-39l-14 -88
h-30l37 221q46 4 73 4q42 0 60 -18t13 -49q-4 -23 -23 -41.5t-46 -23.5v-1l51 -92h-33zM312 547l-14 -87h39q57 0 64 44q4 22 -8 33.5t-40 11.5q-19 0 -41 -2z" />
    <glyph glyph-name="macron" unicode="&#xaf;" horiz-adv-x="421" 
d="M251 635h237l-6 -36h-236z" />
    <glyph glyph-name="degree" unicode="&#xb0;" horiz-adv-x="318" 
d="M139 596q0 50 33 83t77 33q40 0 67.5 -29t27.5 -70q0 -49 -34 -82t-78 -33q-40 0 -66.5 28.5t-26.5 69.5zM168 598q0 -30 19 -50t48 -20q31 0 55.5 24t24.5 59q0 29 -20 49.5t-49 20.5q-31 0 -54.5 -23.5t-23.5 -59.5z" />
    <glyph glyph-name="plusminus" unicode="&#xb1;" horiz-adv-x="583" 
d="M500 0h-459l6 34h212l37 217h-212l6 34h212l36 217h36l-36 -217h211l-6 -34h-211l-37 -217h211z" />
    <glyph glyph-name="twosuperior" unicode="&#xb2;" horiz-adv-x="285" 
d="M78 441l3 30q7 6 37.5 30t50 40t48.5 44t46.5 50.5t30.5 50t13 52.5q0 63 -65 63q-35 0 -85 -28l-7 31q53 32 103 32q46 0 70 -26.5t24 -66.5q0 -64 -53.5 -124t-158.5 -142v-1h176l-10 -35h-223z" />
    <glyph glyph-name="threesuperior" unicode="&#xb3;" horiz-adv-x="278" 
d="M176 468q49 0 74.5 26.5t25.5 65.5q0 35 -27 52.5t-64 17.5h-22l10 34h20q40 0 71 23.5t31 60.5q0 51 -62 51q-37 0 -78 -24l-5 32q43 27 92 27q47 0 71 -22t24 -57q0 -72 -85 -105v-2q31 -9 48 -32.5t17 -54.5q0 -58 -39 -92t-107 -34q-55 0 -88 22l11 33q35 -22 82 -22
z" />
    <glyph glyph-name="acute" unicode="&#xb4;" horiz-adv-x="369" 
d="M385 688h67l-140 -146h-32z" />
    <glyph glyph-name="mu" unicode="&#xb5;" horiz-adv-x="517" 
d="M44 -44l92 530h37l-49 -290q-5 -26 -6.5 -46.5t1 -45.5t12 -41t30 -27.5t52.5 -11.5q53 0 110 53.5t77 135.5q10 41 18.5 85t17.5 100t15 88h36l-33 -186q-33 -204 -37 -300h-37l14 125h-2q-30 -62 -81 -98.5t-106 -36.5q-78 0 -111 46l-13 -82q-8 -49 -14.5 -76.5
t-21 -59t-35.5 -43.5l-22 19q20 12 30 43t22 97q3 15 4 22z" />
    <glyph glyph-name="paragraph" unicode="&#xb6;" horiz-adv-x="502" 
d="M241 -43l-36 -4l55 311q-76 0 -130 41.5t-54 116.5q0 114 81.5 179t210.5 73zM354 -43l-38 -4l128 719h36z" />
    <glyph glyph-name="periodcentered" unicode="&#xb7;" horiz-adv-x="207" 
d="M83 250q0 18 12.5 34t32.5 16q14 0 22.5 -9.5t8.5 -22.5q0 -20 -12 -35t-32 -15q-15 0 -23.5 9t-8.5 23z" />
    <glyph glyph-name="cedilla" unicode="&#xb8;" horiz-adv-x="373" 
d="M140 0h37l-29 -60q48 -21 48 -62q0 -35 -30 -61t-77 -26q-28 0 -44 8l10 33q18 -5 37 -5q26 0 45 10.5t19 33.5q0 19 -11 29.5t-34 17.5q6 44 29 82z" />
    <glyph glyph-name="onesuperior" unicode="&#xb9;" horiz-adv-x="238" 
d="M267 833l-67 -392h-39l61 351h-1l-68 -34l-11 30l92 45h33z" />
    <glyph glyph-name="ordmasculine" unicode="&#xba;" horiz-adv-x="326" 
d="M286 810q60 0 87.5 -41t24.5 -101q-3 -73 -46.5 -130.5t-113.5 -57.5q-58 0 -86 40t-25 100q3 78 47 134t112 56zM284 787q-56 0 -93 -49.5t-40 -115.5q-2 -52 21.5 -86t68.5 -34q54 0 92 50.5t40 115.5q3 47 -18 83t-71 36z" />
    <glyph glyph-name="guillemotright" unicode="&#xbb;" horiz-adv-x="433" 
d="M195 97l159 162l-98 159l27 19l110 -180l-173 -180zM38 97l159 162l-98 159l27 19l110 -180l-173 -180z" />
    <glyph glyph-name="onequarter" unicode="&#xbc;" horiz-adv-x="765" 
d="M612 674h43l-448 -681h-43q-3 -5 43 65t113.5 173t135 205.5t113.5 172.5t43 65zM252 673l-67 -392h-39l60 351h-1l-68 -34l-10 30l91 45h34zM507 144h124l30 162l7 34h-1l-24 -28zM672 392h41l-43 -248h50l-9 -35h-47l-19 -109h-39l20 109h-171l6 30z" />
    <glyph glyph-name="onehalf" unicode="&#xbd;" horiz-adv-x="765" 
d="M594 674h44l-449 -681h-43zM250 673l-67 -392h-39l61 351h-1l-68 -34l-11 30l92 45h33zM461 0l4 30q5 4 45.5 36t62.5 52.5t54 53.5t47.5 64.5t15.5 60.5q0 63 -65 63q-35 0 -85 -28l-6 31q52 32 102 32q47 0 71 -26.5t24 -66.5q0 -64 -53.5 -124t-158.5 -142v-1h175
l-10 -35h-223z" />
    <glyph glyph-name="threequarters" unicode="&#xbe;" horiz-adv-x="765" 
d="M632 674h43l-449 -681h-43q-3 -5 43 65t114 173t135.5 205.5t113.5 172.5t43 65zM515 144h124l30 162l6 34l-24 -28zM680 392h41l-43 -248h50l-9 -35h-47l-19 -109h-39l20 109h-171l6 30zM156 308q49 0 74.5 26t25.5 66q0 35 -27 52.5t-64 17.5h-21l9 34h20
q41 0 71.5 23.5t30.5 60.5q0 51 -62 51q-37 0 -78 -24l-5 32q43 27 92 27q47 0 71 -22t24 -57t-22.5 -62.5t-61.5 -42.5v-2q30 -9 47 -32.5t17 -54.5q0 -58 -39 -92t-107 -34q-54 0 -88 21l11 34q37 -22 82 -22z" />
    <glyph glyph-name="questiondown" unicode="&#xbf;" horiz-adv-x="373" 
d="M242 -161l-4 -33l-39 -3q-84 0 -124.5 37.5t-40.5 96.5q0 40 18.5 77.5t46 68t56 60t52 67t30.5 77.5q3 18 3 34h38v-1v-1v-2v-1v-9q1 -42 -20 -83t-50.5 -74t-59.5 -65t-51 -68.5t-21 -72.5q0 -49 37 -78t103 -29q8 0 26 2zM321 476q0 -18 -12.5 -34t-32.5 -16
q-14 0 -22.5 9.5t-8.5 22.5q0 20 12 35t33 15q31 0 31 -32z" />
    <glyph glyph-name="Agrave" unicode="&#xc0;" horiz-adv-x="537" 
d="M378 684l109 -684h-37l-37 241h-259l-120 -241h-38l347 684h35zM354 630h-3l-52 -110l-125 -246h232l-38 246zM321 881l61 -146h-28l-96 146h63z" />
    <glyph glyph-name="Aacute" unicode="&#xc1;" horiz-adv-x="537" 
d="M378 684l109 -684h-37l-37 241h-259l-120 -241h-38l347 684h35zM354 630h-3l-52 -110l-125 -246h232l-38 246zM461 881h67l-140 -146h-32z" />
    <glyph glyph-name="Acircumflex" unicode="&#xc2;" horiz-adv-x="537" 
d="M378 684l109 -684h-37l-37 241h-259l-120 -241h-38l347 684h35zM354 630h-3l-52 -110l-125 -246h232l-38 246zM384 835l-90 -100h-39l125 149h24l78 -149h-36l-61 100h-1z" />
    <glyph glyph-name="Atilde" unicode="&#xc3;" horiz-adv-x="537" 
d="M378 684l109 -684h-37l-37 241h-259l-120 -241h-38l347 684h35zM354 630h-3l-52 -110l-125 -246h232l-38 246zM322 818q-22 0 -37 -43l-28 5q27 75 68 75q19 0 56 -21.5t53 -21.5q12 0 20.5 9t15.5 33l28 -5q-13 -38 -27 -56t-41 -18q-20 0 -55.5 21.5t-52.5 21.5z" />
    <glyph glyph-name="Adieresis" unicode="&#xc4;" horiz-adv-x="537" 
d="M378 684l109 -684h-37l-37 241h-259l-120 -241h-38l347 684h35zM354 630h-3l-52 -110l-125 -246h232l-38 246zM259 803q0 17 11.5 31.5t29.5 14.5q14 0 22 -8.5t8 -20.5q0 -18 -11 -32t-31 -14q-13 0 -21 8t-8 21zM428 803q0 17 11.5 31.5t29.5 14.5q14 0 22 -8.5
t8 -20.5q0 -18 -11 -32t-31 -14q-13 0 -21 8t-8 21z" />
    <glyph glyph-name="Aring" unicode="&#xc5;" horiz-adv-x="537" 
d="M374 835q36 0 59 -23.5t23 -59.5q0 -32 -21.5 -57t-54.5 -34h1l106 -661h-37l-37 241h-259l-120 -241h-38l334 661h2q-23 11 -37 33t-14 50q0 37 27.5 64t65.5 27zM354 630h-3l-52 -110l-125 -246h232l-38 246zM372 807q-24 0 -41 -18t-17 -44q0 -24 14.5 -41.5
t36.5 -17.5q24 0 41.5 18t17.5 45q0 25 -14.5 41.5t-37.5 16.5z" />
    <glyph glyph-name="AE" unicode="&#xc6;" horiz-adv-x="751" 
d="M762 683l-9 -33h-258l-36 -277h241l-9 -33h-237l-39 -307h276l-9 -33h-307l38 304h-187l-208 -304h-39l468 683h315zM462 651h-3l-65 -100l-146 -215h171l26 202z" />
    <glyph glyph-name="Ccedilla" unicode="&#xc7;" horiz-adv-x="534" 
d="M418 660q-94 0 -166 -59.5t-107.5 -147.5t-35.5 -184q0 -108 48.5 -177t157.5 -69q96 0 163 33l4 -34q-63 -28 -152 -32l-24 -50q48 -21 48 -62q0 -35 -30 -61t-77 -26q-28 0 -44 8l10 33q18 -5 37 -5q26 0 45 10.5t19 33.5q0 19 -11 29.5t-34 17.5q4 36 23 73
q-109 6 -166.5 79t-57.5 193q0 112 41.5 208t127.5 158.5t201 62.5q96 0 141 -32l-12 -32q-58 32 -149 32z" />
    <glyph glyph-name="Egrave" unicode="&#xc8;" horiz-adv-x="457" 
d="M493 683l-10 -33h-274l-48 -277h254l-9 -33h-251l-53 -307h292l-9 -33h-326l118 683h316zM330 881l61 -146h-28l-96 146h63z" />
    <glyph glyph-name="Eacute" unicode="&#xc9;" horiz-adv-x="457" 
d="M493 683l-10 -33h-274l-48 -277h254l-9 -33h-251l-53 -307h292l-9 -33h-326l118 683h316zM348 881h67l-140 -146h-32z" />
    <glyph glyph-name="Ecircumflex" unicode="&#xca;" horiz-adv-x="457" 
d="M493 683l-10 -33h-274l-48 -277h254l-9 -33h-251l-53 -307h292l-9 -33h-326l118 683h316zM345 835l-91 -100h-38l124 149h25l77 -149h-36l-60 100h-1z" />
    <glyph glyph-name="Edieresis" unicode="&#xcb;" horiz-adv-x="457" 
d="M493 683l-10 -33h-274l-48 -277h254l-9 -33h-251l-53 -307h292l-9 -33h-326l118 683h316zM209 803q0 17 11.5 31.5t30.5 14.5q13 0 21 -8.5t8 -20.5q0 -18 -11 -32t-30 -14q-30 0 -30 29zM378 803q0 17 11.5 31.5t30.5 14.5q13 0 21 -8.5t8 -20.5q0 -18 -11 -32t-31 -14
q-13 0 -21 8t-8 21z" />
    <glyph glyph-name="Igrave" unicode="&#xcc;" horiz-adv-x="212" 
d="M215 683l-119 -683h-37l118 683h38zM150 881l61 -146h-28l-96 146h63z" />
    <glyph glyph-name="Iacute" unicode="&#xcd;" horiz-adv-x="212" 
d="M215 683l-119 -683h-37l118 683h38zM301 881h67l-140 -146h-32z" />
    <glyph glyph-name="Icircumflex" unicode="&#xce;" horiz-adv-x="212" 
d="M215 683l-119 -683h-37l118 683h38zM222 835l-90 -100h-39l125 149h24l78 -149h-36l-61 100h-1z" />
    <glyph glyph-name="Idieresis" unicode="&#xcf;" horiz-adv-x="212" 
d="M215 683l-119 -683h-37l118 683h38zM86 803q0 17 11.5 31.5t29.5 14.5q14 0 22 -8.5t8 -20.5q0 -18 -11 -32t-31 -14q-13 0 -21 8t-8 21zM255 803q0 17 11.5 31.5t29.5 14.5q14 0 22 -8.5t8 -20.5q0 -18 -11.5 -32t-30.5 -14q-13 0 -21 8t-8 21z" />
    <glyph glyph-name="Eth" unicode="&#xd0;" horiz-adv-x="613" 
d="M60 0l58 337h-82l10 33h77l53 307q76 9 160 9q132 0 200 -66t68 -197q0 -118 -43 -213t-132.5 -154t-211.5 -59q-28 0 -88 1.5t-69 1.5zM333 653q-69 0 -126 -6l-47 -277h168l-9 -33h-165l-52 -304q34 -3 93 -3q174 -3 271.5 103.5t97.5 278.5q0 108 -54 174.5t-177 66.5
z" />
    <glyph glyph-name="Ntilde" unicode="&#xd1;" horiz-adv-x="607" 
d="M493 0h-40q-23 60 -115 285.5t-135 346.5h-3l-104 -632h-37l118 683h40q224 -551 250 -634h2l104 634h37zM349 818q-23 0 -38 -43l-28 5q27 75 68 75q19 0 56 -21.5t53 -21.5q12 0 20.5 9t16.5 33l27 -5q-12 -37 -26.5 -55.5t-41.5 -18.5q-20 0 -55.5 21.5t-51.5 21.5z
" />
    <glyph glyph-name="Ograve" unicode="&#xd2;" 
d="M390 660q-69 0 -125 -37.5t-89 -97t-50 -127.5t-17 -135q0 -105 45 -173t147 -68q68 0 123.5 36.5t89.5 95t52 128.5t18 141q0 237 -194 237zM396 693q61 0 106.5 -22t71 -60.5t37.5 -85t12 -102.5t-11 -114t-36.5 -116t-62 -102.5t-93 -72.5t-124.5 -28
q-115 0 -170.5 75t-55.5 192q0 56 11 114.5t37 116.5t62.5 103.5t92.5 73.5t123 28zM416 881l62 -146h-28l-97 146h63z" />
    <glyph glyph-name="Oacute" unicode="&#xd3;" 
d="M390 660q-69 0 -125 -37.5t-89 -97t-50 -127.5t-17 -135q0 -105 45 -173t147 -68q68 0 123.5 36.5t89.5 95t52 128.5t18 141q0 237 -194 237zM396 693q61 0 106.5 -22t71 -60.5t37.5 -85t12 -102.5t-11 -114t-36.5 -116t-62 -102.5t-93 -72.5t-124.5 -28
q-115 0 -170.5 75t-55.5 192q0 56 11 114.5t37 116.5t62.5 103.5t92.5 73.5t123 28zM434 881h67l-139 -146h-32z" />
    <glyph glyph-name="Ocircumflex" unicode="&#xd4;" 
d="M390 660q-69 0 -125 -37.5t-89 -97t-50 -127.5t-17 -135q0 -105 45 -173t147 -68q68 0 123.5 36.5t89.5 95t52 128.5t18 141q0 237 -194 237zM396 693q61 0 106.5 -22t71 -60.5t37.5 -85t12 -102.5t-11 -114t-36.5 -116t-62 -102.5t-93 -72.5t-124.5 -28
q-115 0 -170.5 75t-55.5 192q0 56 11 114.5t37 116.5t62.5 103.5t92.5 73.5t123 28zM431 835l-90 -100h-39l125 149h24l78 -149h-36l-61 100h-1z" />
    <glyph glyph-name="Otilde" unicode="&#xd5;" 
d="M390 660q-69 0 -125 -37.5t-89 -97t-50 -127.5t-17 -135q0 -105 45 -173t147 -68q68 0 123.5 36.5t89.5 95t52 128.5t18 141q0 237 -194 237zM396 693q61 0 106.5 -22t71 -60.5t37.5 -85t12 -102.5t-11 -114t-36.5 -116t-62 -102.5t-93 -72.5t-124.5 -28
q-115 0 -170.5 75t-55.5 192q0 56 11 114.5t37 116.5t62.5 103.5t92.5 73.5t123 28zM360 818q-13 0 -21 -10t-17 -33l-27 5q27 75 68 75q19 0 55.5 -21.5t53.5 -21.5q12 0 20.5 9t15.5 33l28 -5q-13 -38 -27 -56t-41 -18q-20 0 -55.5 21.5t-52.5 21.5z" />
    <glyph glyph-name="Odieresis" unicode="&#xd6;" 
d="M390 660q-69 0 -125 -37.5t-89 -97t-50 -127.5t-17 -135q0 -105 45 -173t147 -68q68 0 123.5 36.5t89.5 95t52 128.5t18 141q0 237 -194 237zM396 693q61 0 106.5 -22t71 -60.5t37.5 -85t12 -102.5t-11 -114t-36.5 -116t-62 -102.5t-93 -72.5t-124.5 -28
q-115 0 -170.5 75t-55.5 192q0 56 11 114.5t37 116.5t62.5 103.5t92.5 73.5t123 28zM295 803q0 17 12 31.5t30 14.5q14 0 22 -8.5t8 -20.5q0 -18 -11.5 -32t-30.5 -14q-30 0 -30 29zM464 803q0 17 12 31.5t30 14.5q14 0 22 -8.5t8 -20.5q0 -18 -11.5 -32t-30.5 -14
q-30 0 -30 29z" />
    <glyph glyph-name="multiply" unicode="&#xd7;" horiz-adv-x="576" 
d="M578 468l-237 -206l166 -204l-25 -22l-165 203l-237 -202l-20 24l236 203l-167 204l25 22l167 -203l236 206z" />
    <glyph glyph-name="Oslash" unicode="&#xd8;" 
d="M396 693q96 0 152 -53l60 80l24 -19l-63 -86q54 -69 54 -192q0 -56 -11 -114t-36.5 -116t-62 -102.5t-93 -72.5t-124.5 -28q-92 0 -150 52l-58 -78l-24 18l61 83q-55 72 -55 192q0 56 11 114.5t37 116.5t62.5 103.5t92.5 73.5t123 28zM390 660q-69 0 -125 -37.5t-89 -97
t-50 -127.5t-17 -135q0 -105 40 -167l377 514q-47 50 -136 50zM584 423q0 104 -37 163l-379 -514q48 -50 133 -50q68 0 123.5 36.5t89.5 95t52 128.5t18 141z" />
    <glyph glyph-name="Ugrave" unicode="&#xd9;" horiz-adv-x="594" 
d="M270 -10q-80 0 -128.5 44.5t-48.5 136.5q0 41 11 113l69 399h39l-76 -437q-40 -223 141 -223q172 0 211 222l76 438h37l-76 -443q-23 -130 -91 -190t-164 -60zM397 881l62 -146h-28l-96 146h62z" />
    <glyph glyph-name="Uacute" unicode="&#xda;" horiz-adv-x="594" 
d="M270 -10q-80 0 -128.5 44.5t-48.5 136.5q0 41 11 113l69 399h39l-76 -437q-40 -223 141 -223q172 0 211 222l76 438h37l-76 -443q-23 -130 -91 -190t-164 -60zM415 881h68l-140 -146h-32z" />
    <glyph glyph-name="Ucircumflex" unicode="&#xdb;" horiz-adv-x="594" 
d="M270 -10q-80 0 -128.5 44.5t-48.5 136.5q0 41 11 113l69 399h39l-76 -437q-40 -223 141 -223q172 0 211 222l76 438h37l-76 -443q-23 -130 -91 -190t-164 -60zM412 835l-90 -100h-39l125 149h25l77 -149h-36l-61 100h-1z" />
    <glyph glyph-name="Udieresis" unicode="&#xdc;" horiz-adv-x="594" 
d="M270 -10q-80 0 -128.5 44.5t-48.5 136.5q0 41 11 113l69 399h39l-76 -437q-40 -223 141 -223q172 0 211 222l76 438h37l-76 -443q-23 -130 -91 -190t-164 -60zM277 803q0 17 11.5 31.5t29.5 14.5q14 0 22 -8.5t8 -20.5q0 -18 -11.5 -32t-30.5 -14q-13 0 -21 8t-8 21z
M446 803q0 17 11.5 31.5t29.5 14.5q14 0 22 -8.5t8 -20.5q0 -18 -11.5 -32t-30.5 -14q-29 0 -29 29z" />
    <glyph glyph-name="Yacute" unicode="&#xdd;" horiz-adv-x="487" 
d="M264 317h3l63 97l179 269h43l-276 -402l-48 -281h-36l48 281l-133 402h41l85 -269zM362 881h68l-140 -146h-32z" />
    <glyph glyph-name="Thorn" unicode="&#xde;" horiz-adv-x="493" 
d="M215 683l-27 -148q56 6 116 6q83 0 128.5 -41.5t45.5 -111.5q0 -108 -76.5 -165t-196.5 -57q-44 0 -79 4l-31 -170h-36l118 683h38zM182 502l-51 -297q29 -4 79 -4q101 0 165 45t63 134q0 62 -35.5 95t-103.5 33q-57 0 -117 -6z" />
    <glyph glyph-name="germandbls" unicode="&#xdf;" horiz-adv-x="550" 
d="M505 616q0 -39 -16 -68.5t-38.5 -47.5t-44.5 -34t-38 -38.5t-16 -52.5q0 -26 14 -47.5t34.5 -38t41 -33.5t34.5 -43t14 -58q0 -74 -54 -119.5t-133 -45.5q-59 0 -107 23l11 32q50 -22 102 -22q51 0 95.5 31.5t44.5 84.5q0 36 -21.5 68t-46.5 51.5t-46.5 48t-21.5 58.5
q0 33 15.5 56t37.5 38.5t44 32t37.5 46.5t15.5 72q0 40 -23.5 67t-76.5 27q-81 0 -119 -51t-58 -170l-97 -574h-37l95 571q12 63 26 106t39 79.5t64 54.5t94 18q66 0 100.5 -34.5t34.5 -87.5z" />
    <glyph glyph-name="agrave" unicode="&#xe0;" horiz-adv-x="509" 
d="M479 489l-33 -189q-33 -202 -37 -300h-37l19 159h-2q-37 -78 -89 -123.5t-110 -45.5q-62 0 -98 43.5t-36 113.5q0 80 34 158.5t101 133t148 54.5q58 0 98 -25h2l13 18zM411 305l21 129q-32 25 -83 25q-105 0 -180.5 -92t-75.5 -216q0 -56 24 -92t79 -36q66 0 131 86.5
t84 195.5zM328 688l61 -146h-28l-96 146h63z" />
    <glyph glyph-name="aacute" unicode="&#xe1;" horiz-adv-x="509" 
d="M479 489l-33 -189q-33 -202 -37 -300h-37l19 159h-2q-37 -78 -89 -123.5t-110 -45.5q-62 0 -98 43.5t-36 113.5q0 80 34 158.5t101 133t148 54.5q58 0 98 -25h2l13 18zM411 305l21 129q-32 25 -83 25q-105 0 -180.5 -92t-75.5 -216q0 -56 24 -92t79 -36q66 0 131 86.5
t84 195.5zM363 688h68l-140 -146h-32z" />
    <glyph glyph-name="acircumflex" unicode="&#xe2;" horiz-adv-x="509" 
d="M479 489l-33 -189q-33 -202 -37 -300h-37l19 159h-2q-37 -78 -89 -123.5t-110 -45.5q-62 0 -98 43.5t-36 113.5q0 80 34 158.5t101 133t148 54.5q58 0 98 -25h2l13 18zM411 305l21 129q-32 25 -83 25q-105 0 -180.5 -92t-75.5 -216q0 -56 24 -92t79 -36q66 0 131 86.5
t84 195.5zM347 642l-90 -100h-39l124 149h25l77 -149h-35l-61 100h-1z" />
    <glyph glyph-name="atilde" unicode="&#xe3;" horiz-adv-x="509" 
d="M479 489l-33 -189q-33 -202 -37 -300h-37l19 159h-2q-37 -78 -89 -123.5t-110 -45.5q-62 0 -98 43.5t-36 113.5q0 80 34 158.5t101 133t148 54.5q58 0 98 -25h2l13 18zM411 305l21 129q-32 25 -83 25q-105 0 -180.5 -92t-75.5 -216q0 -56 24 -92t79 -36q66 0 131 86.5
t84 195.5zM267 625q-13 0 -21 -10t-17 -33l-27 5q27 75 68 75q19 0 55.5 -21.5t53.5 -21.5q12 0 20.5 9t15.5 33l28 -5q-13 -38 -27 -56t-41 -18q-20 0 -55.5 21.5t-52.5 21.5z" />
    <glyph glyph-name="adieresis" unicode="&#xe4;" horiz-adv-x="509" 
d="M479 489l-33 -189q-33 -202 -37 -300h-37l19 159h-2q-37 -78 -89 -123.5t-110 -45.5q-62 0 -98 43.5t-36 113.5q0 80 34 158.5t101 133t148 54.5q58 0 98 -25h2l13 18zM411 305l21 129q-32 25 -83 25q-105 0 -180.5 -92t-75.5 -216q0 -56 24 -92t79 -36q66 0 131 86.5
t84 195.5zM201 610q0 17 11.5 31.5t29.5 14.5q14 0 22 -8.5t8 -20.5q0 -18 -11 -32t-31 -14q-13 0 -21 8t-8 21zM370 610q0 17 11.5 31.5t29.5 14.5q14 0 22 -8.5t8 -20.5q0 -18 -11 -32t-31 -14q-13 0 -21 8t-8 21z" />
    <glyph glyph-name="aring" unicode="&#xe5;" horiz-adv-x="509" 
d="M479 489l-33 -189q-33 -202 -37 -300h-37l19 159h-2q-37 -78 -89 -123.5t-110 -45.5q-62 0 -98 43.5t-36 113.5q0 80 34 158.5t101 133t148 54.5q58 0 98 -25h2l13 18zM411 305l21 129q-32 25 -83 25q-105 0 -180.5 -92t-75.5 -216q0 -56 24 -92t79 -36q66 0 131 86.5
t84 195.5zM340 715q36 0 59 -23.5t23 -59.5q0 -38 -26 -66t-65 -28q-38 0 -61 24.5t-23 61.5t27.5 64t65.5 27zM338 687q-24 0 -41 -18t-17 -44q0 -24 14.5 -41.5t36.5 -17.5q24 0 41.5 18t17.5 45q0 25 -14.5 41.5t-37.5 16.5z" />
    <glyph glyph-name="ae" unicode="&#xe6;" horiz-adv-x="744" 
d="M399 239q-5 -25 -5 -50q0 -80 34 -122.5t98 -42.5q66 0 139 32l6 -31q-70 -35 -148 -35q-128 0 -160 120h-2q-74 -120 -171 -120q-62 0 -98 43.5t-36 113.5q0 80 34 158.5t101 133t148 54.5q30 0 58.5 -8.5t40.5 -16t33 -21.5h2q62 49 129 49q63 0 95.5 -31t34.5 -76
q0 -73 -67.5 -114.5t-180.5 -41.5q-42 0 -85 6zM356 152q0 174 91 272q-50 35 -98 35q-105 0 -180.5 -92t-75.5 -216q0 -56 24 -92t79 -36q40 0 83 35.5t77 93.5zM405 274q42 -7 85 -7q90 0 145.5 31.5t55.5 85.5q0 36 -26 57t-70 21q-65 0 -116.5 -53.5t-73.5 -134.5z" />
    <glyph glyph-name="ccedilla" unicode="&#xe7;" horiz-adv-x="437" 
d="M323 461q-101 0 -163.5 -87.5t-62.5 -196.5q0 -72 35.5 -112.5t106.5 -40.5q72 0 132 30l6 -35q-53 -25 -126 -28l-24 -51q48 -21 48 -62q0 -35 -30 -61t-77 -26q-28 0 -44 8l10 33q18 -5 37 -5q26 0 45 10.5t19 33.5q0 19 -11 29.5t-34 17.5q4 36 23 73q-77 6 -115 54.5
t-40 121.5q0 139 77 233.5t198 94.5q76 0 113 -24l-12 -33q-59 23 -111 23z" />
    <glyph glyph-name="egrave" unicode="&#xe8;" horiz-adv-x="445" 
d="M100 239q-5 -25 -5 -50q0 -80 34 -122.5t98 -42.5q66 0 139 32l6 -31q-70 -35 -148 -35q-89 0 -128 53t-39 137q0 127 72.5 221.5t173.5 94.5q63 0 95.5 -31t34.5 -76q0 -73 -67.5 -114.5t-180.5 -41.5q-41 0 -85 6zM106 274q42 -7 85 -7q90 0 145.5 31.5t55.5 85.5
q0 36 -26 57t-70 21q-65 0 -116.5 -53.5t-73.5 -134.5zM286 688l62 -146h-28l-97 146h63z" />
    <glyph glyph-name="eacute" unicode="&#xe9;" horiz-adv-x="445" 
d="M100 239q-5 -25 -5 -50q0 -80 34 -122.5t98 -42.5q66 0 139 32l6 -31q-70 -35 -148 -35q-89 0 -128 53t-39 137q0 127 72.5 221.5t173.5 94.5q63 0 95.5 -31t34.5 -76q0 -73 -67.5 -114.5t-180.5 -41.5q-41 0 -85 6zM106 274q42 -7 85 -7q90 0 145.5 31.5t55.5 85.5
q0 36 -26 57t-70 21q-65 0 -116.5 -53.5t-73.5 -134.5zM319 688h68l-140 -146h-32z" />
    <glyph glyph-name="ecircumflex" unicode="&#xea;" horiz-adv-x="445" 
d="M100 239q-5 -25 -5 -50q0 -80 34 -122.5t98 -42.5q66 0 139 32l6 -31q-70 -35 -148 -35q-89 0 -128 53t-39 137q0 127 72.5 221.5t173.5 94.5q63 0 95.5 -31t34.5 -76q0 -73 -67.5 -114.5t-180.5 -41.5q-41 0 -85 6zM106 274q42 -7 85 -7q90 0 145.5 31.5t55.5 85.5
q0 36 -26 57t-70 21q-65 0 -116.5 -53.5t-73.5 -134.5zM299 642l-91 -100h-38l124 149h25l77 -149h-36z" />
    <glyph glyph-name="edieresis" unicode="&#xeb;" horiz-adv-x="445" 
d="M100 239q-5 -25 -5 -50q0 -80 34 -122.5t98 -42.5q66 0 139 32l6 -31q-70 -35 -148 -35q-89 0 -128 53t-39 137q0 127 72.5 221.5t173.5 94.5q63 0 95.5 -31t34.5 -76q0 -73 -67.5 -114.5t-180.5 -41.5q-41 0 -85 6zM106 274q42 -7 85 -7q90 0 145.5 31.5t55.5 85.5
q0 36 -26 57t-70 21q-65 0 -116.5 -53.5t-73.5 -134.5zM174 610q0 17 12 31.5t30 14.5q13 0 21 -8.5t8 -20.5q0 -18 -11 -32t-30 -14q-30 0 -30 29zM343 610q0 17 12 31.5t30 14.5q13 0 21 -8.5t8 -20.5q0 -18 -11 -32t-30 -14q-30 0 -30 29z" />
    <glyph glyph-name="igrave" unicode="&#xec;" horiz-adv-x="210" 
d="M59 0l84 486l38 3l-85 -489h-37zM119 688l62 -146h-28l-97 146h63z" />
    <glyph glyph-name="iacute" unicode="&#xed;" horiz-adv-x="210" 
d="M59 0l84 486l38 3l-85 -489h-37zM259 688h67l-139 -146h-33z" />
    <glyph glyph-name="icircumflex" unicode="&#xee;" horiz-adv-x="210" 
d="M59 0l84 486l38 3l-85 -489h-37zM185 642l-90 -100h-39l125 149h24l78 -149h-36l-61 100h-1z" />
    <glyph glyph-name="idieresis" unicode="&#xef;" horiz-adv-x="210" 
d="M59 0l84 486l38 3l-85 -489h-37zM62 610q0 17 11.5 31.5t29.5 14.5q14 0 22 -8.5t8 -20.5q0 -18 -11 -32t-31 -14q-13 0 -21 8t-8 21zM231 610q0 17 11.5 31.5t29.5 14.5q14 0 22 -8.5t8 -20.5q0 -18 -11 -32t-31 -14q-13 0 -21 8t-8 21z" />
    <glyph glyph-name="eth" unicode="&#xf0;" horiz-adv-x="504" 
d="M350 653l116 70l17 -27l-109 -67q102 -120 102 -281q0 -158 -73 -258t-174 -100q-85 0 -129 53.5t-44 130.5q0 119 70.5 206.5t170.5 87.5q38 0 76.5 -17t63.5 -54h4q-18 125 -99 212l-133 -83l-16 28l128 79q-47 50 -118 76l14 29q73 -25 133 -85zM439 306
q-9 51 -44.5 89t-99.5 38q-87 0 -143.5 -76t-56.5 -180q0 -66 35.5 -110t97.5 -44q83 0 144.5 81.5t66.5 201.5z" />
    <glyph glyph-name="ntilde" unicode="&#xf1;" horiz-adv-x="525" 
d="M352 496q72 0 100 -49t15 -125l-53 -322h-38l51 297q5 33 5.5 57.5t-5.5 51t-27.5 41t-57.5 14.5q-59 0 -130 -93t-92 -221l-24 -147h-37l53 299q15 84 28 187l37 3l-26 -168h2q34 71 86.5 123t112.5 52zM281 625q-22 0 -37 -43l-28 5q27 75 68 75q20 0 56 -21.5
t53 -21.5q12 0 20.5 9t15.5 33l28 -5q-13 -38 -27 -56t-41 -18q-20 0 -55.5 21.5t-52.5 21.5z" />
    <glyph glyph-name="ograve" unicode="&#xf2;" horiz-adv-x="506" 
d="M305 497q94 0 136.5 -63.5t35.5 -158.5q-3 -51 -20.5 -101t-47.5 -92t-76.5 -67.5t-101.5 -25.5q-90 0 -133.5 62.5t-37.5 156.5q5 119 73 204t172 85zM302 463q-86 0 -142.5 -75.5t-61.5 -177.5q-5 -81 31 -134t106 -53q83 0 141 76.5t63 177.5q3 45 -7.5 85t-43.5 70.5
t-86 30.5zM307 688l61 -146h-28l-96 146h63z" />
    <glyph glyph-name="oacute" unicode="&#xf3;" horiz-adv-x="506" 
d="M305 497q94 0 136.5 -63.5t35.5 -158.5q-3 -51 -20.5 -101t-47.5 -92t-76.5 -67.5t-101.5 -25.5q-90 0 -133.5 62.5t-37.5 156.5q5 119 73 204t172 85zM302 463q-86 0 -142.5 -75.5t-61.5 -177.5q-5 -81 31 -134t106 -53q83 0 141 76.5t63 177.5q3 45 -7.5 85t-43.5 70.5
t-86 30.5zM345 688h67l-140 -146h-32z" />
    <glyph glyph-name="ocircumflex" unicode="&#xf4;" horiz-adv-x="506" 
d="M305 497q94 0 136.5 -63.5t35.5 -158.5q-3 -51 -20.5 -101t-47.5 -92t-76.5 -67.5t-101.5 -25.5q-90 0 -133.5 62.5t-37.5 156.5q5 119 73 204t172 85zM302 463q-86 0 -142.5 -75.5t-61.5 -177.5q-5 -81 31 -134t106 -53q83 0 141 76.5t63 177.5q3 45 -7.5 85t-43.5 70.5
t-86 30.5zM318 642l-90 -100h-39l124 149h25l77 -149h-35l-61 100h-1z" />
    <glyph glyph-name="otilde" unicode="&#xf5;" horiz-adv-x="506" 
d="M305 497q94 0 136.5 -63.5t35.5 -158.5q-3 -51 -20.5 -101t-47.5 -92t-76.5 -67.5t-101.5 -25.5q-90 0 -133.5 62.5t-37.5 156.5q5 119 73 204t172 85zM302 463q-86 0 -142.5 -75.5t-61.5 -177.5q-5 -81 31 -134t106 -53q83 0 141 76.5t63 177.5q3 45 -7.5 85t-43.5 70.5
t-86 30.5zM271 625q-13 0 -21 -10t-17 -33l-27 5q25 75 68 75q19 0 55.5 -21.5t53.5 -21.5q12 0 20.5 9t15.5 33l28 -5q-13 -38 -27 -56t-41 -18q-20 0 -55.5 21.5t-52.5 21.5z" />
    <glyph glyph-name="odieresis" unicode="&#xf6;" horiz-adv-x="506" 
d="M305 497q94 0 136.5 -63.5t35.5 -158.5q-3 -51 -20.5 -101t-47.5 -92t-76.5 -67.5t-101.5 -25.5q-90 0 -133.5 62.5t-37.5 156.5q5 119 73 204t172 85zM302 463q-86 0 -142.5 -75.5t-61.5 -177.5q-5 -81 31 -134t106 -53q83 0 141 76.5t63 177.5q3 45 -7.5 85t-43.5 70.5
t-86 30.5zM195 610q0 17 11.5 31.5t30.5 14.5q13 0 21 -8.5t8 -20.5q0 -18 -11 -32t-30 -14q-30 0 -30 29zM364 610q0 17 11.5 31.5t30.5 14.5q13 0 21 -8.5t8 -20.5q0 -18 -11 -32t-30 -14q-30 0 -30 29z" />
    <glyph glyph-name="divide" unicode="&#xf7;" horiz-adv-x="583" 
d="M88 285h457l-6 -34h-457zM302 431q0 22 15 35.5t32 13.5q15 0 24.5 -10t9.5 -24q0 -22 -15 -35.5t-33 -13.5q-14 0 -23.5 9.5t-9.5 24.5zM245 88q0 23 15 36.5t33 13.5q14 0 23.5 -10t9.5 -25q0 -22 -14.5 -35t-32.5 -13q-15 0 -24.5 9.5t-9.5 23.5z" />
    <glyph glyph-name="oslash" unicode="&#xf8;" horiz-adv-x="507" 
d="M305 497q66 0 108 -33l43 59l28 -19l-48 -64q48 -59 41 -165q-3 -51 -20.5 -101t-47.5 -92t-76.5 -67.5t-101.5 -25.5q-66 0 -108 34l-44 -58l-24 20l46 62q-48 58 -41 161q5 119 73 204t172 85zM439 277q5 75 -27 131l-264 -353q34 -32 87 -32q83 0 141 76.5t63 177.5z
M302 463q-86 0 -142.5 -75.5t-61.5 -177.5q-5 -82 27 -131l263 353q-34 31 -86 31z" />
    <glyph glyph-name="ugrave" unicode="&#xf9;" horiz-adv-x="517" 
d="M393 125h-2q-30 -62 -80.5 -98.5t-105.5 -36.5q-162 0 -117 223l47 273h37l-49 -290q-5 -26 -6.5 -46.5t1 -45.5t12 -41t30 -27.5t52.5 -11.5q53 0 110 53.5t77 135.5q10 42 18 84.5t17.5 102t14.5 86.5h37l-33 -186q-33 -204 -37 -300h-37zM326 688l61 -146h-28l-96 146
h63z" />
    <glyph glyph-name="uacute" unicode="&#xfa;" horiz-adv-x="517" 
d="M393 125h-2q-30 -62 -80.5 -98.5t-105.5 -36.5q-162 0 -117 223l47 273h37l-49 -290q-5 -26 -6.5 -46.5t1 -45.5t12 -41t30 -27.5t52.5 -11.5q53 0 110 53.5t77 135.5q10 42 18 84.5t17.5 102t14.5 86.5h37l-33 -186q-33 -204 -37 -300h-37zM344 688h67l-140 -146h-32z
" />
    <glyph glyph-name="ucircumflex" unicode="&#xfb;" horiz-adv-x="517" 
d="M393 125h-2q-30 -62 -80.5 -98.5t-105.5 -36.5q-162 0 -117 223l47 273h37l-49 -290q-5 -26 -6.5 -46.5t1 -45.5t12 -41t30 -27.5t52.5 -11.5q53 0 110 53.5t77 135.5q10 42 18 84.5t17.5 102t14.5 86.5h37l-33 -186q-33 -204 -37 -300h-37zM336 642l-91 -100h-38
l124 149h25l77 -149h-36l-60 100h-1z" />
    <glyph glyph-name="udieresis" unicode="&#xfc;" horiz-adv-x="517" 
d="M393 125h-2q-30 -62 -80.5 -98.5t-105.5 -36.5q-162 0 -117 223l47 273h37l-49 -290q-5 -26 -6.5 -46.5t1 -45.5t12 -41t30 -27.5t52.5 -11.5q53 0 110 53.5t77 135.5q10 42 18 84.5t17.5 102t14.5 86.5h37l-33 -186q-33 -204 -37 -300h-37zM203 610q0 17 12 31.5
t30 14.5q13 0 21 -8.5t8 -20.5q0 -18 -11 -32t-30 -14q-30 0 -30 29zM372 610q0 17 12 31.5t30 14.5q13 0 21 -8.5t8 -20.5q0 -18 -11 -32t-30 -14q-30 0 -30 29z" />
    <glyph glyph-name="yacute" unicode="&#xfd;" horiz-adv-x="425" 
d="M76 486h37l57 -323l17 -109h2l75 110l89 131q62 94 23 191h42q17 -35 9.5 -95.5t-43.5 -111.5l-185 -276l17 -108q13 -69 -33 -102.5t-172 -33.5v32q104 0 141.5 23.5t28.5 73.5zM271 688h67l-139 -146h-33z" />
    <glyph glyph-name="thorn" unicode="&#xfe;" horiz-adv-x="508" 
d="M331 463q-63 0 -124.5 -71t-81.5 -188l-26 -151q51 -30 117 -30q67 0 120 45t80 112.5t27 140.5q0 60 -27 101t-85 41zM149 365h2q33 58 83.5 94.5t104.5 36.5q70 0 105 -47t37 -120q0 -138 -76 -238.5t-193 -100.5q-70 0 -118 25h-2l-39 -234h-38l157 916l35 3z" />
    <glyph glyph-name="ydieresis" unicode="&#xff;" horiz-adv-x="425" 
d="M76 486h37l57 -323l17 -109h2l75 110l89 131q62 94 23 191h42q17 -35 9.5 -95.5t-43.5 -111.5l-185 -276l17 -108q13 -69 -33 -102.5t-172 -33.5v32q104 0 141.5 23.5t28.5 73.5zM146 610q0 17 12 31.5t30 14.5q13 0 21 -8.5t8 -20.5q0 -18 -11 -32t-30 -14q-30 0 -30 29
zM315 610q0 17 12 31.5t30 14.5q13 0 21 -8.5t8 -20.5q0 -18 -11 -32t-30 -14q-30 0 -30 29z" />
    <glyph glyph-name="OE" unicode="&#x152;" horiz-adv-x="864" 
d="M890 683l-9 -33h-275l-48 -277h254l-9 -33h-251l-53 -307h293l-10 -33h-326l8 41q-73 -51 -168 -51q-115 0 -170.5 75t-55.5 192q0 56 11 114.5t37 116.5t62.5 103.5t92.5 73.5t123 28q108 0 168 -68l10 58h316zM301 22q99 0 172 76l82 472q-50 90 -165 90
q-69 0 -125 -37.5t-89 -97t-50 -127.5t-17 -135q0 -105 45 -173t147 -68z" />
    <glyph glyph-name="oe" unicode="&#x153;" horiz-adv-x="808" 
d="M463 239q-5 -19 -5 -50q0 -165 132 -165q66 0 139 32l5 -31q-68 -35 -147 -35q-125 0 -161 119h-2q-75 -120 -193 -120q-90 0 -133.5 62.5t-37.5 156.5q5 119 73 204t172 85q64 0 105 -35t59 -92h2q35 57 86.5 91.5t108.5 34.5q63 0 95.5 -31t34.5 -76
q0 -73 -67.5 -114.5t-180.5 -41.5q-42 0 -85 6zM302 463q-86 0 -142.5 -75.5t-61.5 -177.5q-5 -81 31 -134t106 -53q83 0 141 76.5t63 177.5q3 45 -7.5 85t-43.5 70.5t-86 30.5zM469 274q42 -7 85 -7q90 0 145.5 31.5t55.5 85.5q0 36 -26 57t-70 21q-65 0 -117 -53.5
t-73 -134.5z" />
    <glyph glyph-name="Ydieresis" unicode="&#x178;" horiz-adv-x="487" 
d="M264 317h3l63 97l179 269h43l-276 -402l-48 -281h-36l48 281l-133 402h41l85 -269zM224 803q0 17 11.5 31.5t29.5 14.5q14 0 22 -8.5t8 -20.5q0 -18 -11.5 -32t-30.5 -14q-29 0 -29 29zM393 803q0 17 11.5 31.5t29.5 14.5q14 0 22 -8.5t8 -20.5q0 -18 -11.5 -32
t-30.5 -14q-29 0 -29 29z" />
    <glyph glyph-name="tilde" unicode="&#x2dc;" horiz-adv-x="409" 
d="M303 625q-23 0 -38 -43l-28 5q13 35 28.5 55t40.5 20q19 0 55 -21.5t53 -21.5q12 0 20.5 9t16.5 33l27 -5q-12 -37 -26.5 -55.5t-41.5 -18.5q-20 0 -55.5 21.5t-51.5 21.5z" />
    <glyph glyph-name="endash" unicode="&#x2013;" horiz-adv-x="538" 
d="M76 276h428l-6 -33h-427z" />
    <glyph glyph-name="emdash" unicode="&#x2014;" horiz-adv-x="951" 
d="M76 276h841l-6 -33h-840z" />
    <glyph glyph-name="quoteleft" unicode="&#x2018;" horiz-adv-x="192" 
d="M219 720l23 -9q-61 -102 -86 -214l-44 6q17 54 49 118t58 99z" />
    <glyph glyph-name="quoteright" unicode="&#x2019;" horiz-adv-x="202" 
d="M123 493l-22 9q62 105 85 213l44 -6q-17 -54 -49 -118t-58 -98z" />
    <glyph glyph-name="quotedblleft" unicode="&#x201c;" horiz-adv-x="321" 
d="M219 720l22 -9q-63 -107 -85 -214l-44 6q17 54 49 118t58 99zM348 720l22 -9q-63 -107 -85 -214l-44 6q17 54 49 118t58 99z" />
    <glyph glyph-name="quotedblright" unicode="&#x201d;" horiz-adv-x="332" 
d="M124 493l-23 9q61 99 86 213l44 -6q-17 -53 -49 -117t-58 -99zM253 493l-23 9q61 99 86 213l44 -6q-17 -53 -49 -117t-58 -99z" />
    <glyph glyph-name="quotedblbase" unicode="&#x201e;" horiz-adv-x="319" 
d="M145 -137l-23 9q61 101 86 213l44 -6q-17 -54 -49 -118t-58 -98zM16 -137l-23 9q61 101 86 213l44 -6q-17 -54 -49 -118t-58 -98z" />
    <glyph glyph-name="bullet" unicode="&#x2022;" horiz-adv-x="248" 
d="M40 267q0 35 24 59t59 24t59.5 -24.5t24.5 -58.5q0 -35 -24.5 -59.5t-59.5 -24.5q-34 0 -58.5 24.5t-24.5 59.5z" />
    <glyph glyph-name="ellipsis" unicode="&#x2026;" horiz-adv-x="672" 
d="M51 22q0 19 12.5 34.5t32.5 15.5q15 0 23 -9t8 -23q0 -19 -12 -34.5t-33 -15.5q-15 0 -23 9t-8 23zM285 22q0 19 12.5 34.5t32.5 15.5q15 0 23 -9t8 -23q0 -19 -12 -34.5t-33 -15.5q-15 0 -23 9t-8 23zM521 22q0 19 12.5 34.5t32.5 15.5q15 0 23 -9t8 -23
q0 -19 -12 -34.5t-32 -15.5q-15 0 -23.5 9t-8.5 23z" />
    <glyph glyph-name="guilsinglleft" unicode="&#x2039;" horiz-adv-x="277" 
d="M280 417l-158 -162l98 -159l-27 -19l-111 180l174 180z" />
    <glyph glyph-name="guilsinglright" unicode="&#x203a;" horiz-adv-x="276" 
d="M38 97l159 162l-98 159l27 19l110 -180l-173 -180z" />
    <glyph glyph-name="Euro" unicode="&#x20ac;" horiz-adv-x="518" 
d="M148 297h271l-10 -34h-264q0 -43 8.5 -83t27.5 -77t55.5 -59t86.5 -22q62 0 132 30l5 -29q-60 -33 -140 -33q-106 0 -160 76t-54 197h-70l12 34h61q4 48 14 81h-67l10 35h67q36 119 118 191.5t197 72.5q57 0 113 -29l-11 -30q-62 27 -109 27q-100 0 -168.5 -64.5
t-100.5 -167.5h266l-10 -35h-265q-11 -29 -15 -81z" />
    <glyph glyph-name="trademark" unicode="&#x2122;" horiz-adv-x="700" 
d="M226 657h-94l6 26h216l-6 -26h-93l-46 -264h-29zM509 395h-33l-55 257h-2l-8 -56l-45 -203h-28l63 290h43l43 -201l11 -54h2l26 54l113 201h43l-35 -290h-28l25 203l7 56h-2z" />
    <glyph glyph-name="thinspace" horiz-adv-x="120" 
 />
    </font>
</defs>
</svg>
