<?xml version="1.0" standalone="no"?>
<!DOCTYPE svg PUBLIC "-//W3C//DTD SVG 1.1//EN" "http://www.w3.org/Graphics/SVG/1.1/DTD/svg11.dtd" >
<svg>
<metadata>
Created by FontForge 20120731 at Thu Jun 18 08:17:53 2015
 By ,,,
Copyright (c) 2011 by Neil Summerour and Positype. All rights reserved.
</metadata>
<defs>
<font id="AkagiPro-LightItalic" horiz-adv-x="512" >
  <font-face 
    font-family="3080cbbe7e1a0f98102f88e0f2548cdd945b70e533cf95ff2a8dfadc2a2298db"
    font-weight="300"
    font-style="italic"
    font-stretch="normal"
    units-per-em="1000"
    panose-1="2 0 5 6 0 0 0 2 0 4"
    ascent="750"
    descent="-250"
    x-height="487"
    cap-height="683"
    bbox="-100 -241 918 885"
    underline-thickness="50"
    underline-position="-50"
    slope="-9.5"
    unicode-range="U+0020-2122"
  />
<missing-glyph horiz-adv-x="531" 
 />
    <glyph glyph-name=".notdef" horiz-adv-x="531" 
 />
    <glyph glyph-name=".null" horiz-adv-x="0" 
 />
    <glyph glyph-name="nonmarkingreturn" horiz-adv-x="333" 
 />
    <glyph glyph-name="space" unicode=" " horiz-adv-x="197" 
 />
    <glyph glyph-name="space" unicode="&#xa0;" horiz-adv-x="197" 
 />
    <glyph glyph-name="exclam" unicode="!" horiz-adv-x="232" 
d="M233 704l-95 -519h-43l79 519h59zM50 26q0 20 14 37.5t36 17.5q16 0 25.5 -10.5t9.5 -25.5q0 -21 -13.5 -38t-36.5 -17q-16 0 -25.5 10t-9.5 26z" />
    <glyph glyph-name="quotedbl" unicode="&#x22;" horiz-adv-x="304" 
d="M154 716h57l-49 -212h-33zM284 716h57l-49 -212h-33z" />
    <glyph glyph-name="numbersign" unicode="#" horiz-adv-x="531" 
d="M463 597l-46 -170h93l-7 -38h-95l-42 -164h97l-7 -38h-99l-47 -173h-40l47 173h-115l-48 -173h-40l47 173h-92l6 38h96l41 164h-96l6 38h99l47 170h39l-46 -170h116l47 170h39zM252 389l-41 -164h115l42 164h-116z" />
    <glyph glyph-name="dollar" unicode="$" horiz-adv-x="472" 
d="M359 760l-18 -99q66 -3 115 -31l-14 -38q-67 30 -123 30q-61 0 -98.5 -36.5t-37.5 -94.5q0 -38 23 -65.5t55.5 -46t65 -39t55.5 -55.5t23 -83q0 -80 -51 -132t-128 -61l-18 -99h-41l17 98q-69 1 -130 36l13 40q67 -36 135 -36q65 0 109 39.5t44 105.5q0 41 -23 71.5
t-55.5 49.5t-65 39t-55.5 53.5t-23 80.5q0 70 49 118.5t118 55.5l17 99h42z" />
    <glyph glyph-name="percent" unicode="%" horiz-adv-x="807" 
d="M474 124q0 85 46 160.5t127 75.5q52 0 80 -38.5t28 -90.5q0 -98 -47.5 -167.5t-121.5 -69.5q-52 0 -82 36t-30 94zM638 325q-31 0 -55 -21.5t-37.5 -54.5t-20 -66t-6.5 -61q0 -92 67 -92q56 0 90.5 58.5t34.5 146.5q0 38 -17 64t-56 26zM109 442q0 52 17.5 104t58.5 92
t96 40q56 0 82.5 -40.5t26.5 -95.5q0 -95 -48.5 -163.5t-120.5 -68.5q-52 0 -82 37t-30 95zM272 643q-40 0 -68.5 -37.5t-39.5 -81.5t-11 -84q0 -93 71 -93q50 0 85.5 57t35.5 135q0 104 -73 104zM639 675h44l-455 -683h-45z" />
    <glyph glyph-name="ampersand" unicode="&#x26;" horiz-adv-x="582" 
d="M169 524q0 70 49 119.5t118 49.5q58 0 89 -32.5t31 -83.5q0 -125 -178 -211v-1q69 -111 152 -229q64 81 102 228h45q-46 -173 -125 -261q56 -75 71 -95l-34 -28q-36 43 -70 90q-88 -80 -207 -80q-79 0 -125.5 45.5t-46.5 113.5q0 140 174 229v1q-45 76 -45 145zM234 347
q-142 -80 -142 -190q0 -56 35.5 -92t94.5 -36q102 0 175 73q-135 201 -163 245zM257 398q30 15 51.5 28.5t47 35.5t39.5 50t14 60q0 35 -18.5 58t-58.5 23q-49 0 -82 -35.5t-33 -85.5q0 -66 40 -134z" />
    <glyph glyph-name="quotesingle" unicode="'" horiz-adv-x="185" 
d="M159 716h57l-48 -212h-34z" />
    <glyph glyph-name="parenleft" unicode="(" horiz-adv-x="286" 
d="M355 749q-227 -273 -227 -598q0 -170 69 -321h-36q-82 155 -82 332q0 167 66.5 317.5t167.5 269.5h42z" />
    <glyph glyph-name="parenright" unicode=")" horiz-adv-x="286" 
d="M-25 -170q226 276 226 595q0 171 -69 324h36q82 -153 82 -334q0 -166 -66.5 -315.5t-167.5 -269.5h-41z" />
    <glyph glyph-name="asterisk" unicode="*" horiz-adv-x="409" 
d="M231 530l1 4l-103 52q11 23 34 46l88 -71l5 2l9 123q27 5 53 0l-31 -123l3 -2l113 70q13 -19 18 -46l-119 -52l-1 -3l102 -52q-10 -21 -33 -46l-89 71l-5 -2l-9 -123q-27 -5 -53 0l31 123l-3 1l-112 -70q-11 16 -20 46z" />
    <glyph glyph-name="plus" unicode="+" horiz-adv-x="583" 
d="M375 503l-36 -215h209l-7 -40h-209l-36 -217h-42l36 217h-210l7 40h210l36 215h42z" />
    <glyph glyph-name="comma" unicode="," horiz-adv-x="212" 
d="M38 -134l-29 10q55 92 80 215l57 -8q-39 -120 -108 -217z" />
    <glyph glyph-name="hyphen" unicode="-" horiz-adv-x="390" 
d="M81 294h274l-7 -41h-273z" />
    <glyph glyph-name="hyphen" unicode="&#xad;" horiz-adv-x="390" 
d="M81 294h274l-7 -41h-273z" />
    <glyph glyph-name="period" unicode="." horiz-adv-x="210" 
d="M50 26q0 20 14 37.5t36 17.5q16 0 25.5 -10.5t9.5 -25.5q0 -21 -13.5 -38t-36.5 -17q-16 0 -25.5 10t-9.5 26z" />
    <glyph glyph-name="slash" unicode="/" horiz-adv-x="370" 
d="M397 690h46l-417 -716h-45z" />
    <glyph glyph-name="zero" unicode="0" horiz-adv-x="510" 
d="M338 620q-68 0 -119 -64.5t-74.5 -156t-26.5 -194.5q0 -79 25 -127t93 -48q54 0 96.5 41t67 106.5t37.5 135t15 139.5q0 168 -114 168zM343 660q157 0 157 -207q0 -119 -31 -223t-94 -172t-146 -68q-157 0 -160 209q0 120 32.5 224t96.5 170.5t145 66.5z" />
    <glyph glyph-name="one" unicode="1" horiz-adv-x="421" 
d="M287 602l-115 -60l-13 38l141 73h44l-112 -653h-47l104 602h-2z" />
    <glyph glyph-name="two" unicode="2" horiz-adv-x="486" 
d="M306 618q-63 0 -143 -45l-9 38q75 49 160 49q81 0 117 -45.5t36 -108.5q0 -48 -23 -99.5t-56 -94.5t-88 -95t-99.5 -88.5t-110.5 -86.5v-1h317l-12 -41h-373l6 38q81 65 124 101t102 91.5t88.5 94.5t51.5 86.5t22 90.5q0 47 -25.5 81.5t-84.5 34.5z" />
    <glyph glyph-name="three" unicode="3" horiz-adv-x="486" 
d="M180 31q89 0 137 51.5t48 120.5q0 64 -44 95t-107 31h-43l11 41h38q64 0 122 40t58 114q0 45 -28 69.5t-77 24.5q-69 0 -133 -35l-9 38q73 39 150 39q73 0 110.5 -37.5t37.5 -92.5q0 -63 -41.5 -112t-102.5 -66v-2q51 -13 80 -52.5t29 -92.5q0 -93 -66.5 -154t-174.5 -61
q-87 0 -140 35l14 39q72 -33 131 -33z" />
    <glyph glyph-name="four" unicode="4" horiz-adv-x="493" 
d="M94 230h237l46 256l18 103l-3 1l-84 -103l-214 -255v-2zM402 653h48l-73 -423h92l-11 -41h-89l-32 -189h-46l33 189h-294l7 34z" />
    <glyph glyph-name="five" unicode="5" horiz-adv-x="486" 
d="M229 607l-56 -211q25 4 50 4q84 0 139 -43t55 -122q0 -110 -72 -177.5t-177 -67.5q-76 0 -136 31l14 40q62 -30 131 -30q84 0 137 58t53 139q0 130 -166 130q-37 0 -79 -3l-1 1l76 294h282l-7 -43h-243z" />
    <glyph glyph-name="six" unicode="6" horiz-adv-x="503" 
d="M309 423q75 0 114.5 -48t39.5 -124q0 -104 -66.5 -182.5t-164.5 -78.5q-84 0 -126 56t-42 152q0 85 30.5 168t83.5 149t132 107t170 42l-6 -42q-71 0 -138.5 -31.5t-124 -99t-82.5 -159.5h2q33 41 82 66t96 25zM117 261q-7 -31 -7 -71q0 -73 34.5 -116.5t95.5 -43.5
q70 0 123 63.5t53 148.5q0 67 -31 103t-90 36q-51 0 -101 -35t-77 -85z" />
    <glyph glyph-name="seven" unicode="7" horiz-adv-x="460" 
d="M444 608h-313l7 42h363l-6 -37l-376 -613h-51l333 538l43 68v2z" />
    <glyph glyph-name="eight" unicode="8" horiz-adv-x="507" 
d="M334 661q71 0 114 -41t40 -106q-6 -110 -137 -170v-2q112 -57 107 -163q-4 -86 -69 -138t-152 -52t-136.5 45.5t-46.5 119.5q7 132 162 194v3q-88 52 -83 136q4 75 61.5 124.5t139.5 49.5zM239 30q71 0 118.5 39.5t50.5 103.5q6 110 -140 155q-67 -20 -114 -62.5
t-50 -107.5q-2 -54 33 -91t102 -37zM324 620q-60 0 -100 -37t-43 -92q-5 -93 119 -128q58 17 97 55.5t42 88.5q2 48 -25.5 80.5t-89.5 32.5z" />
    <glyph glyph-name="nine" unicode="9" horiz-adv-x="503" 
d="M256 232q-73 0 -112.5 47t-39.5 116q0 104 67 184.5t165 80.5q79 0 119 -53t42 -137q-2 -89 -29 -172.5t-77 -152.5t-130 -112t-178 -47l5 41q43 0 88 13.5t94.5 43.5t92.5 89t68 140h-3q-75 -81 -172 -81zM442 384q8 48 8 80q0 72 -31.5 113.5t-90.5 41.5
q-71 0 -123.5 -61.5t-52.5 -147.5q0 -60 29.5 -98t87.5 -38q49 0 96 31t77 79z" />
    <glyph glyph-name="colon" unicode=":" horiz-adv-x="202" 
d="M50 26q0 20 14 37.5t36 17.5q16 0 25.5 -10.5t9.5 -25.5q0 -21 -13.5 -38t-36.5 -17q-16 0 -25.5 10t-9.5 26zM112 388q0 20 14 37.5t36 17.5q16 0 25.5 -10.5t9.5 -25.5q0 -21 -13.5 -38t-36.5 -17q-16 0 -25.5 10t-9.5 26z" />
    <glyph glyph-name="semicolon" unicode=";" horiz-adv-x="215" 
d="M36 -134l-27 10q52 89 79 215l57 -8q-19 -56 -50.5 -118.5t-58.5 -98.5zM125 388q0 20 14 37.5t36 17.5q16 0 25.5 -10.5t9.5 -25.5q0 -21 -13.5 -38t-36.5 -17q-16 0 -25.5 10t-9.5 26z" />
    <glyph glyph-name="less" unicode="&#x3c;" horiz-adv-x="544" 
d="M462 23l-382 231l4 32l460 231l-8 -48l-402 -199l-1 -2l336 -199z" />
    <glyph glyph-name="equal" unicode="=" horiz-adv-x="583" 
d="M69 196h461l-6 -40h-461zM100 383h461l-6 -40h-461z" />
    <glyph glyph-name="greater" unicode="&#x3e;" horiz-adv-x="544" 
d="M122 517l382 -231l-4 -32l-460 -231l8 48l402 199l1 2l-336 199z" />
    <glyph glyph-name="question" unicode="?" horiz-adv-x="379" 
d="M168 652l4 40q28 4 42 4q86 0 127.5 -38t41.5 -97q0 -41 -18.5 -78t-46 -66.5t-56 -58.5t-51.5 -66t-30 -76q-3 -18 -3 -33h-46v17q0 41 20.5 81t50 72t58.5 62.5t49.5 65.5t20.5 70q0 47 -36.5 75t-100.5 28q-8 0 -26 -2zM88 26q0 20 14 37.5t36 17.5q16 0 25.5 -10.5
t9.5 -25.5q0 -21 -13.5 -38t-36.5 -17q-16 0 -25.5 10t-9.5 26z" />
    <glyph glyph-name="at" unicode="@" horiz-adv-x="788" 
d="M491 163h-2q-36 -58 -81 -93t-88 -35q-42 0 -66.5 27t-24.5 70q0 60 38 128t101.5 116.5t128.5 48.5q67 0 102 -29q-6 -19 -17.5 -52t-21 -61t-20 -61t-15.5 -59t-5 -48t10 -34t29 -12q51 0 90.5 49.5t56.5 110t17 111.5q0 98 -57 155.5t-168 57.5q-105 0 -196 -59
t-143.5 -155t-52.5 -203t61 -174t165 -67q67 0 120 22l3 -37q-60 -25 -131 -25q-112 0 -188 74.5t-76 196.5q0 119 56.5 225t160.5 173t231 67q120 0 190 -67.5t70 -178.5q0 -59 -24.5 -127.5t-76.5 -123.5t-116 -55q-86 0 -60 124zM525 277l34 103q-22 11 -58 11
q-86 0 -157.5 -82.5t-71.5 -172.5q0 -67 62 -67q47 0 105 63t86 145z" />
    <glyph glyph-name="A" unicode="A" horiz-adv-x="542" 
d="M387 684l107 -684h-48l-35 234h-252l-116 -234h-49l345 684h48zM355 625h-3l-50 -109l-121 -241h223l-36 241z" />
    <glyph glyph-name="B" unicode="B" horiz-adv-x="508" 
d="M273 338h-112l-51 -297q36 -3 74 -3q230 0 230 172q0 59 -39 93.5t-102 34.5zM316 645q-66 0 -102 -4l-46 -263h81q84 0 141 38.5t57 121.5q0 52 -33.5 79.5t-97.5 27.5zM57 2l116 675q85 9 151 9q85 0 129 -38t44 -105q0 -66 -39 -116.5t-102 -67.5v-2
q47 -13 77.5 -51.5t30.5 -95.5q0 -59 -23 -101.5t-64 -66.5t-89.5 -34.5t-107.5 -10.5q-65 0 -123 5z" />
    <glyph glyph-name="B" unicode="&#xe000;" horiz-adv-x="508" 
d="M273 338h-112l-51 -297q36 -3 74 -3q230 0 230 172q0 59 -39 93.5t-102 34.5zM316 645q-66 0 -102 -4l-46 -263h81q84 0 141 38.5t57 121.5q0 52 -33.5 79.5t-97.5 27.5zM57 2l116 675q85 9 151 9q85 0 129 -38t44 -105q0 -66 -39 -116.5t-102 -67.5v-2
q47 -13 77.5 -51.5t30.5 -95.5q0 -59 -23 -101.5t-64 -66.5t-89.5 -34.5t-107.5 -10.5q-65 0 -123 5z" />
    <glyph glyph-name="C" unicode="C" horiz-adv-x="537" 
d="M420 652q-92 0 -162.5 -58t-105 -143.5t-34.5 -179.5q0 -106 48 -173t154 -67q94 0 161 32l4 -41q-76 -32 -171 -32q-119 0 -183 74t-64 200q0 83 25 159.5t70.5 136.5t117.5 96t159 36q96 0 143 -32l-14 -39q-59 31 -148 31z" />
    <glyph glyph-name="D" unicode="D" horiz-adv-x="617" 
d="M57 0l116 677q78 9 164 9q133 0 202 -67t69 -198q0 -118 -43.5 -213t-133.5 -153t-213 -58q-23 0 -49.5 0.5t-60 1.5t-51.5 1zM333 645q-60 0 -120 -5l-103 -599q33 -3 90 -3q168 -3 263 101t95 272q0 106 -53 170t-172 64z" />
    <glyph glyph-name="E" unicode="E" horiz-adv-x="462" 
d="M498 683l-11 -41h-273l-46 -266h253l-11 -41h-249l-51 -294h291l-11 -41h-334l118 683h324z" />
    <glyph glyph-name="E" unicode="&#xe001;" horiz-adv-x="462" 
d="M498 683l-11 -41h-273l-46 -266h253l-11 -41h-249l-51 -294h291l-11 -41h-334l118 683h324z" />
    <glyph glyph-name="F" unicode="F" horiz-adv-x="449" 
d="M498 683l-11 -41h-273l-48 -276h248l-11 -41h-244l-56 -325h-47l118 683h324z" />
    <glyph glyph-name="G" unicode="G" horiz-adv-x="583" 
d="M349 283l11 41h191l-51 -299q-76 -33 -174 -33q-123 0 -191 75t-68 200q0 110 43.5 206t129.5 157t197 61q92 0 152 -32l-13 -40q-64 30 -150 30q-69 0 -128 -33t-98 -86.5t-61 -121.5t-22 -138q2 -109 54 -173t164 -64q66 0 123 20l40 230h-149z" />
    <glyph glyph-name="H" unicode="H" horiz-adv-x="604" 
d="M161 336l-58 -336h-47l118 683h47l-53 -305h342l53 305h46l-118 -683h-47l58 336h-341z" />
    <glyph glyph-name="I" unicode="I" horiz-adv-x="216" 
d="M221 683l-118 -683h-47l118 683h47z" />
    <glyph glyph-name="J" unicode="J" horiz-adv-x="212" 
d="M91 184l84 499h47l-85 -501q-22 -150 -71 -220.5t-166 -82.5v41q94 10 132 68.5t59 195.5z" />
    <glyph glyph-name="K" unicode="K" horiz-adv-x="497" 
d="M221 683l-59 -339l75 44l272 295h59l-287 -309l184 -374h-55l-168 343l-89 -51l-50 -292h-47l118 683h47z" />
    <glyph glyph-name="L" unicode="L" horiz-adv-x="434" 
d="M174 683h47l-111 -642h287l-12 -41h-329z" />
    <glyph glyph-name="M" unicode="M" horiz-adv-x="749" 
d="M363 0h-39l-100 620h-3l-41 -206l-89 -414h-47l150 683h60l81 -486l19 -128h3l63 125l254 489h62l-87 -683h-47q36 276 55 414l30 206h-3z" />
    <glyph glyph-name="N" unicode="N" horiz-adv-x="611" 
d="M499 0h-50q-19 49 -109.5 274t-132.5 344h-3l-102 -618h-46l118 683h51q215 -531 242 -619h2l101 619h46z" />
    <glyph glyph-name="O" unicode="O" horiz-adv-x="636" 
d="M391 652q-68 0 -122 -36.5t-86 -95t-48.5 -124.5t-16.5 -133q0 -102 43.5 -167.5t142.5 -65.5q66 0 120 35.5t87 92.5t50.5 125.5t17.5 138.5q0 230 -188 230zM398 693q119 0 174.5 -76t55.5 -195q0 -57 -11.5 -115t-37 -115.5t-63 -102t-94 -72t-124.5 -27.5
q-116 0 -172.5 75.5t-56.5 192.5q0 57 11.5 115.5t37.5 116.5t63 102.5t93.5 72.5t123.5 28z" />
    <glyph glyph-name="P" unicode="P" horiz-adv-x="500" 
d="M257 294q-56 0 -103 4l-51 -298h-47l117 677q70 9 132 9q205 0 205 -157q0 -112 -72.5 -173.5t-180.5 -61.5zM213 640l-52 -300q35 -5 75 -5q106 0 165 48t59 140q0 66 -40 94t-126 28q-48 0 -81 -5z" />
    <glyph glyph-name="Q" unicode="Q" horiz-adv-x="636" 
d="M391 652q-68 0 -122 -36.5t-86 -95t-48.5 -124.5t-16.5 -133q0 -100 43.5 -161.5t143.5 -61.5q87 0 151.5 58.5t93.5 143.5t29 180q0 230 -188 230zM443 43v-2h191l-11 -41h-324q-115 0 -172.5 71.5t-57.5 186.5q0 57 11.5 115.5t37.5 116.5t63 102.5t93.5 72.5t123.5 28
q119 0 174.5 -76t55.5 -195q0 -113 -47 -219.5t-138 -159.5z" />
    <glyph glyph-name="R" unicode="R" horiz-adv-x="505" 
d="M504 533q0 -79 -48 -136t-131 -73v-2l123 -322h-50l-119 314h-122l-54 -314h-47l117 677q73 9 156 9q86 0 130.5 -42t44.5 -111zM214 640l-50 -286h81q102 0 155.5 46.5t53.5 130.5q0 63 -38.5 88.5t-122.5 25.5q-46 0 -79 -5z" />
    <glyph glyph-name="S" unicode="S" horiz-adv-x="456" 
d="M194 31q70 0 118 42.5t48 115.5q0 43 -25 76t-60.5 54.5t-71 44t-60.5 57.5t-25 82q0 86 61.5 138t145.5 52q79 0 137 -34l-14 -39q-64 32 -131 32q-65 0 -107 -41t-42 -99q0 -41 25 -71.5t60 -52t70.5 -44.5t60.5 -61t25 -89q0 -86 -60.5 -145t-163.5 -59q-94 0 -151 40
l14 39q68 -38 146 -38z" />
    <glyph glyph-name="S" unicode="&#xe002;" horiz-adv-x="456" 
d="M194 31q70 0 118 42.5t48 115.5q0 43 -25 76t-60.5 54.5t-71 44t-60.5 57.5t-25 82q0 86 61.5 138t145.5 52q79 0 137 -34l-14 -39q-64 32 -131 32q-65 0 -107 -41t-42 -99q0 -41 25 -71.5t60 -52t70.5 -44.5t60.5 -61t25 -89q0 -86 -60.5 -145t-163.5 -59q-94 0 -151 40
l14 39q68 -38 146 -38z" />
    <glyph glyph-name="T" unicode="T" horiz-adv-x="451" 
d="M283 642h-199l11 41h440l-11 -41h-195l-110 -642h-47z" />
    <glyph glyph-name="U" unicode="U" horiz-adv-x="598" 
d="M272 -10q-82 0 -132 45.5t-50 137.5q0 41 11 113l69 397h48l-75 -433q-39 -219 137 -219q167 0 205 218l75 434h47l-75 -438q-24 -132 -92 -193.5t-168 -61.5z" />
    <glyph glyph-name="V" unicode="V" horiz-adv-x="514" 
d="M588 683l-342 -683h-49l-97 683h49l67 -503l15 -122h3l58 122l245 503h51z" />
    <glyph glyph-name="W" unicode="W" horiz-adv-x="798" 
d="M863 683l-300 -683h-51l-27 493l-6 132h-3l-52 -132l-214 -493h-51l-49 683h48l35 -618h3l54 129l212 489h52l31 -489l4 -129h2l263 618h49z" />
    <glyph glyph-name="X" unicode="X" horiz-adv-x="509" 
d="M193 191l-137 -191h-57l262 348l-135 335h53l78 -207l36 -92h2l64 87l157 212h56l-258 -334l143 -349h-52l-76 192l-46 120h-2z" />
    <glyph glyph-name="Y" unicode="Y" horiz-adv-x="493" 
d="M267 323h3l63 98l172 262h54l-276 -404l-48 -279h-46l48 279l-133 404h52l81 -262z" />
    <glyph glyph-name="Z" unicode="Z" horiz-adv-x="496" 
d="M546 683l-6 -37l-470 -603v-2h372l-11 -41h-428l6 34l471 606v2h-338l12 41h392z" />
    <glyph glyph-name="bracketleft" unicode="[" horiz-adv-x="286" 
d="M204 -159h-164l153 908h168l-11 -38h-119l-140 -832h123z" />
    <glyph glyph-name="backslash" unicode="\" horiz-adv-x="368" 
d="M98 690h44l194 -716h-46z" />
    <glyph glyph-name="bracketright" unicode="]" horiz-adv-x="286" 
d="M138 -158h-167l10 38h120l140 830h-123l10 39h164z" />
    <glyph glyph-name="asciicircum" unicode="^" horiz-adv-x="566" 
d="M342 616l-216 -316h-41l251 376h35l117 -376h-40l-105 316h-1z" />
    <glyph glyph-name="underscore" unicode="_" horiz-adv-x="538" 
d="M3 -66h468l-7 -45h-469z" />
    <glyph glyph-name="grave" unicode="`" horiz-adv-x="370" 
d="M318 689l61 -146h-34l-97 146h70z" />
    <glyph glyph-name="a" unicode="a" 
d="M485 490l-33 -190q-33 -199 -37 -300h-46l18 155h-2q-36 -76 -87.5 -120.5t-107.5 -44.5q-63 0 -99.5 44t-36.5 114q0 81 34.5 159.5t101 132.5t147.5 54q58 0 98 -25h2l13 18zM407 303l21 127q-34 24 -80 24q-101 0 -174 -89.5t-73 -210.5q0 -55 23.5 -89.5t75.5 -34.5
q63 0 125.5 82.5t81.5 190.5z" />
    <glyph glyph-name="b" unicode="b" 
d="M95 269l81 458l47 4l-63 -359h2q32 59 79 92t101 33q73 0 108.5 -50.5t35.5 -127.5q0 -82 -31 -156t-94.5 -123.5t-145.5 -49.5q-81 0 -132 50q-13 83 12 229zM332 456q-57 0 -109.5 -55.5t-82 -147.5t-21.5 -188q35 -35 99 -35q69 0 121 46t75.5 110t23.5 132
q0 61 -26 99.5t-80 38.5z" />
    <glyph glyph-name="b" unicode="&#xe003;" 
d="M95 269l81 458l47 4l-63 -359h2q32 59 79 92t101 33q73 0 108.5 -50.5t35.5 -127.5q0 -82 -31 -156t-94.5 -123.5t-145.5 -49.5q-81 0 -132 50q-13 83 12 229zM332 456q-57 0 -109.5 -55.5t-82 -147.5t-21.5 -188q35 -35 99 -35q69 0 121 46t75.5 110t23.5 132
q0 61 -26 99.5t-80 38.5z" />
    <glyph glyph-name="c" unicode="c" horiz-adv-x="438" 
d="M326 455q-98 0 -159.5 -84t-61.5 -191q0 -71 35 -110t104 -39q68 0 130 29l6 -41q-62 -29 -145 -29q-88 0 -132.5 49.5t-46.5 129.5q0 138 78 232.5t201 94.5q76 0 113 -24l-13 -40q-56 23 -109 23z" />
    <glyph glyph-name="d" unicode="d" 
d="M435 469h2l42 258l48 4l-75 -431q-33 -199 -37 -300h-46l18 155h-2q-36 -76 -87.5 -120.5t-107.5 -44.5q-63 0 -99.5 44t-36.5 114q0 81 34.5 159.5t101 132.5t147.5 54q58 0 98 -25zM407 303l21 127q-34 24 -80 24q-101 0 -174 -89.5t-73 -210.5q0 -55 23.5 -89.5
t75.5 -34.5q63 0 125.5 82.5t81.5 190.5z" />
    <glyph glyph-name="e" unicode="e" horiz-adv-x="450" 
d="M107 236q-4 -19 -4 -47q0 -77 33.5 -117.5t95.5 -40.5q70 0 140 32l6 -38q-70 -35 -152 -35q-90 0 -130.5 53t-40.5 138q0 127 73.5 221.5t176.5 94.5q64 0 98 -31.5t36 -78.5q0 -74 -67.5 -115.5t-180.5 -41.5q-41 0 -84 6zM114 276q41 -7 82 -7q87 0 140 30.5t53 81.5
q0 34 -25 54.5t-67 20.5q-63 0 -113 -51t-70 -129z" />
    <glyph glyph-name="f" unicode="f" horiz-adv-x="276" 
d="M89 483l63 4q25 134 61.5 191t120.5 57q22 0 50 -6l-11 -40q-20 2 -27 2q-66 2 -96 -36.5t-51 -167.5h118l-11 -39h-114l-90 -539h-47l90 539h-67z" />
    <glyph glyph-name="g" unicode="g" 
d="M388 155h-2q-36 -76 -87 -120.5t-108 -44.5q-63 0 -99.5 44t-36.5 114q0 81 34.5 159.5t101 132.5t147.5 54q58 0 98 -25h2l13 18l35 3l-84 -488q-22 -121 -87.5 -176.5t-157.5 -55.5q-87 0 -140 32l13 40q59 -31 133 -31q155 0 197 203zM408 303l21 127q-34 24 -80 24
q-101 0 -174 -89.5t-73 -210.5q0 -55 23.5 -89.5t75.5 -34.5q63 0 125.5 82.5t81.5 190.5z" />
    <glyph glyph-name="h" unicode="h" horiz-adv-x="528" 
d="M356 497q52 0 85.5 -31t33.5 -102q0 -29 -5 -64l-51 -300h-47l50 295q6 32 6 64q0 46 -18.5 71t-66.5 25q-50 0 -113.5 -75t-85.5 -160q-15 -58 -42 -220h-46l125 727l48 4l-69 -403h2q31 68 83 118.5t111 50.5z" />
    <glyph glyph-name="i" unicode="i" horiz-adv-x="214" 
d="M56 0l84 487l47 3l-85 -490h-46zM154 642q0 16 10.5 27t24.5 11t24.5 -11t10.5 -27t-10.5 -26.5t-24.5 -10.5t-24.5 10.5t-10.5 26.5z" />
    <glyph glyph-name="j" unicode="j" horiz-adv-x="209" 
d="M186 490l-78 -453q-23 -129 -75 -189.5t-133 -74.5v35q127 29 159 213l80 466zM153 642q0 16 10.5 27t24.5 11t24.5 -11t10.5 -27t-10.5 -26.5t-24.5 -10.5t-24.5 10.5t-10.5 26.5z" />
    <glyph glyph-name="k" unicode="k" horiz-adv-x="454" 
d="M229 731l-82 -472q39 8 83.5 29t85.5 51t65.5 70.5t18.5 81.5l42 6q10 -71 -39.5 -131t-128.5 -102l144 -264h-52l-133 245q-27 -12 -93 -26l-38 -219h-46l125 727z" />
    <glyph glyph-name="l" unicode="l" horiz-adv-x="214" 
d="M56 0l125 727l48 4l-127 -731h-46z" />
    <glyph glyph-name="m" unicode="m" horiz-adv-x="814" 
d="M456 356h2q31 68 81.5 104.5t103.5 36.5q147 0 110 -216l-49 -281h-46l50 295q4 36 6.5 71.5t-18.5 62t-67 26.5q-58 0 -112.5 -63t-71.5 -154l-42 -238h-46l51 299q28 156 -67 156q-58 0 -125.5 -93t-87.5 -210l-26 -152h-46l53 299q6 36 28 188l45 3l-25 -163h2
q12 26 30.5 53t44 54.5t57.5 45t63 17.5q53 0 80 -38t22 -103z" />
    <glyph glyph-name="n" unicode="n" horiz-adv-x="528" 
d="M357 497q73 0 101 -49t15 -125l-54 -323h-47l50 294q5 33 6 56.5t-4.5 50t-26.5 40.5t-56 14q-56 0 -125 -89.5t-89 -214.5l-25 -151h-46l53 299q15 87 28 188l45 3l-25 -163h2q34 70 86.5 120t111.5 50z" />
    <glyph glyph-name="o" unicode="o" horiz-adv-x="510" 
d="M307 498q95 0 138.5 -63.5t36.5 -158.5q-4 -72 -33 -136t-86.5 -107.5t-130.5 -43.5q-91 0 -135.5 62.5t-38.5 156.5q5 120 74 205t175 85zM303 457q-83 0 -137.5 -73.5t-59.5 -173.5q-5 -78 30 -129t102 -51q80 0 135.5 74.5t60.5 172.5q5 71 -26.5 125.5t-104.5 54.5z
" />
    <glyph glyph-name="p" unicode="p" 
d="M331 456q-61 0 -120.5 -68.5t-78.5 -182.5l-25 -146q48 -29 113 -29q64 0 115 43.5t77 109.5t26 137q0 57 -26 96.5t-81 39.5zM157 369h2q31 56 80.5 92t103.5 36q71 0 106 -47.5t37 -121.5q0 -138 -76 -238t-193 -100q-70 0 -116 26h-2l-39 -235h-48l90 518
q15 87 28 188l45 3z" />
    <glyph glyph-name="q" unicode="q" 
d="M354 0l33 155h-2q-36 -76 -87.5 -120.5t-107.5 -44.5q-63 0 -99.5 44t-36.5 114q0 81 34.5 159.5t101 132.5t147.5 54q58 0 98 -25h2l13 18l35 3l-33 -190l-88 -519h-47zM407 303l21 127q-34 24 -80 24q-101 0 -174 -89.5t-73 -210.5q0 -55 23.5 -89.5t75.5 -34.5
q63 0 125.5 82.5t81.5 190.5z" />
    <glyph glyph-name="r" unicode="r" horiz-adv-x="311" 
d="M162 366h2q65 133 177 130l-9 -49q-45 0 -80.5 -22.5t-58 -61.5t-36.5 -81t-22 -92l-33 -190h-46l52 299q15 87 28 188l45 3z" />
    <glyph glyph-name="s" unicode="s" horiz-adv-x="377" 
d="M153 31q50 0 84 28t34 73q0 30 -18 52.5t-44 37.5t-52 31t-44 42t-18 60q0 66 45.5 103.5t117.5 37.5q56 0 102 -23l-14 -41q-40 23 -92 23q-47 0 -78.5 -24t-33.5 -62q0 -30 18 -52.5t44 -37t52 -30t44 -41.5t18 -62q0 -73 -49 -114.5t-123 -41.5q-67 0 -114 28l13 40
q50 -27 108 -27z" />
    <glyph glyph-name="s" unicode="&#xe004;" horiz-adv-x="377" 
d="M153 31q50 0 84 28t34 73q0 30 -18 52.5t-44 37.5t-52 31t-44 42t-18 60q0 66 45.5 103.5t117.5 37.5q56 0 102 -23l-14 -41q-40 23 -92 23q-47 0 -78.5 -24t-33.5 -62q0 -30 18 -52.5t44 -37t52 -30t44 -41.5t18 -62q0 -73 -49 -114.5t-123 -41.5q-67 0 -114 28l13 40
q50 -27 108 -27z" />
    <glyph glyph-name="t" unicode="t" horiz-adv-x="311" 
d="M100 147l51 301h-72l10 35l70 4l24 109l43 12l-21 -121h124l-11 -39h-120l-47 -275q-1 -3 -3.5 -16.5t-3.5 -20t-2.5 -20.5t-1 -22t1 -19.5t4.5 -18t9 -13.5t14 -10t21 -3q30 0 55 10l1 -39q-33 -11 -67 -11q-43 0 -64 22.5t-21 57t6 77.5z" />
    <glyph glyph-name="u" unicode="u" horiz-adv-x="521" 
d="M390 124h-2q-30 -63 -80.5 -98.5t-105.5 -35.5q-62 0 -93.5 31.5t-32.5 81t9 110.5l47 274h47l-49 -288q-6 -33 -6.5 -57t5 -52t27 -43.5t59.5 -15.5q52 0 107 52.5t75 134.5q9 38 17.5 82t17.5 102t14 85h46l-33 -187q-33 -199 -37 -300h-46z" />
    <glyph glyph-name="v" unicode="v" horiz-adv-x="441" 
d="M193 0h-46l-73 487h47l46 -318l16 -113h2l80 116l87 125q62 93 24 190h50q17 -35 9.5 -96t-43.5 -112z" />
    <glyph glyph-name="w" unicode="w" horiz-adv-x="728" 
d="M408 487l46 -318l16 -113h2l80 116l87 125q62 93 24 190h50q17 -35 9.5 -96t-43.5 -112l-199 -279h-46l-42 280h-1l-23 -36l-175 -244h-46l-73 487h47l46 -318l16 -113h2l80 116l118 168l-22 147h47z" />
    <glyph glyph-name="x" unicode="x" horiz-adv-x="424" 
d="M317 0l-98 216h-2l-169 -216h-53l205 251l-110 236h52l90 -201h2l158 201h54l-195 -236l118 -251h-52z" />
    <glyph glyph-name="y" unicode="y" horiz-adv-x="432" 
d="M74 487h47l54 -318l17 -109h2l73 109l85 128q62 93 24 190h50q17 -35 9.5 -96t-43.5 -112l-187 -279l16 -101q13 -72 -34 -106t-176 -34v40q102 0 138.5 22.5t27.5 70.5z" />
    <glyph glyph-name="y" unicode="&#xe006;" horiz-adv-x="432" 
d="M74 487h47l54 -318l17 -109h2l73 109l85 128q62 93 24 190h50q17 -35 9.5 -96t-43.5 -112l-187 -279l16 -101q13 -72 -34 -106t-176 -34v40q102 0 138.5 22.5t27.5 70.5z" />
    <glyph glyph-name="z" unicode="z" horiz-adv-x="406" 
d="M430 487l-6 -36l-359 -409v-2h292l-7 -40h-349l5 33l362 411v3h-271l8 40h325z" />
    <glyph glyph-name="braceleft" unicode="{" horiz-adv-x="326" 
d="M380 745l-10 -32q-62 0 -94.5 -26t-39.5 -91l-14 -180q-10 -59 -34 -86.5t-66 -41.5v-2q62 -22 62 -85q0 -33 -26 -128.5t-27 -119.5q0 -39 16 -59t54 -22l31 -2l-10 -32q-70 0 -103 21.5t-33 81.5q0 43 26.5 127t26.5 131q0 32 -17 51.5t-66 20.5l5 34q57 4 81.5 27
t32.5 77q5 32 8.5 100t8.5 97q12 72 50 104.5t104 34.5h34z" />
    <glyph glyph-name="bar" unicode="|" horiz-adv-x="223" 
d="M133 774v-971h-43v971h43z" />
    <glyph glyph-name="braceright" unicode="}" horiz-adv-x="323" 
d="M-16 -162l10 32q62 0 91.5 24.5t41.5 91.5l14 179q10 59 34 86.5t67 41.5v2q-62 24 -62 87q0 29 25.5 126.5t26.5 120.5q0 46 -20.5 61.5t-80.5 22.5l10 32q69 0 102.5 -22t33.5 -82q0 -43 -26.5 -135.5t-26.5 -123.5t17.5 -50.5t65.5 -21.5l-5 -34q-52 -3 -77 -24
t-34 -62q-8 -34 -12 -110.5t-8 -102.5q-12 -72 -50.5 -104.5t-104.5 -34.5h-32z" />
    <glyph glyph-name="asciitilde" unicode="~" horiz-adv-x="580" 
d="M131 257l-33 5q4 50 37 81.5t77 31.5q37 0 108.5 -33.5t112.5 -33.5q54 0 70 71l32 -5q-4 -53 -34 -83.5t-71 -30.5q-40 0 -113 34.5t-116 34.5q-54 0 -70 -72z" />
    <glyph glyph-name="exclamdown" unicode="&#xa1;" horiz-adv-x="234" 
d="M26 -205l95 519h43l-79 -519h-59zM209 473q0 -20 -14 -37.5t-36 -17.5q-16 0 -25.5 10.5t-9.5 25.5q0 21 13.5 38t36.5 17q16 0 25.5 -10t9.5 -26z" />
    <glyph glyph-name="cent" unicode="&#xa2;" horiz-adv-x="472" 
d="M380 655l-18 -106q64 0 107 -27l-16 -38q-46 24 -106 24q-87 0 -151.5 -71.5t-64.5 -188.5q0 -71 35 -112.5t104 -41.5q65 0 123 25l4 -39q-47 -26 -123 -26l-18 -102h-42l19 102q-76 11 -113 61t-37 123q0 124 67.5 211.5t170.5 98.5l17 107h42z" />
    <glyph glyph-name="sterling" unicode="&#xa3;" horiz-adv-x="498" 
d="M226 353h162l-11 -38h-152q-3 -89 -26 -155t-81 -117v-2h334l-10 -41h-391l2 30q68 47 96 116.5t31 168.5h-84l10 38h76q0 103 8 149q13 83 68 128.5t129 45.5q64 0 108 -22l-13 -40q-46 22 -87 22q-138 0 -158 -133q-9 -62 -11 -150z" />
    <glyph glyph-name="currency" unicode="&#xa4;" horiz-adv-x="480" 
d="M281 483q67 0 106 -41l78 77l21 -23l-81 -74q32 -42 32 -102q0 -79 -52 -136l66 -75l-26 -24l-63 76q-46 -40 -113 -40q-66 0 -106 38l-74 -74l-20 24l75 72q-33 43 -33 103q0 76 56 137l-66 75l25 23l63 -77q48 41 112 41zM277 453q-64 -1 -108 -51.5t-44 -117.5
q0 -62 37.5 -98t87.5 -36q66 0 110 50t44 118q0 56 -34 95.5t-93 39.5z" />
    <glyph glyph-name="yen" unicode="&#xa5;" horiz-adv-x="500" 
d="M243 0h-46l31 190h-149l11 38h145l6 36h-149l10 38h137l-116 365h52l99 -334h2l211 334h52l-238 -365h141l-10 -38h-145l-6 -36h149l-11 -38h-145z" />
    <glyph glyph-name="brokenbar" unicode="&#xa6;" horiz-adv-x="218" 
d="M182 725l-18 -354h-42l18 354h42zM154 204l-18 -353h-42l18 353h42z" />
    <glyph glyph-name="section" unicode="&#xa7;" horiz-adv-x="488" 
d="M381 111q-3 -71 -55 -109t-127 -38t-129 32l13 38q66 -31 123 -31q53 0 90.5 27t39.5 75q0 35 -23 61.5t-56 43.5l-66 34t-56 44t-23 64q0 77 86 131v2q-26 28 -26 66q0 65 48.5 103.5t123.5 38.5q69 0 120 -29l-14 -37q-52 28 -114 28q-48 0 -83 -25.5t-35 -66.5
q0 -31 22.5 -54t54 -38.5t63.5 -32t54.5 -44.5t22.5 -67q0 -84 -76 -136v-2q22 -29 22 -78zM158 360q2 -36 31 -60.5t76 -46.5t66 -38q59 39 59 101q0 35 -26.5 59.5t-72.5 47.5t-62 36q-68 -31 -71 -99z" />
    <glyph glyph-name="dieresis" unicode="&#xa8;" horiz-adv-x="401" 
d="M231 611q0 18 12.5 33.5t32.5 15.5q15 0 23.5 -9t8.5 -23q0 -19 -12.5 -34t-32.5 -15q-15 0 -23.5 9t-8.5 23zM403 611q0 18 12.5 33.5t32.5 15.5q15 0 23.5 -9t8.5 -23q0 -19 -12.5 -34t-32.5 -15q-15 0 -23.5 9t-8.5 23z" />
    <glyph glyph-name="copyright" unicode="&#xa9;" horiz-adv-x="762" 
d="M97 326q0 138 99 240.5t242 102.5q128 0 214.5 -89.5t86.5 -219.5q0 -141 -99.5 -242.5t-237.5 -101.5q-130 0 -217.5 90t-87.5 220zM435 636q-124 0 -211.5 -94t-87.5 -220q0 -116 76.5 -194.5t190.5 -78.5q122 0 209.5 90.5t87.5 221.5q0 117 -76 196t-189 79zM446 485
q-63 0 -103.5 -43t-40.5 -113q0 -58 31 -97.5t96 -39.5q63 0 104 24l5 -28q-46 -27 -100 -27q-87 0 -130.5 44.5t-43.5 120.5q0 82 51 136.5t132 54.5q62 0 102 -24l-8 -30q-44 22 -95 22z" />
    <glyph glyph-name="ordfeminine" unicode="&#xaa;" horiz-adv-x="316" 
d="M357 699l-22 -132q-8 -50 -10 -80h-27l1 41h-2q-49 -47 -108 -47q-42 0 -62 23.5t-15 59.5q5 29 18 47t35.5 26t41 10t48.5 2h63l7 46q12 43 0.5 65.5t-62.5 22.5q-45 0 -90 -21l-2 26q50 22 97 22q66 0 82.5 -27t6.5 -84zM198 507q34 0 68.5 21t40.5 54l7 41h-63h-23.5
t-21 -1.5t-22 -4.5t-16 -9t-14.5 -15.5t-7 -23.5q-5 -30 9.5 -46t41.5 -16z" />
    <glyph glyph-name="guillemotleft" unicode="&#xab;" horiz-adv-x="443" 
d="M281 414l-156 -159l97 -157l-31 -21l-111 180l174 180zM443 414l-156 -159l97 -157l-31 -21l-111 180l174 180z" />
    <glyph glyph-name="logicalnot" unicode="&#xac;" horiz-adv-x="596" 
d="M537 351v-238h-44v197h-434v41h478z" />
    <glyph glyph-name="registered" unicode="&#xae;" horiz-adv-x="573" 
d="M106 443q0 101 73.5 174.5t177.5 73.5q91 0 152.5 -61t61.5 -150q0 -102 -74.5 -175.5t-175.5 -73.5q-92 0 -153.5 61t-61.5 151zM355 661q-86 -2 -150 -65t-64 -150q0 -78 52 -130.5t130 -52.5q87 0 149.5 63t62.5 152q0 77 -51.5 130t-128.5 53zM330 435h-38l-14 -88
h-31l37 222q46 4 73 4q42 0 60.5 -18t13.5 -49q-4 -24 -23 -42t-46 -24v-1l51 -92h-34zM311 546l-14 -86h38q56 0 63 44q4 21 -8 32.5t-39 11.5q-18 0 -40 -2z" />
    <glyph glyph-name="macron" unicode="&#xaf;" horiz-adv-x="422" 
d="M250 637h240l-6 -39h-240z" />
    <glyph glyph-name="degree" unicode="&#xb0;" horiz-adv-x="322" 
d="M137 594q0 50 34 84t79 34q41 0 69 -29.5t28 -71.5q0 -50 -34.5 -83.5t-79.5 -33.5q-41 0 -68.5 29t-27.5 71zM169 596q0 -29 19.5 -49t47.5 -20q31 0 55 23.5t24 58.5q0 29 -20 49.5t-48 20.5q-31 0 -54.5 -23.5t-23.5 -59.5z" />
    <glyph glyph-name="plusminus" unicode="&#xb1;" horiz-adv-x="583" 
d="M500 0h-461l7 40h210l35 208h-210l7 40h210l36 215h42l-36 -215h209l-7 -40h-209l-35 -208h209z" />
    <glyph glyph-name="twosuperior" unicode="&#xb2;" horiz-adv-x="289" 
d="M77 441l4 32q9 7 37.5 29.5t48.5 39t48 43.5t46 49.5t31 50t13 51.5q0 61 -64 61q-37 0 -85 -27l-7 34q53 32 105 32q47 0 72 -26.5t25 -67.5q0 -34 -15.5 -67.5t-50 -69t-63.5 -60.5t-80 -65v-1h173l-11 -38h-227z" />
    <glyph glyph-name="threesuperior" unicode="&#xb3;" horiz-adv-x="283" 
d="M177 471q48 0 73 25.5t25 63.5q0 35 -26.5 52t-63.5 17h-22l10 36h20q40 0 70.5 22.5t30.5 58.5q0 50 -61 50q-38 0 -79 -24l-5 35q45 27 95 27q47 0 72 -22.5t25 -57.5q0 -73 -85 -104v-2q30 -9 47.5 -32.5t17.5 -54.5q0 -58 -40 -92t-108 -34q-56 0 -91 22l12 36
q37 -22 83 -22z" />
    <glyph glyph-name="acute" unicode="&#xb4;" horiz-adv-x="370" 
d="M380 689h74l-139 -146h-38z" />
    <glyph glyph-name="mu" unicode="&#xb5;" horiz-adv-x="521" 
d="M41 -43l92 530h47l-49 -288q-6 -33 -6.5 -57t5 -52t27 -43.5t59.5 -15.5q52 0 107 52.5t75 134.5q9 38 17.5 82t17.5 102t14 85h46l-33 -187q-33 -199 -37 -300h-46l14 124h-2q-30 -63 -80.5 -98.5t-105.5 -35.5q-73 0 -103 43l-13 -79q-8 -48 -15 -76.5t-22 -59.5
t-37 -43l-29 22q16 9 27 34.5t15.5 48t14.5 77.5z" />
    <glyph glyph-name="paragraph" unicode="&#xb6;" horiz-adv-x="507" 
d="M243 -43l-42 -4l55 311q-74 0 -127 41.5t-53 116.5q0 115 82 179.5t211 72.5zM361 -43l-43 -4l127 719h42z" />
    <glyph glyph-name="periodcentered" unicode="&#xb7;" horiz-adv-x="212" 
d="M81 249q0 20 14 37.5t36 17.5q16 0 25.5 -10.5t9.5 -25.5q0 -21 -13.5 -38t-36.5 -17q-16 0 -25.5 10t-9.5 26z" />
    <glyph glyph-name="cedilla" unicode="&#xb8;" horiz-adv-x="374" 
d="M139 0h39l-28 -58q50 -22 50 -63q0 -36 -31.5 -62t-78.5 -26q-28 0 -46 8l11 35q18 -5 37 -5q26 0 45 11t19 33q0 34 -46 46q6 42 29 81z" />
    <glyph glyph-name="onesuperior" unicode="&#xb9;" horiz-adv-x="243" 
d="M272 833l-67 -392h-44l60 347h-1l-69 -34l-11 33l95 46h37z" />
    <glyph glyph-name="ordmasculine" unicode="&#xba;" horiz-adv-x="330" 
d="M287 811q62 0 90 -41t24 -103q-4 -74 -48 -130.5t-115 -56.5q-59 0 -88 40.5t-25 101.5q4 78 48.5 133.5t113.5 55.5zM284 784q-54 0 -89.5 -47.5t-38.5 -112.5q-3 -51 19.5 -84t66.5 -33q52 0 88.5 48.5t38.5 111.5q4 47 -16.5 82t-68.5 35z" />
    <glyph glyph-name="guillemotright" unicode="&#xbb;" horiz-adv-x="443" 
d="M202 100l156 159l-97 157l31 21l111 -180l-174 -180zM40 100l156 159l-97 157l31 21l111 -180l-174 -180z" />
    <glyph glyph-name="onequarter" unicode="&#xbc;" horiz-adv-x="773" 
d="M615 674h46l-449 -681h-46zM257 673l-67 -392h-44l60 347h-1l-69 -34l-11 33l95 46h37zM514 145h121l28 154l8 39h-1l-26 -32zM674 392h47l-43 -247h50l-10 -37h-46l-19 -108h-43l19 108h-171l6 32z" />
    <glyph glyph-name="onehalf" unicode="&#xbd;" horiz-adv-x="773" 
d="M597 674h46l-449 -681h-46zM255 673l-67 -392h-44l60 347h-1l-69 -34l-11 33l95 46h37zM465 0l4 32q9 7 37.5 29.5t48.5 39t48 43.5t46 49.5t31 50t13 51.5q0 61 -64 61q-37 0 -85 -27l-7 34q53 32 105 32q47 0 72 -26.5t25 -67.5q0 -34 -15.5 -67.5t-50 -69t-63.5 -60.5
t-80 -65v-1h173l-11 -38h-227z" />
    <glyph glyph-name="threequarters" unicode="&#xbe;" horiz-adv-x="773" 
d="M634 674h46l-449 -681h-46zM522 145h121l28 154l8 39h-1l-26 -32zM682 392h47l-43 -247h50l-10 -37h-46l-19 -108h-43l19 108h-171l6 32zM157 311q48 0 73 25.5t25 63.5q0 35 -26.5 52t-63.5 17h-22l10 36h20q40 0 70.5 22.5t30.5 58.5q0 50 -61 50q-38 0 -79 -24l-5 35
q45 27 95 27q47 0 72 -22.5t25 -57.5q0 -73 -85 -104v-2q30 -9 47.5 -32.5t17.5 -54.5q0 -58 -40 -92t-108 -34q-56 0 -91 22l12 36q37 -22 83 -22z" />
    <glyph glyph-name="questiondown" unicode="&#xbf;" horiz-adv-x="379" 
d="M247 -153l-4 -40q-28 -4 -42 -4q-86 0 -127.5 38t-41.5 97q0 41 18.5 78t46 66.5t56 58.5t51.5 66t30 76q3 18 3 33h46v-17q0 -41 -20.5 -81t-49.5 -72t-58.5 -62.5t-50 -65.5t-20.5 -70q0 -47 36.5 -75t100.5 -28q8 0 26 2zM327 473q0 -20 -14 -37.5t-36 -17.5
q-16 0 -25.5 10.5t-9.5 25.5q0 21 13.5 38t36.5 17q16 0 25.5 -10t9.5 -26z" />
    <glyph glyph-name="Agrave" unicode="&#xc0;" horiz-adv-x="542" 
d="M387 684l107 -684h-48l-35 234h-252l-116 -234h-49l345 684h48zM355 625h-3l-50 -109l-121 -241h223l-36 241zM329 882l61 -146h-34l-97 146h70z" />
    <glyph glyph-name="Aacute" unicode="&#xc1;" horiz-adv-x="542" 
d="M387 684l107 -684h-48l-35 234h-252l-116 -234h-49l345 684h48zM355 625h-3l-50 -109l-121 -241h223l-36 241zM455 882h74l-139 -146h-38z" />
    <glyph glyph-name="Acircumflex" unicode="&#xc2;" horiz-adv-x="542" 
d="M387 684l107 -684h-48l-35 234h-252l-116 -234h-49l345 684h48zM355 625h-3l-50 -109l-121 -241h223l-36 241zM386 834l-89 -98h-43l125 149h30l78 -149h-40l-60 98h-1z" />
    <glyph glyph-name="Atilde" unicode="&#xc3;" horiz-adv-x="542" 
d="M387 684l107 -684h-48l-35 234h-252l-116 -234h-49l345 684h48zM355 625h-3l-50 -109l-121 -241h223l-36 241zM324 816q-13 0 -21 -10t-17 -33l-30 5q26 80 71 80q20 0 56.5 -21.5t52.5 -21.5q12 0 20.5 9t16.5 33l30 -6q-13 -40 -28 -59t-43 -19q-21 0 -56.5 21.5
t-51.5 21.5z" />
    <glyph glyph-name="Adieresis" unicode="&#xc4;" horiz-adv-x="542" 
d="M387 684l107 -684h-48l-35 234h-252l-116 -234h-49l345 684h48zM355 625h-3l-50 -109l-121 -241h223l-36 241zM257 804q0 18 12.5 33.5t32.5 15.5q15 0 23.5 -9t8.5 -23q0 -19 -12.5 -34t-32.5 -15q-15 0 -23.5 9t-8.5 23zM429 804q0 18 12.5 33.5t32.5 15.5
q15 0 23.5 -9t8.5 -23q0 -19 -12.5 -34t-32.5 -15q-15 0 -23.5 9t-8.5 23z" />
    <glyph glyph-name="Aring" unicode="&#xc5;" horiz-adv-x="542" 
d="M376 835q37 0 60.5 -24t23.5 -60q0 -31 -20 -55t-52 -33h2l104 -663h-48l-35 234h-252l-116 -234h-49l333 663h2q-48 23 -48 80q0 38 28 65t67 27zM355 625h-3l-50 -109l-121 -241h223l-36 241zM374 805q-23 0 -40 -18t-17 -43q0 -24 14 -41t36 -17q24 0 41 18t17 44
q0 24 -14 40.5t-37 16.5z" />
    <glyph glyph-name="AE" unicode="&#xc6;" horiz-adv-x="759" 
d="M772 683l-11 -41h-259l-34 -266h241l-11 -41h-235l-37 -294h274l-11 -41h-313l36 293h-187l-199 -293h-49l464 683h331zM460 643h-3l-64 -100l-141 -210h166l25 198z" />
    <glyph glyph-name="Ccedilla" unicode="&#xc7;" horiz-adv-x="537" 
d="M420 652q-92 0 -162.5 -58t-105 -143.5t-34.5 -179.5q0 -106 48 -173t154 -67q94 0 161 32l4 -41q-63 -28 -153 -32l-23 -48q50 -22 50 -63q0 -36 -31.5 -62t-78.5 -26q-28 0 -46 8l11 35q18 -5 37 -5q26 0 45 11t19 33q0 34 -46 46q3 35 23 72q-109 7 -167 80t-58 193
q0 83 25 159.5t70.5 136.5t117.5 96t159 36q96 0 143 -32l-14 -39q-59 31 -148 31z" />
    <glyph glyph-name="Egrave" unicode="&#xc8;" horiz-adv-x="462" 
d="M498 683l-11 -41h-273l-46 -266h253l-11 -41h-249l-51 -294h291l-11 -41h-334l118 683h324zM336 882l61 -146h-34l-97 146h70z" />
    <glyph glyph-name="Eacute" unicode="&#xc9;" horiz-adv-x="462" 
d="M498 683l-11 -41h-273l-46 -266h253l-11 -41h-249l-51 -294h291l-11 -41h-334l118 683h324zM346 882h74l-139 -146h-38z" />
    <glyph glyph-name="Ecircumflex" unicode="&#xca;" horiz-adv-x="462" 
d="M498 683l-11 -41h-273l-46 -266h253l-11 -41h-249l-51 -294h291l-11 -41h-334l118 683h324zM347 834l-89 -98h-43l125 149h30l78 -149h-40l-60 98h-1z" />
    <glyph glyph-name="Edieresis" unicode="&#xcb;" horiz-adv-x="462" 
d="M498 683l-11 -41h-273l-46 -266h253l-11 -41h-249l-51 -294h291l-11 -41h-334l118 683h324zM207 804q0 18 12.5 33.5t32.5 15.5q15 0 23.5 -9t8.5 -23q0 -19 -12.5 -34t-32.5 -15q-15 0 -23.5 9t-8.5 23zM379 804q0 18 12.5 33.5t32.5 15.5q15 0 23.5 -9t8.5 -23
q0 -19 -12.5 -34t-32.5 -15q-15 0 -23.5 9t-8.5 23z" />
    <glyph glyph-name="Igrave" unicode="&#xcc;" horiz-adv-x="216" 
d="M221 683l-118 -683h-47l118 683h47zM158 882l61 -146h-34l-97 146h70z" />
    <glyph glyph-name="Iacute" unicode="&#xcd;" horiz-adv-x="216" 
d="M221 683l-118 -683h-47l118 683h47zM295 882h74l-139 -146h-38z" />
    <glyph glyph-name="Icircumflex" unicode="&#xce;" horiz-adv-x="216" 
d="M221 683l-118 -683h-47l118 683h47zM224 834l-89 -98h-43l125 149h30l78 -149h-40l-60 98h-1z" />
    <glyph glyph-name="Idieresis" unicode="&#xcf;" horiz-adv-x="216" 
d="M221 683l-118 -683h-47l118 683h47zM84 804q0 18 12.5 33.5t32.5 15.5q15 0 23.5 -9t8.5 -23q0 -19 -12.5 -34t-32.5 -15q-15 0 -23.5 9t-8.5 23zM256 804q0 18 12.5 33.5t32.5 15.5q15 0 23.5 -9t8.5 -23q0 -19 -12.5 -34t-32.5 -15q-15 0 -23.5 9t-8.5 23z" />
    <glyph glyph-name="Eth" unicode="&#xd0;" horiz-adv-x="617" 
d="M57 0l57 333h-80l12 40h75l52 304q78 9 164 9q133 0 202 -67t69 -198q0 -118 -43.5 -213t-133.5 -153t-213 -58q-23 0 -49.5 0.5t-60 1.5t-51.5 1zM333 645q-60 0 -120 -5l-46 -267h164l-11 -40h-160l-50 -292q33 -3 90 -3q168 -3 263 101t95 272q0 106 -53 170t-172 64z
" />
    <glyph glyph-name="Ntilde" unicode="&#xd1;" horiz-adv-x="611" 
d="M499 0h-50q-19 49 -109.5 274t-132.5 344h-3l-102 -618h-46l118 683h51q215 -531 242 -619h2l101 619h46zM350 816q-13 0 -21 -10t-17 -33l-30 5q26 80 71 80q20 0 56.5 -21.5t52.5 -21.5q12 0 20.5 9t16.5 33l30 -6q-13 -40 -28 -59t-43 -19q-21 0 -56.5 21.5
t-51.5 21.5z" />
    <glyph glyph-name="Ograve" unicode="&#xd2;" horiz-adv-x="636" 
d="M391 652q-68 0 -122 -36.5t-86 -95t-48.5 -124.5t-16.5 -133q0 -102 43.5 -167.5t142.5 -65.5q66 0 120 35.5t87 92.5t50.5 125.5t17.5 138.5q0 230 -188 230zM398 693q119 0 174.5 -76t55.5 -195q0 -57 -11.5 -115t-37 -115.5t-63 -102t-94 -72t-124.5 -27.5
q-116 0 -172.5 75.5t-56.5 192.5q0 57 11.5 115.5t37.5 116.5t63 102.5t93.5 72.5t123.5 28zM422 882l61 -146h-34l-97 146h70z" />
    <glyph glyph-name="Oacute" unicode="&#xd3;" horiz-adv-x="636" 
d="M391 652q-68 0 -122 -36.5t-86 -95t-48.5 -124.5t-16.5 -133q0 -102 43.5 -167.5t142.5 -65.5q66 0 120 35.5t87 92.5t50.5 125.5t17.5 138.5q0 230 -188 230zM398 693q119 0 174.5 -76t55.5 -195q0 -57 -11.5 -115t-37 -115.5t-63 -102t-94 -72t-124.5 -27.5
q-116 0 -172.5 75.5t-56.5 192.5q0 57 11.5 115.5t37.5 116.5t63 102.5t93.5 72.5t123.5 28zM432 882h74l-139 -146h-38z" />
    <glyph glyph-name="Ocircumflex" unicode="&#xd4;" horiz-adv-x="636" 
d="M391 652q-68 0 -122 -36.5t-86 -95t-48.5 -124.5t-16.5 -133q0 -102 43.5 -167.5t142.5 -65.5q66 0 120 35.5t87 92.5t50.5 125.5t17.5 138.5q0 230 -188 230zM398 693q119 0 174.5 -76t55.5 -195q0 -57 -11.5 -115t-37 -115.5t-63 -102t-94 -72t-124.5 -27.5
q-116 0 -172.5 75.5t-56.5 192.5q0 57 11.5 115.5t37.5 116.5t63 102.5t93.5 72.5t123.5 28zM433 834l-89 -98h-43l125 149h30l78 -149h-40l-60 98h-1z" />
    <glyph glyph-name="Otilde" unicode="&#xd5;" horiz-adv-x="636" 
d="M391 652q-68 0 -122 -36.5t-86 -95t-48.5 -124.5t-16.5 -133q0 -102 43.5 -167.5t142.5 -65.5q66 0 120 35.5t87 92.5t50.5 125.5t17.5 138.5q0 230 -188 230zM398 693q119 0 174.5 -76t55.5 -195q0 -57 -11.5 -115t-37 -115.5t-63 -102t-94 -72t-124.5 -27.5
q-116 0 -172.5 75.5t-56.5 192.5q0 57 11.5 115.5t37.5 116.5t63 102.5t93.5 72.5t123.5 28zM362 816q-13 0 -21 -10t-17 -33l-30 5q26 80 71 80q20 0 56.5 -21.5t52.5 -21.5q12 0 20.5 9t16.5 33l30 -6q-13 -40 -28 -59t-43 -19q-21 0 -56.5 21.5t-51.5 21.5z" />
    <glyph glyph-name="Odieresis" unicode="&#xd6;" horiz-adv-x="636" 
d="M391 652q-68 0 -122 -36.5t-86 -95t-48.5 -124.5t-16.5 -133q0 -102 43.5 -167.5t142.5 -65.5q66 0 120 35.5t87 92.5t50.5 125.5t17.5 138.5q0 230 -188 230zM398 693q119 0 174.5 -76t55.5 -195q0 -57 -11.5 -115t-37 -115.5t-63 -102t-94 -72t-124.5 -27.5
q-116 0 -172.5 75.5t-56.5 192.5q0 57 11.5 115.5t37.5 116.5t63 102.5t93.5 72.5t123.5 28zM293 804q0 18 12.5 33.5t32.5 15.5q15 0 23.5 -9t8.5 -23q0 -19 -12.5 -34t-32.5 -15q-15 0 -23.5 9t-8.5 23zM465 804q0 18 12.5 33.5t32.5 15.5q15 0 23.5 -9t8.5 -23
q0 -19 -12.5 -34t-32.5 -15q-15 0 -23.5 9t-8.5 23z" />
    <glyph glyph-name="multiply" unicode="&#xd7;" horiz-adv-x="576" 
d="M577 466l-234 -204l164 -201l-30 -26l-163 200l-234 -200l-24 29l233 201l-164 201l29 26l165 -200l233 203z" />
    <glyph glyph-name="Oslash" unicode="&#xd8;" horiz-adv-x="636" 
d="M398 693q94 0 150 -51l59 80l29 -21l-63 -86q55 -71 55 -193q0 -57 -11.5 -115t-37 -115.5t-63 -102t-94 -72t-124.5 -27.5q-90 0 -148 50l-58 -79l-28 21l61 83q-56 72 -56 193q0 57 11.5 115.5t37.5 116.5t63 102.5t93.5 72.5t123.5 28zM391 652q-68 0 -122 -36.5
t-86 -95t-48.5 -124.5t-16.5 -133q0 -99 37 -158l366 500q-45 47 -130 47zM579 422q0 96 -35 154l-367 -499q47 -47 127 -47q66 0 120 35.5t87 92.5t50.5 125.5t17.5 138.5z" />
    <glyph glyph-name="Ugrave" unicode="&#xd9;" horiz-adv-x="598" 
d="M272 -10q-82 0 -132 45.5t-50 137.5q0 41 11 113l69 397h48l-75 -433q-39 -219 137 -219q167 0 205 218l75 434h47l-75 -438q-24 -132 -92 -193.5t-168 -61.5zM403 882l61 -146h-34l-97 146h70z" />
    <glyph glyph-name="Uacute" unicode="&#xda;" horiz-adv-x="598" 
d="M272 -10q-82 0 -132 45.5t-50 137.5q0 41 11 113l69 397h48l-75 -433q-39 -219 137 -219q167 0 205 218l75 434h47l-75 -438q-24 -132 -92 -193.5t-168 -61.5zM413 882h74l-139 -146h-38z" />
    <glyph glyph-name="Ucircumflex" unicode="&#xdb;" horiz-adv-x="598" 
d="M272 -10q-82 0 -132 45.5t-50 137.5q0 41 11 113l69 397h48l-75 -433q-39 -219 137 -219q167 0 205 218l75 434h47l-75 -438q-24 -132 -92 -193.5t-168 -61.5zM414 834l-89 -98h-43l125 149h30l78 -149h-40l-60 98h-1z" />
    <glyph glyph-name="Udieresis" unicode="&#xdc;" horiz-adv-x="598" 
d="M272 -10q-82 0 -132 45.5t-50 137.5q0 41 11 113l69 397h48l-75 -433q-39 -219 137 -219q167 0 205 218l75 434h47l-75 -438q-24 -132 -92 -193.5t-168 -61.5zM274 804q0 18 12.5 33.5t32.5 15.5q15 0 23.5 -9t8.5 -23q0 -19 -12.5 -34t-32.5 -15q-15 0 -23.5 9t-8.5 23z
M446 804q0 18 12.5 33.5t32.5 15.5q15 0 23.5 -9t8.5 -23q0 -19 -12.5 -34t-32.5 -15q-15 0 -23.5 9t-8.5 23z" />
    <glyph glyph-name="Yacute" unicode="&#xdd;" horiz-adv-x="493" 
d="M267 323h3l63 98l172 262h54l-276 -404l-48 -279h-46l48 279l-133 404h52l81 -262zM361 882h74l-139 -146h-38z" />
    <glyph glyph-name="Thorn" unicode="&#xde;" horiz-adv-x="499" 
d="M221 683l-26 -146q54 6 113 6q85 0 131 -42t46 -114q0 -109 -76.5 -166.5t-198.5 -57.5q-45 0 -78 4l-30 -167h-46l118 683h47zM188 496l-50 -287q28 -4 78 -4q97 0 158.5 43.5t61.5 129.5q0 60 -35 92t-101 32q-54 0 -112 -6z" />
    <glyph glyph-name="germandbls" unicode="&#xdf;" horiz-adv-x="556" 
d="M512 614q0 -38 -15.5 -67t-37.5 -47t-44 -34.5t-37.5 -39t-15.5 -51.5q0 -26 14 -47.5t34 -37.5t40 -33.5t34 -43t14 -57.5q0 -75 -54.5 -120.5t-135.5 -45.5q-60 0 -108 23l12 39q50 -22 102 -22q49 0 91.5 29.5t42.5 80.5q0 29 -14 54t-33.5 44t-39 37t-33.5 40.5
t-14 47.5q0 32 15.5 55.5t37 39t43.5 32.5t37.5 46t15.5 70q0 39 -23 65t-74 26q-79 0 -116.5 -52t-56.5 -167l-96 -569h-47l95 570q11 63 26 106.5t40.5 80t65.5 54.5t96 18q68 0 103.5 -35t35.5 -89z" />
    <glyph glyph-name="agrave" unicode="&#xe0;" 
d="M485 490l-33 -190q-33 -199 -37 -300h-46l18 155h-2q-36 -76 -87.5 -120.5t-107.5 -44.5q-63 0 -99.5 44t-36.5 114q0 81 34.5 159.5t101 132.5t147.5 54q58 0 98 -25h2l13 18zM407 303l21 127q-34 24 -80 24q-101 0 -174 -89.5t-73 -210.5q0 -55 23.5 -89.5t75.5 -34.5
q63 0 125.5 82.5t81.5 190.5zM332 689l61 -146h-34l-97 146h70z" />
    <glyph glyph-name="aacute" unicode="&#xe1;" 
d="M485 490l-33 -190q-33 -199 -37 -300h-46l18 155h-2q-36 -76 -87.5 -120.5t-107.5 -44.5q-63 0 -99.5 44t-36.5 114q0 81 34.5 159.5t101 132.5t147.5 54q58 0 98 -25h2l13 18zM407 303l21 127q-34 24 -80 24q-101 0 -174 -89.5t-73 -210.5q0 -55 23.5 -89.5t75.5 -34.5
q63 0 125.5 82.5t81.5 190.5zM361 689h74l-139 -146h-38z" />
    <glyph glyph-name="acircumflex" unicode="&#xe2;" 
d="M485 490l-33 -190q-33 -199 -37 -300h-46l18 155h-2q-36 -76 -87.5 -120.5t-107.5 -44.5q-63 0 -99.5 44t-36.5 114q0 81 34.5 159.5t101 132.5t147.5 54q58 0 98 -25h2l13 18zM407 303l21 127q-34 24 -80 24q-101 0 -174 -89.5t-73 -210.5q0 -55 23.5 -89.5t75.5 -34.5
q63 0 125.5 82.5t81.5 190.5zM348 641l-89 -98h-43l125 149h30l78 -149h-40l-60 98h-1z" />
    <glyph glyph-name="atilde" unicode="&#xe3;" 
d="M485 490l-33 -190q-33 -199 -37 -300h-46l18 155h-2q-36 -76 -87.5 -120.5t-107.5 -44.5q-63 0 -99.5 44t-36.5 114q0 81 34.5 159.5t101 132.5t147.5 54q58 0 98 -25h2l13 18zM407 303l21 127q-34 24 -80 24q-101 0 -174 -89.5t-73 -210.5q0 -55 23.5 -89.5t75.5 -34.5
q63 0 125.5 82.5t81.5 190.5zM269 623q-13 0 -21 -10t-17 -33l-30 5q26 80 71 80q20 0 56.5 -21.5t52.5 -21.5q12 0 20.5 9t16.5 33l30 -6q-13 -40 -28 -59t-43 -19q-21 0 -56.5 21.5t-51.5 21.5z" />
    <glyph glyph-name="adieresis" unicode="&#xe4;" 
d="M485 490l-33 -190q-33 -199 -37 -300h-46l18 155h-2q-36 -76 -87.5 -120.5t-107.5 -44.5q-63 0 -99.5 44t-36.5 114q0 81 34.5 159.5t101 132.5t147.5 54q58 0 98 -25h2l13 18zM407 303l21 127q-34 24 -80 24q-101 0 -174 -89.5t-73 -210.5q0 -55 23.5 -89.5t75.5 -34.5
q63 0 125.5 82.5t81.5 190.5zM199 611q0 18 12.5 33.5t32.5 15.5q15 0 23.5 -9t8.5 -23q0 -19 -12.5 -34t-32.5 -15q-15 0 -23.5 9t-8.5 23zM371 611q0 18 12.5 33.5t32.5 15.5q15 0 23.5 -9t8.5 -23q0 -19 -12.5 -34t-32.5 -15q-15 0 -23.5 9t-8.5 23z" />
    <glyph glyph-name="aring" unicode="&#xe5;" 
d="M485 490l-33 -190q-33 -199 -37 -300h-46l18 155h-2q-36 -76 -87.5 -120.5t-107.5 -44.5q-63 0 -99.5 44t-36.5 114q0 81 34.5 159.5t101 132.5t147.5 54q58 0 98 -25h2l13 18zM407 303l21 127q-34 24 -80 24q-101 0 -174 -89.5t-73 -210.5q0 -55 23.5 -89.5t75.5 -34.5
q63 0 125.5 82.5t81.5 190.5zM341 717q37 0 60.5 -24t23.5 -60q0 -38 -27 -66.5t-67 -28.5q-38 0 -61.5 25t-23.5 62q0 38 28 65t67 27zM339 687q-23 0 -40 -18t-17 -43q0 -24 14 -41t36 -17q24 0 41 18t17 44q0 24 -14 40.5t-37 16.5z" />
    <glyph glyph-name="ae" unicode="&#xe6;" horiz-adv-x="749" 
d="M406 236q-4 -19 -4 -47q0 -77 33.5 -117.5t95.5 -40.5q70 0 140 32l6 -38q-70 -35 -152 -35q-132 0 -163 120h-2q-74 -120 -170 -120q-63 0 -99.5 44t-36.5 114q0 81 34.5 159.5t101 132.5t147.5 54q66 0 132 -47h2q63 50 133 50q64 0 98 -31.5t36 -78.5
q0 -74 -67.5 -115.5t-180.5 -41.5q-40 0 -84 6zM354 155q0 169 88 265q-45 34 -94 34q-101 0 -174 -89.5t-73 -210.5q0 -55 23.5 -89.5t75.5 -34.5q39 0 80.5 34t73.5 91zM413 276q41 -7 82 -7q87 0 140 30.5t53 81.5q0 34 -25 54.5t-67 20.5q-63 0 -113 -51t-70 -129z" />
    <glyph glyph-name="ccedilla" unicode="&#xe7;" horiz-adv-x="438" 
d="M326 455q-98 0 -159.5 -84t-61.5 -191q0 -71 35 -110t104 -39q68 0 130 29l6 -41q-52 -25 -127 -28l-23 -49q50 -22 50 -63q0 -36 -31.5 -62t-78.5 -26q-28 0 -46 8l11 35q18 -5 37 -5q26 0 45 11t19 33q0 34 -46 46q3 35 23 72q-77 6 -116 55t-41 123q0 138 78 232.5
t201 94.5q76 0 113 -24l-13 -40q-56 23 -109 23z" />
    <glyph glyph-name="egrave" unicode="&#xe8;" horiz-adv-x="450" 
d="M107 236q-4 -19 -4 -47q0 -77 33.5 -117.5t95.5 -40.5q70 0 140 32l6 -38q-70 -35 -152 -35q-90 0 -130.5 53t-40.5 138q0 127 73.5 221.5t176.5 94.5q64 0 98 -31.5t36 -78.5q0 -74 -67.5 -115.5t-180.5 -41.5q-41 0 -84 6zM114 276q41 -7 82 -7q87 0 140 30.5t53 81.5
q0 34 -25 54.5t-67 20.5q-63 0 -113 -51t-70 -129zM292 689l61 -146h-34l-97 146h70z" />
    <glyph glyph-name="eacute" unicode="&#xe9;" horiz-adv-x="450" 
d="M107 236q-4 -19 -4 -47q0 -77 33.5 -117.5t95.5 -40.5q70 0 140 32l6 -38q-70 -35 -152 -35q-90 0 -130.5 53t-40.5 138q0 127 73.5 221.5t176.5 94.5q64 0 98 -31.5t36 -78.5q0 -74 -67.5 -115.5t-180.5 -41.5q-41 0 -84 6zM114 276q41 -7 82 -7q87 0 140 30.5t53 81.5
q0 34 -25 54.5t-67 20.5q-63 0 -113 -51t-70 -129zM318 689h74l-139 -146h-38z" />
    <glyph glyph-name="ecircumflex" unicode="&#xea;" horiz-adv-x="450" 
d="M107 236q-4 -19 -4 -47q0 -77 33.5 -117.5t95.5 -40.5q70 0 140 32l6 -38q-70 -35 -152 -35q-90 0 -130.5 53t-40.5 138q0 127 73.5 221.5t176.5 94.5q64 0 98 -31.5t36 -78.5q0 -74 -67.5 -115.5t-180.5 -41.5q-41 0 -84 6zM114 276q41 -7 82 -7q87 0 140 30.5t53 81.5
q0 34 -25 54.5t-67 20.5q-63 0 -113 -51t-70 -129zM300 641l-89 -98h-43l125 149h30l78 -149h-40l-60 98h-1z" />
    <glyph glyph-name="edieresis" unicode="&#xeb;" horiz-adv-x="450" 
d="M107 236q-4 -19 -4 -47q0 -77 33.5 -117.5t95.5 -40.5q70 0 140 32l6 -38q-70 -35 -152 -35q-90 0 -130.5 53t-40.5 138q0 127 73.5 221.5t176.5 94.5q64 0 98 -31.5t36 -78.5q0 -74 -67.5 -115.5t-180.5 -41.5q-41 0 -84 6zM114 276q41 -7 82 -7q87 0 140 30.5t53 81.5
q0 34 -25 54.5t-67 20.5q-63 0 -113 -51t-70 -129zM171 611q0 18 12.5 33.5t32.5 15.5q15 0 23.5 -9t8.5 -23q0 -19 -12.5 -34t-32.5 -15q-15 0 -23.5 9t-8.5 23zM343 611q0 18 12.5 33.5t32.5 15.5q15 0 23.5 -9t8.5 -23q0 -19 -12.5 -34t-32.5 -15q-15 0 -23.5 9t-8.5 23z
" />
    <glyph glyph-name="igrave" unicode="&#xec;" horiz-adv-x="214" 
d="M56 0l84 487l47 3l-85 -490h-46zM124 689l61 -146h-34l-97 146h70z" />
    <glyph glyph-name="iacute" unicode="&#xed;" horiz-adv-x="214" 
d="M56 0l84 487l47 3l-85 -490h-46zM255 689h74l-139 -146h-38z" />
    <glyph glyph-name="icircumflex" unicode="&#xee;" horiz-adv-x="214" 
d="M56 0l84 487l47 3l-85 -490h-46zM186 641l-89 -98h-43l125 149h30l78 -149h-40l-60 98h-1z" />
    <glyph glyph-name="idieresis" unicode="&#xef;" horiz-adv-x="214" 
d="M56 0l84 487l47 3l-85 -490h-46zM59 611q0 18 12.5 33.5t32.5 15.5q15 0 23.5 -9t8.5 -23q0 -19 -12.5 -34t-32.5 -15q-15 0 -23.5 9t-8.5 23zM231 611q0 18 12.5 33.5t32.5 15.5q15 0 23.5 -9t8.5 -23q0 -19 -12.5 -34t-32.5 -15q-15 0 -23.5 9t-8.5 23z" />
    <glyph glyph-name="eth" unicode="&#xf0;" horiz-adv-x="508" 
d="M353 654l117 70l19 -31l-109 -66q102 -118 102 -280q0 -158 -73.5 -257.5t-177.5 -99.5q-87 0 -132 53t-45 132q0 119 71 205.5t171 86.5q90 0 136 -67h4q-18 122 -95 204l-134 -82l-17 31l126 77q-45 48 -115 73l17 35q73 -25 135 -84zM434 306q-9 48 -43.5 84t-94.5 36
q-84 0 -138.5 -74.5t-54.5 -173.5q0 -64 34 -106t94 -42q81 0 139.5 80.5t63.5 195.5z" />
    <glyph glyph-name="ntilde" unicode="&#xf1;" horiz-adv-x="528" 
d="M357 497q73 0 101 -49t15 -125l-54 -323h-47l50 294q5 33 6 56.5t-4.5 50t-26.5 40.5t-56 14q-56 0 -125 -89.5t-89 -214.5l-25 -151h-46l53 299q15 87 28 188l45 3l-25 -163h2q34 70 86.5 120t111.5 50zM282 623q-13 0 -21 -10t-17 -33l-30 5q26 80 71 80
q20 0 56.5 -21.5t52.5 -21.5q12 0 20.5 9t16.5 33l30 -6q-13 -40 -28 -59t-43 -19q-21 0 -56.5 21.5t-51.5 21.5z" />
    <glyph glyph-name="ograve" unicode="&#xf2;" horiz-adv-x="510" 
d="M307 498q95 0 138.5 -63.5t36.5 -158.5q-4 -72 -33 -136t-86.5 -107.5t-130.5 -43.5q-91 0 -135.5 62.5t-38.5 156.5q5 120 74 205t175 85zM303 457q-83 0 -137.5 -73.5t-59.5 -173.5q-5 -78 30 -129t102 -51q80 0 135.5 74.5t60.5 172.5q5 71 -26.5 125.5t-104.5 54.5z
M312 689l61 -146h-34l-97 146h70z" />
    <glyph glyph-name="oacute" unicode="&#xf3;" horiz-adv-x="510" 
d="M307 498q95 0 138.5 -63.5t36.5 -158.5q-4 -72 -33 -136t-86.5 -107.5t-130.5 -43.5q-91 0 -135.5 62.5t-38.5 156.5q5 120 74 205t175 85zM303 457q-83 0 -137.5 -73.5t-59.5 -173.5q-5 -78 30 -129t102 -51q80 0 135.5 74.5t60.5 172.5q5 71 -26.5 125.5t-104.5 54.5z
M341 689h74l-139 -146h-38z" />
    <glyph glyph-name="ocircumflex" unicode="&#xf4;" horiz-adv-x="510" 
d="M307 498q95 0 138.5 -63.5t36.5 -158.5q-4 -72 -33 -136t-86.5 -107.5t-130.5 -43.5q-91 0 -135.5 62.5t-38.5 156.5q5 120 74 205t175 85zM303 457q-83 0 -137.5 -73.5t-59.5 -173.5q-5 -78 30 -129t102 -51q80 0 135.5 74.5t60.5 172.5q5 71 -26.5 125.5t-104.5 54.5z
M320 641l-89 -98h-43l125 149h30l78 -149h-40l-60 98h-1z" />
    <glyph glyph-name="otilde" unicode="&#xf5;" horiz-adv-x="510" 
d="M307 498q95 0 138.5 -63.5t36.5 -158.5q-4 -72 -33 -136t-86.5 -107.5t-130.5 -43.5q-91 0 -135.5 62.5t-38.5 156.5q5 120 74 205t175 85zM303 457q-83 0 -137.5 -73.5t-59.5 -173.5q-5 -78 30 -129t102 -51q80 0 135.5 74.5t60.5 172.5q5 71 -26.5 125.5t-104.5 54.5z
M272 623q-13 0 -21 -10t-17 -33l-30 5q26 80 71 80q20 0 56.5 -21.5t52.5 -21.5q12 0 20.5 9t16.5 33l30 -6q-13 -40 -28 -59t-43 -19q-21 0 -56.5 21.5t-51.5 21.5z" />
    <glyph glyph-name="odieresis" unicode="&#xf6;" horiz-adv-x="510" 
d="M307 498q95 0 138.5 -63.5t36.5 -158.5q-4 -72 -33 -136t-86.5 -107.5t-130.5 -43.5q-91 0 -135.5 62.5t-38.5 156.5q5 120 74 205t175 85zM303 457q-83 0 -137.5 -73.5t-59.5 -173.5q-5 -78 30 -129t102 -51q80 0 135.5 74.5t60.5 172.5q5 71 -26.5 125.5t-104.5 54.5z
M193 611q0 18 12.5 33.5t32.5 15.5q15 0 23.5 -9t8.5 -23q0 -19 -12.5 -34t-32.5 -15q-15 0 -23.5 9t-8.5 23zM365 611q0 18 12.5 33.5t32.5 15.5q15 0 23.5 -9t8.5 -23q0 -19 -12.5 -34t-32.5 -15q-15 0 -23.5 9t-8.5 23z" />
    <glyph glyph-name="divide" unicode="&#xf7;" horiz-adv-x="583" 
d="M86 288h460l-7 -40h-460zM298 431q0 23 16 38t35 15q16 0 26 -10.5t10 -26.5q0 -23 -15.5 -37.5t-35.5 -14.5q-16 0 -26 10t-10 26zM241 87q0 23 16 38t35 15q16 0 26 -10.5t10 -26.5q0 -23 -15.5 -37.5t-35.5 -14.5q-16 0 -26 10t-10 26z" />
    <glyph glyph-name="oslash" unicode="&#xf8;" horiz-adv-x="511" 
d="M307 498q64 0 107 -32l44 59l30 -20l-48 -64q49 -60 42 -165q-4 -72 -33 -136t-86.5 -107.5t-130.5 -43.5q-65 0 -107 33l-45 -60l-27 22l47 63q-48 59 -42 161q5 120 74 205t175 85zM434 277q5 72 -25 123l-255 -340q33 -30 84 -30q80 0 135.5 74.5t60.5 172.5zM303 457
q-83 0 -137.5 -73.5t-59.5 -173.5q-5 -74 25 -122l254 340q-32 29 -82 29z" />
    <glyph glyph-name="ugrave" unicode="&#xf9;" horiz-adv-x="521" 
d="M390 124h-2q-30 -63 -80.5 -98.5t-105.5 -35.5q-62 0 -93.5 31.5t-32.5 81t9 110.5l47 274h47l-49 -288q-6 -33 -6.5 -57t5 -52t27 -43.5t59.5 -15.5q52 0 107 52.5t75 134.5q9 38 17.5 82t17.5 102t14 85h46l-33 -187q-33 -199 -37 -300h-46zM331 689l61 -146h-34
l-97 146h70z" />
    <glyph glyph-name="uacute" unicode="&#xfa;" horiz-adv-x="521" 
d="M390 124h-2q-30 -63 -80.5 -98.5t-105.5 -35.5q-62 0 -93.5 31.5t-32.5 81t9 110.5l47 274h47l-49 -288q-6 -33 -6.5 -57t5 -52t27 -43.5t59.5 -15.5q52 0 107 52.5t75 134.5q9 38 17.5 82t17.5 102t14 85h46l-33 -187q-33 -199 -37 -300h-46zM342 689h74l-139 -146h-38z
" />
    <glyph glyph-name="ucircumflex" unicode="&#xfb;" horiz-adv-x="521" 
d="M390 124h-2q-30 -63 -80.5 -98.5t-105.5 -35.5q-62 0 -93.5 31.5t-32.5 81t9 110.5l47 274h47l-49 -288q-6 -33 -6.5 -57t5 -52t27 -43.5t59.5 -15.5q52 0 107 52.5t75 134.5q9 38 17.5 82t17.5 102t14 85h46l-33 -187q-33 -199 -37 -300h-46zM337 641l-89 -98h-43
l125 149h30l78 -149h-40l-60 98h-1z" />
    <glyph glyph-name="udieresis" unicode="&#xfc;" horiz-adv-x="521" 
d="M390 124h-2q-30 -63 -80.5 -98.5t-105.5 -35.5q-62 0 -93.5 31.5t-32.5 81t9 110.5l47 274h47l-49 -288q-6 -33 -6.5 -57t5 -52t27 -43.5t59.5 -15.5q52 0 107 52.5t75 134.5q9 38 17.5 82t17.5 102t14 85h46l-33 -187q-33 -199 -37 -300h-46zM201 611q0 18 12.5 33.5
t32.5 15.5q15 0 23.5 -9t8.5 -23q0 -19 -12.5 -34t-32.5 -15q-15 0 -23.5 9t-8.5 23zM373 611q0 18 12.5 33.5t32.5 15.5q15 0 23.5 -9t8.5 -23q0 -19 -12.5 -34t-32.5 -15q-15 0 -23.5 9t-8.5 23z" />
    <glyph glyph-name="yacute" unicode="&#xfd;" horiz-adv-x="432" 
d="M74 487h47l54 -318l17 -109h2l73 109l85 128q62 93 24 190h50q17 -35 9.5 -96t-43.5 -112l-187 -279l16 -101q13 -72 -34 -106t-176 -34v40q102 0 138.5 22.5t27.5 70.5zM271 689h74l-139 -146h-38z" />
    <glyph glyph-name="thorn" unicode="&#xfe;" 
d="M331 456q-61 0 -120.5 -68.5t-78.5 -182.5l-25 -146q48 -29 113 -29q64 0 115 43.5t77 109.5t26 137q0 57 -26 96.5t-81 39.5zM157 369h2q31 56 80.5 92t103.5 36q71 0 106 -47.5t37 -121.5q0 -138 -76 -238t-193 -100q-70 0 -116 26h-2l-39 -235h-48l157 917l45 3z" />
    <glyph glyph-name="ydieresis" unicode="&#xff;" horiz-adv-x="432" 
d="M74 487h47l54 -318l17 -109h2l73 109l85 128q62 93 24 190h50q17 -35 9.5 -96t-43.5 -112l-187 -279l16 -101q13 -72 -34 -106t-176 -34v40q102 0 138.5 22.5t27.5 70.5zM146 611q0 18 12.5 33.5t32.5 15.5q15 0 23.5 -9t8.5 -23q0 -19 -12.5 -34t-32.5 -15
q-15 0 -23.5 9t-8.5 23zM318 611q0 18 12.5 33.5t32.5 15.5q15 0 23.5 -9t8.5 -23q0 -19 -12.5 -34t-32.5 -15q-15 0 -23.5 9t-8.5 23z" />
    <glyph glyph-name="OE" unicode="&#x152;" horiz-adv-x="869" 
d="M896 683l-11 -41h-273l-46 -266h253l-11 -41h-249l-51 -294h291l-11 -41h-334l7 39q-71 -49 -163 -49q-116 0 -172.5 75.5t-56.5 192.5q0 57 11.5 115.5t37.5 116.5t63 102.5t93.5 72.5t123.5 28q106 0 164 -65l10 55h324zM304 30q97 0 168 76l79 456q-47 90 -160 90
q-68 0 -122 -36.5t-86 -95t-48.5 -124.5t-16.5 -133q0 -102 43.5 -167.5t142.5 -65.5z" />
    <glyph glyph-name="oe" unicode="&#x153;" horiz-adv-x="810" 
d="M467 236q-4 -19 -4 -47q0 -77 33.5 -117.5t95.5 -40.5q70 0 140 32l6 -38q-70 -35 -152 -35q-125 0 -160 115h-2q-75 -116 -192 -116q-91 0 -135.5 62.5t-38.5 156.5q5 120 74 205t175 85q63 0 103.5 -34t58.5 -89h2q35 56 86 89t108 33q64 0 98 -31.5t36 -78.5
q0 -74 -67.5 -115.5t-180.5 -41.5q-41 0 -84 6zM303 457q-83 0 -137.5 -73.5t-59.5 -173.5q-5 -78 30 -129t102 -51q80 0 135.5 74.5t60.5 172.5q5 71 -26.5 125.5t-104.5 54.5zM474 276q41 -7 82 -7q87 0 140 30.5t53 81.5q0 34 -25 54.5t-67 20.5q-63 0 -113 -51t-70 -129
z" />
    <glyph glyph-name="Ydieresis" unicode="&#x178;" horiz-adv-x="493" 
d="M267 323h3l63 98l172 262h54l-276 -404l-48 -279h-46l48 279l-133 404h52l81 -262zM222 804q0 18 12.5 33.5t32.5 15.5q15 0 23.5 -9t8.5 -23q0 -19 -12.5 -34t-32.5 -15q-15 0 -23.5 9t-8.5 23zM394 804q0 18 12.5 33.5t32.5 15.5q15 0 23.5 -9t8.5 -23q0 -19 -12.5 -34
t-32.5 -15q-15 0 -23.5 9t-8.5 23z" />
    <glyph glyph-name="tilde" unicode="&#x2dc;" horiz-adv-x="410" 
d="M303 623q-13 0 -21 -10t-17 -33l-30 5q26 80 71 80q20 0 56.5 -21.5t52.5 -21.5q12 0 20.5 9t16.5 33l30 -6q-13 -40 -28 -59t-43 -19q-21 0 -56.5 21.5t-51.5 21.5z" />
    <glyph glyph-name="endash" unicode="&#x2013;" horiz-adv-x="538" 
d="M75 279h430l-7 -39h-429z" />
    <glyph glyph-name="emdash" unicode="&#x2014;" horiz-adv-x="951" 
d="M75 279h843l-7 -39h-842z" />
    <glyph glyph-name="quoteleft" unicode="&#x2018;" horiz-adv-x="198" 
d="M220 720l28 -10q-63 -104 -87 -219l-51 7q18 56 50.5 121t59.5 101z" />
    <glyph glyph-name="quoteright" unicode="&#x2019;" horiz-adv-x="208" 
d="M128 487l-28 10q63 104 87 219l51 -7q-18 -56 -50.5 -121t-59.5 -101z" />
    <glyph glyph-name="quotedblleft" unicode="&#x201c;" horiz-adv-x="333" 
d="M220 720l28 -10q-63 -104 -87 -219l-51 7q18 56 50.5 121t59.5 101zM355 720l28 -10q-63 -104 -87 -219l-51 7q18 56 50.5 121t59.5 101z" />
    <glyph glyph-name="quotedblright" unicode="&#x201d;" horiz-adv-x="343" 
d="M128 487l-28 10q63 104 87 219l51 -7q-18 -56 -50.5 -121t-59.5 -101zM263 487l-28 10q63 104 87 219l51 -7q-18 -56 -50.5 -121t-59.5 -101z" />
    <glyph glyph-name="quotedblbase" unicode="&#x201e;" horiz-adv-x="331" 
d="M156 -136l-28 10q63 104 87 219l51 -7q-18 -56 -50.5 -121t-59.5 -101zM21 -136l-28 10q63 104 87 219l51 -7q-18 -56 -50.5 -121t-59.5 -101z" />
    <glyph glyph-name="bullet" unicode="&#x2022;" horiz-adv-x="254" 
d="M40 266q0 36 25.5 61.5t61.5 25.5t61.5 -25.5t25.5 -61.5t-25.5 -61.5t-61.5 -25.5t-61.5 25.5t-25.5 61.5z" />
    <glyph glyph-name="ellipsis" unicode="&#x2026;" horiz-adv-x="690" 
d="M50 26q0 20 14 37.5t36 17.5q16 0 25.5 -10.5t9.5 -25.5q0 -21 -13.5 -38t-36.5 -17q-16 0 -25.5 10t-9.5 26zM289 26q0 20 14 37.5t36 17.5q16 0 25.5 -10.5t9.5 -25.5q0 -21 -13.5 -38t-36.5 -17q-16 0 -25.5 10t-9.5 26zM530 26q0 20 14 37.5t36 17.5q16 0 25.5 -10.5
t9.5 -25.5q0 -21 -13.5 -38t-36.5 -17q-16 0 -25.5 10t-9.5 26z" />
    <glyph glyph-name="guilsinglleft" unicode="&#x2039;" horiz-adv-x="281" 
d="M281 414l-156 -159l97 -157l-31 -21l-111 180l174 180z" />
    <glyph glyph-name="guilsinglright" unicode="&#x203a;" horiz-adv-x="281" 
d="M40 100l156 159l-97 157l31 21l111 -180l-174 -180z" />
    <glyph glyph-name="Euro" unicode="&#x20ac;" horiz-adv-x="523" 
d="M158 298h266l-11 -38h-258q0 -42 8.5 -80t27.5 -73t54.5 -56t83.5 -21q61 0 133 29l5 -36q-62 -33 -143 -33q-106 0 -161.5 75t-56.5 195h-70l12 38h61q4 49 14 79h-67l11 38h67q36 118 119 190t199 72q59 0 115 -29l-13 -38q-60 27 -109 27q-98 0 -164.5 -61t-97.5 -161
h261l-11 -38h-261q-10 -30 -14 -79z" />
    <glyph glyph-name="trademark" unicode="&#x2122;" horiz-adv-x="703" 
d="M224 653h-93l7 30h218l-7 -30h-91l-45 -260h-34zM516 395h-38l-51 253h-2l-9 -57l-43 -198h-33l63 290h50l40 -196l10 -53h2l26 53l108 196h50l-35 -290h-33l25 198l7 57h-2z" />
    <glyph glyph-name="thinspace" horiz-adv-x="120" 
 />
    </font>
</defs>
</svg>
