<?xml version="1.0" standalone="no"?>
<!DOCTYPE svg PUBLIC "-//W3C//DTD SVG 1.1//EN" "http://www.w3.org/Graphics/SVG/1.1/DTD/svg11.dtd" >
<svg>
<metadata>
Created by FontForge 20120731 at Thu Jun 18 08:54:05 2015
 By ,,,
Copyright (c) 2011 by Neil Summerour. All rights reserved.
</metadata>
<defs>
<font id="AkagiPro-ExtraLight" horiz-adv-x="528" >
  <font-face 
    font-family="946c7cbef666efcd216359b387acf76a56a1bc44cde81c179d3265882ccf8a2b"
    font-weight="300"
    font-stretch="normal"
    units-per-em="1000"
    panose-1="2 0 0 0 0 0 0 0 0 0"
    ascent="750"
    descent="-250"
    x-height="486"
    cap-height="683"
    bbox="-68 -229 895 891"
    underline-thickness="50"
    underline-position="-50"
    unicode-range="U+0020-2122"
  />
<missing-glyph horiz-adv-x="531" 
 />
    <glyph glyph-name=".notdef" horiz-adv-x="531" 
 />
    <glyph glyph-name=".null" horiz-adv-x="0" 
 />
    <glyph glyph-name="nonmarkingreturn" horiz-adv-x="333" 
 />
    <glyph glyph-name="space" unicode=" " horiz-adv-x="248" 
 />
    <glyph glyph-name="space" unicode="&#xa0;" horiz-adv-x="248" 
 />
    <glyph glyph-name="exclam" unicode="!" horiz-adv-x="223" 
d="M135 704l-7 -525h-35l-7 525h49zM71 31q0 17 12 29t28 12q17 0 29.5 -12t12.5 -29t-12.5 -29t-29.5 -12t-28.5 12t-11.5 29z" />
    <glyph glyph-name="quotedbl" unicode="&#x22;" horiz-adv-x="330" 
d="M76 716h51l-12 -209h-27zM202 716h51l-11 -209h-29z" />
    <glyph glyph-name="numbersign" unicode="#" horiz-adv-x="527" 
d="M391 596l-17 -172h93l-3 -32h-92l-14 -170h97l-4 -32h-95l-17 -175h-36l16 175h-131l-17 -175h-36l17 175h-92l4 32h91l14 170h-96l3 32h95l17 172h35l-16 -172h132l18 172h34zM205 392l-14 -170h132l13 170h-131z" />
    <glyph glyph-name="dollar" unicode="$" horiz-adv-x="485" 
d="M258 761v-100q68 -3 129 -33l-13 -33q-66 32 -133 32q-56 0 -90 -33.5t-34 -81.5q0 -47 29.5 -79.5t71.5 -53t84 -42.5t71.5 -62.5t29.5 -98.5q0 -64 -41 -110t-110 -56v-100h-36v99q-85 0 -147 40l13 32q66 -39 142 -39q61 0 100.5 36.5t39.5 94.5q0 51 -29.5 85.5
t-71.5 55t-84 41.5t-71.5 58.5t-29.5 92.5q0 63 40 104t102 50v101h38z" />
    <glyph glyph-name="percent" unicode="%" horiz-adv-x="813" 
d="M481 173q0 88 41 137t100 49q58 0 95.5 -46.5t37.5 -130.5q0 -89 -39 -139t-101 -50q-57 0 -95.5 47.5t-38.5 132.5zM520 176q0 -69 25.5 -111t72.5 -42q49 0 74 42t25 112q0 69 -25 110.5t-74 41.5q-46 0 -72 -42.5t-26 -110.5zM57 491q0 89 41 138t100 49t96.5 -48
t37.5 -133q0 -87 -40 -137t-101 -50q-57 0 -95.5 48t-38.5 133zM96 494q0 -69 25.5 -111t72.5 -42q49 0 74 42t25 112q0 69 -24.5 110.5t-74.5 41.5q-46 0 -72 -42.5t-26 -110.5zM565 675h37l-352 -683h-38z" />
    <glyph glyph-name="ampersand" unicode="&#x26;" horiz-adv-x="585" 
d="M113 539q0 65 41.5 109.5t108.5 44.5q58 0 95.5 -36t37.5 -96q0 -107 -159 -189v-2q60 -70 209 -239q53 81 67 231h36q-16 -172 -81 -256l91 -95l-30 -24l-84 89q-90 -86 -212 -86q-81 0 -136 53.5t-55 134.5q0 119 139 202v2q-68 90 -68 157zM85 182q0 -69 44 -114
t112 -45q110 0 181 77q-20 23 -97 111.5t-124 143.5q-116 -71 -116 -173zM357 558q0 41 -24 71t-72 30q-51 0 -79.5 -34t-28.5 -82q0 -63 63 -145q72 40 106.5 77.5t34.5 82.5z" />
    <glyph glyph-name="quotesingle" unicode="'" horiz-adv-x="203" 
d="M76 716h51l-12 -209h-27z" />
    <glyph glyph-name="parenleft" unicode="(" horiz-adv-x="283" 
d="M108 287q0 -248 147 -459h-34q-154 206 -154 460q0 249 154 464h34q-147 -206 -147 -465z" />
    <glyph glyph-name="parenright" unicode=")" horiz-adv-x="283" 
d="M174 290q0 252 -147 462h34q155 -210 155 -463q0 -248 -155 -461h-34q147 210 147 462z" />
    <glyph glyph-name="asterisk" unicode="*" horiz-adv-x="405" 
d="M165 533v4l-110 52q6 18 24 42l100 -69l4 2l-10 122q24 3 49 0l-10 -122l4 -2l100 68q14 -17 24 -42l-109 -52v-3l109 -53q-9 -22 -24 -42l-100 70l-4 -2l10 -122q-23 -5 -49 0l10 122h-3l-101 -68q-12 16 -24 42z" />
    <glyph glyph-name="plus" unicode="+" horiz-adv-x="583" 
d="M310 499v-217h211v-34h-211v-219h-36v219h-212v34h212v217h36z" />
    <glyph glyph-name="comma" unicode="," horiz-adv-x="176" 
d="M52 -133l-25 9q38 89 43 208l51 -7q-8 -54 -28.5 -114t-40.5 -96z" />
    <glyph glyph-name="hyphen" unicode="-" horiz-adv-x="388" 
d="M55 292h277v-35h-277v35z" />
    <glyph glyph-name="hyphen" unicode="&#xad;" horiz-adv-x="388" 
d="M55 292h277v-35h-277v35z" />
    <glyph glyph-name="period" unicode="." horiz-adv-x="200" 
d="M82 31q0 17 12 29t29 12t29.5 -12.5t12.5 -28.5q0 -17 -12.5 -29t-29.5 -12t-29 12t-12 29z" />
    <glyph glyph-name="slash" unicode="/" horiz-adv-x="387" 
d="M325 690h42l-314 -716h-41z" />
    <glyph glyph-name="zero" unicode="0" 
d="M264 -11q-98 0 -153 84t-56 250q0 166 56 252t153 86t153 -86t56 -252q-1 -165 -56 -249.5t-153 -84.5zM264 24q168 0 168 298q0 142 -42 223.5t-126 81.5t-126 -82t-42 -223q0 -298 168 -298z" />
    <glyph glyph-name="one" unicode="1" horiz-adv-x="434" 
d="M222 612h-2l-115 -64l-12 32l129 73h39v-653h-38z" />
    <glyph glyph-name="two" unicode="2" horiz-adv-x="499" 
d="M237 625q-67 0 -146 -48l-11 28q77 55 163 55q89 0 134 -53t45 -127q0 -32 -9 -64.5t-20.5 -59t-38.5 -62t-46.5 -59t-61.5 -64.5t-67 -64t-78 -72l339 -1l-4 -34h-385v32q94 87 147.5 140t99.5 109t64.5 101t18.5 92q0 67 -34.5 109t-109.5 42z" />
    <glyph glyph-name="three" unicode="3" horiz-adv-x="499" 
d="M210 23q89 0 130.5 46t41.5 110q0 76 -58 114.5t-137 38.5h-48l3 34h44q68 0 120.5 35.5t52.5 103.5q0 53 -35 87t-96 34q-64 0 -137 -41l-16 31q74 44 156 44t125.5 -43.5t43.5 -107.5q0 -53 -32 -94.5t-89 -61.5v-2q63 -14 103.5 -59t40.5 -111q0 -83 -56 -137
t-162 -54q-87 0 -157 40l14 30q78 -37 148 -37z" />
    <glyph glyph-name="four" unicode="4" horiz-adv-x="506" 
d="M68 226h266v279l2 91l-3 1l-50 -79l-215 -291v-1zM336 653h36v-427h97l-4 -34h-93v-192h-38v192h-314v28z" />
    <glyph glyph-name="five" unicode="5" horiz-adv-x="499" 
d="M146 614l-24 -225q28 6 69 6q99 0 162.5 -50.5t63.5 -143.5q0 -94 -60 -152.5t-155 -58.5q-93 0 -158 38l16 32q74 -37 145 -37q76 0 124 48.5t48 123.5q0 77 -47.5 120.5t-146.5 43.5q-32 0 -97 -5l-1 1q0 -4 7.5 71.5t15.5 152.5t7 71h293l-4 -36h-258z" />
    <glyph glyph-name="six" unicode="6" horiz-adv-x="516" 
d="M270 422q87 0 139.5 -58.5t52.5 -150.5q0 -93 -55 -158t-148 -65q-92 0 -148.5 72.5t-56.5 200.5q0 97 29.5 175t80 126.5t113 74t131.5 25.5v-35q-131 0 -216.5 -83t-96.5 -213h1q29 40 75 64.5t99 24.5zM91 263q1 -112 46.5 -175.5t127.5 -63.5q69 0 113 51.5t44 134.5
t-44.5 129.5t-116.5 46.5q-53 0 -105.5 -37.5t-64.5 -85.5z" />
    <glyph glyph-name="seven" unicode="7" horiz-adv-x="472" 
d="M387 616h-331v34h371v-31l-285 -619h-39l260 564l24 50v2z" />
    <glyph glyph-name="eight" unicode="8" horiz-adv-x="520" 
d="M79 494q0 74 53.5 120t133.5 46q78 0 126.5 -44.5t48.5 -111.5q0 -102 -120 -157v-2q142 -56 142 -172q0 -82 -60.5 -132.5t-145.5 -50.5q-88 0 -144.5 48t-56.5 125q0 123 139 182v2q-57 24 -86.5 63.5t-29.5 83.5zM246 332q-70 -22 -109.5 -64t-39.5 -97
q0 -65 42 -105.5t119 -40.5q73 0 118.5 38.5t45.5 101.5q0 67 -45.5 106t-130.5 61zM274 360q56 18 90.5 53.5t34.5 87.5q0 54 -35.5 89t-102.5 35q-65 0 -103 -34.5t-38 -89.5q0 -108 154 -141z" />
    <glyph glyph-name="nine" unicode="9" horiz-adv-x="516" 
d="M246 231q-88 0 -140 57t-52 149q0 93 55 158t147 65t149 -72.5t57 -200.5q0 -97 -29.5 -175t-79.5 -126.5t-112.5 -74t-131.5 -25.5v35q130 0 215.5 83t96.5 213h-2q-28 -39 -74 -62.5t-99 -23.5zM424 387q-1 112 -46 175.5t-127 63.5q-70 0 -113.5 -51.5t-43.5 -134.5
t44 -127.5t117 -44.5q54 0 105.5 35.5t63.5 83.5z" />
    <glyph glyph-name="colon" unicode=":" horiz-adv-x="200" 
d="M82 397q0 17 12 29t29 12t29.5 -12.5t12.5 -28.5q0 -17 -12.5 -29t-29.5 -12t-29 12t-12 29zM82 31q0 17 12 29t29 12t29.5 -12.5t12.5 -28.5q0 -17 -12.5 -29t-29.5 -12t-29 12t-12 29z" />
    <glyph glyph-name="semicolon" unicode=";" horiz-adv-x="172" 
d="M54 397q0 17 12 29t29 12t29 -12t12 -29t-12 -29t-29 -12t-29 12t-12 29zM52 -133l-25 9q38 89 43 208l51 -7q-8 -54 -28.5 -114t-40.5 -96z" />
    <glyph glyph-name="less" unicode="&#x3c;" horiz-adv-x="569" 
d="M494 19l-419 232v30l419 232v-42l-375 -204v-2l375 -205v-41z" />
    <glyph glyph-name="equal" unicode="=" horiz-adv-x="583" 
d="M62 191h459v-35h-459v35zM62 377h459v-35h-459v35z" />
    <glyph glyph-name="greater" unicode="&#x3e;" horiz-adv-x="569" 
d="M494 251l-419 -232v41l373 205v2l-373 204v42l419 -233v-29z" />
    <glyph glyph-name="question" unicode="?" horiz-adv-x="375" 
d="M189 177h-38q-5 27 -5 36q0 49 23 94.5t50 75t50 70t23 79.5q0 58 -43.5 93.5t-116.5 35.5q-26 0 -48 -6l-9 31q47 10 68 10q95 0 143.5 -47t48.5 -116q0 -42 -23 -84.5t-51 -73.5t-51 -75t-23 -88q0 -13 2 -35zM130 31q0 17 12 29t28 12q17 0 29.5 -12t12.5 -29
t-12.5 -29t-29.5 -12t-28.5 12t-11.5 29z" />
    <glyph glyph-name="at" unicode="@" horiz-adv-x="780" 
d="M483 166h-2q-28 -59 -67 -95t-84 -36q-48 0 -78.5 35t-30.5 88q0 60 28 121.5t80 103.5t111 42q66 0 105 -29q-2 -19 -8.5 -52t-11.5 -61.5t-10 -62t-5 -60t3.5 -49t16 -34.5t32.5 -12q55 0 90.5 63t35.5 147q0 126 -69.5 203.5t-198.5 77.5q-140 0 -234.5 -100.5
t-94.5 -259.5q0 -130 76 -217t196 -87q68 0 118 22l9 -34q-56 -25 -127 -25q-133 0 -223 94.5t-90 245.5q0 170 105.5 282.5t268.5 112.5q136 0 220 -85t84 -220q0 -94 -48 -170t-119 -76q-84 0 -78 127zM497 279l18 105q-26 11 -63 11q-81 0 -138 -70t-57 -164
q0 -97 78 -97q50 0 99 66t63 149z" />
    <glyph glyph-name="A" unicode="A" horiz-adv-x="568" 
d="M305 684l236 -684h-40l-82 240h-265q0 2 -20 -59t-40.5 -122t-20.5 -59h-41l237 684h36zM289 641h-2l-44 -140l-76 -227h239l-75 227z" />
    <glyph glyph-name="B" unicode="B" horiz-adv-x="517" 
d="M243 341h-118v-307q31 -3 81 -3q47 0 82.5 6t68.5 22t50.5 48t17.5 79q0 73 -50.5 114t-131.5 41zM237 651q-56 0 -112 -4v-272h122q68 0 111 38t43 102q0 136 -164 136zM87 0v677q71 9 153 9q101 0 151.5 -45.5t50.5 -125.5q0 -52 -30.5 -94.5t-79.5 -59.5v-1
q53 -14 93.5 -58t40.5 -115q0 -55 -19.5 -93t-57 -58.5t-82 -29.5t-103.5 -9q-24 0 -117 3z" />
    <glyph glyph-name="B" unicode="&#xe000;" horiz-adv-x="517" 
d="M243 341h-118v-307q31 -3 81 -3q47 0 82.5 6t68.5 22t50.5 48t17.5 79q0 73 -50.5 114t-131.5 41zM237 651q-56 0 -112 -4v-272h122q68 0 111 38t43 102q0 136 -164 136zM87 0v677q71 9 153 9q101 0 151.5 -45.5t50.5 -125.5q0 -52 -30.5 -94.5t-79.5 -59.5v-1
q53 -14 93.5 -58t40.5 -115q0 -55 -19.5 -93t-57 -58.5t-82 -29.5t-103.5 -9q-24 0 -117 3z" />
    <glyph glyph-name="C" unicode="C" horiz-adv-x="556" 
d="M87 338q0 -139 69.5 -226.5t195.5 -87.5q94 0 159 31l9 -33q-69 -32 -175 -32q-129 0 -214 92.5t-85 255.5q0 153 83 254t230 101q99 0 159 -30l-9 -33q-68 29 -152 29q-128 0 -199 -89t-71 -232z" />
    <glyph glyph-name="D" unicode="D" horiz-adv-x="628" 
d="M87 0v677q95 9 171 9q160 0 241 -90t81 -244q0 -74 -19 -136t-57.5 -112t-104.5 -78.5t-153 -28.5q-78 0 -159 3zM257 652q-47 0 -133 -7v-612q42 -3 100 -3q316 0 316 320q0 136 -70 219t-213 83z" />
    <glyph glyph-name="E" unicode="E" horiz-adv-x="474" 
d="M414 683l-3 -34h-287v-277h265l-3 -32h-262v-307h305l-4 -33h-338v683h327z" />
    <glyph glyph-name="E" unicode="&#xe001;" horiz-adv-x="474" 
d="M414 683l-3 -34h-287v-277h265l-3 -32h-262v-307h305l-4 -33h-338v683h327z" />
    <glyph glyph-name="F" unicode="F" horiz-adv-x="461" 
d="M415 683l-4 -34h-287v-285h260l-3 -34h-257v-330h-37v683h328z" />
    <glyph glyph-name="G" unicode="G" horiz-adv-x="599" 
d="M345 284l4 36h190v-294q-83 -34 -186 -34q-132 0 -219.5 90.5t-87.5 257.5q0 96 34.5 174t108.5 127.5t177 49.5q84 0 157 -30l-8 -34q-68 29 -153 29q-130 0 -202.5 -88.5t-72.5 -226.5q0 -140 72 -227.5t199 -87.5q84 0 142 21v237h-155z" />
    <glyph glyph-name="H" unicode="H" horiz-adv-x="617" 
d="M124 341v-341h-37v683h37v-309h368v309h38v-683h-38v341h-368z" />
    <glyph glyph-name="I" unicode="I" horiz-adv-x="213" 
d="M124 683v-683h-37v683h37z" />
    <glyph glyph-name="J" unicode="J" horiz-adv-x="208" 
d="M88 156v527h39v-535q0 -92 -24 -149.5t-64 -82t-101 -31.5l-6 34q59 10 89.5 29t48.5 68.5t18 139.5z" />
    <glyph glyph-name="K" unicode="K" horiz-adv-x="508" 
d="M125 683v-334l71 38l245 296h45l-251 -307l267 -376h-47l-248 349l-82 -43v-306h-38v683h38z" />
    <glyph glyph-name="L" unicode="L" horiz-adv-x="452" 
d="M87 683h37v-650h304l-4 -33h-337v683z" />
    <glyph glyph-name="M" unicode="M" horiz-adv-x="757" 
d="M361 0l-222 630h-2l-9 -316l-15 -314h-39l33 683h49l149 -416l73 -211h2l72 211l149 416h49l33 -683h-38l-15 314l-9 316h-2l-221 -630h-37z" />
    <glyph glyph-name="N" unicode="N" horiz-adv-x="624" 
d="M538 0h-41q-24 40 -91.5 147.5t-105 168t-89.5 150t-88 159.5h-2l4 -268v-357h-38v683h40q30 -49 97 -157t106.5 -172.5t89.5 -150t82 -147.5h2l-5 272v355h39v-683z" />
    <glyph glyph-name="O" unicode="O" horiz-adv-x="655" 
d="M328 -11q-126 0 -203.5 96t-77.5 252q0 160 77 258.5t204 98.5q126 0 203 -98.5t77 -259.5q0 -155 -77 -251t-203 -96zM328 23q79 0 134.5 47t80 116.5t24.5 151.5q0 62 -13.5 117.5t-40.5 102.5t-74.5 74.5t-110.5 27.5t-111 -27.5t-75 -74.5t-40.5 -102.5t-13.5 -117.5
q0 -82 24.5 -151.5t80.5 -116.5t135 -47z" />
    <glyph glyph-name="P" unicode="P" horiz-adv-x="512" 
d="M236 298q-75 0 -111 6v-304h-38v677q73 9 163 9q101 0 155 -50.5t54 -136.5q0 -96 -61 -148t-162 -53zM125 646v-307q36 -7 86 -7q103 0 154.5 39t51.5 125q0 83 -49.5 119.5t-150.5 36.5q-50 0 -92 -6z" />
    <glyph glyph-name="Q" unicode="Q" horiz-adv-x="654" 
d="M643 0h-315q-127 0 -204 91.5t-77 245.5q0 160 76.5 258.5t204.5 98.5q127 0 203.5 -99t76.5 -259q0 -104 -45.5 -186.5t-111.5 -114.5v-2h196zM328 660q-63 0 -111 -28t-75 -75t-40.5 -102t-13.5 -117q0 -81 24.5 -147.5t80 -111t135.5 -44.5q117 0 178 88.5t61 214.5
q0 49 -8 94t-26 87t-45 73t-68 49.5t-92 18.5z" />
    <glyph glyph-name="R" unicode="R" horiz-adv-x="511" 
d="M459 507q0 -72 -40 -118.5t-109 -62.5v-2l167 -324h-43l-163 317h-146v-317h-38v677q75 9 164 9q101 0 154.5 -48.5t53.5 -130.5zM125 646v-296h129q78 0 121 41.5t43 110.5q0 82 -49 116t-151 34q-51 0 -93 -6z" />
    <glyph glyph-name="S" unicode="S" horiz-adv-x="468" 
d="M214 23q72 0 116 39t44 104q0 43 -17 75t-44.5 51t-60.5 34.5t-66 31.5t-60.5 36t-44.5 53.5t-17 79.5q0 74 54 120t132 46q81 0 143 -31l-12 -34q-60 32 -135 32q-67 0 -104.5 -37.5t-37.5 -89.5q0 -47 23 -80t57.5 -50.5t74.5 -37.5t74.5 -40t57.5 -59.5t23 -94.5
q0 -80 -55 -130.5t-149 -50.5q-93 0 -161 39l11 34q72 -40 154 -40z" />
    <glyph glyph-name="S" unicode="&#xe002;" horiz-adv-x="468" 
d="M214 23q72 0 116 39t44 104q0 43 -17 75t-44.5 51t-60.5 34.5t-66 31.5t-60.5 36t-44.5 53.5t-17 79.5q0 74 54 120t132 46q81 0 143 -31l-12 -34q-60 32 -135 32q-67 0 -104.5 -37.5t-37.5 -89.5q0 -47 23 -80t57.5 -50.5t74.5 -37.5t74.5 -40t57.5 -59.5t23 -94.5
q0 -80 -55 -130.5t-149 -50.5q-93 0 -161 39l11 34q72 -40 154 -40z" />
    <glyph glyph-name="T" unicode="T" horiz-adv-x="462" 
d="M211 649h-209l4 34h453l-3 -34h-206v-649h-39v649z" />
    <glyph glyph-name="U" unicode="U" horiz-adv-x="611" 
d="M300 -10q-98 0 -157 61.5t-59 193.5v438h38v-435q0 -111 48 -168t132 -57q90 0 138.5 56.5t48.5 168.5v435h39v-435q0 -132 -63 -195t-165 -63z" />
    <glyph glyph-name="V" unicode="V" horiz-adv-x="508" 
d="M274 0h-40l-223 683h41l125 -383l75 -250h3l76 250l125 383h41z" />
    <glyph glyph-name="W" unicode="W" horiz-adv-x="806" 
d="M381 683h43l105 -393l57 -232h3l57 232l99 393h39l-175 -683h-41l-164 634h-2l-164 -634h-41l-176 683h39l99 -393l57 -232h3l57 232z" />
    <glyph glyph-name="X" unicode="X" horiz-adv-x="540" 
d="M502 0h-45l-106 176l-83 137h-3l-82 -137l-102 -176h-46l211 348l-201 335h46l107 -184l71 -116h2l70 116l112 184h46l-210 -332z" />
    <glyph glyph-name="Y" unicode="Y" horiz-adv-x="498" 
d="M269 0h-37v287l-210 396h44l104 -200l83 -160h2l81 160l108 200h44l-219 -396v-287z" />
    <glyph glyph-name="Z" unicode="Z" horiz-adv-x="515" 
d="M473 683v-31l-389 -617v-2h395l-4 -33h-438v29l390 618v2h-361l3 34h404z" />
    <glyph glyph-name="bracketleft" unicode="[" horiz-adv-x="283" 
d="M260 -159h-167v908h171l-4 -35h-129v-839h133z" />
    <glyph glyph-name="backslash" unicode="\" horiz-adv-x="385" 
d="M17 690h42l312 -716h-41z" />
    <glyph glyph-name="bracketright" unicode="]" horiz-adv-x="283" 
d="M190 -159h-172l4 35h130v838h-133l4 35h167v-908z" />
    <glyph glyph-name="asciicircum" unicode="^" horiz-adv-x="563" 
d="M281 620l-162 -319h-37l184 375h31l183 -375h-35l-163 319h-1z" />
    <glyph glyph-name="underscore" unicode="_" horiz-adv-x="508" 
d="M0 -67h467v-43h-467v43z" />
    <glyph glyph-name="grave" unicode="`" horiz-adv-x="312" 
d="M118 694l88 -144h-30l-124 144h66z" />
    <glyph glyph-name="a" unicode="a" horiz-adv-x="465" 
d="M381 324v-200q0 -62 3 -124h-34l-6 63h-3q-62 -73 -155 -73q-65 0 -101.5 36t-36.5 91q0 36 12 61t28.5 38.5t46.5 20t52.5 8t60.5 1.5h94v73q0 33 -1.5 51t-8 38.5t-19 30.5t-35.5 16.5t-58 6.5q-67 0 -133 -32l-7 32q67 34 137 34q53 0 86.5 -11.5t50 -36t22 -52.5
t5.5 -72zM188 25q55 0 105 33.5t49 87.5v65h-97h-33t-29.5 -1.5t-30.5 -4.5t-23.5 -9t-21.5 -15.5t-11.5 -23.5t-5.5 -33q0 -47 27 -73t71 -26z" />
    <glyph glyph-name="b" unicode="b" horiz-adv-x="541" 
d="M291 496q93 0 146.5 -68t53.5 -181q0 -121 -58 -189t-150 -68q-103 0 -159 76h-2l-6 -66h-32q3 105 3 107v620l38 4v-323h2q58 88 164 88zM286 463q-48 0 -93 -30.5t-68 -81.5v-167q0 -73 39.5 -116.5t115.5 -43.5q85 0 129 61.5t44 161.5q0 92 -42.5 154t-124.5 62z" />
    <glyph glyph-name="b" unicode="&#xe003;" horiz-adv-x="541" 
d="M291 496q93 0 146.5 -68t53.5 -181q0 -121 -58 -189t-150 -68q-103 0 -159 76h-2l-6 -66h-32q3 105 3 107v620l38 4v-323h2q58 88 164 88zM286 463q-48 0 -93 -30.5t-68 -81.5v-167q0 -73 39.5 -116.5t115.5 -43.5q85 0 129 61.5t44 161.5q0 92 -42.5 154t-124.5 62z" />
    <glyph glyph-name="c" unicode="c" horiz-adv-x="458" 
d="M87 242q0 -99 52 -158t139 -59q62 0 129 26l9 -33q-58 -28 -143 -28q-103 0 -163.5 68t-60.5 182q0 117 65 186.5t169 69.5q83 0 135 -28l-10 -34q-60 27 -127 27q-92 0 -143 -61.5t-51 -157.5z" />
    <glyph glyph-name="d" unicode="d" horiz-adv-x="536" 
d="M249 -10q-92 0 -146 67t-54 177q0 120 57 191t153 71q95 0 149 -68h2v299l38 4v-624q0 -2 3 -107h-33l-5 77h-2q-58 -87 -162 -87zM254 24q65 0 110.5 43.5t45.5 108.5v196q-19 38 -59.5 64.5t-91.5 26.5q-83 0 -127.5 -63t-44.5 -162q0 -92 41.5 -153t125.5 -61z" />
    <glyph glyph-name="e" unicode="e" horiz-adv-x="487" 
d="M264 -10q-103 0 -159 67.5t-56 178.5q0 122 57.5 191t151.5 69q98 0 144 -72t31 -174h-346q0 -111 47.5 -168t136.5 -57q74 0 138 29l7 -34q-65 -30 -152 -30zM90 285h305q1 8 1 22q0 65 -34.5 110t-108.5 45q-72 0 -114 -51.5t-49 -125.5z" />
    <glyph glyph-name="f" unicode="f" horiz-adv-x="276" 
d="M95 486v53q0 95 36.5 146t103.5 51q27 0 65 -9l-10 -33q-30 6 -52 6q-26 0 -45 -8t-30.5 -21t-18.5 -34.5t-9 -44t-2 -53.5v-53h130l-3 -32h-127v-454h-38v454h-71l2 29z" />
    <glyph glyph-name="g" unicode="g" horiz-adv-x="497" 
d="M410 316q0 -85 -47 -133t-125 -48q-54 0 -95 24q-46 -50 -37 -88q6 -28 59 -30q157 -5 204 -16q88 -21 95 -86q6 -65 -57 -112t-197 -42q-17 0 -37.5 3t-49 12.5t-50 24t-36 41t-12.5 60.5q3 51 66 94v2q-23 19 -23 53q0 43 52 101v2q-52 49 -52 138q0 85 47 132.5
t124 47.5q53 0 93 -24q5 24 19.5 36.5t32.5 12.5h55v-32h-55q-10 0 -18.5 -10t-9.5 -24q54 -49 54 -139zM106 316q0 -144 133 -144q132 0 132 144t-132 144q-133 0 -133 -144zM165 3q-26 0 -48 5q-54 -43 -54 -85q0 -33 17 -56t44 -33t48.5 -13.5t42.5 -4.5q108 -3 162 33.5
t48 89.5q-9 66 -260 64z" />
    <glyph glyph-name="h" unicode="h" horiz-adv-x="538" 
d="M295 496q27 0 52 -8t50 -27.5t40.5 -60t15.5 -96.5v-304h-38v294q0 168 -128 168q-45 0 -89.5 -29t-72.5 -73v-360h-38v727l38 4v-324h2q27 39 72 64t96 25z" />
    <glyph glyph-name="i" unicode="i" horiz-adv-x="212" 
d="M87 0v486l38 3v-489h-38zM76 635q0 14 8.5 22.5t21.5 8.5t21.5 -9t8.5 -22t-8.5 -21t-21.5 -8t-21.5 8t-8.5 21z" />
    <glyph glyph-name="j" unicode="j" horiz-adv-x="215" 
d="M86 41v445l38 3v-454q0 -63 -11.5 -110.5t-26.5 -73.5t-40 -44t-42 -24t-42 -12l-6 30q79 17 104.5 75t25.5 165zM75 637q0 12 9 20.5t23 8.5q11 0 19.5 -8.5t8.5 -20.5q0 -13 -8.5 -22t-19.5 -9q-14 0 -23 8.5t-9 22.5z" />
    <glyph glyph-name="k" unicode="k" horiz-adv-x="444" 
d="M125 255l61 30l176 201h48l-190 -212l212 -274h-45l-196 254l-66 -32v-222h-38v727l38 4v-476z" />
    <glyph glyph-name="l" unicode="l" horiz-adv-x="214" 
d="M87 0v727l38 4v-731h-38z" />
    <glyph glyph-name="m" unicode="m" horiz-adv-x="827" 
d="M286 496q50 0 84.5 -25.5t49.5 -69.5h1q69 95 170 95q27 0 51 -8.5t48.5 -28.5t38.5 -61t14 -99v-299h-39v290q0 172 -121 172q-41 0 -81.5 -27t-67.5 -66v-369h-38v307q0 155 -118 155q-84 0 -153 -104v-358h-38v377q0 1 -3 109l38 3l2 -81h2q71 88 160 88z" />
    <glyph glyph-name="n" unicode="n" horiz-adv-x="538" 
d="M295 496q27 0 52 -8.5t50 -28t40.5 -60t15.5 -96.5v-303h-38v294q0 168 -129 168q-49 0 -92.5 -29t-68.5 -74v-359h-38v377q0 17 -0.5 35t-1.5 39.5t-1 34.5l38 3l2 -82h2q66 89 169 89z" />
    <glyph glyph-name="o" unicode="o" 
d="M444 243q0 90 -44.5 154t-134.5 64q-89 0 -133.5 -64t-44.5 -154t44.5 -154t133.5 -64q90 0 134.5 64t44.5 154zM481 242q0 -117 -59.5 -184.5t-156.5 -67.5t-156 67.5t-59 184.5q0 118 59 186t156 68t156.5 -68t59.5 -186z" />
    <glyph glyph-name="p" unicode="p" horiz-adv-x="541" 
d="M291 496q94 0 147 -68t53 -178q0 -122 -57 -191t-154 -69q-101 0 -153 71h-2v-280h-38v550q0 11 -3 155l39 3l1 -81h2q61 88 165 88zM286 463q-48 0 -92.5 -30t-68.5 -81v-184q0 -56 40 -100t115 -44q85 0 129 62t44 163q0 90 -42.5 152t-124.5 62z" />
    <glyph glyph-name="q" unicode="q" horiz-adv-x="534" 
d="M250 -10q-93 0 -147 67.5t-54 177.5q0 126 60.5 193.5t153.5 67.5q97 0 148 -73h2l7 63h31q-3 -138 -3 -144v-561h-38v291h-2q-55 -82 -158 -82zM254 24q68 0 112 44.5t44 106.5v197q-20 38 -60 64.5t-90 26.5q-84 0 -128.5 -63t-44.5 -161q0 -93 40.5 -154t126.5 -61z
" />
    <glyph glyph-name="r" unicode="r" horiz-adv-x="310" 
d="M286 495v-40q-108 8 -161 -112v-343h-38v341q0 1 -3 145l38 3v-88h2q62 99 162 94z" />
    <glyph glyph-name="s" unicode="s" horiz-adv-x="391" 
d="M180 25q55 0 87 26t32 70q0 37 -24.5 63t-59.5 41.5l-70 31t-59.5 43.5t-24.5 68q0 55 41 91.5t108 36.5q64 0 115 -28l-12 -34q-50 27 -109 27q-49 0 -76.5 -24t-27.5 -63q0 -34 24.5 -57t59.5 -37.5t70 -30.5t59.5 -47t24.5 -76q0 -63 -44.5 -99.5t-118.5 -36.5
q-70 0 -124 30l10 34q64 -29 119 -29z" />
    <glyph glyph-name="s" unicode="&#xe004;" horiz-adv-x="391" 
d="M180 25q55 0 87 26t32 70q0 37 -24.5 63t-59.5 41.5l-70 31t-59.5 43.5t-24.5 68q0 55 41 91.5t108 36.5q64 0 115 -28l-12 -34q-50 27 -109 27q-49 0 -76.5 -24t-27.5 -63q0 -34 24.5 -57t59.5 -37.5t70 -30.5t59.5 -47t24.5 -76q0 -63 -44.5 -99.5t-118.5 -36.5
q-70 0 -124 30l10 34q64 -29 119 -29z" />
    <glyph glyph-name="t" unicode="t" horiz-adv-x="318" 
d="M104 123v331h-78l3 28l75 4l7 109l33 11v-120h135l-3 -32h-132v-324q0 -63 18.5 -85t49.5 -22q26 0 66 10l4 -29q-37 -14 -77 -14q-101 0 -101 133z" />
    <glyph glyph-name="u" unicode="u" horiz-adv-x="535" 
d="M240 -10q-66 0 -111 44.5t-45 154.5v297h38v-285q0 -85 28 -130.5t96 -45.5q64 0 113.5 43t49.5 97v321h38v-377q0 -55 3 -109h-35l-4 77h-2q-66 -87 -169 -87z" />
    <glyph glyph-name="v" unicode="v" horiz-adv-x="458" 
d="M248 0h-38l-185 486h42l161 -441h2l161 441h42z" />
    <glyph glyph-name="w" unicode="w" horiz-adv-x="726" 
d="M382 486l96 -289l47 -149h2l127 438h41l-148 -486h-36l-147 444h-2l-147 -444h-36l-149 486h41l127 -438h2l48 149l96 289h38z" />
    <glyph glyph-name="x" unicode="x" horiz-adv-x="434" 
d="M361 0l-147 220h-2l-146 -220h-43l170 250l-157 236h44l99 -151l35 -54h2l137 205h43l-160 -236l170 -250h-45z" />
    <glyph glyph-name="y" unicode="y" horiz-adv-x="449" 
d="M109 -225l100 235h-6l-181 476h40l91 -245l71 -191h2l159 436h41l-274 -711h-43z" />
    <glyph glyph-name="y" unicode="&#xe006;" horiz-adv-x="449" 
d="M109 -225l100 235h-6l-181 476h40l91 -245l71 -191h2l159 436h41l-274 -711h-43z" />
    <glyph glyph-name="z" unicode="z" horiz-adv-x="407" 
d="M379 486v-30l-307 -421l311 -1l-3 -34h-356v27l311 423l-291 1l3 35h332z" />
    <glyph glyph-name="braceleft" unicode="{" horiz-adv-x="323" 
d="M289 745l-4 -28q-72 0 -98 -29t-26 -91q1 -28 9 -95.5t8 -92.5q0 -93 -77 -119v-2q77 -30 77 -122q0 -26 -6 -92.5t-7 -91.5q0 -64 25.5 -89.5t98.5 -26.5l-4 -29q-85 0 -123 31.5t-38 128.5q1 24 7.5 82.5t6.5 86.5q0 55 -21.5 79t-78.5 27v31q58 4 79 27t21 78
q0 35 -8.5 103t-8.5 96q0 80 42 109t126 29z" />
    <glyph glyph-name="bar" unicode="|" horiz-adv-x="219" 
d="M127 774v-971h-36v971h36z" />
    <glyph glyph-name="braceright" unicode="}" horiz-adv-x="320" 
d="M34 -163l4 29q60 0 91 24t31 85q0 32 -8 104t-8 97q0 90 77 120v2q-77 26 -77 117q0 21 6.5 87t6.5 98q0 69 -28 92.5t-95 23.5l4 29q81 0 120.5 -27t39.5 -108q0 -28 -7.5 -94.5t-7.5 -99.5q0 -55 22.5 -79t79.5 -26v-30q-58 -4 -79.5 -28t-21.5 -79q0 -33 9 -99.5
t9 -92.5q0 -84 -43.5 -114.5t-124.5 -30.5z" />
    <glyph glyph-name="asciitilde" unicode="~" horiz-adv-x="580" 
d="M99 259l-30 4q3 47 32.5 79.5t69.5 32.5q41 0 118.5 -35.5t123.5 -35.5q54 0 68 74l29 -5q-3 -51 -31 -81t-68 -30q-42 0 -121 35t-119 35q-32 0 -48.5 -17.5t-23.5 -55.5z" />
    <glyph glyph-name="exclamdown" unicode="&#xa1;" horiz-adv-x="223" 
d="M88 -205l7 524h36l6 -524h-49zM153 468q0 -17 -12 -29.5t-29 -12.5t-29 12.5t-12 29.5q0 16 12 28t29 12t29 -11.5t12 -28.5z" />
    <glyph glyph-name="cent" unicode="&#xa2;" horiz-adv-x="485" 
d="M292 655v-107q67 1 126 -27l-11 -35q-56 29 -127 29q-83 0 -132.5 -61.5t-49.5 -153.5q0 -98 49 -155.5t129 -57.5q68 0 133 29l8 -32q-54 -27 -125 -31v-101h-35v102q-92 8 -144 69.5t-52 174.5q0 106 53.5 173t142.5 77v107h35z" />
    <glyph glyph-name="sterling" unicode="&#xa3;" horiz-adv-x="511" 
d="M192 350h158l-4 -32h-150q6 -56 6 -85q0 -122 -76 -197v-2h327l-4 -34h-378l-3 24q97 73 97 197q0 54 -6 97h-97l4 32h89q-16 105 -16 149q0 84 51.5 130.5t123.5 46.5q67 0 117 -25l-10 -32q-50 24 -111 24q-59 0 -96 -36.5t-37 -103.5q0 -32 2.5 -58t7 -57.5t5.5 -37.5
z" />
    <glyph glyph-name="currency" unicode="&#xa4;" horiz-adv-x="493" 
d="M246 481q66 0 109 -41l71 76l21 -21l-74 -73q41 -48 41 -118q0 -75 -40 -120l71 -75l-22 -21l-68 75q-42 -41 -110 -41q-64 0 -109 38l-68 -72l-19 21l68 72q-43 48 -43 118q0 72 45 122l-71 74l21 21l68 -76q44 41 109 41zM244 455q-63 0 -101.5 -45t-38.5 -110
q0 -70 43 -111.5t97 -41.5q57 -1 99 40.5t42 116.5q0 60 -38.5 105.5t-102.5 45.5z" />
    <glyph glyph-name="yen" unicode="&#xa5;" horiz-adv-x="503" 
d="M270 0h-38v196h-155l4 35h151v36h-155l4 35h144l-185 365h43l167 -339h2l168 339h43l-185 -365h148l-4 -35h-152v-36h156l-4 -35h-152v-196z" />
    <glyph glyph-name="brokenbar" unicode="&#xa6;" horiz-adv-x="219" 
d="M127 725v-354h-36v354h36zM127 204v-353h-36v353h36z" />
    <glyph glyph-name="section" unicode="&#xa7;" horiz-adv-x="500" 
d="M399 104q0 -66 -46.5 -102.5t-121.5 -36.5q-81 0 -135 33q2 5 6 14.5t7 17.5q64 -33 126 -33q54 0 90.5 26.5t36.5 75.5q0 40 -28.5 67t-70 43t-82.5 33.5t-69.5 48t-28.5 74.5q0 64 62 112v2q-39 30 -39 81q0 59 45 95t113 36q71 0 129 -31q-10 -27 -13 -34
q-52 32 -120 32q-51 0 -84 -24.5t-33 -67.5q0 -35 28.5 -59t68.5 -39t80.5 -32t69 -49.5t28.5 -79.5q0 -68 -54 -114v-2q35 -33 35 -87zM120 366q0 -39 36.5 -65t97.5 -49.5t83 -37.5q44 34 44 89q0 34 -24 60t-53 38.5t-70 29t-59 27.5q-55 -34 -55 -92z" />
    <glyph glyph-name="dieresis" unicode="&#xa8;" horiz-adv-x="336" 
d="M46 615q0 16 10.5 27t25.5 11q16 0 26.5 -11t10.5 -27q0 -15 -10.5 -25.5t-26.5 -10.5q-15 0 -25.5 10.5t-10.5 25.5zM217 615q0 16 10 27t26 11q15 0 26 -11t11 -27q0 -15 -11 -25.5t-26 -10.5q-16 0 -26 10.5t-10 25.5z" />
    <glyph glyph-name="copyright" unicode="&#xa9;" horiz-adv-x="762" 
d="M60 343q0 136 93.5 231t228.5 95q134 0 227 -95.5t93 -230.5q0 -136 -93 -231.5t-227 -95.5q-135 0 -228.5 95.5t-93.5 231.5zM97 340q0 -123 82.5 -208t202.5 -85q119 0 200.5 85t81.5 211q0 124 -82 209.5t-200 85.5h-1q-120 0 -202 -86t-82 -212zM258 339
q0 -64 35 -107t105 -43q55 0 99 23l6 -25q-44 -26 -110 -26q-81 0 -125.5 50.5t-44.5 125.5q0 78 48.5 129t126.5 51q59 0 101 -23l-6 -27q-47 21 -97 21q-70 0 -104 -42.5t-34 -106.5z" />
    <glyph glyph-name="ordfeminine" unicode="&#xaa;" horiz-adv-x="318" 
d="M263 578v-131q0 -54 2 -81h-22l-5 42h-2q-41 -48 -100 -48q-42 0 -66 23.5t-24 59.5q0 24 8 40.5t18.5 25t30.5 12.5t34 5t39 1h62v47q0 52 -13.5 72.5t-66.5 20.5q-45 0 -87 -21l-5 22q46 21 90 21q66 0 86.5 -27t20.5 -84zM136 382q37 0 69.5 22.5t32.5 57.5v42h-64
h-30t-25.5 -3t-25 -8.5t-14 -17t-6.5 -28.5q0 -31 17.5 -48t45.5 -17z" />
    <glyph glyph-name="guillemotleft" unicode="&#xab;" horiz-adv-x="488" 
d="M231 417l-126 -160l126 -160l-27 -20l-143 180l143 180zM392 417l-125 -160l125 -160l-26 -20l-143 180l143 180z" />
    <glyph glyph-name="logicalnot" unicode="&#xac;" horiz-adv-x="596" 
d="M537 349v-234h-40v196h-438v38h478z" />
    <glyph glyph-name="registered" unicode="&#xae;" horiz-adv-x="575" 
d="M55 463q0 95 67.5 162t164.5 67t164.5 -67t67.5 -162q0 -97 -67.5 -164t-164.5 -67t-164.5 67t-67.5 164zM90 463q0 -84 57 -142t141 -58q82 0 139 57.5t57 141.5q0 83 -57.5 142t-139.5 59q-83 0 -140 -59t-57 -141zM284 436h-39v-88h-30v221q46 4 73 4q41 0 62.5 -18
t21.5 -48q0 -24 -15.5 -42t-42.5 -24v-1l66 -92h-33zM245 548v-88h39q57 0 57 45t-55 45q-19 0 -41 -2z" />
    <glyph glyph-name="macron" unicode="&#xaf;" horiz-adv-x="364" 
d="M62 630h241v-36h-241v36z" />
    <glyph glyph-name="degree" unicode="&#xb0;" horiz-adv-x="318" 
d="M54 604q0 45 31 76.5t76 31.5t76.5 -31.5t31.5 -76.5t-31.5 -76t-76.5 -31q-44 0 -75.5 31t-31.5 76zM87 604q0 -31 21.5 -52.5t52.5 -21.5q32 0 53.5 21t21.5 53q0 31 -21.5 52.5t-53.5 21.5q-31 0 -52.5 -21.5t-21.5 -52.5z" />
    <glyph glyph-name="plusminus" unicode="&#xb1;" horiz-adv-x="583" 
d="M521 -3h-459v34h212v217h-212v34h212v217h36v-217h211v-34h-211v-217h211v-34z" />
    <glyph glyph-name="twosuperior" unicode="&#xb2;" horiz-adv-x="294" 
d="M210 717q0 37 -21 60.5t-62 23.5q-33 0 -84 -29l-9 31q48 33 103 33q57 0 86.5 -32.5t29.5 -77.5q0 -55 -37 -103.5t-137 -143.5v-2h177l-3 -36h-229v28q111 107 139 142q47 58 47 106z" />
    <glyph glyph-name="threesuperior" unicode="&#xb3;" horiz-adv-x="288" 
d="M121 469q47 0 69.5 22.5t22.5 54.5q0 43 -31.5 63t-80.5 20h-25v35h28q37 0 65.5 19t28.5 56q0 26 -17.5 43t-51.5 17q-35 0 -81 -24l-10 33q48 26 95 26q53 0 80.5 -25.5t27.5 -66.5q0 -65 -71 -92v-2q39 -8 62 -35t23 -65q0 -49 -36 -81t-100 -32q-60 0 -97 23l11 33
q36 -22 88 -22z" />
    <glyph glyph-name="acute" unicode="&#xb4;" horiz-adv-x="312" 
d="M200 694h65l-123 -144h-30z" />
    <glyph glyph-name="mu" unicode="&#xb5;" horiz-adv-x="537" 
d="M243 -10q-75 0 -117 45v-74q0 -153 -49 -179l-26 24q36 30 36 150v530h38v-285q0 -85 28 -130.5t96 -45.5q64 0 113.5 43t49.5 97v321h38v-377q0 -55 3 -109h-35l-4 77h-2q-66 -87 -169 -87z" />
    <glyph glyph-name="paragraph" unicode="&#xb6;" horiz-adv-x="520" 
d="M306 -43l-35 -4v311q-85 0 -149.5 50.5t-65.5 141.5q0 41 12 76.5t39 68t78 52.5t121 21v-717zM419 -43l-37 -4v719h37v-715z" />
    <glyph glyph-name="periodcentered" unicode="&#xb7;" horiz-adv-x="200" 
d="M61 262q0 16 11 27t27 11t27.5 -11t11.5 -27t-11 -27.5t-28 -11.5q-16 0 -27 11.5t-11 27.5z" />
    <glyph glyph-name="cedilla" unicode="&#xb8;" horiz-adv-x="319" 
d="M141 0h35l-28 -57q20 -7 27.5 -10.5t21 -12t18.5 -20t5 -28.5q0 -36 -28 -58.5t-71 -22.5q-27 0 -46 9l8 32q13 -4 36 -4q64 0 64 41q0 11 -8 19t-15 11.5t-25 9.5t-23 8q9 35 29 83z" />
    <glyph glyph-name="onesuperior" unicode="&#xb9;" horiz-adv-x="244" 
d="M151 833v-392h-39v351h-2l-66 -35l-11 31l84 45h34z" />
    <glyph glyph-name="ordmasculine" unicode="&#xba;" horiz-adv-x="338" 
d="M170 383q58 0 87 41.5t29 99.5q0 59 -29 100.5t-87 41.5t-87 -41.5t-29 -100.5q0 -58 29 -99.5t87 -41.5zM170 689q63 0 101.5 -44t38.5 -121q0 -76 -38.5 -120t-101.5 -44t-101.5 44t-38.5 120q0 77 38.5 121t101.5 44z" />
    <glyph glyph-name="guillemotright" unicode="&#xbb;" horiz-adv-x="488" 
d="M383 257l-126 160l27 20l143 -180l-143 -180l-27 20zM221 257l-125 160l26 20l143 -180l-143 -180l-26 20z" />
    <glyph glyph-name="onequarter" unicode="&#xbc;" horiz-adv-x="772" 
d="M169 673v-392h-41v351l-67 -35l-11 32l84 44h35zM535 674h40l-351 -681h-40zM635 144v128l2 64h-2l-140 -192h140zM638 395h38v-251h55l1 -37h-56v-107h-41v107h-188v30z" />
    <glyph glyph-name="onehalf" unicode="&#xbd;" horiz-adv-x="772" 
d="M518 674h39l-350 -681h-40zM669 276q0 37 -20.5 60.5t-60.5 23.5q-37 0 -84 -29l-9 31q46 33 102 33q58 0 86.5 -32.5t28.5 -77.5q0 -55 -40 -109.5t-136 -139.5h180l-4 -36h-229v28q97 89 141.5 144t44.5 104zM169 673v-392h-41v351l-66 -35l-12 32l84 44h35z" />
    <glyph glyph-name="threequarters" unicode="&#xbe;" horiz-adv-x="772" 
d="M558 674h39l-350 -681h-40zM136 309q48 0 70.5 23.5t22.5 55.5q0 42 -33 62.5t-79 20.5h-31v34h34q37 0 65.5 19t28.5 55q0 27 -17.5 44t-51.5 17q-32 0 -82 -24l-8 32q46 27 93 27q53 0 81 -26t28 -66q0 -63 -72 -92v-2q39 -8 62.5 -35.5t23.5 -64.5q0 -49 -36.5 -82
t-100.5 -33q-57 0 -96 25l10 33q38 -23 88 -23zM642 144v128l2 64h-2l-140 -192h140zM645 395h38v-251h55l1 -37h-56v-107h-41v107h-188v30z" />
    <glyph glyph-name="questiondown" unicode="&#xbf;" horiz-adv-x="375" 
d="M185 321h38q5 -27 5 -35q0 -40 -15 -77t-36 -65t-42.5 -55t-36.5 -58.5t-15 -64.5q0 -58 43 -93.5t117 -35.5q24 0 48 6l9 -30q-48 -10 -68 -10q-96 0 -144 47t-48 116q0 41 23 83.5t50.5 73.5t50.5 75.5t23 88.5q0 12 -2 34zM245 468q0 -17 -12 -29.5t-29 -12.5
t-29 12.5t-12 29.5q0 16 12 28t29 12t29 -11.5t12 -28.5z" />
    <glyph glyph-name="Agrave" unicode="&#xc0;" horiz-adv-x="568" 
d="M305 684l236 -684h-40l-82 240h-265q0 2 -20 -59t-40.5 -122t-20.5 -59h-41l237 684h36zM289 641h-2l-44 -140l-76 -227h239l-75 227zM211 887l88 -144h-30l-123 144h65z" />
    <glyph glyph-name="Aacute" unicode="&#xc1;" horiz-adv-x="568" 
d="M305 684l236 -684h-40l-82 240h-265q0 2 -20 -59t-40.5 -122t-20.5 -59h-41l237 684h36zM289 641h-2l-44 -140l-76 -227h239l-75 227zM366 887h65l-123 -144h-30z" />
    <glyph glyph-name="Acircumflex" unicode="&#xc2;" horiz-adv-x="568" 
d="M305 684l236 -684h-40l-82 240h-265q0 2 -20 -59t-40.5 -122t-20.5 -59h-41l237 684h36zM289 641h-2l-44 -140l-76 -227h239l-75 227zM282 843l-78 -100h-36l101 148h26l104 -148h-38l-77 100h-2z" />
    <glyph glyph-name="Atilde" unicode="&#xc3;" horiz-adv-x="568" 
d="M305 684l236 -684h-40l-82 240h-265q0 2 -20 -59t-40.5 -122t-20.5 -59h-41l237 684h36zM289 641h-2l-44 -140l-76 -227h239l-75 227zM229 817q-21 0 -35 -44l-27 6q14 78 63 78q12 0 52 -21.5t58 -21.5q23 0 35 41l27 -5q-15 -77 -63 -77q-18 0 -59 22t-51 22z" />
    <glyph glyph-name="Adieresis" unicode="&#xc4;" horiz-adv-x="568" 
d="M305 684l236 -684h-40l-82 240h-265q0 2 -20 -59t-40.5 -122t-20.5 -59h-41l237 684h36zM289 641h-2l-44 -140l-76 -227h239l-75 227zM162 808q0 16 10.5 27t25.5 11q16 0 26.5 -11t10.5 -27q0 -15 -10.5 -25.5t-26.5 -10.5q-15 0 -25.5 10.5t-10.5 25.5zM333 808
q0 16 10.5 27t25.5 11t26 -11t11 -27q0 -15 -11 -25.5t-26 -10.5t-25.5 10.5t-10.5 25.5z" />
    <glyph glyph-name="Aring" unicode="&#xc5;" horiz-adv-x="568" 
d="M315 657l226 -657h-40l-82 240h-265q0 2 -20 -59t-40.5 -122t-20.5 -59h-41l227 657h-1q-27 10 -43.5 33.5t-16.5 52.5q0 37 25.5 62.5t65.5 25.5q37 0 62.5 -25.5t25.5 -62.5q0 -30 -17 -53t-44 -33h-1zM289 641h-2l-44 -140l-76 -227h239l-75 227zM288 684q25 0 41 17
t16 42q0 26 -16.5 43t-41.5 17q-24 0 -39 -17.5t-15 -42.5q0 -24 15.5 -41.5t39.5 -17.5z" />
    <glyph glyph-name="AE" unicode="&#xc6;" horiz-adv-x="757" 
d="M696 683l-4 -34h-288l19 -276h250l-3 -34h-244l24 -306h262l-4 -33h-291l-23 304h-193l-150 -304h-41l338 683h348zM367 644h-3l-146 -307h174l-17 208z" />
    <glyph glyph-name="Ccedilla" unicode="&#xc7;" horiz-adv-x="556" 
d="M87 338q0 -139 69.5 -226.5t195.5 -87.5q94 0 159 31l9 -33q-66 -31 -169 -32l-22 -47q20 -7 27 -10.5t20.5 -12t18.5 -20t5 -28.5q0 -36 -28 -58.5t-71 -22.5q-27 0 -45 9l7 32q15 -4 37 -4q63 0 63 41q0 9 -4 15.5t-12.5 11.5t-15.5 7.5t-20 7t-19 6.5q6 28 26 75
q-120 9 -196 100.5t-76 245.5q0 153 83 254t230 101q99 0 159 -30l-9 -33q-68 29 -152 29q-128 0 -199 -89t-71 -232z" />
    <glyph glyph-name="Egrave" unicode="&#xc8;" horiz-adv-x="474" 
d="M414 683l-3 -34h-287v-277h265l-3 -32h-262v-307h305l-4 -33h-338v683h327zM225 887l88 -144h-30l-123 144h65z" />
    <glyph glyph-name="Eacute" unicode="&#xc9;" horiz-adv-x="474" 
d="M414 683l-3 -34h-287v-277h265l-3 -32h-262v-307h305l-4 -33h-338v683h327zM248 887h65l-123 -144h-30z" />
    <glyph glyph-name="Ecircumflex" unicode="&#xca;" horiz-adv-x="474" 
d="M414 683l-3 -34h-287v-277h265l-3 -32h-262v-307h305l-4 -33h-338v683h327zM235 843l-77 -100h-37l101 148h26l105 -148h-39l-77 100h-2z" />
    <glyph glyph-name="Edieresis" unicode="&#xcb;" horiz-adv-x="474" 
d="M414 683l-3 -34h-287v-277h265l-3 -32h-262v-307h305l-4 -33h-338v683h327zM114 808q0 16 10.5 27t25.5 11q16 0 26.5 -11t10.5 -27q0 -15 -10.5 -25.5t-26.5 -10.5q-15 0 -25.5 10.5t-10.5 25.5zM285 808q0 16 10.5 27t25.5 11t26 -11t11 -27q0 -15 -11 -25.5t-26 -10.5
t-25.5 10.5t-10.5 25.5z" />
    <glyph glyph-name="Igrave" unicode="&#xcc;" horiz-adv-x="213" 
d="M124 683v-683h-37v683h37zM32 887l88 -144h-30l-123 144h65z" />
    <glyph glyph-name="Iacute" unicode="&#xcd;" horiz-adv-x="213" 
d="M124 683v-683h-37v683h37zM177 887h65l-123 -144h-30z" />
    <glyph glyph-name="Icircumflex" unicode="&#xce;" horiz-adv-x="213" 
d="M124 683v-683h-37v683h37zM104 843l-77 -100h-36l101 148h26l104 -148h-38l-78 100h-2z" />
    <glyph glyph-name="Idieresis" unicode="&#xcf;" horiz-adv-x="213" 
d="M124 683v-683h-37v683h37zM-15 808q0 16 10.5 27t25.5 11q16 0 26.5 -11t10.5 -27q0 -15 -10.5 -25.5t-26.5 -10.5q-15 0 -25.5 10.5t-10.5 25.5zM156 808q0 16 10.5 27t25.5 11t26 -11t11 -27q0 -15 -11 -25.5t-26 -10.5t-25.5 10.5t-10.5 25.5z" />
    <glyph glyph-name="Eth" unicode="&#xd0;" horiz-adv-x="627" 
d="M87 360v317q95 9 171 9q160 0 241 -90t81 -244q0 -74 -19 -136t-57.5 -112t-104.5 -78.5t-153 -28.5q-78 0 -159 3v327h-80l4 33h76zM257 652q-47 0 -133 -7v-285h186l-4 -33h-182v-294q42 -3 100 -3q316 0 316 320q0 136 -70 219t-213 83z" />
    <glyph glyph-name="Ntilde" unicode="&#xd1;" horiz-adv-x="624" 
d="M538 0h-41q-24 40 -91.5 147.5t-105 168t-89.5 150t-88 159.5h-2l4 -268v-357h-38v683h40q30 -49 97 -157t106.5 -172.5t89.5 -150t82 -147.5h2l-5 272v355h39v-683zM256 817q-21 0 -35 -44l-27 6q14 78 63 78q13 0 52.5 -21.5t57.5 -21.5q23 0 35 41l27 -5
q-8 -38 -21.5 -57.5t-41.5 -19.5q-17 0 -58.5 22t-51.5 22z" />
    <glyph glyph-name="Ograve" unicode="&#xd2;" horiz-adv-x="655" 
d="M328 -11q-126 0 -203.5 96t-77.5 252q0 160 77 258.5t204 98.5q126 0 203 -98.5t77 -259.5q0 -155 -77 -251t-203 -96zM328 23q79 0 134.5 47t80 116.5t24.5 151.5q0 62 -13.5 117.5t-40.5 102.5t-74.5 74.5t-110.5 27.5t-111 -27.5t-75 -74.5t-40.5 -102.5t-13.5 -117.5
q0 -82 24.5 -151.5t80.5 -116.5t135 -47zM315 887l89 -144h-30l-124 144h65z" />
    <glyph glyph-name="Oacute" unicode="&#xd3;" horiz-adv-x="655" 
d="M328 -11q-126 0 -203.5 96t-77.5 252q0 160 77 258.5t204 98.5q126 0 203 -98.5t77 -259.5q0 -155 -77 -251t-203 -96zM328 23q79 0 134.5 47t80 116.5t24.5 151.5q0 62 -13.5 117.5t-40.5 102.5t-74.5 74.5t-110.5 27.5t-111 -27.5t-75 -74.5t-40.5 -102.5t-13.5 -117.5
q0 -82 24.5 -151.5t80.5 -116.5t135 -47zM339 887h65l-123 -144h-31z" />
    <glyph glyph-name="Ocircumflex" unicode="&#xd4;" horiz-adv-x="655" 
d="M328 -11q-126 0 -203.5 96t-77.5 252q0 160 77 258.5t204 98.5q126 0 203 -98.5t77 -259.5q0 -155 -77 -251t-203 -96zM328 23q79 0 134.5 47t80 116.5t24.5 151.5q0 62 -13.5 117.5t-40.5 102.5t-74.5 74.5t-110.5 27.5t-111 -27.5t-75 -74.5t-40.5 -102.5t-13.5 -117.5
q0 -82 24.5 -151.5t80.5 -116.5t135 -47zM326 843l-78 -100h-36l101 148h26l104 -148h-38l-77 100h-2z" />
    <glyph glyph-name="Otilde" unicode="&#xd5;" horiz-adv-x="655" 
d="M328 -11q-126 0 -203.5 96t-77.5 252q0 160 77 258.5t204 98.5q126 0 203 -98.5t77 -259.5q0 -155 -77 -251t-203 -96zM328 23q79 0 134.5 47t80 116.5t24.5 151.5q0 62 -13.5 117.5t-40.5 102.5t-74.5 74.5t-110.5 27.5t-111 -27.5t-75 -74.5t-40.5 -102.5t-13.5 -117.5
q0 -82 24.5 -151.5t80.5 -116.5t135 -47zM272 817q-22 0 -35 -44l-27 6q14 78 63 78q13 0 52 -21.5t58 -21.5q24 0 34 41l28 -5q-15 -77 -63 -77q-18 0 -59 22t-51 22z" />
    <glyph glyph-name="Odieresis" unicode="&#xd6;" horiz-adv-x="655" 
d="M328 -11q-126 0 -203.5 96t-77.5 252q0 160 77 258.5t204 98.5q126 0 203 -98.5t77 -259.5q0 -155 -77 -251t-203 -96zM328 23q79 0 134.5 47t80 116.5t24.5 151.5q0 62 -13.5 117.5t-40.5 102.5t-74.5 74.5t-110.5 27.5t-111 -27.5t-75 -74.5t-40.5 -102.5t-13.5 -117.5
q0 -82 24.5 -151.5t80.5 -116.5t135 -47zM205 808q0 16 10.5 27t25.5 11q16 0 26.5 -11t10.5 -27q0 -15 -10.5 -25.5t-26.5 -10.5q-15 0 -25.5 10.5t-10.5 25.5zM376 808q0 16 10.5 27t25.5 11t26 -11t11 -27q0 -15 -11 -25.5t-26 -10.5t-25.5 10.5t-10.5 25.5z" />
    <glyph glyph-name="multiply" unicode="&#xd7;" horiz-adv-x="576" 
d="M513 465l-200 -203l200 -204l-26 -25l-199 203l-200 -203l-25 25l199 204l-199 203l25 25l200 -202l199 202z" />
    <glyph glyph-name="Oslash" unicode="&#xd8;" horiz-adv-x="655" 
d="M328 -11q-93 0 -162 52l-46 -77l-30 12l52 88q-95 98 -95 273q0 160 77 258.5t204 98.5q87 0 156 -51l47 77l32 -12l-54 -89q99 -99 99 -283q0 -155 -77 -251t-203 -96zM328 23q79 0 134.5 47t80 116.5t24.5 151.5q0 162 -75 251l-306 -515q57 -51 142 -51zM88 338
q0 -151 74 -240l304 514q-56 48 -138 48q-63 0 -111 -27.5t-75 -74.5t-40.5 -102.5t-13.5 -117.5z" />
    <glyph glyph-name="Ugrave" unicode="&#xd9;" horiz-adv-x="611" 
d="M300 -10q-98 0 -157 61.5t-59 193.5v438h38v-435q0 -111 48 -168t132 -57q90 0 138.5 56.5t48.5 168.5v435h39v-435q0 -132 -63 -195t-165 -63zM294 887l88 -144h-30l-123 144h65z" />
    <glyph glyph-name="Uacute" unicode="&#xda;" horiz-adv-x="611" 
d="M300 -10q-98 0 -157 61.5t-59 193.5v438h38v-435q0 -111 48 -168t132 -57q90 0 138.5 56.5t48.5 168.5v435h39v-435q0 -132 -63 -195t-165 -63zM317 887h65l-123 -144h-30z" />
    <glyph glyph-name="Ucircumflex" unicode="&#xdb;" horiz-adv-x="611" 
d="M300 -10q-98 0 -157 61.5t-59 193.5v438h38v-435q0 -111 48 -168t132 -57q90 0 138.5 56.5t48.5 168.5v435h39v-435q0 -132 -63 -195t-165 -63zM303 843l-77 -100h-37l102 148h25l105 -148h-39l-77 100h-2z" />
    <glyph glyph-name="Udieresis" unicode="&#xdc;" horiz-adv-x="611" 
d="M300 -10q-98 0 -157 61.5t-59 193.5v438h38v-435q0 -111 48 -168t132 -57q90 0 138.5 56.5t48.5 168.5v435h39v-435q0 -132 -63 -195t-165 -63zM184 808q0 16 10 27t26 11q15 0 26 -11t11 -27q0 -15 -11 -25.5t-26 -10.5q-16 0 -26 10.5t-10 25.5zM354 808q0 16 10.5 27
t25.5 11q16 0 27 -11t11 -27q0 -15 -11 -25.5t-27 -10.5q-15 0 -25.5 10.5t-10.5 25.5z" />
    <glyph glyph-name="Yacute" unicode="&#xdd;" horiz-adv-x="498" 
d="M269 0h-37v287l-210 396h44l104 -200l83 -160h2l81 160l108 200h44l-219 -396v-287zM261 887h65l-123 -144h-30z" />
    <glyph glyph-name="Thorn" unicode="&#xde;" horiz-adv-x="511" 
d="M125 683v-148q61 6 125 6q96 0 152.5 -48t56.5 -130q0 -197 -256 -197q-45 0 -78 4v-170h-38v683h38zM125 501v-295q35 -5 82 -5q105 0 158 37.5t53 119.5q0 81 -48.5 115t-148.5 34q-54 0 -96 -6z" />
    <glyph glyph-name="germandbls" unicode="&#xdf;" horiz-adv-x="552" 
d="M317 390q0 -30 18.5 -54t45.5 -43t54 -39t45.5 -50.5t18.5 -68.5q0 -67 -46.5 -106t-122.5 -39q-63 0 -114 23l9 35q52 -23 105 -23t91.5 25.5t38.5 83.5q0 30 -18.5 57t-45 47.5l-53 41t-45 47.5t-18.5 57q0 32 18 64t51.5 70t43.5 53q11 60 -20 96t-96 36
q-86 0 -115.5 -52.5t-29.5 -182.5v-468h-38v479q0 140 44.5 199.5t144.5 59.5q68 0 109.5 -40.5t41.5 -117.5q1 0 -10.5 -11.5t-29 -32.5t-35 -44.5t-30 -51.5t-12.5 -50z" />
    <glyph glyph-name="agrave" unicode="&#xe0;" horiz-adv-x="465" 
d="M381 324v-200q0 -62 3 -124h-34l-6 63h-3q-62 -73 -155 -73q-65 0 -101.5 36t-36.5 91q0 36 12 61t28.5 38.5t46.5 20t52.5 8t60.5 1.5h94v73q0 33 -1.5 51t-8 38.5t-19 30.5t-35.5 16.5t-58 6.5q-67 0 -133 -32l-7 32q67 34 137 34q53 0 86.5 -11.5t50 -36t22 -52.5
t5.5 -72zM188 25q55 0 105 33.5t49 87.5v65h-97h-33t-29.5 -1.5t-30.5 -4.5t-23.5 -9t-21.5 -15.5t-11.5 -23.5t-5.5 -33q0 -47 27 -73t71 -26zM220 694l89 -144h-30l-124 144h65z" />
    <glyph glyph-name="aacute" unicode="&#xe1;" horiz-adv-x="465" 
d="M381 324v-200q0 -62 3 -124h-34l-6 63h-3q-62 -73 -155 -73q-65 0 -101.5 36t-36.5 91q0 36 12 61t28.5 38.5t46.5 20t52.5 8t60.5 1.5h94v73q0 33 -1.5 51t-8 38.5t-19 30.5t-35.5 16.5t-58 6.5q-67 0 -133 -32l-7 32q67 34 137 34q53 0 86.5 -11.5t50 -36t22 -52.5
t5.5 -72zM188 25q55 0 105 33.5t49 87.5v65h-97h-33t-29.5 -1.5t-30.5 -4.5t-23.5 -9t-21.5 -15.5t-11.5 -23.5t-5.5 -33q0 -47 27 -73t71 -26zM244 694h65l-124 -144h-30z" />
    <glyph glyph-name="acircumflex" unicode="&#xe2;" horiz-adv-x="465" 
d="M381 324v-200q0 -62 3 -124h-34l-6 63h-3q-62 -73 -155 -73q-65 0 -101.5 36t-36.5 91q0 36 12 61t28.5 38.5t46.5 20t52.5 8t60.5 1.5h94v73q0 33 -1.5 51t-8 38.5t-19 30.5t-35.5 16.5t-58 6.5q-67 0 -133 -32l-7 32q67 34 137 34q53 0 86.5 -11.5t50 -36t22 -52.5
t5.5 -72zM188 25q55 0 105 33.5t49 87.5v65h-97h-33t-29.5 -1.5t-30.5 -4.5t-23.5 -9t-21.5 -15.5t-11.5 -23.5t-5.5 -33q0 -47 27 -73t71 -26zM230 650l-77 -100h-36l101 148h26l104 -148h-38l-78 100h-2z" />
    <glyph glyph-name="atilde" unicode="&#xe3;" horiz-adv-x="465" 
d="M381 324v-200q0 -62 3 -124h-34l-6 63h-3q-62 -73 -155 -73q-65 0 -101.5 36t-36.5 91q0 36 12 61t28.5 38.5t46.5 20t52.5 8t60.5 1.5h94v73q0 33 -1.5 51t-8 38.5t-19 30.5t-35.5 16.5t-58 6.5q-67 0 -133 -32l-7 32q67 34 137 34q53 0 86.5 -11.5t50 -36t22 -52.5
t5.5 -72zM188 25q55 0 105 33.5t49 87.5v65h-97h-33t-29.5 -1.5t-30.5 -4.5t-23.5 -9t-21.5 -15.5t-11.5 -23.5t-5.5 -33q0 -47 27 -73t71 -26zM177 624q-22 0 -35 -44l-28 6q15 78 63 78q13 0 53 -21.5t58 -21.5q24 0 34 41l28 -5q-8 -38 -22 -57.5t-41 -19.5q-18 0 -59 22
t-51 22z" />
    <glyph glyph-name="adieresis" unicode="&#xe4;" horiz-adv-x="465" 
d="M381 324v-200q0 -62 3 -124h-34l-6 63h-3q-62 -73 -155 -73q-65 0 -101.5 36t-36.5 91q0 36 12 61t28.5 38.5t46.5 20t52.5 8t60.5 1.5h94v73q0 33 -1.5 51t-8 38.5t-19 30.5t-35.5 16.5t-58 6.5q-67 0 -133 -32l-7 32q67 34 137 34q53 0 86.5 -11.5t50 -36t22 -52.5
t5.5 -72zM188 25q55 0 105 33.5t49 87.5v65h-97h-33t-29.5 -1.5t-30.5 -4.5t-23.5 -9t-21.5 -15.5t-11.5 -23.5t-5.5 -33q0 -47 27 -73t71 -26zM110 615q0 16 10.5 27t25.5 11q16 0 26.5 -11t10.5 -27q0 -15 -10.5 -25.5t-26.5 -10.5q-15 0 -25.5 10.5t-10.5 25.5zM281 615
q0 16 10 27t26 11q15 0 26 -11t11 -27q0 -15 -11 -25.5t-26 -10.5q-16 0 -26 10.5t-10 25.5z" />
    <glyph glyph-name="aring" unicode="&#xe5;" horiz-adv-x="465" 
d="M381 324v-200q0 -62 3 -124h-34l-6 63h-3q-62 -73 -155 -73q-65 0 -101.5 36t-36.5 91q0 36 12 61t28.5 38.5t46.5 20t52.5 8t60.5 1.5h94v73q0 33 -1.5 51t-8 38.5t-19 30.5t-35.5 16.5t-58 6.5q-67 0 -133 -32l-7 32q67 34 137 34q53 0 86.5 -11.5t50 -36t22 -52.5
t5.5 -72zM188 25q55 0 105 33.5t49 87.5v65h-97h-33t-29.5 -1.5t-30.5 -4.5t-23.5 -9t-21.5 -15.5t-11.5 -23.5t-5.5 -33q0 -47 27 -73t71 -26zM233 541q-38 0 -64.5 25.5t-26.5 61.5q0 37 26 62.5t66 25.5q37 0 62.5 -25.5t25.5 -62.5q0 -36 -26.5 -61.5t-62.5 -25.5z
M233 569q24 0 40 17.5t16 41.5q0 26 -16 43t-41 17q-24 0 -39.5 -17t-15.5 -43q0 -24 16 -41.5t40 -17.5z" />
    <glyph glyph-name="ae" unicode="&#xe6;" horiz-adv-x="768" 
d="M551 -10q-130 0 -182 108h-2q-34 -54 -83.5 -81t-98.5 -27q-64 0 -100.5 36t-36.5 91q0 36 12 61t28.5 38.5t46.5 20t52.5 8t60.5 1.5h94v73q0 33 -1.5 51t-8 38.5t-19 30.5t-35.5 16.5t-58 6.5q-67 0 -133 -32l-7 32q67 34 137 34q77 0 114 -23.5t47 -71.5h1
q55 95 166 95q97 0 140 -71.5t28 -174.5h-332q0 -225 176 -225q68 0 132 29l7 -34q-65 -30 -145 -30zM188 25q26 0 55 11.5t55.5 32.5t40 58.5t5.5 82.5h-99h-9q-29 0 -44 -0.5t-38 -5t-34.5 -13t-20.5 -25.5t-9 -42q0 -47 27 -73t71 -26zM384 285h291q1 8 1 22
q0 66 -31 110.5t-105 44.5q-72 0 -110 -50.5t-46 -126.5z" />
    <glyph glyph-name="ccedilla" unicode="&#xe7;" horiz-adv-x="458" 
d="M87 242q0 -99 52 -158t139 -59q62 0 129 26l9 -33q-49 -23 -122 -27l-23 -48q20 -7 27.5 -10.5t21 -12t18.5 -20t5 -28.5q0 -36 -28 -58.5t-71 -22.5q-26 0 -46 9l8 32q15 -4 37 -4q63 0 63 41q0 9 -4 15.5t-12.5 11.5t-15.5 7.5t-20 7t-19 6.5q6 25 24 73
q-97 5 -153.5 72t-56.5 178q0 117 65 186.5t169 69.5q83 0 135 -28l-10 -34q-60 27 -127 27q-92 0 -143 -61.5t-51 -157.5z" />
    <glyph glyph-name="egrave" unicode="&#xe8;" horiz-adv-x="487" 
d="M264 -10q-103 0 -159 67.5t-56 178.5q0 122 57.5 191t151.5 69q98 0 144 -72t31 -174h-346q0 -111 47.5 -168t136.5 -57q74 0 138 29l7 -34q-65 -30 -152 -30zM90 285h305q1 8 1 22q0 65 -34.5 110t-108.5 45q-72 0 -114 -51.5t-49 -125.5zM231 694l89 -144h-30l-124 144
h65z" />
    <glyph glyph-name="eacute" unicode="&#xe9;" horiz-adv-x="487" 
d="M264 -10q-103 0 -159 67.5t-56 178.5q0 122 57.5 191t151.5 69q98 0 144 -72t31 -174h-346q0 -111 47.5 -168t136.5 -57q74 0 138 29l7 -34q-65 -30 -152 -30zM90 285h305q1 8 1 22q0 65 -34.5 110t-108.5 45q-72 0 -114 -51.5t-49 -125.5zM255 694h65l-124 -144h-30z
" />
    <glyph glyph-name="ecircumflex" unicode="&#xea;" horiz-adv-x="487" 
d="M264 -10q-103 0 -159 67.5t-56 178.5q0 122 57.5 191t151.5 69q98 0 144 -72t31 -174h-346q0 -111 47.5 -168t136.5 -57q74 0 138 29l7 -34q-65 -30 -152 -30zM90 285h305q1 8 1 22q0 65 -34.5 110t-108.5 45q-72 0 -114 -51.5t-49 -125.5zM241 650l-77 -100h-36l101 148
h26l104 -148h-38l-78 100h-2z" />
    <glyph glyph-name="edieresis" unicode="&#xeb;" horiz-adv-x="487" 
d="M264 -10q-103 0 -159 67.5t-56 178.5q0 122 57.5 191t151.5 69q98 0 144 -72t31 -174h-346q0 -111 47.5 -168t136.5 -57q74 0 138 29l7 -34q-65 -30 -152 -30zM90 285h305q1 8 1 22q0 65 -34.5 110t-108.5 45q-72 0 -114 -51.5t-49 -125.5zM121 615q0 16 10.5 27t25.5 11
q16 0 26.5 -11t10.5 -27q0 -15 -10.5 -25.5t-26.5 -10.5q-15 0 -25.5 10.5t-10.5 25.5zM292 615q0 16 10 27t26 11q15 0 26 -11t11 -27q0 -15 -11 -25.5t-26 -10.5q-16 0 -26 10.5t-10 25.5z" />
    <glyph glyph-name="igrave" unicode="&#xec;" horiz-adv-x="212" 
d="M87 0v486l38 3v-489h-38zM38 694l88 -144h-30l-124 144h66z" />
    <glyph glyph-name="iacute" unicode="&#xed;" horiz-adv-x="212" 
d="M87 0v486l38 3v-489h-38zM180 694h65l-123 -144h-30z" />
    <glyph glyph-name="icircumflex" unicode="&#xee;" horiz-adv-x="212" 
d="M87 0v486l38 3v-489h-38zM104 650l-77 -100h-37l101 148h26l105 -148h-39l-77 100h-2z" />
    <glyph glyph-name="idieresis" unicode="&#xef;" horiz-adv-x="212" 
d="M87 0v486l38 3v-489h-38zM-16 615q0 16 10.5 27t26.5 11q15 0 26 -11t11 -27q0 -15 -11 -25.5t-26 -10.5q-16 0 -26.5 10.5t-10.5 25.5zM155 615q0 16 10.5 27t25.5 11q16 0 26.5 -11t10.5 -27q0 -15 -10.5 -25.5t-26.5 -10.5q-15 0 -25.5 10.5t-10.5 25.5z" />
    <glyph glyph-name="eth" unicode="&#xf0;" horiz-adv-x="524" 
d="M281 653q98 63 110 71q9 -16 17 -29l-100 -65q165 -149 165 -374q0 -127 -61.5 -196.5t-153.5 -69.5t-150.5 65.5t-58.5 171.5q0 110 60.5 174.5t148.5 64.5q90 0 154 -64l2 2q-37 120 -136 204q-98 -62 -128 -82l-17 29l118 77q-54 45 -135 74l12 32q89 -31 153 -85z
M433 259q-7 80 -52 126t-124 46q-81 0 -125.5 -62t-44.5 -142q0 -87 48.5 -144.5t119.5 -57.5q82 0 130 64t48 170z" />
    <glyph glyph-name="ntilde" unicode="&#xf1;" horiz-adv-x="538" 
d="M295 496q27 0 52 -8.5t50 -28t40.5 -60t15.5 -96.5v-303h-38v294q0 168 -129 168q-49 0 -92.5 -29t-68.5 -74v-359h-38v377q0 17 -0.5 35t-1.5 39.5t-1 34.5l38 3l2 -82h2q66 89 169 89zM213 624q-21 0 -35 -44l-27 6q14 78 63 78q13 0 52.5 -21.5t57.5 -21.5q23 0 35 41
l27 -5q-8 -38 -21.5 -57.5t-41.5 -19.5q-17 0 -58.5 22t-51.5 22z" />
    <glyph glyph-name="ograve" unicode="&#xf2;" 
d="M444 243q0 90 -44.5 154t-134.5 64q-89 0 -133.5 -64t-44.5 -154t44.5 -154t133.5 -64q90 0 134.5 64t44.5 154zM481 242q0 -117 -59.5 -184.5t-156.5 -67.5t-156 67.5t-59 184.5q0 118 59 186t156 68t156.5 -68t59.5 -186zM252 694l89 -144h-31l-123 144h65z" />
    <glyph glyph-name="oacute" unicode="&#xf3;" 
d="M444 243q0 90 -44.5 154t-134.5 64q-89 0 -133.5 -64t-44.5 -154t44.5 -154t133.5 -64q90 0 134.5 64t44.5 154zM481 242q0 -117 -59.5 -184.5t-156.5 -67.5t-156 67.5t-59 184.5q0 118 59 186t156 68t156.5 -68t59.5 -186zM275 694h66l-124 -144h-30z" />
    <glyph glyph-name="ocircumflex" unicode="&#xf4;" 
d="M444 243q0 90 -44.5 154t-134.5 64q-89 0 -133.5 -64t-44.5 -154t44.5 -154t133.5 -64q90 0 134.5 64t44.5 154zM481 242q0 -117 -59.5 -184.5t-156.5 -67.5t-156 67.5t-59 184.5q0 118 59 186t156 68t156.5 -68t59.5 -186zM261 650l-77 -100h-36l101 148h25l105 -148
h-39l-77 100h-2z" />
    <glyph glyph-name="otilde" unicode="&#xf5;" 
d="M444 243q0 90 -44.5 154t-134.5 64q-89 0 -133.5 -64t-44.5 -154t44.5 -154t133.5 -64q90 0 134.5 64t44.5 154zM481 242q0 -117 -59.5 -184.5t-156.5 -67.5t-156 67.5t-59 184.5q0 118 59 186t156 68t156.5 -68t59.5 -186zM208 624q-21 0 -35 -44l-27 6q14 78 63 78
q13 0 52.5 -21.5t57.5 -21.5q23 0 35 41l27 -5q-8 -38 -21.5 -57.5t-41.5 -19.5q-17 0 -58.5 22t-51.5 22z" />
    <glyph glyph-name="odieresis" unicode="&#xf6;" 
d="M444 243q0 90 -44.5 154t-134.5 64q-89 0 -133.5 -64t-44.5 -154t44.5 -154t133.5 -64q90 0 134.5 64t44.5 154zM481 242q0 -117 -59.5 -184.5t-156.5 -67.5t-156 67.5t-59 184.5q0 118 59 186t156 68t156.5 -68t59.5 -186zM142 615q0 16 10.5 27t25.5 11t26 -11t11 -27
q0 -15 -11 -25.5t-26 -10.5t-25.5 10.5t-10.5 25.5zM313 615q0 16 10 27t26 11q15 0 26 -11t11 -27q0 -15 -11 -25.5t-26 -10.5q-16 0 -26 10.5t-10 25.5z" />
    <glyph glyph-name="divide" unicode="&#xf7;" horiz-adv-x="580" 
d="M61 282h458v-34h-458v34zM249 435q0 18 11.5 30t29.5 12q17 0 29.5 -12.5t12.5 -29.5q0 -18 -12 -29.5t-30 -11.5t-29.5 11.5t-11.5 29.5zM249 93q0 18 11.5 30t29.5 12q17 0 29.5 -12.5t12.5 -29.5q0 -18 -12 -29.5t-30 -11.5t-29.5 11.5t-11.5 29.5z" />
    <glyph glyph-name="oslash" unicode="&#xf8;" 
d="M265 496q66 0 113 -31l36 58l35 -13l-41 -67q73 -71 73 -201q0 -118 -59.5 -185t-156.5 -67q-68 0 -118 32l-35 -58l-33 15l41 66q-70 68 -70 197q0 119 60 186.5t155 67.5zM265 25q90 0 134.5 63.5t44.5 154.5q0 107 -56 169l-220 -358q40 -29 97 -29zM87 243
q0 -105 53 -167l219 358q-42 27 -94 27q-89 0 -133.5 -63.5t-44.5 -154.5z" />
    <glyph glyph-name="ugrave" unicode="&#xf9;" horiz-adv-x="535" 
d="M240 -10q-66 0 -111 44.5t-45 154.5v297h38v-285q0 -85 28 -130.5t96 -45.5q64 0 113.5 43t49.5 97v321h38v-377q0 -55 3 -109h-35l-4 77h-2q-66 -87 -169 -87zM255 694l88 -144h-30l-123 144h65z" />
    <glyph glyph-name="uacute" unicode="&#xfa;" horiz-adv-x="535" 
d="M240 -10q-66 0 -111 44.5t-45 154.5v297h38v-285q0 -85 28 -130.5t96 -45.5q64 0 113.5 43t49.5 97v321h38v-377q0 -55 3 -109h-35l-4 77h-2q-66 -87 -169 -87zM278 694h65l-123 -144h-30z" />
    <glyph glyph-name="ucircumflex" unicode="&#xfb;" horiz-adv-x="535" 
d="M240 -10q-66 0 -111 44.5t-45 154.5v297h38v-285q0 -85 28 -130.5t96 -45.5q64 0 113.5 43t49.5 97v321h38v-377q0 -55 3 -109h-35l-4 77h-2q-66 -87 -169 -87zM265 650l-77 -100h-36l101 148h25l105 -148h-39l-77 100h-2z" />
    <glyph glyph-name="udieresis" unicode="&#xfc;" horiz-adv-x="535" 
d="M240 -10q-66 0 -111 44.5t-45 154.5v297h38v-285q0 -85 28 -130.5t96 -45.5q64 0 113.5 43t49.5 97v321h38v-377q0 -55 3 -109h-35l-4 77h-2q-66 -87 -169 -87zM145 615q0 16 10.5 27t25.5 11t26 -11t11 -27q0 -15 -11 -25.5t-26 -10.5t-25.5 10.5t-10.5 25.5zM315 615
q0 16 10.5 27t26.5 11q15 0 26 -11t11 -27q0 -15 -11 -25.5t-26 -10.5q-16 0 -26.5 10.5t-10.5 25.5z" />
    <glyph glyph-name="yacute" unicode="&#xfd;" horiz-adv-x="449" 
d="M109 -225l100 235h-6l-181 476h40l91 -245l71 -191h2l159 436h41l-274 -711h-43zM235 694h65l-123 -144h-30z" />
    <glyph glyph-name="thorn" unicode="&#xfe;" horiz-adv-x="541" 
d="M291 496q93 0 146.5 -68t53.5 -178q0 -123 -57.5 -191.5t-155.5 -68.5q-93 0 -151 69h-2v-278h-38v916l38 3v-289h2q60 85 164 85zM286 463q-46 0 -91.5 -30t-69.5 -78v-242q20 -39 63.5 -64t93.5 -25q81 0 126 61.5t45 163.5q0 92 -43 153t-124 61z" />
    <glyph glyph-name="ydieresis" unicode="&#xff;" horiz-adv-x="449" 
d="M109 -225l100 235h-6l-181 476h40l91 -245l71 -191h2l159 436h41l-274 -711h-43zM102 615q0 16 10 27t26 11q15 0 26 -11t11 -27q0 -15 -11 -25.5t-26 -10.5q-16 0 -26 10.5t-10 25.5zM272 615q0 16 10.5 27t26.5 11q15 0 26 -11t11 -27q0 -15 -11 -25.5t-26 -10.5
q-16 0 -26.5 10.5t-10.5 25.5z" />
    <glyph glyph-name="OE" unicode="&#x152;" horiz-adv-x="883" 
d="M824 683l-4 -34h-286v-277h265l-4 -32h-261v-307h304l-4 -33h-338v47q-70 -58 -168 -58q-126 0 -203.5 96t-77.5 252q0 160 77 258.5t204 98.5q97 0 168 -59v48h328zM328 23q106 0 168 80v479q-63 78 -168 78q-63 0 -111 -27.5t-75 -74.5t-40.5 -102.5t-13.5 -117.5
q0 -82 24.5 -151.5t80.5 -116.5t135 -47z" />
    <glyph glyph-name="oe" unicode="&#x153;" horiz-adv-x="861" 
d="M641 -10q-145 0 -191 130h-2q-23 -63 -72 -96.5t-116 -33.5q-96 0 -153 66.5t-57 185.5q0 120 57.5 187t152.5 67q68 0 117 -34.5t71 -100.5h2q23 65 70.5 100t114.5 35q97 0 141 -71.5t29 -174.5h-338q0 -112 46.5 -168.5t134.5 -56.5q70 0 134 29l6 -34
q-62 -30 -147 -30zM260 25q88 0 130.5 63t42.5 155t-42.5 155t-130.5 63t-130.5 -63t-42.5 -155t42.5 -155t130.5 -63zM470 285h298q1 8 1 22q0 66 -32.5 110.5t-106.5 44.5q-72 0 -112 -51t-48 -126z" />
    <glyph glyph-name="Ydieresis" unicode="&#x178;" horiz-adv-x="498" 
d="M269 0h-37v287l-210 396h44l104 -200l83 -160h2l81 160l108 200h44l-219 -396v-287zM127 808q0 16 10.5 27t25.5 11q16 0 27 -11t11 -27q0 -15 -11 -25.5t-27 -10.5q-15 0 -25.5 10.5t-10.5 25.5zM298 808q0 16 10.5 27t25.5 11t26 -11t11 -27q0 -15 -11 -25.5t-26 -10.5
t-25.5 10.5t-10.5 25.5z" />
    <glyph glyph-name="tilde" unicode="&#x2dc;" horiz-adv-x="349" 
d="M119 624q-21 0 -35 -44l-27 6q14 78 63 78q13 0 52.5 -21.5t57.5 -21.5q23 0 35 41l27 -5q-15 -77 -63 -77q-18 0 -59 22t-51 22z" />
    <glyph glyph-name="endash" unicode="&#x2013;" horiz-adv-x="538" 
d="M55 276h428v-33h-428v33z" />
    <glyph glyph-name="emdash" unicode="&#x2014;" horiz-adv-x="951" 
d="M55 276h840v-33h-840v33z" />
    <glyph glyph-name="quoteleft" unicode="&#x2018;" horiz-adv-x="199" 
d="M129 720l25 -9q-46 -106 -50 -214l-46 6q9 54 30 117.5t41 99.5z" />
    <glyph glyph-name="quoteright" unicode="&#x2019;" horiz-adv-x="199" 
d="M70 493l-25 9q45 104 50 213l46 -6q-9 -54 -30 -117.5t-41 -98.5z" />
    <glyph glyph-name="quotedblleft" unicode="&#x201c;" horiz-adv-x="328" 
d="M129 720l25 -9q-46 -106 -50 -214l-46 6q9 54 30 117.5t41 99.5zM258 720l25 -9q-46 -106 -50 -214l-46 6q9 54 30 117.5t41 99.5z" />
    <glyph glyph-name="quotedblright" unicode="&#x201d;" horiz-adv-x="328" 
d="M70 493l-25 9q45 104 50 213l46 -6q-9 -54 -30 -117.5t-41 -98.5zM199 493l-25 9q45 104 50 213l46 -6q-9 -54 -30 -117.5t-41 -98.5z" />
    <glyph glyph-name="quotedblbase" unicode="&#x201e;" horiz-adv-x="328" 
d="M199 -137l-25 9q46 106 50 213l46 -6q-9 -54 -30 -117.5t-41 -98.5zM70 -137l-25 9q46 106 50 213l46 -6q-9 -54 -30 -117.5t-41 -98.5z" />
    <glyph glyph-name="bullet" unicode="&#x2022;" horiz-adv-x="241" 
d="M37 267q0 35 24.5 59t59.5 24t59 -24t24 -59t-24.5 -59.5t-58.5 -24.5q-35 0 -59.5 24.5t-24.5 59.5z" />
    <glyph glyph-name="ellipsis" unicode="&#x2026;" horiz-adv-x="671" 
d="M82 31q0 17 12 29t29 12t29.5 -12.5t12.5 -28.5q0 -17 -12.5 -29t-29.5 -12t-29 12t-12 29zM317 31q0 17 12 29t28 12q17 0 29.5 -12t12.5 -29t-12.5 -29t-29.5 -12t-28.5 12t-11.5 29zM553 31q0 17 12 29t29 12q16 0 28.5 -12t12.5 -29t-12 -29t-29 -12t-29 12t-12 29z
" />
    <glyph glyph-name="guilsinglleft" unicode="&#x2039;" horiz-adv-x="326" 
d="M231 417l-126 -160l126 -160l-27 -20l-143 180l143 180z" />
    <glyph glyph-name="guilsinglright" unicode="&#x203a;" horiz-adv-x="326" 
d="M221 257l-125 160l26 20l143 -180l-143 -180l-26 20z" />
    <glyph glyph-name="Euro" unicode="&#x20ac;" horiz-adv-x="535" 
d="M138 297h280l-4 -34h-274q13 -114 70.5 -177t146.5 -63q71 0 143 36l7 -31q-63 -38 -150 -38q-108 0 -176.5 74t-80.5 199h-70l4 34h63q-2 50 2 80h-69l4 34h69q18 121 87 194t175 73q73 0 137 -32l-9 -33q-57 30 -129 30q-93 0 -148 -61t-73 -171h275l-4 -34h-275
q-5 -43 -1 -80z" />
    <glyph glyph-name="trademark" unicode="&#x2122;" horiz-adv-x="667" 
d="M152 657h-94l2 26h216l-2 -26h-93v-264h-29v264zM481 395h-33l-98 257h-2l-1 -56l-9 -203h-28l14 290h43l77 -201l19 -54h2l19 54l77 201h43l15 -290h-29l-9 203l-1 56h-2z" />
    <glyph glyph-name="thinspace" horiz-adv-x="120" 
 />
    </font>
</defs>
</svg>
