<?xml version="1.0" standalone="no"?>
<!DOCTYPE svg PUBLIC "-//W3C//DTD SVG 1.1//EN" "http://www.w3.org/Graphics/SVG/1.1/DTD/svg11.dtd" >
<svg>
<metadata>
Created by FontForge 20120731 at Thu Jun 18 08:54:05 2015
 By ,,,
Copyright (c) 2011 by Neil Summerour and Positype. All rights reserved.
</metadata>
<defs>
<font id="b232aaff09eaa9777c5230c4d94144ec52f5fee3de36f7d2f32c2e8ba7498a0" horiz-adv-x="671" >
  <font-face 
    font-family="b232aaff09eaa9777c5230c4d94144ec52f5fee3de36f7d2f32c2e8ba7498a06"
    font-weight="600"
    font-style="italic"
    font-stretch="normal"
    units-per-em="1000"
    panose-1="2 0 5 4 0 0 0 2 0 4"
    ascent="750"
    descent="-250"
    x-height="492"
    cap-height="683"
    bbox="-121 -239 949 898"
    underline-thickness="50"
    underline-position="-50"
    slope="-9"
    unicode-range="U+0020-2122"
  />
<missing-glyph horiz-adv-x="531" 
 />
    <glyph glyph-name=".notdef" horiz-adv-x="531" 
 />
    <glyph glyph-name=".null" horiz-adv-x="0" 
 />
    <glyph glyph-name="nonmarkingreturn" horiz-adv-x="333" 
 />
    <glyph glyph-name="space" unicode=" " horiz-adv-x="200" 
 />
    <glyph glyph-name="space" unicode="&#xa0;" horiz-adv-x="200" 
 />
    <glyph glyph-name="exclam" unicode="!" horiz-adv-x="265" 
d="M193 234h-105l61 470h141zM33 57q0 18 7 36t20 32.5t30 23t38 8.5q32 0 50 -19.5t18 -49.5q0 -18 -7 -35.5t-20 -32t-30.5 -23t-38.5 -8.5q-30 0 -48.5 19.5t-18.5 48.5z" />
    <glyph glyph-name="quotedbl" unicode="&#x22;" horiz-adv-x="382" 
d="M257 716l-61 -244h-82l26 244h117zM426 716l-60 -244h-82l26 244h116z" />
    <glyph glyph-name="numbersign" unicode="#" horiz-adv-x="577" 
d="M480 452h92l-20 -87h-93l-31 -116h94l-20 -88h-96l-42 -157h-88l43 157h-93l-43 -157h-87l42 157h-91l19 88h95l30 116h-94l19 87h97l42 155h86l-41 -155h93l42 155h88zM248 249h93l31 116h-94z" />
    <glyph glyph-name="dollar" unicode="$" horiz-adv-x="518" 
d="M387 664q40 -2 74 -12t57 -23l-33 -101q-26 12 -63.5 23t-82.5 11q-44 0 -70 -21.5t-27 -54.5q-1 -24 16 -41t43 -33.5t56.5 -33.5t56.5 -39.5t43.5 -52.5t17.5 -73q0 -47 -16.5 -83t-45 -62t-65 -42t-76.5 -22l-18 -95h-93l17 93q-43 2 -85 15t-68 28l33 104
q34 -19 75.5 -30.5t88.5 -11.5q46 0 78.5 21.5t32.5 61.5q0 28 -16.5 47.5t-42 36t-55.5 33t-56 37t-43 49t-17 68.5q0 42 14 76t39.5 59.5t60.5 42t77 22.5l15 93h93z" />
    <glyph glyph-name="percent" unicode="%" horiz-adv-x="897" 
d="M514 131q0 42 13.5 82.5t39 73t62.5 52.5t84 20q32 0 57 -11t42 -30t26 -45.5t9 -56.5q0 -47 -15 -88t-41.5 -71.5t-62 -48t-76.5 -17.5q-62 0 -100 38t-38 102zM699 287q-25 0 -42 -17.5t-27.5 -41.5t-15 -51t-4.5 -47q0 -31 12.5 -49.5t38.5 -18.5q22 0 39 14.5
t28.5 38t17.5 52.5t6 58q0 27 -13 44.5t-40 17.5zM100 450q0 41 13.5 82t39 73.5t62.5 52.5t84 20q33 0 58 -11.5t42 -31t25.5 -46t8.5 -57.5q0 -47 -15.5 -87.5t-41.5 -70.5t-62 -47.5t-76 -17.5q-62 0 -100 38.5t-38 102.5zM285 606q-25 0 -42 -17.5t-27.5 -42t-15 -51.5
t-4.5 -47q0 -31 12.5 -49t39.5 -18q21 0 37.5 14.5t28 37.5t17.5 51t6 56t-11.5 47t-40.5 19zM743 674l-447 -681h-89l448 681h88z" />
    <glyph glyph-name="ampersand" unicode="&#x26;" horiz-adv-x="653" 
d="M152 504q0 41 17 76t45.5 60t66.5 39t80 14q34 0 63.5 -10t51.5 -28.5t34.5 -45t12.5 -59.5q0 -53 -37.5 -102.5t-126.5 -96.5v-1q24 -36 51.5 -73.5t51.5 -69.5q29 35 49 80t34 96h122q-23 -82 -57 -146.5t-85 -114.5q19 -25 33 -43.5t37 -45.5l-98 -74q-6 7 -16 18.5
t-20.5 24t-20 24.5t-15.5 20q-82 -56 -191 -56q-48 0 -86.5 12.5t-64.5 35t-40 53t-14 67.5t12.5 68.5t34.5 58t52 48.5t66 40v2q-20 30 -31 62t-11 67zM244 299q-15 -9 -29 -21t-25 -26t-17.5 -31t-6.5 -37q0 -46 28.5 -70t78.5 -24q29 0 53 10t43 24q-28 38 -60.5 83
t-64.5 92zM305 423q17 9 34 20.5t30.5 26t22.5 32t10 39.5q0 26 -12 44.5t-43 18.5q-32 0 -52.5 -25.5t-20.5 -63.5q0 -47 31 -92z" />
    <glyph glyph-name="quotesingle" unicode="'" horiz-adv-x="214" 
d="M258 716l-60 -244h-82l26 244h116z" />
    <glyph glyph-name="parenleft" unicode="(" horiz-adv-x="315" 
d="M376 748q-103 -134 -154 -293.5t-51 -336.5q0 -72 12 -144t40 -142h-85q-38 73 -57 157.5t-19 174.5q0 84 17 166t47 157t71.5 141t90.5 120h88z" />
    <glyph glyph-name="parenright" unicode=")" horiz-adv-x="315" 
d="M-22 -168q101 134 152.5 293.5t51.5 333.5q0 72 -12 144.5t-39 144.5h85q38 -72 56.5 -158t18.5 -175q0 -85 -17 -166.5t-47 -156.5t-71 -140.5t-90 -119.5h-88z" />
    <glyph glyph-name="asterisk" unicode="*" horiz-adv-x="445" 
d="M227 510l-119 49q10 23 25 43t35 37l90 -86l4 2l2 135q24 6 47 5.5t46 -5.5l-45 -135l3 -2l120 86q14 -17 23 -37.5t11 -43.5l-135 -47l-1 -5l118 -48q-20 -47 -60 -81l-90 85l-5 -2v-133q-49 -12 -93 0l43 134l-3 2l-119 -86q-28 34 -34 81l136 48z" />
    <glyph glyph-name="plus" unicode="+" horiz-adv-x="580" 
d="M358 313h194l-16 -91h-193l-34 -201h-93l33 201h-193l15 91h194l33 200h93z" />
    <glyph glyph-name="comma" unicode="," horiz-adv-x="258" 
d="M-10 -123q38 63 63 133t40 144l113 -16q-12 -38 -29.5 -78t-37 -77.5t-39 -69.5t-35.5 -55z" />
    <glyph glyph-name="hyphen" unicode="-" horiz-adv-x="403" 
d="M382 314l-17 -95h-312l17 95h312z" />
    <glyph glyph-name="hyphen" unicode="&#xad;" horiz-adv-x="403" 
d="M382 314l-17 -95h-312l17 95h312z" />
    <glyph glyph-name="period" unicode="." horiz-adv-x="257" 
d="M35 57q0 18 7 36t20 32.5t30.5 23t38.5 8.5q31 0 49.5 -19.5t18.5 -49.5q0 -18 -7.5 -35.5t-20 -32t-30 -23t-38.5 -8.5q-31 0 -49.5 19.5t-18.5 48.5z" />
    <glyph glyph-name="slash" unicode="/" horiz-adv-x="369" 
d="M448 690l-367 -716h-97l365 716h99z" />
    <glyph glyph-name="zero" unicode="0" horiz-adv-x="556" 
d="M344 556q-40 0 -69 -35t-48 -86.5t-28.5 -110.5t-10.5 -108q0 -21 2.5 -42.5t11 -39.5t23.5 -29.5t40 -11.5q41 0 70 36t47.5 89t27 112.5t9.5 106.5q0 18 -2.5 39t-10.5 39t-23 29.5t-39 11.5zM359 660q54 0 90 -19t58.5 -51.5t32 -75.5t9.5 -90q0 -83 -20 -161
t-58.5 -139t-94 -97.5t-126.5 -36.5q-51 0 -87.5 17.5t-59.5 48.5t-34 74t-11 93q0 84 20 162.5t58 139.5t94.5 98t128.5 37z" />
    <glyph glyph-name="one" unicode="1" horiz-adv-x="467" 
d="M145 473l-27 92l193 88h102l-112 -653h-128l90 526h-2z" />
    <glyph glyph-name="two" unicode="2" horiz-adv-x="532" 
d="M288 550q-40 0 -76 -10.5t-68 -26.5l-12 100q38 21 91.5 34t103.5 13q46 0 81.5 -13t59.5 -35.5t36.5 -54.5t12.5 -69q0 -53 -21 -100t-60 -92t-94 -90t-123 -93v-2h250l-26 -111h-431l14 85q66 51 130 100t114 96.5t80.5 93t30.5 90.5q0 38 -24 61.5t-69 23.5z" />
    <glyph glyph-name="three" unicode="3" horiz-adv-x="532" 
d="M207 100q33 0 58 8.5t42 22.5t25.5 32t8.5 38q0 47 -35 68.5t-102 21.5h-41l25 104h40q28 0 54 5.5t45.5 17t31 29t11.5 41.5q0 27 -20 44.5t-63 17.5q-42 0 -78 -8.5t-66 -22.5l-7 102q37 18 84.5 28.5t95.5 10.5q39 0 74 -9t61 -27t41.5 -45t15.5 -63q0 -63 -41 -107.5
t-108 -60.5v-2q55 -13 86.5 -51.5t31.5 -95.5q0 -50 -23.5 -89t-62 -65.5t-88.5 -40.5t-103 -14q-56 0 -104 10.5t-74 27.5l33 104q26 -11 65.5 -21.5t86.5 -10.5z" />
    <glyph glyph-name="four" unicode="4" horiz-adv-x="539" 
d="M323 262l34 176l20 94l-2 2l-69 -95l-136 -175v-2h153zM515 653l-67 -391h75l-24 -104h-69l-26 -158h-126l27 158h-285l16 94l323 401h156z" />
    <glyph glyph-name="five" unicode="5" horiz-adv-x="532" 
d="M242 416q10 1 18.5 1.5t16.5 0.5q43 0 80.5 -11.5t65.5 -34t44.5 -56t16.5 -77.5q0 -61 -24 -107.5t-64 -78t-92.5 -47.5t-110.5 -16q-53 0 -98 10t-70 24l29 106q25 -12 62.5 -21t78.5 -9q76 0 114 35t38 86q0 46 -36.5 71t-117.5 25q-25 0 -46.5 -0.5t-44.5 -2.5l-1 1
l81 335h345l-26 -112h-226z" />
    <glyph glyph-name="six" unicode="6" horiz-adv-x="549" 
d="M352 433q39 0 70 -13.5t52.5 -37.5t33 -57t11.5 -72q0 -54 -18.5 -101.5t-53 -83.5t-82.5 -57t-106 -21q-52 0 -91 16.5t-65 46.5t-39 71t-13 89q0 99 34.5 182.5t96.5 143t148 92.5t189 32l-18 -107q-43 0 -86.5 -8.5t-82.5 -29t-71 -55t-52 -85.5h2q26 26 64 40.5
t77 14.5zM188 267q-6 -18 -7.5 -36t-1.5 -28q0 -54 24.5 -83t66.5 -29q25 0 46.5 12t37 32t24 46.5t8.5 56.5q0 42 -22.5 68t-64.5 26q-35 0 -64 -19t-47 -46z" />
    <glyph glyph-name="seven" unicode="7" horiz-adv-x="506" 
d="M99 538l25 112h420l-15 -89l-350 -561h-145l292 455l56 81v2h-283z" />
    <glyph glyph-name="eight" unicode="8" horiz-adv-x="553" 
d="M352 661q40 0 76 -10.5t62 -31t40.5 -50t12.5 -68.5q-3 -54 -37 -93t-88 -63v-2q51 -29 75 -68t22 -85q-2 -49 -25 -86.5t-59.5 -63t-82.5 -38.5t-95 -13q-52 0 -92.5 12.5t-68.5 34.5t-42 53t-12 69q3 64 43.5 109t103.5 71v2q-81 54 -75 135q2 44 23 78.5t54.5 58.5
t76 36.5t88.5 12.5zM267 86q48 0 78.5 27.5t32.5 69.5t-26 67t-70 39q-20 -6 -38.5 -16t-33 -24.5t-24 -33t-10.5 -41.5q-1 -17 4 -33t16.5 -28t29 -19.5t41.5 -7.5zM335 565q-21 0 -38.5 -7t-30 -19t-19.5 -28t-8 -33q-2 -34 21.5 -56.5t61.5 -33.5q16 6 32 15t29 22t21 29
t9 34q2 31 -17 54t-61 23z" />
    <glyph glyph-name="nine" unicode="9" horiz-adv-x="549" 
d="M253 223q-41 0 -73 13t-54 36t-34 54.5t-12 69.5q0 54 19.5 102t54.5 84t83.5 57t106.5 21q51 0 89 -16.5t63.5 -45.5t38 -68.5t12.5 -86.5q0 -99 -33.5 -184.5t-95 -147t-148.5 -95t-195 -29.5l15 107q47 -2 93 7.5t85.5 31t71 57t49.5 85.5h-2q-26 -26 -62.5 -39
t-71.5 -13zM411 391q3 14 4 28t1 28q0 50 -20.5 80.5t-66.5 30.5q-23 0 -44 -11t-37 -30t-25.5 -45t-9.5 -56q0 -40 21.5 -66.5t63.5 -26.5q40 0 68 20t45 48z" />
    <glyph glyph-name="colon" unicode=":" horiz-adv-x="257" 
d="M35 57q0 18 7 36t20 32.5t30.5 23t38.5 8.5q31 0 49.5 -19.5t18.5 -49.5q0 -18 -7.5 -35.5t-20 -32t-30 -23t-38.5 -8.5q-31 0 -49.5 19.5t-18.5 48.5zM90 382q0 18 7 36.5t20 32.5t30.5 23t38.5 9q31 0 49.5 -19.5t18.5 -49.5q0 -18 -7.5 -36t-20 -32t-30 -23t-38.5 -9
q-31 0 -49.5 19.5t-18.5 48.5z" />
    <glyph glyph-name="semicolon" unicode=";" horiz-adv-x="272" 
d="M-10 -123q38 63 63 133t40 144l113 -16q-13 -38 -30.5 -78t-36.5 -77.5t-38.5 -69.5t-35.5 -55zM106 382q0 18 7 36.5t20 32.5t30.5 23t38.5 9q31 0 49.5 -19.5t18.5 -49.5q0 -18 -7.5 -36t-20 -32t-30 -23t-38.5 -9q-31 0 -49.5 19.5t-18.5 48.5z" />
    <glyph glyph-name="less" unicode="&#x3c;" horiz-adv-x="567" 
d="M70 238l11 68l483 221l-18 -107l-346 -150l-1 -2l297 -150l-17 -101z" />
    <glyph glyph-name="equal" unicode="=" horiz-adv-x="579" 
d="M536 215l-15 -90h-481l15 90h481zM569 412l-15 -91h-481l15 91h481z" />
    <glyph glyph-name="greater" unicode="&#x3e;" horiz-adv-x="567" 
d="M531 306l-11 -67l-483 -222l17 107l346 150l1 2l-296 150l16 101z" />
    <glyph glyph-name="question" unicode="?" horiz-adv-x="428" 
d="M177 691q16 2 32.5 3.5t35.5 1.5q51 0 88.5 -11t62 -29.5t36 -44.5t11.5 -56q0 -39 -13 -68t-32.5 -52t-43 -43t-44.5 -40.5t-37.5 -44.5t-21.5 -55q-1 -5 -1.5 -9.5t-0.5 -9.5h-117q0 6 0.5 17.5t2.5 19.5q4 32 18 57t32.5 45t39.5 37t38.5 34t29 36t11.5 43
q0 31 -27.5 49t-80.5 18q-8 0 -15 -0.5t-14 -1.5zM82 57q0 18 7 36t20 32.5t30 23t38 8.5q32 0 50 -19.5t18 -49.5q0 -18 -7 -35.5t-20 -32t-30 -23t-38 -8.5q-31 0 -49.5 19.5t-18.5 48.5z" />
    <glyph glyph-name="at" unicode="@" horiz-adv-x="805" 
d="M458 138q-38 -54 -76.5 -77.5t-64.5 -23.5q-51 0 -74 28.5t-23 71.5q0 52 24 103t64 92t92.5 66.5t109.5 25.5q27 0 63 -8t60 -23q-15 -41 -34.5 -91.5t-33 -94.5t-14.5 -74t22 -30q36 0 62.5 24.5t44 60.5t26.5 76t9 71q0 42 -13.5 78t-40.5 61.5t-68 40t-96 14.5
q-76 0 -142.5 -31.5t-116.5 -84.5t-79 -122.5t-29 -146.5q0 -49 15 -89.5t43.5 -70t69.5 -45.5t94 -16q32 0 59 4.5t54 13.5v-64q-32 -13 -65.5 -17.5t-67.5 -4.5q-63 0 -115 19.5t-90 55.5t-59 86.5t-21 113.5q0 90 34 174t95.5 149.5t147.5 105t190 39.5q65 0 117 -18.5
t88 -51.5t55.5 -79.5t19.5 -102.5q0 -50 -17 -104.5t-49 -99.5t-79 -74t-108 -29q-45 0 -67.5 27t-13.5 72h-2zM518 344q-11 8 -35 8q-30 0 -58 -19t-49 -47.5t-34 -62t-13 -62.5q0 -26 12 -36t28 -10q10 0 25 7t32 24t34 45t31 69z" />
    <glyph glyph-name="A" unicode="A" horiz-adv-x="588" 
d="M554 0h-139l-17 177h-199l-78 -177h-140l320 684h166zM363 579l-39 -99l-83 -200h148l-17 199l-7 100h-2z" />
    <glyph glyph-name="B" unicode="B" horiz-adv-x="567" 
d="M212 304l-34 -200q14 -1 28.5 -1.5t30.5 -0.5q33 0 62 5.5t50.5 18t34.5 33.5t14 53q0 50 -31.5 71t-79.5 21h-75zM336 581q-23 0 -42 -1t-33 -3l-31 -172h58q63 0 101.5 25t38.5 79q0 38 -26 55t-66 17zM147 676q42 4 89 7t97 3q51 0 93 -8t73 -26.5t48 -48t17 -72.5
q0 -65 -37.5 -109.5t-94.5 -61.5v-2q46 -14 74.5 -51.5t28.5 -93.5q0 -68 -31 -110.5t-80.5 -66t-111.5 -31.5t-125 -8q-48 0 -87 2t-67 5z" />
    <glyph glyph-name="B" unicode="&#xe000;" horiz-adv-x="567" 
d="M212 304l-34 -200q14 -1 28.5 -1.5t30.5 -0.5q33 0 62 5.5t50.5 18t34.5 33.5t14 53q0 50 -31.5 71t-79.5 21h-75zM336 581q-23 0 -42 -1t-33 -3l-31 -172h58q63 0 101.5 25t38.5 79q0 38 -26 55t-66 17zM147 676q42 4 89 7t97 3q51 0 93 -8t73 -26.5t48 -48t17 -72.5
q0 -65 -37.5 -109.5t-94.5 -61.5v-2q46 -14 74.5 -51.5t28.5 -93.5q0 -68 -31 -110.5t-80.5 -66t-111.5 -31.5t-125 -8q-48 0 -87 2t-67 5z" />
    <glyph glyph-name="C" unicode="C" horiz-adv-x="561" 
d="M437 581q-59 0 -104 -24.5t-75.5 -65.5t-46 -94t-15.5 -110q0 -86 42 -136t127 -50q40 0 77.5 6.5t68.5 19.5l3 -108q-32 -13 -78.5 -21t-101.5 -8q-67 0 -119 20.5t-87.5 57.5t-54 89t-18.5 115q0 90 27.5 167t78.5 133.5t123 88.5t162 32q55 0 97 -9t62 -20l-29 -108
q-24 10 -59.5 17.5t-79.5 7.5z" />
    <glyph glyph-name="D" unicode="D" horiz-adv-x="649" 
d="M148 676q47 5 96 7.5t99 2.5q149 0 226 -71t77 -209q0 -92 -27 -167t-80 -129t-131.5 -83.5t-181.5 -29.5q-66 0 -113.5 2.5t-79.5 4.5zM334 579q-20 0 -38 -1t-34 -2l-81 -469q15 -2 31.5 -2h34.5q60 -1 107.5 19.5t81.5 59t52 94t18 124.5q0 85 -42 131t-130 46z" />
    <glyph glyph-name="E" unicode="E" horiz-adv-x="506" 
d="M519 571h-258l-29 -165h242l-27 -111h-234l-32 -184h279l-26 -111h-402l117 683h396z" />
    <glyph glyph-name="E" unicode="&#xe001;" horiz-adv-x="506" 
d="M519 571h-258l-29 -165h242l-27 -111h-234l-32 -184h279l-26 -111h-402l117 683h396z" />
    <glyph glyph-name="F" unicode="F" horiz-adv-x="491" 
d="M516 571h-255l-31 -178h238l-26 -110h-231l-49 -283h-130l117 683h394z" />
    <glyph glyph-name="G" unicode="G" horiz-adv-x="627" 
d="M385 371h223l-60 -345q-38 -13 -93 -23.5t-112 -10.5q-68 0 -121 19t-90.5 55t-57 87.5t-19.5 117.5q0 88 28 164.5t80.5 133.5t127.5 89.5t168 32.5q58 0 104 -10t71 -21l-31 -110q-29 12 -66 20t-82 8q-62 0 -110 -23t-81 -62.5t-50 -93.5t-17 -116q0 -89 43 -134.5
t124 -45.5q23 0 39.5 2.5t30.5 7.5l27 151h-102z" />
    <glyph glyph-name="H" unicode="H" horiz-adv-x="640" 
d="M163 0h-131l117 683h131l-48 -274h254l48 274h130l-117 -683h-131l50 293h-253z" />
    <glyph glyph-name="I" unicode="I" horiz-adv-x="254" 
d="M160 0h-131l118 683h131z" />
    <glyph glyph-name="J" unicode="J" horiz-adv-x="248" 
d="M146 683h131l-86 -507q-14 -88 -38.5 -151t-62 -104t-89.5 -61.5t-122 -23.5v113q52 6 84 25.5t51.5 50.5t29.5 72t18 90z" />
    <glyph glyph-name="K" unicode="K" horiz-adv-x="567" 
d="M224 366l61 48l202 269h161l-270 -310l162 -373h-150l-119 300l-66 -45l-44 -255h-129l117 683h129z" />
    <glyph glyph-name="L" unicode="L" horiz-adv-x="476" 
d="M280 683l-98 -570h271l-27 -113h-394l117 683h131z" />
    <glyph glyph-name="M" unicode="M" horiz-adv-x="788" 
d="M303 0l-52 535h-3l-34 -201l-69 -334h-125l145 683h172l42 -379l11 -135h3l56 134l176 380h172l-92 -683h-129q1 10 5 36t9.5 59.5t11 71.5t10.5 71.5t9 59.5t5 36l39 202h-3l-252 -536h-107z" />
    <glyph glyph-name="N" unicode="N" horiz-adv-x="643" 
d="M411 0q-45 124 -90 249t-81 246h-3l-80 -495h-125l117 683h150q37 -99 63.5 -172t45.5 -129.5t32 -100.5t24 -84h3l74 486h126l-118 -683h-138z" />
    <glyph glyph-name="O" unicode="O" 
d="M397 583q-52 0 -90 -28.5t-63 -74t-37.5 -102t-12.5 -113.5q0 -36 7.5 -66.5t24 -52.5t43 -34.5t63.5 -12.5q50 0 87.5 27.5t62.5 72.5t37.5 102t12.5 116q0 34 -6.5 64.5t-22 53t-41.5 35.5t-65 13zM413 693q66 0 114 -21.5t79.5 -59.5t47 -89t15.5 -111
q0 -75 -21.5 -150t-65.5 -135.5t-111 -98.5t-157 -38q-65 0 -113.5 21.5t-80 59t-47 88.5t-15.5 110q0 74 22 149.5t66 136.5t110.5 99.5t156.5 38.5z" />
    <glyph glyph-name="P" unicode="P" horiz-adv-x="548" 
d="M287 255q-23 0 -43 1l-40 2l-44 -258h-128l115 675q36 5 80.5 8t90.5 3q125 0 187.5 -43t62.5 -139q0 -61 -21.5 -107.5t-59.5 -78t-89 -47.5t-111 -16zM259 576q-3 -15 -8 -44t-10 -60.5t-10 -60.5t-8 -44q14 -2 29.5 -3t33.5 -1q31 0 58.5 8.5t47.5 25t32 41t12 55.5
q0 26 -8 42.5t-23 26.5t-35 13.5t-44 3.5q-42 0 -67 -3z" />
    <glyph glyph-name="Q" unicode="Q" 
d="M397 583q-52 0 -90 -28.5t-63 -74t-37.5 -102t-12.5 -113.5q0 -73 32 -118t106 -45q50 0 87.5 27t62.5 71.5t37.5 101t12.5 115.5q0 34 -6.5 64.5t-22 53t-41.5 35.5t-65 13zM542 113h140l-27 -113h-341q-65 0 -113 20t-79.5 55.5t-47.5 85t-16 108.5q0 74 22 149.5
t66 136.5t110.5 99.5t156.5 38.5q66 0 114 -21.5t79.5 -59.5t47 -89t15.5 -111q0 -83 -32 -162t-95 -135v-2z" />
    <glyph glyph-name="R" unicode="R" horiz-adv-x="561" 
d="M571 516q0 -37 -11.5 -70t-32.5 -60.5t-51.5 -47.5t-69.5 -30v-2l112 -306h-142l-91 277h-75l-48 -277h-130l117 675q39 5 87 8t98 3q110 0 173.5 -40t63.5 -130zM226 376h66q28 0 54 7.5t45.5 22.5t31.5 38t12 55q0 47 -30 64t-79 17q-20 0 -36 -1t-29 -3z" />
    <glyph glyph-name="S" unicode="S" horiz-adv-x="497" 
d="M214 102q22 0 43 5.5t37 16.5t25.5 27.5t9.5 39.5q0 27 -17.5 47.5t-43.5 38t-56 35.5t-56 40t-43.5 51t-17.5 69q0 55 21 96.5t56 69.5t81.5 41.5t96.5 13.5q54 0 94.5 -10t66.5 -23l-33 -109q-23 11 -58.5 20.5t-75.5 9.5q-52 0 -82.5 -22.5t-30.5 -58.5
q0 -27 17.5 -46t43.5 -35.5t57 -33.5t57 -39.5t43.5 -53.5t17.5 -76q0 -56 -21.5 -98t-58 -70.5t-85 -43t-102.5 -14.5q-59 0 -109 12t-78 29l34 109q35 -17 78.5 -27.5t88.5 -10.5z" />
    <glyph glyph-name="S" unicode="&#xe002;" horiz-adv-x="497" 
d="M214 102q22 0 43 5.5t37 16.5t25.5 27.5t9.5 39.5q0 27 -17.5 47.5t-43.5 38t-56 35.5t-56 40t-43.5 51t-17.5 69q0 55 21 96.5t56 69.5t81.5 41.5t96.5 13.5q54 0 94.5 -10t66.5 -23l-33 -109q-23 11 -58.5 20.5t-75.5 9.5q-52 0 -82.5 -22.5t-30.5 -58.5
q0 -27 17.5 -46t43.5 -35.5t57 -33.5t57 -39.5t43.5 -53.5t17.5 -76q0 -56 -21.5 -98t-58 -70.5t-85 -43t-102.5 -14.5q-59 0 -109 12t-78 29l34 109q35 -17 78.5 -27.5t88.5 -10.5z" />
    <glyph glyph-name="T" unicode="T" horiz-adv-x="501" 
d="M75 570l27 113h474l-26 -113h-169l-98 -570h-131l97 570h-174z" />
    <glyph glyph-name="U" unicode="U" horiz-adv-x="630" 
d="M287 -10q-105 0 -162.5 50.5t-57.5 152.5q0 50 12 113l64 377h132l-68 -394q-5 -31 -7 -64.5t6.5 -61.5t31 -46t66.5 -18q69 0 104.5 48.5t52.5 140.5l68 395h131l-68 -392q-12 -74 -35 -130.5t-59.5 -94.5t-88.5 -57t-122 -19z" />
    <glyph glyph-name="V" unicode="V" horiz-adv-x="581" 
d="M331 0h-156l-90 683h138l42 -419l12 -128h2l52 128l186 419h145z" />
    <glyph glyph-name="W" unicode="W" horiz-adv-x="830" 
d="M635 0h-151l-13 408v97h-2l-34 -97l-161 -408h-152l-29 683h135l-1 -540h3l44 125l157 416h145l8 -416l-3 -125h2l186 540h140z" />
    <glyph glyph-name="X" unicode="X" horiz-adv-x="534" 
d="M134 0h-155l242 349l-117 334h143l49 -166l22 -91h3l48 90l99 167h154l-235 -334l127 -349h-145l-50 158l-29 110h-2l-59 -110z" />
    <glyph glyph-name="Y" unicode="Y" horiz-adv-x="543" 
d="M297 376l58 110l113 197h155l-281 -419l-45 -264h-131l45 262l-131 421h144l47 -197l24 -110h2z" />
    <glyph glyph-name="Z" unicode="Z" horiz-adv-x="525" 
d="M561 597l-375 -483v-2h298l-26 -112h-465l13 81l381 488v2h-271l27 112h433z" />
    <glyph glyph-name="bracketleft" unicode="[" horiz-adv-x="315" 
d="M8 -159l154 908h210l-16 -77h-103l-126 -754h105l-15 -77h-209z" />
    <glyph glyph-name="backslash" unicode="\" horiz-adv-x="376" 
d="M176 690l173 -716h-97l-171 716h95z" />
    <glyph glyph-name="bracketright" unicode="]" horiz-adv-x="315" 
d="M-18 -159l14 77h104l126 754h-104l14 77h209l-153 -908h-210z" />
    <glyph glyph-name="asciicircum" unicode="^" horiz-adv-x="566" 
d="M151 288h-85l253 387h72l122 -387h-82l-89 292h-2z" />
    <glyph glyph-name="underscore" unicode="_" horiz-adv-x="538" 
d="M472 -61l-9 -55h-479l9 55h479z" />
    <glyph glyph-name="grave" unicode="`" horiz-adv-x="381" 
d="M411 548h-87l-104 154h132z" />
    <glyph glyph-name="a" unicode="a" horiz-adv-x="542" 
d="M501 300q-14 -75 -24 -148.5t-12 -151.5h-124l14 123h-2q-29 -60 -73.5 -96.5t-93.5 -36.5q-35 0 -62 12.5t-46.5 35t-29.5 54t-10 69.5q0 64 22.5 125.5t61 109.5t90 77t108.5 29q24 0 50 -6t46 -20h2l12 16l108 7zM390 393q-9 5 -22.5 9t-30.5 4q-36 0 -65.5 -19
t-51.5 -50t-34 -72t-12 -84q0 -40 15.5 -64t48.5 -24q18 0 37.5 11.5t38 35.5t33.5 60.5t24 87.5z" />
    <glyph glyph-name="b" unicode="b" horiz-adv-x="546" 
d="M152 727l131 4l-57 -324h2q25 42 65.5 69t89.5 27q39 0 67 -15t46 -40t26 -57.5t8 -67.5q0 -62 -18.5 -121.5t-56 -106.5t-95 -76t-134.5 -29q-71 0 -112.5 25t-60.5 72q-1 34 4 85t13 99zM326 398q-36 0 -63 -27.5t-45.5 -69t-27.5 -89t-7 -87.5q19 -38 68 -38
q33 0 59.5 19.5t45 50.5t28.5 70t10 78q0 41 -16 67t-52 26z" />
    <glyph glyph-name="b" unicode="&#xe003;" horiz-adv-x="546" 
d="M152 727l131 4l-57 -324h2q25 42 65.5 69t89.5 27q39 0 67 -15t46 -40t26 -57.5t8 -67.5q0 -62 -18.5 -121.5t-56 -106.5t-95 -76t-134.5 -29q-71 0 -112.5 25t-60.5 72q-1 34 4 85t13 99zM326 398q-36 0 -63 -27.5t-45.5 -69t-27.5 -89t-7 -87.5q19 -38 68 -38
q33 0 59.5 19.5t45 50.5t28.5 70t10 78q0 41 -16 67t-52 26z" />
    <glyph glyph-name="c" unicode="c" horiz-adv-x="449" 
d="M353 400q-38 0 -70 -14t-55 -39.5t-36.5 -61.5t-13.5 -81q0 -59 30.5 -85t75.5 -26q34 0 65 7.5t54 16.5l7 -97q-29 -13 -74 -21.5t-90 -8.5q-94 0 -149 50.5t-56 146.5q0 67 22.5 125t63.5 100.5t98.5 66.5t126.5 24q35 0 66 -6t52 -14l-27 -101q-17 7 -40 12.5t-50 5.5
z" />
    <glyph glyph-name="d" unicode="d" horiz-adv-x="545" 
d="M408 475l42 252l131 4l-83 -485q-11 -65 -18 -128.5t-10 -117.5h-124l14 123h-2q-30 -61 -74 -97t-97 -36q-69 0 -108.5 50.5t-39.5 132.5q0 54 19 112t54 106.5t85 79.5t113 31q29 0 51 -6.5t45 -20.5h2zM393 387q-11 8 -26.5 14t-37.5 6q-33 0 -61 -18.5t-49 -49
t-32.5 -70.5t-11.5 -83q0 -45 17.5 -69t50.5 -24q18 0 37 11.5t37 34t33 56.5t23 80z" />
    <glyph glyph-name="e" unicode="e" horiz-adv-x="496" 
d="M171 212q-2 -5 -2 -11.5v-11.5q0 -26 9.5 -44.5t24.5 -30.5t34.5 -17.5t40.5 -5.5q39 0 77 8.5t68 22.5l11 -93q-40 -20 -92 -29.5t-98 -9.5q-102 0 -153 52.5t-51 148.5q0 63 19.5 119.5t56.5 99.5t89.5 68t117.5 25q77 0 120.5 -39t44.5 -97q0 -78 -63 -118.5
t-181 -40.5q-17 0 -35 1t-38 3zM182 293q16 -2 30.5 -3t28.5 -1q58 0 91 20t33 49q0 20 -15.5 34t-45.5 14q-46 0 -78.5 -33t-43.5 -80z" />
    <glyph glyph-name="f" unicode="f" horiz-adv-x="319" 
d="M131 492q20 124 71.5 184t149.5 60q18 0 35 -2t31 -4l-21 -105q-17 3 -30 3q-29 0 -47 -8t-29.5 -24.5t-18 -42.5t-11.5 -61h100l-24 -97h-93l-80 -486h-131l81 486h-61l23 94z" />
    <glyph glyph-name="g" unicode="g" horiz-adv-x="544" 
d="M357 123q-30 -60 -74 -96.5t-93 -36.5q-70 0 -109 47.5t-39 123.5q0 64 22.5 125.5t61 109.5t89.5 77t108 29q25 0 50.5 -6t46.5 -21h2l12 17l107 7l-81 -472q-44 -257 -286 -257q-44 0 -87 8t-71 23l25 100q11 -6 27.5 -11t35 -9t37.5 -6t37 -2q28 0 53.5 7t46 24
t35.5 45t23 69l23 105h-2zM393 393q-8 5 -22 9t-30 4q-36 0 -65.5 -19t-51.5 -50t-34 -72t-12 -84q0 -40 15 -64t49 -24q18 0 37.5 11.5t38 35.5t33.5 60.5t24 87.5z" />
    <glyph glyph-name="h" unicode="h" horiz-adv-x="555" 
d="M399 503q59 0 92 -35t33 -98q0 -11 -1 -21.5t-3 -21.5l-53 -327h-132l46 268q3 17 5 34.5t2 33.5q0 26 -10 45t-39 19q-28 0 -52 -22t-43 -54t-32.5 -69t-19.5 -67q-10 -50 -17.5 -93.5t-15.5 -94.5h-131l124 727l132 4l-57 -340h2q31 50 75.5 81t94.5 31z" />
    <glyph glyph-name="i" unicode="i" horiz-adv-x="248" 
d="M113 492l131 3l-85 -495h-131zM132 638q0 16 6.5 31t17.5 27t26 19t32 7q26 0 43 -18t17 -45q0 -16 -6 -31t-17 -27t-26 -19t-32 -7q-27 0 -44 18t-17 45z" />
    <glyph glyph-name="j" unicode="j" horiz-adv-x="249" 
d="M168 41q-12 -72 -35.5 -122.5t-57 -83t-76.5 -48.5t-94 -17v100q28 4 49.5 14.5t37 30t26 49t18.5 72.5l79 456l131 3zM133 638q0 16 6.5 31t17.5 27t26 19t32 7q27 0 44 -18t17 -45q0 -16 -6 -31t-17 -27t-26 -19t-32 -7q-27 0 -44.5 18t-17.5 45z" />
    <glyph glyph-name="k" unicode="k" horiz-adv-x="516" 
d="M209 297q32 10 68.5 30.5t66 47t47 58.5t13.5 66l123 18q6 -42 -6 -79t-35.5 -69.5t-56.5 -59.5t-70 -48l129 -261h-151l-90 211q-13 -5 -28.5 -8.5t-26.5 -5.5l-34 -197h-130l124 727l132 4z" />
    <glyph glyph-name="l" unicode="l" horiz-adv-x="248" 
d="M154 727l131 4l-126 -731h-131z" />
    <glyph glyph-name="m" unicode="m" horiz-adv-x="836" 
d="M510 390q38 58 82.5 85.5t89.5 27.5q40 0 66 -15t39.5 -40t16 -57.5t-3.5 -68.5l-53 -322h-128l45 268q3 19 6 41.5t0 42.5t-15 33.5t-39 13.5q-37 0 -74.5 -45.5t-53.5 -137.5l-37 -216h-128l47 270q3 16 5.5 38.5t0 42.5t-13.5 34t-36 14q-18 0 -39 -14t-40.5 -41
t-35.5 -66t-23 -88l-32 -190h-128l52 300q8 51 15 99t13 93l120 3l-16 -115h2q16 27 36 49.5t43 39t47.5 25.5t50.5 9q31 0 53 -9.5t36.5 -25.5t21 -36t6.5 -42h2z" />
    <glyph glyph-name="n" unicode="n" horiz-adv-x="555" 
d="M399 503q39 0 65 -13t40.5 -36t18.5 -54t-2 -66l-54 -334h-132l46 270q3 18 5.5 40.5t-0.5 42t-15 33t-38 13.5q-18 0 -39 -13.5t-41.5 -39.5t-37 -65.5t-24.5 -90.5l-32 -190h-131l52 300q8 51 15.5 99t13.5 93l119 3l-15 -115h2q35 57 84 90t100 33z" />
    <glyph glyph-name="o" unicode="o" horiz-adv-x="544" 
d="M325 503q53 0 92 -17.5t64 -47.5t36.5 -70.5t8.5 -86.5q-3 -62 -24 -115.5t-57 -92.5t-86.5 -61.5t-113.5 -22.5q-52 0 -91 16.5t-64.5 46t-37.5 70.5t-9 90q3 60 23.5 113t57 92.5t87.5 62.5t114 23zM309 403q-30 0 -53.5 -16.5t-40 -43t-25.5 -60.5t-11 -69
q-9 -124 83 -124q29 0 52 16t39.5 42.5t26 61t11.5 71.5q5 54 -14 88t-68 34z" />
    <glyph glyph-name="p" unicode="p" horiz-adv-x="546" 
d="M327 398q-20 0 -40.5 -11t-38.5 -33.5t-32.5 -57t-21.5 -80.5q-1 -8 -3.5 -22t-4.5 -29.5t-4.5 -29.5t-3.5 -21q14 -11 32.5 -18t43.5 -7q31 0 57 19t44.5 50t28.5 70.5t10 80.5q0 35 -15.5 62t-51.5 27zM215 392q26 47 69.5 79t92.5 32q40 0 68.5 -15t47 -41t27.5 -60
t9 -71q0 -62 -18.5 -120.5t-53 -104.5t-84 -73.5t-111.5 -27.5q-31 0 -56.5 8t-42.5 24h-2l-41 -241h-130l88 518q8 49 15 96.5t14 96.5l119 3l-13 -103h2z" />
    <glyph glyph-name="q" unicode="q" horiz-adv-x="546" 
d="M359 123h-2q-29 -60 -73.5 -96.5t-93.5 -36.5q-35 0 -62 12.5t-46.5 35t-29.5 54t-10 69.5q0 64 22.5 125.5t61.5 109.5t90 77t108 29q24 0 50 -6t46 -20h2l12 16l108 7l-37 -199l-86 -519h-131l41 219zM394 393q-8 5 -22 9t-31 4q-36 0 -65.5 -19t-51.5 -50t-34 -72
t-12 -84q0 -40 15.5 -64t48.5 -24q18 0 37.5 11.5t38.5 35.5t34 60.5t24 87.5z" />
    <glyph glyph-name="r" unicode="r" horiz-adv-x="359" 
d="M212 379q13 25 31 48t40.5 40.5t50.5 28.5t61 11l-24 -126q-40 2 -70.5 -11.5t-52 -38t-35 -58t-19.5 -70.5l-35 -203h-131l51 300q8 51 16.5 101.5t13.5 90.5l117 3l-17 -116h3z" />
    <glyph glyph-name="s" unicode="s" horiz-adv-x="428" 
d="M185 86q35 0 54 14.5t19 37.5q0 17 -13.5 29.5t-33.5 24.5t-43 24.5t-43 29.5t-33.5 40t-13.5 55q0 40 17 70.5t46 50.5t66.5 30t79.5 10q40 0 74 -7t57 -18l-26 -95q-20 9 -50.5 16.5t-62.5 7.5q-29 0 -49.5 -12t-20.5 -35q0 -16 13.5 -28t34 -23.5t44 -23.5t44 -28
t34 -38t13.5 -53q0 -45 -18 -78t-48 -54.5t-69.5 -32t-82.5 -10.5q-42 0 -85.5 9t-68.5 23l26 96q12 -6 29 -11.5t35.5 -10t38 -7.5t36.5 -3z" />
    <glyph glyph-name="s" unicode="&#xe004;" horiz-adv-x="428" 
d="M185 86q35 0 54 14.5t19 37.5q0 17 -13.5 29.5t-33.5 24.5t-43 24.5t-43 29.5t-33.5 40t-13.5 55q0 40 17 70.5t46 50.5t66.5 30t79.5 10q40 0 74 -7t57 -18l-26 -95q-20 9 -50.5 16.5t-62.5 7.5q-29 0 -49.5 -12t-20.5 -35q0 -16 13.5 -28t34 -23.5t44 -23.5t44 -28
t34 -38t13.5 -53q0 -45 -18 -78t-48 -54.5t-69.5 -32t-82.5 -10.5q-42 0 -85.5 9t-68.5 23l26 96q12 -6 29 -11.5t35.5 -10t38 -7.5t36.5 -3z" />
    <glyph glyph-name="t" unicode="t" horiz-adv-x="343" 
d="M70 109q0 18 5.5 55.5t12.5 80.5t14.5 84t12.5 66h-61l23 94l55 3l28 112l124 25l-23 -137h111l-25 -97h-103l-32 -181q-3 -15 -6.5 -34.5t-2 -37t11 -30t32.5 -12.5q11 0 23.5 1t27.5 6q-4 -23 -7.5 -52t-6.5 -52q-17 -6 -45.5 -9.5t-51.5 -3.5q-64 0 -92 32t-25 87z
" />
    <glyph glyph-name="u" unicode="u" horiz-adv-x="553" 
d="M363 114q-18 -33 -40 -56.5t-46.5 -38.5t-49.5 -22t-48 -7q-50 0 -77 19t-38.5 50.5t-10.5 71.5t9 81l48 280h131l-46 -265q-3 -17 -5.5 -40t0.5 -43.5t15 -35t39 -14.5q18 0 37.5 10.5t38 31.5t33.5 53t23 75q1 6 4.5 23.5t7.5 40.5t8.5 49t8.5 49.5t7 41t4 24.5h131
l-33 -192q-10 -57 -16.5 -102t-11 -81t-6.5 -64.5t-3 -52.5h-125l13 114h-2z" />
    <glyph glyph-name="v" unicode="v" horiz-adv-x="473" 
d="M113 0l-75 492h131l33 -273l13 -92h2l54 93l54 92q21 39 33 87.5t-2 92.5h119q7 -20 9.5 -45t-1.5 -53.5t-14 -58t-28 -56.5l-183 -279h-145z" />
    <glyph glyph-name="w" unicode="w" horiz-adv-x="758" 
d="M487 219l13 -92h2l54 93l54 92q21 39 33 87.5t-2 92.5h119q7 -20 9.5 -45t-1.5 -53.5t-14 -58t-28 -56.5l-183 -279h-145l-25 186h-2l-23 -48l-90 -138h-145l-75 492h131l33 -273l13 -92h2l54 93l78 137l-17 135h122z" />
    <glyph glyph-name="x" unicode="x" horiz-adv-x="479" 
d="M234 170h-2l-113 -170h-146l204 255q-10 21 -25 53t-31.5 66t-32 65.5t-25.5 52.5h144l60 -159h3l105 159h148l-198 -238l118 -254h-145z" />
    <glyph glyph-name="y" unicode="y" horiz-adv-x="492" 
d="M190 492l32 -273l12 -104h4l53 101l55 96q21 39 33 87.5t-2 92.5h119q7 -20 9.5 -45.5t-1 -53.5t-14 -57.5t-28.5 -56.5l-204 -302l6 -42q6 -45 -3 -78t-38.5 -54.5t-81 -31.5t-129.5 -10v110q41 0 68 3t42.5 10t20.5 18t3 27l-87 563h131z" />
    <glyph glyph-name="y" unicode="&#xe006;" horiz-adv-x="492" 
d="M190 492l32 -273l12 -104h4l53 101l55 96q21 39 33 87.5t-2 92.5h119q7 -20 9.5 -45.5t-1 -53.5t-14 -57.5t-28.5 -56.5l-204 -302l6 -42q6 -45 -3 -78t-38.5 -54.5t-81 -31.5t-129.5 -10v110q41 0 68 3t42.5 10t20.5 18t3 27l-87 563h131z" />
    <glyph glyph-name="z" unicode="z" horiz-adv-x="439" 
d="M450 406l-283 -302v-2h238l-23 -102h-392l13 83l289 305v2h-219l24 102h367z" />
    <glyph glyph-name="braceleft" unicode="{" horiz-adv-x="355" 
d="M392 676q-51 0 -75.5 -17t-32.5 -59q-2 -10 -4 -31t-4 -46.5t-4.5 -52t-5.5 -48.5q-4 -34 -15 -57.5t-27.5 -38.5t-37 -23.5t-44.5 -13.5v-2q33 -8 59 -29.5t26 -61.5q0 -16 -7 -48t-15.5 -67.5t-16 -66.5t-7.5 -46q0 -32 15 -45t44 -15q5 0 14 -0.5t15 -0.5l-18 -70
q-89 0 -132 23t-43 85q0 27 8 59t17 64.5t17 63t8 56.5q0 31 -16 46.5t-59 17.5l12 71q28 3 45.5 9t29 16.5t17.5 25t10 34.5q4 22 6 47t3.5 51t3 51t5.5 46q13 76 60 108t121 34h48z" />
    <glyph glyph-name="bar" unicode="|" horiz-adv-x="264" 
d="M182 -197h-100v971h100v-971z" />
    <glyph glyph-name="braceright" unicode="}" horiz-adv-x="352" 
d="M1 -94q45 0 68 14.5t34 50.5q4 9 7 30.5t5 48.5t4.5 56t5.5 53q6 34 17 57.5t27 39t36.5 24t44.5 13.5v2q-17 4 -32.5 11t-27 18t-18.5 26.5t-7 35.5q0 19 7 51.5t15 66.5t15.5 64.5t7.5 45.5q0 16 -4 27t-14.5 18t-27.5 11t-42 6l19 69q38 0 70 -3.5t55 -15t36 -32.5
t13 -56q0 -27 -8 -59.5t-17 -65.5t-17 -63.5t-8 -54.5q0 -32 15.5 -47.5t60.5 -17.5l-12 -71q-27 -3 -45 -9t-29.5 -16t-17.5 -23.5t-10 -31.5q-5 -21 -7 -47t-3.5 -52.5t-3 -52.5t-5.5 -47q-7 -41 -23 -67.5t-40.5 -42.5t-57 -23.5t-72.5 -8.5q-5 0 -16 -0.5t-18 -0.5z" />
    <glyph glyph-name="asciitilde" unicode="~" horiz-adv-x="580" 
d="M78 243q7 75 46 116t90 41q26 0 54 -10.5t55.5 -23t52.5 -23t44 -10.5q20 0 33 14t20 52l70 -10q-2 -39 -13.5 -68t-29 -48.5t-39.5 -29.5t-46 -10q-30 0 -57 10.5t-53 23.5t-51 23.5t-51 10.5q-23 0 -35.5 -18.5t-18.5 -48.5z" />
    <glyph glyph-name="exclamdown" unicode="&#xa1;" horiz-adv-x="266" 
d="M94 269h105l-61 -470h-141zM255 446q0 -18 -7 -36t-20 -32t-30.5 -23t-38.5 -9q-32 0 -50 19.5t-18 49.5q0 18 7.5 36t20 32t30 23t38.5 9q31 0 49.5 -19.5t18.5 -49.5z" />
    <glyph glyph-name="cent" unicode="&#xa2;" horiz-adv-x="518" 
d="M413 555q24 -2 52 -7.5t48 -14.5l-31 -100q-17 8 -42 14t-57 6q-33 0 -63.5 -11t-54 -33.5t-37.5 -57.5t-14 -83q0 -60 32 -88t82 -28q30 0 60.5 7t54.5 16v-98q-26 -11 -56.5 -17.5t-61.5 -7.5l-16 -98h-94l18 100q-77 12 -117 63t-40 132q0 62 18.5 113.5t51 90t77 64
t97.5 34.5l17 103h93z" />
    <glyph glyph-name="sterling" unicode="&#xa3;" horiz-adv-x="544" 
d="M420 375l-23 -95h-121q-5 -51 -25 -96.5t-64 -76.5v-2h316l-22 -105h-450l3 66q53 35 86.5 89.5t35.5 124.5h-85l23 95h61v29.5t2 29.5q2 66 24 112t57 75t80.5 42.5t95.5 13.5q38 0 69.5 -8t49.5 -18l-29 -103q-22 9 -50 14.5t-54 5.5q-53 0 -83 -29.5t-33 -90.5
q-3 -38 -3 -73h139z" />
    <glyph glyph-name="currency" unicode="&#xa4;" horiz-adv-x="526" 
d="M292 498q67 0 106 -36l83 84l43 -44l-89 -81q14 -19 24 -47t9 -64q-2 -38 -15 -69.5t-33 -52.5l77 -82l-45 -45l-70 86q-22 -19 -52 -28.5t-59 -9.5q-31 0 -58.5 10t-47.5 27l-78 -85l-43 45l86 80q-16 20 -26.5 48t-8.5 64q2 40 15 70t33 52l-78 82l45 45l71 -85
q47 36 111 36zM290 434q-24 0 -46.5 -10.5t-40 -28.5t-28 -43t-11.5 -53q-1 -30 8 -53t24 -39.5t35 -25t41 -8.5q24 0 46.5 10t40 28.5t28 43.5t11.5 55q1 26 -6.5 48.5t-22 39.5t-35 26.5t-44.5 9.5z" />
    <glyph glyph-name="yen" unicode="&#xa5;" horiz-adv-x="546" 
d="M173 0l22 138h-150l18 63h143l6 39h-149l17 62h132l-124 365h149l64 -291h2l161 291h149l-246 -365h139l-17 -62h-142l-7 -39h150l-18 -63h-143l-22 -138h-134z" />
    <glyph glyph-name="brokenbar" unicode="&#xa6;" horiz-adv-x="239" 
d="M200 371h-95l18 354h95zM172 -149h-95l18 353h95z" />
    <glyph glyph-name="section" unicode="&#xa7;" horiz-adv-x="539" 
d="M449 120q0 -44 -19.5 -76t-51 -53t-71.5 -31.5t-82 -10.5t-90.5 9t-84.5 30l29 88q13 -7 31 -14t38 -12t41 -8.5t41 -3.5q42 0 67 15.5t26 43.5q0 20 -17.5 34.5t-44.5 27.5t-57.5 26.5t-57.5 31.5t-44.5 42.5t-17.5 60.5q0 42 25.5 78.5t66.5 58.5v2q-12 14 -19.5 32.5
t-7.5 37.5q0 43 19 74.5t50 51t70.5 29t80.5 9.5q42 0 82 -8.5t69 -23.5l-27 -86q-24 11 -61.5 20t-73.5 9q-38 0 -62.5 -15t-24.5 -41q0 -18 17.5 -31t43 -25t56 -25t56 -30.5t43 -42.5t17.5 -60q0 -51 -23.5 -84.5t-57.5 -55.5v-2q12 -13 19 -32t7 -40zM201 347
q1 -22 16.5 -36t38 -24.5t48 -20t45.5 -22.5q16 10 26.5 25t10.5 34q0 23 -15 39t-37 27t-45.5 20t-40.5 19q-20 -8 -33 -24t-14 -37z" />
    <glyph glyph-name="dieresis" unicode="&#xa8;" horiz-adv-x="412" 
d="M195 616q0 14 5.5 28t15.5 25.5t23.5 18.5t30.5 7q24 0 38.5 -16t14.5 -39q0 -14 -5.5 -28t-15.5 -25t-24 -18t-30 -7q-24 0 -38.5 15.5t-14.5 38.5zM393 616q0 14 5.5 28t15.5 25.5t23.5 18.5t30.5 7q25 0 39.5 -16t14.5 -39q0 -14 -5.5 -28t-15.5 -25t-24 -18t-30 -7
q-24 0 -39 15.5t-15 38.5z" />
    <glyph glyph-name="copyright" unicode="&#xa9;" horiz-adv-x="760" 
d="M86 325q0 69 26.5 131t73 109.5t109 75.5t135.5 28q65 0 120.5 -24t96.5 -65.5t64.5 -98t23.5 -120.5q0 -71 -27 -133.5t-73.5 -109.5t-108.5 -74.5t-132 -27.5q-65 0 -121.5 24t-98 65.5t-65 98t-23.5 121.5zM427 622q-59 -1 -111.5 -25t-91.5 -65t-62 -94.5t-23 -113.5
q0 -55 19.5 -102.5t54 -83t81.5 -55.5t101 -20q58 0 110.5 23t92 63t62.5 93.5t23 115.5q0 55 -19.5 103.5t-54 84t-81.5 56t-101 20.5zM439 457q-53 0 -86 -33t-33 -93q0 -50 27 -80t81 -30q61 0 99 22l7 -55q-23 -13 -50.5 -20t-53.5 -7q-48 0 -82 12t-56.5 34t-33 51.5
t-10.5 65.5q0 42 13.5 77t38.5 61t60.5 40.5t79.5 14.5q34 0 62.5 -7t42.5 -18l-12 -56q-15 7 -38.5 14t-55.5 7z" />
    <glyph glyph-name="ordfeminine" unicode="&#xaa;" horiz-adv-x="363" 
d="M363 568q-4 -21 -6 -41t-3 -35h-64l-15 37h-2q-42 -44 -102 -44q-44 0 -65.5 27t-15.5 64q9 54 44 74.5t92 20.5h67l5 30q3 21 -5 34.5t-45 13.5q-30 0 -53.5 -6t-43.5 -14l-4 65q22 9 56.5 16.5t72.5 7.5q72 0 96.5 -25.5t14.5 -80.5zM213 546q9 0 19 3t19.5 8
t17.5 12.5t11 16.5l5 34h-50q-20 0 -36.5 -6t-19.5 -30q-4 -20 6.5 -29t27.5 -9z" />
    <glyph glyph-name="guillemotleft" unicode="&#xab;" horiz-adv-x="521" 
d="M154 251l86 -135l-66 -43l-115 184l177 184l51 -56zM360 251l86 -135l-66 -43l-116 184l177 184l52 -56z" />
    <glyph glyph-name="logicalnot" unicode="&#xac;" horiz-adv-x="596" 
d="M537 100h-75v201h-403v72h478v-273z" />
    <glyph glyph-name="registered" unicode="&#xae;" horiz-adv-x="586" 
d="M89 426q0 54 21 102t57.5 84t85 56.5t103.5 20.5q44 0 81 -15t64 -41.5t42 -62.5t15 -78q0 -51 -21.5 -99t-58 -84.5t-85 -58.5t-102.5 -22q-43 0 -80 15.5t-64 42.5t-42.5 63t-15.5 77zM350 650q-42 0 -81 -17.5t-69.5 -47.5t-48.5 -69.5t-18 -83.5q0 -35 12 -64.5
t34 -51.5t52 -34.5t66 -12.5q42 0 81 17.5t69 47t48 69t18 83.5q0 35 -12 65t-33.5 52t-51.5 34.5t-66 12.5zM284 427l-14 -86h-43l37 229q20 2 40 3t39 1q46 0 64.5 -19.5t13.5 -51.5q-5 -25 -20.5 -43t-44.5 -26v-1l52 -92h-49l-48 86h-27zM291 464h30q22 0 36.5 8.5
t16.5 28.5q8 36 -39 36h-17.5t-14.5 -1z" />
    <glyph glyph-name="macron" unicode="&#xaf;" horiz-adv-x="433" 
d="M510 655l-12 -67h-270l12 67h270z" />
    <glyph glyph-name="degree" unicode="&#xb0;" horiz-adv-x="358" 
d="M124 579q0 27 10.5 51t28.5 43t42.5 30t52.5 11q24 0 45.5 -9t37 -24.5t24.5 -37t9 -45.5q0 -27 -10.5 -51.5t-29 -43.5t-43 -30t-52.5 -11q-50 0 -82.5 33.5t-32.5 83.5zM180 583q0 -28 17.5 -46t46.5 -18q32 0 52.5 22.5t20.5 52.5q0 27 -18 45t-46 18q-31 0 -52 -22.5
t-21 -51.5z" />
    <glyph glyph-name="plusminus" unicode="&#xb1;" horiz-adv-x="580" 
d="M18 0l15 91h194l23 131h-194l15 91h193l34 200h93l-33 -200h193l-15 -91h-193l-23 -131h194l-15 -91h-481z" />
    <glyph glyph-name="twosuperior" unicode="&#xb2;" horiz-adv-x="328" 
d="M79 490q18 15 53.5 40.5t70.5 57t61 65.5t26 64q0 22 -13 35.5t-42 13.5q-26 -1 -48 -8t-39 -17l-9 60q26 15 58 25t69 10q52 0 85 -26t33 -77q0 -35 -17 -65t-44 -57.5t-60 -52.5t-64 -48v-2h153l-19 -67h-262z" />
    <glyph glyph-name="threesuperior" unicode="&#xb3;" horiz-adv-x="324" 
d="M188 498q38 0 59 18.5t21 45.5t-24.5 40.5t-59.5 13.5h-24l17 57h17q18 0 34 3.5t29 10.5t20.5 17.5t8.5 24.5q0 19 -13 30t-39 11q-23 0 -46.5 -7t-42.5 -17l-5 59q24 13 54.5 21t65.5 8q51 0 85 -23t34 -63q0 -38 -25 -63t-67 -37v-2q29 -7 51 -28t22 -53t-13 -56.5
t-36 -41t-54 -24.5t-66 -8t-66 7t-51 19l24 61q17 -11 40.5 -17.5t49.5 -6.5z" />
    <glyph glyph-name="acute" unicode="&#xb4;" horiz-adv-x="381" 
d="M473 702l-133 -154h-90l89 154h134z" />
    <glyph glyph-name="mu" unicode="&#xb5;" horiz-adv-x="552" 
d="M110 492h131l-46 -265q-3 -17 -5.5 -40t1 -43.5t15.5 -35t39 -14.5q17 0 37 10.5t38 31.5t33 53t23 75q2 6 5 23.5t7 40.5t8.5 49t8.5 49.5t7 41t4 24.5h131l-33 -192q-10 -57 -16.5 -102t-10.5 -81t-6.5 -64.5t-3.5 -52.5h-124l12 114h-2q-35 -67 -83.5 -95.5
t-93.5 -28.5q-12 0 -22 3.5t-14 9.5l-8 -46q-6 -30 -13.5 -58t-19.5 -51.5t-29 -41.5t-41 -27l-87 45q29 20 43 54t24 87z" />
    <glyph glyph-name="paragraph" unicode="&#xb6;" horiz-adv-x="548" 
d="M169 -46l53 310q-23 0 -49.5 9.5t-48.5 29t-36.5 49t-14.5 69.5q0 63 24.5 109t67 77.5t98.5 48t119 21.5l-122 -717zM332 -46l123 720h90l-122 -714z" />
    <glyph glyph-name="periodcentered" unicode="&#xb7;" horiz-adv-x="258" 
d="M61 240q0 18 7 36t20 32.5t30 23t38 8.5q32 0 50 -19.5t18 -48.5q0 -18 -7 -36t-20 -32.5t-30 -23t-38 -8.5q-31 0 -49.5 19.5t-18.5 48.5z" />
    <glyph glyph-name="cedilla" unicode="&#xb8;" horiz-adv-x="385" 
d="M190 0l-24 -43q65 -27 65 -72q0 -18 -10 -35.5t-28 -31t-42 -22t-51 -8.5q-35 0 -63 10l18 53q9 -2 18.5 -3t17.5 -1q29 0 47 12t18 30q0 16 -14.5 27t-44.5 13q5 17 13.5 35.5t21.5 35.5h58z" />
    <glyph glyph-name="onesuperior" unicode="&#xb9;" horiz-adv-x="286" 
d="M247 441h-88l54 316h-1l-74 -34l-18 54l127 56h68z" />
    <glyph glyph-name="ordmasculine" unicode="&#xba;" horiz-adv-x="365" 
d="M294 819q39 0 66 -12t43.5 -34t22 -51.5t0.5 -64.5q-5 -37 -20.5 -68.5t-39.5 -55t-56.5 -36.5t-70.5 -13q-72 0 -107.5 44.5t-24.5 115.5q5 37 20 69.5t39 55.5t56 36.5t72 13.5zM283 754q-35 0 -57 -31t-28 -78q-6 -45 7 -70t45 -25q35 0 57.5 30t28.5 78q6 41 -6 68.5
t-47 27.5z" />
    <glyph glyph-name="guillemotright" unicode="&#xbb;" horiz-adv-x="528" 
d="M392 263l-85 134l66 44l115 -185l-177 -183l-52 55zM187 263l-86 134l66 44l115 -185l-176 -183l-52 55z" />
    <glyph glyph-name="onequarter" unicode="&#xbc;" horiz-adv-x="843" 
d="M709 674l-449 -681h-72q26 40 62.5 94.5t77.5 117t85 129t85 129t77 117t62 94.5h72zM236 281h-89l55 316h-1l-75 -34l-17 54l126 56h68zM669 157l14 80l18 86h-2l-49 -69l-74 -97h93zM792 393l-41 -236h46l-17 -62h-39l-17 -95h-82l16 95h-178l11 54l200 244h101z" />
    <glyph glyph-name="onehalf" unicode="&#xbd;" horiz-adv-x="843" 
d="M689 674l-452 -681h-69l452 681h69zM230 281h-88l54 316h-1l-74 -34l-18 54l127 56h68zM508 49q18 15 53.5 40.5t70.5 57t61 65.5t26 64q0 22 -13 35.5t-42 13.5q-26 -1 -48 -8t-40 -17l-9 60q26 15 58.5 25t69.5 10q51 0 84.5 -26t33.5 -77q0 -35 -17 -65t-44 -57.5
t-60 -52.5t-64 -48v-2h153l-19 -67h-262z" />
    <glyph glyph-name="threequarters" unicode="&#xbe;" horiz-adv-x="843" 
d="M726 674l-449 -681h-72q26 40 62 94.5t77 117t85 129t85 129t77.5 117t62.5 94.5h72zM677 157l15 80l18 86h-3l-48 -69l-75 -97h93zM800 393l-40 -236h46l-18 -62h-39l-17 -95h-82l16 95h-177l10 54l201 244h100zM166 338q38 0 59 18.5t21 46.5q0 27 -24.5 40.5
t-59.5 13.5h-24l16 57h18q17 0 33 3.5t29 10.5t21 17.5t9 24.5q0 18 -13 29.5t-39 11.5q-23 0 -46.5 -7t-42.5 -17l-5 59q24 13 54.5 21t65.5 8q51 0 85 -23t34 -64q0 -37 -25 -62t-67 -37v-2q29 -8 51 -29t22 -53t-13 -56t-36 -40.5t-54 -24.5t-66 -8t-66 7t-51 19l23 61
q17 -11 41 -18t50 -7z" />
    <glyph glyph-name="questiondown" unicode="&#xbf;" horiz-adv-x="428" 
d="M284 -188q-16 -2 -32.5 -3.5t-35.5 -1.5q-51 0 -88.5 11t-61.5 29.5t-35.5 44.5t-11.5 56q0 39 12.5 68t32 52.5t43 43.5t44.5 40.5t37.5 44.5t21.5 55q3 10 3 19h116q0 -7 -0.5 -18.5t-2.5 -19.5q-4 -33 -17.5 -57.5t-32.5 -44t-40 -36.5t-38.5 -34t-29 -36t-11.5 -43
q0 -32 28 -50t80 -18q8 0 15 0.5t15 1.5zM380 446q0 -18 -7 -36t-20 -32t-30.5 -23t-38.5 -9q-32 0 -50 19.5t-18 49.5q0 18 7.5 36t20 32t30 23t38.5 9q31 0 49.5 -19.5t18.5 -49.5z" />
    <glyph glyph-name="Agrave" unicode="&#xc0;" horiz-adv-x="588" 
d="M554 0h-139l-17 177h-199l-78 -177h-140l320 684h166zM363 579l-39 -99l-83 -200h148l-17 199l-7 100h-2zM461 741h-86l-104 154h132z" />
    <glyph glyph-name="Aacute" unicode="&#xc1;" horiz-adv-x="588" 
d="M554 0h-139l-17 177h-199l-78 -177h-140l320 684h166zM363 579l-39 -99l-83 -200h148l-17 199l-7 100h-2zM539 895l-134 -154h-89l89 154h134z" />
    <glyph glyph-name="Acircumflex" unicode="&#xc2;" horiz-adv-x="588" 
d="M554 0h-139l-17 177h-199l-78 -177h-140l320 684h166zM363 579l-39 -99l-83 -200h148l-17 199l-7 100h-2zM325 741h-81l129 157h77l83 -157h-76l-54 84h-2z" />
    <glyph glyph-name="Atilde" unicode="&#xc3;" horiz-adv-x="588" 
d="M554 0h-139l-17 177h-199l-78 -177h-140l320 684h166zM363 579l-39 -99l-83 -200h148l-17 199l-7 100h-2zM338 800q-11 0 -19.5 -10.5t-19.5 -31.5l-54 5q14 57 39 87.5t58 30.5q19 0 35 -6.5t29.5 -14t25 -14t23.5 -6.5q11 0 20 7t21 33l53 -8q-29 -112 -97 -112
q-20 0 -36 6t-30 13.5t-26 14t-22 6.5z" />
    <glyph glyph-name="Adieresis" unicode="&#xc4;" horiz-adv-x="588" 
d="M554 0h-139l-17 177h-199l-78 -177h-140l320 684h166zM363 579l-39 -99l-83 -200h148l-17 199l-7 100h-2zM240 809q0 14 5.5 28t15.5 25.5t23.5 18.5t30.5 7q25 0 39.5 -16t14.5 -39q0 -14 -5.5 -28t-15.5 -25t-24 -18t-30 -7q-24 0 -39 15.5t-15 38.5zM439 809
q0 14 5.5 28t15.5 25.5t23.5 18.5t30.5 7q25 0 39.5 -16t14.5 -39q0 -14 -5.5 -28t-15.5 -25t-24 -18t-30 -7q-24 0 -39 15.5t-15 38.5z" />
    <glyph glyph-name="Aring" unicode="&#xc5;" horiz-adv-x="588" 
d="M396 833q42 0 70.5 -24.5t27.5 -67.5q-1 -20 -10.5 -36.5t-23.5 -26.5h8l86 -678h-139l-17 177h-199l-78 -177h-140l316 678h5q-9 9 -15 22.5t-5 29.5q1 46 33.5 74.5t80.5 28.5zM363 579l-39 -99l-83 -200h148l-17 199l-7 100h-2zM392 786q-22 0 -36 -15t-16 -37
q-1 -20 11 -33.5t32 -13.5q23 0 37.5 15t15.5 36q0 20 -11.5 34t-32.5 14z" />
    <glyph glyph-name="AE" unicode="&#xc6;" horiz-adv-x="827" 
d="M830 571h-264l-19 -167h242l-26 -110h-224l-19 -183h259l-26 -111h-370l19 196h-182l-120 -196h-139l427 683h469zM440 572l-56 -101l-100 -166h128l17 164l13 103h-2z" />
    <glyph glyph-name="Ccedilla" unicode="&#xc7;" horiz-adv-x="561" 
d="M437 581q-59 0 -104 -24.5t-75.5 -65.5t-46 -94t-15.5 -110q0 -86 42 -136t127 -50q40 0 77.5 6.5t68.5 19.5l3 -108q-29 -12 -70.5 -19.5t-91.5 -9.5l-18 -33q65 -27 65 -72q0 -18 -10 -35.5t-28 -31t-42 -22t-51 -8.5q-35 0 -63 10l18 53q17 -4 36 -4q29 0 47 12t18 30
q0 16 -14.5 27t-43.5 13q6 32 28 63q-58 6 -102.5 28.5t-75 59t-46 85t-15.5 107.5q0 90 27.5 167t78.5 133.5t123 88.5t162 32q55 0 97 -9t62 -20l-29 -108q-24 10 -59.5 17.5t-79.5 7.5z" />
    <glyph glyph-name="Egrave" unicode="&#xc8;" horiz-adv-x="506" 
d="M519 571h-258l-29 -165h242l-27 -111h-234l-32 -184h279l-26 -111h-402l117 683h396zM448 741h-86l-104 154h131z" />
    <glyph glyph-name="Eacute" unicode="&#xc9;" horiz-adv-x="506" 
d="M519 571h-258l-29 -165h242l-27 -111h-234l-32 -184h279l-26 -111h-402l117 683h396zM465 895l-134 -154h-89l89 154h134z" />
    <glyph glyph-name="Ecircumflex" unicode="&#xca;" horiz-adv-x="506" 
d="M519 571h-258l-29 -165h242l-27 -111h-234l-32 -184h279l-26 -111h-402l117 683h396zM290 741h-81l130 157h76l83 -157h-76l-54 84h-1z" />
    <glyph glyph-name="Edieresis" unicode="&#xcb;" horiz-adv-x="506" 
d="M519 571h-258l-29 -165h242l-27 -111h-234l-32 -184h279l-26 -111h-402l117 683h396zM190 809q0 14 5.5 28t15.5 25.5t23.5 18.5t30.5 7q24 0 38.5 -16t14.5 -39q0 -14 -5.5 -28t-15.5 -25t-24 -18t-30 -7q-24 0 -38.5 15.5t-14.5 38.5zM388 809q0 14 5.5 28t15.5 25.5
t23.5 18.5t30.5 7q25 0 39.5 -16t14.5 -39q0 -14 -5.5 -28t-15.5 -25t-24 -18t-30 -7q-24 0 -39 15.5t-15 38.5z" />
    <glyph glyph-name="Igrave" unicode="&#xcc;" horiz-adv-x="254" 
d="M160 0h-131l118 683h131zM285 741h-87l-104 154h132z" />
    <glyph glyph-name="Iacute" unicode="&#xcd;" horiz-adv-x="254" 
d="M160 0h-131l118 683h131zM380 895l-133 -154h-89l89 154h133z" />
    <glyph glyph-name="Icircumflex" unicode="&#xce;" horiz-adv-x="254" 
d="M160 0h-131l118 683h131zM164 741h-82l130 157h76l84 -157h-76l-54 84h-2z" />
    <glyph glyph-name="Idieresis" unicode="&#xcf;" horiz-adv-x="254" 
d="M160 0h-131l118 683h131zM69 809q0 14 5.5 28t15.5 25.5t23.5 18.5t30.5 7q25 0 39.5 -16t14.5 -39q0 -14 -5.5 -28t-15.5 -25t-24 -18t-30 -7q-24 0 -39 15.5t-15 38.5zM268 809q0 14 5.5 28t15.5 25.5t23.5 18.5t30.5 7q25 0 39.5 -16t14.5 -39q0 -14 -5.5 -28
t-15.5 -25t-24 -18t-30 -7q-24 0 -39 15.5t-15 38.5z" />
    <glyph glyph-name="Eth" unicode="&#xd0;" horiz-adv-x="649" 
d="M83 298h-67l26 100h58l48 278q47 5 96 7.5t99 2.5q149 0 226 -71t77 -209q0 -92 -27 -167t-80 -129t-131.5 -83.5t-181.5 -29.5q-66 0 -113.5 2.5t-79.5 4.5zM334 579q-20 0 -38 -1t-34 -2l-31 -178h125l-25 -100h-117l-33 -191q15 -2 31.5 -2h34.5q60 -1 107.5 19.5
t81.5 59t52 94t18 124.5q0 85 -42 131t-130 46z" />
    <glyph glyph-name="Ntilde" unicode="&#xd1;" horiz-adv-x="643" 
d="M411 0q-45 124 -90 249t-81 246h-3l-80 -495h-125l117 683h150q37 -99 63.5 -172t45.5 -129.5t32 -100.5t24 -84h3l74 486h126l-118 -683h-138zM363 800q-11 0 -20 -10.5t-20 -31.5l-54 5q15 57 39.5 87.5t57.5 30.5q20 0 35.5 -6.5t29 -14t25.5 -14t24 -6.5q11 0 19.5 7
t21.5 33l52 -8q-29 -112 -97 -112q-19 0 -35 6t-30 13.5t-26 14t-22 6.5z" />
    <glyph glyph-name="Ograve" unicode="&#xd2;" 
d="M397 583q-52 0 -90 -28.5t-63 -74t-37.5 -102t-12.5 -113.5q0 -36 7.5 -66.5t24 -52.5t43 -34.5t63.5 -12.5q50 0 87.5 27.5t62.5 72.5t37.5 102t12.5 116q0 34 -6.5 64.5t-22 53t-41.5 35.5t-65 13zM413 693q66 0 114 -21.5t79.5 -59.5t47 -89t15.5 -111
q0 -75 -21.5 -150t-65.5 -135.5t-111 -98.5t-157 -38q-65 0 -113.5 21.5t-80 59t-47 88.5t-15.5 110q0 74 22 149.5t66 136.5t110.5 99.5t156.5 38.5zM531 741h-87l-104 154h132z" />
    <glyph glyph-name="Oacute" unicode="&#xd3;" 
d="M397 583q-52 0 -90 -28.5t-63 -74t-37.5 -102t-12.5 -113.5q0 -36 7.5 -66.5t24 -52.5t43 -34.5t63.5 -12.5q50 0 87.5 27.5t62.5 72.5t37.5 102t12.5 116q0 34 -6.5 64.5t-22 53t-41.5 35.5t-65 13zM413 693q66 0 114 -21.5t79.5 -59.5t47 -89t15.5 -111
q0 -75 -21.5 -150t-65.5 -135.5t-111 -98.5t-157 -38q-65 0 -113.5 21.5t-80 59t-47 88.5t-15.5 110q0 74 22 149.5t66 136.5t110.5 99.5t156.5 38.5zM547 895l-134 -154h-89l89 154h134z" />
    <glyph glyph-name="Ocircumflex" unicode="&#xd4;" 
d="M397 583q-52 0 -90 -28.5t-63 -74t-37.5 -102t-12.5 -113.5q0 -36 7.5 -66.5t24 -52.5t43 -34.5t63.5 -12.5q50 0 87.5 27.5t62.5 72.5t37.5 102t12.5 116q0 34 -6.5 64.5t-22 53t-41.5 35.5t-65 13zM413 693q66 0 114 -21.5t79.5 -59.5t47 -89t15.5 -111
q0 -75 -21.5 -150t-65.5 -135.5t-111 -98.5t-157 -38q-65 0 -113.5 21.5t-80 59t-47 88.5t-15.5 110q0 74 22 149.5t66 136.5t110.5 99.5t156.5 38.5zM372 741h-81l129 157h77l83 -157h-76l-54 84h-2z" />
    <glyph glyph-name="Otilde" unicode="&#xd5;" 
d="M397 583q-52 0 -90 -28.5t-63 -74t-37.5 -102t-12.5 -113.5q0 -36 7.5 -66.5t24 -52.5t43 -34.5t63.5 -12.5q50 0 87.5 27.5t62.5 72.5t37.5 102t12.5 116q0 34 -6.5 64.5t-22 53t-41.5 35.5t-65 13zM413 693q66 0 114 -21.5t79.5 -59.5t47 -89t15.5 -111
q0 -75 -21.5 -150t-65.5 -135.5t-111 -98.5t-157 -38q-65 0 -113.5 21.5t-80 59t-47 88.5t-15.5 110q0 74 22 149.5t66 136.5t110.5 99.5t156.5 38.5zM377 800q-11 0 -20 -10.5t-20 -31.5l-53 5q14 57 38.5 87.5t57.5 30.5q20 0 35.5 -6.5t29 -14t25.5 -14t24 -6.5
q11 0 19.5 7t21.5 33l52 -8q-29 -112 -97 -112q-19 0 -35 6t-30 13.5t-26 14t-22 6.5z" />
    <glyph glyph-name="Odieresis" unicode="&#xd6;" 
d="M397 583q-52 0 -90 -28.5t-63 -74t-37.5 -102t-12.5 -113.5q0 -36 7.5 -66.5t24 -52.5t43 -34.5t63.5 -12.5q50 0 87.5 27.5t62.5 72.5t37.5 102t12.5 116q0 34 -6.5 64.5t-22 53t-41.5 35.5t-65 13zM413 693q66 0 114 -21.5t79.5 -59.5t47 -89t15.5 -111
q0 -75 -21.5 -150t-65.5 -135.5t-111 -98.5t-157 -38q-65 0 -113.5 21.5t-80 59t-47 88.5t-15.5 110q0 74 22 149.5t66 136.5t110.5 99.5t156.5 38.5zM271 809q0 14 5.5 28t15.5 25.5t23.5 18.5t30.5 7q25 0 39.5 -16t14.5 -39q0 -14 -5.5 -28t-15.5 -25t-24 -18t-30 -7
q-24 0 -39 15.5t-15 38.5zM470 809q0 14 5.5 28t15.5 25.5t23.5 18.5t30.5 7q25 0 39.5 -16t14.5 -39q0 -14 -5.5 -28t-15.5 -25t-24 -18t-30 -7q-24 0 -39 15.5t-15 38.5z" />
    <glyph glyph-name="multiply" unicode="&#xd7;" horiz-adv-x="576" 
d="M359 264l147 -179l-71 -63l-147 180l-210 -181l-56 68l210 181l-144 176l70 62l145 -176l208 181l56 -68z" />
    <glyph glyph-name="Oslash" unicode="&#xd8;" 
d="M413 693q40 0 73 -8.5t59 -24.5l56 79l66 -42l-60 -85q31 -38 46.5 -89t15.5 -111q0 -75 -21.5 -150t-65.5 -135.5t-111 -98.5t-157 -38q-38 0 -68.5 7.5t-56.5 21.5l-60 -85l-64 45l61 85q-35 38 -51.5 90.5t-16.5 114.5q0 74 22 149.5t66 136.5t110.5 99.5t156.5 38.5z
M397 583q-52 0 -90 -28.5t-63 -74t-37.5 -102t-12.5 -113.5q0 -23 3 -44t11 -38l268 377q-29 23 -79 23zM532 417q0 19 -2.5 37t-9.5 33l-262 -369q30 -19 74 -19q50 0 87.5 27.5t62.5 72.5t37.5 102t12.5 116z" />
    <glyph glyph-name="Ugrave" unicode="&#xd9;" horiz-adv-x="630" 
d="M287 -10q-105 0 -162.5 50.5t-57.5 152.5q0 50 12 113l64 377h132l-68 -394q-5 -31 -7 -64.5t6.5 -61.5t31 -46t66.5 -18q69 0 104.5 48.5t52.5 140.5l68 395h131l-68 -392q-12 -74 -35 -130.5t-59.5 -94.5t-88.5 -57t-122 -19zM510 741h-86l-104 154h131z" />
    <glyph glyph-name="Uacute" unicode="&#xda;" horiz-adv-x="630" 
d="M287 -10q-105 0 -162.5 50.5t-57.5 152.5q0 50 12 113l64 377h132l-68 -394q-5 -31 -7 -64.5t6.5 -61.5t31 -46t66.5 -18q69 0 104.5 48.5t52.5 140.5l68 395h131l-68 -392q-12 -74 -35 -130.5t-59.5 -94.5t-88.5 -57t-122 -19zM526 895l-133 -154h-89l89 154h133z" />
    <glyph glyph-name="Ucircumflex" unicode="&#xdb;" horiz-adv-x="630" 
d="M287 -10q-105 0 -162.5 50.5t-57.5 152.5q0 50 12 113l64 377h132l-68 -394q-5 -31 -7 -64.5t6.5 -61.5t31 -46t66.5 -18q69 0 104.5 48.5t52.5 140.5l68 395h131l-68 -392q-12 -74 -35 -130.5t-59.5 -94.5t-88.5 -57t-122 -19zM352 741h-82l130 157h76l84 -157h-77
l-53 84h-2z" />
    <glyph glyph-name="Udieresis" unicode="&#xdc;" horiz-adv-x="630" 
d="M287 -10q-105 0 -162.5 50.5t-57.5 152.5q0 50 12 113l64 377h132l-68 -394q-5 -31 -7 -64.5t6.5 -61.5t31 -46t66.5 -18q69 0 104.5 48.5t52.5 140.5l68 395h131l-68 -392q-12 -74 -35 -130.5t-59.5 -94.5t-88.5 -57t-122 -19zM251 809q0 14 5.5 28t15.5 25.5t23.5 18.5
t30.5 7q25 0 39.5 -16t14.5 -39q0 -14 -5.5 -28t-15.5 -25t-24 -18t-30 -7q-24 0 -39 15.5t-15 38.5zM450 809q0 14 5.5 28t15.5 25.5t23.5 18.5t30.5 7q24 0 38.5 -16t14.5 -39q0 -14 -5.5 -28t-15.5 -25t-24 -18t-30 -7q-24 0 -38.5 15.5t-14.5 38.5z" />
    <glyph glyph-name="Yacute" unicode="&#xdd;" horiz-adv-x="543" 
d="M297 376l58 110l113 197h155l-281 -419l-45 -264h-131l45 262l-131 421h144l47 -197l24 -110h2zM483 895l-134 -154h-89l89 154h134z" />
    <glyph glyph-name="Thorn" unicode="&#xde;" horiz-adv-x="547" 
d="M256 554q37 3 90 3q95 0 148 -48t53 -130q0 -63 -22 -109t-61 -76t-93.5 -45t-119.5 -15q-41 0 -66 3l-25 -137h-128l117 683h129zM202 245q14 -2 30.5 -3t33.5 -1q29 0 55.5 6.5t46.5 21t32.5 36.5t13.5 54q0 52 -29 71.5t-74 19.5q-20 0 -39.5 -1t-34.5 -3z" />
    <glyph glyph-name="germandbls" unicode="&#xdf;" horiz-adv-x="606" 
d="M572 598q0 -38 -19 -66t-41.5 -53t-41.5 -49t-19 -54q0 -31 19 -52.5t41.5 -42.5t41.5 -47t19 -66q0 -47 -18.5 -80.5t-49 -55t-70 -32t-81.5 -10.5q-36 0 -66.5 6.5t-51.5 16.5l25 97q20 -9 46.5 -15t48.5 -6q34 0 59 15.5t25 44.5q0 27 -18 49.5t-39.5 45t-39.5 47.5
t-18 57q0 28 10.5 48t25.5 36.5t33.5 30.5t33.5 29.5t25.5 34.5t10.5 45q0 30 -16.5 49t-51.5 19t-59.5 -20t-41.5 -51t-27 -67t-15 -67l-88 -526h-132l93 559q11 64 30.5 114.5t51.5 85t79.5 52.5t115.5 18q48 0 80.5 -12.5t52.5 -32.5t28.5 -45t8.5 -50z" />
    <glyph glyph-name="agrave" unicode="&#xe0;" horiz-adv-x="542" 
d="M501 300q-14 -75 -24 -148.5t-12 -151.5h-124l14 123h-2q-29 -60 -73.5 -96.5t-93.5 -36.5q-35 0 -62 12.5t-46.5 35t-29.5 54t-10 69.5q0 64 22.5 125.5t61 109.5t90 77t108.5 29q24 0 50 -6t46 -20h2l12 16l108 7zM390 393q-9 5 -22.5 9t-30.5 4q-36 0 -65.5 -19
t-51.5 -50t-34 -72t-12 -84q0 -40 15.5 -64t48.5 -24q18 0 37.5 11.5t38 35.5t33.5 60.5t24 87.5zM425 548h-86l-104 154h131z" />
    <glyph glyph-name="aacute" unicode="&#xe1;" horiz-adv-x="542" 
d="M501 300q-14 -75 -24 -148.5t-12 -151.5h-124l14 123h-2q-29 -60 -73.5 -96.5t-93.5 -36.5q-35 0 -62 12.5t-46.5 35t-29.5 54t-10 69.5q0 64 22.5 125.5t61 109.5t90 77t108.5 29q24 0 50 -6t46 -20h2l12 16l108 7zM390 393q-9 5 -22.5 9t-30.5 4q-36 0 -65.5 -19
t-51.5 -50t-34 -72t-12 -84q0 -40 15.5 -64t48.5 -24q18 0 37.5 11.5t38 35.5t33.5 60.5t24 87.5zM473 702l-134 -154h-89l89 154h134z" />
    <glyph glyph-name="acircumflex" unicode="&#xe2;" horiz-adv-x="542" 
d="M501 300q-14 -75 -24 -148.5t-12 -151.5h-124l14 123h-2q-29 -60 -73.5 -96.5t-93.5 -36.5q-35 0 -62 12.5t-46.5 35t-29.5 54t-10 69.5q0 64 22.5 125.5t61 109.5t90 77t108.5 29q24 0 50 -6t46 -20h2l12 16l108 7zM390 393q-9 5 -22.5 9t-30.5 4q-36 0 -65.5 -19
t-51.5 -50t-34 -72t-12 -84q0 -40 15.5 -64t48.5 -24q18 0 37.5 11.5t38 35.5t33.5 60.5t24 87.5zM281 548h-82l130 157h76l84 -157h-76l-54 84h-2z" />
    <glyph glyph-name="atilde" unicode="&#xe3;" horiz-adv-x="542" 
d="M501 300q-14 -75 -24 -148.5t-12 -151.5h-124l14 123h-2q-29 -60 -73.5 -96.5t-93.5 -36.5q-35 0 -62 12.5t-46.5 35t-29.5 54t-10 69.5q0 64 22.5 125.5t61 109.5t90 77t108.5 29q24 0 50 -6t46 -20h2l12 16l108 7zM390 393q-9 5 -22.5 9t-30.5 4q-36 0 -65.5 -19
t-51.5 -50t-34 -72t-12 -84q0 -40 15.5 -64t48.5 -24q18 0 37.5 11.5t38 35.5t33.5 60.5t24 87.5zM284 607q-11 0 -20 -10.5t-20 -31.5l-53 5q14 57 38.5 87.5t57.5 30.5q20 0 35.5 -6.5t29 -14t25.5 -14t24 -6.5q11 0 19.5 7t21.5 33l52 -8q-29 -112 -97 -112q-19 0 -35 6
t-30 13.5t-26 14t-22 6.5z" />
    <glyph glyph-name="adieresis" unicode="&#xe4;" horiz-adv-x="542" 
d="M501 300q-14 -75 -24 -148.5t-12 -151.5h-124l14 123h-2q-29 -60 -73.5 -96.5t-93.5 -36.5q-35 0 -62 12.5t-46.5 35t-29.5 54t-10 69.5q0 64 22.5 125.5t61 109.5t90 77t108.5 29q24 0 50 -6t46 -20h2l12 16l108 7zM390 393q-9 5 -22.5 9t-30.5 4q-36 0 -65.5 -19
t-51.5 -50t-34 -72t-12 -84q0 -40 15.5 -64t48.5 -24q18 0 37.5 11.5t38 35.5t33.5 60.5t24 87.5zM182 616q0 14 5.5 28t15.5 25.5t23.5 18.5t30.5 7q25 0 39.5 -16t14.5 -39q0 -14 -5.5 -28t-15.5 -25t-24 -18t-30 -7q-24 0 -39 15.5t-15 38.5zM381 616q0 14 5.5 28
t15.5 25.5t23.5 18.5t30.5 7q25 0 39.5 -16t14.5 -39q0 -14 -5.5 -28t-15.5 -25t-24 -18t-30 -7q-24 0 -39 15.5t-15 38.5z" />
    <glyph glyph-name="aring" unicode="&#xe5;" horiz-adv-x="542" 
d="M501 300q-14 -75 -24 -148.5t-12 -151.5h-124l14 123h-2q-29 -60 -73.5 -96.5t-93.5 -36.5q-35 0 -62 12.5t-46.5 35t-29.5 54t-10 69.5q0 64 22.5 125.5t61 109.5t90 77t108.5 29q24 0 50 -6t46 -20h2l12 16l108 7zM390 393q-9 5 -22.5 9t-30.5 4q-36 0 -65.5 -19
t-51.5 -50t-34 -72t-12 -84q0 -40 15.5 -64t48.5 -24q18 0 37.5 11.5t38 35.5t33.5 60.5t24 87.5zM353 732q42 0 70.5 -24.5t26.5 -67.5q-2 -45 -35 -73t-80 -28q-42 0 -69.5 25t-27.5 66q2 45 34.5 73.5t80.5 28.5zM348 686q-22 0 -36 -15t-15 -38q-1 -19 11 -33t32 -14
q23 0 37 15.5t15 35.5q1 21 -10.5 35t-33.5 14z" />
    <glyph glyph-name="ae" unicode="&#xe6;" horiz-adv-x="795" 
d="M470 212q-2 -5 -2 -11.5v-11.5q0 -26 9.5 -44.5t24.5 -30.5t34.5 -17.5t40.5 -5.5q39 0 77 8.5t68 22.5l11 -93q-40 -20 -92 -29.5t-98 -9.5q-79 0 -127.5 32t-66.5 92h-2q-30 -59 -72.5 -91.5t-88.5 -32.5q-35 0 -62 12.5t-46.5 35t-29.5 54t-10 69.5q0 64 22.5 125.5
t61 109.5t90 77t108.5 29q49 0 80 -17t54 -36h2q34 26 75 40t91 14q77 0 120.5 -39t44.5 -97q0 -78 -63 -118.5t-181 -40.5q-17 0 -35 1t-38 3zM339 184q0 62 16 113.5t45 91.5q-10 5 -26 11t-37 6q-36 0 -65.5 -19t-51.5 -50t-34 -72t-12 -84q0 -40 15.5 -64t48.5 -24
q23 0 50.5 21.5t50.5 69.5zM481 293q16 -2 30.5 -3t28.5 -1q58 0 91 20t33 49q0 20 -15.5 34t-45.5 14q-46 0 -78.5 -33t-43.5 -80z" />
    <glyph glyph-name="ccedilla" unicode="&#xe7;" horiz-adv-x="449" 
d="M353 400q-38 0 -70 -14t-55 -39.5t-36.5 -61.5t-13.5 -81q0 -59 30.5 -85t75.5 -26q34 0 65 7.5t54 16.5l7 -97q-24 -11 -60.5 -19t-75.5 -10l-18 -34q65 -27 65 -72q0 -18 -10 -35.5t-28 -31t-42 -22t-51 -8.5q-35 0 -63 10l18 53q9 -2 18 -3t17 -1q30 0 48 12t18 30
q0 16 -15 27t-44 13q6 31 28 63q-81 7 -127 57t-47 138q0 67 22.5 125t63.5 100.5t98.5 66.5t126.5 24q35 0 66 -6t52 -14l-27 -101q-17 7 -40 12.5t-50 5.5z" />
    <glyph glyph-name="egrave" unicode="&#xe8;" horiz-adv-x="496" 
d="M171 212q-2 -5 -2 -11.5v-11.5q0 -26 9.5 -44.5t24.5 -30.5t34.5 -17.5t40.5 -5.5q39 0 77 8.5t68 22.5l11 -93q-40 -20 -92 -29.5t-98 -9.5q-102 0 -153 52.5t-51 148.5q0 63 19.5 119.5t56.5 99.5t89.5 68t117.5 25q77 0 120.5 -39t44.5 -97q0 -78 -63 -118.5
t-181 -40.5q-17 0 -35 1t-38 3zM182 293q16 -2 30.5 -3t28.5 -1q58 0 91 20t33 49q0 20 -15.5 34t-45.5 14q-46 0 -78.5 -33t-43.5 -80zM401 548h-87l-104 154h132z" />
    <glyph glyph-name="eacute" unicode="&#xe9;" horiz-adv-x="496" 
d="M171 212q-2 -5 -2 -11.5v-11.5q0 -26 9.5 -44.5t24.5 -30.5t34.5 -17.5t40.5 -5.5q39 0 77 8.5t68 22.5l11 -93q-40 -20 -92 -29.5t-98 -9.5q-102 0 -153 52.5t-51 148.5q0 63 19.5 119.5t56.5 99.5t89.5 68t117.5 25q77 0 120.5 -39t44.5 -97q0 -78 -63 -118.5
t-181 -40.5q-17 0 -35 1t-38 3zM182 293q16 -2 30.5 -3t28.5 -1q58 0 91 20t33 49q0 20 -15.5 34t-45.5 14q-46 0 -78.5 -33t-43.5 -80zM439 702l-133 -154h-90l89 154h134z" />
    <glyph glyph-name="ecircumflex" unicode="&#xea;" horiz-adv-x="496" 
d="M171 212q-2 -5 -2 -11.5v-11.5q0 -26 9.5 -44.5t24.5 -30.5t34.5 -17.5t40.5 -5.5q39 0 77 8.5t68 22.5l11 -93q-40 -20 -92 -29.5t-98 -9.5q-102 0 -153 52.5t-51 148.5q0 63 19.5 119.5t56.5 99.5t89.5 68t117.5 25q77 0 120.5 -39t44.5 -97q0 -78 -63 -118.5
t-181 -40.5q-17 0 -35 1t-38 3zM182 293q16 -2 30.5 -3t28.5 -1q58 0 91 20t33 49q0 20 -15.5 34t-45.5 14q-46 0 -78.5 -33t-43.5 -80zM236 548h-81l130 157h76l83 -157h-76l-54 84h-1z" />
    <glyph glyph-name="edieresis" unicode="&#xeb;" horiz-adv-x="496" 
d="M171 212q-2 -5 -2 -11.5v-11.5q0 -26 9.5 -44.5t24.5 -30.5t34.5 -17.5t40.5 -5.5q39 0 77 8.5t68 22.5l11 -93q-40 -20 -92 -29.5t-98 -9.5q-102 0 -153 52.5t-51 148.5q0 63 19.5 119.5t56.5 99.5t89.5 68t117.5 25q77 0 120.5 -39t44.5 -97q0 -78 -63 -118.5
t-181 -40.5q-17 0 -35 1t-38 3zM182 293q16 -2 30.5 -3t28.5 -1q58 0 91 20t33 49q0 20 -15.5 34t-45.5 14q-46 0 -78.5 -33t-43.5 -80zM142 616q0 14 5.5 28t15.5 25.5t23.5 18.5t30.5 7q25 0 39.5 -16t14.5 -39q0 -14 -5.5 -28t-15.5 -25t-24 -18t-30 -7q-24 0 -39 15.5
t-15 38.5zM341 616q0 14 5.5 28t15.5 25.5t23.5 18.5t30.5 7q25 0 39.5 -16t14.5 -39q0 -14 -5.5 -28t-15.5 -25t-24 -18t-30 -7q-24 0 -39 15.5t-15 38.5z" />
    <glyph glyph-name="igrave" unicode="&#xec;" horiz-adv-x="248" 
d="M113 492l131 3l-85 -495h-131zM224 548h-87l-104 154h132z" />
    <glyph glyph-name="iacute" unicode="&#xed;" horiz-adv-x="248" 
d="M113 492l131 3l-85 -495h-131zM353 702l-134 -154h-89l89 154h134z" />
    <glyph glyph-name="icircumflex" unicode="&#xee;" horiz-adv-x="248" 
d="M113 492l131 3l-85 -495h-131zM116 548h-82l130 157h77l83 -157h-76l-54 84h-2z" />
    <glyph glyph-name="idieresis" unicode="&#xef;" horiz-adv-x="248" 
d="M113 492l131 3l-85 -495h-131zM35 616q0 14 5.5 28t15.5 25.5t23.5 18.5t30.5 7q24 0 38.5 -16t14.5 -39q0 -14 -5.5 -28t-15.5 -25t-24 -18t-30 -7q-24 0 -38.5 15.5t-14.5 38.5zM233 616q0 14 5.5 28t15.5 25.5t23.5 18.5t30.5 7q25 0 39.5 -16t14.5 -39
q0 -14 -5.5 -28t-15.5 -25t-24 -18t-30 -7q-24 0 -39 15.5t-15 38.5z" />
    <glyph glyph-name="eth" unicode="&#xf0;" horiz-adv-x="547" 
d="M503 730l34 -59l-104 -59q46 -51 71.5 -120.5t25.5 -154.5q0 -75 -20.5 -138.5t-57.5 -110t-89.5 -72.5t-115.5 -26q-51 0 -90 14.5t-65.5 40.5t-40 62t-13.5 78q0 56 19 105.5t52.5 86.5t80 59t101.5 23q27 0 52.5 -8.5t45.5 -28.5h3q-7 39 -21.5 73.5t-39.5 61.5
l-137 -74l-33 60l111 62q-38 30 -91 49l45 81q45 -13 81.5 -31.5t68.5 -42.5zM391 307q-9 20 -30 38t-59 18q-33 0 -57.5 -18t-40.5 -44t-24 -57t-8 -56q0 -43 21.5 -71.5t62.5 -28.5q36 0 62.5 20.5t43 53t24 71t5.5 74.5z" />
    <glyph glyph-name="ntilde" unicode="&#xf1;" horiz-adv-x="555" 
d="M399 503q39 0 65 -13t40.5 -36t18.5 -54t-2 -66l-54 -334h-132l46 270q3 18 5.5 40.5t-0.5 42t-15 33t-38 13.5q-18 0 -39 -13.5t-41.5 -39.5t-37 -65.5t-24.5 -90.5l-32 -190h-131l52 300q8 51 15.5 99t13.5 93l119 3l-15 -115h2q35 57 84 90t100 33zM287 607
q-11 0 -19.5 -10.5t-19.5 -31.5l-54 5q14 57 39 87.5t58 30.5q19 0 35 -6.5t29.5 -14t25 -14t23.5 -6.5q11 0 19.5 7t21.5 33l52 -8q-28 -112 -96 -112q-20 0 -36 6t-30 13.5t-26 14t-22 6.5z" />
    <glyph glyph-name="ograve" unicode="&#xf2;" horiz-adv-x="544" 
d="M325 503q53 0 92 -17.5t64 -47.5t36.5 -70.5t8.5 -86.5q-3 -62 -24 -115.5t-57 -92.5t-86.5 -61.5t-113.5 -22.5q-52 0 -91 16.5t-64.5 46t-37.5 70.5t-9 90q3 60 23.5 113t57 92.5t87.5 62.5t114 23zM309 403q-30 0 -53.5 -16.5t-40 -43t-25.5 -60.5t-11 -69
q-9 -124 83 -124q29 0 52 16t39.5 42.5t26 61t11.5 71.5q5 54 -14 88t-68 34zM418 548h-87l-104 154h132z" />
    <glyph glyph-name="oacute" unicode="&#xf3;" horiz-adv-x="544" 
d="M325 503q53 0 92 -17.5t64 -47.5t36.5 -70.5t8.5 -86.5q-3 -62 -24 -115.5t-57 -92.5t-86.5 -61.5t-113.5 -22.5q-52 0 -91 16.5t-64.5 46t-37.5 70.5t-9 90q3 60 23.5 113t57 92.5t87.5 62.5t114 23zM309 403q-30 0 -53.5 -16.5t-40 -43t-25.5 -60.5t-11 -69
q-9 -124 83 -124q29 0 52 16t39.5 42.5t26 61t11.5 71.5q5 54 -14 88t-68 34zM441 702l-133 -154h-90l89 154h134z" />
    <glyph glyph-name="ocircumflex" unicode="&#xf4;" horiz-adv-x="544" 
d="M325 503q53 0 92 -17.5t64 -47.5t36.5 -70.5t8.5 -86.5q-3 -62 -24 -115.5t-57 -92.5t-86.5 -61.5t-113.5 -22.5q-52 0 -91 16.5t-64.5 46t-37.5 70.5t-9 90q3 60 23.5 113t57 92.5t87.5 62.5t114 23zM309 403q-30 0 -53.5 -16.5t-40 -43t-25.5 -60.5t-11 -69
q-9 -124 83 -124q29 0 52 16t39.5 42.5t26 61t11.5 71.5q5 54 -14 88t-68 34zM261 548h-81l130 157h76l83 -157h-76l-54 84h-1z" />
    <glyph glyph-name="otilde" unicode="&#xf5;" horiz-adv-x="544" 
d="M325 503q53 0 92 -17.5t64 -47.5t36.5 -70.5t8.5 -86.5q-3 -62 -24 -115.5t-57 -92.5t-86.5 -61.5t-113.5 -22.5q-52 0 -91 16.5t-64.5 46t-37.5 70.5t-9 90q3 60 23.5 113t57 92.5t87.5 62.5t114 23zM309 403q-30 0 -53.5 -16.5t-40 -43t-25.5 -60.5t-11 -69
q-9 -124 83 -124q29 0 52 16t39.5 42.5t26 61t11.5 71.5q5 54 -14 88t-68 34zM279 607q-11 0 -19.5 -10.5t-19.5 -31.5l-54 5q14 57 39 87.5t58 30.5q19 0 35 -6.5t29.5 -14t25 -14t23.5 -6.5q11 0 20 7t21 33l53 -8q-29 -112 -97 -112q-20 0 -36 6t-30 13.5t-26 14t-22 6.5
z" />
    <glyph glyph-name="odieresis" unicode="&#xf6;" horiz-adv-x="544" 
d="M325 503q53 0 92 -17.5t64 -47.5t36.5 -70.5t8.5 -86.5q-3 -62 -24 -115.5t-57 -92.5t-86.5 -61.5t-113.5 -22.5q-52 0 -91 16.5t-64.5 46t-37.5 70.5t-9 90q3 60 23.5 113t57 92.5t87.5 62.5t114 23zM309 403q-30 0 -53.5 -16.5t-40 -43t-25.5 -60.5t-11 -69
q-9 -124 83 -124q29 0 52 16t39.5 42.5t26 61t11.5 71.5q5 54 -14 88t-68 34zM175 616q0 14 5.5 28t15.5 25.5t23.5 18.5t30.5 7q25 0 39.5 -16t14.5 -39q0 -14 -5.5 -28t-15.5 -25t-24 -18t-30 -7q-24 0 -39 15.5t-15 38.5zM373 616q0 14 5.5 28t15.5 25.5t24 18.5t31 7
q24 0 38.5 -16t14.5 -39q0 -14 -5.5 -28t-15.5 -25t-24 -18t-30 -7q-24 0 -39 15.5t-15 38.5z" />
    <glyph glyph-name="divide" unicode="&#xf7;" horiz-adv-x="580" 
d="M551 313l-15 -91h-481l16 91h480zM264 435q0 16 6.5 31t17.5 26t25.5 18t31.5 7q26 0 42 -16.5t16 -41.5q0 -16 -7 -30.5t-18 -26t-26 -18t-31 -6.5q-25 0 -41 16.5t-16 40.5zM204 76q0 16 6.5 31t17.5 26t25.5 18t31.5 7q26 0 42 -17t16 -41q0 -16 -6.5 -30.5t-18 -26
t-26 -18t-30.5 -6.5q-26 0 -42 16.5t-16 40.5z" />
    <glyph glyph-name="oslash" unicode="&#xf8;" horiz-adv-x="545" 
d="M325 503q58 0 100 -22l50 65l47 -32l-50 -65q31 -31 44 -74t10 -94q-3 -62 -24 -115.5t-57 -92.5t-86.5 -61.5t-113.5 -22.5q-61 0 -105 23l-55 -72l-45 33l54 73q-57 60 -51 166q3 60 23.5 113t57 92.5t87.5 62.5t114 23zM391 281q1 9 -0.5 27t-5.5 26l-174 -229
q19 -15 51 -15q29 0 52 16t39.5 42.5t26 61t11.5 71.5zM309 403q-30 0 -53.5 -16.5t-40 -43t-25.5 -60.5t-11 -69q-3 -27 7 -50l170 226q-21 13 -47 13z" />
    <glyph glyph-name="ugrave" unicode="&#xf9;" horiz-adv-x="553" 
d="M363 114q-18 -33 -40 -56.5t-46.5 -38.5t-49.5 -22t-48 -7q-50 0 -77 19t-38.5 50.5t-10.5 71.5t9 81l48 280h131l-46 -265q-3 -17 -5.5 -40t0.5 -43.5t15 -35t39 -14.5q18 0 37.5 10.5t38 31.5t33.5 53t23 75q1 6 4.5 23.5t7.5 40.5t8.5 49t8.5 49.5t7 41t4 24.5h131
l-33 -192q-10 -57 -16.5 -102t-11 -81t-6.5 -64.5t-3 -52.5h-125l13 114h-2zM435 548h-87l-104 154h132z" />
    <glyph glyph-name="uacute" unicode="&#xfa;" horiz-adv-x="553" 
d="M363 114q-18 -33 -40 -56.5t-46.5 -38.5t-49.5 -22t-48 -7q-50 0 -77 19t-38.5 50.5t-10.5 71.5t9 81l48 280h131l-46 -265q-3 -17 -5.5 -40t0.5 -43.5t15 -35t39 -14.5q18 0 37.5 10.5t38 31.5t33.5 53t23 75q1 6 4.5 23.5t7.5 40.5t8.5 49t8.5 49.5t7 41t4 24.5h131
l-33 -192q-10 -57 -16.5 -102t-11 -81t-6.5 -64.5t-3 -52.5h-125l13 114h-2zM462 702l-133 -154h-89l89 154h133z" />
    <glyph glyph-name="ucircumflex" unicode="&#xfb;" horiz-adv-x="553" 
d="M363 114q-18 -33 -40 -56.5t-46.5 -38.5t-49.5 -22t-48 -7q-50 0 -77 19t-38.5 50.5t-10.5 71.5t9 81l48 280h131l-46 -265q-3 -17 -5.5 -40t0.5 -43.5t15 -35t39 -14.5q18 0 37.5 10.5t38 31.5t33.5 53t23 75q1 6 4.5 23.5t7.5 40.5t8.5 49t8.5 49.5t7 41t4 24.5h131
l-33 -192q-10 -57 -16.5 -102t-11 -81t-6.5 -64.5t-3 -52.5h-125l13 114h-2zM273 548h-82l130 157h76l84 -157h-77l-53 84h-2z" />
    <glyph glyph-name="udieresis" unicode="&#xfc;" horiz-adv-x="553" 
d="M363 114q-18 -33 -40 -56.5t-46.5 -38.5t-49.5 -22t-48 -7q-50 0 -77 19t-38.5 50.5t-10.5 71.5t9 81l48 280h131l-46 -265q-3 -17 -5.5 -40t0.5 -43.5t15 -35t39 -14.5q18 0 37.5 10.5t38 31.5t33.5 53t23 75q1 6 4.5 23.5t7.5 40.5t8.5 49t8.5 49.5t7 41t4 24.5h131
l-33 -192q-10 -57 -16.5 -102t-11 -81t-6.5 -64.5t-3 -52.5h-125l13 114h-2zM181 616q0 14 5.5 28t15.5 25.5t24 18.5t31 7q24 0 38.5 -16t14.5 -39q0 -14 -5.5 -28t-15.5 -25t-24 -18t-30 -7q-24 0 -39 15.5t-15 38.5zM380 616q0 14 5.5 28t15.5 25.5t23.5 18.5t30.5 7
q25 0 39.5 -16t14.5 -39q0 -14 -5.5 -28t-15.5 -25t-24 -18t-30 -7q-24 0 -39 15.5t-15 38.5z" />
    <glyph glyph-name="yacute" unicode="&#xfd;" horiz-adv-x="492" 
d="M190 492l32 -273l12 -104h4l53 101l55 96q21 39 33 87.5t-2 92.5h119q7 -20 9.5 -45.5t-1 -53.5t-14 -57.5t-28.5 -56.5l-204 -302l6 -42q6 -45 -3 -78t-38.5 -54.5t-81 -31.5t-129.5 -10v110q41 0 68 3t42.5 10t20.5 18t3 27l-87 563h131zM405 702l-134 -154h-89l89 154
h134z" />
    <glyph glyph-name="thorn" unicode="&#xfe;" horiz-adv-x="548" 
d="M327 398q-20 0 -40 -11t-38.5 -34.5t-33 -58.5t-21.5 -83l-18 -98q15 -11 34 -17.5t43 -6.5q32 0 58 18.5t44.5 48.5t28.5 69.5t10 81.5q0 37 -15.5 64t-51.5 27zM228 405q20 39 59.5 68.5t89.5 29.5q40 0 69 -14.5t47.5 -39.5t28 -59t9.5 -72q0 -64 -19 -123.5
t-54.5 -105t-85 -72.5t-109.5 -27q-32 0 -57.5 7.5t-42.5 23.5h-2l-41 -240h-130l156 924l130 3l-50 -303h2z" />
    <glyph glyph-name="ydieresis" unicode="&#xff;" horiz-adv-x="492" 
d="M190 492l32 -273l12 -104h4l53 101l55 96q21 39 33 87.5t-2 92.5h119q7 -20 9.5 -45.5t-1 -53.5t-14 -57.5t-28.5 -56.5l-204 -302l6 -42q6 -45 -3 -78t-38.5 -54.5t-81 -31.5t-129.5 -10v110q41 0 68 3t42.5 10t20.5 18t3 27l-87 563h131zM143 616q0 14 5.5 28
t15.5 25.5t23.5 18.5t30.5 7q25 0 39.5 -16t14.5 -39q0 -14 -5.5 -28t-15.5 -25t-24 -18t-30 -7q-24 0 -39 15.5t-15 38.5zM342 616q0 14 5.5 28t15.5 25.5t23.5 18.5t30.5 7q25 0 39.5 -16t14.5 -39q0 -14 -5.5 -28t-15.5 -25t-24 -18t-30 -7q-24 0 -39 15.5t-15 38.5z" />
    <glyph glyph-name="OE" unicode="&#x152;" horiz-adv-x="912" 
d="M922 571h-257l-30 -165h242l-26 -111h-235l-31 -184h278l-25 -111h-403l4 22q-27 -15 -58.5 -23.5t-66.5 -8.5q-65 0 -113.5 21.5t-80 59t-47 88.5t-15.5 110q0 74 22 149.5t66 136.5t110.5 99.5t156.5 38.5q44 0 77.5 -10.5t56.5 -29.5l5 30h397zM332 99q42 0 75 20
t57 54l56 323q-12 39 -41 63t-82 24q-52 0 -90 -28.5t-63 -74t-37.5 -102t-12.5 -113.5q0 -36 7.5 -66.5t24 -52.5t43 -34.5t63.5 -12.5z" />
    <glyph glyph-name="oe" unicode="&#x153;" horiz-adv-x="831" 
d="M506 212q-1 -5 -1.5 -11.5t-0.5 -11.5q0 -26 9.5 -44.5t24.5 -30.5t35 -17.5t41 -5.5q38 0 76 8.5t69 22.5l11 -93q-40 -20 -92.5 -29.5t-97.5 -9.5q-60 0 -98.5 20.5t-58.5 56.5h-2q-32 -35 -76.5 -56.5t-99.5 -21.5q-52 0 -91 16.5t-64.5 46t-37.5 70.5t-9 90
q3 60 23.5 113t57 92.5t87.5 62.5t114 23q54 0 90 -22.5t56 -57.5h2q33 37 80 58.5t105 21.5q78 0 121.5 -39t44.5 -97q0 -78 -63 -118.5t-181 -40.5q-17 0 -35.5 1t-38.5 3zM309 403q-30 0 -53.5 -16.5t-40 -43t-25.5 -60.5t-11 -69q-9 -124 83 -124q29 0 52 16t39.5 42.5
t26 61t11.5 71.5q5 54 -14 88t-68 34zM517 293q17 -2 31.5 -3t27.5 -1q59 0 92 20t33 49q0 20 -16 34t-45 14q-47 0 -79.5 -33t-43.5 -80z" />
    <glyph glyph-name="Ydieresis" unicode="&#x178;" horiz-adv-x="543" 
d="M297 376l58 110l113 197h155l-281 -419l-45 -264h-131l45 262l-131 421h144l47 -197l24 -110h2zM208 809q0 14 5.5 28t15.5 25.5t23.5 18.5t30.5 7q25 0 39.5 -16t14.5 -39q0 -14 -5.5 -28t-15.5 -25t-24 -18t-30 -7q-24 0 -39 15.5t-15 38.5zM407 809q0 14 5.5 28
t15.5 25.5t23.5 18.5t30.5 7q24 0 38.5 -16t14.5 -39q0 -14 -5.5 -28t-15.5 -25t-24 -18t-30 -7q-24 0 -38.5 15.5t-14.5 38.5z" />
    <glyph glyph-name="tilde" unicode="&#x2dc;" horiz-adv-x="421" 
d="M307 607q-11 0 -20 -10.5t-20 -31.5l-54 5q15 57 39.5 87.5t57.5 30.5q20 0 35.5 -6.5t29 -14t25 -14t23.5 -6.5t20.5 7t21.5 33l52 -8q-29 -112 -97 -112q-19 0 -35 6t-30 13.5t-26 14t-22 6.5z" />
    <glyph glyph-name="endash" unicode="&#x2013;" horiz-adv-x="538" 
d="M516 305l-15 -91h-449l15 91h449z" />
    <glyph glyph-name="emdash" unicode="&#x2014;" horiz-adv-x="951" 
d="M929 305l-16 -91h-861l15 91h862z" />
    <glyph glyph-name="quoteleft" unicode="&#x2018;" horiz-adv-x="253" 
d="M305 704q-39 -63 -62 -128t-39 -140l-111 16q13 38 29.5 76.5t34.5 74t36.5 66.5t35.5 54z" />
    <glyph glyph-name="quoteright" unicode="&#x2019;" horiz-adv-x="256" 
d="M92 457q39 64 62 129t39 139l111 -15q-13 -39 -29.5 -77.5t-34.5 -74t-37 -66.5t-35 -53z" />
    <glyph glyph-name="quotedblleft" unicode="&#x201c;" horiz-adv-x="440" 
d="M305 704q-38 -63 -61.5 -128t-39.5 -140l-110 16q12 38 28.5 76.5t35 74t37 66.5t35.5 54zM493 704q-39 -63 -62 -128t-39 -140l-111 16q13 38 29.5 76.5t34.5 74t36.5 66.5t35.5 54z" />
    <glyph glyph-name="quotedblright" unicode="&#x201d;" horiz-adv-x="443" 
d="M90 457q39 64 62 129t39 139l111 -15q-13 -39 -29.5 -77.5t-34.5 -74t-37 -66.5t-35 -53zM278 457q38 64 61.5 129t39.5 139l110 -15q-12 -39 -28.5 -77.5t-35 -74t-37 -66.5t-35.5 -53z" />
    <glyph glyph-name="quotedblbase" unicode="&#x201e;" horiz-adv-x="440" 
d="M177 -109q39 63 62 128.5t39 139.5l111 -16q-13 -38 -29.5 -76.5t-34.5 -74t-37 -66.5t-35 -54zM-11 -109q39 63 62.5 128.5t39.5 139.5l110 -16q-12 -38 -28.5 -76.5t-35 -74t-37 -66.5t-35.5 -54z" />
    <glyph glyph-name="bullet" unicode="&#x2022;" horiz-adv-x="307" 
d="M44 260q0 24 9 45t25 36.5t37 24.5t45 9t45.5 -9t37.5 -24.5t25 -36.5t9 -45t-9 -45.5t-25 -37.5t-37.5 -25t-45.5 -9t-45 9t-37 25t-25 37.5t-9 45.5z" />
    <glyph glyph-name="ellipsis" unicode="&#x2026;" horiz-adv-x="845" 
d="M42 57q0 18 7 36t20 32.5t30 23t38 8.5q32 0 50 -19.5t18 -49.5q0 -18 -7 -35.5t-20 -32t-30 -23t-38 -8.5q-31 0 -49.5 19.5t-18.5 48.5zM323 57q0 18 7 36t20 32.5t30.5 23t38.5 8.5q31 0 49.5 -19.5t18.5 -49.5q0 -18 -7.5 -35.5t-20 -32t-30 -23t-38.5 -8.5
q-31 0 -49.5 19.5t-18.5 48.5zM606 57q0 18 7 36t20 32.5t30.5 23t38.5 8.5q31 0 49.5 -19.5t18.5 -49.5q0 -18 -7.5 -35.5t-20 -32t-30 -23t-38.5 -8.5q-31 0 -49.5 19.5t-18.5 48.5z" />
    <glyph glyph-name="guilsinglleft" unicode="&#x2039;" horiz-adv-x="315" 
d="M154 251l86 -135l-66 -43l-115 184l177 184l51 -56z" />
    <glyph glyph-name="guilsinglright" unicode="&#x203a;" horiz-adv-x="322" 
d="M187 263l-86 134l66 44l115 -185l-176 -183l-52 55z" />
    <glyph glyph-name="Euro" unicode="&#x20ac;" horiz-adv-x="569" 
d="M470 308l-20 -73h-206q7 -58 41 -97t99 -39q38 0 75 7.5t63 17.5l3 -103q-29 -14 -73 -22.5t-92 -8.5q-60 0 -105.5 17.5t-77.5 50t-49.5 77.5t-20.5 100h-74l19 73h58q0 3 1 11t2.5 17t3 17t2.5 11h-64l20 73h65q19 54 51.5 98.5t76 76t98 48.5t118.5 17q44 0 79.5 -9
t58.5 -20l-31 -104q-20 8 -48.5 16t-65.5 8q-72 0 -122.5 -34.5t-76.5 -96.5h216l-21 -73h-220q-4 -14 -6 -28l-4 -28h227z" />
    <glyph glyph-name="trademark" unicode="&#x2122;" horiz-adv-x="730" 
d="M125 620l16 63h235l-15 -63h-77l-39 -228h-77l39 228h-82zM496 395l-19 219h-2l-13 -69l-31 -153h-73l59 291h112l19 -150l3 -48h2l19 48l70 150h111l-38 -291h-74l21 153l10 69h-3l-91 -219h-82z" />
    <glyph glyph-name="thinspace" horiz-adv-x="120" 
 />
    </font>
</defs>
</svg>
